<svg fill="none" xmlns="http://www.w3.org/2000/svg" viewBox="0 0 220 71"><g clip-path="url(#a)"><path d="M94.147 20.862h2.892a.578.578 0 0 0 .52-.448l1.244-5.089h6.26l1.243 5.089a.58.58 0 0 0 .521.448h2.891a.466.466 0 0 0 .492-.448 1.163 1.163 0 0 1 0-.145l-4.511-16.756a3.973 3.973 0 0 0-3.781-2.745 3.975 3.975 0 0 0-3.78 2.745L93.685 20.24c.002.049.002.097 0 .145a.462.462 0 0 0 .491.448l-.029.03Zm7.33-16.525c.087-.318.174-.433.434-.433s.361.115.434.433l1.966 7.937h-4.786l1.952-7.937ZM113.202 20.385c1.789.441 3.623.674 5.465.694 4.338 0 6.492-2.544 6.492-6.723v-2.053c0-4.163-2.126-6.708-6.492-6.708-.875.01-1.749.073-2.617.188V1.041a.548.548 0 0 0-.534-.535h-2.502a.55.55 0 0 0-.549.535v18.621c0 .39.116.564.737.723Zm2.892-11.71a21.41 21.41 0 0 1 2.617-.188c2.327 0 2.891 1.619 2.891 3.816v2.053c0 2.198-.578 3.832-2.891 3.832a16.853 16.853 0 0 1-2.617-.188V8.675ZM132.85 21.05a7.097 7.097 0 0 0 4.337-1.344v.621a.537.537 0 0 0 .535.535h2.501a.55.55 0 0 0 .55-.535V6.347a.567.567 0 0 0-.55-.564h-2.559a.55.55 0 0 0-.534.564V17.03a7.737 7.737 0 0 1-3.08 1.07 2.37 2.37 0 0 1-1.677-.477c-.52-.448-.636-1.23-.636-2.56V6.39a.564.564 0 0 0-.535-.607h-2.545a.564.564 0 0 0-.549.564v8.674a6.635 6.635 0 0 0 1.359 4.858 4.656 4.656 0 0 0 3.34 1.128M152.021 20.761c1.775.206 3.561.312 5.349.318 5.451 0 8.544-2.891 8.544-8.183V8.964c0-5.292-3.093-8.183-8.544-8.183a47.69 47.69 0 0 0-5.349.318.752.752 0 0 0-.709.838v17.985a.746.746 0 0 0 .173.573.748.748 0 0 0 .536.266Zm3.079-16.77c.564 0 1.272-.087 2.27-.087 2.733 0 4.785 1.055 4.785 5.06v3.932c0 4.005-2.052 5.046-4.785 5.046-.998 0-1.706 0-2.27-.073V3.99ZM169.717 20.862h2.501a.577.577 0 0 0 .549-.564v-10.8a7.087 7.087 0 0 1 3.152-.91c1.822 0 2.227.593 2.227 2.891v8.762a.58.58 0 0 0 .549.563h2.501a.564.564 0 0 0 .535-.563v-8.675c0-3.296-1.113-5.913-4.858-5.913a7.432 7.432 0 0 0-4.106.983V1.041a.548.548 0 0 0-.549-.535h-2.501a.534.534 0 0 0-.535.535v19.2a.563.563 0 0 0 .535.563M189.379 21.08a7.46 7.46 0 0 0 3.831-1.186v.433a.55.55 0 0 0 .535.535h2.313a.55.55 0 0 0 .55-.535V10.7c0-3.427-2.126-5.104-5.986-5.104-1.523 0-3.042.14-4.539.42-.347.086-.521.274-.521.563v1.72c0 .377.217.449.492.449h.144c.897-.101 2.689-.217 4.424-.217 1.735 0 2.4.434 2.4 2.169v1.185h-1.72c-4.728 0-6.636 1.576-6.636 4.612v.116c0 3.614 2.458 4.467 4.713 4.467Zm-1.099-4.584c0-1.446.55-2.27 3.022-2.27h1.72v3.296a6.157 6.157 0 0 1-2.776.752c-1.359 0-1.966-.347-1.966-1.662v-.116ZM200.945 20.385c1.789.44 3.623.672 5.465.694 4.337 0 6.491-2.544 6.491-6.723v-2.053c0-4.163-2.11-6.708-6.491-6.708a21.44 21.44 0 0 0-2.573.188V1.041a.553.553 0 0 0-.55-.535h-2.501a.548.548 0 0 0-.549.535v18.621c0 .39.115.564.737.723h-.029Zm2.892-11.71a20.97 20.97 0 0 1 2.602-.188c2.342 0 2.891 1.619 2.891 3.816v2.053c0 2.198-.563 3.832-2.891 3.832a16.493 16.493 0 0 1-2.602-.188V8.675ZM216.429 3.773h2.631a.53.53 0 0 0 .388-.151.543.543 0 0 0 .162-.384V.882a.553.553 0 0 0-.55-.535h-2.631a.577.577 0 0 0-.578.535v2.356a.562.562 0 0 0 .578.535ZM218.988 5.783h-2.501a.53.53 0 0 0-.507.327.532.532 0 0 0-.043.208V20.24a.58.58 0 0 0 .55.563h2.501a.563.563 0 0 0 .535-.563V6.318a.532.532 0 0 0-.535-.535ZM96.85 35.03l1.447.883c2.486 1.532 3.137 1.98 3.137 3.296 0 1.315-.434 2.891-3.716 2.891a29.669 29.669 0 0 1-3.267-.217h-.058a.723.723 0 0 0-.795.767v.086c0 .694.636.796.925.839a20.89 20.89 0 0 0 3.268.217c4.554 0 5.508-2.458 5.508-4.525 0-2.068-1.533-3.355-4.063-4.844l-1.445-.853C95.738 32.342 95 31.676 95 30.42c0-.897.39-2.068 3.758-2.068.926 0 2.791.16 2.892.174h.26a.751.751 0 0 0 .853-.752v-.101c0-.738-.694-.796-.94-.824a31.456 31.456 0 0 0-3.108-.203c-3.585 0-5.552 1.33-5.552 3.76 0 2.428 1.446 3.368 3.644 4.669M114.026 38.168v-1.446c0-3.658-1.662-5.667-4.713-5.667-1.273.03-2.541.175-3.788.433a.724.724 0 0 0-.636.781v14.776a.788.788 0 0 0 .219.556.78.78 0 0 0 .548.239h.216a.78.78 0 0 0 .767-.795v-3.542c.884.145 1.778.223 2.674.231 2.154 0 4.713-.954 4.713-5.566Zm-4.713 3.947a17.654 17.654 0 0 1-2.674-.188V32.92a20.54 20.54 0 0 1 2.674-.217c2.082 0 2.892 1.2 2.892 4.033v1.446c0 2.805-.853 3.947-2.892 3.947M120.605 43.734c3.18 0 4.944-1.98 4.944-5.566v-1.446c0-3.6-1.764-5.58-4.944-5.58-3.181 0-4.959 1.908-4.959 5.508v1.446c0 3.585 1.749 5.566 4.93 5.566l.029.072Zm-.029-11.103c2.183 0 3.195 1.243 3.195 3.947v1.445c0 2.69-1.012 3.947-3.195 3.947s-3.181-1.258-3.181-3.947v-1.446c0-2.703 1.012-3.946 3.181-3.946ZM132.995 31.966v-.16c0-.274-.13-.722-.983-.722a5.306 5.306 0 0 0-2.704.723.78.78 0 0 0-.766-.608h-.174a.795.795 0 0 0-.795.824v10.8a.812.812 0 0 0 .81.795h.144a.795.795 0 0 0 .795-.795v-9.296a5.02 5.02 0 0 1 2.69-.824c.853 0 .983-.463.983-.737ZM141.452 42.939v-.13c0-.16 0-.694-.853-.694h-1.055c-.839 0-1.128-.087-1.128-1.114v-8.154h2.241a.737.737 0 0 0 .795-.737v-.217a.709.709 0 0 0-.242-.529.715.715 0 0 0-.553-.18h-2.241v-1.85a.754.754 0 0 0-.737-.795h-.246a.768.768 0 0 0-.766.795v1.85h-1.793a.721.721 0 0 0-.809.71v.216a.744.744 0 0 0 .245.544.756.756 0 0 0 .564.193h1.793v8.154c0 2.43 1.532 2.733 2.891 2.733.4.024.801.024 1.2 0a.707.707 0 0 0 .709-.737M143.462 43.373a20.13 20.13 0 0 0 3.282.303c2.703 0 4.192-1.2 4.192-3.397 0-1.72-1.243-2.53-2.992-3.485l-1.446-.81c-1.301-.722-1.923-1.185-1.923-1.908 0-1.07.521-1.445 2.096-1.445.924.017 1.846.084 2.762.202h.477c.202 0 .679-.072.679-.752v-.173c0-.636-.534-.709-.809-.752h-.13a22.586 22.586 0 0 0-3.065-.188c-2.4 0-3.759 1.113-3.759 3.065s1.243 2.544 2.891 3.426l1.446.752c1.822.983 2.125 1.374 2.125 2.024 0 1.287-.665 1.779-2.4 1.779a20.717 20.717 0 0 1-3.18-.347.722.722 0 0 0-.94.694v.23c0 .565.491.666.795.738M167.693 42.765v-.26a.616.616 0 0 0-.196-.487.62.62 0 0 0-.498-.163h-.159c-.738.086-2.4.202-3.774.202-2.645 0-4.048-1.894-4.048-5.45v-2.892c0-3.571 1.446-5.45 4.048-5.45 1.446 0 3.036.115 3.788.187.752.073.839-.289.839-.636v-.26a.812.812 0 0 0-.767-.766h-.101a30.012 30.012 0 0 0-3.759-.217c-2.168 0-5.783.925-5.783 7.142v2.891c0 6.203 3.629 7.128 5.783 7.128a31.052 31.052 0 0 0 3.759-.202h.101a.81.81 0 0 0 .767-.752M178.926 36.65c0-3.6-1.749-5.58-4.93-5.58-3.18 0-4.858 1.98-4.858 5.58v1.446c0 3.585 1.75 5.566 4.93 5.566 3.181 0 4.93-1.981 4.93-5.566l-.072-1.446Zm-4.93 5.465c-2.168 0-3.18-1.258-3.18-3.947v-1.446c0-2.689 1.012-3.947 3.18-3.947 2.169 0 3.181 1.258 3.181 3.947v1.446c0 2.689-1.012 3.947-3.181 3.947ZM189.133 43.604h.246a.786.786 0 0 0 .73-.502.788.788 0 0 0 .051-.308V31.98a.812.812 0 0 0-.81-.795h-.13a.808.808 0 0 0-.81.795v9.354a8.122 8.122 0 0 1-3.094.752c-1.734 0-2.587-.94-2.587-2.892v-7.228a.796.796 0 0 0-.781-.796h-.159a.813.813 0 0 0-.81.796v7.228a4.04 4.04 0 0 0 1.09 3.301 4.042 4.042 0 0 0 3.247 1.239 8.678 8.678 0 0 0 3.196-.694.778.778 0 0 0 .766.578M193.355 31.185h-.174a.782.782 0 0 0-.78.824v10.8a.809.809 0 0 0 .809.795h.13a.81.81 0 0 0 .81-.795v-9.354a7.794 7.794 0 0 1 3.094-.752c1.735 0 2.588.954 2.588 2.891v7.23a.796.796 0 0 0 .78.794h.16a.794.794 0 0 0 .809-.795v-7.229c0-2.891-1.561-4.54-4.337-4.54a8.676 8.676 0 0 0-3.181.695.78.78 0 0 0-.766-.579M208.318 32.703c.856.009 1.711.072 2.559.188a.707.707 0 0 0 .911-.694v-.145c0-.448-.246-.708-.766-.78a24.572 24.572 0 0 0-2.704-.203c-3.021 0-4.756 2.039-4.756 5.58v1.447c0 3.542 1.778 5.638 4.756 5.638.651 0 1.648-.072 2.718-.188.506-.072.752-.332.752-.78v-.16a.688.688 0 0 0-.218-.492.7.7 0 0 0-.505-.187h-.159a20.64 20.64 0 0 1-2.573.188c-2.053 0-3.007-1.273-3.007-4.02V36.65c0-2.704.954-3.947 3.007-3.947M214.55 43.734h.144a.813.813 0 0 0 .81-.795V31.98a.812.812 0 0 0-.81-.795h-.144a.796.796 0 0 0-.796.795v10.959a.796.796 0 0 0 .796.795ZM214.55 29.811h.144a.813.813 0 0 0 .81-.795V27.47a.822.822 0 0 0-.81-.81h-.144a.81.81 0 0 0-.796.81v1.605a.796.796 0 0 0 .796.795M219.234 26.718h-.217a.778.778 0 0 0-.723.751v15.47a.76.76 0 0 0 .214.56.768.768 0 0 0 .552.235h.217a.782.782 0 0 0 .766-.795v-15.47a.788.788 0 0 0-.218-.556.778.778 0 0 0-.548-.239M98.947 64.654a.578.578 0 0 0-.347-.13h-.55a.578.578 0 0 0-.346.13.476.476 0 0 0-.174.39v.694a.478.478 0 0 0 .174.362c.096.084.22.13.347.13h.55a.55.55 0 0 0 .474-.291.462.462 0 0 0 .046-.2v-.68a.477.477 0 0 0-.174-.39M96.692 64.654a.52.52 0 0 0-.347-.13h-.52a.651.651 0 0 0-.377.13.536.536 0 0 0-.158.39v.694c.003.137.06.267.158.362a.564.564 0 0 0 .376.13h.52a.58.58 0 0 0 .348-.13.435.435 0 0 0 .188-.362v-.68a.448.448 0 0 0-.188-.39M111.149 51.816a.534.534 0 0 0-.361.144.495.495 0 0 0-.174.39v.752a.442.442 0 0 0 .159.362.52.52 0 0 0 .376.145h.579a.52.52 0 0 0 .39-.145.483.483 0 0 0 .159-.361v-.752a.56.56 0 0 0-.159-.39.578.578 0 0 0-.376-.145h-.593ZM114.619 55.647a3.133 3.133 0 0 0-1.243-.68 6.229 6.229 0 0 0-1.634-.202h-.622a6.239 6.239 0 0 0-.838.13 5.62 5.62 0 0 0-.896.26 3.23 3.23 0 0 0-.506.246v-.13a.522.522 0 0 0-.131-.347.49.49 0 0 0-.332-.13h-.636a.493.493 0 0 0-.347.159.516.516 0 0 0-.13.347v4.64h-1.938c-.152.036-.31.036-.462 0v-3.556a.477.477 0 0 0-.13-.347.55.55 0 0 0-.261-.115 5.094 5.094 0 0 0-.882-.145h-.939c-.876-.05-1.743.2-2.458.709a2.804 2.804 0 0 0-.925 2.313v3.513h-1.33a4.208 4.208 0 0 1-1.59-.246 1.98 1.98 0 0 1-.84-.665c-.198-.299-.322-.64-.36-.998a8.805 8.805 0 0 1-.087-1.272 4.5 4.5 0 0 1 0-.578v-.694a.507.507 0 0 0-.116-.39.435.435 0 0 0-.318-.116h-.593a.477.477 0 0 0-.492.434c-.009.159-.009.318 0 .477v1.286a7.3 7.3 0 0 0 .203 1.764c.124.535.377 1.032.737 1.446.39.427.89.737 1.446.896.68.228 1.394.336 2.11.319h1.316c.394-.022.785-.07 1.171-.145a.508.508 0 0 0 .478-.492v-4.583c-.012-.27.027-.54.115-.795.063-.172.167-.326.304-.448.146-.12.32-.199.506-.231.241-.06.489-.09.737-.087H103.415v2.675a1.603 1.603 0 0 0 .433 1.287c.417.304.934.439 1.446.375h9.542a.74.74 0 0 0 .492-.246.823.823 0 0 0 .188-.347c.046-.156.08-.315.101-.477a3.36 3.36 0 0 0 0-.55v-1.358a5.334 5.334 0 0 0-.246-1.706 2.802 2.802 0 0 0-.781-1.2h.029Zm-.694 4.337h-5.045v-2.891c.168-.122.353-.22.549-.29.251-.087.507-.16.766-.216.26 0 .506-.087.738-.116h.534c.399-.003.796.036 1.186.116.283.06.546.188.766.376.213.186.373.425.463.694.113.384.167.784.159 1.185v.839c.012.11.012.222 0 .332l-.116-.029ZM122.614 62.413h-.506a.55.55 0 0 0-.361.13.465.465 0 0 0-.188.39v.752a.493.493 0 0 0 .173.376.64.64 0 0 0 .376.145h.506a.518.518 0 0 0 .376-.16.516.516 0 0 0 .159-.36v-.752a.496.496 0 0 0-.159-.376.497.497 0 0 0-.376-.145ZM120.431 62.413h-.448a.52.52 0 0 0-.521.52v.752a.503.503 0 0 0 .145.362.523.523 0 0 0 .376.159h.506a.518.518 0 0 0 .376-.16.482.482 0 0 0 .173-.36v-.752a.508.508 0 0 0-.045-.214.506.506 0 0 0-.128-.177.565.565 0 0 0-.376-.13M122.065 61.488c.128-.005.255-.03.376-.072a.641.641 0 0 0 .318-.246.998.998 0 0 0 .13-.333 7.284 7.284 0 0 0 0-.91v-3.918a.476.476 0 0 0-.492-.492h-.665a.456.456 0 0 0-.347.159.535.535 0 0 0-.101.332v3.658a.466.466 0 0 1 0 .246c-.12.008-.241.008-.361 0H119.332a.658.658 0 0 1-.202 0 .29.29 0 0 1-.101-.145 1.187 1.187 0 0 1 0-.347v-8.197a.594.594 0 0 0-.116-.347.475.475 0 0 0-.361-.159h-.68a.488.488 0 0 0-.347.159.49.49 0 0 0-.13.347v8.385a2.79 2.79 0 0 0 .13.926c.081.245.225.465.419.636.191.161.42.271.665.318.271.062.547.091.825.087h2.66M130.551 50.731h-.679a.422.422 0 0 0-.333.145.426.426 0 0 0-.144.347v8.443a.779.779 0 0 1 0 .246c-.12.016-.242.016-.362 0h-2.096v-3.89a.521.521 0 0 0-.13-.346.506.506 0 0 0-.347-.145h-.694a.506.506 0 0 0-.347.145.516.516 0 0 0-.13.347v6.491c.027.153.027.31 0 .463a.32.32 0 0 1-.13.188.963.963 0 0 1-.289.101h-.651a.429.429 0 0 0-.335.11.443.443 0 0 0-.106.147.446.446 0 0 0-.036.177v.593a.462.462 0 0 0 .434.462h.448c.385.02.771-.025 1.142-.13a1.58 1.58 0 0 0 .853-.737c.122-.209.2-.44.231-.68.017-.27.017-.54 0-.81v-.823h3.224c.133-.016.264-.045.391-.087a.596.596 0 0 0 .318-.26.971.971 0 0 0 .115-.304v-9.701a.516.516 0 0 0-.13-.347.482.482 0 0 0-.347-.145M134.093 50.717h-.665a.487.487 0 0 0-.361.159.477.477 0 0 0-.13.333v9.86a.492.492 0 0 0 .491.506h.665a.433.433 0 0 0 .362-.174.522.522 0 0 0 .116-.333v-9.86a.587.587 0 0 0-.116-.332.48.48 0 0 0-.362-.159ZM142.797 64.654a.55.55 0 0 0-.362-.13h-.52a.647.647 0 0 0-.361.13.487.487 0 0 0-.174.39v.694a.525.525 0 0 0 .159.362.564.564 0 0 0 .376.13h.52a.548.548 0 0 0 .347-.13.427.427 0 0 0 .188-.362v-.68a.47.47 0 0 0-.173-.39M145.038 64.654a.55.55 0 0 0-.347-.13h-.535a.52.52 0 0 0-.347.13.485.485 0 0 0-.188.39v.694a.477.477 0 0 0 .173.362c.103.083.23.129.362.13h.535a.521.521 0 0 0 .347-.13.465.465 0 0 0 .173-.362v-.68a.47.47 0 0 0-.173-.39M154.406 62.413h-.578a.563.563 0 0 0-.376.13.576.576 0 0 0-.173.39v.752a.533.533 0 0 0 .173.362.523.523 0 0 0 .376.159h.578a.518.518 0 0 0 .376-.16.534.534 0 0 0 .174-.36v-.752a.524.524 0 0 0-.174-.376.534.534 0 0 0-.376-.145ZM162.257 53.608a.508.508 0 0 0 .376-.144.44.44 0 0 0 .159-.361v-.752a.488.488 0 0 0-.159-.39.535.535 0 0 0-.362-.145h-.593a.58.58 0 0 0-.376.144.56.56 0 0 0-.173.39v.752a.48.48 0 0 0 .159.362.525.525 0 0 0 .39.145h.579Z" fill="#231F20"/><path d="M164.888 55.647a3.3 3.3 0 0 0-1.258-.68 6.223 6.223 0 0 0-1.634-.202h-.621a8.013 8.013 0 0 0-.824.116 7.588 7.588 0 0 0-.897.245l-.506.232v-4.15a.475.475 0 0 0-.144-.332.449.449 0 0 0-.347-.145h-.68a.447.447 0 0 0-.347.145.51.51 0 0 0-.13.333v8.674H155.288l-.246-.087v-3.773a.44.44 0 0 0-.144-.347.478.478 0 0 0-.333-.145h-.636a.49.49 0 0 0-.491.492v3.744a.442.442 0 0 1-.159.102h-2.169c-.015 0 0 0 0-.232v-3.253a.46.46 0 0 0-.13-.347.713.713 0 0 0-.26-.115 5.369 5.369 0 0 0-.882-.145h-.955c-.871-.05-1.733.2-2.443.709a2.76 2.76 0 0 0-.925 2.313v3.368H144.17a4.203 4.203 0 0 1-1.59-.245 1.988 1.988 0 0 1-.839-.665 2.443 2.443 0 0 1-.361-.984 9.23 9.23 0 0 1-.087-1.286v-.579c0-.231 0-.462.087-.694a.577.577 0 0 0-.13-.39.407.407 0 0 0-.318-.116h-.709a.477.477 0 0 0-.506.434c0 .145 0 .304-.072.477v.94a3.347 3.347 0 0 0 0 .347 6.636 6.636 0 0 0 .203 1.764c.108.537.358 1.036.722 1.445.375.41.848.719 1.374.897.68.225 1.394.333 2.111.318h1.315c.398-.022.794-.07 1.186-.145a.504.504 0 0 0 .462-.491v-4.439c-.004-.27.035-.538.116-.795.063-.172.167-.326.304-.448.147-.117.321-.196.506-.231.245-.062.498-.091.752-.087H149.389v2.675a1.562 1.562 0 0 0 .449 1.286c.398.285.885.419 1.373.376h1.301c.307-.001.612-.035.911-.101a1.89 1.89 0 0 0 .766-.304c.234.159.501.263.781.304.318.068.643.102.969.101h9.151a.725.725 0 0 0 .506-.231c.092-.105.161-.228.203-.362.041-.156.07-.316.087-.477v-1.909a4.922 4.922 0 0 0-.261-1.705 2.89 2.89 0 0 0-.766-1.186l.029-.014Zm-.607 3.108v.824c.011.106.011.213 0 .319h-5.06v-2.935a2.62 2.62 0 0 1 .535-.26c.256-.086.516-.159.78-.218.243-.053.489-.087.738-.1.197-.013.395-.013.592 0 .384-.011.768.028 1.142.115.28.049.54.174.752.361.213.196.367.446.448.723.127.382.186.783.174 1.186M175.442 62.413h-.521a.55.55 0 0 0-.361.13.521.521 0 0 0-.173.39v.752c.003.137.06.267.159.362a.516.516 0 0 0 .375.159h.593a.522.522 0 0 0 .362-.16.482.482 0 0 0 .173-.36v-.752a.468.468 0 0 0-.173-.376.512.512 0 0 0-.362-.145" fill="#231F20"/><path d="M177.003 56.008a.476.476 0 0 0-.491-.491h-.665a.465.465 0 0 0-.347.159.503.503 0 0 0-.101.332v3.644a.873.873 0 0 1 0 .26h-2.227v-4.496a.447.447 0 0 0-.101-.304.55.55 0 0 0-.275-.145 3.763 3.763 0 0 0-.911-.173h-1.098a3.63 3.63 0 0 0-2.603.91 3.339 3.339 0 0 0-.911 2.459v.347a3.16 3.16 0 0 0 .81 2.342 3.18 3.18 0 0 0 2.299.78h1.156v.318c.008.25-.042.496-.144.723a.852.852 0 0 1-.391.39c-.209.118-.44.191-.679.218a6.251 6.251 0 0 1-.954 0h-1.171a.404.404 0 0 0-.448.419v.607a.371.371 0 0 0 .021.155c.017.05.044.095.08.134a.504.504 0 0 0 .303.145H169.616c.486.013.971-.036 1.445-.145a2.69 2.69 0 0 0 1.114-.477c.324-.234.583-.548.751-.91.195-.458.299-.95.304-1.447v-.303H176.237c.124-.006.245-.03.362-.072a.608.608 0 0 0 .332-.246 1.11 1.11 0 0 0 .13-.333 7.284 7.284 0 0 0 0-.91v-3.109l-.058-.78Zm-8.139 2.024a1.587 1.587 0 0 1 1.72-1.749h.925v3.643h-1.142a1.59 1.59 0 0 1-1.185-.361 1.876 1.876 0 0 1-.347-1.272l.029-.26ZM180.126 51.454h-.679a.451.451 0 0 0-.347.145.516.516 0 0 0-.13.347v9.123a.516.516 0 0 0 .286.463c.06.028.125.042.191.043h.679a.419.419 0 0 0 .347-.174.47.47 0 0 0 .13-.333v-9.122a.505.505 0 0 0-.13-.333.405.405 0 0 0-.347-.159ZM180.704 49.864h-.881a.57.57 0 0 1 0-.101.686.686 0 0 1 0-.376c0-.203 0-.405.506-.405h.433a.367.367 0 0 0 .29-.094.358.358 0 0 0 .115-.282v-.188a.445.445 0 0 0-.332-.39h-.579a1.776 1.776 0 0 0-1.098.318 1.277 1.277 0 0 0-.42 1.026 1.814 1.814 0 0 0 0 .477.854.854 0 0 0 0 .102c-.318 0-.332.274-.332.347v.245c0 .188.115.39.462.39h1.836c.09.025.185.025.275 0a.334.334 0 0 0 .188-.332v-.231c0-.188-.116-.39-.448-.39M208.318 62.413h-.592a.55.55 0 0 0-.362.13.521.521 0 0 0-.173.39v.752c.003.137.06.267.159.362a.516.516 0 0 0 .376.159h.592a.522.522 0 0 0 .362-.16.482.482 0 0 0 .173-.36v-.752a.454.454 0 0 0-.173-.376.508.508 0 0 0-.362-.145Z" fill="#231F20"/><path d="M216.848 54.765a3.08 3.08 0 0 0-2.284.839 3.2 3.2 0 0 0-.795 2.342v1.33a1.26 1.26 0 0 1 0 .347.194.194 0 0 1 0 .13.774.774 0 0 1-.217.116h-.969l-.564-1.446-.144-.362a7.578 7.578 0 0 0-.882-1.619 4.154 4.154 0 0 0-1.055-1.026 3.516 3.516 0 0 0-1.229-.506 6.64 6.64 0 0 0-2.039-.116c-.224.017-.446.05-.665.101a.519.519 0 0 0-.332.16.506.506 0 0 0-.116.317v.564a.422.422 0 0 0 .145.318.547.547 0 0 0 .318.101h1.055a3.384 3.384 0 0 1 1.923.478c.511.363.907.864 1.142 1.445l.679 1.62h-6.766l-.245-.087v-8.602a.478.478 0 0 0-.288-.445.432.432 0 0 0-.19-.033h-.939a.432.432 0 0 0-.347.145.413.413 0 0 0-.145.333v8.558a.591.591 0 0 1-.159.102H199.731l-.261-.087v-4.12a.458.458 0 0 0-.13-.333.435.435 0 0 0-.347-.16h-.665a.537.537 0 0 0-.347.146.593.593 0 0 0-.115.346v4.034a.144.144 0 0 1 0 .116.604.604 0 0 1-.159.1H196.998a4.995 4.995 0 0 1-.679 0 .223.223 0 0 1-.217-.13v-3.585a.478.478 0 0 0-.13-.332.451.451 0 0 0-.347-.145h-.651a.46.46 0 0 0-.332.13.535.535 0 0 0-.145.347v3.615a.203.203 0 0 1-.145.087h-1.604v-3.181a.522.522 0 0 0-.276-.464.43.43 0 0 0-.202-.042h-.65a.495.495 0 0 0-.347.159.516.516 0 0 0-.13.347v5.623h-.911a4.167 4.167 0 0 1-1.576-.23 1.909 1.909 0 0 1-.838-.637 2.046 2.046 0 0 1-.362-.968 9.134 9.134 0 0 1-.087-1.302v-.274a3.073 3.073 0 0 1 0-.333v-.708a.49.49 0 0 0-.086-.405.456.456 0 0 0-.333-.13h-.593a.48.48 0 0 0-.491.434 4.293 4.293 0 0 0-.072.491V59.68a6.733 6.733 0 0 0 .216 1.793 3.1 3.1 0 0 0 .752 1.374c.402.403.899.696 1.446.853a6.721 6.721 0 0 0 2.096.289h.998c.332 0 .679-.101 1.026-.173a.754.754 0 0 0-.058-.203.416.416 0 0 0 .16-.347v-1.735h.968c.336 0 .671-.038.998-.115.241-.05.471-.143.679-.275.201.141.427.244.665.303.308.074.624.108.94.102h.217c.311.003.622-.03.925-.102.241-.053.467-.156.665-.303.24.148.504.25.781.303.294.066.595.1.896.102h.781c.302-.001.602-.035.896-.102.278-.047.544-.15.781-.303l.289.159c.155.061.315.11.477.144.164.013.328.013.492 0h8.689a4.01 4.01 0 0 0 1.128-.159c.255-.062.486-.198.665-.39.241.236.532.414.853.52.463.166.953.244 1.445.232a2.99 2.99 0 0 0 2.328-.81c.521-.66.778-1.489.723-2.327V57.8a3.314 3.314 0 0 0-.766-2.342 2.893 2.893 0 0 0-2.256-.824l.159.13Zm-1.605 3.152a2.106 2.106 0 0 1 .347-1.316 1.361 1.361 0 0 1 1.258-.217 1.243 1.243 0 0 1 1.085.42c.242.394.358.853.332 1.315v.52c.037.462-.074.923-.318 1.316a1.449 1.449 0 0 1-1.128.362 2.242 2.242 0 0 1-.954-.188.907.907 0 0 1-.434-.665 3.638 3.638 0 0 1 0-.723l-.188-.824Z" fill="#231F20"/><path d="M84.678 42.26a38.747 38.747 0 0 0-3.08-12.839c-.636-1.547-1.445-3.108-2.212-4.67l-.462-.896-.434-.824-.434-.868C74.63 15.441 70.827 7.822 73.33.737v-.39L72.982 0h-.116v.145V0h-.246c-9.296 8.515-12.173 20.24-7.576 30.144.81 1.706 1.952 3.701 3.167 5.783.925 1.605 1.966 3.412 2.891 5.248-5.45 11.291-17.363 15.788-26.096 19.055l-.39-.26-.723-.477a39.613 39.613 0 0 0-14.299-6.694 35.132 35.132 0 0 0-8.211-1.186c-.571-.004-1.141.034-1.706.116l-.52.087c-.174 0-.71.173-.71.578v.145h2.357a38.69 38.69 0 0 1 9.268 1.59 42.635 42.635 0 0 1 10.25 4.337 52.221 52.221 0 0 0-18.795-3.831 26.631 26.631 0 0 0-7.735.94c-.983.318-1.445.621-1.3.997v.16h.158a24.722 24.722 0 0 1 7.345-.868 60.288 60.288 0 0 1 18.794 3.383 51.786 51.786 0 0 0-13.185-1.764c-1.445 0-2.978 0-4.496.203-.55 0-1.215.1-1.894.187A38.008 38.008 0 0 0 7.287 61.3c-.955.52-1.273.838-1.128 1.17v.145h.13l1.041-.448c.766-.303 1.706-.68 2.747-.997a54.288 54.288 0 0 1 15.31-2.43h.463c4.208.043 8.4.528 12.506 1.447a60.312 60.312 0 0 0-5.003-.29h-3.816a67.308 67.308 0 0 0-9.484 1.1 55.065 55.065 0 0 0-11.986 3.6 42.569 42.569 0 0 0-4.713 2.4c-.756.436-1.486.919-2.183 1.445l-.159.13a3.498 3.498 0 0 0-.737.824c-.131.155-.225.338-.275.535v.39h.145l.318-.231.535-.361A46.631 46.631 0 0 1 3.6 68.095a59.276 59.276 0 0 1 28.264-6.867 64.31 64.31 0 0 1 18.42 2.732h.202a30.362 30.362 0 0 0 7.3 1.316h1.446a24.03 24.03 0 0 0 11.465-2.892 18.28 18.28 0 0 0 2.068-1.229A26.79 26.79 0 0 0 83.333 49.59a.491.491 0 0 0 .101-.217c.35-.84.64-1.706.868-2.587.3-1.557.392-3.147.274-4.728l.102.202Zm-1.273 2.804a25.921 25.921 0 0 0-1.691-5.71c.256-1.643.42-3.299.491-4.96a30.88 30.88 0 0 1 1.2 10.67Zm-11.117-4.048a30.756 30.756 0 0 0 1.763-4.814c.825 1.445 1.518 2.891 2.169 4.337a25.677 25.677 0 0 1-2.038 4.496 55.943 55.943 0 0 0-1.894-3.99v-.029Zm3.773 9.788a27.978 27.978 0 0 0-1.359-4.526 26.712 26.712 0 0 0 2.14-4.337c.39.925.752 1.836 1.113 2.805l.13.347c.188.477.362.969.535 1.446a24.577 24.577 0 0 1-2.559 4.221v.044Zm4.887-13.128c-.434-.954-.926-1.966-1.446-3.094-.174-.361-.362-.708-.52-1.04.25-2.404.25-4.826 0-7.23a56.239 56.239 0 0 1 1.619 3.485 16.38 16.38 0 0 1 .347 7.88Zm-2.212-2.255c.636 1.272 1.359 2.732 1.98 4.221-.072.463-.144.955-.231 1.446a22.37 22.37 0 0 1-1.142 4.178l-.16-.39-.115-.332a81.179 81.179 0 0 0-1.605-3.904 32.923 32.923 0 0 0 1.273-5.233v.014Zm-.853-1.677a33.984 33.984 0 0 1-1.085 5.45c-.665-1.445-1.445-2.761-2.27-4.337.418-1.803.736-3.627.955-5.465.68 1.142 1.445 2.545 2.4 4.337v.015Zm.173-1.938a98.846 98.846 0 0 0-2.255-3.975l-.13-.217a42.193 42.193 0 0 0 0-7.764c.448.911.91 1.822 1.445 2.747l.145.29a25.242 25.242 0 0 1 .795 8.92Zm-3.325-5.783a29.412 29.412 0 0 1-1.937-4.091A31.127 31.127 0 0 1 71.348 6.13a27.095 27.095 0 0 0 2.515 9.773c.861 3.3 1.154 6.722.868 10.12Zm-2.892-3.7a35.575 35.575 0 0 0 2.79 5.609 51.123 51.123 0 0 1-.852 5.638 61.623 61.623 0 0 0-1.085-1.85l-.708-1.23a26.975 26.975 0 0 1-4.048-10.25v-.26c-.76-4.9.098-9.915 2.443-14.284a32.37 32.37 0 0 0 1.446 16.612l.014.014ZM69.454 5.117A23.753 23.753 0 0 0 66.88 20.11v.246a28.25 28.25 0 0 0 4.105 10.627l.694 1.17c.52.897 1.114 1.909 1.677 2.892l-.072.318a28.689 28.689 0 0 1-1.561 4.64 230.046 230.046 0 0 0-2.588-4.596c-1.186-2.097-2.328-4.078-3.108-5.784-3.716-7.937-2.43-17.233 3.643-24.924l-.26.477.043-.058ZM48.1 60.187c8.892-3.369 18.607-8.14 23.696-17.769.723 1.446 1.316 2.704 1.807 3.918a27.758 27.758 0 0 1-6.419 6.94 35.435 35.435 0 0 1-19.084 6.91Zm19.735-6.058a29.436 29.436 0 0 0 6.245-6.564 22.88 22.88 0 0 1 1.186 4.482 27.212 27.212 0 0 1-6 5.234 26.024 26.024 0 0 1-10.323 3.83c-1.232.164-2.472.26-3.715.29-1.302 0-3.456 0-4.077-.087l-2.603-.217h.608a35.305 35.305 0 0 0 18.679-6.968Zm-17.176 8.24h.42c.607 0 2.819.174 4.206.116a33.656 33.656 0 0 0 3.817-.318 26.774 26.774 0 0 0 10.728-3.976 27.887 27.887 0 0 0 5.552-4.67c.046 1.001-.071 2.002-.348 2.965a6.924 6.924 0 0 1-1.677 2.891 12.476 12.476 0 0 1-3.975 2.559h-.145a22.582 22.582 0 0 1-4.54 1.677c-1.93.404-3.898.597-5.87.578a28.468 28.468 0 0 1-7.387-1.127s-1.157-.304-2.993-.839c.665 0 1.446.16 2.212.217v-.072Zm25.402-5.45c.398-1.439.506-2.943.318-4.424a24.46 24.46 0 0 0 2.79-4.178c.201.759.341 1.532.42 2.313a8.674 8.674 0 0 1-.275 3.109c-.12.407-.284.8-.492 1.17-.293.427-.632.82-1.012 1.172l-.1.1c-.391.391-.782.767-1.172 1.114-.39.347-.622.564-.925.81.177-.384.326-.78.448-1.186Zm3.802-10.033a22.526 22.526 0 0 0 1.62-5.19c.437 1.256.766 2.547.983 3.86a8.878 8.878 0 0 1 0 3.802l-.073.231a13.211 13.211 0 0 1-1.792 3.166 13.46 13.46 0 0 0-.723-5.942" fill="#BC955C"/></g><defs><clipPath id="a"><path fill="#fff" d="M0 0h220v70.336H0z"/></clipPath></defs></svg>