<?xml version="1.0" encoding="utf-8"?>
<!-- Generator: Adobe Illustrator 27.1.1, SVG Export Plug-In . SVG Version: 6.00 Build 0)  -->
<svg version="1.1" id="Layer_1" xmlns="http://www.w3.org/2000/svg" xmlns:xlink="http://www.w3.org/1999/xlink" x="0px" y="0px"
	 viewBox="0 0 500 255" style="enable-background:new 0 0 500 255;" xml:space="preserve">
<style type="text/css">
	.st0{fill:url(#SVGID_1_);}
	.st1{fill:url(#SVGID_00000073708509587451750710000004076450875883537806_);}
	.st2{fill:url(#SVGID_00000014632675744675241240000007811889757948296835_);}
	.st3{fill:url(#SVGID_00000151521054468607061710000013334698825553009316_);}
	.st4{fill:url(#SVGID_00000090255354585610458680000009534123148578826889_);}
	.st5{fill:#231F20;}
</style>
<g>
	<g>
		
			<linearGradient id="SVGID_1_" gradientUnits="userSpaceOnUse" x1="238.1452" y1="4506.5215" x2="271.7348" y2="4546.5518" gradientTransform="matrix(1 0 0 1 0 -4409.1113)">
			<stop  offset="0" style="stop-color:#6CA743"/>
			<stop  offset="0.9106" style="stop-color:#166A41"/>
		</linearGradient>
		<path class="st0" d="M289.1,110.1L289.1,110.1c-2.5-10.1-9.6-12.8-16.5-14.7h-0.7c2.5-3.9,10.1-5.7,14.7-6.4h0.7
			c-7.6-5.1-18.5-2.5-22.3-1.3c1.3-5.7,5.1-8.3,8.3-12.1c-6.4,0.7-13.3,4.4-15.9,8.9l0,0c-0.7-1.3-0.7-2.5-1.3-3.9
			c-0.7-3.2-2.5-7.6-3.9-10.1c-1.9,4.4-3.9,8.9-5.1,14.7c-1.3-1.3-2.5-2.5-3.2-3.9c-3.2-2.5-7.6-4.4-12.8-5.1l0,0
			c3.2,3.2,6.4,6.4,8.3,11.5v0.7c-8.9-2.5-15.9-1.9-22.3,0.7c0,0,0,0.7-0.7,0.7c3.2,0.7,6.4,1.3,9.6,2.5c1.9,1.3,3.9,2.5,5.7,3.2
			c0,0,0,0.7,0.7,0.7c-1.9,0.7-3.9,1.3-5.1,1.9c-6.4,2.5-9.6,6.9-12.1,13.3l0,0c4.4-1.3,8.3-5.1,15.3-4.4c0,0,0,0,0,0.7
			c-4.4,5.1-10.1,9.6-10.1,21c3.9-3.2,8.3-12.8,14.7-12.1c0,0,0,0,0.7,0.7c-1.3,3.2-2.5,5.7-3.9,8.9c-0.7,3.2,0,6.9,0,9.6
			c0,0,0,0,0.7,0c1.9-3.9,9.6-14,14.7-12.8c1.3,0.7,2.5,5.7,1.9,8.3c-1.3,0.7-1.3,0.7-1.9,1.3c-0.7,3.9,2.5,7.6,1.3,11.5
			c-0.7,0.7-0.7,0.7-1.3,0.7c0,2.5,1.3,5.7,1.3,9.6c-0.7,0-0.7,0.7-1.3,0.7c-0.7,1.9,2.5,8.3,1.9,12.8c-1.9,0.7-3.2,1.3-5.1,1.9
			c0,0,0,0.7-0.7,0.7c5.7,0,11.5,0,17.2,0c0,0,0,0,0-0.7c-1.9-0.7-3.9-1.9-5.7-2.5c0-5.1,1.3-8.3,1.9-12.1c-0.7,0-1.3-0.7-1.9-0.7
			c0.7-3.2,1.3-6.4,1.9-9.6c-0.7,0-1.3-0.7-1.9-0.7c0-5.1,1.9-8.9,1.3-11.5c-0.7-0.7-0.7-1.3-1.9-1.3c-0.7-2.5,0.7-6.9,1.9-8.3
			c5.7-0.7,13.3,8.3,14.7,12.8c0,0,0.7,0,0.7,0.7c0.7-4.4,0.7-9.6-0.7-13.3c-0.7-1.9-2.5-3.9-2.5-5.7h0.7c3.9-1.3,12.8,8.9,14,11.5
			h0.7c0.7-1.3,0-3.2-0.7-4.4c-0.7-9.6-5.1-10.8-9.6-16.5c0,0,0,0,0.7-0.7C280.2,104.4,284.6,108.2,289.1,110.1z"/>
		
			<linearGradient id="SVGID_00000126302798486439828790000017688848546142326413_" gradientUnits="userSpaceOnUse" x1="0" y1="4598.7729" x2="489.4932" y2="4598.7729" gradientTransform="matrix(1 0 0 1 0 -4409.1113)">
			<stop  offset="0" style="stop-color:#6C9D40"/>
			<stop  offset="0.8547" style="stop-color:#E4DE32"/>
		</linearGradient>
		<path style="fill:url(#SVGID_00000126302798486439828790000017688848546142326413_);" d="M489.1,149.7
			C489.6,149,489.6,149,489.1,149.7C489.6,149,489.6,149,489.1,149.7 M0,147c0,0,64.9,99.3,207.6,106.9
			c169.4,9.6,271.9-94.2,281.4-104.4c-8.9,9.6-94.2,94.9-257.3,85.3C94.9,226.7,19.1,124.7,19.1,124.7L0,147z"/>
		
			<linearGradient id="SVGID_00000096038014516889163650000018270007800857296058_" gradientUnits="userSpaceOnUse" x1="18.451" y1="4578.2666" x2="489.6355" y2="4578.2666" gradientTransform="matrix(1 0 0 1 0 -4409.1113)">
			<stop  offset="0.1117" style="stop-color:#7EB33F"/>
			<stop  offset="0.8492" style="stop-color:#6CA743"/>
		</linearGradient>
		<path style="fill:url(#SVGID_00000096038014516889163650000018270007800857296058_);" d="M238.8,213.9
			c-135-20.4-198.1-111.4-198.1-111.4l-22.3,22.9c0,0,69.4,100,213.3,109.6c167.4,10.8,257.9-86.6,257.9-86.6
			S395.4,237.5,238.8,213.9z"/>
		
			<linearGradient id="SVGID_00000034064977421066990120000002883020431287713189_" gradientUnits="userSpaceOnUse" x1="6.517136e-06" y1="4482.6304" x2="500" y2="4482.6304" gradientTransform="matrix(1 0 0 1 0 -4409.1113)">
			<stop  offset="8.938547e-02" style="stop-color:#D1D633"/>
			<stop  offset="0.8883" style="stop-color:#73A141"/>
		</linearGradient>
		<path style="fill:url(#SVGID_00000034064977421066990120000002883020431287713189_);" d="M294.2,0c-10.1,0-20.4,0.7-31.2,1.3
			C89.7,17.2,0,147,0,147S94.9,27.3,252.8,23.5c142-3.9,232.5,73.2,232.5,73.2L500,72.6C499.9,71.9,421,0,294.2,0z"/>
		
			<linearGradient id="SVGID_00000101803935920084168540000001269783942469118641_" gradientUnits="userSpaceOnUse" x1="6.517136e-06" y1="4493.7354" x2="485.7632" y2="4493.7354" gradientTransform="matrix(1 0 0 1 0 -4409.1113)">
			<stop  offset="0.1229" style="stop-color:#6CA743"/>
			<stop  offset="0.9106" style="stop-color:#166A41"/>
		</linearGradient>
		<path style="fill:url(#SVGID_00000101803935920084168540000001269783942469118641_);" d="M264.9,22.2c-6.9,0-14.7,0-22.3,0.7
			C87.8,32.5,0,147,0,147S80.2,47.7,241.9,46.5c136.9-1.3,227.9,76.4,227.9,76.4l15.9-26.8C485.9,96.1,396.7,22.2,264.9,22.2z"/>
	</g>
	<path class="st5" d="M123,121.5h4.2V144h-4.6l-9.1-14.7V144h-4.2v-22.4h4.4l9.2,15V121.5z M141,133.4v-0.5c0-0.8-0.2-1.4-0.6-1.8
		c-0.5-0.3-1.1-0.6-2.3-0.6c-0.8,0-1.4,0.1-1.8,0.5c-0.5,0.3-0.8,0.8-1,1.6l-3.9-0.7c0.5-1.6,1.1-2.7,2.3-3.5c1-0.8,2.6-1.1,4.8-1.1
		c1.9,0,3.3,0.2,4.3,0.7c0.9,0.5,1.6,1,1.9,1.7c0.3,0.7,0.6,1.9,0.6,3.9v5c0,1.5,0.1,2.5,0.2,3.2c0.1,0.7,0.3,1.4,0.8,2.2h-4.2
		c-0.1-0.2-0.2-0.7-0.5-1.3c-0.1-0.2-0.1-0.5-0.1-0.5c-0.7,0.7-1.5,1.3-2.4,1.6c-0.8,0.3-1.7,0.6-2.7,0.6c-1.7,0-3-0.5-4-1.4
		c-0.9-0.9-1.5-2.1-1.5-3.4c0-0.9,0.2-1.7,0.7-2.5c0.5-0.7,1-1.3,1.8-1.7c0.8-0.3,1.9-0.7,3.4-1C138.8,134.1,140.2,133.7,141,133.4z
		 M138.4,136.8c-1.3,0.2-1.9,0.5-2.4,0.8c-0.6,0.5-0.8,0.9-0.8,1.5c0,0.6,0.2,1.1,0.7,1.6c0.5,0.5,1,0.7,1.7,0.7
		c0.8,0,1.5-0.2,2.2-0.8c0.6-0.3,0.9-0.9,1-1.4c0.1-0.3,0.2-1,0.2-2.1v-1C140.4,136.3,139.6,136.6,138.4,136.8z M186.9,129.7v-8.3
		h-4.3l0,0v22.4h4.3v-8.2c0-1.4,0.1-2.4,0.3-3.1c0.2-0.7,0.7-1.3,1.3-1.6c0.6-0.3,1.3-0.6,1.9-0.6c0.6,0,1.1,0.1,1.6,0.5
		c0.5,0.2,0.7,0.7,0.9,1.1c0.1,0.5,0.2,1.6,0.2,3.3v8.7h4.3v-9.6c0-1.5-0.1-2.5-0.2-3.2c-0.1-0.7-0.5-1.4-0.8-1.9
		c-0.5-0.6-1-1-1.8-1.4s-1.7-0.6-2.7-0.6C190,127.3,188.3,128.1,186.9,129.7z M174.1,133.4v-0.5c0-0.8-0.2-1.4-0.6-1.8
		c-0.5-0.3-1.1-0.6-2.3-0.6c-0.8,0-1.4,0.1-1.8,0.5c-0.5,0.3-0.8,0.8-1,1.6l-3.9-0.7c0.5-1.6,1.1-2.7,2.3-3.5c1-0.8,2.6-1.1,4.8-1.1
		c1.9,0,3.3,0.2,4.3,0.7c0.9,0.5,1.6,1,1.9,1.7c0.3,0.7,0.6,1.9,0.6,3.9v5c0,1.5,0.1,2.5,0.2,3.2s0.3,1.4,0.8,2.2h-4.2
		c-0.1-0.2-0.2-0.7-0.5-1.3c-0.1-0.2-0.1-0.5-0.1-0.5c-0.7,0.7-1.5,1.3-2.4,1.6c-0.8,0.3-1.7,0.6-2.7,0.6c-1.7,0-3-0.5-4-1.4
		c-0.9-0.9-1.5-2.1-1.5-3.4c0-0.9,0.2-1.7,0.7-2.5c0.5-0.7,1-1.3,1.8-1.7c0.8-0.3,1.9-0.7,3.4-1C172,134.1,173.3,133.7,174.1,133.4z
		 M171.5,136.8c-1.3,0.2-1.9,0.5-2.4,0.8c-0.6,0.5-0.8,0.9-0.8,1.5c0,0.6,0.2,1.1,0.7,1.6c0.5,0.5,1,0.7,1.7,0.7
		c0.8,0,1.5-0.2,2.3-0.8c0.6-0.3,0.9-0.9,1-1.4c0.1-0.3,0.1-1,0.1-2.1v-1C173.6,136.3,172.8,136.6,171.5,136.8z M147.7,140.7v3.3
		h14.6v-3.8h-6.7c-0.3,0-1,0-2.3,0.1l2.2-2.4l6.3-7.2v-3.1h-13.4v3.5h5.7c0.8,0,1.5,0,1.9-0.1c-0.5,0.5-1.3,1.3-2.2,2.4L147.7,140.7
		z M206.2,144.3c-1.7,0-3-0.5-4-1.4c-1-0.9-1.5-2.1-1.5-3.4c0-0.9,0.2-1.7,0.7-2.5c0.5-0.7,1-1.3,1.8-1.7c0.8-0.3,1.9-0.7,3.4-1
		c2.1-0.3,3.4-0.7,4.2-1v-0.5c0-0.8-0.2-1.4-0.6-1.8c-0.5-0.3-1.1-0.6-2.3-0.6c-0.8,0-1.4,0.1-1.8,0.5c-0.5,0.3-0.8,0.8-1,1.6
		l-3.9-0.7c0.5-1.6,1.1-2.7,2.3-3.5c1-0.8,2.6-1.1,4.8-1.1c1.9,0,3.3,0.2,4.3,0.7c0.9,0.5,1.6,1,1.9,1.7s0.6,1.9,0.6,3.9v5
		c0,1.5,0.1,2.5,0.2,3.2c0.1,0.7,0.3,1.4,0.8,2.2H212c-0.1-0.2-0.2-0.7-0.5-1.3c-0.1-0.2-0.1-0.5-0.1-0.5c-0.7,0.7-1.5,1.3-2.4,1.6
		C208,144.2,207.1,144.3,206.2,144.3z M205.7,140.7c0.5,0.5,1,0.7,1.7,0.7c0.8,0,1.5-0.2,2.2-0.8c0.6-0.3,0.9-0.9,1-1.4
		c0.1-0.3,0.2-1,0.2-2.1v-1c-0.6,0.2-1.5,0.5-2.6,0.7c-1.1,0.2-1.9,0.5-2.4,0.8c-0.6,0.5-0.8,0.9-0.8,1.5
		C205,139.6,205.2,140.2,205.7,140.7z M366.9,124l1.5-1.3l0.5-0.5l-4.1-3.5l-3.8,3.6l3.8,3C364.9,125.4,365.6,124.9,366.9,124z
		 M352.4,142.1c0.6-1.7,0.9-3.8,0.9-6c0-3.4-0.2-7.7-0.8-13l-0.3-3.2l-0.2-1.9l-2.3,3.5c-0.9,1.7-1.4,2.6-1.4,2.8l2.4,21
		C351.4,144.4,351.9,143.4,352.4,142.1z M392.4,144.2l0.5-1.8l0.6-1.7l0.6-2.3v-1.1v-1.6v-1.5l-0.2-1l-0.5-1.3l-0.2-0.7
		c-0.2-0.7-0.6-1.3-0.9-1.8c-0.9-1.4-1.5-2.3-1.8-2.6l-3,5.1c1.5,1.6,2.6,3.4,3.2,5.6l0.3,1.5h-10.8l0,0h-5.4h-1.5
		c-0.6,0-1.3-0.2-1.9-0.7c-0.7-0.6-1.4-1.3-1.9-2.1l-1.3-1.8l-1.5-2.4l-2.8,4.8c0.6,0.7,1.3,1.6,2.1,2.5c0.9,1.4,1.4,2.3,1.4,2.7
		c0,0.8-0.7,2.1-2.1,3.5c-0.5,0.5-0.9,1-1.6,1.6l-1,0.9l-0.8,0.7c-1.8,1.3-3.1,2.1-3.8,2.4c-0.9,0.5-1.9,0.7-3,0.7l-1-0.1l-1.3-0.3
		l-2.8-1c-0.2,0.1-0.3,0.2-0.3,0.3c0,0.6,1.5,1.5,4.6,2.8c3,1.4,5,2.1,6.2,2.1c2.2,0,4.2-1.6,6.5-4.7c1.9-2.7,3.1-5.2,3.3-7.5
		c0.5,0.5,0.8,0.8,1.1,1c0.2,0.1,0.3,0.2,0.5,0.2h0.3h0.3h1.7h4.9l0,0h13.4V144.2z M387.8,123.6l1.3-1.3l0.9-1
		c-0.2-0.1-0.5-0.2-0.9-0.3c-0.3-0.1-0.9-0.5-1.5-0.7l-1.3-0.8l-0.9-0.6l-1.1,1.1l-2.4,2.5l2.5,1.1l2.2,1.1L387.8,123.6z
		 M290.3,120.8l1.3,0.7c0.3,0.1,0.7,0.2,1,0.3c0-0.1,0.3-0.5,0.9-1l0.5-0.5l0.6-0.5c0.1,0.1,0.8,0.6,2.1,1.1
		c0.8,0.5,1.4,0.7,1.7,0.8l0.2,0.1c0.1,0,0.6-0.5,1.1-1.1l0.9-0.9l0.8-0.9l-4-2.2l-1.6,1.5c-0.3,0.3-0.6,0.6-0.8,0.6
		c-0.2,0-0.8-0.2-1.7-0.8c-1-0.7-1.6-1-1.8-1.3l-0.8,0.9l-2.1,2.2c0.2,0.2,0.5,0.3,0.9,0.7L290.3,120.8z M317.8,144.2L317.8,144.2
		h-4.9h-4.2l0,0h-3.3c-1.1,0-1.9-1-2.5-3.1c-0.2-1.6-0.3-2.5-0.5-2.7v-0.2l-0.3,0.1c-0.5,0.2-0.9,1-1.6,2.3
		c-0.7,1.4-1.3,2.1-1.9,2.1c-0.2,0-1.6-0.2-3.9-0.8l-2.8-0.6l-0.9-0.1h-0.7c0-0.7,0.3-1.9,1-3.9c0.7-1.9,1.4-3.3,2.1-3.9
		c0.5-0.5,1.3-1,2.5-1.8l4.4-2.7c0-0.2-0.1-0.6-0.2-0.9l-0.2-0.8l1-1.6l0.8-1.5l0.9-1.6l0.5,2.4l0.5,2.4l1,7.1
		c0.3,2.2,0.6,3.4,0.7,3.8l0.5,0.7c0.2,0.2,0.5,0.2,1,0.2h0.6h0.8l0,0h6.3h4.9l0,0h4.9c0-0.5,0.1-1,0.3-1.7l0.6-1.3l0.9-1.9
		c0.3-0.7,0.8-1.4,1.4-2.2l0.7-0.9l0.9-1.3v-0.6l0.1-0.8c0-0.3,0.2-0.9,0.5-1.6l0.5-1.4l0.5-1l2.4,1.6l1.9,1.3
		c2.2,1.6,4.1,3.3,5.8,5.1c1.9,2.2,3,4.1,3,5.8c0,1.5-0.3,2.8-1,4.1c-0.9,1.5-1.8,2.2-3.1,2.2h-21.5V144.2z M335.1,136.9v0.7
		c0,0.1,0.1,0.3,0.2,0.5l0.8,0.8c0.2,0.2,0.9,0.5,1.8,0.6l2.4,0.1h0.3c0-0.3-0.1-0.7-0.2-0.9c0-0.1-0.2-0.5-0.6-1
		c-0.6-0.9-1.1-1.6-1.6-2.1c-0.7-0.8-1.4-1.1-1.7-1.1c-0.1,0-0.5,0.3-0.9,0.9l-0.3,0.8L335.1,136.9z M326.8,136.3
		c0,0.6,0.5,1.1,1.4,1.7c0.6,0.2,1.1,0.5,1.8,0.6c0.6,0,1.1-0.3,1.8-1c0.7-0.6,1-1.1,1-1.7c0-0.8-0.1-1.4-0.5-1.9
		c-0.5-0.7-1-1-1.7-1c-0.6,0-1.3,0.3-2.2,1.1C327.7,134.9,327.1,135.6,326.8,136.3z M302.1,135.4l-0.1-0.9c0-0.2,0-0.5-0.1-0.7
		l-0.2-0.9c-0.2-1.6-0.5-2.4-0.6-2.5c-0.5,0.2-0.8,0.7-1,1.3l-0.7,1.4c-0.3,0.5-1,1-1.8,1.4l-2.7,1.4l0.9,0.2l1,0.2l0.9,0.1
		c0.6,0,0.9,0.1,1,0.2l1.5,0.1h1.4h0.8v-0.6v-0.7H302.1z"/>
</g>
</svg>
