<svg xmlns="http://www.w3.org/2000/svg" width="435.488" height="77.931" viewBox="0 0 435.488 77.931">
  <g id="Group_316" data-name="Group 316" transform="translate(-75.471 -381.826)">
    <g id="Group_313" data-name="Group 313">
      <path id="Path_25493" data-name="Path 25493" d="M116.9,429.744c-.193-.2-.1-.622-.1-.622l1.286-2.477.87-.175-.124-1.517-1.637.249-2.253,4.588,14.129,24c.13.817-.373.9-.373.9a1.174,1.174,0,0,1-1.386-.471l-6.1-11.011c-2.083,1.167.067,4.015.067,4.015l-5.032.844-.149-2.653a3.7,3.7,0,0,0-1.659.99v10.146a1.06,1.06,0,0,1-.968,1.111c-1.012.123-1.214-1.289-1.214-1.289l.051-9.744a2.417,2.417,0,0,0-1.659-1.384v2.772c-5.064-.866-6.025-1.561-6.025-1.561l1.311-1.858a3.83,3.83,0,0,0-.767-2.533l-3.149,5.183a33.2,33.2,0,0,0,7.239,2.281c1.514.2,1.267,1.956,1.267,1.956a33.34,33.34,0,0,1-9.572-2.674L96.62,455.65a2.452,2.452,0,0,0,2.507-.667l2.6-3.8a38.141,38.141,0,0,0,8.755,2.108l-.079,3.473a3.231,3.231,0,0,0,2.184,2.9,3.068,3.068,0,0,0,3.769-2.647v-3.6a28.861,28.861,0,0,0,7.539-1.466,29.561,29.561,0,0,0,2.827,4.517,2.889,2.889,0,0,0,3.346-.2c1.634-1.337.595-3.5.595-3.5Zm-.634,21.857a1.807,1.807,0,0,1,1.695-1.958,17.817,17.817,0,0,0,4.286-.9,10.111,10.111,0,0,0,.869,1.588c-1.96,1-6.85,1.267-6.85,1.267Z" fill="#002a69"/>
      <path id="Path_25494" data-name="Path 25494" d="M113.378,445.625a.925.925,0,1,0-.926-.923.923.923,0,0,0,.926.923Z" fill="#002a69"/>
      <path id="Path_25495" data-name="Path 25495" d="M88.888,435.779a.925.925,0,1,0-.927-.923.928.928,0,0,0,.927.923Z" fill="#002a69"/>
      <path id="Path_25496" data-name="Path 25496" d="M88.626,432.658a.927.927,0,1,0-.931.921.926.926,0,0,0,.931-.921Z" fill="#002a69"/>
      <path id="Path_25497" data-name="Path 25497" d="M125.665,423.039a.926.926,0,1,0,.921.923.926.926,0,0,0-.921-.923Z" fill="#002a69"/>
      <path id="Path_25498" data-name="Path 25498" d="M121.23,412.484a.925.925,0,1,0,.924-.925.922.922,0,0,0-.924.925Z" fill="#002a69"/>
      <path id="Path_25499" data-name="Path 25499" d="M119.445,411.085a.923.923,0,1,0,.923-.924.919.919,0,0,0-.923.924Z" fill="#002a69"/>
      <path id="Path_25500" data-name="Path 25500" d="M132.028,407.935a.926.926,0,1,0-.923-.927.927.927,0,0,0,.923.927Z" fill="#002a69"/>
      <path id="Path_25501" data-name="Path 25501" d="M130.214,404.15a.923.923,0,1,0,.927.925.921.921,0,0,0-.927-.925Z" fill="#002a69"/>
      <path id="Path_25502" data-name="Path 25502" d="M127.12,402.9a.925.925,0,1,0,.924-.926.923.923,0,0,0-.924.926Z" fill="#002a69"/>
      <path id="Path_25503" data-name="Path 25503" d="M129.413,400.191a.924.924,0,1,0,.927.923.925.925,0,0,0-.927-.923Z" fill="#002a69"/>
      <path id="Path_25504" data-name="Path 25504" d="M126.227,400.012a.926.926,0,1,0,.924.929.925.925,0,0,0-.924-.929Z" fill="#002a69"/>
      <path id="Path_25505" data-name="Path 25505" d="M123.875,426.257a.928.928,0,1,0,.929-.925.926.926,0,0,0-.929.925Z" fill="#002a69"/>
      <path id="Path_25506" data-name="Path 25506" d="M136.557,424.116a.926.926,0,1,0-1.11-.7.931.931,0,0,0,1.11.7Z" fill="#002a69"/>
      <path id="Path_25507" data-name="Path 25507" d="M135.08,425.7a.926.926,0,1,0,.7-1.107.93.93,0,0,0-.7,1.107Z" fill="#002a69"/>
      <path id="Path_25508" data-name="Path 25508" d="M132.3,432.507a.925.925,0,1,0,.924-.927.924.924,0,0,0-.924.927Z" fill="#002a69"/>
      <path id="Path_25509" data-name="Path 25509" d="M114.492,430.951a.924.924,0,1,0,.929.924.925.925,0,0,0-.929-.924Z" fill="#002a69"/>
      <path id="Path_25510" data-name="Path 25510" d="M113.434,431.875a.927.927,0,1,0-.928.924.929.929,0,0,0,.928-.924Z" fill="#002a69"/>
      <path id="Path_25511" data-name="Path 25511" d="M95.688,423.863a.927.927,0,1,0,.921-.922.925.925,0,0,0-.921.922Z" fill="#002a69"/>
      <path id="Path_25512" data-name="Path 25512" d="M90.936,424.269a.925.925,0,1,0,.926-.929.925.925,0,0,0-.926.929Z" fill="#002a69"/>
      <path id="Path_25513" data-name="Path 25513" d="M78.642,423.32a.925.925,0,1,0-.927-.923.924.924,0,0,0,.927.923Z" fill="#002a69"/>
      <path id="Path_25514" data-name="Path 25514" d="M79.409,419.878a.922.922,0,1,0-.922.924.924.924,0,0,0,.922-.924Z" fill="#002a69"/>
      <path id="Path_25515" data-name="Path 25515" d="M94.552,401.82a.924.924,0,1,0,.924.924.927.927,0,0,0-.924-.924Z" fill="#002a69"/>
      <path id="Path_25516" data-name="Path 25516" d="M96.159,401.973a.928.928,0,1,0-.923-.925.922.922,0,0,0,.923.925Z" fill="#002a69"/>
      <path id="Path_25517" data-name="Path 25517" d="M96.785,404.112a.924.924,0,1,0-.924-.926.925.925,0,0,0,.924.926Z" fill="#002a69"/>
      <path id="Path_25518" data-name="Path 25518" d="M107.319,401.863a.924.924,0,1,0,.922.925.922.922,0,0,0-.922-.925Z" fill="#002a69"/>
      <path id="Path_25519" data-name="Path 25519" d="M107.275,404.673a.926.926,0,1,0,.923.927.924.924,0,0,0-.923-.927Z" fill="#002a69"/>
      <path id="Path_25520" data-name="Path 25520" d="M99.638,390.145a.925.925,0,1,0-.921-.923.93.93,0,0,0,.921.923Z" fill="#002a69"/>
      <path id="Path_25521" data-name="Path 25521" d="M102.051,388.94a.925.925,0,1,0-.928-.925.926.926,0,0,0,.928.925Z" fill="#002a69"/>
      <path id="Path_25522" data-name="Path 25522" d="M106.712,439.785s-.707,2.483.645,3.5a3.189,3.189,0,0,0,5.11-1.819s.235-4.953.114-6.783c0,0-.189-1.735-1.538-1.223,0,0-.856.207-3.671,5.362,0,0-.472.641.413,1a18.09,18.09,0,0,0,2.964.626s.368.5-.484,1.41-3.425.5-3.553-2.069Zm3.164-1.319a1.313,1.313,0,0,1,.43-.984.377.377,0,0,1,.613.205l.038,1.131c-.942-.035-1.081-.352-1.081-.352Z" fill="#002a69"/>
      <path id="Path_25523" data-name="Path 25523" d="M120.575,420.992l-1.407,1.515.557,3.835-.527,1.408,1.733.043.38-1.606-.465-3.147.8-.891Z" fill="#002a69"/>
      <path id="Path_25524" data-name="Path 25524" d="M118.813,430.695l-.155,1.03,7.762,11.958,1.478.2.358-1.54-.517-.222-7.675-10.913.131-.291Z" fill="#002a69"/>
      <path id="Path_25525" data-name="Path 25525" d="M129.657,445.108l.983-4.259-8.84-11.963-2.741-.088-.177,1.294,2.093.337,7.79,10.935-1.052,4.441,4.556,7.006c1.784,1.808,2.807.893,2.807.893l-5.191-7.856a.928.928,0,0,1-.228-.74Z" fill="#002a69"/>
      <path id="Path_25526" data-name="Path 25526" d="M121.758,427.53l16.065,21.463a3.14,3.14,0,0,0,2.7.265L121.915,425.1Z" fill="#002a69"/>
      <path id="Path_25527" data-name="Path 25527" d="M133.253,428.886a4.463,4.463,0,0,1-1.118.029l-5.287-2.347-.671,1.538,1.25.647a6.208,6.208,0,0,0,3.126,5.134l1.825-2.881a2.746,2.746,0,0,0,2.793-1.852,3.472,3.472,0,0,0-.692-3.323,16.513,16.513,0,0,0,.512-4.126l-4.151.4-.287,1.747,2.407-.227-.288,1.788-2.212-.692-.443,1.494,3.122,1.114c1.34.959.156,1.472.114,1.561Zm-3.2,2.231s-1.07-.53-.443-1.381l.982.538Z" fill="#002a69"/>
      <path id="Path_25528" data-name="Path 25528" d="M132.222,442.973l-1.651-.385-.422,1.631.892.178,5.892,7.964a2.346,2.346,0,0,0,.29-2.476Z" fill="#002a69"/>
      <path id="Path_25529" data-name="Path 25529" d="M152.822,416.909a2.4,2.4,0,0,0-2.322-1.431l-26.956,5.514-2.656-2.415.182-1.069-1.561-.312-.358,2.1,3.994,3.506,26.819-5.314s.939-.219,1.206.582-.4.936-.4.936l-12.991,2.3s-.2,1.047,1.521,1.564l5.686-.874s-.442,6.45-1.137,7.234a3.6,3.6,0,0,0-2.051.11,13.012,13.012,0,0,1,.267-5.558l-2.1-.468s.132,2.252-4.147,6c0,0,1.247,2.7-.228,7.39l1.876.982s1.944-3.978,2.99-4.463a2.1,2.1,0,0,0,1.451,1.291s-2.385,4.752-3.883,5.914l-2.367-2.788a6.126,6.126,0,0,1-.513,3.057l.915.173,4.8,6.207s.378.517,0,1.808a2.9,2.9,0,0,0,1.205-2.793,29.377,29.377,0,0,0-2.993-4.012,31.226,31.226,0,0,0,4.6-6.921,24.656,24.656,0,0,0,3.836,1.387c.495-.068,1.969-.138,2.613-1.137a3.224,3.224,0,0,0,.069-3.665s-.136-.687-4.577-2.076c0,0,1.339-5.33,1.162-8.047,0,0,4.95-.853,5-1.1s1.9-.824,1.05-3.614ZM138.16,432.681a12.277,12.277,0,0,0-.293-2.674A15.981,15.981,0,0,0,139.789,428a6.667,6.667,0,0,0,.512,2.767,23.107,23.107,0,0,0-2.141,1.915Zm10.287,0a1.156,1.156,0,0,1,.423,1.336s-.487.786-1.026.765c0,0-4.906-1.632-5.107-1.832a1.137,1.137,0,0,1-.517-1.474,1,1,0,0,1,1.227-.488Z" fill="#002a69"/>
      <path id="Path_25530" data-name="Path 25530" d="M138.674,414.987l-12.894,3.476-.516-.217-.6,1.182,1,.555,13.877-3.054.713-1.474-1.226-.873s-.381.248-.355.4Z" fill="#002a69"/>
      <path id="Path_25531" data-name="Path 25531" d="M140.82,411.082l-.853,1.5,1.382.958.513-.891,9.507-2.769c-.422-1-2.165-1.207-2.165-1.207Z" fill="#002a69"/>
      <path id="Path_25532" data-name="Path 25532" d="M138.338,411.752l-14.818,4.417-1.067,2.454,1.381,1.048,1.208-2.5,13.3-3.5,3.68,2.674,8.5-1.782c1.808-1.092,1.475-2.3,1.475-2.3l-9.726,2.258Z" fill="#002a69"/>
      <path id="Path_25533" data-name="Path 25533" d="M117.677,413.536l-1.408.689.869,1.766,3.907.824,1.025,1.162.469-1.362-1.2-1.424-3.144-.564Z" fill="#002a69"/>
      <path id="Path_25534" data-name="Path 25534" d="M128.566,396.24c.243-.155.044-.671.044-.671l-2.389-1.312s.272-1.56.451-1.608,3.943,1.986,3.943,1.986l-2.986,4.55,2.186-.043,4.639-6.626,1.138-1.208a1.253,1.253,0,0,1,1.25.45,1.01,1.01,0,0,1-.018,1.312l-5.869,6.766.513,2.188,1.249-1.388c.175,0,4.169,4.957,4.169,4.957l-1.85.781,1.875,1.113,8.858-3.433c1.054-.495,1.476.29,1.476.29a1.231,1.231,0,0,1-.581,1.831l-25.488,8.12,1.23,1.474,25.283-8.012a2.924,2.924,0,0,0,1.337-4.127,3.292,3.292,0,0,0-2.786-1.652,40.437,40.437,0,0,0-4.2,1.652c-.711-1.606-5.78-7.008-5.78-7.008l.2-.356c2.9-2.525,2.568-4.061,2.568-4.061-.894-3.752-3.885-2.722-4.555-2.408s-2.787,3.37-2.787,3.37c-.072-.385-6.453-3.171-6.453-3.171l-1.718,9.127c4.308-.026,4.8-2.726,5.045-2.883Zm11.689,7.968a2.131,2.131,0,0,1-2.586-.418L133.72,399.3l1.386-1.312Zm-14.433-8.128.746.353c-.033.24-.777.718-.868.6s.122-.949.122-.949Z" fill="#002a69"/>
      <path id="Path_25535" data-name="Path 25535" d="M122.562,406.192l1.739.16.982-1.071,1.454,1.114-3.528,3.663,1.251,1.093,1.09-.963c2.631,1.519,6.315-.581,6.315-.581-1.606-3.459-6.87-6.828-6.87-6.828Zm5.4,1.541,1.031,1.091a1.96,1.96,0,0,1-1.947-.287c-.045-.069.916-.8.916-.8Z" fill="#002a69"/>
      <path id="Path_25536" data-name="Path 25536" d="M122.7,402.713l-2.024-.862-.625,7.555a1.465,1.465,0,0,0,1.491-1.188l.383-4.136,1.039.565,1.431-1.816.6-2.976-1.637.153Z" fill="#002a69"/>
      <path id="Path_25537" data-name="Path 25537" d="M114.8,442.946s.937,1.539,3.743.869c0,0,1.7-.672,1.118-3.546,0,0-3.081-5.938-3.168-5.956s-1.224-1.652-2.1-.07v5.847a1.229,1.229,0,0,0,1.118.739l2.25-.274s1.34,4.022-2.964,2.391Zm1.37-3.935c-.245-.3-.126-1.5.086-1.454s.821,1.187.821,1.187Z" fill="#002a69"/>
      <path id="Path_25538" data-name="Path 25538" d="M113.878,426.323l-3.635,1.517-1.538-.2.359,1.744,1.831.07,2.941-1.344,1.1.535.666-1.362Z" fill="#002a69"/>
      <path id="Path_25539" data-name="Path 25539" d="M109.416,426.637l.406.893,1.451-.806-.806-1.519-5.2-.8L87.6,444.328a1.1,1.1,0,0,1-1.629.336,1.331,1.331,0,0,1-.224-1.691l10.623-10.56a2.231,2.231,0,0,0,.664-2.676c-1.715-2.144-2.132-7.79-2.132-7.79l6.533,1.61c1.119.6.089,1.36.089,1.36l-3.461,3.236L99,429.692l5.113-5.758c.67-1.116-.982-1.693-.982-1.693l-10.2-2.726c-.623,4.754,1.693,9.865,1.693,9.865.875,1.452.223,2.049.223,2.049l-6.6,6.426c-1.478-1.492-3.35-6.512-3.35-6.512l3.325-1.069a22.341,22.341,0,0,0-1.027-3.279c-.379-.653-1.694-1.054-1.694-1.054l-3.707.761.669,3.437-3.12.733a.969.969,0,0,1-1.184-.822c-.424-1.809,2.3-1.766,2.3-1.766l-1.5-1.447a2.918,2.918,0,0,0-2.741,3.815,3.636,3.636,0,0,0,2.741,2.213c.026.061,4.2-1.053,4.2-1.053a32.208,32.208,0,0,0,3.792,7.226c-.066.025-2.783,2.86-2.783,2.86a3.326,3.326,0,0,0,.085,3.818c2.207,1.981,4,.711,4,.711l17.916-20.44ZM84.05,428.33c1.735-.938,1.962.712,1.962.712l-1.874.448Z" fill="#002a69"/>
      <path id="Path_25540" data-name="Path 25540" d="M106.3,429.356l-.2-1.271-1.029.086-9.214,10.8.225,1.537,1.762.07-.113-.715,8.192-10.416Z" fill="#002a69"/>
      <path id="Path_25541" data-name="Path 25541" d="M98.2,442.815l-1.681-.046.05,1.157-5.779,7.789a2.911,2.911,0,0,0,2.764-.649l4.866-6.581Z" fill="#002a69"/>
      <path id="Path_25542" data-name="Path 25542" d="M100,442.409l8.68-12.119-.847-3.453-1.381-.025.556,3.261-8.169,10.713-4.686.174-5.289,6.363a2.078,2.078,0,0,0,.02,2.918l6.162-7.722Z" fill="#002a69"/>
      <path id="Path_25543" data-name="Path 25543" d="M109.869,430.048l-15.155,22.18a3.082,3.082,0,0,0,.58,2.588l16.892-25.259Z" fill="#002a69"/>
      <path id="Path_25544" data-name="Path 25544" d="M76.819,417.323l4.42,1.166.279,6.837,4.139-.762a2.042,2.042,0,0,0,.919-2.332c-.217-2.306,1.166-2.24,1.166-2.24,1.534.027,1.5,1.224,1.5,1.224-1.193,1.843.309,6.047.309,6.047-1.935,3.342.918,4.663.918,4.663,1.935.856,3.862-.889,3.862-.889l-.7-1.569c-1.564,1.381-2.516.5-2.516.5-1.077-2.028,1.779-2.274,1.779-2.274l-.368-1.534-1.469.092c-.926-2.665-.34-3.8-.34-3.8.98-1.9.34-2.609.34-2.609-2.822-3.007-5.279-1.135-5.77-.829s-.431,3.375-.431,3.375a1.513,1.513,0,0,1-1.745.584c-.28-.251-.031-5.895-.031-5.895l-7.609-1.987a2.771,2.771,0,0,0,1.348,2.236Z" fill="#002a69"/>
      <path id="Path_25545" data-name="Path 25545" d="M103.784,419.839,78.138,411.5s-1.745.458-2.086,1.377l28.438,8.775a9.192,9.192,0,0,1-.706-1.809Z" fill="#002a69"/>
      <path id="Path_25546" data-name="Path 25546" d="M108.114,424.346l.3-2.054-2.638-2.7-.307-1.472-1.259,1.042.276,1.534,2.144,2.175-.06,1.293Z" fill="#002a69"/>
      <path id="Path_25547" data-name="Path 25547" d="M106.3,414.868l.4,3.317-.556.734,1.043,1.011,1.133-1.353-.64-4.813L82.407,402.81a1.294,1.294,0,0,1,1.164-1.928l22.942,11.5c.522.216,1.2.521,1.534.153s.123-4.662.123-4.662l-1.5-.863-.182,3.469-17-8.651.64-.921,2.8,1.591c.64-1.808-1.413-2.944-1.413-2.944l.829-.917a2.427,2.427,0,0,0,3.223.827l-2.025-1.961.856-.918c1.352,2.082,2.729,1.9,2.729,1.9l.311-1.72c-.214.281-.921-.366-.921-.366-3.559-3.835-3.744-5.306-3.744-5.306.185-1.384,1.47-1.012,1.752-.923s3.466,5.462,3.466,5.462c.489.89-.373,2.762-.373,2.762-.456,1.928,1.749,2.3,1.749,2.3a2.558,2.558,0,0,0,.031,3.654c2.883.063,4.817,2.915,4.817,2.915l.156-.189-2.546-3.831a5.6,5.6,0,0,0-1.226-.921c-.277-.03-.128.062-.5.767s-.736.43-.736.43c-1.135-1.322.892-3.132.892-3.132,2.176-.919,3.1.247,3.1.247.185,1.137-.923.645-.923.645-.953,0-.736.8-.736.8l3.005,4.843.186-.274a6.916,6.916,0,0,1-.763-5.46c-.619-2.059-3.195-1.536-3.195-1.536.861-1.965-1.41-2.792-1.41-2.792l-.029-2.241-.523-.576v-.558l.645-.213,1.565,2.733a2.419,2.419,0,0,0,.645-2.241s-.828-1.074-.645-1.259a3.337,3.337,0,0,1,.949-.368c.738,1.906,3.925,4.45,3.925,4.45l.368,4.843,1.626-1.317-1.166-17.761a3.768,3.768,0,0,0-1.778,1.6l.213,5.125a33.22,33.22,0,0,0-7.3,2.944c-.548-.8-2.576-3.527-2.576-3.527a3.1,3.1,0,0,0-3.218,0,2.8,2.8,0,0,0-1.226,3.681l2.268,3.1c-.427.065-5.365,5.707-5.365,5.707L84.12,399.1a3.1,3.1,0,0,0-3.035,5.184Zm-.787-24.114.269,3.167a11.011,11.011,0,0,1-1.7-2.458Zm-6.144,7.624a.926.926,0,1,1-.926.928.928.928,0,0,1,.926-.928Z" fill="#002a69"/>
      <path id="Path_25548" data-name="Path 25548" d="M110.625,416l1.784-3.437,1.22-.891-1.22-.792-1.386.854-1.684,2.918h-.981l.153,1.78Z" fill="#002a69"/>
      <path id="Path_25549" data-name="Path 25549" d="M88.958,414.053l14.058,4.86,2.231-1.648-.583-1.208-2.048.985-12.451-4.423L88.42,408.16l-7.9-3.171c-2.1-.177-2.5,1.03-2.5,1.03l9.24,3.612Z" fill="#002a69"/>
      <path id="Path_25550" data-name="Path 25550" d="M89.537,409.945l.491,1.47.671-.132,12.138,4.2.4.492,1.245-.492-.488-.9-13.079-5.488Z" fill="#002a69"/>
      <path id="Path_25551" data-name="Path 25551" d="M78.291,410.524l7.946,2.766,1.871-.714-.578-1.565-1.074.316-9.234-2.989s.446,1.874,1.069,2.186Z" fill="#002a69"/>
      <path id="Path_25552" data-name="Path 25552" d="M110.6,411.551l1.2-.8-.668-.669-.714-26.331c-.086-.671-1.962-1.607-1.962-1.607l1.2,28.43Z" fill="#002a69"/>
      <path id="Path_25553" data-name="Path 25553" d="M111.988,409.762l2.587,2.146,1.607-.8-2.678-2.232.09-13.343,3.522-2.9.36-8.97a2.554,2.554,0,0,0-1.7-1.741l-.359,9.862-3.744,3.125Z" fill="#002a69"/>
      <path id="Path_25554" data-name="Path 25554" d="M114.622,409.1l.977.763.67-.582.762-14.192-1.16-1.03-1.249,1.074.354.487-.088,13.208Z" fill="#002a69"/>
      <path id="Path_25555" data-name="Path 25555" d="M118.5,390.04l-1.427,21.643-2.991,1.475-.938-.356-.714,1.423,1.565.85,4.593-2.409,1.56-22.135s.811-1.3,1.478.311l-.893,9.685,1.56.8,1.027-11.514s.09-.712-1.158-1.426c0,0,2.321-.981,2.183-2.946s-2.183-3.12-3.214-2.721-2.675.578-2.451,3.393c0,0-.18.845,1.7,2.05,0,0-1.92.625-1.876,1.876Zm1.727-4.39a1.281,1.281,0,1,1,1.28,1.284,1.284,1.284,0,0,1-1.28-1.284Z" fill="#002a69"/>
      <path id="Path_25556" data-name="Path 25556" d="M112.834,393.386l1.2-.938-.532-.715-.048-9.907a2.5,2.5,0,0,0-1.87,1.921L111.63,392Z" fill="#002a69"/>
    </g>
    <g id="Group_314" data-name="Group 314" transform="translate(-8)">
      <path id="Path_25557" data-name="Path 25557" d="M422.58,412.674a3.1,3.1,0,0,0,2.235,1.388,5.022,5.022,0,0,0,4.614-2.226c1.356-1.79,1.283-3.847.7-5.917a16.846,16.846,0,0,0-2.711-5.06c-.226-.319-.654-.8-.881-.749-.477.111-.413.7-.382,1.116.159,2.157.327,4.314.542,6.467.076.762.292,1.511.445,2.266l.166.014c.532-1.121.019-2.619,1.24-3.614a15.991,15.991,0,0,1,.594,1.715,2.146,2.146,0,0,1-.5,1.995,3.283,3.283,0,0,1-5.777-1.383q-.508-2.2-1.017-4.4c-.316-1.378-.629-2.757-.938-4.114.532-.3,1.031-.545,1.5-.844a22.778,22.778,0,0,0,4.051-3.576,4.864,4.864,0,0,1,1.393-.956.9.9,0,0,1,1.234.454,3.374,3.374,0,0,1,.283.775c.159.591.3,1.187.457,1.836a3.086,3.086,0,0,0,1.077-1.814,5.434,5.434,0,0,0-.666-3.556,1.781,1.781,0,0,0-.984-1h-.209a5.119,5.119,0,0,0-2.467,1.74,19.987,19.987,0,0,1-2.108,2.286,24.781,24.781,0,0,1-7.078,4.222,13.372,13.372,0,0,0-2.075,1.162c-.131.08-.164.319-.242.484a1.975,1.975,0,0,0,.494.18,7.1,7.1,0,0,0,3.445-.648l.542-.237a28.155,28.155,0,0,0,.955,6.911.589.589,0,0,1-.127.45,3.869,3.869,0,0,1-3.493.851.793.793,0,0,1-.208-.136c-.415-.333-.806-.7-1.247-.994-.617-.413-1-.311-1.446.3-.324.45-.646.9-.973,1.352a1.822,1.822,0,0,0,1.318,3.082,21.6,21.6,0,0,0,2.309.013,2.081,2.081,0,0,1-.581,2.026,5.791,5.791,0,0,1-1.691,1.266,21.983,21.983,0,0,1-3.535,1.2c-1.987.484-4,.887-6.011,1.24-1.222.215-2.473.272-3.855.414a4.7,4.7,0,0,0,.935.494,29.715,29.715,0,0,0,3.094.67,15.182,15.182,0,0,0,7.747-.753c3.154-1.235,5.258-3.312,5.528-6.861a.466.466,0,0,1,.185-.33c.93-.49,1.871-.961,2.762-1.414C421.692,411.238,422.088,411.991,422.58,412.674Z" fill="#002a6a"/>
      <path id="Path_25558" data-name="Path 25558" d="M382.468,399.748a6.913,6.913,0,0,1-.084-1.233,2.754,2.754,0,0,0-.9,1.677,23.55,23.55,0,0,0-.457,6.357c.014.734.062,1.468.1,2.284.12-.107.16-.135.191-.17a3.362,3.362,0,0,0,.635-2.04c.07-.763.166-1.524.26-2.361a2.272,2.272,0,0,1,1.221,1.7,11.881,11.881,0,0,1,.1,2.427,2.236,2.236,0,0,1-2.337,2.063,3.045,3.045,0,0,1-2.309-1.146,5.015,5.015,0,0,1-1.209-2.665c-.217-1.683-.36-3.376-.536-5.065-.079-.759-.163-1.518-.25-2.324-.981.8-1.178,1.047-1.156,1.869.049,1.887.092,3.777.253,5.656.141,1.642.244,1.69-1.172,2.539a9.765,9.765,0,0,1-2.447.956c-.568.155-.826-.144-.867-.722-.02-.286-.058-.571-.1-.939-.148.169-.239.267-.324.37a4.767,4.767,0,0,1-4.135,1.9,1.688,1.688,0,0,1-1.716-1.236,2.147,2.147,0,0,0-1.88-1.586,10.062,10.062,0,0,0-2.725.224,5.941,5.941,0,0,0-4.209,2.874,3.132,3.132,0,0,0-.388,1.619c.026.384.457.74.771,1.2-1.151.208-2.329.5-3.524.611-.895.083-1.218-.463-.916-1.316.184-.519.413-1.022.646-1.593a5.751,5.751,0,0,0-3.039.9,18.815,18.815,0,0,1-5.891,2.692,19.377,19.377,0,0,1-7.275.677,2.677,2.677,0,0,1-2.615-1.863,1.362,1.362,0,0,0-1.68-.815,8.724,8.724,0,0,0-2.132.784,4.251,4.251,0,0,0-1.8,4.665c.569-.5,1.147-.946,1.652-1.463a2.034,2.034,0,0,1,3.194-.088,4.209,4.209,0,0,0,2.068,1.137,15.038,15.038,0,0,0,7.17-.268,26.742,26.742,0,0,0,5.8-2.149,4.929,4.929,0,0,1,2.476-.7c.243.012.453.021.49.384a7.287,7.287,0,0,0,.329,1.5,1.083,1.083,0,0,0,1.192.815,5.026,5.026,0,0,0,1.686-.421c1.282-.653,2.51-1.412,3.772-2.108a1.818,1.818,0,0,1,1.542-.236,1.991,1.991,0,0,0,2.605-2.269c-.074-.448-.236-.615-.721-.513a3.783,3.783,0,0,1-2.355-.15c-.237-.106-.4-.369-.6-.561.21-.2.393-.538.636-.588a13.755,13.755,0,0,1,2.364-.305,2.235,2.235,0,0,1,2.485,1.822,2.007,2.007,0,0,0,2.027,1.556,10.688,10.688,0,0,0,2.023-.128,22.211,22.211,0,0,0,7.8-3.221c.155-.094.315-.183.488-.283.154.359.268.669.416.961a2.623,2.623,0,0,0,3.005,1.608,10.864,10.864,0,0,0,1.774-.592,4.356,4.356,0,0,0,2.728-3.428c.1-.661.032-1.349.07-2.023a9.348,9.348,0,0,0-1.657-5.791A4.906,4.906,0,0,1,382.468,399.748Z" fill="#002a6a"/>
      <path id="Path_25559" data-name="Path 25559" d="M506.2,411.89c2.575-2.256,3.434-4.991,2.27-8.23a34.988,34.988,0,0,0-1.814-3.9,3.991,3.991,0,0,0-.823-.848,4.428,4.428,0,0,0-.554,1.115c-.253,1.4-.428,2.807-.638,4.211-.159,1.062-.325,2.123-.491,3.183a2.7,2.7,0,0,0,.36,1.946c.088.134.308.181.468.269a3.643,3.643,0,0,0,.149-.4c.273-1.144.529-2.291.813-3.432.106-.426.273-.838.436-1.328.165.185.259.283.345.388a3.659,3.659,0,0,1-.493,4.948,10.182,10.182,0,0,1-2.4,1.7,10.8,10.8,0,0,1-3.516,1.115c.171-.256.287-.426.4-.6a5.6,5.6,0,0,0,1.03-2.687c.08-1.121-.7-2.867-2.358-2.529-3.118.636-5.993,2.6-5.9,6.56a.611.611,0,0,1-.184.431,2.426,2.426,0,0,1-1.832.6,1.264,1.264,0,0,1-1.275-1.062c-.083-.291-.172-.581-.28-.945-.693.773-1.3,1.508-1.973,2.177a3.653,3.653,0,0,1-1.2.781.853.853,0,0,1-1.155-.807c-.036-.424-.076-.848-.122-1.351a3.151,3.151,0,0,1-.283.31,23.792,23.792,0,0,1-2.381,1.916c-1.292.809-2.288.434-2.924-.966a3.825,3.825,0,0,1-.332-.981c-.162-1.077-.289-2.161-.415-3.244-.1-.867-.182-1.736-.287-2.752-.662.951-1.2,1.8-1.818,2.586a3.578,3.578,0,0,0-.8,2.289,3.05,3.05,0,0,1-.85,2.326c-.277.262-.541.541-.836.782a19.045,19.045,0,0,1-10.393,4.141c-1.23.124-2.461.235-3.738.357a1.728,1.728,0,0,0,.223.111c.283.082.566.166.852.235a24.368,24.368,0,0,0,8.393.241,8.619,8.619,0,0,0,7.005-4.919c.3-.563.546-1.154.817-1.733h.114a3.746,3.746,0,0,0,.007.711,19.7,19.7,0,0,0,.536,2.368,1.677,1.677,0,0,0,1.811,1.267c.346-.021.7.011,1.042,0a97.578,97.578,0,0,0,10.751-1.327c.642-.1,1.284-.2,1.936-.307.186,1.016.174,2.061,1.306,2.486-.032-.8-.05-1.539-.1-2.275-.024-.384.161-.5.508-.562.94-.16,1.886-.313,2.811-.54A18.039,18.039,0,0,0,506.2,411.89Zm-8.519.344a4.15,4.15,0,0,1-1.752.465.752.752,0,0,1-.807-.609.9.9,0,0,1,.426-.981q1.51-1.026,3.017-2.054c.691.56.846,1.139.453,1.689A5.576,5.576,0,0,1,497.681,412.234Z" fill="#002a6a"/>
      <path id="Path_25560" data-name="Path 25560" d="M302.574,409.3a2.8,2.8,0,0,0,.577-1.831,6.585,6.585,0,0,0-.827-3.543,2.31,2.31,0,0,0-4.007.122,5.061,5.061,0,0,0-.548,1.818,1.689,1.689,0,0,0,1.818,1.861,10.65,10.65,0,0,0,1.286-.36,2.37,2.37,0,0,1,.67.052c-.027.239.023.53-.1.7a2.494,2.494,0,0,1-.759.7c-1.46.869-2.935,1.714-4.413,2.553a1.772,1.772,0,0,1-.644.194.584.584,0,0,1-.746-.529c-.061-.393-.143-.783-.206-1.127a14.6,14.6,0,0,1-1.279,1.731,12.643,12.643,0,0,1-6.586,3.24,1.918,1.918,0,0,1-2.115-.909c-.2-.312-.2-.507.155-.753a34.739,34.739,0,0,0,2.782-2.1,6,6,0,0,0,2.141-3.072c.523-2.192-.326-3.122-2.433-2.611a12.628,12.628,0,0,0-2.786,1.238,3.154,3.154,0,0,0-1.64,2.184c-.19.889-.21,1.812-.326,2.718a.776.776,0,0,1-.221.511,1.519,1.519,0,0,1-2.494-.836c-.145.168-.269.33-.413.474a5.275,5.275,0,0,1-3.827,1.848,2.251,2.251,0,0,1-2.443-2.194c-.343-2.819-.684-5.639-1.074-8.453-.143-1.036-.423-2.054-.641-3.08-2.08.462-3.476,2.3-3.1,3.968a4.089,4.089,0,0,0,2.149-.947,3.4,3.4,0,0,1,.178.625c.146,1.931.306,3.862.407,5.8a17.506,17.506,0,0,0,.825,5,3.042,3.042,0,0,0,3.045,2.149,7.415,7.415,0,0,0,3.7-1.112.846.846,0,0,1,.765-.085,2.195,2.195,0,0,0,1.168.088c.775-.2,1.52-.518,2.3-.794.1.281.209.61.343.927a2.79,2.79,0,0,0,3.5,1.938,19.181,19.181,0,0,0,5.215-1.9,12.653,12.653,0,0,1,2.769-1.276A12.486,12.486,0,0,0,302.574,409.3Zm-18.38,1.153a.94.94,0,0,1,.118-.657,4.888,4.888,0,0,1,1.85-1.76c.321-.2.646-.4,1-.609.262.151.536.217.587.361a1.133,1.133,0,0,1-.018.745,5.482,5.482,0,0,1-2.052,2.343A.894.894,0,0,1,284.194,410.448Z" fill="#002a6a"/>
      <path id="Path_25561" data-name="Path 25561" d="M219.98,412.771a3.458,3.458,0,0,0,3.1,1.141,8.381,8.381,0,0,0,6.742-4.88c1.031-2.013.516-4.09-.446-6.044a1.975,1.975,0,0,0-.484-.591,8.16,8.16,0,0,1-2.2-2.86c-.462-1.037-.946-2.065-1.421-3.1l-.1.024q.213,5.456.427,10.908h1.328v-3.941a3.273,3.273,0,0,1,.4.333,3.668,3.668,0,0,1,.742,3.319c-.528,2.237-3.83,4.219-6.089,3.678a.684.684,0,0,1-.577-.96c.236-.778.507-1.545.751-2.321a1.852,1.852,0,0,0-1.337-2.554,4.907,4.907,0,0,0-2.676-.053,3.154,3.154,0,0,0-2.655,3.912c.056.408.187.706.653.8a9.272,9.272,0,0,1,1.106.362,5.218,5.218,0,0,1-1.111.295,6.561,6.561,0,0,0-5.373,4.513,2.925,2.925,0,0,1-1.657,1.934,17.038,17.038,0,0,1-3.014,1.126c-2.686.615-5.4,1.115-8.039,1.649-.042-.015.032.018.108.038a24.254,24.254,0,0,0,9.3.651,5.2,5.2,0,0,0,4.425-3.564,3.952,3.952,0,0,1,2.3-2.605c1.5-.537,3.026-1,4.536-1.51A1.047,1.047,0,0,1,219.98,412.771Zm-1.705-6c.116-.2.4-.3.607-.44a2.022,2.022,0,0,1,1.392,1.243,1.676,1.676,0,0,1-.917,1.557.6.6,0,0,1-.394-.056,2.121,2.121,0,0,1-.772-1.565C218.224,407.264,218.161,406.969,218.275,406.774Z" fill="#002a6a"/>
      <path id="Path_25562" data-name="Path 25562" d="M308.141,416.432c.518-.049,1.04-.051,1.56-.085a8.046,8.046,0,0,0,7.4-5.7c1.38-4.519.265-8.505-2.911-11.954-.3-.327-.647-.614-1.065-1.007a35.1,35.1,0,0,0-.074,12.435,1.626,1.626,0,0,0,.338-.76c.087-1.122.133-2.247.2-3.371s.134-2.233.206-3.424a4.188,4.188,0,0,1,2.3,2.632,6.334,6.334,0,0,1-5.882,7.969.9.9,0,0,1-.21-.064c1.627-2.968,1.234-5.733-.69-8.418-.132.124-.223.2-.3.285a10.709,10.709,0,0,0-2.827,9.2.547.547,0,0,1-.289.645c-.578.317-1.136.676-1.733.948a41.409,41.409,0,0,1-8.2,2.488c-.644.144-1.29.276-1.937.4-.624.122-1.251.228-1.876.34a20.655,20.655,0,0,0,7.143.592,16.765,16.765,0,0,0,8.291-2.948A1.2,1.2,0,0,1,308.141,416.432Zm-.387-6.115c.217-.847.533-1.668.846-2.614a2.547,2.547,0,0,1,.722,2.2,3.762,3.762,0,0,1-.663,2.064,1.817,1.817,0,0,1-.391.336c-.342.213-.681.051-.673-.357A7.17,7.17,0,0,1,307.754,410.317Z" fill="#002a6a"/>
      <path id="Path_25563" data-name="Path 25563" d="M398.877,410.089a15.288,15.288,0,0,1-1.487.457,2.3,2.3,0,0,1-1.267-.145c-.275-.133-.1-.97.348-1.342,1.763-1.468,3.673-2.2,5.637-.451a2.565,2.565,0,0,0,3.008.326,6.285,6.285,0,0,0,2.767-3.464,2.4,2.4,0,0,0-.079-1.833,5.811,5.811,0,0,1-2.385,2.544,1.862,1.862,0,0,1-1.225.193,2.659,2.659,0,0,1-1.117-.6c-.969-.788-1.928-1.505-3.29-.963a11.294,11.294,0,0,0-5.755,4.743,4,4,0,0,0-.57,2.543,1.406,1.406,0,0,0,1.376,1.427,6.034,6.034,0,0,0,1.349-.062c.649-.1,1.283-.318,1.934-.383a1.262,1.262,0,0,1,.914.315c.1.1-.057.588-.217.82a6.4,6.4,0,0,1-10.553.316,3.349,3.349,0,0,1-.353-3.918A13.139,13.139,0,0,1,390.774,407c.624-.589,1.29-1.133,1.965-1.722a9.645,9.645,0,0,0-4.059,1.991c-3.053,2.6-3.745,5.926-1.983,9.32a6.485,6.485,0,0,0,8.235,3.176,8.692,8.692,0,0,0,5.251-5.622,5.713,5.713,0,0,0,.152-3.177C400.122,410.06,399.8,409.857,398.877,410.089Z" fill="#002a6a"/>
      <path id="Path_25564" data-name="Path 25564" d="M204.16,407.639a.831.831,0,0,1,.995.383,1.482,1.482,0,0,0,2.494.452,8.2,8.2,0,0,0,2.361-2.806,5.244,5.244,0,0,0,.479-1.364,2.2,2.2,0,0,0-.368-1.883,7.682,7.682,0,0,1-.38.805,14.6,14.6,0,0,1-1.362,2.073c-.795.891-1.707.7-2.25-.355-.3-.6-.6-1.193-.927-1.83-.166.177-.282.3-.4.427a26.793,26.793,0,0,1-19.924,8.622,4.934,4.934,0,0,1-4.241-1.668,1.993,1.993,0,0,0-3.3.133,5.732,5.732,0,0,0-1.266,2.591,3.306,3.306,0,0,0,.343,2.408,7.165,7.165,0,0,1,.391-.737,9.494,9.494,0,0,1,1.052-1.407,1.64,1.64,0,0,1,2.492-.022,5.733,5.733,0,0,0,2.907,1.428,18.822,18.822,0,0,0,5.662-.042,25.228,25.228,0,0,0,13.914-6.549A3.724,3.724,0,0,1,204.16,407.639Z" fill="#002a6a"/>
      <path id="Path_25565" data-name="Path 25565" d="M326.8,404.664a13.973,13.973,0,0,0-2.658-5.531c-.186-.221-.341-.469-.51-.7l-.286.094a15.917,15.917,0,0,0-.75,1.785,16.241,16.241,0,0,0,.948,8.746,9.051,9.051,0,0,0,.755,1.071l.186-.055a3.749,3.749,0,0,0,.138-.832c-.092-1.59-.214-3.178-.321-4.767-.015-.226,0-.455,0-.683l.159-.048c.119.145.238.291.358.436a6.045,6.045,0,0,1,1.246,5.56,9.231,9.231,0,0,1-4.448,5.72,24.86,24.86,0,0,1-9.727,3.193c-1.974.285-3.969.414-6.014.62a9.993,9.993,0,0,0,3.614.82,32.18,32.18,0,0,0,9.508-.971,10.505,10.505,0,0,0,7.78-6.787,9,9,0,0,0,.738-4.159A23.549,23.549,0,0,0,326.8,404.664Z" fill="#002a6a"/>
      <path id="Path_25566" data-name="Path 25566" d="M457.733,410.886a7.709,7.709,0,0,0,.932-4.814,2.243,2.243,0,0,0-1.517-1.948,2.324,2.324,0,0,0-2.521.5,4.51,4.51,0,0,0-1.263,3.362.8.8,0,0,0,.727.877,6.042,6.042,0,0,0,1.451-.17c.232-.043.442-.219.673-.25.654-.087,1,.377.724.972a2.078,2.078,0,0,1-.491.725c-1.026.851-2.047,1.716-3.132,2.488a9.3,9.3,0,0,1-3.706,1.722c-2.144.388-2.932-.974-2.679-2.436a5.488,5.488,0,0,0-.169-2.148c-.2-.822-.8-1.027-1.574-.656a2.958,2.958,0,0,0-.654.421,7.215,7.215,0,0,0-2.126,3.035,3.419,3.419,0,0,0-.186,2.063c.636-.679,1.194-1.319,1.807-1.9a.911.911,0,0,1,.767-.245,1.105,1.105,0,0,1,.436.746,12.246,12.246,0,0,1,.1,1.606,2.609,2.609,0,0,0,2.56,2.563,7.049,7.049,0,0,0,3.166-.734A12.813,12.813,0,0,0,457.733,410.886Z" fill="#002a6a"/>
      <path id="Path_25567" data-name="Path 25567" d="M236.345,399.573a12.663,12.663,0,0,0-1.182-1.181,5.908,5.908,0,0,0-.317.51,7.422,7.422,0,0,0-.364.859,13.289,13.289,0,0,0-.125,6.982,8.993,8.993,0,0,0,.757,2.03,1.269,1.269,0,0,0,1.232.785,12.742,12.742,0,0,1-.263-6.132,1.762,1.762,0,0,1,.234.2,6.441,6.441,0,0,1,1.318,6.043,9.536,9.536,0,0,1-4.4,5.344,23.177,23.177,0,0,1-7.625,2.827,45.643,45.643,0,0,1-8.565.965,1.39,1.39,0,0,0,.251.13c1.587.281,3.165.689,4.764.812a22.531,22.531,0,0,0,10.96-1.977,9.229,9.229,0,0,0,5.607-6.946,15.226,15.226,0,0,0-.381-6.791A11.585,11.585,0,0,0,236.345,399.573Z" fill="#002a6a"/>
      <path id="Path_25568" data-name="Path 25568" d="M517.155,402.225a30.025,30.025,0,0,0-1.519-2.659,6.233,6.233,0,0,0-.8-.873,4.621,4.621,0,0,0-.585,1.033,17.492,17.492,0,0,0-.262,6.5,16.537,16.537,0,0,0,.474,2.49,2.332,2.332,0,0,0,.671.953.792.792,0,0,0,.629.058c.07-.017.1-.328.089-.5-.026-.379-.115-.755-.135-1.134-.061-1.211-.114-2.422-.139-3.634,0-.174.162-.352.249-.528.136.1.316.162.4.291a7.04,7.04,0,0,1,1.349,3.659,7.887,7.887,0,0,1-3.182,6.681,18.343,18.343,0,0,1-4.885,2.749,34.006,34.006,0,0,1-12.112,2.121c.114.034.226.075.342.1a28.254,28.254,0,0,0,9.582.544,14.029,14.029,0,0,0,7.8-3.415,10.059,10.059,0,0,0,3.36-5.5A13.959,13.959,0,0,0,517.155,402.225Z" fill="#002a6a"/>
      <path id="Path_25569" data-name="Path 25569" d="M267.178,405.743a4.231,4.231,0,0,0-4.893.895,9.362,9.362,0,0,0-1.531,2.511,3.127,3.127,0,0,0,1.953,4.291.487.487,0,0,0,.29.037,1.62,1.62,0,0,0,.512-2.1c-.4-.407-.821-.8-1.213-1.218a.767.767,0,0,1,.124-1.213,1.611,1.611,0,0,1,.71-.3,25.812,25.812,0,0,1,3.064-.194,1.8,1.8,0,0,1,1.567,2.407,6.927,6.927,0,0,1-1.153,1.827,9.356,9.356,0,0,1-3.419,2.33,47.071,47.071,0,0,1-12.057,3.444c.16.056.316.125.479.166a17.531,17.531,0,0,0,12.383-1.181,8.762,8.762,0,0,0,4.53-4.68,6.071,6.071,0,0,0-.914-6.667A1.222,1.222,0,0,0,267.178,405.743Z" fill="#002a6a"/>
      <path id="Path_25570" data-name="Path 25570" d="M436.836,399.072a.953.953,0,0,0-.194-.244c-.259-.244-.5-.23-.679.089a1.8,1.8,0,0,0-.189.482,16.744,16.744,0,0,0-.342,7.151,8.265,8.265,0,0,0,1.374,3.512,1.09,1.09,0,0,0,.422-1.273,11.307,11.307,0,0,1-.051-4.6,3.666,3.666,0,0,1,.185-.474c.348.664.679,1.19.911,1.757a7.01,7.01,0,0,1-.973,7.659,12.433,12.433,0,0,1-3.767,2.922,29.339,29.339,0,0,1-10.5,3.017c-1.5.181-3.014.262-4.548.391a25.967,25.967,0,0,0,10.3.552,15.115,15.115,0,0,0,8.806-4.565,7.059,7.059,0,0,0,1.883-2.949,15.163,15.163,0,0,0,.138-7.251A24.52,24.52,0,0,0,436.836,399.072Z" fill="#002a6a"/>
      <path id="Path_25571" data-name="Path 25571" d="M469.372,409.244a4.917,4.917,0,0,0-.286-3.4,2.558,2.558,0,0,0-3.411-1.048,3.722,3.722,0,0,0-1.843,2.925,1.427,1.427,0,0,0,.678,1.563,1.515,1.515,0,0,0,1.653-.253,2.52,2.52,0,0,1,.561-.368.841.841,0,0,1,.658.027.832.832,0,0,1,.218.672,5.1,5.1,0,0,1-.437,1.271,9.547,9.547,0,0,1-3.956,3.884,32.125,32.125,0,0,1-9.812,3.514c-1.781.38-3.584.656-5.415.986a2.373,2.373,0,0,0,.243.077,23.834,23.834,0,0,0,9.728.22,14.885,14.885,0,0,0,6.6-2.815A12.591,12.591,0,0,0,469.372,409.244Z" fill="#002a6a"/>
      <path id="Path_25572" data-name="Path 25572" d="M247.211,413.445a3.58,3.58,0,0,0,4.139.03c1.046-.714,2.077-1.45,3.1-2.2a3.315,3.315,0,0,0,.977-3.548c-.163.147-.318.278-.465.419-.674.65-1.352,1.3-2.017,1.956a3.786,3.786,0,0,1-2.625,1.079,8.353,8.353,0,0,1-3.637-.972,2.916,2.916,0,0,0-3.362.606,9.986,9.986,0,0,0-2.614,4.831l.4-.324a10.465,10.465,0,0,1,3.712-2.143A2.531,2.531,0,0,1,247.211,413.445Z" fill="#002a6a"/>
      <path id="Path_25573" data-name="Path 25573" d="M252.974,405.318a16.018,16.018,0,0,0,1.687-.758.785.785,0,0,1,.5-.076,2.8,2.8,0,0,0,3.616-2.323,10.579,10.579,0,0,0,.006-1.1,1.705,1.705,0,0,0-.549.307,17.537,17.537,0,0,1-1.6,1.052.779.779,0,0,1-1.156-.431c-.063-.129-.112-.265-.181-.433-.132.221-.233.4-.344.576a2.125,2.125,0,0,1-1.289.991c-.726.179-1.19-.212-1.059-.942a13.849,13.849,0,0,1,.447-1.523l-.125-.1c-.606.7-1.257,1.373-1.8,2.118a1.478,1.478,0,0,0-.081,1.845A1.722,1.722,0,0,0,252.974,405.318Z" fill="#002a6a"/>
      <path id="Path_25574" data-name="Path 25574" d="M190.047,403.585c-.019,1.475.619,2.312,2.276,1.927a12.4,12.4,0,0,0,1.488-.6,1.108,1.108,0,0,1,.583-.08,2.983,2.983,0,0,0,3.427-2.171,1.923,1.923,0,0,0-.459-1.758c-.236.335-.432.662-.674.95-.942,1.118-1.358,1.147-2.415.179a2.175,2.175,0,0,1-.168.256,6.07,6.07,0,0,1-1.033,1.138.864.864,0,0,1-1.416-.825,11.626,11.626,0,0,1,.274-1.459A2.626,2.626,0,0,0,190.047,403.585Z" fill="#002a6a"/>
      <path id="Path_25575" data-name="Path 25575" d="M275.584,401.938a72.174,72.174,0,0,0,10.892-3.74,4.146,4.146,0,0,1-.418-.375,1.33,1.33,0,0,0-1.688-.345c-2.394.826-4.816,1.574-7.227,2.353-1.1.355-2.192.714-3.376,1.1.435.337.772.637,1.151.872A.987.987,0,0,0,275.584,401.938Z" fill="#002a6a"/>
      <path id="Path_25576" data-name="Path 25576" d="M477.427,403.336l.7.817a6.211,6.211,0,0,0,.124-.826c0-.437.212-.6.625-.721a3.7,3.7,0,0,0,1.285-.639,1.6,1.6,0,0,0-.02-2.416,2.851,2.851,0,0,0-3.279.7,3.209,3.209,0,0,0-.47,1.353,1.4,1.4,0,0,1-.733,1.167,4.79,4.79,0,0,1-.848.5c-1.023.4-2.059.768-3.093,1.15C473.734,404.765,475.579,404.07,477.427,403.336Z" fill="#002a6a"/>
      <path id="Path_25577" data-name="Path 25577" d="M445.842,401a2.751,2.751,0,0,1,2.056-.112c-1.145,1.1-2.76,1.684-3.287,3.394,1.546-.951,3.105-1.881,4.627-2.869a4.485,4.485,0,0,0,1.091-1.1c.454-.61.287-1.164-.431-1.38a5.781,5.781,0,0,0-3.977.088,3.112,3.112,0,0,0-1.843,3.08A11.461,11.461,0,0,1,445.842,401Z" fill="#002a6a"/>
      <path id="Path_25578" data-name="Path 25578" d="M341.808,402c2.2-.752,4.408-1.479,6.613-2.218,1.442-.483,2.881-.973,4.385-1.481a6.372,6.372,0,0,1-.647-.522,1.1,1.1,0,0,0-1.3-.231c-2.8.928-5.61,1.818-8.416,2.723-.83.268-1.656.545-2.558.842.38.285.7.49.982.746A.828.828,0,0,0,341.808,402Z" fill="#002a6a"/>
      <path id="Path_25579" data-name="Path 25579" d="M211.056,400.944a.719.719,0,0,0,.917.185c2.456-.862,4.92-1.7,7.381-2.548l3.763-1.294c-.216-.136-.362-.222-.5-.318a1.551,1.551,0,0,0-1.525-.271c-3,1.027-6.031,1.988-9.049,2.973-.553.18-1.1.365-1.715.567C210.611,400.511,210.857,400.708,211.056,400.944Z" fill="#002a6a"/>
      <path id="Path_25580" data-name="Path 25580" d="M187.4,401.338a.7.7,0,0,0,.91.175c1.255-.456,2.523-.874,3.786-1.308l7.324-2.519a2.182,2.182,0,0,0-2.367-.486c-2.656.962-5.367,1.774-8.055,2.649-.762.248-1.521.505-2.344.779A8.666,8.666,0,0,1,187.4,401.338Z" fill="#002a6a"/>
      <path id="Path_25581" data-name="Path 25581" d="M492.507,404.2a2.775,2.775,0,0,0,1.8-.087,5.631,5.631,0,0,1,2.572-.777,1.349,1.349,0,0,0,1.28-1.392,1.97,1.97,0,0,0-1.137-1.9,4.342,4.342,0,0,1-.014.935c-.083.366-.181.9-.431,1.011-.267.121-.732-.13-1.083-.281a1.4,1.4,0,0,1-.486-.458,7.28,7.28,0,0,1-.421-.687,1.471,1.471,0,0,0-.653,1.259,1.172,1.172,0,0,1-.486.864c-.2.094-.7-.127-.864-.353a8.285,8.285,0,0,1-.7-1.5,13.6,13.6,0,0,0-.49,1.837A1.319,1.319,0,0,0,492.507,404.2Z" fill="#002a6a"/>
      <path id="Path_25582" data-name="Path 25582" d="M293.394,401.875a.439.439,0,0,0,.238-.285c.081-.684.134-1.37.2-2.089a1.135,1.135,0,0,0-.286.017q-2.441.891-4.876,1.795a.481.481,0,0,0-.253.241,3.392,3.392,0,0,0-.113,2.41C290.031,403.257,291.715,402.572,293.394,401.875Z" fill="#002a6a"/>
      <path id="Path_25583" data-name="Path 25583" d="M298.223,401.563c1.671-.674,3.343-1.347,5.009-2.034a.433.433,0,0,0,.205-.306c.071-.669.118-1.341.179-2.1a22.271,22.271,0,0,0-5.133,1.846.551.551,0,0,0-.267.228,3.367,3.367,0,0,0-.138,2.354C298.155,401.56,298.194,401.574,298.223,401.563Z" fill="#002a6a"/>
      <path id="Path_25584" data-name="Path 25584" d="M342.791,422.633c1.739-.585,3.446-1.156,5.147-1.741a.447.447,0,0,0,.255-.286c.117-.729.207-1.463.313-2.255a15.146,15.146,0,0,0-4.636,1.626A2.13,2.13,0,0,0,342.791,422.633Z" fill="#002a6a"/>
      <path id="Path_25585" data-name="Path 25585" d="M335.2,402.211a.443.443,0,0,0,.273-.26c.121-.74.213-1.485.321-2.279a15.059,15.059,0,0,0-4.467,1.523,2.212,2.212,0,0,0-1.277,2.765C331.792,403.37,333.5,402.8,335.2,402.211Z" fill="#002a6a"/>
      <path id="Path_25586" data-name="Path 25586" d="M181.622,401.2c.017-.664.009-1.329.009-1.98a.91.91,0,0,0-.2-.023,18.6,18.6,0,0,0-4.869,1.94.53.53,0,0,0-.232.358c-.06.689-.088,1.381-.134,2.188,1.811-.77,3.518-1.493,5.219-2.227A.373.373,0,0,0,181.622,401.2Z" fill="#002a6a"/>
      <path id="Path_25587" data-name="Path 25587" d="M190.5,419.932a.412.412,0,0,0-.174.283c-.052.705-.084,1.411-.129,2.23,1.815-.773,3.517-1.494,5.214-2.229a.413.413,0,0,0,.2-.3c.018-.649.009-1.3.009-2.009A19.334,19.334,0,0,0,190.5,419.932Z" fill="#002a6a"/>
      <path id="Path_25588" data-name="Path 25588" d="M247.883,401.567c.1-.6.147-1.2.225-1.9a13.3,13.3,0,0,0-5.295,2.028.412.412,0,0,0-.169.244c-.1.646-.186,1.295-.287,2.015,1.8-.644,3.533-1.253,5.252-1.894C247.746,402.01,247.855,401.747,247.883,401.567Z" fill="#002a6a"/>
      <path id="Path_25589" data-name="Path 25589" d="M244.515,420.191c-.12.682-.225,1.367-.348,2.136,1.828-.655,3.539-1.265,5.247-1.884.1-.037.238-.134.25-.219.1-.712.175-1.428.265-2.2a13.9,13.9,0,0,0-5.235,1.995C244.624,420.061,244.527,420.124,244.515,420.191Z" fill="#002a6a"/>
      <path id="Path_25590" data-name="Path 25590" d="M371.1,402.312a.5.5,0,0,0,.269-.326c.118-.7.205-1.4.314-2.184-1.716.611-3.333,1.179-4.94,1.771a1.018,1.018,0,0,0-.5.423,3.5,3.5,0,0,0-.28,2.209C367.726,403.558,369.415,402.944,371.1,402.312Z" fill="#002a6a"/>
      <path id="Path_25591" data-name="Path 25591" d="M401.186,401a.443.443,0,0,0,.261-.274c.1-.735.166-1.473.25-2.273l-4.3,1.6a2.4,2.4,0,0,0-1.415,2.761C397.721,402.214,399.456,401.614,401.186,401Z" fill="#002a6a"/>
      <path id="Path_25592" data-name="Path 25592" d="M405.285,413.2a3.87,3.87,0,0,0-.451,2.124c1.8-.629,3.536-1.232,5.265-1.841.087-.031.213-.111.221-.18.1-.759.173-1.52.264-2.36-1.7.634-3.286,1.22-4.868,1.832A.962.962,0,0,0,405.285,413.2Z" fill="#002a6a"/>
      <path id="Path_25593" data-name="Path 25593" d="M278.748,404.842a12.54,12.54,0,0,0,.893-1.205,6.166,6.166,0,0,0,.387-1.125l-.17-.06a8.619,8.619,0,0,0-2.968,3.312,2.351,2.351,0,0,0-.17,1.055c.109.946.759,1.35,1.954,1.3,1.074-.048,1.527-.716,1.181-1.794a1.225,1.225,0,0,1-.332.087c-.329-.008-.776.079-.952-.1s-.168-.633-.149-.961C278.432,405.176,278.626,405.006,278.748,404.842Z" fill="#002a6a"/>
      <path id="Path_25594" data-name="Path 25594" d="M344.45,403.872a1.441,1.441,0,0,0,.539-1.568c-.778.737-1.54,1.388-2.21,2.122a4.838,4.838,0,0,0-.839,1.417,1.747,1.747,0,0,0,1.761,2.38c1.177-.042,1.6-.711,1.072-1.818a.876.876,0,0,1-.222.1c-.324.056-.8.25-.94.112a1.853,1.853,0,0,1-.287-1.018.83.83,0,0,1,.16-.536A10.906,10.906,0,0,1,344.45,403.872Z" fill="#002a6a"/>
      <path id="Path_25595" data-name="Path 25595" d="M485.777,406.7c.318-.533.6-1.085.945-1.713l-2.478-1.1-1.094,1.987c.794.341,1.52.665,2.258.958A.408.408,0,0,0,485.777,406.7Z" fill="#002a6a"/>
      <path id="Path_25596" data-name="Path 25596" d="M204.578,413.293l2.462,1.128c.366-.679.7-1.3,1.072-1.99l-2.31-1.13Z" fill="#002a6a"/>
      <path id="Path_25597" data-name="Path 25597" d="M360.065,405.893c.339-.536.652-1.088,1-1.672l-2.47-1.066c-.372.654-.72,1.264-1.1,1.923.776.327,1.5.642,2.238.931A.368.368,0,0,0,360.065,405.893Z" fill="#002a6a"/>
    </g>
    <g id="Group_315" data-name="Group 315" transform="translate(-8)">
      <path id="Path_25598" data-name="Path 25598" d="M175.657,435.84h2.317v4.645l4.356-4.645h3.044l-4.626,4.636,4.863,6.637h-3.029l-3.473-4.921-1.135,1.151v3.77h-2.317Z" fill="#002a6a"/>
      <path id="Path_25599" data-name="Path 25599" d="M188.926,438.777V443.8a2.634,2.634,0,0,0,.168,1.071,1.158,1.158,0,0,0,1.164.635,1.521,1.521,0,0,0,1.522-.9,3.28,3.28,0,0,0,.213-1.292v-4.535h2.21v8.336h-2.118v-1.178c-.02.026-.071.1-.153.23a1.529,1.529,0,0,1-.289.336,3.023,3.023,0,0,1-.988.627,3.36,3.36,0,0,1-1.117.169,2.489,2.489,0,0,1-2.486-1.331,5.106,5.106,0,0,1-.359-2.165v-5.024Z" fill="#002a6a"/>
      <path id="Path_25600" data-name="Path 25600" d="M200.253,438.777h2.21l1.27,6,1.3-6H207.3l-2.416,8.336h-2.241l-1.308-6.072-1.323,6.072h-2.264l-2.34-8.336h2.34l1.3,5.98Z" fill="#002a6a"/>
      <path id="Path_25601" data-name="Path 25601" d="M211.807,442.042a3.413,3.413,0,0,0,.87-.191.654.654,0,0,0,.47-.619.733.733,0,0,0-.36-.708,2.278,2.278,0,0,0-1.058-.195,1.39,1.39,0,0,0-1.109.383,1.576,1.576,0,0,0-.31.764h-2.1a3.193,3.193,0,0,1,.614-1.8,3.584,3.584,0,0,1,2.981-1.1,5.314,5.314,0,0,1,2.442.543,2.082,2.082,0,0,1,1.068,2.05v3.823q0,.4.015.964a1.21,1.21,0,0,0,.13.581.79.79,0,0,0,.321.253v.321h-2.371a2.4,2.4,0,0,1-.137-.474c-.026-.148-.046-.316-.061-.505a4.535,4.535,0,0,1-1.047.834,3.161,3.161,0,0,1-1.6.4,2.761,2.761,0,0,1-1.881-.646,2.3,2.3,0,0,1-.742-1.832,2.372,2.372,0,0,1,1.194-2.225,5.331,5.331,0,0,1,1.926-.536Zm1.333,1.018a2.519,2.519,0,0,1-.423.21,3.636,3.636,0,0,1-.585.149l-.5.092a3.249,3.249,0,0,0-1,.3.994.994,0,0,0-.515.925.967.967,0,0,0,.314.807,1.2,1.2,0,0,0,.765.249,2.283,2.283,0,0,0,1.317-.413,1.752,1.752,0,0,0,.625-1.507Z" fill="#002a6a"/>
      <path id="Path_25602" data-name="Path 25602" d="M219.457,437.782h-2.21v-2.011h2.21Zm-2.21.995h2.21v8.336h-2.21Z" fill="#002a6a"/>
      <path id="Path_25603" data-name="Path 25603" d="M220.711,440.406v-1.553h1.163v-2.325h2.156v2.325h1.354v1.553H224.03v4.4a1,1,0,0,0,.13.639,1.436,1.436,0,0,0,.8.126c.066,0,.136,0,.21,0s.147-.006.218-.012v1.629l-1.032.039a2.772,2.772,0,0,1-2.111-.536,1.592,1.592,0,0,1-.367-1.155v-5.131Z" fill="#002a6a"/>
      <path id="Path_25604" data-name="Path 25604" d="M231.311,435.855h8.038v1.981h-5.7v2.593h4.994v1.958h-4.994v4.726h-2.341Z" fill="#002a6a"/>
      <path id="Path_25605" data-name="Path 25605" d="M242.875,438.777V443.8a2.654,2.654,0,0,0,.167,1.071,1.159,1.159,0,0,0,1.165.635,1.521,1.521,0,0,0,1.522-.9,3.28,3.28,0,0,0,.213-1.292v-4.535h2.21v8.336h-2.118v-1.178c-.021.026-.071.1-.153.23a1.533,1.533,0,0,1-.29.336,3.02,3.02,0,0,1-.987.627,3.367,3.367,0,0,1-1.118.169A2.49,2.49,0,0,1,241,445.966a5.108,5.108,0,0,1-.358-2.165v-5.024Z" fill="#002a6a"/>
      <path id="Path_25606" data-name="Path 25606" d="M256.993,439.255a2.756,2.756,0,0,1,.818,2.244v5.614h-2.233v-5.071a2.333,2.333,0,0,0-.174-1.009,1.228,1.228,0,0,0-1.215-.643,1.507,1.507,0,0,0-1.511.941,3.251,3.251,0,0,0-.213,1.27v4.512h-2.179v-8.321H252.4v1.216a3.676,3.676,0,0,1,.792-.925,2.742,2.742,0,0,1,1.7-.505A3.193,3.193,0,0,1,256.993,439.255Z" fill="#002a6a"/>
      <path id="Path_25607" data-name="Path 25607" d="M264.259,438.911a2.651,2.651,0,0,1,.956.921v-3.977h2.21v11.258h-2.119v-1.155a3.064,3.064,0,0,1-1.063,1.078,2.974,2.974,0,0,1-1.483.337,3.1,3.1,0,0,1-2.459-1.182,4.532,4.532,0,0,1-1-3.032,5.216,5.216,0,0,1,.982-3.357,3.2,3.2,0,0,1,2.628-1.224A2.69,2.69,0,0,1,264.259,438.911Zm.535,5.938a3.043,3.043,0,0,0,.482-1.782,2.731,2.731,0,0,0-.773-2.187,1.662,1.662,0,0,0-1.1-.4,1.53,1.53,0,0,0-1.4.723,3.894,3.894,0,0,0,.007,3.64,1.54,1.54,0,0,0,1.381.692A1.608,1.608,0,0,0,264.794,444.849Z" fill="#002a6a"/>
      <path id="Path_25608" data-name="Path 25608" d="M273.933,435.855h8.038v1.981h-5.7v2.593h4.994v1.958h-4.994v4.726h-2.341Z" fill="#002a6a"/>
      <path id="Path_25609" data-name="Path 25609" d="M290.277,446.093a4.592,4.592,0,0,1-6.409,0,5.173,5.173,0,0,1,0-6.262,4.545,4.545,0,0,1,6.409,0,5.174,5.174,0,0,1,0,6.262Zm-1.744-1.2a3.889,3.889,0,0,0,0-3.861,1.936,1.936,0,0,0-2.94,0,3.863,3.863,0,0,0,0,3.861,1.931,1.931,0,0,0,2.94,0Z" fill="#002a6a"/>
      <path id="Path_25610" data-name="Path 25610" d="M297.523,438.582l.188.011v2.233c-.138-.015-.26-.025-.367-.03s-.194-.008-.26-.008a1.809,1.809,0,0,0-1.767.857,3.332,3.332,0,0,0-.252,1.483v3.985h-2.2v-8.336h2.08v1.453a4.594,4.594,0,0,1,.879-1.14,2.4,2.4,0,0,1,1.591-.512A1.006,1.006,0,0,1,297.523,438.582Z" fill="#002a6a"/>
      <path id="Path_25611" data-name="Path 25611" d="M306.166,435.84h2.665l3.988,11.273h-2.554l-.744-2.317H305.37l-.765,2.317h-2.464Zm-.156,7.013H308.9l-1.425-4.436Z" fill="#002a6a"/>
      <path id="Path_25612" data-name="Path 25612" d="M318.708,438.582l.188.011v2.233c-.138-.015-.26-.025-.368-.03s-.193-.008-.26-.008a1.807,1.807,0,0,0-1.766.857,3.316,3.316,0,0,0-.253,1.483v3.985h-2.2v-8.336h2.081v1.453a4.594,4.594,0,0,1,.879-1.14,2.4,2.4,0,0,1,1.591-.512A1.006,1.006,0,0,1,318.708,438.582Z" fill="#002a6a"/>
      <path id="Path_25613" data-name="Path 25613" d="M323.475,442.042a3.434,3.434,0,0,0,.87-.191.654.654,0,0,0,.47-.619.733.733,0,0,0-.36-.708,2.282,2.282,0,0,0-1.059-.195,1.389,1.389,0,0,0-1.108.383,1.567,1.567,0,0,0-.31.764h-2.1a3.2,3.2,0,0,1,.615-1.8,3.583,3.583,0,0,1,2.98-1.1,5.315,5.315,0,0,1,2.443.543,2.081,2.081,0,0,1,1.067,2.049v3.824c0,.266.006.587.016.964a1.2,1.2,0,0,0,.13.581.783.783,0,0,0,.321.253v.321h-2.371a2.476,2.476,0,0,1-.138-.474c-.025-.148-.045-.316-.061-.505a4.508,4.508,0,0,1-1.046.834,3.16,3.16,0,0,1-1.6.4,2.761,2.761,0,0,1-1.881-.646,2.3,2.3,0,0,1-.742-1.832,2.374,2.374,0,0,1,1.194-2.226,5.353,5.353,0,0,1,1.926-.535Zm1.332,1.018a2.474,2.474,0,0,1-.422.21,3.636,3.636,0,0,1-.585.149l-.5.092a3.259,3.259,0,0,0-1,.3,1,1,0,0,0-.515.925.964.964,0,0,0,.315.807,1.2,1.2,0,0,0,.765.249,2.28,2.28,0,0,0,1.316-.413,1.749,1.749,0,0,0,.625-1.507Z" fill="#002a6a"/>
      <path id="Path_25614" data-name="Path 25614" d="M336,439.779a4.793,4.793,0,0,1,.935,3.059,5.368,5.368,0,0,1-.922,3.22,3.35,3.35,0,0,1-4.244.864,3.338,3.338,0,0,1-.815-.857v1.048h-2.149V435.855h2.18v4.008a3.164,3.164,0,0,1,.916-.887,2.734,2.734,0,0,1,1.509-.383A3.115,3.115,0,0,1,336,439.779Zm-1.822,5.078a3.088,3.088,0,0,0,.47-1.79,4.007,4.007,0,0,0-.231-1.468,1.612,1.612,0,0,0-1.619-1.1,1.636,1.636,0,0,0-1.643,1.079,4.021,4.021,0,0,0-.231,1.484,3.087,3.087,0,0,0,.478,1.774,1.641,1.641,0,0,0,1.458.7A1.511,1.511,0,0,0,334.18,444.857Z" fill="#002a6a"/>
      <path id="Path_25615" data-name="Path 25615" d="M351.316,437.836H345.35v2.394h5.476v1.958H345.35v2.9h6.241v2.027h-8.543V435.84h8.268Z" fill="#002a6a"/>
      <path id="Path_25616" data-name="Path 25616" d="M358.237,441.767a1.94,1.94,0,0,0-.314-.841,1.319,1.319,0,0,0-1.143-.505,1.5,1.5,0,0,0-1.51,1.094,4.54,4.54,0,0,0-.215,1.541,4.175,4.175,0,0,0,.215,1.472,1.458,1.458,0,0,0,1.472,1.04,1.3,1.3,0,0,0,1.089-.413,2.056,2.056,0,0,0,.391-1.071h2.225a3.652,3.652,0,0,1-.719,1.882,3.5,3.5,0,0,1-3.04,1.43,3.557,3.557,0,0,1-2.962-1.193,4.82,4.82,0,0,1-.95-3.094,4.889,4.889,0,0,1,1.049-3.338,3.654,3.654,0,0,1,2.894-1.193,4.36,4.36,0,0,1,2.568.7,3.271,3.271,0,0,1,1.183,2.486Z" fill="#002a6a"/>
      <path id="Path_25617" data-name="Path 25617" d="M368.914,446.093a4.592,4.592,0,0,1-6.409,0,5.17,5.17,0,0,1,0-6.262,4.545,4.545,0,0,1,6.409,0,5.174,5.174,0,0,1,0,6.262Zm-1.744-1.2a3.9,3.9,0,0,0,0-3.861,1.937,1.937,0,0,0-2.941,0,3.869,3.869,0,0,0,0,3.861,1.932,1.932,0,0,0,2.941,0Z" fill="#002a6a"/>
      <path id="Path_25618" data-name="Path 25618" d="M378.251,439.255a2.756,2.756,0,0,1,.819,2.244v5.614h-2.233v-5.071a2.316,2.316,0,0,0-.175-1.009,1.227,1.227,0,0,0-1.215-.643,1.505,1.505,0,0,0-1.51.941,3.247,3.247,0,0,0-.213,1.27v4.512h-2.18v-8.321h2.111v1.216a3.7,3.7,0,0,1,.792-.925,2.743,2.743,0,0,1,1.7-.505A3.19,3.19,0,0,1,378.251,439.255Z" fill="#002a6a"/>
      <path id="Path_25619" data-name="Path 25619" d="M388.049,446.093a4.592,4.592,0,0,1-6.409,0,5.17,5.17,0,0,1,0-6.262,4.545,4.545,0,0,1,6.409,0,5.174,5.174,0,0,1,0,6.262Zm-1.744-1.2a3.9,3.9,0,0,0,0-3.861,1.937,1.937,0,0,0-2.941,0,3.869,3.869,0,0,0,0,3.861,1.932,1.932,0,0,0,2.941,0Z" fill="#002a6a"/>
      <path id="Path_25620" data-name="Path 25620" d="M401.065,438.807a2.429,2.429,0,0,1,.972.75,2.4,2.4,0,0,1,.474,1.07,7.415,7.415,0,0,1,.076,1.232l-.015,5.254h-2.233V441.8a1.742,1.742,0,0,0-.153-.78,1.088,1.088,0,0,0-1.071-.581,1.253,1.253,0,0,0-1.246.749,2.345,2.345,0,0,0-.176.956v4.964h-2.2v-4.964a2.786,2.786,0,0,0-.153-1.078,1.068,1.068,0,0,0-1.079-.6,1.286,1.286,0,0,0-1.254.6,2.33,2.33,0,0,0-.176,1.025v5.017h-2.21v-8.321h2.119v1.216a3.51,3.51,0,0,1,.764-.925,3.025,3.025,0,0,1,3.19-.069,2.444,2.444,0,0,1,.718,1,2.778,2.778,0,0,1,1.063-1.079,3.252,3.252,0,0,1,1.5-.344A2.89,2.89,0,0,1,401.065,438.807Z" fill="#002a6a"/>
      <path id="Path_25621" data-name="Path 25621" d="M406.832,437.782h-2.21v-2.011h2.21Zm-2.21.995h2.21v8.336h-2.21Z" fill="#002a6a"/>
      <path id="Path_25622" data-name="Path 25622" d="M413.929,441.767a1.915,1.915,0,0,0-.314-.841,1.317,1.317,0,0,0-1.142-.505,1.505,1.505,0,0,0-1.511,1.094,4.542,4.542,0,0,0-.214,1.541,4.177,4.177,0,0,0,.214,1.472,1.459,1.459,0,0,0,1.473,1.04,1.3,1.3,0,0,0,1.088-.413,2.048,2.048,0,0,0,.391-1.071h2.226a3.646,3.646,0,0,1-.72,1.882,3.5,3.5,0,0,1-3.039,1.43,3.558,3.558,0,0,1-2.963-1.193,4.82,4.82,0,0,1-.949-3.094,4.889,4.889,0,0,1,1.048-3.338,3.652,3.652,0,0,1,2.894-1.193,4.363,4.363,0,0,1,2.569.7,3.274,3.274,0,0,1,1.183,2.486Z" fill="#002a6a"/>
      <path id="Path_25623" data-name="Path 25623" d="M428.787,436.085a3.721,3.721,0,0,1,1.921,1.43,5.013,5.013,0,0,1,.8,1.82,8.727,8.727,0,0,1,.214,1.866,7.49,7.49,0,0,1-.9,3.809,4.076,4.076,0,0,1-3.781,2.1h-4.861V435.84h4.861A5.929,5.929,0,0,1,428.787,436.085Zm-4.319,1.713v7.357h2.176a2.348,2.348,0,0,0,2.328-1.644,5.792,5.792,0,0,0,.36-2.149,5.286,5.286,0,0,0-.54-2.643,2.281,2.281,0,0,0-2.148-.921Z" fill="#002a6a"/>
      <path id="Path_25624" data-name="Path 25624" d="M438.749,438.945a3.393,3.393,0,0,1,1.441,1.234,4.112,4.112,0,0,1,.664,1.723,10.7,10.7,0,0,1,.072,1.655h-6.072a2,2,0,0,0,.872,1.759,2.214,2.214,0,0,0,1.2.313,1.693,1.693,0,0,0,1.659-.956h2.225A2.724,2.724,0,0,1,440,446.18a4.05,4.05,0,0,1-3.136,1.216,4.544,4.544,0,0,1-2.937-1.026,4.039,4.039,0,0,1-1.272-3.337,4.511,4.511,0,0,1,1.149-3.322,4.016,4.016,0,0,1,2.981-1.156A4.753,4.753,0,0,1,438.749,438.945Zm-3.261,1.883a2.267,2.267,0,0,0-.58,1.291h3.755a1.816,1.816,0,0,0-.581-1.317,1.907,1.907,0,0,0-1.293-.45A1.731,1.731,0,0,0,435.488,440.828Z" fill="#002a6a"/>
      <path id="Path_25625" data-name="Path 25625" d="M447.163,438.777H449.5l-3.011,8.336h-2.3l-2.989-8.336h2.447l1.736,6.149Z" fill="#002a6a"/>
      <path id="Path_25626" data-name="Path 25626" d="M456.171,438.945a3.393,3.393,0,0,1,1.441,1.234,4.112,4.112,0,0,1,.664,1.723,10.7,10.7,0,0,1,.072,1.655h-6.072a2,2,0,0,0,.872,1.759,2.214,2.214,0,0,0,1.2.313,1.693,1.693,0,0,0,1.659-.956h2.225a2.724,2.724,0,0,1-.808,1.507,4.05,4.05,0,0,1-3.136,1.216,4.544,4.544,0,0,1-2.937-1.026,4.039,4.039,0,0,1-1.272-3.337,4.511,4.511,0,0,1,1.149-3.322,4.016,4.016,0,0,1,2.981-1.156A4.753,4.753,0,0,1,456.171,438.945Zm-3.26,1.883a2.261,2.261,0,0,0-.581,1.291h3.755a1.816,1.816,0,0,0-.581-1.317,1.906,1.906,0,0,0-1.292-.45A1.728,1.728,0,0,0,452.911,440.828Z" fill="#002a6a"/>
      <path id="Path_25627" data-name="Path 25627" d="M461.675,447.113H459.5V435.84h2.179Z" fill="#002a6a"/>
      <path id="Path_25628" data-name="Path 25628" d="M470.754,446.093a4.592,4.592,0,0,1-6.409,0,5.17,5.17,0,0,1,0-6.262,4.545,4.545,0,0,1,6.409,0,5.174,5.174,0,0,1,0,6.262Zm-1.744-1.2a3.9,3.9,0,0,0,0-3.861,1.937,1.937,0,0,0-2.941,0,3.869,3.869,0,0,0,0,3.861,1.932,1.932,0,0,0,2.941,0Z" fill="#002a6a"/>
      <path id="Path_25629" data-name="Path 25629" d="M480.38,439.671a4.445,4.445,0,0,1,1.02,3.167,5,5,0,0,1-1,3.357,3.236,3.236,0,0,1-2.567,1.155,2.7,2.7,0,0,1-1.663-.5,3.2,3.2,0,0,1-.708-.8v4.344h-2.157V438.777H475.4v1.231a3.5,3.5,0,0,1,.754-.857,2.783,2.783,0,0,1,1.74-.558A3.3,3.3,0,0,1,480.38,439.671Zm-1.673,1.568a1.553,1.553,0,0,0-1.441-.742,1.639,1.639,0,0,0-1.646,1.125,4.231,4.231,0,0,0-.232,1.514,2.4,2.4,0,0,0,.78,2.042,1.792,1.792,0,0,0,1.1.344,1.593,1.593,0,0,0,1.4-.7,3.686,3.686,0,0,0,.039-3.579Z" fill="#002a6a"/>
      <path id="Path_25630" data-name="Path 25630" d="M493.338,438.807a2.42,2.42,0,0,1,.971.75,2.378,2.378,0,0,1,.474,1.07,7.394,7.394,0,0,1,.077,1.232l-.015,5.254h-2.234V441.8a1.742,1.742,0,0,0-.153-.78,1.086,1.086,0,0,0-1.07-.581,1.254,1.254,0,0,0-1.247.749,2.358,2.358,0,0,0-.176.956v4.964h-2.2v-4.964a2.786,2.786,0,0,0-.153-1.078,1.067,1.067,0,0,0-1.078-.6,1.286,1.286,0,0,0-1.254.6,2.316,2.316,0,0,0-.176,1.025v5.017H482.9v-8.321h2.118v1.216a3.49,3.49,0,0,1,.765-.925,3.023,3.023,0,0,1,3.189-.069,2.446,2.446,0,0,1,.719,1,2.771,2.771,0,0,1,1.063-1.079,3.249,3.249,0,0,1,1.5-.344A2.9,2.9,0,0,1,493.338,438.807Z" fill="#002a6a"/>
      <path id="Path_25631" data-name="Path 25631" d="M502.3,438.945a3.393,3.393,0,0,1,1.441,1.234,4.112,4.112,0,0,1,.664,1.723,10.83,10.83,0,0,1,.072,1.655H498.4a2,2,0,0,0,.872,1.759,2.21,2.21,0,0,0,1.2.313,1.693,1.693,0,0,0,1.66-.956h2.225a2.724,2.724,0,0,1-.808,1.507,4.052,4.052,0,0,1-3.137,1.216,4.543,4.543,0,0,1-2.936-1.026,4.039,4.039,0,0,1-1.272-3.337,4.515,4.515,0,0,1,1.148-3.322,4.017,4.017,0,0,1,2.981-1.156A4.755,4.755,0,0,1,502.3,438.945Zm-3.261,1.883a2.267,2.267,0,0,0-.581,1.291h3.756a1.82,1.82,0,0,0-.581-1.317,1.909,1.909,0,0,0-1.293-.45A1.731,1.731,0,0,0,499.035,440.828Z" fill="#002a6a"/>
      <path id="Path_25632" data-name="Path 25632" d="M512.3,439.255a2.756,2.756,0,0,1,.819,2.244v5.614h-2.234v-5.071a2.333,2.333,0,0,0-.174-1.009,1.227,1.227,0,0,0-1.215-.643,1.507,1.507,0,0,0-1.511.941,3.267,3.267,0,0,0-.212,1.27v4.512h-2.18v-8.321H507.7v1.216a3.676,3.676,0,0,1,.792-.925,2.74,2.74,0,0,1,1.7-.505A3.192,3.192,0,0,1,512.3,439.255Z" fill="#002a6a"/>
      <path id="Path_25633" data-name="Path 25633" d="M514.286,440.406v-1.553h1.162v-2.325H517.6v2.325h1.354v1.553H517.6v4.4a.989.989,0,0,0,.13.638,1.421,1.421,0,0,0,.8.127c.067,0,.137,0,.211,0s.146-.007.218-.012v1.629l-1.033.039a2.773,2.773,0,0,1-2.111-.536,1.6,1.6,0,0,1-.367-1.155v-5.131Z" fill="#002a6a"/>
    </g>
  </g>
</svg>
