<?xml version="1.0" encoding="utf-8"?>
<!-- Generator: Adobe Illustrator 16.0.0, SVG Export Plug-In . SVG Version: 6.00 Build 0)  -->
<!DOCTYPE svg PUBLIC "-//W3C//DTD SVG 1.1//EN" "http://www.w3.org/Graphics/SVG/1.1/DTD/svg11.dtd">
<svg version="1.1" id="Layer_1" xmlns="http://www.w3.org/2000/svg" xmlns:xlink="http://www.w3.org/1999/xlink" x="0px" y="0px"
	 width="296px" height="179px" viewBox="0 0 296 179" enable-background="new 0 0 296 179" xml:space="preserve">
<g>
	<defs>
		<rect id="SVGID_1_" x="-164" y="-98.328" width="612" height="379.328"/>
	</defs>
	<clipPath id="SVGID_2_">
		<use xlink:href="#SVGID_1_"  overflow="visible"/>
	</clipPath>
	<g clip-path="url(#SVGID_2_)">
		<path fill="#DADDDF" d="M204.098,49.032c-50.22,19.082-62.052,65.472-62.052,65.472c2.291-58.102,48.783-82.874,70.939-91.417
			l0.009-0.003c3.804-1.467,11.561-3.785,11.561-3.785c3.837,39.792,26.033,75.374,58.183,95.622
			c0.625,0.385,0.995,0.604,0.995,0.604c-0.987-0.144-1.921-0.34-2.882-0.511h-0.001c-34.661-3.794-58.175-29.032-68.453-61.838
			C211.301,49.679,207.522,47.73,204.098,49.032"/>
		<path fill="#99A6AB" d="M205.854,56.055c8.453,48.417,55.163,59.47,55.163,59.47c-36.101,0-55.007-24.836-61.387-35.337
			c-1.654-2.722-4.976-3.986-7.985-2.947c-24.506,8.445-42.755,28.517-42.755,28.517C164.553,70.095,205.854,56.055,205.854,56.055"
			/>
		<path fill="#627B82" d="M157.703,101.221c-2.178,1.925-3.876,3.556-5.021,4.696c3.22,4.769,10.167,10.837,24.815,9.388
			C177.497,115.305,162.629,113.78,157.703,101.221"/>
		<path fill="#627B82" d="M181.093,84.943c-3.944,2.055-7.622,4.312-10.953,6.586c4.411,9.197,17.356,27.093,48.618,23.548
			C218.758,115.077,189.351,111.715,181.093,84.943"/>
		<path fill="#627B82" d="M167.617,93.301c-2.842,2.049-5.388,4.063-7.583,5.911c3.415,6.752,12.734,18.44,35.482,15.985
			C195.517,115.197,173.234,112.775,167.617,93.301"/>
		<path fill="#627B82" d="M230.247,111.713c-10.174-4.072-24.342-12.307-32.873-28.181c-1.363-2.537-4.344-3.796-7.035-2.768
			c-2.495,0.953-4.917,2.023-7.256,3.172c5.045,9.388,21.482,32.789,57.109,31.525C236.648,114.431,233.342,113.155,230.247,111.713
			"/>
		<path fill="#DADDDF" d="M79.902,49.032c50.219,19.082,62.052,65.472,62.052,65.472c-2.291-58.102-48.783-82.874-70.94-91.417
			l-0.008-0.003c-3.805-1.467-11.561-3.785-11.561-3.785c-3.836,39.792-26.033,75.374-58.183,95.622
			c-0.624,0.385-0.995,0.604-0.995,0.604c0.987-0.144,1.922-0.34,2.882-0.511H3.15c34.661-3.794,58.175-29.032,68.453-61.838
			C72.698,49.679,76.478,47.73,79.902,49.032"/>
		<path fill="#99A6AB" d="M78.146,56.055c-8.453,48.417-55.164,59.47-55.164,59.47c36.101,0,55.008-24.836,61.388-35.337
			c1.653-2.722,4.975-3.986,7.985-2.947c24.506,8.445,42.755,28.517,42.755,28.517C119.446,70.095,78.146,56.055,78.146,56.055"/>
		<path fill="#627B82" d="M126.296,101.221c2.179,1.925,3.877,3.556,5.021,4.696c-3.218,4.769-10.167,10.837-24.814,9.388
			C106.503,115.305,121.372,113.78,126.296,101.221"/>
		<path fill="#627B82" d="M102.908,84.943c3.944,2.055,7.622,4.312,10.953,6.586c-4.411,9.197-17.357,27.093-48.618,23.548
			C65.243,115.077,94.65,111.715,102.908,84.943"/>
		<path fill="#627B82" d="M116.383,93.301c2.842,2.049,5.388,4.063,7.583,5.911c-3.415,6.752-12.734,18.44-35.482,15.985
			C88.484,115.197,110.766,112.775,116.383,93.301"/>
		<path fill="#627B82" d="M53.753,111.713c10.174-4.072,24.341-12.307,32.873-28.181c1.364-2.537,4.344-3.796,7.036-2.768
			c2.494,0.953,4.917,2.023,7.255,3.172c-5.044,9.388-21.483,32.789-57.11,31.525C47.352,114.431,50.659,113.155,53.753,111.713"/>
		<path fill="#99A6AB" d="M179.349,37.275c-5.971-4.295-11.958-7.641-18.218-9.896c-3.157-1.04-6.279-2.028-9.512-2.498
			c-3.194-0.586-6.431-0.907-9.672-0.838c-3.244-0.081-6.478,0.26-9.676,0.83c-3.23,0.478-6.357,1.457-9.513,2.501
			c-6.262,2.256-12.248,5.611-18.208,9.916l-0.408-0.336c4.546-5.589,10.328-10.184,16.836-13.323
			c6.502-3.15,13.725-4.814,20.968-4.859c7.243,0.04,14.465,1.703,20.969,4.851c6.51,3.136,12.293,7.729,16.841,13.317
			L179.349,37.275z"/>
		<path fill="#DADDDF" d="M51.174,161.063H31.442v-2.002c0.581-0.051,1.295-0.136,2.143-0.255c0.845-0.121,1.423-0.248,1.732-0.386
			c0.631-0.255,1.086-0.607,1.358-1.052c0.274-0.445,0.411-1.008,0.411-1.693v-27.198l-12.522,31.996h-3.231
			c-0.156-0.563-0.534-1.683-1.142-3.359c-0.607-1.677-1.1-3.021-1.477-4.03l-9.21-25.016v22.142c0,2.123,0.141,3.734,0.423,4.836
			c0.282,1.104,0.741,1.913,1.372,2.425c0.428,0.36,1.193,0.702,2.296,1.028c1.106,0.326,1.878,0.512,2.323,0.563v2.002H0.267
			v-2.002c0.428-0.051,1.125-0.165,2.09-0.345c0.966-0.179,1.758-0.493,2.373-0.937c0.685-0.479,1.147-1.288,1.387-2.426
			c0.239-1.137,0.36-2.757,0.36-4.86v-18.038c0-1.096-0.138-2.007-0.41-2.734c-0.275-0.726-0.685-1.304-1.232-1.731
			c-0.685-0.53-1.388-0.872-2.104-1.026c-0.719-0.155-1.448-0.256-2.182-0.308v-2.001h16.778l8.974,23.989l7.563-19.47
			c0.258-0.718,0.505-1.576,0.744-2.566c0.24-0.994,0.369-1.646,0.386-1.953h16.129v2.001c-0.549,0.033-1.122,0.102-1.72,0.204
			c-0.6,0.104-1.171,0.24-1.72,0.41c-0.666,0.225-1.108,0.573-1.322,1.053c-0.214,0.48-0.32,1.011-0.32,1.591v25.789
			c0,0.614,0.106,1.132,0.32,1.552c0.214,0.417,0.656,0.783,1.322,1.088c0.343,0.156,0.904,0.302,1.681,0.438
			c0.777,0.136,1.382,0.229,1.81,0.28V161.063z"/>
		<path fill="#DADDDF" d="M85.084,133.94h-1.951c-0.496-1.38-1.351-2.775-2.566-4.189c-1.214-1.414-2.419-2.25-3.617-2.505
			c-0.512-0.121-1.227-0.193-2.143-0.22c-0.913-0.023-1.671-0.038-2.269-0.038h-5.286v14.034h3.746c0.94,0,1.795-0.108,2.565-0.333
			c0.771-0.221,1.47-0.647,2.104-1.281c0.394-0.395,0.792-1.086,1.193-2.077c0.404-0.994,0.663-1.857,0.783-2.593h1.95v15.188h-1.95
			c-0.102-0.716-0.363-1.621-0.783-2.707c-0.418-1.086-0.816-1.834-1.193-2.244c-0.563-0.617-1.231-1.04-2.001-1.271
			c-0.77-0.231-1.66-0.346-2.668-0.346h-3.746v10.493c0,1.097,0.08,1.963,0.243,2.605c0.162,0.64,0.466,1.133,0.911,1.474
			c0.428,0.325,1.013,0.539,1.759,0.645c0.743,0.101,1.756,0.152,3.039,0.152c0.6,0,1.317-0.01,2.155-0.026
			c0.838-0.018,1.574-0.068,2.208-0.153c0.717-0.086,1.39-0.213,2.014-0.384c0.625-0.172,1.091-0.42,1.397-0.745
			c0.821-0.839,1.744-2.117,2.772-3.836c1.025-1.718,1.701-3.006,2.026-3.861h1.873l-0.692,11.34H52.807v-2.002
			c0.479-0.033,1.128-0.101,1.949-0.204c0.821-0.104,1.404-0.223,1.746-0.358c0.649-0.275,1.086-0.62,1.308-1.039
			c0.223-0.418,0.335-0.954,0.335-1.604V130.17c0-0.617-0.095-1.125-0.285-1.525c-0.187-0.402-0.641-0.767-1.358-1.091
			c-0.446-0.207-1.071-0.393-1.873-0.565c-0.804-0.171-1.411-0.281-1.822-0.333v-2.001h32.278V133.94z"/>
		<path fill="#DADDDF" d="M130.387,161.063h-13.972c-2.41-3.695-4.415-6.636-6.011-8.826c-1.598-2.188-3.586-4.72-5.962-7.594
			h-1.406v11.059c0,0.614,0.114,1.138,0.345,1.564c0.233,0.428,0.673,0.788,1.322,1.077c0.325,0.138,0.835,0.279,1.527,0.424
			c0.693,0.147,1.288,0.244,1.784,0.294v2.002H88.59v-2.002c0.496-0.05,1.15-0.123,1.963-0.217c0.812-0.093,1.39-0.209,1.733-0.346
			c0.648-0.274,1.086-0.619,1.307-1.039c0.223-0.418,0.335-0.953,0.335-1.604v-25.684c0-0.617-0.095-1.13-0.285-1.54
			c-0.187-0.41-0.641-0.771-1.357-1.076c-0.549-0.224-1.196-0.412-1.939-0.567c-0.744-0.151-1.329-0.264-1.757-0.333v-2.001h20.425
			c4.567,0,8.034,0.714,10.402,2.144c2.372,1.427,3.555,3.588,3.555,6.479c0,2.548-0.731,4.597-2.194,6.145
			c-1.463,1.55-3.69,2.76-6.683,3.632c1.163,1.504,2.519,3.251,4.067,5.232c1.547,1.984,3.16,4.015,4.836,6.081
			c0.53,0.668,1.252,1.484,2.167,2.451c0.916,0.967,1.723,1.563,2.425,1.783c0.394,0.12,0.894,0.224,1.502,0.309
			c0.607,0.085,1.039,0.137,1.295,0.152V161.063z M112.914,133.994c0-2.43-0.68-4.204-2.041-5.324
			c-1.358-1.12-3.296-1.683-5.811-1.683h-2.026v15.242h1.951c2.514,0,4.463-0.658,5.85-1.974
			C112.222,138.938,112.914,136.851,112.914,133.994"/>
		<path fill="#DADDDF" d="M147.465,162.063c-2.67,0-5.167-0.433-7.492-1.297c-2.328-0.864-4.354-2.121-6.084-3.765
			c-1.693-1.609-3.027-3.601-4.001-5.972c-0.974-2.374-1.463-4.981-1.463-7.825c0-2.826,0.491-5.443,1.476-7.847
			c0.983-2.408,2.363-4.492,4.144-6.26c1.744-1.729,3.838-3.067,6.285-4.02c2.447-0.951,5.063-1.426,7.852-1.426
			c2.019,0,3.858,0.247,5.518,0.744c1.659,0.496,3.061,1.053,4.208,1.667l1.591-1.41h2.232l0.231,13.291h-2.26
			c-1.28-4.063-2.818-7.045-4.611-8.947c-1.795-1.903-3.981-2.856-6.562-2.856c-3.212,0-5.655,1.417-7.33,4.255
			c-1.674,2.836-2.512,6.814-2.512,11.937c0,2.895,0.286,5.366,0.86,7.414c0.57,2.048,1.319,3.698,2.242,4.946
			c0.991,1.303,2.162,2.26,3.511,2.866c1.351,0.608,2.845,0.911,4.486,0.911c2.391,0,4.521-0.647,6.393-1.948
			c1.873-1.3,3.576-3.268,5.113-5.902l2.206,1.336c-0.733,1.504-1.571,2.851-2.515,4.04c-0.939,1.189-2.025,2.211-3.258,3.064
			c-1.351,0.943-2.845,1.678-4.477,2.206C151.617,161.799,149.688,162.063,147.465,162.063"/>
		<path fill="#DADDDF" d="M205.776,126.654c-0.495,0.053-1.21,0.168-2.143,0.349c-0.931,0.179-1.715,0.491-2.347,0.935
			c-0.651,0.429-1.108,1.197-1.373,2.312c-0.265,1.109-0.398,2.778-0.398,5.002V148.8c0,3.984-1.351,7.191-4.053,9.621
			c-2.703,2.428-6.279,3.643-10.726,3.643c-5.185,0-9.195-1.171-12.035-3.514c-2.838-2.345-4.259-5.611-4.259-9.804V130.12
			c0-0.602-0.114-1.112-0.345-1.54c-0.231-0.429-0.673-0.813-1.322-1.154c-0.444-0.224-0.993-0.404-1.642-0.54
			c-0.651-0.136-1.181-0.231-1.592-0.282v-1.95h19.091v1.95c-0.549,0.034-1.104,0.099-1.669,0.193
			c-0.563,0.094-1.138,0.234-1.718,0.422c-0.651,0.207-1.089,0.549-1.31,1.028c-0.223,0.478-0.333,1.017-0.333,1.614v18.372
			c0,3.609,0.795,6.236,2.384,7.878c1.586,1.644,3.894,2.465,6.916,2.465c2.974,0,5.306-0.909,6.997-2.722
			c1.69-1.812,2.536-4.481,2.536-8.005v-12.341c0-2.19-0.15-3.83-0.449-4.916c-0.299-1.085-0.758-1.868-1.373-2.346
			c-0.443-0.377-1.219-0.72-2.322-1.028c-1.103-0.306-1.878-0.496-2.322-0.564v-2.001h15.806V126.654z"/>
		<path fill="#DADDDF" d="M247.332,161.063H233.36c-2.41-3.695-4.414-6.636-6.011-8.826c-1.599-2.188-3.586-4.72-5.962-7.594h-1.406
			v11.059c0,0.614,0.114,1.138,0.345,1.564c0.233,0.428,0.673,0.788,1.322,1.077c0.325,0.138,0.835,0.279,1.527,0.424
			c0.692,0.147,1.287,0.244,1.783,0.294v2.002h-19.423v-2.002c0.495-0.05,1.148-0.123,1.963-0.217
			c0.812-0.093,1.39-0.209,1.732-0.346c0.649-0.274,1.086-0.619,1.307-1.039c0.224-0.418,0.335-0.953,0.335-1.604v-25.684
			c0-0.617-0.095-1.13-0.285-1.54c-0.186-0.41-0.64-0.771-1.356-1.076c-0.55-0.224-1.195-0.412-1.939-0.567
			c-0.743-0.151-1.329-0.264-1.756-0.333v-2.001h20.424c4.567,0,8.034,0.714,10.403,2.144c2.371,1.427,3.554,3.588,3.554,6.479
			c0,2.548-0.73,4.597-2.193,6.145c-1.463,1.55-3.69,2.76-6.684,3.632c1.164,1.504,2.52,3.251,4.067,5.232
			c1.547,1.984,3.16,4.015,4.837,6.081c0.529,0.668,1.251,1.484,2.167,2.451s1.723,1.563,2.425,1.783
			c0.394,0.12,0.894,0.224,1.501,0.309s1.04,0.137,1.295,0.152V161.063z M229.859,133.994c0-2.43-0.68-4.204-2.041-5.324
			c-1.357-1.12-3.296-1.683-5.811-1.683h-2.026v15.242h1.951c2.514,0,4.463-0.658,5.85-1.974
			C229.167,138.938,229.859,136.851,229.859,133.994"/>
		<path fill="#DADDDF" d="M283.732,126.654c-0.615,0.068-1.179,0.182-1.691,0.333c-0.51,0.155-0.998,0.369-1.46,0.643
			c-0.733,0.41-1.387,0.937-1.958,1.579c-0.573,0.641-1.132,1.354-1.679,2.142c-1.11,1.626-2.276,3.393-3.498,5.299
			c-1.22,1.907-2.549,4.006-3.983,6.301c-0.938,1.451-1.515,2.569-1.729,3.348c-0.214,0.777-0.32,2.126-0.32,4.04v5.157
			c0,0.616,0.116,1.153,0.347,1.617c0.231,0.463,0.671,0.84,1.322,1.129c0.289,0.12,0.906,0.278,1.846,0.476
			c0.94,0.197,1.633,0.311,2.08,0.344v2.002h-20.298v-2.002c0.48-0.033,1.167-0.101,2.067-0.204
			c0.896-0.103,1.525-0.223,1.885-0.358c0.632-0.275,1.064-0.637,1.295-1.092c0.231-0.45,0.348-1.006,0.348-1.653v-6.416
			c0-0.564-0.011-1.061-0.026-1.487c-0.018-0.427-0.075-0.788-0.18-1.079c-0.119-0.323-0.323-0.737-0.615-1.244
			c-0.291-0.505-0.668-1.157-1.13-1.963c-1.316-2.307-2.592-4.499-3.821-6.568c-1.231-2.069-2.405-4.012-3.516-5.823
			c-0.583-0.941-1.168-1.699-1.759-2.272c-0.59-0.572-1.192-1.04-1.808-1.396c-0.464-0.258-1.022-0.455-1.681-0.591
			c-0.658-0.14-1.254-0.225-1.783-0.259v-2.001h20.859v2.001c-1.91,0.053-3.197,0.186-3.863,0.398
			c-0.665,0.214-0.998,0.508-0.998,0.885c0,0.19,0.124,0.564,0.371,1.13c0.248,0.564,0.69,1.437,1.322,2.614
			c0.58,1.113,1.431,2.641,2.551,4.589s2.466,4.23,4.04,6.844c3.243-5.144,5.474-8.735,6.686-10.778
			c1.213-2.041,1.82-3.295,1.82-3.756c0-0.581-0.357-1.026-1.072-1.334c-0.711-0.31-1.868-0.507-3.467-0.592v-2.001h13.496V126.654z
			"/>
	</g>
</g>
</svg>
