<svg width="272" height="80" viewBox="0 0 272 80" fill="none" xmlns="http://www.w3.org/2000/svg">
<g clip-path="url(#clip0_4_178)">
<path d="M248.971 77.9238C248.97 78.3328 248.847 78.7324 248.619 79.0719C248.391 79.4114 248.068 79.6757 247.689 79.8314C247.311 79.987 246.896 80.0271 246.495 79.9465C246.094 79.8659 245.726 79.6683 245.437 79.3786C245.148 79.0888 244.952 78.72 244.872 78.3187C244.793 77.9174 244.835 77.5016 244.991 77.1237C245.148 76.7459 245.413 76.423 245.753 76.1959C246.094 75.9687 246.493 75.8475 246.902 75.8475C247.174 75.8475 247.444 75.9013 247.695 76.0057C247.947 76.1101 248.175 76.2631 248.367 76.456C248.56 76.6489 248.712 76.8778 248.816 77.1297C248.919 77.3816 248.972 77.6514 248.971 77.9238Z" fill="#F6780D"/>
<path d="M246.159 0.786523L247.452 0.284598V2.89383C247.452 3.55616 247.762 3.90155 248.268 3.90155C248.744 3.90155 248.96 3.5277 248.96 2.89383V0.442421L250.253 0V2.98696C250.278 3.25205 250.248 3.51956 250.163 3.77206C250.079 4.02456 249.942 4.25638 249.761 4.4524C249.581 4.64843 249.362 4.80426 249.117 4.90973C248.873 5.0152 248.609 5.06794 248.343 5.06452C247.816 5.06424 247.305 4.88753 246.891 4.5626C246.517 4.85068 246.068 5.02493 245.597 5.06452C244.757 5.1305 243.368 4.74888 243.368 2.58336V1.14097L244.695 0.663627V2.90029C244.695 3.56262 245.004 3.90802 245.471 3.90802C245.938 3.90802 246.16 3.53416 246.16 2.90029L246.159 0.786523Z" fill="#F6780D"/>
<path d="M240.988 40.1889C240.98 38.6006 241.602 37.0739 242.716 35.943C243.831 34.812 245.348 34.1688 246.936 34.1541V36.819C246.054 36.8326 245.214 37.1946 244.598 37.826C243.982 38.4573 243.641 39.3068 243.649 40.1889C243.644 41.0696 243.986 41.9167 244.601 42.5465C245.217 43.1762 246.056 43.5377 246.936 43.5523V46.2133C245.349 46.1986 243.833 45.5561 242.718 44.4263C241.604 43.2964 240.981 41.7711 240.988 40.1837V40.1889Z" fill="#FF9D10"/>
<path d="M237.666 40.1889H239.303C239.296 42.2228 240.097 44.1762 241.528 45.6205C242.96 47.0649 244.905 47.8824 246.938 47.8937C248.974 47.8858 250.922 47.0698 252.356 45.625C253.791 44.1802 254.592 42.2249 254.586 40.1889H256.224C256.231 42.6605 255.256 45.0336 253.514 46.7862C251.772 48.5389 249.405 49.5277 246.935 49.5353C244.468 49.5223 242.106 48.531 240.369 46.779C238.631 45.0269 237.659 42.6569 237.666 40.1889Z" fill="#F6780D"/>
<path d="M246.975 26.1647H246.931V29.2694H246.975C248.408 29.2694 249.827 29.5518 251.151 30.1005C252.475 30.6492 253.678 31.4534 254.692 32.4673C255.705 33.4811 256.509 34.6847 257.058 36.0094C257.606 37.334 257.888 38.7538 257.888 40.1876C257.888 41.6214 257.606 43.0411 257.058 44.3658C256.509 45.6904 255.705 46.894 254.692 47.9079C253.678 48.9217 252.475 49.7259 251.151 50.2746C249.827 50.8233 248.408 51.1057 246.975 51.1057H246.931V54.2104H246.975C250.691 54.2104 254.256 52.7333 256.884 50.1042C259.512 47.475 260.989 43.909 260.989 40.1908C260.989 36.4726 259.512 32.9066 256.884 30.2774C254.256 27.6483 250.691 26.1712 246.975 26.1712V26.1647Z" fill="#FF9D10"/>
<path d="M246.932 54.2026C243.239 54.1671 239.709 52.6746 237.11 50.0495C234.511 47.4244 233.053 43.8791 233.053 40.1843C233.053 36.4896 234.511 32.9442 237.11 30.3192C239.709 27.6941 243.239 26.2015 246.932 26.166V21.9514C242.098 21.9514 237.462 23.8725 234.044 27.2919C230.626 30.7114 228.706 35.3491 228.706 40.185C228.706 45.0208 230.626 49.6586 234.044 53.0781C237.462 56.4975 242.098 58.4185 246.932 58.4185V54.2026Z" fill="#006CBB"/>
<path d="M246.94 59.575C249.484 59.5792 252.005 59.0797 254.356 58.1053C256.706 57.1308 258.841 55.7007 260.638 53.8974C262.44 52.0983 263.869 49.9608 264.844 47.6077C265.818 45.2545 266.318 42.732 266.316 40.185C266.319 37.6378 265.819 35.1152 264.844 32.762C263.87 30.4087 262.44 28.2713 260.638 26.4726C258.842 24.6691 256.707 23.2388 254.356 22.2641C252.005 21.2895 249.484 20.7897 246.94 20.7936V19.5621C252.405 19.5645 257.645 21.7384 261.508 25.6055C265.371 29.4727 267.54 34.7166 267.539 40.1837C267.54 42.8909 267.008 45.5717 265.973 48.0731C264.938 50.5746 263.421 52.8477 261.509 54.7626C259.596 56.6775 257.325 58.1967 254.825 59.2336C252.325 60.2704 249.646 60.8044 246.94 60.8053V59.5712V59.575Z" fill="#006CBB"/>
<path d="M246.935 62.7897C249.904 62.7961 252.845 62.2145 255.589 61.0784C258.332 59.9423 260.824 58.2742 262.92 56.1703C265.022 54.0748 266.689 51.5839 267.825 48.8411C268.962 46.0983 269.544 43.1578 269.539 40.1889C269.545 37.2192 268.964 34.2776 267.828 31.534C266.691 28.7904 265.023 26.299 262.92 24.2036C260.823 22.101 258.331 20.4338 255.588 19.298C252.844 18.1622 249.904 17.5802 246.935 17.5855V15.1276C250.225 15.1266 253.484 15.774 256.525 17.033C259.566 18.292 262.329 20.1378 264.657 22.4651C266.984 24.7924 268.831 27.5556 270.091 30.5969C271.351 33.6381 272 36.8979 272.001 40.1902C271.999 46.8387 269.357 53.2139 264.656 57.9136C259.955 62.6132 253.58 65.2522 246.935 65.2502V62.7923V62.7897Z" fill="#00A1ED"/>
<path d="M216.196 40.1889C216.197 36.1519 216.993 32.1547 218.538 28.4255C220.084 24.6962 222.348 21.3081 225.202 18.4546C228.057 15.601 231.445 13.338 235.174 11.7947C238.903 10.2515 242.899 9.4582 246.935 9.46024V15.6049C243.704 15.5999 240.505 16.2331 237.52 17.4683C234.535 18.7035 231.824 20.5163 229.541 22.8026C227.256 25.0831 225.444 27.7933 224.209 30.7771C222.975 33.761 222.343 36.9596 222.349 40.1889C222.343 43.4177 222.976 46.6158 224.21 49.5991C225.444 52.5825 227.256 55.2922 229.541 57.5725C231.824 59.8591 234.535 61.6724 237.52 62.9084C240.505 64.1444 243.704 64.7789 246.935 64.7754V70.9201C242.899 70.9221 238.903 70.1288 235.174 68.5855C231.445 67.0421 228.057 64.779 225.202 61.9253C222.348 59.0716 220.083 55.6833 218.538 51.954C216.993 48.2246 216.197 44.2259 216.196 40.1889Z" fill="#00A1ED"/>
<path d="M0.258626 63.2877H1.18319V66.6511H1.31251L4.84654 63.2877H6.17715L2.33275 66.8309L6.35818 71.0585H5.01336L1.31121 67.1078H1.18189V71.0585H0.257324L0.258626 63.2877Z" fill="#006CBB" stroke="#006CBB" stroke-width="0.4" stroke-miterlimit="10"/>
<path d="M14.9767 63.2877H15.8431L19.147 71.0585H18.0711L17.2823 69.1491H13.403L12.6013 71.0585H11.5565L14.9767 63.2877ZM15.3957 64.4753H15.3724L13.756 68.2927H16.9319L15.3957 64.4753Z" fill="#006CBB" stroke="#006CBB" stroke-width="0.4" stroke-miterlimit="10"/>
<path d="M21.8677 67.1453C22.1642 67.1448 22.4543 67.2323 22.7011 67.3968C22.9479 67.5613 23.1405 67.7954 23.2542 68.0694C23.368 68.3434 23.398 68.645 23.3404 68.936C23.2827 69.2271 23.1401 69.4944 22.9304 69.7043C22.7208 69.9142 22.4537 70.0572 22.1628 70.1151C21.8719 70.173 21.5704 70.1433 21.2964 70.0297C21.0224 69.9161 20.7883 69.7237 20.6237 69.4769C20.459 69.2301 20.3713 68.94 20.3715 68.6433C20.3715 68.2463 20.5291 67.8654 20.8097 67.5845C21.0902 67.3036 21.4707 67.1457 21.8677 67.1453Z" fill="#F6780D"/>
<path d="M8.82671 67.1453C9.12329 67.1448 9.41337 67.2323 9.6602 67.3968C9.90703 67.5613 10.0995 67.7954 10.2133 68.0694C10.3271 68.3434 10.3571 68.645 10.2994 68.936C10.2418 69.2271 10.0991 69.4944 9.88949 69.7043C9.67987 69.9142 9.41273 70.0572 9.12185 70.1151C8.83098 70.173 8.52946 70.1433 8.25548 70.0297C7.9815 69.9161 7.74736 69.7237 7.58272 69.4769C7.41808 69.2301 7.33034 68.94 7.3306 68.6433C7.33043 68.4467 7.369 68.2519 7.44411 68.0702C7.51922 67.8884 7.62939 67.7233 7.76833 67.5842C7.90728 67.445 8.07228 67.3347 8.25388 67.2594C8.43548 67.1841 8.63013 67.1453 8.82671 67.1453Z" fill="#F6780D"/>
<path d="M30.4021 64.8892C30.1758 64.5904 29.8822 64.3492 29.5451 64.1854C29.2081 64.0215 28.8371 63.9396 28.4625 63.9462C28.0557 63.9625 27.6562 64.059 27.2868 64.2302C26.9174 64.4014 26.5855 64.6439 26.3101 64.9439C26.0347 65.2438 25.8213 65.5951 25.682 65.9778C25.5428 66.3605 25.4804 66.7669 25.4987 67.1738C25.4713 67.5826 25.5272 67.9927 25.6631 68.3792C25.799 68.7657 26.012 69.1205 26.2892 69.4221C26.5664 69.7237 26.902 69.9659 27.2756 70.1337C27.6492 70.3016 28.053 70.3918 28.4625 70.3988C28.8964 70.4089 29.3265 70.3157 29.7175 70.1271C30.1084 69.9384 30.449 69.6595 30.7112 69.3134L31.4004 69.8943C31.0602 70.3449 30.6144 70.705 30.1023 70.9425C29.5901 71.1801 29.0274 71.2879 28.4637 71.2564C27.3992 71.2296 26.3872 70.7877 25.6438 70.025C24.9003 69.2623 24.4842 68.2391 24.4842 67.1738C24.4842 66.1084 24.9003 65.0853 25.6438 64.3225C26.3872 63.5598 27.3992 63.1179 28.4637 63.0911C28.9841 63.0675 29.5029 63.1652 29.9791 63.3764C30.4552 63.5877 30.8759 63.9067 31.2077 64.3084L30.4021 64.8892Z" fill="#006CBB" stroke="#006CBB" stroke-width="0.4" stroke-miterlimit="10"/>
<path d="M36.1887 63.2877H37.0525L40.359 71.0585H39.2793L38.4905 69.1491H34.6008L33.8017 71.0585H32.7594L36.1887 63.2877ZM36.6038 64.4753H36.5805L34.9655 68.2927H38.1387L36.6038 64.4753Z" fill="#006CBB" stroke="#006CBB" stroke-width="0.4" stroke-miterlimit="10"/>
<path d="M42.4926 63.2877H44.4853C45.9879 63.2877 47.5784 63.5089 47.5784 65.4287C47.5859 65.956 47.3874 66.4655 47.0252 66.8487C46.6629 67.2318 46.1655 67.4585 45.6387 67.4803L47.837 71.0598H46.7081L44.603 67.567H43.4133V71.0598H42.4887L42.4926 63.2877ZM43.4172 66.7132H44.2435C45.2676 66.7132 46.5918 66.7132 46.5918 65.4287C46.5918 64.3097 45.618 64.1467 44.7167 64.1467H43.4172V66.7132Z" fill="#006CBB" stroke="#006CBB" stroke-width="0.4" stroke-miterlimit="10"/>
<path d="M51.2339 63.2877H56.1167V64.1467H52.1598V66.5813H55.8555V67.4376H52.1598V70.1995H56.3133V71.0585H51.2339V63.2877Z" fill="#006CBB" stroke="#006CBB" stroke-width="0.4" stroke-miterlimit="10"/>
<path d="M63.3529 67.9344C63.2998 68.3244 63.3308 68.7213 63.4438 69.0983C63.5567 69.4754 63.7491 69.8239 64.0078 70.1204C64.2666 70.4169 64.5858 70.6546 64.944 70.8175C65.3022 70.9803 65.6911 71.0646 66.0846 71.0646C66.4781 71.0646 66.867 70.9803 67.2252 70.8175C67.5834 70.6546 67.9026 70.4169 68.1614 70.1204C68.4202 69.8239 68.6125 69.4754 68.7254 69.0983C68.8384 68.7213 68.8694 68.3244 68.8163 67.9344V64.8297H66.062C65.6757 64.8422 65.2962 64.9341 64.947 65.0998C64.5978 65.2654 64.2864 65.5012 64.0323 65.7925C63.7782 66.0837 63.5867 66.4242 63.4698 66.7927C63.3529 67.1612 63.3131 67.5498 63.3529 67.9344ZM68.0507 67.9344C68.0507 69.0288 67.5025 70.4233 66.062 70.4233C64.6874 70.4233 64.1055 69.0547 64.1055 67.9344C64.1055 66.8141 64.7055 65.4675 66.062 65.4675H68.0507V67.9344Z" fill="#464749" stroke="#464749" stroke-width="0.3" stroke-miterlimit="10"/>
<path d="M68.5641 62.1765H67.7482V63.0536H68.5641V62.1765Z" fill="#464749" stroke="#464749" stroke-width="0.3" stroke-miterlimit="10"/>
<path d="M65.7865 62.1765H64.9654V63.0536H65.7865V62.1765Z" fill="#464749" stroke="#464749" stroke-width="0.3" stroke-miterlimit="10"/>
<path d="M98.8188 72.9342H98.0029V73.8191H98.8188V72.9342Z" fill="#464749" stroke="#464749" stroke-width="0.3" stroke-miterlimit="10"/>
<path d="M112.976 62.1442H112.152V63.0316H112.976V62.1442Z" fill="#464749" stroke="#464749" stroke-width="0.3" stroke-miterlimit="10"/>
<path d="M110.184 62.1442H109.364V63.0316H110.184V62.1442Z" fill="#464749" stroke="#464749" stroke-width="0.3" stroke-miterlimit="10"/>
<path d="M137.466 68.7895C137.491 69.0019 137.469 69.2173 137.401 69.4201C137.332 69.6229 137.22 69.808 137.071 69.9619C136.923 70.1158 136.742 70.2347 136.542 70.3101C136.342 70.3854 136.127 70.4153 135.914 70.3974H131.582C131.367 70.4033 131.152 70.3661 130.952 70.2881C130.751 70.2101 130.567 70.0928 130.413 69.943C130.258 69.7933 130.134 69.6142 130.049 69.4161C129.964 69.218 129.92 69.005 129.918 68.7895C129.944 68.032 129.67 67.2948 129.153 66.7399C128.637 66.185 127.922 65.8576 127.165 65.8297C126.406 65.8702 125.693 66.2076 125.181 66.7691C124.669 67.3306 124.398 68.0711 124.426 68.8309C124.43 69.0372 124.393 69.2421 124.316 69.4336C124.239 69.625 124.124 69.799 123.979 69.9452C123.833 70.0914 123.66 70.2068 123.469 70.2845C123.278 70.3622 123.073 70.4006 122.867 70.3974H114.711C114.462 70.4047 114.215 70.3583 113.986 70.2614C113.757 70.1645 113.551 70.0193 113.383 69.8358C113.215 69.6523 113.089 69.4347 113.013 69.1979C112.936 68.9611 112.912 68.7106 112.941 68.4635V65.6589H112.231V68.7882C112.256 69.0006 112.234 69.216 112.166 69.4188C112.097 69.6216 111.985 69.8067 111.836 69.9606C111.688 70.1145 111.507 70.2334 111.307 70.3088C111.107 70.3841 110.892 70.414 110.679 70.3961H101.547V69.6497C101.547 67.3303 100.466 65.2424 97.9266 65.2424C97.602 65.2036 97.273 65.23 96.9588 65.3201C96.6446 65.4102 96.3514 65.562 96.0966 65.7668C95.8418 65.9716 95.6304 66.2252 95.4748 66.5128C95.3192 66.8004 95.2225 67.1161 95.1904 67.4415H95.8473C95.9242 66.9641 96.1848 66.5356 96.5734 66.248C96.962 65.9603 97.4477 65.8361 97.9266 65.9021C100.08 65.9021 100.857 67.9111 100.836 69.6459L100.822 70.3923H81.2326V67.1789C81.2326 65.8348 80.4568 65.2385 79.1637 65.2385C78.9904 65.2399 78.8176 65.2542 78.6464 65.2812V65.937C78.8171 65.9061 78.9903 65.8918 79.1637 65.8944C79.9822 65.8944 80.4348 66.1919 80.5098 67.1556V70.4078H76.8115V71.0727H110.865C111.283 71.1099 111.702 71.0015 112.049 70.7657C112.396 70.53 112.651 70.1815 112.771 69.7791C112.957 70.1677 113.249 70.4957 113.613 70.7247C113.978 70.9538 114.4 71.0744 114.83 71.0727H123.048C123.358 71.0854 123.667 71.0213 123.947 70.8859C124.227 70.7505 124.469 70.548 124.652 70.2965C124.828 70.8226 125.166 71.2792 125.618 71.6007C126.07 71.9222 126.612 72.092 127.166 72.0856C127.778 72.0861 128.372 71.8767 128.849 71.4923C129.325 71.1079 129.655 70.5717 129.785 69.9731C129.987 70.2995 130.267 70.5713 130.599 70.7645C130.931 70.9578 131.306 71.0667 131.689 71.0818H136.098C136.397 71.0851 136.694 71.0233 136.967 70.9006C137.241 70.7779 137.484 70.5972 137.681 70.3711C137.878 70.145 138.023 69.8788 138.107 69.591C138.191 69.3032 138.211 69.0005 138.167 68.7041V62.615H137.463L137.466 68.7895ZM127.164 71.4259C125.757 71.4259 125.183 70.0443 125.183 68.9486C125.183 67.8529 125.757 66.4687 127.164 66.4687C128.57 66.4687 129.16 67.8671 129.16 68.9486C129.16 70.0301 128.587 71.4259 127.164 71.4259Z" fill="#464749" stroke="#464749" stroke-width="0.3" stroke-miterlimit="10"/>
<path d="M141.385 62.5969H140.682V71.0637H141.385V62.5969Z" fill="#464749" stroke="#464749" stroke-width="0.3" stroke-miterlimit="10"/>
<path d="M144.163 68.2461C144.161 68.6227 144.236 68.9956 144.381 69.3428C144.527 69.6901 144.741 70.0045 145.01 70.2673C145.28 70.5302 145.599 70.7361 145.95 70.8729C146.301 71.0097 146.675 71.0746 147.052 71.0636H148.603C148.61 71.2888 148.568 71.5128 148.479 71.7199C148.39 71.927 148.257 72.1121 148.09 72.2624C147.922 72.4126 147.723 72.5244 147.508 72.5897C147.292 72.655 147.065 72.6724 146.842 72.6406C146.391 72.6399 145.949 72.5227 145.557 72.3004C145.589 72.6276 145.628 72.9472 145.628 72.9472C146.034 73.1425 146.472 73.263 146.921 73.3029C147.231 73.3455 147.547 73.3185 147.845 73.2238C148.143 73.1291 148.417 72.969 148.646 72.7553C148.874 72.5416 149.052 72.2796 149.167 71.9883C149.282 71.697 149.331 71.3838 149.309 71.0714V65.2424H147.062C146.672 65.2412 146.286 65.3189 145.927 65.4708C145.568 65.6226 145.243 65.8455 144.972 66.1261C144.702 66.4067 144.49 66.7391 144.351 67.1034C144.212 67.4677 144.148 67.8564 144.163 68.2461ZM148.598 70.3974H147.046C146.758 70.3904 146.474 70.3256 146.211 70.2068C145.948 70.088 145.711 69.9177 145.515 69.7059C145.319 69.4942 145.168 69.2452 145.07 68.9738C144.971 68.7024 144.929 68.4141 144.944 68.1258C144.935 67.5535 145.15 67.0003 145.543 66.5838C145.935 66.1674 146.475 65.9205 147.046 65.8956H148.598V70.3974Z" fill="#464749" stroke="#464749" stroke-width="0.3" stroke-miterlimit="10"/>
<path d="M154.017 62.1442H153.195V63.0316H154.017V62.1442Z" fill="#464749" stroke="#464749" stroke-width="0.3" stroke-miterlimit="10"/>
<path d="M156.809 62.1442H155.987V63.0316H156.809V62.1442Z" fill="#464749" stroke="#464749" stroke-width="0.3" stroke-miterlimit="10"/>
<path d="M182.554 68.7895C182.579 69.002 182.557 69.2175 182.489 69.4204C182.421 69.6233 182.308 69.8084 182.16 69.9624C182.011 70.1164 181.83 70.2353 181.63 70.3106C181.43 70.3858 181.215 70.4155 181.002 70.3974H158.484C158.275 70.4132 158.065 70.3833 157.868 70.3099C157.672 70.2366 157.494 70.1214 157.347 69.9725C157.199 69.8235 157.086 69.6443 157.014 69.4472C156.942 69.2501 156.914 69.0398 156.932 68.8309L156.919 64.8206L156.213 65.0419V65.6046C153.961 65.4455 152.374 66.1621 152.342 68.1465C152.303 68.6276 152.432 69.1072 152.707 69.504C152.981 69.9008 153.384 70.1905 153.848 70.3238C154.312 70.4572 154.807 70.4261 155.25 70.2359C155.694 70.0456 156.058 69.7078 156.28 69.2798C156.292 69.5311 156.354 69.7776 156.463 70.0046C156.571 70.2317 156.724 70.4346 156.912 70.6015C157.101 70.7684 157.321 70.8959 157.559 70.9764C157.797 71.0568 158.049 71.0887 158.3 71.0701H181.188C181.488 71.0735 181.785 71.0117 182.058 70.8889C182.331 70.7662 182.575 70.5856 182.772 70.3595C182.968 70.1334 183.114 69.8672 183.198 69.5793C183.281 69.2915 183.302 68.9889 183.257 68.6925V65.2411H182.551L182.554 68.7895ZM154.471 69.77C153.337 69.77 153.049 68.5967 153.073 68.1259C153.19 65.9577 155.367 66.2747 156.216 66.2501C156.245 67.6821 156.375 69.77 154.471 69.77Z" fill="#464749" stroke="#464749" stroke-width="0.3" stroke-miterlimit="10"/>
<path d="M179.207 72.9459H178.389V73.8346H179.207V72.9459Z" fill="#464749" stroke="#464749" stroke-width="0.3" stroke-miterlimit="10"/>
<path d="M182.506 72.9459H181.685V73.8346H182.506V72.9459Z" fill="#464749" stroke="#464749" stroke-width="0.3" stroke-miterlimit="10"/>
<path d="M187.766 71.0727C187.736 71.5125 187.535 71.923 187.206 72.216C186.877 72.509 186.446 72.661 186.006 72.6393C185.554 72.6303 185.111 72.5136 184.713 72.2991C184.753 72.6264 184.795 72.9459 184.795 72.9459C185.193 73.1619 185.635 73.2836 186.088 73.3016C186.391 73.3127 186.693 73.2636 186.977 73.1572C187.261 73.0509 187.521 72.8893 187.742 72.6818C187.964 72.4744 188.142 72.2252 188.266 71.9486C188.391 71.672 188.46 71.3734 188.468 71.0701V65.2411H187.767L187.766 71.0727Z" fill="#464749" stroke="#464749" stroke-width="0.3" stroke-miterlimit="10"/>
<path d="M204.821 68.7895C204.846 69.0019 204.824 69.2174 204.756 69.4201C204.687 69.6229 204.575 69.808 204.426 69.9619C204.278 70.1158 204.097 70.2347 203.897 70.3101C203.697 70.3854 203.482 70.4153 203.269 70.3974H195.194V67.1789C195.194 65.8348 194.418 65.2385 193.112 65.2385C192.939 65.2402 192.766 65.2545 192.595 65.2812V65.9371C192.765 65.9068 192.938 65.8925 193.112 65.8944C193.933 65.8944 194.388 66.1919 194.464 67.1556V70.4078H190.749V71.0727H203.454C203.754 71.0761 204.05 71.0142 204.324 70.8915C204.597 70.7688 204.841 70.5882 205.038 70.3621C205.234 70.1359 205.38 69.8698 205.463 69.5819C205.547 69.2941 205.568 68.9915 205.523 68.6951V62.606H204.821V68.7895Z" fill="#464749" stroke="#464749" stroke-width="0.3" stroke-miterlimit="10"/>
<path d="M208.732 62.5969H208.034V71.0637H208.732V62.5969Z" fill="#464749" stroke="#464749" stroke-width="0.3" stroke-miterlimit="10"/>
<path d="M193.457 62.2244H192.635V63.0989H193.457V62.2244Z" fill="#464749" stroke="#464749" stroke-width="0.3" stroke-miterlimit="10"/>
<path d="M72.5572 65.2346C72.3866 65.2364 72.2163 65.2506 72.0477 65.2773V65.9332C72.2158 65.9025 72.3864 65.8882 72.5572 65.8905C73.3745 65.8905 73.8296 66.188 73.9059 67.1518V70.4039H70.2051V71.0688H74.6326V67.175C74.6339 65.8297 73.8568 65.2346 72.5572 65.2346Z" fill="#464749" stroke="#464749" stroke-width="0.3" stroke-miterlimit="10"/>
<path d="M186.019 56.8688C186.018 57.0825 185.954 57.2911 185.835 57.4684C185.716 57.6457 185.547 57.7838 185.349 57.8651C185.152 57.9463 184.935 57.9673 184.725 57.9252C184.516 57.8832 184.324 57.78 184.173 57.6287C184.022 57.4774 183.919 57.2849 183.878 57.0753C183.836 56.8657 183.858 56.6485 183.939 56.4511C184.021 56.2537 184.159 56.0849 184.337 55.9661C184.514 55.8473 184.723 55.7837 184.937 55.7834C185.079 55.7833 185.22 55.8113 185.352 55.8658C185.483 55.9203 185.603 56.0003 185.703 56.1011C185.804 56.202 185.884 56.3217 185.938 56.4535C185.992 56.5852 186.02 56.7263 186.019 56.8688Z" fill="#464749"/>
<path d="M183.097 56.8688C183.096 57.0826 183.032 57.2913 182.913 57.4687C182.793 57.6461 182.624 57.7841 182.426 57.8653C182.229 57.9465 182.011 57.9673 181.802 57.925C181.592 57.8828 181.4 57.7793 181.249 57.6278C181.099 57.4763 180.996 57.2835 180.955 57.0737C180.914 56.8639 180.936 56.6466 181.018 56.4493C181.1 56.2519 181.239 56.0833 181.416 55.9648C181.594 55.8463 181.803 55.7832 182.017 55.7834C182.159 55.7833 182.3 55.8113 182.432 55.8658C182.563 55.9204 182.682 56.0004 182.783 56.1013C182.883 56.2022 182.962 56.3219 183.016 56.4536C183.07 56.5854 183.098 56.7265 183.097 56.8688Z" fill="#464749"/>
<path d="M99.1266 56.8688C99.126 57.083 99.0621 57.2921 98.9427 57.4699C98.8234 57.6477 98.654 57.7861 98.4561 57.8675C98.2581 57.949 98.0404 57.9699 97.8305 57.9277C97.6207 57.8854 97.4281 57.7818 97.2771 57.63C97.1261 57.4782 97.0235 57.2851 96.9822 57.0749C96.941 56.8648 96.9629 56.6471 97.0453 56.4495C97.1277 56.2518 97.2668 56.083 97.4451 55.9645C97.6233 55.8459 97.8328 55.7829 98.0468 55.7835C98.1891 55.7833 98.33 55.8113 98.4614 55.8658C98.5928 55.9204 98.7122 56.0004 98.8125 56.1013C98.9129 56.2022 98.9923 56.3219 99.0462 56.4537C99.1001 56.5854 99.1274 56.7265 99.1266 56.8688Z" fill="#464749"/>
<path d="M170.623 44.2547C170.623 44.4688 170.559 44.678 170.44 44.8558C170.32 45.0336 170.151 45.172 169.953 45.2534C169.755 45.3349 169.537 45.3558 169.327 45.3136C169.118 45.2713 168.925 45.1677 168.774 45.0159C168.623 44.8641 168.52 44.6709 168.479 44.4608C168.438 44.2507 168.46 44.033 168.542 43.8354C168.625 43.6377 168.764 43.4689 168.942 43.3504C169.12 43.2318 169.33 43.1688 169.544 43.1693C169.686 43.1697 169.827 43.198 169.958 43.2528C170.089 43.3075 170.208 43.3875 170.308 43.4883C170.409 43.5891 170.488 43.7087 170.542 43.8402C170.596 43.9717 170.624 44.1125 170.623 44.2547Z" fill="#464749"/>
<path d="M167.702 44.2547C167.701 44.4681 167.637 44.6765 167.518 44.8534C167.399 45.0304 167.23 45.168 167.032 45.249C166.835 45.3299 166.618 45.3506 166.409 45.3083C166.2 45.2661 166.008 45.1628 165.857 45.0115C165.707 44.8603 165.604 44.6678 165.563 44.4584C165.522 44.249 165.544 44.0321 165.626 43.835C165.707 43.6379 165.846 43.4695 166.023 43.3511C166.201 43.2326 166.409 43.1694 166.623 43.1694C166.765 43.1694 166.906 43.1975 167.037 43.2521C167.168 43.3067 167.288 43.3867 167.388 43.4876C167.488 43.5884 167.568 43.7081 167.622 43.8398C167.676 43.9714 167.703 44.1124 167.702 44.2547Z" fill="#464749"/>
<path d="M6.68919 44.2547C6.68817 44.4681 6.62399 44.6765 6.50472 44.8534C6.38546 45.0304 6.21647 45.168 6.01908 45.249C5.8217 45.3299 5.60476 45.3506 5.39566 45.3083C5.18655 45.2661 4.99464 45.1628 4.84415 45.0115C4.69366 44.8603 4.59134 44.6678 4.5501 44.4584C4.50885 44.249 4.53053 44.0321 4.61241 43.835C4.69428 43.6379 4.83268 43.4695 5.01013 43.3511C5.18758 43.2326 5.39613 43.1694 5.60946 43.1694C5.7516 43.1697 5.89226 43.1981 6.02344 43.2528C6.15463 43.3075 6.27376 43.3876 6.37403 43.4883C6.47429 43.5891 6.55372 43.7087 6.6078 43.8402C6.66188 43.9717 6.68953 44.1125 6.68919 44.2547Z" fill="#464749"/>
<path d="M3.76679 44.2547C3.76602 44.4684 3.70201 44.677 3.58281 44.8543C3.46362 45.0316 3.2946 45.1697 3.09707 45.251C2.89955 45.3322 2.68238 45.3532 2.47297 45.3111C2.26357 45.2691 2.07129 45.1659 1.92044 45.0146C1.76959 44.8633 1.66693 44.6708 1.62538 44.4612C1.58384 44.2516 1.60529 44.0344 1.68702 43.837C1.76876 43.6396 1.90711 43.4708 2.08463 43.352C2.26215 43.2332 2.47089 43.1696 2.68447 43.1693C2.82697 43.1688 2.96814 43.1966 3.09985 43.251C3.23157 43.3054 3.35122 43.3853 3.45186 43.4863C3.5525 43.5872 3.63215 43.7071 3.6862 43.839C3.74026 43.9709 3.76764 44.1122 3.76679 44.2547Z" fill="#464749"/>
<path d="M16.6344 43.3647C16.6349 43.579 16.5719 43.7886 16.4532 43.9671C16.3345 44.1455 16.1656 44.2847 15.9678 44.367C15.77 44.4493 15.5522 44.471 15.3421 44.4294C15.1319 44.3879 14.9388 44.2848 14.7873 44.1334C14.6357 43.9819 14.5324 43.7889 14.4906 43.5787C14.4488 43.3685 14.4703 43.1506 14.5523 42.9526C14.6343 42.7546 14.7733 42.5855 14.9515 42.4665C15.1297 42.3476 15.3392 42.2843 15.5534 42.2845C15.6953 42.2843 15.8359 42.3122 15.967 42.3664C16.0982 42.4206 16.2173 42.5001 16.3177 42.6004C16.4181 42.7008 16.4978 42.8199 16.5521 42.951C16.6065 43.0822 16.6344 43.2227 16.6344 43.3647Z" fill="#464749"/>
<path d="M13.7146 43.3647C13.7149 43.5784 13.6518 43.7874 13.5334 43.9653C13.415 44.1432 13.2466 44.282 13.0494 44.3642C12.8521 44.4465 12.635 44.4684 12.4254 44.4272C12.2157 44.386 12.023 44.2836 11.8715 44.133C11.7199 43.9823 11.6165 43.7901 11.5741 43.5806C11.5317 43.3711 11.5522 43.1538 11.6332 42.956C11.7142 42.7582 11.852 42.5889 12.0291 42.4694C12.2062 42.3499 12.4148 42.2855 12.6284 42.2845C12.7707 42.284 12.9116 42.3115 13.0432 42.3656C13.1748 42.4196 13.2944 42.499 13.3953 42.5994C13.4962 42.6997 13.5763 42.8189 13.6311 42.9502C13.6859 43.0816 13.7143 43.2224 13.7146 43.3647Z" fill="#464749"/>
<path d="M178.952 44.2547C178.952 44.4687 178.888 44.6778 178.769 44.8555C178.649 45.0332 178.48 45.1716 178.282 45.2532C178.085 45.3347 177.867 45.3558 177.657 45.3138C177.447 45.2717 177.255 45.1683 177.104 45.0168C176.953 44.8653 176.85 44.6724 176.808 44.4624C176.767 44.2524 176.788 44.0349 176.87 43.8372C176.952 43.6395 177.091 43.4705 177.269 43.3517C177.447 43.2328 177.656 43.1693 177.87 43.1693C178.157 43.17 178.433 43.2847 178.635 43.4881C178.838 43.6916 178.952 43.9673 178.952 44.2547Z" fill="#464749"/>
<path d="M79.3046 54.5028H77.0042V43.3776H79.3046V54.5028Z" fill="#464749"/>
<path d="M160.898 54.5028H158.601V43.3776H160.898V54.5028Z" fill="#464749"/>
<path d="M109.442 46.6544H108.622V48.9389H109.442V46.6544Z" fill="#464749"/>
<path d="M204.973 46.2792C204.438 46.2704 203.907 46.3708 203.412 46.5741C202.917 46.7774 202.469 47.0795 202.094 47.4618C201.72 47.8442 201.427 48.2989 201.234 48.7982C201.041 49.2974 200.952 49.8308 200.971 50.3658V51.1562C200.991 51.2929 200.98 51.4323 200.939 51.5643C200.898 51.6963 200.829 51.8176 200.735 51.9195C200.642 52.0214 200.528 52.1014 200.4 52.1537C200.272 52.2061 200.134 52.2294 199.996 52.2221H195.729V49.6439C195.729 47.5858 194.526 46.6582 192.331 46.6582H191.116V48.2714H192.366C193.359 48.2714 193.359 49.0786 193.359 49.0786V52.2221H188.795V54.504H200.105C200.491 54.5129 200.873 54.4363 201.226 54.2798C201.578 54.1232 201.892 53.8906 202.144 53.5985C202.913 54.3138 203.927 54.7065 204.977 54.6955C205.529 54.6805 206.071 54.5564 206.575 54.3304C207.078 54.1045 207.531 53.7811 207.909 53.3789C208.286 52.9768 208.581 52.5038 208.775 51.9873C208.969 51.4708 209.058 50.921 209.039 50.3696C209.052 49.8309 208.956 49.2951 208.756 48.7945C208.557 48.2939 208.258 47.8388 207.879 47.4566C207.499 47.0745 207.046 46.7732 206.546 46.5708C206.047 46.3685 205.512 46.2693 204.973 46.2792ZM204.967 52.7188C204.662 52.7355 204.356 52.6845 204.073 52.5695C203.789 52.4545 203.535 52.2783 203.327 52.0535C203.12 51.8288 202.965 51.561 202.872 51.2692C202.78 50.9775 202.754 50.669 202.794 50.3658C202.766 50.0715 202.803 49.7747 202.902 49.4961C203 49.2175 203.159 48.9639 203.366 48.7529C203.573 48.542 203.823 48.3788 204.1 48.2748C204.376 48.1709 204.672 48.1286 204.967 48.1511C205.268 48.112 205.573 48.1422 205.861 48.2394C206.148 48.3366 206.409 48.4982 206.625 48.7119C206.84 48.9256 207.004 49.1857 207.103 49.4723C207.203 49.7589 207.235 50.0645 207.199 50.3658C207.197 51.7396 206.632 52.7188 204.967 52.7188Z" fill="#464749"/>
<path d="M184.745 46.8652V51.1859C184.763 51.3222 184.749 51.4607 184.706 51.5912C184.663 51.7217 184.591 51.8408 184.496 51.94C184.401 52.0392 184.285 52.1159 184.157 52.1645C184.028 52.2131 183.89 52.2323 183.754 52.2208H180.662C180.439 52.2376 180.216 52.2058 180.007 52.1277C179.799 52.0495 179.609 51.9269 179.453 51.7683C179.296 51.6097 179.175 51.4188 179.1 51.2091C179.024 50.9993 178.995 50.7755 179.014 50.5533V47.3956H176.696V49.4098C176.623 50.4896 176.906 51.5636 177.5 52.4681C178.094 53.3725 178.967 54.058 179.987 54.42C180.253 54.4719 180.525 54.4979 180.796 54.4976H183.958C184.4 54.5133 184.84 54.4319 185.247 54.2592C185.654 54.0864 186.018 53.8265 186.314 53.4977C186.61 53.1689 186.83 52.7793 186.959 52.3562C187.088 51.9331 187.123 51.4868 187.061 51.0488V46.8652H184.745Z" fill="#464749"/>
<path d="M154.244 43.3776V51.1911C154.261 51.3276 154.247 51.4661 154.203 51.5965C154.16 51.727 154.088 51.8461 153.993 51.9452C153.897 52.0444 153.781 52.121 153.653 52.1696C153.524 52.2181 153.386 52.2374 153.249 52.226H150.125C149.388 52.226 149.091 51.6917 149.009 51.0617C149.003 50.5255 148.892 49.9957 148.68 49.5029C148.469 49.01 148.162 48.5638 147.778 48.1899C147.394 47.8161 146.939 47.5219 146.441 47.3243C145.943 47.1268 145.41 47.0297 144.874 47.0387C144.338 47.0478 143.809 47.1627 143.318 47.377C142.826 47.5913 142.382 47.9006 142.011 48.2872C141.639 48.6738 141.348 49.1301 141.153 49.6298C140.959 50.1295 140.865 50.6627 140.877 51.1989C140.881 51.3339 140.858 51.4684 140.809 51.5944C140.76 51.7203 140.686 51.835 140.592 51.9316C140.497 52.0283 140.384 52.1049 140.259 52.1568C140.135 52.2087 140.001 52.2349 139.866 52.2338H137.286C137.064 52.2512 136.84 52.2199 136.631 52.142C136.422 52.0641 136.232 51.9415 136.075 51.7827C135.918 51.6239 135.798 51.4328 135.723 51.2227C135.647 51.0126 135.619 50.7886 135.639 50.5663V43.3893H133.324V50.618C133.432 51.4391 133.757 52.2165 134.266 52.8697C134.775 53.5228 135.45 54.0281 136.219 54.3333C136.61 54.4518 137.015 54.5128 137.423 54.5144H140.009C140.672 54.5324 141.325 54.3474 141.88 53.984C142.248 54.4443 142.716 54.8148 143.248 55.0674C143.78 55.32 144.363 55.4481 144.951 55.4419C145.589 55.4511 146.219 55.3003 146.784 55.0034C147.349 54.7065 147.83 54.2729 148.184 53.7421C148.77 54.221 149.497 54.4938 150.253 54.5183H153.464C153.906 54.5331 154.345 54.4511 154.752 54.278C155.158 54.105 155.522 53.845 155.818 53.5165C156.114 53.1879 156.334 52.7986 156.463 52.376C156.593 51.9533 156.628 51.5073 156.567 51.0695V43.3932L154.244 43.3776ZM144.902 53.5131C144.597 53.5288 144.293 53.4771 144.01 53.3615C143.727 53.246 143.473 53.0696 143.267 52.8448C143.06 52.62 142.905 52.3524 142.813 52.061C142.722 51.7695 142.696 51.4615 142.736 51.1587C142.708 50.865 142.745 50.5688 142.843 50.2906C142.941 50.0124 143.099 49.759 143.305 49.5481C143.511 49.3372 143.761 49.1739 144.037 49.0695C144.313 48.9652 144.608 48.9224 144.902 48.9441C145.204 48.9048 145.51 48.9348 145.798 49.0318C146.086 49.1288 146.348 49.2902 146.564 49.5037C146.78 49.7173 146.945 49.9773 147.045 50.2641C147.146 50.5509 147.18 50.8569 147.145 51.1587C147.145 52.5339 146.576 53.5131 144.902 53.5131Z" fill="#464749"/>
<path d="M129.809 52.2208C129.587 52.2391 129.363 52.2083 129.154 52.1306C128.944 52.0529 128.755 51.9302 128.598 51.7712C128.441 51.6122 128.321 51.4207 128.247 51.2103C128.172 50.9999 128.144 50.7756 128.166 50.5533V43.3763H125.838V50.3619C125.913 51.2532 126.241 52.1045 126.785 52.8152C127.328 53.5258 128.063 54.066 128.903 54.3721C129.244 54.4651 129.597 54.5087 129.95 54.5015H130.946V52.2195L129.809 52.2208Z" fill="#464749"/>
<path d="M105.857 52.2221V49.0786C105.857 49.0786 105.857 48.2714 106.855 48.2714H108.937V46.6582H106.886C104.688 46.6582 103.493 47.5845 103.493 49.6439V52.2221H100.221C99.9981 52.2393 99.7746 52.2078 99.5655 52.1299C99.3564 52.0519 99.1668 51.9293 99.0099 51.7706C98.853 51.6119 98.7325 51.4209 98.6569 51.2109C98.5812 51.0009 98.5522 50.777 98.5718 50.5546V47.393H96.2559V49.9479C96.2365 50.9037 96.5126 51.8422 97.0466 52.635C97.5806 53.4278 98.3463 54.0363 99.2391 54.3773C99.5524 54.4639 99.8761 54.5074 100.201 54.5066H109.73V52.2247L105.857 52.2221Z" fill="#464749"/>
<path d="M72.6425 43.3776V51.1911C72.6596 51.3275 72.6459 51.466 72.6027 51.5964C72.5594 51.7269 72.4876 51.846 72.3924 51.9452C72.2973 52.0444 72.1812 52.121 72.0526 52.1696C71.9241 52.2182 71.7863 52.2374 71.6494 52.226H70.3977C70.1751 52.2432 69.9515 52.2116 69.7423 52.1337C69.5331 52.0557 69.3434 51.9332 69.1863 51.7746C69.0292 51.6159 68.9085 51.425 68.8325 51.215C68.7566 51.005 68.7272 50.781 68.7464 50.5585V43.3815H66.4357V49.5534C66.3944 50.6003 66.6847 51.6336 67.2652 52.5057C67.8458 53.3777 68.6869 54.0441 69.6684 54.4096C69.9558 54.4736 70.2494 54.5057 70.5438 54.5053H71.8667C72.3085 54.5208 72.7484 54.4393 73.1554 54.2664C73.5624 54.0936 73.9266 53.8337 74.2224 53.505C74.5182 53.1763 74.7384 52.7867 74.8676 52.3637C74.9968 51.9407 75.0317 51.4945 74.9701 51.0566V43.3802L72.6425 43.3776Z" fill="#464749"/>
<path d="M66.6762 42.1707C66.9509 42.1365 67.21 42.0238 67.4223 41.846C67.5188 41.9551 67.6387 42.041 67.7731 42.0972C67.9074 42.1535 68.0527 42.1786 68.1982 42.1707C68.4811 42.1659 68.7545 42.0675 68.9756 41.8907C69.1967 41.714 69.353 41.469 69.4201 41.194V39.8073H68.5951V41.194C68.5529 41.2475 68.499 41.2908 68.4377 41.3206C68.3763 41.3504 68.3091 41.3659 68.2409 41.3661C67.9926 41.3661 67.8762 41.194 67.8762 40.7995V39.8073H67.0512V41.194C67.0077 41.2477 66.9527 41.2911 66.8903 41.3209C66.8278 41.3506 66.7596 41.3661 66.6904 41.3661C66.4318 41.3661 66.3309 41.194 66.3309 40.7995V39.8073H65.4904V40.9016C65.4756 41.065 65.4955 41.2296 65.5487 41.3847C65.6019 41.5398 65.6873 41.682 65.7992 41.8018C65.9112 41.9216 66.0472 42.0164 66.1983 42.08C66.3494 42.1435 66.5123 42.1745 66.6762 42.1707Z" fill="#464749"/>
<path d="M49.4702 43.3776V51.1911C49.4871 51.3279 49.4732 51.4668 49.4296 51.5975C49.3859 51.7283 49.3136 51.8477 49.2179 51.9469C49.1222 52.0461 49.0056 52.1226 48.8765 52.1709C48.7474 52.2192 48.6092 52.238 48.4719 52.226H45.3853C45.163 52.2431 44.9397 52.2115 44.7309 52.1334C44.5221 52.0553 44.3328 51.9326 44.1763 51.7739C44.0197 51.6152 43.8996 51.4242 43.8243 51.2143C43.7491 51.0044 43.7204 50.7806 43.7404 50.5585V43.3815H41.4232V50.5262C41.5307 51.3482 41.8492 52.1284 42.3478 52.7906C42.8463 53.4528 43.5079 53.9745 44.268 54.3048C44.6731 54.4389 45.097 54.5071 45.5236 54.5066H48.6814C49.1233 54.5223 49.5633 54.4409 49.9704 54.2682C50.3775 54.0954 50.7417 53.8355 51.0376 53.5068C51.3335 53.178 51.5537 52.7883 51.6828 52.3652C51.8119 51.9421 51.8467 51.4959 51.7848 51.0579V43.3815L49.4702 43.3776Z" fill="#464749"/>
<path d="M121.144 47.6117H123.127V48.7759H118.708V47.6117H119.94V46.2973C119.94 45.2469 120.549 44.7747 121.667 44.7747H122.715V45.5988H121.654C121.143 45.5988 121.143 46.0089 121.143 46.0089L121.144 47.6117Z" fill="#464749"/>
<path d="M122.971 44.7747H122.558V45.9403H122.971V44.7747Z" fill="#464749"/>
<path d="M176.117 51.9815C175.863 52.148 175.565 52.2329 175.262 52.2247H172.395C172.259 52.2349 172.123 52.2147 171.995 52.1655C171.868 52.1162 171.754 52.0392 171.66 51.9401C171.566 51.8409 171.496 51.7221 171.454 51.5923C171.412 51.4626 171.4 51.3251 171.417 51.1898V45.8653L169.099 46.4332V47.0153C166.232 47.0308 164.159 47.9959 164.211 50.7073C164.243 51.4882 164.562 52.2298 165.107 52.7901C165.652 53.3505 166.384 53.6903 167.163 53.7447C167.513 53.3949 167.94 53.1321 168.409 52.9775C168.879 52.8228 169.379 52.7806 169.868 52.8542C170.357 52.9278 170.822 53.1152 171.225 53.4013C171.629 53.6874 171.959 54.0642 172.191 54.5015H175.912C176.458 54.5101 176.994 54.3571 177.454 54.0617C176.853 53.4816 176.395 52.7694 176.117 51.9815ZM169.099 49.9829C169.099 51.0825 168.459 51.6323 167.71 51.6141C167.521 51.5981 167.336 51.5441 167.168 51.4555C167 51.3669 166.851 51.2455 166.73 51.0983C166.61 50.9512 166.52 50.7813 166.466 50.5989C166.412 50.4164 166.396 50.225 166.417 50.0359C166.467 48.437 167.908 48.719 169.094 48.719L169.099 49.9829Z" fill="#464749"/>
<path d="M134.033 54.0539C133.423 53.5087 132.945 52.8313 132.637 52.0734C132.408 52.1778 132.157 52.2287 131.905 52.2221H130.586V54.5028H132.601C132.859 54.5312 133.119 54.5075 133.367 54.433C133.615 54.3586 133.846 54.2349 134.045 54.0694L134.033 54.0539Z" fill="#464749"/>
<path d="M126.555 54.0526C125.985 53.5198 125.543 52.8654 125.261 52.138C125.132 52.1931 124.993 52.2213 124.853 52.2208H117.993C117.643 52.2218 117.303 52.1056 117.026 51.8906C116.75 51.6756 116.554 51.3742 116.468 51.0346C116.395 50.5273 116.519 50.0113 116.814 49.5922C116.814 49.5922 116.124 49.0101 115.151 48.1136C114.497 48.9411 114.171 49.9806 114.235 51.0333C114.332 51.9848 114.779 52.8664 115.489 53.507C116.198 54.1476 117.121 54.5016 118.077 54.5002H125.183C125.431 54.5279 125.682 54.5027 125.919 54.4263C126.157 54.3498 126.376 54.2237 126.561 54.0565L126.555 54.0526Z" fill="#464749"/>
<path d="M95.6753 52.063C95.4287 52.1792 95.1575 52.2334 94.8852 52.2208H90.9969V49.6427C90.9969 47.5845 89.7956 46.657 87.596 46.657H86.3869V48.2701H87.6335C88.6253 48.2701 88.6253 49.0773 88.6253 49.0773V52.2208H84.0606V54.5028H95.533C96.0521 54.534 96.5672 54.3955 97.0007 54.1082C96.4019 53.5422 95.9474 52.8409 95.6753 52.063Z" fill="#464749"/>
<path d="M65.9133 51.9815C65.6597 52.1414 65.3646 52.2229 65.065 52.2157H63.2844C63.1482 52.226 63.0115 52.2059 62.884 52.1567C62.7566 52.1076 62.6417 52.0307 62.5477 51.9316C62.4538 51.8325 62.383 51.7137 62.3407 51.5838C62.2983 51.4539 62.2854 51.3163 62.3029 51.1808V45.8562L59.9883 46.4241V47.0062C57.124 47.0218 55.0512 47.9868 55.0978 50.6982C55.132 51.479 55.4519 52.2199 55.9968 52.78C56.5416 53.3401 57.2733 53.6802 58.0525 53.7357C58.4727 53.7679 58.8947 53.701 59.2843 53.5404C59.674 53.3797 60.0205 53.1298 60.296 52.8107C60.5163 53.3534 60.906 53.8103 61.407 54.1134C61.908 54.4165 62.4935 54.5494 63.0762 54.4924H65.7193C66.2628 54.5129 66.7967 54.3452 67.2309 54.0177C66.6359 53.4536 66.1841 52.7555 65.9133 51.9815ZM59.9883 50.4796C59.9883 51.5805 59.3521 52.1303 58.6008 52.1148C58.4116 52.0967 58.2278 52.0412 58.0602 51.9517C57.8925 51.8621 57.7443 51.7401 57.6241 51.5929C57.5038 51.4457 57.4139 51.276 57.3596 51.0938C57.3053 50.9116 57.2877 50.7204 57.3077 50.5314C57.3607 48.935 58.796 48.4344 59.9844 48.4344L59.9883 50.4796Z" fill="#464749"/>
<path d="M10.6448 48.8859C10.651 49.2077 10.7217 49.5251 10.8528 49.8191C10.984 50.1131 11.1728 50.3777 11.4081 50.5973C11.6434 50.8169 11.9204 50.987 12.2226 51.0974C12.5249 51.2079 12.8463 51.2564 13.1676 51.2403C13.5686 51.2643 13.9698 51.1951 14.3395 51.038C14.7093 50.8809 15.0376 50.6402 15.2987 50.3347V51.1963C15.3161 51.3315 15.3032 51.469 15.261 51.5986C15.2188 51.7283 15.1483 51.847 15.0546 51.946C14.9609 52.0451 14.8464 52.1221 14.7193 52.1714C14.5922 52.2207 14.4558 52.2411 14.3198 52.2312H8.51766C8.38197 52.2405 8.24591 52.2196 8.11925 52.17C7.99259 52.1204 7.87849 52.0434 7.78514 51.9445C7.69179 51.8455 7.62152 51.7271 7.57937 51.5977C7.53722 51.4684 7.52424 51.3313 7.54136 51.1963V45.8717L5.22283 46.4396V47.0218C2.35861 47.0373 0.287076 48.0023 0.336214 50.7138C0.368957 51.4946 0.688102 52.2359 1.23268 52.7963C1.77726 53.3566 2.50908 53.6965 3.28835 53.7512C3.70893 53.7831 4.13115 53.7161 4.52119 53.5555C4.91123 53.3949 5.25825 53.1451 5.53447 52.8262C5.7528 53.3695 6.14152 53.8272 6.64217 54.1304C7.14283 54.4337 7.72838 54.5662 8.31076 54.5079H14.5034C14.9453 54.5234 15.3852 54.4419 15.7921 54.269C16.1991 54.0962 16.5633 53.8363 16.8591 53.5076C17.1549 53.1789 17.3752 52.7893 17.5043 52.3663C17.6335 51.9433 17.6685 51.4971 17.6069 51.0592L17.6276 46.0658C13.8672 46.0658 10.7457 45.8161 10.6448 48.8859ZM5.22283 50.0204C5.22283 51.12 4.5944 51.6672 3.83923 51.6516C3.64961 51.6356 3.46513 51.5816 3.29674 51.4929C3.12835 51.4042 2.97946 51.2826 2.85888 51.1354C2.73831 50.9881 2.6485 50.8181 2.59478 50.6355C2.54106 50.4528 2.52451 50.2613 2.54612 50.0721C2.59655 48.4758 4.03317 48.7578 5.21636 48.7578L5.22283 50.0204ZM13.9939 49.6957C13.8461 49.7024 13.6984 49.6788 13.56 49.6263C13.4216 49.5738 13.2954 49.4935 13.1892 49.3904C13.0829 49.2873 12.9989 49.1635 12.9423 49.0267C12.8857 48.8898 12.8576 48.7429 12.8599 48.5948C12.8599 47.3426 14.5021 47.3607 15.3103 47.3775C15.309 48.2869 15.2612 49.697 13.9914 49.697L13.9939 49.6957ZM40.8051 52.0488C40.5711 52.1666 40.3119 52.2256 40.0499 52.2208H37.3797C37.5874 51.732 37.6976 51.2073 37.7043 50.6763C37.7043 47.9972 35.1258 46.6583 33.0051 46.6583C32.492 46.6686 31.9824 46.7465 31.4896 46.8898C30.6011 47.2668 29.8448 47.8995 29.3166 48.7075C28.7884 49.5156 28.5122 50.4624 28.5232 51.4278V45.0516H26.4284V52.2208H22.9448C22.809 52.2304 22.6729 52.2096 22.5461 52.1601C22.4193 52.1106 22.3051 52.0336 22.2117 51.9346C22.1183 51.8356 22.0481 51.7171 22.006 51.5876C21.9639 51.4582 21.9511 51.321 21.9685 51.1859V43.3725H19.6707V51.0488C19.6058 51.4858 19.638 51.9317 19.7648 52.3549C19.8916 52.7781 20.1101 53.1681 20.4046 53.4973C20.6991 53.8265 21.0624 54.0868 21.4688 54.2597C21.8752 54.4325 22.3147 54.5138 22.756 54.4976H40.7017C41.2164 54.522 41.7234 54.364 42.1331 54.0513C41.5384 53.4985 41.0829 52.8127 40.8038 52.0501L40.8051 52.0488ZM33.5314 52.2208H28.5931C28.844 51.2179 29.4328 50.3321 30.2602 49.7127C31.0876 49.0932 32.1031 48.7779 33.1357 48.8199C33.8599 48.8716 35.3185 49.283 35.3185 50.7086C35.2705 51.1413 35.0587 51.5392 34.7266 51.8204C34.3944 52.1017 33.9672 52.245 33.5327 52.2208H33.5314Z" fill="#464749"/>
</g>
<defs>
<clipPath id="clip0_4_178">
<rect width="272" height="80" fill="white"/>
</clipPath>
</defs>
</svg>
