<svg xmlns="http://www.w3.org/2000/svg" width="204.53" height="93.161" viewBox="0 0 204.53 93.161">
  <g id="logo" transform="translate(-1612.911 -22)">
    <g id="Group_7" data-name="Group 7" transform="translate(1612.911 22)">
      <g id="Group_2" data-name="Group 2" transform="translate(160.407 0)">
        <g id="Group_5" data-name="Group 5" transform="translate(0 20.511)" opacity="0.85">
          <path id="Path_13" data-name="Path 13" d="M1266.862,400.052q1.916-3.553,3.571-7.182-1.237-3.492-2.708-6.947A18.642,18.642,0,0,1,1266.862,400.052Z" transform="translate(-1226.31 -365.081)" fill="none"/>
          <path id="Path_14" data-name="Path 14" d="M1175.644,539.348l-.031-.059.025.064Z" transform="translate(-1165.847 -466.703)" fill="none"/>
          <path id="Path_15" data-name="Path 15" d="M1235.651,324.147l-.164.118c2.068,3.014,4.11,6.207,5.965,9.459Q1238.79,328.878,1235.651,324.147Z" transform="translate(-1205.52 -324.147)" fill="none"/>
          <path id="Path_16" data-name="Path 16" d="M1237.616,429.776a164.687,164.687,0,0,1-14.345,20.858A127.05,127.05,0,0,0,1237.616,429.776Z" transform="translate(-1197.426 -394.138)" fill="none"/>
          <path id="Path_17" data-name="Path 17" d="M1151.259,440.286a110.459,110.459,0,0,1-4.585-29.979A93.333,93.333,0,0,0,1151.259,440.286Z" transform="translate(-1146.666 -381.238)" fill="none"/>
          <path id="Path_18" data-name="Path 18" d="M1172.527,380.876a164.7,164.7,0,0,0,14.345-20.858q.182-.333.362-.666a18.643,18.643,0,0,0,.863-14.129q-2.424-5.694-5.484-11.265c-1.855-3.252-3.9-6.445-5.964-9.459a93.117,93.117,0,0,1-15.045,8.75c-.648.3-1.245.568-1.8.808,8.475,2.037,15.982,6.094,21.349,11.881l-.025.048a79.834,79.834,0,0,0-19.684-2.916,28.951,28.951,0,0,1,5.9,15.908l-.052.033a53.611,53.611,0,0,0-10.115-8.591,29.894,29.894,0,0,1-.766,12.5l-.061.021a45.052,45.052,0,0,0-9.472-14.173q-.152,2.339-.182,4.684a110.459,110.459,0,0,0,4.584,29.979q.262.809.536,1.616c12.234-7.009,33.19-31.111,33.19-31.111-5.292,13.416-25.484,34.321-30.139,39.031.545,1.331,1.077,2.664,1.587,4l.031.059A141.6,141.6,0,0,0,1172.527,380.876Z" transform="translate(-1146.682 -324.38)" fill="#204e84"/>
        </g>
        <g id="Group_6" data-name="Group 6" transform="translate(0.008 20.629)">
          <path id="Path_19" data-name="Path 19" d="M1156.643,409.726c-.075.286-.153.57-.239.85l-.061.021a45.054,45.054,0,0,0-9.472-14.174q-.152,2.339-.182,4.684a110.459,110.459,0,0,0,4.584,29.979q.262.809.536,1.616c5.419-3.1,12.548-9.562,18.811-15.794A17.962,17.962,0,0,1,1156.643,409.726Z" transform="translate(-1146.69 -372.157)" fill="#204e84"/>
          <path id="Path_20" data-name="Path 20" d="M1204.146,345.222q-2.424-5.694-5.484-11.265c-1.855-3.252-3.9-6.445-5.965-9.459a93.1,93.1,0,0,1-15.045,8.75c-.648.3-1.245.568-1.8.808q1.77.425,3.479.969a17.994,17.994,0,1,1,12.945,33.467,257.113,257.113,0,0,1-21.362,24.472c.544,1.331,1.077,2.664,1.587,4l.031.059a141.622,141.622,0,0,0,16.048-16.149,164.7,164.7,0,0,0,14.345-20.858q.182-.333.361-.666A18.639,18.639,0,0,0,1204.146,345.222Z" transform="translate(-1162.739 -324.498)" fill="#204e84"/>
        </g>
        <path id="Path_21" data-name="Path 21" d="M1180.42,296.766a167.84,167.84,0,0,1,16.817-3.742,142.159,142.159,0,0,0-9.468-12.3A44.726,44.726,0,0,1,1180.42,296.766Z" transform="translate(-1169.032 -274.865)" fill="#e07b2c"/>
        <path id="Path_22" data-name="Path 22" d="M1171.505,263.353q-1.192,2.35-2.461,4.676a100.173,100.173,0,0,0-5.156,10.987,82.434,82.434,0,0,0,11.339-11.607C1174.017,266.047,1172.784,264.692,1171.505,263.353Z" transform="translate(-1158.078 -263.353)" fill="#19a66e"/>
      </g>
      <path id="Path_63353" data-name="Path 63353" d="M2.426-2.009A2.855,2.855,0,0,0,2.707-.647a2.187,2.187,0,0,0,.7.8,2.367,2.367,0,0,0,.9.367A4.87,4.87,0,0,0,5.17.606,5.9,5.9,0,0,0,6.553.455,3.909,3.909,0,0,0,7.591.066V-4.948H5.646a6.514,6.514,0,0,0-1.189.108,2.563,2.563,0,0,0-1.037.432,2.256,2.256,0,0,0-.724.9A3.546,3.546,0,0,0,2.426-2.009Zm9.206,4.862a8.985,8.985,0,0,1-2.28-.259A2.279,2.279,0,0,1,7.893,1.514a8.686,8.686,0,0,1-1.156.4,6.344,6.344,0,0,1-1.718.205,6.076,6.076,0,0,1-1.556-.205,3.78,3.78,0,0,1-1.394-.692A3.543,3.543,0,0,1,1.075-.053,4.508,4.508,0,0,1,.7-2.009a4.123,4.123,0,0,1,1.264-3.22,5.008,5.008,0,0,1,3.49-1.145H9.363V-.258A1.444,1.444,0,0,0,9.9,1.071a3.567,3.567,0,0,0,1.794.335h.173a.613.613,0,0,1,.5.162.991.991,0,0,1,.13.594,1.319,1.319,0,0,1-.076.562.286.286,0,0,1-.27.13ZM5.819-9.507a.983.983,0,0,1,.292-.724.983.983,0,0,1,.724-.292.948.948,0,0,1,.713.292,1,1,0,0,1,.281.724,1,1,0,0,1-.281.724.948.948,0,0,1-.713.292.983.983,0,0,1-.724-.292A.983.983,0,0,1,5.819-9.507Zm-2.7,0a.983.983,0,0,1,.292-.724.983.983,0,0,1,.724-.292.948.948,0,0,1,.713.292,1,1,0,0,1,.281.724,1,1,0,0,1-.281.724.948.948,0,0,1-.713.292.983.983,0,0,1-.724-.292A.983.983,0,0,1,3.117-9.507ZM11.869,1.406A2.9,2.9,0,0,0,13.9.8a2.618,2.618,0,0,0,.648-1.988V-6.374h1.772V-.669A1.9,1.9,0,0,0,16.948.9a2.709,2.709,0,0,0,1.75.508.613.613,0,0,1,.5.162.991.991,0,0,1,.13.594,1.194,1.194,0,0,1-.086.529.278.278,0,0,1-.259.162,5.051,5.051,0,0,1-1.88-.335,2.658,2.658,0,0,1-1.318-1.113q-.972,1.448-3.631,1.448a1.2,1.2,0,0,1-.735-.162.777.777,0,0,1-.194-.616A.583.583,0,0,1,11.869,1.406ZM15.716,5.62A1,1,0,0,1,16.732,4.6a.948.948,0,0,1,.713.292,1.073,1.073,0,0,1,0,1.448.948.948,0,0,1-.713.292A1,1,0,0,1,15.716,5.62Zm-2.7,0A1,1,0,0,1,14.03,4.6a.948.948,0,0,1,.713.292,1.073,1.073,0,0,1,0,1.448.948.948,0,0,1-.713.292A1,1,0,0,1,13.015,5.62ZM21.9,1.406q.411,0,.519.184a1.168,1.168,0,0,1,.108.573,1.062,1.062,0,0,1-.1.551.292.292,0,0,1-.249.14h-3.2a1.2,1.2,0,0,1-.735-.162.777.777,0,0,1-.194-.616.583.583,0,0,1,.648-.67Zm3.2,0q.411,0,.519.184a1.168,1.168,0,0,1,.108.573,1.062,1.062,0,0,1-.1.551.292.292,0,0,1-.249.14h-3.2a1.2,1.2,0,0,1-.735-.162.777.777,0,0,1-.194-.616.583.583,0,0,1,.648-.67Zm3.2,0q.411,0,.519.184a1.168,1.168,0,0,1,.108.573,1.062,1.062,0,0,1-.1.551.292.292,0,0,1-.249.14h-3.2a1.2,1.2,0,0,1-.735-.162.777.777,0,0,1-.194-.616.583.583,0,0,1,.648-.67Zm3.2,0q.411,0,.519.184a1.168,1.168,0,0,1,.108.573,1.062,1.062,0,0,1-.1.551.292.292,0,0,1-.249.14h-3.2a1.2,1.2,0,0,1-.735-.162.777.777,0,0,1-.194-.616.583.583,0,0,1,.648-.67Zm3.2,0q.411,0,.519.184a1.168,1.168,0,0,1,.108.573,1.062,1.062,0,0,1-.1.551.292.292,0,0,1-.249.14h-3.2a1.2,1.2,0,0,1-.735-.162.777.777,0,0,1-.194-.616.583.583,0,0,1,.648-.67Zm.281,1.448a1.2,1.2,0,0,1-.735-.162.777.777,0,0,1-.194-.616.583.583,0,0,1,.648-.67h.562A1.64,1.64,0,0,0,36.44.92a1.893,1.893,0,0,0,.54-1.307,8,8,0,0,1,1.286-4.538A3.988,3.988,0,0,1,41.67-6.5a4.7,4.7,0,0,1,2.085.411,3.653,3.653,0,0,1,1.329,1.07,4.214,4.214,0,0,1,.713,1.48A6.43,6.43,0,0,1,46.014-1.9a6.146,6.146,0,0,1-.194,1.578,1.619,1.619,0,0,0,.735,1.34,3.15,3.15,0,0,0,1.642.389q.432,0,.54.184a1.168,1.168,0,0,1,.108.573,1.062,1.062,0,0,1-.1.551.311.311,0,0,1-.27.14,5.663,5.663,0,0,1-1.956-.335A2.465,2.465,0,0,1,45.127,1.19,4,4,0,0,1,43.7,2.476a4.088,4.088,0,0,1-1.967.465,5.012,5.012,0,0,1-1.761-.335,6.212,6.212,0,0,1-1.848-1.156,2.533,2.533,0,0,1-.756.983,2.511,2.511,0,0,1-1.6.421Zm6.678-7.844a2.437,2.437,0,0,0-2.075,1.21A7.443,7.443,0,0,0,38.6-.107a7.618,7.618,0,0,0,1.556,1.145,3.455,3.455,0,0,0,1.642.389A2.1,2.1,0,0,0,43.01,1.1a2.357,2.357,0,0,0,.746-.81,3.3,3.3,0,0,0,.367-1.048,6.223,6.223,0,0,0,.1-1.059,3.565,3.565,0,0,0-.681-2.41A2.4,2.4,0,0,0,41.648-4.991Zm6.548,6.4A2.9,2.9,0,0,0,50.227.8a2.618,2.618,0,0,0,.648-1.988V-6.374h1.772V-.669A1.9,1.9,0,0,0,53.275.9a2.709,2.709,0,0,0,1.75.508.613.613,0,0,1,.5.162.991.991,0,0,1,.13.594,1.194,1.194,0,0,1-.086.529.278.278,0,0,1-.259.162,5.051,5.051,0,0,1-1.88-.335,2.658,2.658,0,0,1-1.318-1.113q-.972,1.448-3.631,1.448a1.2,1.2,0,0,1-.735-.162.777.777,0,0,1-.194-.616A.583.583,0,0,1,48.2,1.406Zm2.55-10.913a.983.983,0,0,1,.292-.724.983.983,0,0,1,.724-.292.948.948,0,0,1,.713.292,1,1,0,0,1,.281.724,1,1,0,0,1-.281.724.948.948,0,0,1-.713.292.983.983,0,0,1-.724-.292A.983.983,0,0,1,50.746-9.507ZM55.025,1.406A2.951,2.951,0,0,0,57.056.8a2.567,2.567,0,0,0,.67-1.988V-6.374h1.75V-.863q0,3.717-4.171,3.717a1.331,1.331,0,0,1-.735-.151.641.641,0,0,1-.216-.562.812.812,0,0,1,.162-.551A.643.643,0,0,1,55.025,1.406Zm3.76-10.913a.983.983,0,0,1,.292-.724.983.983,0,0,1,.724-.292.948.948,0,0,1,.713.292,1,1,0,0,1,.281.724,1,1,0,0,1-.281.724.948.948,0,0,1-.713.292.983.983,0,0,1-.724-.292A.983.983,0,0,1,58.785-9.507Zm-2.7,0a.983.983,0,0,1,.292-.724.983.983,0,0,1,.724-.292.948.948,0,0,1,.713.292,1,1,0,0,1,.281.724,1,1,0,0,1-.281.724.948.948,0,0,1-.713.292.983.983,0,0,1-.724-.292A.983.983,0,0,1,56.084-9.507ZM80.547,2.465a8.687,8.687,0,0,1-.843.259,5.516,5.516,0,0,1-1.34.13,5.946,5.946,0,0,1-2.085-.335,4.3,4.3,0,0,1-1.5-.918A3.713,3.713,0,0,1,73.869.206a5,5,0,0,1-.3-1.761A5.7,5.7,0,0,1,73.9-3.543a4.6,4.6,0,0,1,.951-1.567,4.327,4.327,0,0,1,1.469-1.026A4.679,4.679,0,0,1,78.191-6.5a4.109,4.109,0,0,1,3.09,1.135,4.261,4.261,0,0,1,1.1,3.1V2.011a4.413,4.413,0,0,1-.421,1.977,3.609,3.609,0,0,1-1.329,1.437,7,7,0,0,1-2.345.886,16.971,16.971,0,0,1-3.447.3A9.357,9.357,0,0,1,69.536,5.35a4.581,4.581,0,0,1-1.848-4.074A8.094,8.094,0,0,1,67.98-.7a10.207,10.207,0,0,1,.875-2.237l1.6.583a12.558,12.558,0,0,0-.7,1.988,7.292,7.292,0,0,0-.227,1.772,3.193,3.193,0,0,0,1.383,2.863,7.471,7.471,0,0,0,4.106.918A8.875,8.875,0,0,0,79.2,4.431,2.236,2.236,0,0,0,80.547,2.465ZM75.4-1.641a3.3,3.3,0,0,0,.3,1.5,2.636,2.636,0,0,0,.767.94,2.735,2.735,0,0,0,1.016.475,4.58,4.58,0,0,0,1.048.13A4.214,4.214,0,0,0,79.8,1.244a5.683,5.683,0,0,0,.767-.292V-1.641a7.14,7.14,0,0,0-.119-1.351,3.014,3.014,0,0,0-.411-1.07,1.978,1.978,0,0,0-.778-.7,2.67,2.67,0,0,0-1.221-.249,3.246,3.246,0,0,0-.746.108,2.125,2.125,0,0,0-.864.465,2.876,2.876,0,0,0-.724,1.016A4.341,4.341,0,0,0,75.4-1.641Zm3.069-7.866a.983.983,0,0,1,.292-.724.983.983,0,0,1,.724-.292.948.948,0,0,1,.713.292,1,1,0,0,1,.281.724,1,1,0,0,1-.281.724.948.948,0,0,1-.713.292.983.983,0,0,1-.724-.292A.983.983,0,0,1,78.472-9.507Zm-2.7,0a.983.983,0,0,1,.292-.724.983.983,0,0,1,.724-.292.948.948,0,0,1,.713.292,1,1,0,0,1,.281.724,1,1,0,0,1-.281.724.948.948,0,0,1-.713.292.983.983,0,0,1-.724-.292A.983.983,0,0,1,75.771-9.507Zm13.7,14.76a2.912,2.912,0,0,0,1.988-.627,2.764,2.764,0,0,0,.713-2.161,8.688,8.688,0,0,1-.843.259,5.516,5.516,0,0,1-1.34.13A5.946,5.946,0,0,1,87.9,2.519,4.3,4.3,0,0,1,86.4,1.6,3.827,3.827,0,0,1,85.484.206a4.843,4.843,0,0,1-.313-1.761,5.541,5.541,0,0,1,.346-1.988,4.734,4.734,0,0,1,.962-1.567,4.327,4.327,0,0,1,1.469-1.026A4.679,4.679,0,0,1,89.817-6.5,4.072,4.072,0,0,1,92.9-5.369a4.286,4.286,0,0,1,1.091,3.1V1.968a7.513,7.513,0,0,1-.216,1.848,3.8,3.8,0,0,1-.724,1.48,3.4,3.4,0,0,1-1.361.983,5.544,5.544,0,0,1-2.129.357,10.814,10.814,0,0,1-1.394-.1,13.07,13.07,0,0,1-1.372-.249l.259-1.383q.5.108,1.145.227A7.061,7.061,0,0,0,89.472,5.252ZM87.03-1.641a3.3,3.3,0,0,0,.3,1.5A2.636,2.636,0,0,0,88.1.8a2.735,2.735,0,0,0,1.016.475,4.579,4.579,0,0,0,1.048.13,4.214,4.214,0,0,0,1.264-.162,5.683,5.683,0,0,0,.767-.292V-1.641a7.141,7.141,0,0,0-.119-1.351,3.014,3.014,0,0,0-.411-1.07,1.978,1.978,0,0,0-.778-.7,2.67,2.67,0,0,0-1.221-.249,3.246,3.246,0,0,0-.746.108,2.125,2.125,0,0,0-.864.465,2.875,2.875,0,0,0-.724,1.016A4.341,4.341,0,0,0,87.03-1.641Zm13.658,3.047a3.976,3.976,0,0,0,1.189-.151,1.669,1.669,0,0,0,.756-.465,1.822,1.822,0,0,0,.4-.8,5.029,5.029,0,0,0,.119-1.178v-.5a5.174,5.174,0,0,0-.162-1.34,2.271,2.271,0,0,0-.594-1.037,2.686,2.686,0,0,0-1.156-.648,6.594,6.594,0,0,0-1.848-.216H97.835V-6.374H100A5.352,5.352,0,0,1,103.7-5.261,4.066,4.066,0,0,1,104.923-2.1V-.669a2.16,2.16,0,0,0,.14.778,2.127,2.127,0,0,0,.4.659,1.868,1.868,0,0,0,.648.465,2.051,2.051,0,0,0,.843.173.618.618,0,0,1,.465.119.87.87,0,0,1,.162.637,1.193,1.193,0,0,1-.086.529.278.278,0,0,1-.259.162,3.928,3.928,0,0,1-.724-.076,3.962,3.962,0,0,1-.789-.238,3.4,3.4,0,0,1-.735-.421,2.42,2.42,0,0,1-.583-.627,2.693,2.693,0,0,1-1.232,1.016,5.279,5.279,0,0,1-2.075.346h-4.6V1.406Zm9.465,0q.411,0,.519.184a1.168,1.168,0,0,1,.108.573,1.062,1.062,0,0,1-.1.551.292.292,0,0,1-.249.14h-3.2a1.2,1.2,0,0,1-.735-.162.777.777,0,0,1-.194-.616.583.583,0,0,1,.648-.67Zm3.2,0q.411,0,.519.184a1.168,1.168,0,0,1,.108.573,1.063,1.063,0,0,1-.1.551.292.292,0,0,1-.249.14h-3.2a1.2,1.2,0,0,1-.735-.162.777.777,0,0,1-.194-.616.583.583,0,0,1,.648-.67Zm3.2,0q.411,0,.519.184a1.168,1.168,0,0,1,.108.573,1.063,1.063,0,0,1-.1.551.292.292,0,0,1-.249.14h-3.2a1.2,1.2,0,0,1-.735-.162.777.777,0,0,1-.194-.616.583.583,0,0,1,.648-.67Zm0,0A2.9,2.9,0,0,0,118.58.8a2.618,2.618,0,0,0,.648-1.988V-6.374H121V-.669A1.9,1.9,0,0,0,121.627.9a2.709,2.709,0,0,0,1.75.508.613.613,0,0,1,.5.162.991.991,0,0,1,.13.594,1.193,1.193,0,0,1-.086.529.278.278,0,0,1-.259.162,5.051,5.051,0,0,1-1.88-.335,2.658,2.658,0,0,1-1.318-1.113q-.972,1.448-3.631,1.448a1.2,1.2,0,0,1-.735-.162.777.777,0,0,1-.194-.616A.583.583,0,0,1,116.549,1.406ZM119.1-9.507a.983.983,0,0,1,.292-.724.983.983,0,0,1,.724-.292.948.948,0,0,1,.713.292,1,1,0,0,1,.281.724,1,1,0,0,1-.281.724.948.948,0,0,1-.713.292.983.983,0,0,1-.724-.292A.983.983,0,0,1,119.1-9.507Zm4.473,12.361a1.024,1.024,0,0,1-.638-.162.662.662,0,0,1-.205-.551.887.887,0,0,1,.14-.573.65.65,0,0,1,.508-.162h2.355v-7.78h1.772V-4.9a15.65,15.65,0,0,1,3.036-1.21,10.765,10.765,0,0,1,2.82-.389,6.793,6.793,0,0,1,2.55.421,4.154,4.154,0,0,1,1.642,1.135A4.1,4.1,0,0,1,138.4-3.37a6.573,6.573,0,0,1,.238,1.75v.756a3.853,3.853,0,0,1-.9,2.82,4.024,4.024,0,0,1-2.928.9Zm9.595-7.866a9.564,9.564,0,0,0-2.939.465,13.256,13.256,0,0,0-2.723,1.221V1.406H134.4a4.087,4.087,0,0,0,1.2-.151A1.639,1.639,0,0,0,136.355.8a1.8,1.8,0,0,0,.389-.789,5.029,5.029,0,0,0,.119-1.178,5.573,5.573,0,0,0-.194-1.513,3.249,3.249,0,0,0-.638-1.221,2.925,2.925,0,0,0-1.145-.821A4.483,4.483,0,0,0,133.167-5.012ZM2.426,18.33a2.855,2.855,0,0,0,.281,1.361,2.187,2.187,0,0,0,.7.8,2.367,2.367,0,0,0,.9.367,4.87,4.87,0,0,0,.864.086,5.9,5.9,0,0,0,1.383-.151A3.909,3.909,0,0,0,7.591,20.4V15.391H5.646a6.514,6.514,0,0,0-1.189.108,2.563,2.563,0,0,0-1.037.432,2.256,2.256,0,0,0-.724.9A3.546,3.546,0,0,0,2.426,18.33Zm9.206,4.862a8.985,8.985,0,0,1-2.28-.259,2.279,2.279,0,0,1-1.459-1.081,8.686,8.686,0,0,1-1.156.4,6.344,6.344,0,0,1-1.718.205,6.076,6.076,0,0,1-1.556-.205,3.78,3.78,0,0,1-1.394-.692,3.543,3.543,0,0,1-.994-1.275A4.508,4.508,0,0,1,.7,18.33a4.123,4.123,0,0,1,1.264-3.22,5.008,5.008,0,0,1,3.49-1.145H9.363v6.116A1.444,1.444,0,0,0,9.9,21.41a3.567,3.567,0,0,0,1.794.335h.173a.613.613,0,0,1,.5.162.991.991,0,0,1,.13.594,1.319,1.319,0,0,1-.076.562.286.286,0,0,1-.27.13ZM5.819,10.832A1,1,0,0,1,6.834,9.816a.948.948,0,0,1,.713.292,1.073,1.073,0,0,1,0,1.448.948.948,0,0,1-.713.292,1,1,0,0,1-1.016-1.016Zm-2.7,0A1,1,0,0,1,4.133,9.816a.948.948,0,0,1,.713.292,1.073,1.073,0,0,1,0,1.448.948.948,0,0,1-.713.292,1,1,0,0,1-1.016-1.016Zm8.752,10.913A2.951,2.951,0,0,0,13.9,21.14a2.567,2.567,0,0,0,.67-1.988V13.965h1.75v5.511q0,3.717-4.171,3.717a1.331,1.331,0,0,1-.735-.151.641.641,0,0,1-.216-.562.812.812,0,0,1,.162-.551A.643.643,0,0,1,11.869,21.745ZM15,25.959a1,1,0,0,1,1.016-1.016.948.948,0,0,1,.713.292,1.073,1.073,0,0,1,0,1.448.948.948,0,0,1-.713.292A1,1,0,0,1,15,25.959Zm-2.7,0a1,1,0,0,1,1.016-1.016.948.948,0,0,1,.713.292,1.073,1.073,0,0,1,0,1.448.948.948,0,0,1-.713.292A1,1,0,0,1,12.3,25.959Zm6.656,1.016q-.3,0-.659-.032a5.553,5.553,0,0,1-.659-.1l.238-1.469q.238.043.486.065t.486.022a1.733,1.733,0,0,0,1.5-.637,3.565,3.565,0,0,0,.465-2.064v-8.8h1.772v7.78h2.075q.411,0,.519.184a1.168,1.168,0,0,1,.108.573,1.194,1.194,0,0,1-.086.529.278.278,0,0,1-.259.162H22.566a4.557,4.557,0,0,1-.994,2.842A3.382,3.382,0,0,1,18.958,26.974Zm8.9-5.23q.411,0,.519.184a1.168,1.168,0,0,1,.108.573,1.062,1.062,0,0,1-.1.551.292.292,0,0,1-.249.14h-3.2a1.2,1.2,0,0,1-.735-.162.777.777,0,0,1-.194-.616.583.583,0,0,1,.648-.67Zm3.2,0q.411,0,.519.184a1.168,1.168,0,0,1,.108.573,1.062,1.062,0,0,1-.1.551.292.292,0,0,1-.249.14h-3.2a1.2,1.2,0,0,1-.735-.162.777.777,0,0,1-.194-.616.583.583,0,0,1,.648-.67Zm.929,0a1.907,1.907,0,0,0,.972-.216A1.6,1.6,0,0,0,33.523,21a2.232,2.232,0,0,0,.281-.735,4.458,4.458,0,0,0,.086-.9V15.975h1.772v3.7A2.075,2.075,0,0,0,36.2,21.2a2.249,2.249,0,0,0,2.377.346,1.568,1.568,0,0,0,.583-.519,2.085,2.085,0,0,0,.3-.756,4.62,4.62,0,0,0,.086-.908V15.975h1.772v3.7a2.068,2.068,0,0,0,.54,1.545,1.979,1.979,0,0,0,1.448.529,1.573,1.573,0,0,0,.929-.259,1.611,1.611,0,0,0,.551-.67,2.955,2.955,0,0,0,.238-.854,6.74,6.74,0,0,0,.054-.81V13.965h1.772v5.511a2.374,2.374,0,0,0,.54,1.718,2.406,2.406,0,0,0,1.772.551q.411,0,.519.184a1.226,1.226,0,0,1,.108.594,1.129,1.129,0,0,1-.086.508.278.278,0,0,1-.259.162,4.989,4.989,0,0,1-1.826-.324,2.637,2.637,0,0,1-1.307-1.081,2.7,2.7,0,0,1-1.026,1.026,3.283,3.283,0,0,1-1.653.378,3.68,3.68,0,0,1-1.707-.378,2.488,2.488,0,0,1-1.081-1,3.7,3.7,0,0,1-.335.421,2.644,2.644,0,0,1-.573.454,3.345,3.345,0,0,1-.886.367,4.655,4.655,0,0,1-1.21.14,3.359,3.359,0,0,1-1.653-.378,2.412,2.412,0,0,1-1-1,3.764,3.764,0,0,1-.346.432,2.564,2.564,0,0,1-.573.454,3.406,3.406,0,0,1-.875.357,4.655,4.655,0,0,1-1.21.14H31.34a1.645,1.645,0,0,1-.854-.162.608.608,0,0,1-.249-.551q0-.735.821-.735Zm8.752-10.913a1,1,0,0,1,1.016-1.016.948.948,0,0,1,.713.292,1.073,1.073,0,0,1,0,1.448.948.948,0,0,1-.713.292,1,1,0,0,1-1.016-1.016Zm-2.7,0a1,1,0,0,1,1.016-1.016.948.948,0,0,1,.713.292,1.073,1.073,0,0,1,0,1.448.948.948,0,0,1-.713.292,1,1,0,0,1-1.016-1.016Zm1.34-2.269a1,1,0,0,1,1.016-1.016.948.948,0,0,1,.713.292,1.073,1.073,0,0,1,0,1.448.948.948,0,0,1-.713.292,1,1,0,0,1-1.016-1.016ZM49.19,21.745a2.9,2.9,0,0,0,2.031-.605,2.618,2.618,0,0,0,.648-1.988V13.965h1.772V19.67a1.9,1.9,0,0,0,.627,1.567,2.709,2.709,0,0,0,1.75.508.613.613,0,0,1,.5.162.991.991,0,0,1,.13.594,1.194,1.194,0,0,1-.086.529.278.278,0,0,1-.259.162,5.051,5.051,0,0,1-1.88-.335A2.658,2.658,0,0,1,53.1,21.745q-.972,1.448-3.631,1.448a1.2,1.2,0,0,1-.735-.162.777.777,0,0,1-.194-.616A.583.583,0,0,1,49.19,21.745Zm2.485,4.149a1,1,0,0,1,1.016-1.016.948.948,0,0,1,.713.292,1.073,1.073,0,0,1,0,1.448.948.948,0,0,1-.713.292,1,1,0,0,1-1.016-1.016Zm4.344-4.149a2.951,2.951,0,0,0,2.031-.605,2.567,2.567,0,0,0,.67-1.988V7.309h1.772V19.476q0,3.717-4.192,3.717a1.331,1.331,0,0,1-.735-.151.641.641,0,0,1-.216-.562.919.919,0,0,1,.14-.529A.6.6,0,0,1,56.019,21.745ZM65.938,7.309V23.193H64.166V7.309ZM78.472,21.745a2.592,2.592,0,0,0,1.945-.583,2.945,2.945,0,0,0,.54-2.01v-.5a5.174,5.174,0,0,0-.162-1.34,2.243,2.243,0,0,0-.583-1.026,2.749,2.749,0,0,0-1.156-.648,6.411,6.411,0,0,0-1.858-.227H75.641V13.965H77.78a7.336,7.336,0,0,1,2.237.3,4.06,4.06,0,0,1,1.545.864,3.348,3.348,0,0,1,.886,1.351,5.222,5.222,0,0,1,.281,1.761v1.232a3.859,3.859,0,0,1-.9,2.809,4.028,4.028,0,0,1-2.95.908h-4.6V21.745Zm6.569,5.23q-.3,0-.659-.032a5.553,5.553,0,0,1-.659-.1l.238-1.469q.238.043.486.065t.486.022a1.733,1.733,0,0,0,1.5-.637A3.565,3.565,0,0,0,86.9,22.76v-8.8h1.772v8.558a5.391,5.391,0,0,1-.864,3.339A3.285,3.285,0,0,1,85.041,26.974ZM94.01,7.309V23.193H92.238V7.309Zm6.872,18.282a2.908,2.908,0,0,0,1.956-.573,2.543,2.543,0,0,0,.746-1.826h-1.469a8.51,8.51,0,0,1-2.766-.378,4.25,4.25,0,0,1-1.686-1,3.353,3.353,0,0,1-.832-1.415,5.8,5.8,0,0,1-.227-1.61,5.7,5.7,0,0,1,.335-1.988,4.594,4.594,0,0,1,.951-1.567A4.327,4.327,0,0,1,99.358,14.2a4.679,4.679,0,0,1,1.869-.367,4.059,4.059,0,0,1,3.1,1.135,4.338,4.338,0,0,1,1.07,3.1v3.674h1.686q.411,0,.519.184a1.168,1.168,0,0,1,.108.573,1.194,1.194,0,0,1-.086.529.278.278,0,0,1-.259.162h-2.01a5.542,5.542,0,0,1-.367,1.513,3.4,3.4,0,0,1-2.107,1.988,5.729,5.729,0,0,1-1.912.281,10.813,10.813,0,0,1-1.394-.1,13.07,13.07,0,0,1-1.372-.249l.259-1.383q.5.108,1.145.227A7.061,7.061,0,0,0,100.882,25.591ZM98.44,18.7a3.635,3.635,0,0,0,.281,1.545,2.221,2.221,0,0,0,.789.929,3.115,3.115,0,0,0,1.21.454,9.288,9.288,0,0,0,1.545.119h1.34V18.7a6.562,6.562,0,0,0-.13-1.351,3.035,3.035,0,0,0-.432-1.07,2.059,2.059,0,0,0-.789-.7,2.563,2.563,0,0,0-1.178-.249,3.207,3.207,0,0,0-.8.119,2.149,2.149,0,0,0-.864.475,2.73,2.73,0,0,0-.692,1.026A4.585,4.585,0,0,0,98.44,18.7Zm11.842,3.047q.411,0,.519.184a1.168,1.168,0,0,1,.108.573,1.062,1.062,0,0,1-.1.551.292.292,0,0,1-.249.14h-3.2a1.2,1.2,0,0,1-.735-.162.777.777,0,0,1-.194-.616.583.583,0,0,1,.648-.67Zm3.2,0q.411,0,.519.184a1.168,1.168,0,0,1,.108.573,1.062,1.062,0,0,1-.1.551.292.292,0,0,1-.249.14h-3.2a1.2,1.2,0,0,1-.735-.162.777.777,0,0,1-.194-.616.583.583,0,0,1,.648-.67Zm3.2,0q.411,0,.519.184a1.168,1.168,0,0,1,.108.573,1.062,1.062,0,0,1-.1.551.292.292,0,0,1-.249.14h-3.2a1.2,1.2,0,0,1-.735-.162.777.777,0,0,1-.194-.616.583.583,0,0,1,.648-.67Zm.281,1.448a1.2,1.2,0,0,1-.735-.162.777.777,0,0,1-.194-.616.583.583,0,0,1,.648-.67h.562a1.64,1.64,0,0,0,1.189-.486,1.893,1.893,0,0,0,.54-1.307,8,8,0,0,1,1.286-4.538,3.988,3.988,0,0,1,3.4-1.578,4.7,4.7,0,0,1,2.085.411,3.653,3.653,0,0,1,1.329,1.07,4.214,4.214,0,0,1,.713,1.48A6.43,6.43,0,0,1,128,18.438a6.146,6.146,0,0,1-.194,1.578,1.619,1.619,0,0,0,.735,1.34,3.15,3.15,0,0,0,1.642.389q.432,0,.54.184a1.168,1.168,0,0,1,.108.573,1.062,1.062,0,0,1-.1.551.31.31,0,0,1-.27.14,5.663,5.663,0,0,1-1.956-.335,2.465,2.465,0,0,1-1.394-1.329,4,4,0,0,1-1.426,1.286,4.088,4.088,0,0,1-1.967.465,5.012,5.012,0,0,1-1.761-.335,6.211,6.211,0,0,1-1.848-1.156,2.244,2.244,0,0,1-2.356,1.4Zm6.678-7.844a2.437,2.437,0,0,0-2.075,1.21,7.443,7.443,0,0,0-.972,3.674,7.618,7.618,0,0,0,1.556,1.145,3.455,3.455,0,0,0,1.642.389,2.1,2.1,0,0,0,1.21-.324,2.357,2.357,0,0,0,.746-.81,3.3,3.3,0,0,0,.367-1.048,6.222,6.222,0,0,0,.1-1.059,3.565,3.565,0,0,0-.681-2.41A2.4,2.4,0,0,0,123.637,15.348Zm6.548,6.4a2.951,2.951,0,0,0,2.031-.605,2.567,2.567,0,0,0,.67-1.988V7.309h1.772V19.476q0,3.717-4.192,3.717a1.331,1.331,0,0,1-.735-.151.641.641,0,0,1-.216-.562.919.919,0,0,1,.14-.529A.6.6,0,0,1,130.185,21.745ZM140.1,7.309V23.193h-1.772V7.309Z" transform="translate(-0.367 25.611)" fill="#606060"/>
      <path id="Path_63352" data-name="Path 63352" d="M.968-7.818H2.185v4.335h4.81V-7.818H8.211V2.166H6.995V-2.463H2.185V2.166H.968ZM17.832-.785A3.047,3.047,0,0,1,17.58.467a2.881,2.881,0,0,1-.72.986A3.259,3.259,0,0,1,15.7,2.1a4.868,4.868,0,0,1-1.545.231A4.739,4.739,0,0,1,12.623,2.1a3.351,3.351,0,0,1-1.154-.65,2.841,2.841,0,0,1-.727-.986A3.047,3.047,0,0,1,10.49-.785V-7.818h1.217V-.911a2.145,2.145,0,0,0,.615,1.65,2.577,2.577,0,0,0,1.818.573A2.644,2.644,0,0,0,15.979.7a2.1,2.1,0,0,0,.636-1.615V-7.818h1.217Zm7.089,1.846h.028L27.76-7.818h2.083V2.166H28.668V-6.9H28.64L25.676,2.166H24.152L21.285-6.9h-.028V2.166H20.111V-7.818h2.056Zm7.495,1.1h-1.3l3.8-9.984h1.636l3.817,9.984H39.044L37.869-.827H33.548Zm1.44-4.013h3.719L35.716-6.9ZM47.811.879h.028v-8.7h1.147V2.166H47.2L42.819-6.6h-.028V2.166H41.645V-7.818h1.832Zm14.542-8.7h3.44a4.733,4.733,0,0,1,1.231.154,2.807,2.807,0,0,1,.993.475,2.137,2.137,0,0,1,.65.832A2.843,2.843,0,0,1,68.9-5.175a2.353,2.353,0,0,1-.468,1.468,2.436,2.436,0,0,1-1.377.853v.028a1.516,1.516,0,0,1,.888.559,4.111,4.111,0,0,1,.566,1.314q.252.853.468,1.573t.468,1.545h-1.3q-.084-.294-.189-.692t-.21-.8q-.1-.406-.21-.783l-.175-.629a5.231,5.231,0,0,0-.273-.748,1.337,1.337,0,0,0-.378-.5,1.421,1.421,0,0,0-.594-.259,4.667,4.667,0,0,0-.937-.077H63.57V2.166H62.354ZM63.57-3.344H65.5a2.65,2.65,0,0,0,1.6-.419,1.592,1.592,0,0,0,.58-1.342,1.839,1.839,0,0,0-.175-.853,1.312,1.312,0,0,0-.482-.524,1.888,1.888,0,0,0-.678-.252,4.545,4.545,0,0,0-.762-.063H63.57Zm7.495-4.475h5.481V-6.8H72.282v3.314h3.929v1.021H72.282V1.145h4.377V2.166H71.065ZM83.58-6.546a5.857,5.857,0,0,0-2.2-.419,3.309,3.309,0,0,0-.713.077,2.272,2.272,0,0,0-.643.245,1.308,1.308,0,0,0-.475.468,1.394,1.394,0,0,0-.182.734,1.627,1.627,0,0,0,.1.6,1.385,1.385,0,0,0,.35.5,3.086,3.086,0,0,0,.643.447,8.209,8.209,0,0,0,.986.44,10.453,10.453,0,0,1,1.251.566,3.994,3.994,0,0,1,.888.643,2.387,2.387,0,0,1,.545.8,2.681,2.681,0,0,1,.182,1.028A2.553,2.553,0,0,1,84.027.844a2.511,2.511,0,0,1-.769.853,3.324,3.324,0,0,1-1.077.482,4.89,4.89,0,0,1-1.217.154,7.576,7.576,0,0,1-1.454-.154,7.335,7.335,0,0,1-1.5-.461L78.322.67a6.143,6.143,0,0,0,1.384.489,6.021,6.021,0,0,0,1.286.154,3.366,3.366,0,0,0,.832-.1A1.929,1.929,0,0,0,82.5.907,1.489,1.489,0,0,0,82.944.39,1.549,1.549,0,0,0,83.1-.337a1.456,1.456,0,0,0-.161-.685,1.7,1.7,0,0,0-.475-.552,4.6,4.6,0,0,0-.741-.461q-.426-.217-1.014-.454a5.24,5.24,0,0,1-1.923-1.189,2.39,2.39,0,0,1-.636-1.65,2.375,2.375,0,0,1,.294-1.217,2.468,2.468,0,0,1,.762-.818,3.462,3.462,0,0,1,1.042-.468A4.408,4.408,0,0,1,81.4-7.986a8.027,8.027,0,0,1,1.307.1,5.7,5.7,0,0,1,1.168.315ZM94.668-2.812A6.914,6.914,0,0,1,94.375-.75a4.73,4.73,0,0,1-.86,1.629,3.938,3.938,0,0,1-1.391,1.07,4.42,4.42,0,0,1-1.888.385,4.42,4.42,0,0,1-1.888-.385A3.938,3.938,0,0,1,86.957.879,4.73,4.73,0,0,1,86.1-.75,6.914,6.914,0,0,1,85.8-2.812,6.964,6.964,0,0,1,86.1-4.889a4.877,4.877,0,0,1,.853-1.636,3.81,3.81,0,0,1,1.4-1.077,4.48,4.48,0,0,1,1.888-.385A4.467,4.467,0,0,1,92.13-7.6a3.824,3.824,0,0,1,1.391,1.077,4.877,4.877,0,0,1,.853,1.636A6.965,6.965,0,0,1,94.668-2.812Zm-1.217,0a6.387,6.387,0,0,0-.2-1.608,4.03,4.03,0,0,0-.594-1.321,2.883,2.883,0,0,0-1.014-.895,3.108,3.108,0,0,0-1.482-.329,2.949,2.949,0,0,0-1.356.336,2.855,2.855,0,0,0-1,.888,4.03,4.03,0,0,0-.594,1.321,6.387,6.387,0,0,0-.2,1.608,6.224,6.224,0,0,0,.2,1.594A4.128,4.128,0,0,0,87.81.1a2.766,2.766,0,0,0,1,.888,3.156,3.156,0,0,0,1.426.329A2.993,2.993,0,0,0,91.655.991,2.836,2.836,0,0,0,92.662.1a4.036,4.036,0,0,0,.594-1.314A6.305,6.305,0,0,0,93.452-2.812ZM103.9-.785a3.048,3.048,0,0,1-.252,1.251,2.881,2.881,0,0,1-.72.986,3.259,3.259,0,0,1-1.161.65,4.868,4.868,0,0,1-1.545.231A4.739,4.739,0,0,1,98.688,2.1a3.351,3.351,0,0,1-1.154-.65,2.841,2.841,0,0,1-.727-.986,3.047,3.047,0,0,1-.252-1.251V-7.818h1.217V-.911a2.145,2.145,0,0,0,.615,1.65,2.577,2.577,0,0,0,1.818.573A2.644,2.644,0,0,0,102.044.7a2.1,2.1,0,0,0,.636-1.615V-7.818H103.9Zm2.279-7.033h3.44a4.734,4.734,0,0,1,1.23.154,2.807,2.807,0,0,1,.993.475,2.137,2.137,0,0,1,.65.832,2.843,2.843,0,0,1,.231,1.182,2.353,2.353,0,0,1-.468,1.468,2.436,2.436,0,0,1-1.377.853v.028a1.516,1.516,0,0,1,.888.559,4.111,4.111,0,0,1,.566,1.314q.252.853.468,1.573t.468,1.545h-1.3q-.084-.294-.189-.692t-.21-.8q-.1-.406-.21-.783l-.175-.629a5.233,5.233,0,0,0-.273-.748,1.337,1.337,0,0,0-.378-.5,1.421,1.421,0,0,0-.594-.259A4.667,4.667,0,0,0,109-2.323h-1.608V2.166h-1.217Zm1.217,4.475h1.93a2.65,2.65,0,0,0,1.6-.419,1.592,1.592,0,0,0,.58-1.342,1.839,1.839,0,0,0-.175-.853,1.312,1.312,0,0,0-.482-.524,1.888,1.888,0,0,0-.678-.252,4.545,4.545,0,0,0-.762-.063h-2.014Zm13.871-3.188a3.059,3.059,0,0,0-.86-.322,4.661,4.661,0,0,0-1.028-.112,4.129,4.129,0,0,0-1.657.329,3.078,3.078,0,0,0-1.147.881,3.9,3.9,0,0,0-.685,1.328,5.644,5.644,0,0,0-.231,1.643,5.21,5.21,0,0,0,.238,1.587,3.863,3.863,0,0,0,.692,1.3,3.268,3.268,0,0,0,1.154.881,3.74,3.74,0,0,0,1.608.329,4.739,4.739,0,0,0,1.126-.119,4.031,4.031,0,0,0,.93-.357l.35.951a4,4,0,0,1-1.168.419,6.722,6.722,0,0,1-1.307.126,5.224,5.224,0,0,1-2.035-.378A4.224,4.224,0,0,1,115.713.879a4.7,4.7,0,0,1-.951-1.629A6.233,6.233,0,0,1,114.44-2.8a6.4,6.4,0,0,1,.322-2.076,4.682,4.682,0,0,1,.951-1.643A4.27,4.27,0,0,1,117.258-7.6a5.4,5.4,0,0,1,2.1-.385,6.438,6.438,0,0,1,1.238.119,3.34,3.34,0,0,1,1.042.371Zm2.083-1.286h5.481V-6.8h-4.265v3.314h3.929v1.021h-3.929V1.145h4.377V2.166h-5.593Zm12.515,1.272a5.857,5.857,0,0,0-2.2-.419,3.309,3.309,0,0,0-.713.077,2.271,2.271,0,0,0-.643.245,1.308,1.308,0,0,0-.475.468,1.394,1.394,0,0,0-.182.734,1.627,1.627,0,0,0,.1.6,1.385,1.385,0,0,0,.35.5,3.085,3.085,0,0,0,.643.447,8.209,8.209,0,0,0,.986.44,10.454,10.454,0,0,1,1.252.566,3.994,3.994,0,0,1,.888.643,2.386,2.386,0,0,1,.545.8A2.68,2.68,0,0,1,136.6-.421,2.553,2.553,0,0,1,136.31.844a2.511,2.511,0,0,1-.769.853,3.324,3.324,0,0,1-1.077.482,4.89,4.89,0,0,1-1.217.154,7.576,7.576,0,0,1-1.454-.154,7.335,7.335,0,0,1-1.5-.461L130.6.67a6.144,6.144,0,0,0,1.384.489,6.021,6.021,0,0,0,1.286.154,3.366,3.366,0,0,0,.832-.1,1.929,1.929,0,0,0,.671-.308,1.489,1.489,0,0,0,.447-.517,1.55,1.55,0,0,0,.161-.727,1.456,1.456,0,0,0-.161-.685,1.7,1.7,0,0,0-.475-.552,4.6,4.6,0,0,0-.741-.461q-.426-.217-1.014-.454a5.241,5.241,0,0,1-1.923-1.189,2.39,2.39,0,0,1-.636-1.65,2.375,2.375,0,0,1,.294-1.217,2.468,2.468,0,0,1,.762-.818,3.462,3.462,0,0,1,1.042-.468,4.408,4.408,0,0,1,1.147-.154,8.028,8.028,0,0,1,1.307.1,5.7,5.7,0,0,1,1.168.315ZM.968,7.436H3.807a5.821,5.821,0,0,1,2.062.35,4.114,4.114,0,0,1,1.552,1,4.353,4.353,0,0,1,.951,1.573A6.14,6.14,0,0,1,8.7,12.428,6.124,6.124,0,0,1,8.372,14.5a4.382,4.382,0,0,1-.958,1.573,4.084,4.084,0,0,1-1.545,1,5.854,5.854,0,0,1-2.062.343H.968ZM2.185,16.4h1.44A3.8,3.8,0,0,0,6.5,15.357,4.055,4.055,0,0,0,7.484,12.4a4.025,4.025,0,0,0-.972-2.874,3.733,3.733,0,0,0-2.887-1.07H2.185Zm8.558-8.963h5.481V8.457H11.959v3.314h3.929v1.021H11.959V16.4h4.377V17.42H10.742Zm6.362,0h1.3l3.034,8.879h.028l3.02-8.879h1.3l-3.58,9.984H20.656Zm9.956,0h5.481V8.457H28.277v3.314h3.929v1.021H28.277V16.4h4.377V17.42H27.06Zm7.551,0h1.217V16.4h4.419V17.42H34.611Zm14.822,5.006A6.914,6.914,0,0,1,49.14,14.5a4.73,4.73,0,0,1-.86,1.629,3.938,3.938,0,0,1-1.391,1.07,4.826,4.826,0,0,1-3.775,0,3.938,3.938,0,0,1-1.391-1.07,4.73,4.73,0,0,1-.86-1.629,6.914,6.914,0,0,1-.294-2.062,6.964,6.964,0,0,1,.294-2.076,4.877,4.877,0,0,1,.853-1.636,3.81,3.81,0,0,1,1.4-1.077,4.843,4.843,0,0,1,3.782,0,3.824,3.824,0,0,1,1.391,1.077,4.877,4.877,0,0,1,.853,1.636A6.964,6.964,0,0,1,49.433,12.442Zm-1.217,0a6.387,6.387,0,0,0-.2-1.608,4.03,4.03,0,0,0-.594-1.321,2.883,2.883,0,0,0-1.014-.895,3.108,3.108,0,0,0-1.482-.329,2.949,2.949,0,0,0-1.356.336,2.855,2.855,0,0,0-1,.888,4.03,4.03,0,0,0-.594,1.321,6.387,6.387,0,0,0-.2,1.608,6.224,6.224,0,0,0,.2,1.594,4.128,4.128,0,0,0,.594,1.314,2.766,2.766,0,0,0,1,.888A3.156,3.156,0,0,0,45,16.567a2.993,2.993,0,0,0,1.419-.322,2.836,2.836,0,0,0,1.007-.888,4.036,4.036,0,0,0,.594-1.314A6.305,6.305,0,0,0,48.217,12.442ZM51.5,7.436h3.244a5.552,5.552,0,0,1,1.286.14,2.977,2.977,0,0,1,1.042.461,2.239,2.239,0,0,1,.72.867,3.085,3.085,0,0,1,.266,1.356,3.363,3.363,0,0,1-.259,1.377,2.359,2.359,0,0,1-.727.937,2.977,2.977,0,0,1-1.042.51,4.849,4.849,0,0,1-1.258.154H52.719V17.42H51.5Zm1.217,4.782h1.944a3.814,3.814,0,0,0,.874-.091,1.838,1.838,0,0,0,.671-.3,1.486,1.486,0,0,0,.461-.58,2.216,2.216,0,0,0,.175-.944,2.358,2.358,0,0,0-.182-.951,1.308,1.308,0,0,0-.489-.552,1.982,1.982,0,0,0-.734-.273,5.41,5.41,0,0,0-.9-.07H52.719Zm12,4.1h.028l2.811-8.879h2.083V17.42H68.464V8.359h-.028L65.472,17.42H63.948L61.081,8.359h-.028V17.42H59.907V7.436h2.056ZM72.1,7.436h5.481V8.457H73.316v3.314h3.929v1.021H73.316V16.4h4.377V17.42H72.1Zm13.717,8.7h.028v-8.7h1.147V17.42H85.2L80.825,8.653H80.8V17.42H79.651V7.436h1.832Zm5.621-7.677H88.432V7.436h7.159V8.457H92.655V17.42H91.438Zm9.229-1.021h5.258V8.457h-4.041v3.314h3.8v1.021h-3.8V17.42h-1.217Zm14.207,7.033a3.047,3.047,0,0,1-.252,1.251,2.881,2.881,0,0,1-.72.986,3.259,3.259,0,0,1-1.161.65,4.868,4.868,0,0,1-1.545.231,4.739,4.739,0,0,1-1.531-.231,3.351,3.351,0,0,1-1.154-.65,2.841,2.841,0,0,1-.727-.986,3.047,3.047,0,0,1-.252-1.251V7.436h1.217v6.908a2.145,2.145,0,0,0,.615,1.65,2.577,2.577,0,0,0,1.818.573,2.644,2.644,0,0,0,1.839-.608,2.1,2.1,0,0,0,.636-1.615V7.436h1.217Zm8.446,1.664h.028v-8.7h1.147V17.42H122.7l-4.377-8.767H118.3V17.42h-1.147V7.436h1.832Zm3.636-8.7h2.839a5.821,5.821,0,0,1,2.062.35,4.114,4.114,0,0,1,1.552,1,4.353,4.353,0,0,1,.951,1.573,6.14,6.14,0,0,1,.329,2.069,6.124,6.124,0,0,1-.329,2.076,4.382,4.382,0,0,1-.958,1.573,4.084,4.084,0,0,1-1.545,1,5.854,5.854,0,0,1-2.062.343h-2.839Zm1.217,8.963h1.44a3.8,3.8,0,0,0,2.874-1.042,4.055,4.055,0,0,0,.986-2.957,4.026,4.026,0,0,0-.972-2.874,3.733,3.733,0,0,0-2.887-1.07h-1.44Z" transform="translate(-0.968 68.526)" fill="#606060"/>
    </g>
  </g>
</svg>
