<svg version="1.2" xmlns="http://www.w3.org/2000/svg" viewBox="0 0 1562 702" width="1562" height="702">
	<title>marafiq-fact-sheet-eng_02-10-pdf-svg</title>

	<style>
		.s0 { fill: #ee7d00 } 
		.s1 { fill: #233774 } 
	</style>
	<g id="Clip-Path: Page 1" clip-path="url(#cp1)">
		<g id="Page 1">
			<path id="Path 1" fill-rule="evenodd" class="s0" d="m0 632.3q9.5-9.5 14.9-19.6 4.8-9.6 7.2-23.3l25-169.2q0.6-5.9 1.2-10.1 0.6-4.2 0.6-7.8 0-5.3-2.4-9.5-1.8-4.2-10.1-11.9h64.4l75.1 186.5 73.9-186.5h61.4q-5.4 4.8-8.3 11.3-2.4 6-2.4 14.3 0 4.2 0 7.2 0.6 2.9 0.6 5.9l22 172.8q1.2 12.5 6 22 4.2 9.6 11.9 17.9h-68.5q7.1-5.3 10.7-12.5 3-6.6 3-16.1 0-2.4 0-3.6 0-1.2 0-2.3l-20.9-177.6-87 215.1q-10.2-6-17.3-16.1-7.8-10.7-14.9-28l-70.4-169.8-25 165.6q-1.2 7.8-1.2 11.4-0.6 3.5-0.6 5.3 0 9 3.6 15.5 3.5 6.6 11.3 13.1zm404.2-29.2q-1.8 3-2.4 6.6-0.6 3.5-0.6 7.1 0 3.6 2.4 7.2 2.4 3.5 7.2 8.3h-51.9q6.6-4.2 11.9-11.9 4.8-7.7 10.2-20.9l62-156.1q1.7-4.1 2.3-8.3 1.2-4.8 1.2-7.7 0-3.6-1.8-7.2-1.7-3-5.9-5.9h50.1l69.1 182.9q5.4 12.5 10.8 20.2 5.3 7.8 14.3 14.9h-62.6l1.2-0.6q8.3-8.9 8.3-13.7 0-4.8-3.6-14.3-0.6-1.8-1.2-2.4l-18.5-50.6h-81.6zm29.2-74.5h65l-31-84zm209.8 64.9q0 16.7 3 24.5 3 8.3 10.1 14.3h-59.6q6.6-6 9.6-14.3 2.9-7.8 2.9-24.5v-141.2q0-16-2.9-24.4-3-7.7-9.6-13.7h75.1q32.8 0 53.1 15.5 19.7 15.5 19.7 39.9 0 17.9-12 31.6-11.9 13.7-37.5 23.8l57.2 75.7q4.8 7.1 11.9 14.3 7.2 7.7 16.1 16.1l-16.6 1.2h-3q-12 0-23.3-6-11.3-6.5-19.1-17.3l-65.5-89.9q29.2-6 42.9-17.3 13.7-11.3 13.7-29.2 0-16.7-11.9-26.8-11.4-10.7-30.4-10.7-4.2 0-10.2 0.6-5.9 1.2-13.7 2.3zm198 9q-1.2 3.6-2.4 7.1-0.6 3.6-0.6 7.2 0 3 2.4 7.1 2.3 3.6 7.1 8.4h-51.3q6.6-4.8 11.4-11.9 5.3-7.8 10.7-21.5l61.4-155.5q1.8-4.8 3-8.9 0.6-4.2 0.6-7.2 0-4.2-1.8-7.1-1.8-3-6-6.6h50.1l69.8 182.9q4.7 12.5 10.1 20.3 6 7.7 14.3 15.5h-62l0.6-0.6q8.3-9.6 8.3-13.7 0-4.8-3.5-14.9-0.6-1.2-0.6-2.4l-19.1-50.1h-81.7zm29.8-74.4h64.4l-31-84zm213.5 64.9q0 16.7 2.3 24.4 3 7.8 10.2 14.3h-59.6q6.5-6.5 9.5-14.3 3-7.7 3-24.4v-141.2q0-16.7-3-24.4-3-7.8-9.5-14.3h119.2v34.5q-7.8-5.9-17.3-8.9-9.5-3-22.1-3-6.5 0-14.9 1.2-7.7 1.2-17.8 3v61.4h53.6v31.5q-4.2-4.1-10.7-5.9-6-1.8-23.3-1.8h-19.6zm144.8 0q0 16.7 3 24.4 3 7.8 9.5 14.3h-59.6q7.2-6.5 10.2-14.3 2.9-7.7 2.9-24.4v-141.2q0-16.7-2.9-24.4-3-7.8-10.2-13.7h59.6q-6.5 5.9-9.5 13.7-3 7.7-3 24.4zm186 42.9q-7.7 0.6-14.3 1.2-7.1 0.6-13.1 0.6-27.4 0-52.5-9.6-25-9.5-42.9-26.2-19.1-17.9-29.8-42.3-10.1-25-10.1-51.8 0-21.5 6.5-41.7 6.6-19.7 19.1-37 19.7-26.8 48.9-41.1 29.2-14.3 63.8-14.3 29.2 0 54.8 9.6 25.7 8.9 43.6 26.2 19.6 18.4 29.8 42.9 10.1 24.4 10.1 53.6 0 35.7-17.9 64.3-17.3 29.2-51.3 50.1 35.8 31.6 60.3 45.9 23.8 13.7 41.7 14.3-7.2 8.3-16.7 12.5-9.5 4.1-22.1 4.1-17.8 0-39.3-11.9-22.1-11.3-68.6-49.4zm-23.2-235.4q-42.3 0-69.2 28.6-27.4 29.2-27.4 73.9 0 46.5 26.8 76.9 26.9 30.4 67.4 30.4 41.7 0 69.2-28.6 27.4-29.2 27.4-73.9 0-46.5-27.4-76.9-26.9-30.4-66.8-30.4z"/>
			<path id="Path 2" fill-rule="evenodd" class="s0" d="m401.2 604.3q-1.8 3-2.4 6.6-0.5 3.5-0.5 7.7 0 3 2.3 6.6 2.4 4.1 7.2 8.9h-51.3q6-4.8 11.3-12.5 5.4-7.8 10.2-20.9l62-156.1q1.8-4.1 2.4-8.3 1.2-4.2 1.2-7.8 0-3.5-1.8-6.5-1.8-3-6-6.6h50.1l69.7 183q4.8 12.5 10.2 20.2 5.3 7.8 14.3 15.5h-62.6l1.2-1.2q8.3-8.9 8.3-13.1 0-5.4-3.6-14.9-0.5-1.8-1.1-2.4l-18.5-50.6h-81.7zm29.2-73.9h65l-31-84.6zm210.4 65.5q0 16.7 2.4 24.5 3 7.7 10.2 14.3h-59.7q6.6-6.6 9.6-14.3 3-7.8 3-24.5v-141.2q0-16.7-3-24.4-3-7.7-9.6-14.3h75.8q32.2 0 52.4 15.5 19.7 15.5 19.7 39.9 0 18.5-11.9 31.6-11.9 13.7-37 24.4l56.7 75.7q4.7 6.5 11.9 14.3 7.1 7.1 16.1 15.5l-16.7 1.8h-2.4q-12.5 0-23.9-6.6-11.3-5.9-19-17.3l-65-89.3q29.2-6.6 42.3-17.9 13.7-11.3 13.7-29.2 0-16.1-11.9-26.8-11.3-10.1-30.4-10.1-4.2 0-10.1 0.5-6 0.6-13.2 1.8zm197.4 9.6q-1.2 2.9-2.4 6.5-0.6 3.6-0.6 7.2 0 3.5 2.4 7.1 2.4 3.6 7.1 8.4h-51.2q6.5-4.2 11.3-12 5.4-7.7 10.7-20.8l61.4-156.1q1.8-4.2 3-8.3 0.6-4.2 0.6-7.8 0-3.6-1.8-7.1-1.8-3-5.9-6h50l69.8 182.9q4.8 12.5 10.1 20.3 6 7.7 14.9 14.9h-62.6l0.6-0.6q8.4-9 8.4-13.1 0-5.4-3.6-14.9-0.6-1.8-0.6-2.4l-19.1-50.7h-81.7zm29.9-74.4h64.3l-31-84zm213.5 64.9q0 16.7 3 24.4 2.3 8.4 9.5 14.3h-59.6q6.5-5.9 9.5-14.3 3-7.7 3-24.4v-140.6q0-16.7-3-24.4-3-8.4-9.5-14.3h119.2v34.5q-7.7-6.5-17.3-8.9-9.5-3-22-3-6.6 0-14.3 0.6-8.4 1.2-18.5 3.6v60.7h53.6v31.6q-4.1-4.1-10.1-5.9-6.6-1.8-23.8-1.8h-19.7zm144.9 0.6q0 16.1 2.9 24.4 3 7.7 10.2 13.7h-60.2q7.1-6 10.1-13.7 3-8.3 3-24.4v-141.8q0-16.1-3-23.9-3-8.3-10.1-14.3h60.2q-7.2 6-10.2 14.3-2.9 7.8-2.9 23.9zm186 42.9q-7.8 1.2-14.3 1.8-7.2 0-13.2 0-27.4 0-52.4-9-25.1-9.5-43-26.8-19-17.3-29.2-42.3-10.7-24.4-10.7-51.8 0-21.5 6.6-41.1 6.5-20.3 19-37.6 20.3-26.2 48.9-40.5 29.2-14.3 63.8-14.3 29.2 0 54.9 9 25.6 9.5 44.1 26.2 19.1 18.4 29.2 42.9 10.1 25 10.1 53.6 0 35.7-17.3 64.9-17.8 29.2-51.8 49.5 35.7 32.2 60.2 45.9 23.8 14.3 41.7 14.3-7.1 8.9-16.7 13.1-9.5 4.1-22 4.1-17.9 0-39.4-11.9-22-11.9-68.5-50zm-23.3-235.4q-41.7 0-69.1 29.2-26.9 28.6-27.5 73.9 0 45.9 27.5 76.3 26.8 30.9 66.7 30.9 41.8 0 69.2-29.1 27.4-28.6 27.4-73.9 0-46.5-27.4-76.9-26.8-30.4-66.8-30.4z"/>
			<path id="Path 3" fill-rule="evenodd" class="s1" d="m751.2 155.7c0 0-3 94.7-87.1 95.9h-438.7c0 0-6.6 84.6-106.2 95.3 0 0-51.2 3.6-87-8.9l-18.5-45.3c0 0 44.1 28.6 87.1 25.6 0 0 70.3-5.3 79.8-69.7h-79.2c0 0-60.9 3.6-63.8-52.4 0 0 1.7-82.8 82.8-88.8 0 0 101.4-11.3 109.1 105.5h420.3c0 0 37 7.1 54.3-23.9 0 0 4.8-14.9 6-33.3h-133.6c0 0-5.4-87 86.5-88.8 0 0 88.2-6 88.2 88.8zm-44.1-28c0 0-3-37-40.6-37 0 0-42.9-0.6-50.6 37zm-521.1 87c0 0 0-77.5-54.9-81.1 0 0-38.7-4.1-50.6 40.5 0 0-7.8 38.8 23.8 40.6zm611.1-210.4h68c0 0-9.6 16.7-10.2 26.3v196c0 0 0 16.7 10.2 22h-67.4c0 0 11.9-7.1 13.1-16.1v-203.7c0 0-4.2-22.7-13.7-24.5zm125.2 125.2h68c0 0-13.1 14.9-13.7 35.7v47.7h375.6v-84c0 0 0-19.7-13.8-25.7h115.7c0 0 75.1 0 72.1 78.7 0 0-2.9 57.2-67.3 69.7 0 0-23.9 0-34-3l-22.7-31.6c0 0 25.1 11.4 47.7 4.8 0 0 35.2-7.7 35.8-47.7 0 0-4.8-44.6-51.9-46.4 0 0-19.6-0.6-39.9 5.3v123.4h-416.7c0 0 10.7 78.6-79.3 91.1 0 0 37.5-28.6 37.5-63.1v-129.3c0 0-4.8-20.3-13.1-25.6zm-257-88.2c-11.2 0-20.2-9.1-20.2-20.3 0-11.2 9-20.2 20.2-20.2 11.3 0 20.3 9 20.3 20.2 0 11.2-9 20.3-20.3 20.3zm-507.6 44.1c-11 0-20-9.1-20-20.3 0-11.2 9-20.2 20-20.2 11 0 20 9 20 20.2 0 11.2-9 20.3-20 20.3zm-58.7 0c-11.2 0-20.3-9.1-20.3-20.3 0-11.2 9.1-20.2 20.3-20.2 11.2 0 20.2 9 20.2 20.2 0 11.2-9 20.3-20.2 20.3z"/>
		</g>
	</g>
</svg>