<?xml version="1.0" encoding="UTF-8"?>
<svg width="166px" height="30px" viewBox="0 0 166 30" version="1.1" xmlns="http://www.w3.org/2000/svg" xmlns:xlink="http://www.w3.org/1999/xlink">
    <title>Group 7</title>
    <defs>
        <polygon id="path-1" points="0.4674 0.6915 163.53165 0.6915 163.53165 17.007225 0.4674 17.007225"></polygon>
    </defs>
    <g id="Symbols" stroke="none" stroke-width="1" fill="none" fill-rule="evenodd">
        <g id="Brand-Bar" transform="translate(-1042.000000, -35.000000)">
            <g id="Group-7" transform="translate(1042.595900, 35.000000)">
                <path d="M0.336,29.5863 L3.0375702e-13,27.1563 L0.50025,27.1563 C0.774,28.31355 1.59975,29.19405 2.8515,29.19405 C3.78825,29.19405 4.72875,28.65405 4.72875,27.6048 C4.72875,25.6188 0.08925,24.96555 0.08925,22.3578 C0.08925,21.07305 1.263,20.14605 2.77875,20.14605 C3.516,20.14605 3.78975,20.26455 4.428,20.4558 C4.5345,20.4873 4.63275,20.5068 4.7445,20.5068 C4.86375,20.5068 4.8825,20.44755 4.94625,20.3628 L5.33775,20.3628 L5.6145,22.43205 L5.15625,22.43205 C4.7865,21.4818 3.98775,20.7258 2.9085,20.7258 C1.99875,20.7258 1.40625,21.24105 1.40625,21.96855 C1.40625,23.9223 6.0465,24.4938 6.0465,27.22905 C6.0465,28.7283 4.71675,29.8173 2.98125,29.8173 C2.568,29.8173 2.10375,29.71605 1.725,29.61855 L1.22925,29.48355 L1.059,29.4408 C1.01025,29.4303 0.98325,29.42655 0.972,29.42655 C0.85575,29.42655 0.8025,29.5008 0.7455,29.5863 L0.336,29.5863 Z" id="Fill-5" fill="#141414"></path>
                <path d="M9.3915,24.727575 L11.55675,24.727575 L10.455,21.811575 L9.3915,24.727575 Z M12.83025,28.152825 L11.88975,25.596825 L9.06,25.596825 C8.74275,26.455575 8.3835,27.381825 8.06775,28.271325 C8.007,28.442325 7.968,28.581825 7.968,28.659825 C7.968,28.920825 8.19675,29.078325 9.0225,29.078325 L9.36975,29.078325 L9.36975,29.586075 L5.79825,29.586075 L5.79825,29.080575 C6.93225,29.062575 6.96525,28.815075 7.36575,27.723825 L9.98175,20.582325 L9.8025,20.145825 L11.3145,20.145825 L14.36325,28.242825 C14.634,28.959075 14.8905,29.078325 15.57,29.078325 L15.687,29.078325 L15.687,29.586075 L11.47875,29.586075 L11.47875,29.078325 L11.97075,29.078325 C12.834,29.078325 12.98175,28.975575 12.98175,28.703325 C12.98175,28.508325 12.9015,28.329075 12.83025,28.152825 L12.83025,28.152825 Z" id="Fill-7" fill="#141414"></path>
                <path d="M25.946175,21.505575 L25.946175,29.687325 L25.404675,29.687325 L18.083175,22.027575 L18.083175,27.936825 C18.083175,28.899075 18.246675,29.078325 19.427175,29.078325 L19.543425,29.078325 L19.543425,29.586075 L15.956925,29.586075 L15.956925,29.078325 L16.130925,29.078325 C16.979925,29.078325 17.199675,28.811325 17.199675,28.226325 L17.199675,21.177075 C16.814925,20.927325 16.436175,20.880075 15.985425,20.867325 L15.985425,20.362575 L18.420675,20.362575 L25.062675,27.285825 L25.062675,21.823575 C25.062675,20.799075 24.541425,20.889825 23.645925,20.867325 L23.645925,20.362575 L27.261675,20.362575 L27.261675,20.870325 L27.144675,20.870325 C26.066925,20.870325 25.946175,21.051825 25.946175,21.505575" id="Fill-9" fill="#141414"></path>
                <path d="M30.203925,24.727575 L32.369175,24.727575 L31.267425,21.811575 L30.203925,24.727575 Z M33.642675,28.152825 L32.702175,25.596825 L29.873175,25.596825 C29.555175,26.455575 29.196675,27.381825 28.880175,28.271325 C28.819425,28.442325 28.780425,28.581825 28.780425,28.659825 C28.780425,28.920825 29.009175,29.078325 29.834925,29.078325 L30.182175,29.078325 L30.182175,29.586075 L26.610675,29.586075 L26.610675,29.080575 C27.744675,29.062575 27.777675,28.815075 28.178925,27.723825 L30.794175,20.582325 L30.614925,20.145825 L32.126925,20.145825 L35.175675,28.242825 C35.445675,28.959075 35.702925,29.078325 36.382425,29.078325 L36.499425,29.078325 L36.499425,29.586075 L32.291175,29.586075 L32.291175,29.078325 L32.783175,29.078325 C33.646425,29.078325 33.794175,28.975575 33.794175,28.703325 C33.794175,28.508325 33.713925,28.329075 33.642675,28.152825 L33.642675,28.152825 Z" id="Fill-11" fill="#141414"></path>
                <path d="M40.96185,24.6282 L39.5166,24.6282 L39.5166,27.5907 C39.5166,28.6137 39.8871,28.9632 41.04885,28.9632 C42.87585,28.9632 43.38885,27.84645 43.38885,26.76645 C43.38885,25.71795 42.58785,24.6282 40.96185,24.6282 M40.6731,20.7402 C40.38735,20.7402 39.87885,20.7642 39.5166,20.7792 L39.5166,24.12045 L40.9761,24.12045 C42.3246,24.12045 42.9411,23.6007 42.9411,22.56045 C42.9411,21.6177 42.3906,20.7402 40.6731,20.7402 M43.07085,24.30795 C44.2656,24.7617 44.9811,25.62495 44.9811,26.72295 C44.9811,27.9177 44.1441,29.58645 41.7426,29.58645 L36.33585,29.58645 L36.33585,29.0787 L36.78435,29.0787 C37.91985,29.0787 38.08485,28.84245 38.08485,28.0092 L38.08485,22.01145 C38.08485,21.21345 38.0031,20.86995 37.0881,20.86995 L36.4656,20.86995 L36.4656,20.3667 C37.1106,20.34345 37.75485,20.29845 38.3991,20.27595 C39.19635,20.24745 40.2966,20.23245 40.57185,20.23245 C41.84385,20.23245 42.9906,20.41845 43.5441,20.8182 C44.16285,21.2562 44.47485,21.7797 44.47485,22.5177 C44.47485,23.3037 43.9041,24.02595 43.07085,24.30795" id="Fill-13" fill="#141414"></path>
                <path d="M57.909975,27.2427 L58.422975,27.2427 L57.186975,29.58645 L50.538975,29.58645 L50.538975,29.0787 L51.132975,29.0787 C51.732225,29.0787 51.927225,28.9152 51.927225,28.24095 L51.927225,21.8382 C51.927225,21.13395 51.745725,20.8707 50.901975,20.8707 L50.582475,20.8707 L50.582475,20.36295 L55.079475,20.36295 L55.079475,20.8707 L54.428475,20.8707 C53.523225,20.8707 53.359725,20.94645 53.359725,21.7512 L53.359725,28.4142 C53.359725,28.73145 53.457975,28.8327 53.820975,28.8327 L55.946475,28.8327 C56.973975,28.8327 57.378975,27.97545 57.909975,27.2427" id="Fill-15" fill="#141414"></path>
                <path d="M64.0887,28.05315 C64.0887,28.83915 64.2657,29.0784 65.20095,29.0784 L65.3172,29.0784 L65.3172,29.58615 L61.57245,29.58615 L61.57245,29.0844 C62.5002,29.03865 62.6562,28.91265 62.6562,27.9519 L62.6562,21.7944 C62.6562,20.96415 62.31645,20.90415 61.57245,20.8644 L61.57245,20.36265 L65.3172,20.36265 L65.3172,20.8704 L65.20095,20.8704 C64.3407,20.8704 64.0887,21.03315 64.0887,21.92415 L64.0887,28.05315 Z" id="Fill-17" fill="#141414"></path>
                <path d="M48.27735,28.05315 C48.27735,28.83915 48.45435,29.0784 49.3896,29.0784 L49.50585,29.0784 L49.50585,29.58615 L45.7611,29.58615 L45.7611,29.0844 C46.68885,29.03865 46.84485,28.91265 46.84485,27.9519 L46.84485,21.7944 C46.84485,20.96415 46.5051,20.90415 45.7611,20.8644 L45.7611,20.36265 L49.50585,20.36265 L49.50585,20.8704 L49.3896,20.8704 C48.52935,20.8704 48.27735,21.03315 48.27735,21.92415 L48.27735,28.05315 Z" id="Fill-19" fill="#141414"></path>
                <path d="M76.153425,21.505575 L76.153425,29.687325 L75.611175,29.687325 L68.290425,22.027575 L68.290425,27.936825 C68.290425,28.899075 68.453925,29.078325 69.634425,29.078325 L69.750675,29.078325 L69.750675,29.586075 L66.164175,29.586075 L66.164175,29.078325 L66.338175,29.078325 C67.187175,29.078325 67.406925,28.811325 67.406925,28.226325 L67.406925,21.177075 C67.022175,20.927325 66.643425,20.880075 66.192675,20.867325 L66.192675,20.362575 L68.628675,20.362575 L75.269925,27.285825 L75.269925,21.823575 C75.269925,20.799075 74.747925,20.889825 73.853175,20.867325 L73.853175,20.362575 L77.468925,20.362575 L77.468925,20.870325 L77.351925,20.870325 C76.274175,20.870325 76.153425,21.051825 76.153425,21.505575" id="Fill-21" fill="#141414"></path>
                <path d="M86.018925,22.038825 L83.012175,29.817825 L82.130925,29.817825 L78.965175,21.924825 C78.613425,21.038325 78.472425,20.870325 77.656425,20.870325 L77.540175,20.870325 L77.540175,20.362575 L81.748425,20.362575 L81.748425,20.868075 C81.217425,20.880075 79.988175,20.790825 80.366925,21.706575 L82.857675,27.907575 L85.035675,22.215075 C85.194675,21.807825 85.272675,21.538575 85.272675,21.360825 C85.272675,21.054825 85.054425,20.870325 84.045675,20.870325 L83.929425,20.870325 L83.929425,20.362575 L87.515925,20.362575 L87.515925,20.870325 L87.398925,20.870325 C86.713425,20.870325 86.355675,21.168825 86.018925,22.038825" id="Fill-23" fill="#141414"></path>
                <path d="M93.869175,23.3547 L94.367175,23.3547 L94.367175,26.3337 L93.872175,26.3337 C93.788175,25.58895 93.782175,25.1922 92.993175,25.1922 L90.666675,25.1922 L90.666675,28.15395 C90.666675,28.74345 90.848925,28.8327 91.331175,28.8327 L93.557175,28.8327 C94.700175,28.8327 94.858425,28.18995 95.145675,27.1992 L95.624175,27.1992 L95.366925,29.58645 L87.470925,29.58645 L87.470925,29.0787 L87.992175,29.0787 C89.087925,29.0787 89.234925,28.80795 89.234925,28.0092 L89.234925,21.90945 C89.234925,21.15195 89.087175,20.8707 88.194675,20.8707 L87.759675,20.8707 L87.759675,20.36295 L94.924425,20.36295 L95.053425,22.6047 L94.569675,22.6047 C94.481175,22.0227 94.392675,21.11595 93.600675,21.11595 L90.666675,21.11595 L90.666675,24.43845 L93.137925,24.43845 C93.802425,24.43845 93.822675,23.8917 93.869175,23.3547" id="Fill-26" fill="#141414"></path>
                <path d="M96.96765,29.5863 L96.63165,27.1563 L97.13265,27.1563 C97.4049,28.31355 98.2314,29.19405 99.48315,29.19405 C100.4199,29.19405 101.36115,28.65405 101.36115,27.6048 C101.36115,25.6188 96.72165,24.96555 96.72165,22.3578 C96.72165,21.07305 97.8954,20.14605 99.4104,20.14605 C100.1484,20.14605 100.42215,20.26455 101.05965,20.4558 C101.16615,20.4873 101.2644,20.5068 101.3769,20.5068 C101.4954,20.5068 101.5149,20.44755 101.5779,20.3628 L101.97015,20.3628 L102.2469,22.43205 L101.7879,22.43205 C101.41815,21.4818 100.6194,20.7258 99.5409,20.7258 C98.6304,20.7258 98.0379,21.24105 98.0379,21.96855 C98.0379,23.9223 102.67815,24.4938 102.67815,27.22905 C102.67815,28.7283 101.3484,29.8173 99.6129,29.8173 C99.19965,29.8173 98.7354,29.71605 98.35665,29.61855 L97.8609,29.48355 L97.69065,29.4408 C97.64265,29.4303 97.61565,29.42655 97.60365,29.42655 C97.4874,29.42655 97.43415,29.5008 97.37715,29.5863 L96.96765,29.5863 Z" id="Fill-28" fill="#141414"></path>
                <path d="M111.218925,21.115875 L108.820425,21.115875 L108.820425,28.139625 C108.820425,28.849875 109.022175,29.078625 109.845675,29.078625 L110.497425,29.078625 L110.497425,29.586375 L105.710925,29.586375 L105.710925,29.078625 L106.362675,29.078625 C107.186175,29.078625 107.387925,28.849875 107.387925,28.139625 L107.387925,21.115875 L104.989425,21.115875 C104.182425,21.115875 104.120925,22.199625 104.032425,22.720125 L103.545675,22.720125 L103.799175,20.146125 L104.278425,20.146125 C104.314425,20.362875 104.404425,20.362875 104.627925,20.362875 L111.579675,20.362875 C111.798675,20.362875 111.893175,20.362125 111.929175,20.146125 L112.408425,20.146125 L112.662675,22.720125 L112.175925,22.720125 C112.086675,22.199625 112.025175,21.115875 111.218925,21.115875" id="Fill-30" fill="#141414"></path>
                <path d="M115.515375,22.1568 L115.148625,28.2753 C115.104375,29.0283 115.770375,29.0598 116.304375,29.08305 L116.304375,29.5863 L113.065875,29.5863 L113.065875,29.07855 L113.182125,29.07855 C114.145125,29.07855 114.252375,28.9293 114.322875,27.6393 L114.670875,22.0068 C114.725625,21.0843 114.754125,20.9103 113.802375,20.8488 L113.802375,20.3628 L116.175375,20.3628 L119.585625,27.50505 L122.980875,20.3628 L125.295375,20.3628 L125.295375,20.84655 C125.092125,20.8638 124.653375,20.8803 124.475625,20.9643 C124.381125,21.00855 124.327875,21.0768 124.341375,21.29655 L124.804125,27.8553 C124.849125,28.54005 124.902375,28.8168 125.034375,28.94505 C125.163375,29.0703 125.391375,29.07855 125.944125,29.07855 L126.061125,29.07855 L126.061125,29.5863 L122.113875,29.5863 L122.113875,29.07855 L122.230125,29.07855 C122.916375,29.07855 123.448875,28.8903 123.400125,28.24755 L123.005625,22.16355 L119.544375,29.5863 L119.063625,29.5863 L115.515375,22.1568 Z" id="Fill-32" fill="#141414"></path>
                <path d="M132.575025,23.3547 L133.073025,23.3547 L133.073025,26.3337 L132.578025,26.3337 C132.493275,25.58895 132.488025,25.1922 131.699025,25.1922 L129.372525,25.1922 L129.372525,28.15395 C129.372525,28.74345 129.554775,28.8327 130.037025,28.8327 L132.262275,28.8327 C133.405275,28.8327 133.563525,28.18995 133.851525,27.1992 L134.329275,27.1992 L134.072775,29.58645 L126.176775,29.58645 L126.176775,29.0787 L126.698025,29.0787 C127.793775,29.0787 127.940025,28.80795 127.940025,28.0092 L127.940025,21.90945 C127.940025,21.15195 127.792275,20.8707 126.900525,20.8707 L126.465525,20.8707 L126.465525,20.36295 L133.630275,20.36295 L133.759275,22.6047 L133.275525,22.6047 C133.186275,22.0227 133.097775,21.11595 132.305775,21.11595 L129.372525,21.11595 L129.372525,24.43845 L131.843775,24.43845 C132.507525,24.43845 132.528525,23.8917 132.575025,23.3547" id="Fill-34" fill="#141414"></path>
                <path d="M145.1415,21.505575 L145.1415,29.687325 L144.6,29.687325 L137.27925,22.027575 L137.27925,27.936825 C137.27925,28.899075 137.442,29.078325 138.6225,29.078325 L138.73875,29.078325 L138.73875,29.586075 L135.15225,29.586075 L135.15225,29.078325 L135.32625,29.078325 C136.17525,29.078325 136.395,28.811325 136.395,28.226325 L136.395,21.177075 C136.01025,20.927325 135.6315,20.880075 135.18075,20.867325 L135.18075,20.362575 L137.61675,20.362575 L144.258,27.285825 L144.258,21.823575 C144.258,20.799075 143.736,20.889825 142.84125,20.867325 L142.84125,20.362575 L146.457,20.362575 L146.457,20.870325 L146.34,20.870325 C145.26225,20.870325 145.1415,21.051825 145.1415,21.505575" id="Fill-36" fill="#141414"></path>
                <path d="M154.5945,21.115875 L152.19675,21.115875 L152.19675,28.139625 C152.19675,28.849875 152.3985,29.078625 153.222,29.078625 L153.873,29.078625 L153.873,29.586375 L149.0865,29.586375 L149.0865,29.078625 L149.73825,29.078625 C150.56175,29.078625 150.7635,28.849875 150.7635,28.139625 L150.7635,21.115875 L148.365,21.115875 C147.55875,21.115875 147.4965,22.199625 147.408,22.720125 L146.92125,22.720125 L147.1755,20.146125 L147.654,20.146125 C147.69,20.362875 147.78,20.362875 148.0035,20.362875 L154.95525,20.362875 C155.17425,20.362875 155.2695,20.362125 155.30475,20.146125 L155.784,20.146125 L156.039,22.720125 L155.5515,22.720125 C155.46225,22.199625 155.40075,21.115875 154.5945,21.115875" id="Fill-38" fill="#141414"></path>
                <path d="M157.2081,29.5863 L156.8721,27.1563 L157.3731,27.1563 C157.6461,28.31355 158.4726,29.19405 159.7236,29.19405 C160.66035,29.19405 161.60085,28.65405 161.60085,27.6048 C161.60085,25.6188 156.9621,24.96555 156.9621,22.3578 C156.9621,21.07305 158.13585,20.14605 159.65085,20.14605 C160.38885,20.14605 160.6626,20.26455 161.3001,20.4558 C161.4066,20.4873 161.50485,20.5068 161.6166,20.5068 C161.73585,20.5068 161.7546,20.44755 161.8191,20.3628 L162.2106,20.3628 L162.48735,22.43205 L162.02835,22.43205 C161.6586,21.4818 160.85985,20.7258 159.78135,20.7258 C158.87085,20.7258 158.27835,21.24105 158.27835,21.96855 C158.27835,23.9223 162.9186,24.4938 162.9186,27.22905 C162.9186,28.7283 161.58885,29.8173 159.85335,29.8173 C159.44085,29.8173 158.97585,29.71605 158.5971,29.61855 L158.10135,29.48355 L157.9311,29.4408 C157.8831,29.4303 157.8561,29.42655 157.8441,29.42655 C157.72785,29.42655 157.6746,29.5008 157.6176,29.5863 L157.2081,29.5863 Z" id="Fill-40" fill="#141414"></path>
                <g id="Group-44" transform="translate(0.303075, 0.000000)">
                    <mask id="mask-2" fill="white">
                        <use xlink:href="#path-1"></use>
                    </mask>
                    <g id="Clip-43"></g>
                    <path d="M29.9004,2.400225 C29.39715,2.400225 29.0454,2.014725 29.0454,1.545225 C29.0454,1.059975 29.39715,0.690975 29.9004,0.690975 C30.38565,0.690975 30.7539,1.059975 30.7539,1.545225 C30.7539,2.014725 30.38565,2.400225 29.9004,2.400225 L29.9004,2.400225 Z M28.5414,4.436475 C28.0389,4.436475 27.68715,4.050975 27.68715,3.581475 C27.68715,3.096225 28.0389,2.727975 28.5414,2.727975 C29.0274,2.727975 29.39565,3.096225 29.39565,3.581475 C29.39565,4.050975 29.0274,4.436475 28.5414,4.436475 L28.5414,4.436475 Z M38.1174,3.582225 C38.1174,3.096975 38.4684,2.727975 38.97165,2.727975 C39.4569,2.727975 39.82515,3.096975 39.82515,3.582225 C39.82515,4.050975 39.4569,4.436475 38.97165,4.436475 C38.4684,4.436475 38.1174,4.050975 38.1174,3.582225 L38.1174,3.582225 Z M36.55965,2.727975 C37.0449,2.727975 37.4139,3.096975 37.4139,3.582225 C37.4139,4.050975 37.0449,4.436475 36.55965,4.436475 C36.0579,4.436475 35.7054,4.050975 35.7054,3.582225 C35.7054,3.096975 36.0579,2.727975 36.55965,2.727975 L36.55965,2.727975 Z M73.8114,5.808225 C74.8464,5.900475 75.26265,5.931225 76.00365,5.931225 C76.73265,5.931225 77.11065,5.900475 78.14715,5.808225 L78.14715,6.303975 C77.01765,6.349725 76.8474,6.488475 76.8474,7.371975 L76.8474,9.537225 C76.8474,10.697475 76.64565,12.352725 76.1049,12.972225 C75.4539,13.715475 74.7354,14.101725 73.5129,14.101725 C72.2544,14.101725 71.0649,13.695225 70.38915,12.918225 C69.69765,13.715475 69.0144,14.101725 67.79115,14.101725 C66.53265,14.101725 65.34465,13.695975 64.66815,12.920475 C63.9969,13.695975 63.02565,14.081475 61.84665,14.100975 L41.5659,14.101725 C40.23465,14.101725 39.21315,13.652475 38.56215,12.786225 C38.44365,12.627225 38.34765,12.395475 38.2674,12.122475 C38.16015,12.477225 38.02365,12.776475 37.85265,12.972225 C37.2024,13.715475 35.9709,14.101725 34.7484,14.101725 C34.6254,14.101725 34.03965,14.098725 33.90165,14.093475 C32.7264,14.042475 30.6444,13.768725 29.7864,13.101975 C29.1144,13.755975 27.9999,14.091225 26.85315,14.091225 C26.7294,14.091225 24.88965,14.087475 24.7524,14.081475 L24.85965,14.067975 L23.54265,14.067975 C22.4379,14.067975 21.80115,13.560975 21.2319,12.824475 C20.76165,13.812975 19.72665,14.613975 18.1869,14.663475 L17.9094,14.665725 C16.3839,14.665725 15.55515,13.878975 15.05415,13.242225 C14.6694,13.661475 14.1834,14.144475 13.2954,14.144475 L12.61665,14.154975 L9.90165,14.154975 C9.66915,14.154975 8.6619,13.767975 8.01315,13.024725 C7.47165,12.405225 7.2699,11.755725 7.2699,10.594725 L7.2699,5.178225 C7.2699,4.294725 7.0989,4.155975 5.97015,4.110225 L5.97015,3.614475 C7.00665,3.707475 7.4094,3.738225 8.13615,3.738225 C8.87865,3.738225 9.2364,3.707475 10.27215,3.614475 L10.27215,4.110225 C9.1419,4.155975 8.9724,4.294725 8.9724,5.178225 L8.9724,10.873725 C8.9724,11.739975 9.09615,12.219225 9.42015,12.606975 C9.83865,13.086975 10.47465,13.334475 11.29365,13.334475 L12.35415,13.334475 L13.03815,13.326225 C13.18815,13.293225 13.47315,13.242225 13.67415,13.075725 C14.17665,12.589725 14.4444,11.584725 14.6619,10.747725 C15.06465,9.190725 15.65715,7.649475 18.1194,7.649475 L18.47565,7.650975 C20.43465,7.720725 21.6339,9.719475 21.6339,11.233725 C21.6339,11.450475 21.6159,11.652225 21.58365,11.835975 C21.86715,12.623475 22.4544,13.326225 23.20815,13.326225 L24.1434,13.326225 C24.78615,13.316475 26.0439,13.281225 26.1534,13.281225 C26.97315,13.281225 28.10715,13.034475 28.52715,12.553725 C28.8504,12.167475 28.97415,10.683225 28.97415,9.816225 L28.97415,7.371975 C28.97415,6.488475 28.80465,6.349725 27.6744,6.303975 L27.6744,5.808225 C28.7109,5.900475 29.0544,5.931225 29.79465,5.931225 C30.5244,5.931225 30.9249,5.900475 31.96215,5.808225 L31.96215,6.303975 C30.83115,6.349725 30.6624,6.488475 30.6624,7.371975 L30.6624,9.537225 L30.66165,9.628725 C30.67965,10.545975 30.77715,11.823975 31.0149,12.213975 C31.33365,12.784725 32.1054,13.163475 32.95515,13.257975 C33.09465,13.273725 33.90765,13.281225 34.0494,13.281225 C34.87065,13.281225 36.00465,13.034475 36.4224,12.553725 C36.7479,12.167475 36.87165,10.683225 36.87165,9.816225 L36.87165,7.371975 C36.87165,6.488475 36.70065,6.349725 35.57115,6.303975 L35.57115,5.808225 C36.60915,5.900475 36.98565,5.931225 37.7289,5.931225 C38.4564,5.931225 38.8584,5.900475 39.8949,5.808225 L39.8949,6.303975 C38.7654,6.349725 38.59515,6.488475 38.59515,7.371975 L38.59515,9.537225 C38.59515,9.826725 38.58315,10.146225 38.5554,10.473975 C38.6049,11.203725 38.70315,11.934975 38.87265,12.213975 C39.2439,12.879225 40.1109,13.281225 41.11665,13.281225 L61.4409,13.280475 C62.2119,13.259475 62.81115,13.014225 63.20865,12.553725 C63.5349,12.167475 63.6594,10.683225 63.6594,9.816225 L63.6594,7.371975 C63.6594,6.488475 63.48915,6.349725 62.3589,6.303975 L62.3589,5.808225 C63.3954,5.900475 63.8829,5.931225 64.62465,5.931225 C65.35215,5.931225 65.6349,5.900475 66.67065,5.808225 L66.67065,6.303975 C65.5419,6.349725 65.37165,6.488475 65.37165,7.371975 L65.37165,9.537225 C65.37165,10.419225 65.25615,11.586225 64.9614,12.368475 C65.3574,12.939225 66.0549,13.281225 66.9789,13.281225 C67.79865,13.281225 68.52315,13.034475 68.9409,12.553725 C69.26565,12.167475 69.38865,10.683225 69.38865,9.816225 L69.38865,7.371975 C69.38865,6.488475 69.21915,6.349725 68.08965,6.303975 L68.08965,5.808225 C69.12615,5.900475 69.4809,5.931225 70.2234,5.931225 C70.95165,5.931225 71.35365,5.900475 72.39015,5.808225 L72.39015,6.303975 C71.25915,6.349725 71.0904,6.488475 71.0904,7.371975 L71.0904,9.537225 C71.0904,10.418475 70.97415,11.583225 70.6809,12.364725 C71.0754,12.937725 71.7744,13.281225 72.70065,13.281225 C73.51965,13.281225 74.2449,13.034475 74.66265,12.553725 C74.9874,12.167475 75.11115,10.683225 75.11115,9.816225 L75.11115,7.371975 C75.11115,6.488475 74.9409,6.349725 73.8114,6.303975 L73.8114,5.808225 Z M17.95965,14.079225 C19.0134,14.079225 19.91865,12.840975 19.91865,11.316975 C19.91865,9.726225 19.33215,8.235225 18.10965,8.184975 C16.97115,8.184975 16.63515,9.390975 16.3014,10.697475 L16.2669,10.798725 C16.1169,11.367225 15.9654,11.986725 15.64815,12.589725 C15.6819,12.606225 15.7149,12.655725 15.7314,12.690225 C16.16715,13.226475 16.92165,14.079225 17.95965,14.079225 L17.95965,14.079225 Z M92.12115,3.614475 C93.1584,3.707475 93.44115,3.738225 94.18365,3.738225 C94.9119,3.738225 95.42265,3.707475 96.45915,3.614475 L96.45915,4.110225 C95.32965,4.155975 95.15865,4.294725 95.15865,5.178225 L95.15865,10.594725 C95.15865,11.755725 94.95765,12.405225 94.4169,13.024725 C93.7869,13.743225 92.8269,14.127975 91.65765,14.153475 L91.5489,14.154975 C90.2169,14.154975 88.9449,13.704975 88.29465,12.838725 C88.25265,12.783975 88.2174,12.726975 88.18065,12.671475 C88.12965,12.913725 88.0344,13.117725 87.8619,13.307475 C87.59865,13.571475 87.2889,13.787475 86.9319,13.911225 C86.49915,14.065725 85.58115,14.143725 85.0239,14.143725 C84.8079,14.143725 78.9954,14.143725 78.71565,14.112225 L78.71565,13.524225 C78.8304,13.535475 79.54065,13.542225 80.4219,13.547475 C81.1449,13.467225 81.2514,13.272225 81.2514,12.516225 L81.2514,5.159475 C81.2514,4.276725 81.0969,4.137225 79.9524,4.091475 L79.9524,3.595725 C80.9889,3.688725 81.3834,3.704475 82.11015,3.704475 C82.8384,3.704475 83.2449,3.688725 84.28065,3.595725 L84.28065,4.091475 C83.1354,4.137225 82.98015,4.276725 82.98015,5.159475 L82.98015,12.516225 C82.98015,13.296225 83.0889,13.479975 83.8749,13.554975 L84.69315,13.555725 C85.66815,13.555725 86.4159,13.059975 86.4159,11.636475 L86.4159,5.130975 C86.4159,4.248225 86.26065,4.109475 85.1319,4.062975 L85.1319,3.567975 C86.15265,3.660225 86.6184,3.690975 87.34665,3.675225 C88.0899,3.675225 88.49265,3.660225 89.52915,3.567975 L89.52915,4.062975 C88.42815,4.107225 88.24515,4.244475 88.2309,5.038725 C88.2414,5.082225 88.2489,5.127975 88.2489,5.178225 L88.2489,10.392975 C88.2489,11.306475 88.33965,11.832225 88.60365,12.266475 C88.9764,12.931725 90.09315,13.334475 91.09965,13.334475 C91.92015,13.334475 92.55465,13.086975 92.97165,12.606975 C93.29865,12.219225 93.4224,11.739975 93.4224,10.873725 L93.4224,5.178225 C93.4224,4.294725 93.2514,4.155975 92.12115,4.110225 L92.12115,3.614475 Z M1.0854,5.919975 C2.10765,6.012975 2.50515,6.043725 3.2334,6.027975 C3.97515,6.027975 4.3734,6.012975 5.41065,5.919975 L5.41065,6.415725 C4.26615,6.461475 4.1094,6.600975 4.1094,7.482975 L4.1094,13.196475 C4.1094,14.403975 3.9564,15.007725 3.49065,15.518475 C3.22815,15.780975 2.9184,15.997725 2.56365,16.122225 C2.12865,16.276725 1.73715,16.353975 1.1814,16.353975 C0.96465,16.353975 0.7449,16.353975 0.4674,16.322475 L0.4674,15.735225 C0.79215,15.765975 0.86865,15.765975 1.0554,15.765975 C2.0304,15.765975 2.37015,15.270225 2.37015,13.845975 L2.37015,7.482975 C2.37015,6.600975 2.21565,6.461475 1.0854,6.415725 L1.0854,5.919975 Z M161.40915,6.087225 C162.1374,6.087225 162.4944,6.055725 163.53165,5.962725 L163.53165,6.458475 C162.4014,6.504975 162.2319,6.643725 162.2319,7.526475 L162.2319,10.590225 C162.2319,11.751225 162.03015,12.401475 161.48865,13.020975 C160.85565,13.743975 160.2444,14.129475 159.0654,14.148975 L158.96865,14.150475 C157.69815,14.150475 156.49665,13.736475 155.8239,12.945225 C155.1309,13.743975 154.5174,14.129475 153.33915,14.148975 L153.24315,14.150475 C151.9674,14.150475 150.76215,13.732725 150.09165,12.936225 L150.0249,13.020975 C149.39265,13.743975 148.79265,14.129475 147.61365,14.148975 L132.22065,14.150475 C130.89015,14.150475 129.74715,13.701225 129.0984,12.834225 L129.0099,12.708225 C128.95365,12.819225 128.8869,12.929475 128.7924,13.036725 C128.14365,13.779225 126.6369,14.166225 125.4144,14.166225 C125.29065,14.166225 124.7784,14.163225 124.63965,14.157225 C123.2949,14.100225 121.3704,13.747725 120.66915,12.850725 C120.20565,12.257475 120.0654,11.627475 120.0654,10.466475 L120.0654,8.014725 L120.0744,5.189475 C120.0744,4.305975 119.9199,4.167975 118.7739,4.122225 L118.7739,3.625725 C119.8119,3.718725 120.13215,3.733725 120.86115,3.733725 C121.58865,3.733725 122.06415,3.718725 123.10215,3.625725 L123.10215,4.122225 C121.9569,4.167975 121.80165,4.305975 121.80165,5.189475 L121.81065,10.814475 C121.8369,11.481975 121.9374,11.914725 122.15865,12.277725 C122.4774,12.849975 123.2499,13.227225 124.0989,13.322475 C124.2384,13.338225 124.5234,13.345725 124.66515,13.345725 C125.4849,13.345725 126.61965,13.098225 127.0374,12.618225 C127.36215,12.231975 127.4859,11.751975 127.4859,10.884975 L127.4859,7.542225 C127.4859,6.659475 127.31715,6.519975 126.18615,6.474225 L126.18615,5.979225 C127.2234,6.072225 127.6374,6.102225 128.3799,6.102225 C129.10665,6.102225 129.4389,6.072225 130.47615,5.979225 L130.47615,6.474225 C129.34665,6.519975 129.17715,6.659475 129.17715,7.542225 L129.17715,10.605975 C129.17715,11.065725 129.2004,11.442975 129.1974,11.772225 C129.25065,11.952975 129.31815,12.113475 129.4089,12.261975 C129.78015,12.927975 130.64565,13.329975 131.65215,13.329975 L146.8464,13.328475 C147.6159,13.307475 148.2159,13.062225 148.6164,12.602475 C148.9404,12.215475 149.0649,11.735475 149.0649,10.868475 L149.0649,7.526475 C149.0649,6.643725 148.8939,6.504975 147.76515,6.458475 L147.76515,5.962725 C148.80165,6.055725 149.17965,6.087225 149.92215,6.087225 C150.6489,6.087225 151.0314,6.055725 152.06715,5.962725 L152.06715,6.458475 C150.9384,6.504975 150.76815,6.643725 150.76815,7.526475 L150.76815,10.590225 C150.76815,11.395725 150.66765,11.952975 150.4269,12.427725 C150.8289,12.951225 151.6299,13.275225 152.47515,13.320225 C153.2049,13.275225 153.9669,13.033725 154.34115,12.602475 C154.6674,12.215475 154.7904,11.735475 154.7904,10.868475 L154.7904,7.526475 C154.7904,6.643725 154.62165,6.504975 153.49065,6.458475 L153.49065,5.962725 C154.5279,6.055725 154.94115,6.087225 155.6844,6.087225 C156.41265,6.087225 156.7689,6.055725 157.8054,5.962725 L157.8054,6.458475 C156.6759,6.504975 156.5064,6.643725 156.5064,7.526475 L156.5064,10.590225 C156.5064,11.403225 156.40365,11.964225 156.1584,12.440475 C156.5559,12.970725 157.29315,13.293225 158.1504,13.323225 C158.8944,13.285725 159.68265,13.044225 160.06815,12.602475 C160.3929,12.215475 160.51665,11.735475 160.51665,10.868475 L160.51665,7.526475 C160.51665,6.643725 160.34565,6.504975 159.21615,6.458475 L159.21615,5.962725 C160.2534,6.055725 160.6674,6.087225 161.40915,6.087225 L161.40915,6.087225 Z M128.35365,4.437975 C127.8504,4.437975 127.4994,4.052475 127.4994,3.582975 C127.4994,3.096975 127.8504,2.729475 128.35365,2.729475 C128.8389,2.729475 129.20715,3.096975 129.20715,3.582975 C129.20715,4.052475 128.8389,4.437975 128.35365,4.437975 L128.35365,4.437975 Z M100.93515,9.097725 C100.93515,8.214975 100.7649,8.076225 99.63465,8.030475 L99.63465,7.534725 C100.3779,7.581225 100.67265,7.596225 101.18415,7.596225 C101.70915,7.596225 103.20165,7.581225 103.9779,7.534725 L103.9779,8.030475 C102.83115,8.076225 102.6774,8.214975 102.6774,9.097725 L102.6774,12.644475 C102.6774,13.557975 102.7689,14.084475 103.0329,14.517975 C103.39215,15.160725 104.3289,15.558225 105.2979,15.583725 L105.65265,15.585225 C106.47165,15.585225 107.10615,15.337725 107.52315,14.857725 C107.84865,14.470725 107.97315,13.991475 107.97315,13.123725 L107.97315,5.189475 C107.97315,4.305975 107.8029,4.167975 106.6734,4.122225 L106.6734,3.625725 C107.7099,3.718725 108.4119,3.749475 109.15515,3.749475 C109.88265,3.749475 109.9374,3.718725 110.9754,3.625725 L110.9754,4.122225 C109.8444,4.167975 109.6749,4.305975 109.6749,5.189475 L109.6749,11.613975 C109.73115,11.870475 109.8129,12.084225 109.93065,12.277725 C110.30115,12.943725 111.1689,13.345725 112.17615,13.345725 C112.2429,13.345725 112.9464,13.344225 113.0124,13.340475 C113.73465,13.302975 114.30015,13.056975 114.68265,12.618225 C115.00815,12.231975 115.1319,11.751975 115.1319,10.884975 L115.1319,7.542225 C115.1319,6.659475 114.9609,6.519975 113.83215,6.474225 L113.83215,5.979225 C114.79665,6.066225 115.12965,6.102225 115.96215,6.102225 C116.68965,6.102225 117.12165,6.072225 118.1574,5.979225 L118.1574,6.474225 C117.0279,6.519975 116.85765,6.659475 116.85765,7.542225 L116.85765,10.605975 C116.85765,11.766975 116.65665,12.417225 116.1159,13.036725 C115.51815,13.718475 114.6219,14.100225 113.5329,14.158725 C113.4354,14.163975 112.72365,14.166225 112.6239,14.166225 C111.32565,14.166225 110.3259,13.736475 109.6734,12.912225 C109.66515,14.029725 109.4634,14.669475 108.9309,15.275475 C108.2814,16.018725 107.2749,16.405725 106.05315,16.405725 L104.58315,16.404225 C103.2879,16.386975 102.1749,15.938475 101.5389,15.090975 C101.0904,14.487225 100.93515,13.867725 100.93515,12.705975 L100.93515,9.097725 Z M30.40515,3.581475 C30.40515,3.096225 30.75615,2.727975 31.25865,2.727975 C31.74465,2.727975 32.11215,3.096225 32.11215,3.581475 C32.11215,4.050975 31.74465,4.436475 31.25865,4.436475 C30.75615,4.436475 30.40515,4.050975 30.40515,3.581475 L30.40515,3.581475 Z M114.3444,17.007225 C113.8419,17.007225 113.4909,16.621725 113.4909,16.152225 C113.4909,15.666225 113.8419,15.298725 114.3444,15.298725 C114.8289,15.298725 115.1979,15.666225 115.1979,16.152225 C115.1979,16.621725 114.8289,17.007225 114.3444,17.007225 L114.3444,17.007225 Z" id="Fill-42" fill="#A28B5B" mask="url(#mask-2)"></path>
                </g>
            </g>
        </g>
    </g>
</svg>