<svg width="42" height="42" viewBox="0 0 42 42" fill="none" xmlns="http://www.w3.org/2000/svg">
<circle cx="21" cy="21" r="21" fill="#3E5EC0" fill-opacity="0.2"/>
<path d="M29.6172 17.45C28.5672 12.83 24.5372 10.75 20.9972 10.75C20.9972 10.75 20.9972 10.75 20.9872 10.75C17.4572 10.75 13.4172 12.82 12.3672 17.44C11.1972 22.6 14.3572 26.97 17.2172 29.72C18.2772 30.74 19.6372 31.25 20.9972 31.25C22.3572 31.25 23.7172 30.74 24.7672 29.72C27.6272 26.97 30.7872 22.61 29.6172 17.45ZM20.9972 22.46C19.2572 22.46 17.8472 21.05 17.8472 19.31C17.8472 17.57 19.2572 16.16 20.9972 16.16C22.7372 16.16 24.1472 17.57 24.1472 19.31C24.1472 21.05 22.7372 22.46 20.9972 22.46Z" fill="#253A7B"/>
</svg>
