<svg width="56" height="56" viewBox="0 0 56 56" fill="none" xmlns="http://www.w3.org/2000/svg">
<path d="M50.4895 13.4912L34.3776 2.20592C29.986 -0.874426 23.2448 -0.706406 19.021 2.56996L5.00699 13.5192C2.20979 15.7034 0 20.184 0 23.7124V43.0345C0 50.1754 5.79021 56 12.9231 56H43.0769C50.2098 56 56 50.2033 56 43.0625V24.0764C56 20.296 53.5664 15.6474 50.4895 13.4912ZM30.0979 44.7987C30.0979 45.9469 29.1469 46.899 28 46.899C26.8531 46.899 25.9021 45.9469 25.9021 44.7987V36.3978C25.9021 35.2497 26.8531 34.2976 28 34.2976C29.1469 34.2976 30.0979 35.2497 30.0979 36.3978V44.7987Z" fill="#495CBD"/>
</svg>
