<svg width="56" height="48" viewBox="0 0 56 48" fill="none" xmlns="http://www.w3.org/2000/svg">
<path fill-rule="evenodd" clip-rule="evenodd" d="M16.7492 23.1404C17.984 22.0778 19.3774 21.2189 20.8649 20.5716C20.8346 20.542 20.8045 20.5122 20.7745 20.4823C19.6566 19.3643 18.8265 18.0213 18.3276 16.5584C18.0328 16.4846 17.7342 16.4188 17.432 16.3612C17.6821 16.2631 17.9263 16.1533 18.1641 16.0327C17.9122 15.1383 17.7814 14.2053 17.7814 13.2563C17.7814 10.5383 18.8529 7.95181 20.7745 6.03025C21.1711 5.63371 21.5961 5.27345 22.0447 4.95119C21.6216 4.02664 21.0372 3.1913 20.3274 2.48151C18.7943 0.948395 16.6762 0 14.3366 0C11.997 0 9.87891 0.948362 8.34579 2.48151C6.81267 4.01467 5.86431 6.13274 5.86431 8.4723C5.86431 10.8119 6.81267 12.93 8.34579 14.4631C9.16309 15.2804 10.1466 15.9315 11.2412 16.3612C8.5368 16.8761 6.11801 18.0512 4.2247 19.6805C1.61448 21.9268 0 25.0342 0 28.4699V40.1524C0 40.8421 0.279617 41.4667 0.731636 41.9187C1.18369 42.3708 1.80821 42.6504 2.49798 42.6504H11.9171V33.2539C11.917 29.2883 13.7687 25.7055 16.7492 23.1404Z" fill="#495CBD"/>
<path fill-rule="evenodd" clip-rule="evenodd" d="M51.7731 19.6805C49.8798 18.0512 47.4611 16.8761 44.7566 16.3612C45.8513 15.9314 46.8347 15.2804 47.652 14.4631C49.1852 12.93 50.1334 10.8119 50.1334 8.4723C50.1334 6.13274 49.1852 4.01463 47.652 2.48151C46.1189 0.948396 44.0007 0 41.6612 0C39.3217 0 37.2035 0.948363 35.6705 2.48151C34.9606 3.1913 34.3762 4.02664 33.9531 4.95119C34.4018 5.27345 34.8268 5.63371 35.2232 6.03025C37.1448 7.95185 38.2164 10.5383 38.2164 13.2563C38.2164 14.2054 38.0856 15.1383 37.8337 16.0327C38.0715 16.1533 38.3158 16.263 38.5658 16.3612C38.2636 16.4188 37.9649 16.4846 37.6702 16.5584C37.1714 18.0214 36.3411 19.3643 35.2232 20.4823C35.1933 20.5122 35.1632 20.542 35.1329 20.5716C36.6204 21.2189 38.0138 22.0778 39.2486 23.1404C42.2291 25.7055 44.0808 29.2883 44.0808 33.2539V42.6504H53.4999C54.1897 42.6504 54.8141 42.3708 55.2661 41.9187C55.7182 41.4666 55.9978 40.8422 55.9978 40.1524V28.4699C55.9978 25.0342 54.3833 21.9268 51.7731 19.6805Z" fill="#495CBD"/>
<path fill-rule="evenodd" clip-rule="evenodd" d="M38.1127 24.4637C36.2194 22.8344 33.8005 21.6593 31.0962 21.1444C32.1908 20.7145 33.1743 20.0635 33.9916 19.2463C35.5246 17.7131 36.473 15.5949 36.473 13.2555C36.473 10.9159 35.5246 8.7978 33.9916 7.26468C32.4584 5.73157 30.3403 4.7832 28.0008 4.7832C25.6611 4.7832 23.5431 5.73153 22.01 7.26468C20.4768 8.7978 19.5285 10.9159 19.5285 13.2555C19.5285 15.595 20.4768 17.7131 22.01 19.2463C22.8272 20.0635 23.8107 20.7145 24.9053 21.1444C22.2009 21.6593 19.7821 22.8344 17.8889 24.4637C15.2786 26.71 13.6641 29.8173 13.6641 33.2531V44.9355C13.6641 45.6253 13.9437 46.2498 14.3958 46.7019C14.8478 47.1539 15.4723 47.4336 16.1621 47.4336H39.8394C40.5292 47.4336 41.1537 47.154 41.6057 46.7019C42.0578 46.2498 42.3374 45.6253 42.3374 44.9355V33.2531C42.3374 29.8173 40.7229 26.71 38.1127 24.4637Z" fill="#495CBD"/>
</svg>
