<svg width="55" height="56" viewBox="0 0 55 56" fill="none" xmlns="http://www.w3.org/2000/svg">
<path d="M54.9028 7C54.9028 3.13997 51.7629 0 47.9028 0H7C3.13998 0 1.63776e-06 3.13997 1.63776e-06 7C0.000525704 10.3879 -0.00189778 -5.27275 0.00512859 40.1334C0.00512859 43.9833 3.13143 47.1334 7.00513 47.1334H20.4748L19.3998 51.3333H15.7021C14.4136 51.3333 13.3688 52.3781 13.3688 53.6667C13.3688 54.9552 14.4136 56 15.7021 56H39.2007C40.4893 56 41.534 54.9552 41.534 53.6667C41.534 52.3781 40.4893 51.3333 39.2007 51.3333H35.4902L34.415 47.1334H47.9082C51.7583 47.1334 54.9082 43.9833 54.9082 40.1334C54.9025 5.06929 54.9029 7.26825 54.9028 7ZM4.66667 7C4.66667 5.7137 5.71371 4.66667 7 4.66667H47.9028C49.1891 4.66667 50.2362 5.7137 50.2362 7V33.6388H4.66667V7Z" fill="#495CBD"/>
<path d="M16.8867 15.6536C15.9753 16.565 15.9753 18.0416 16.8867 18.953C17.7982 19.8645 19.2747 19.8645 20.1862 18.953C24.7344 14.4049 32.1377 14.4049 36.6859 18.953C37.5973 19.8645 39.0739 19.8645 39.9854 18.953C40.8968 18.0416 40.8968 16.565 39.9854 15.6536C33.6165 9.28475 23.2555 9.28475 16.8867 15.6536Z" fill="#495CBD"/>
<path d="M23.4805 22.2533C22.569 23.1648 22.569 24.6413 23.4805 25.5528C24.3919 26.4642 25.8685 26.4642 26.7799 25.5528C27.688 24.6436 29.1702 24.6436 30.0806 25.5528C30.992 26.4642 32.4686 26.4643 33.38 25.5528C34.2915 24.6413 34.2915 23.1648 33.38 22.2533C30.6502 19.5235 26.2103 19.5212 23.4805 22.2533Z" fill="#495CBD"/>
</svg>
