<svg width="270" height="48" viewBox="0 0 270 48" fill="none" xmlns="http://www.w3.org/2000/svg">
<g clip-path="url(#clip0_13_5031)">
<mask id="mask0_13_5031" style="mask-type:luminance" maskUnits="userSpaceOnUse" x="0" y="0" width="270" height="48">
<path d="M269.455 0H0V48H269.455V0Z" fill="white"/>
</mask>
<g mask="url(#mask0_13_5031)">
<path d="M0.101562 26.2662H6.24547C10.9318 26.2662 14.4458 29.7925 14.4458 34.839C14.4458 39.8853 10.9318 43.4118 6.24547 43.4118H0.101562V26.2693V26.2662ZM6.12507 40.2949C9.35388 40.2949 11.0269 38.0742 11.0269 34.839C11.0269 31.6038 9.35388 29.3829 6.12507 29.3829H3.37472V40.2981H6.12507V40.2949ZM28.0486 43.4085H24.8452V41.6934C24.1512 42.8037 22.9091 43.6485 21.0428 43.6485C18.4858 43.6485 16.3343 42.0549 16.3343 38.2405V30.8517H19.5378V37.7094C19.5378 39.543 20.5169 40.7526 22.193 40.7526C23.8692 40.7526 24.8483 39.5461 24.8483 37.7094V30.8517H28.0518V43.4085H28.0486ZM33.4891 26.2662V32.5446H33.562C33.8725 31.8438 35.3079 30.6117 37.5322 30.6117C40.4252 30.6117 43.5082 32.7846 43.5082 37.1301C43.5082 41.4757 40.4252 43.6485 37.5322 43.6485C35.3079 43.6485 33.8757 42.4165 33.562 41.7157H33.4891V43.4053H30.2856V26.2629H33.4891V26.2662ZM36.8827 40.7526C38.6761 40.7526 40.3492 39.4725 40.3492 37.1301C40.3492 34.7877 38.6761 33.5077 36.8827 33.5077C35.0892 33.5077 33.4162 34.7622 33.4162 37.1301C33.4162 39.4981 35.0892 40.7526 36.8827 40.7526ZM44.5221 37.1301C44.5221 32.7846 47.6052 30.6117 50.4981 30.6117C52.7225 30.6117 54.1547 31.8438 54.4684 32.5446H54.5412V30.855H57.7447V43.4118H54.5412V41.7222H54.4684C54.1579 42.423 52.7225 43.6549 50.4981 43.6549C47.6052 43.6549 44.5221 41.4822 44.5221 37.1365V37.1301ZM51.1446 40.7526C52.9379 40.7526 54.6109 39.4981 54.6109 37.1301C54.6109 34.7622 52.9379 33.5077 51.1446 33.5077C49.3511 33.5077 47.6781 34.7877 47.6781 37.1301C47.6781 39.4725 49.3511 40.7526 51.1446 40.7526ZM61.7815 25.3957C62.7131 25.3957 63.5274 26.2182 63.5274 27.207C63.5274 28.1958 62.7131 28.9926 61.7815 28.9926C60.85 28.9926 60.0356 28.1701 60.0356 27.207C60.0356 26.2437 60.8247 25.3957 61.7815 25.3957ZM60.1782 30.8517H63.3816V43.4085H60.1782V30.8517ZM70.7931 26.2629H74.4021L79.9503 39.1813L85.4985 26.2629H89.1076V43.4053H85.8312V32.6373H85.7108L81.1448 43.4053H78.7304L74.1865 32.6373H74.0662V43.4053H70.7899V26.2629H70.7931ZM103.328 43.4053H100.125V41.6901C99.4308 42.8005 98.1887 43.6453 96.3224 43.6453C93.7654 43.6453 91.6139 42.0517 91.6139 38.2374V30.8485H94.8174V37.7061C94.8174 39.5397 95.7965 40.7493 97.4727 40.7493C99.1488 40.7493 100.128 39.543 100.128 37.7061V30.8485H103.331V43.4053H103.328ZM105.565 30.8485H108.769V32.5638C109.462 31.4533 110.705 30.6085 112.571 30.6085C115.128 30.6085 117.28 32.2021 117.28 36.0165V43.4053H114.076V36.5478C114.076 34.7142 113.097 33.5046 111.42 33.5046C109.745 33.5046 108.766 34.7109 108.766 36.5478V43.4053H105.562V30.8485H105.565ZM121.209 25.3926C122.14 25.3926 122.955 26.2149 122.955 27.2037C122.955 28.1925 122.14 28.9893 121.209 28.9893C120.277 28.9893 119.463 28.167 119.463 27.2037C119.463 26.2405 120.251 25.3926 121.209 25.3926ZM119.605 30.8485H122.808V43.4053H119.605V30.8485ZM124.527 37.1269C124.527 32.8773 127.803 30.6085 131.075 30.6085C133.275 30.6085 135.236 31.6453 136.431 33.6997L134.089 35.2197C133.443 34.2309 132.391 33.5301 131.101 33.5301C129.308 33.5301 127.683 34.8837 127.683 37.1269C127.683 39.3702 129.308 40.7238 131.101 40.7238C132.391 40.7238 133.443 40.023 134.089 39.0342L136.431 40.5541C135.236 42.5829 133.275 43.6453 131.075 43.6453C127.799 43.6453 124.527 41.3766 124.527 37.1269ZM139.558 25.3926C140.49 25.3926 141.304 26.2149 141.304 27.2037C141.304 28.1925 140.49 28.9893 139.558 28.9893C138.627 28.9893 137.812 28.167 137.812 27.2037C137.812 26.2405 138.601 25.3926 139.558 25.3926ZM137.955 30.8485H141.159V43.4053H137.955V30.8485ZM143.553 30.8485H146.757V32.5381H146.83C147.14 31.8373 148.576 30.6054 150.8 30.6054C153.693 30.6054 156.776 32.7781 156.776 37.1238C156.776 41.4693 153.693 43.6422 150.8 43.6422C148.576 43.6422 147.143 42.4101 146.83 41.7093H146.757V47.9877H143.553V30.8454V30.8485ZM150.154 40.7493C151.948 40.7493 153.62 39.4693 153.62 37.1269C153.62 34.7845 151.948 33.5046 150.154 33.5046C148.361 33.5046 146.687 34.7589 146.687 37.1269C146.687 39.495 148.361 40.7493 150.154 40.7493ZM157.793 37.1269C157.793 32.7813 160.877 30.6085 163.769 30.6085C165.993 30.6085 167.425 31.8405 167.74 32.5413H167.813V30.8517H171.016V43.4085H167.813V41.7189H167.74C167.429 42.4197 165.993 43.6518 163.769 43.6518C160.877 43.6518 157.793 41.4789 157.793 37.1334V37.1269ZM164.416 40.7493C166.209 40.7493 167.883 39.495 167.883 37.1269C167.883 34.7589 166.209 33.5046 164.416 33.5046C162.622 33.5046 160.949 34.7845 160.949 37.1269C160.949 39.4693 162.622 40.7493 164.416 40.7493ZM173.256 26.2629H176.459V43.4053H173.256V26.2629ZM180.445 25.3926C181.377 25.3926 182.192 26.2149 182.192 27.2037C182.192 28.1925 181.377 28.9893 180.445 28.9893C179.514 28.9893 178.7 28.167 178.7 27.2037C178.7 26.2405 179.489 25.3926 180.445 25.3926ZM178.842 30.8485H182.046V43.4053H178.842V30.8485ZM185.249 39.927V33.4309H183.481V30.8485H185.249V27.6357H188.478V30.8485H191.035V33.4309H188.478V39.3957C188.478 40.0485 188.836 40.6758 189.888 40.6758C190.176 40.6758 190.604 40.6278 191.06 40.4838V42.9702C190.582 43.4053 189.672 43.5493 188.884 43.5493C186.779 43.5493 185.249 42.5125 185.249 39.927ZM197.011 43.2837L191.847 30.8485H195.123L198.567 39.5653L201.985 30.8485H205.284L200.05 43.4053L198.114 47.9941H194.983L197.014 43.287L197.011 43.2837Z" fill="#353F56"/>
<path d="M247.401 2.99542C247.509 2.88662 247.598 2.79702 247.67 2.72982C247.747 2.66262 247.81 2.61782 247.87 2.59222C247.956 2.55382 248.048 2.53141 248.139 2.53141C248.231 2.53141 248.324 2.55061 248.409 2.59222C248.472 2.61782 248.532 2.66262 248.609 2.72982C248.685 2.79702 248.77 2.88342 248.878 2.99542L268.992 23.0275C269.1 23.1362 269.189 23.2258 269.252 23.2994C269.318 23.3762 269.363 23.4403 269.388 23.501C269.426 23.5874 269.448 23.6803 269.448 23.773C269.448 23.8658 269.426 23.9587 269.388 24.0451C269.363 24.1058 269.318 24.1699 269.252 24.2467C269.185 24.3235 269.1 24.4099 268.992 24.5186C268.992 24.5186 246.15 47.5555 246.077 47.6227C245.897 47.8018 245.611 47.9938 245.171 47.9938H211.362C211.194 47.9938 211.017 47.8274 210.95 47.7538C210.884 47.677 210.839 47.6131 210.814 47.5522C210.776 47.4658 210.753 47.3731 210.753 47.2802C210.753 47.1874 210.776 47.0947 210.814 47.0083C210.839 46.9474 210.884 46.8835 210.95 46.8067C211.017 46.7299 247.399 2.99222 247.399 2.99222L247.401 2.99542ZM229.854 0.00661797C229.772 0.013018 229.707 0.022618 229.657 0.0450179C229.584 0.070618 229.521 0.112218 229.467 0.166618C229.413 0.221018 229.373 0.288218 229.346 0.358618C229.325 0.409818 229.315 0.473818 229.308 0.557018C229.303 0.640218 229.303 0.742618 229.303 0.867418L239.493 11.1523L247.243 1.81782L245.883 0.361818C245.659 0.134618 245.582 0.00981796 245.376 0.00981796C245.294 0.00981796 245.193 0.00341797 245.07 0.00341797H230.165C230.038 0.00341797 229.937 0.00341797 229.857 0.00981796L229.854 0.00661797Z" fill="#353F56"/>
<path d="M11.689 19.888C11.689 20.784 10.9412 21.5136 10.0571 21.5136C9.1224 21.5136 8.42531 20.784 8.42531 19.888C8.42531 18.992 9.14774 18.2624 10.0571 18.2624C10.9665 18.2624 11.689 18.9696 11.689 19.888ZM6.09004 18.2624C5.18066 18.2624 4.45822 18.9696 4.45822 19.888C4.45822 20.8064 5.15848 21.5136 6.09004 21.5136C7.02162 21.5136 7.72188 20.784 7.72188 19.888C7.72188 18.992 6.97408 18.2624 6.09004 18.2624ZM48.7363 18.192C47.8015 18.192 47.0791 18.8992 47.0791 19.84C47.0791 20.7808 47.8015 21.5136 48.7363 21.5136C49.6709 21.5136 50.4156 20.784 50.4156 19.84C50.4156 18.896 49.6678 18.192 48.7363 18.192ZM47.0315 13.6928H20.9761V10.4416C20.9761 7.2128 19.7403 5.2096 15.5167 5.2096C12.7853 5.2096 10.5007 5.6576 10.5007 5.6576V13.6928H9.21746C5.15848 13.6928 3.71043 12.304 3.71043 9.168C3.71043 7.9424 3.98927 6.4352 4.4804 5.376L0.513313 6.0128C0.209127 7.0016 0 8.3936 0 9.5456C0 13.7632 2.17049 16.6144 8.81821 16.6144H14.0433V8.2496C14.0433 8.2496 14.6738 8.1312 15.3044 8.1312C16.9616 8.1312 17.4273 8.816 17.4273 10.816V16.6112H50.7166V5.536H47.0315V13.6896V13.6928ZM55.3839 4.9024L54.5221 7.9904C57.9061 8.7456 59.5856 10.7488 59.7724 13.6928H53.2388V16.6144H63.3878V14.8C63.3878 9.0048 60.4727 6.1056 55.3839 4.9024ZM74.7124 4.032C75.6218 4.032 76.3442 3.3024 76.3442 2.4064C76.3442 1.5104 75.5964 0.7808 74.7124 0.7808C73.8284 0.7808 73.0806 1.5104 73.0806 2.4064C73.0806 3.3024 73.7808 4.032 74.7124 4.032ZM78.6795 4.032C79.5667 4.032 80.3113 3.3024 80.3113 2.4064C80.3113 1.5104 79.5635 0.7808 78.6795 0.7808C77.7955 0.7808 77.0476 1.5104 77.0476 2.4064C77.0476 3.3024 77.7479 4.032 78.6795 4.032ZM121.212 18.2624C120.302 18.2624 119.58 18.9696 119.58 19.888C119.58 20.8064 120.28 21.5136 121.212 21.5136C122.144 21.5136 122.843 20.784 122.843 19.888C122.843 18.992 122.096 18.2624 121.212 18.2624ZM117.244 18.2624C116.336 18.2624 115.612 18.9696 115.612 19.888C115.612 20.8064 116.313 21.5136 117.244 21.5136C118.176 21.5136 118.876 20.784 118.876 19.888C118.876 18.992 118.129 18.2624 117.244 18.2624ZM121.142 16.6144H77.0002C72.4279 16.6144 70.6788 14.4928 70.6788 11.1712C70.6788 8.0832 72.5673 5.2096 77.0476 5.2096C79.9406 5.2096 82.0635 6.0352 82.0635 6.0352V13.6928H117.457V5.5392H121.142V16.6144ZM78.4925 8.4864C78.4925 8.4864 77.7701 8.1344 76.6738 8.1344C75.2036 8.1344 74.3639 9.3376 74.3639 10.8448C74.3639 12.6592 75.2733 13.696 77.374 13.696H78.4925V8.4896V8.4864ZM201.187 5.5424V13.696H143.002V0H139.317V13.6896H133.765C133.417 8.624 130.546 6.032 125.809 4.8992L124.947 7.9872C128.331 8.7424 130.011 10.7456 130.198 13.6896H123.664V16.6112H204.878V5.536H201.193L201.187 5.5424ZM202.892 18.1952C201.957 18.1952 201.235 18.9024 201.235 19.8432C201.235 20.784 201.957 21.5168 202.892 21.5168C203.827 21.5168 204.572 20.7872 204.572 19.8432C204.572 18.8992 203.823 18.1952 202.892 18.1952Z" fill="#353F56"/>
</g>
</g>
<defs>
<clipPath id="clip0_13_5031">
<rect width="269.455" height="48" fill="white"/>
</clipPath>
</defs>
</svg>
