<svg width="106" height="48" viewBox="0 0 106 48" fill="none" xmlns="http://www.w3.org/2000/svg">
<g clip-path="url(#clip0_13_5957)">
<g opacity="0.85">
<path d="M95.9634 39.6769C98.6991 36.2896 101.17 32.6967 103.354 28.9301C103.417 28.8157 103.479 28.7013 103.541 28.587C104.64 26.3132 104.8 23.6979 103.986 21.3072C103.153 19.3513 102.211 17.4166 101.16 15.503C100.204 13.8275 99.1506 12.1823 98.0872 10.6294C95.6497 12.3709 93.0544 13.8802 90.3354 15.1377C90.0016 15.2923 89.6939 15.4304 89.408 15.554C93.7746 16.6036 97.6425 18.6939 100.408 21.6756L100.395 21.7003C97.0902 20.7785 93.683 20.2738 90.253 20.1979C92.0621 22.5651 93.1209 25.4198 93.2929 28.3943L93.2661 28.4113C91.7189 26.7256 89.9683 25.2388 88.0545 23.9849C88.3791 26.1355 88.2446 28.3305 87.6598 30.4253L87.6284 30.4361C86.4811 27.7136 84.8247 25.2351 82.7481 23.1337C82.6959 23.9371 82.6646 24.7416 82.6543 25.5471C82.7277 30.7799 83.5224 35.9777 85.0161 40.9934C85.1061 41.2712 85.1982 41.5488 85.2923 41.826C91.5957 38.2147 102.393 25.7964 102.393 25.7964C99.6664 32.7089 89.2627 43.4799 86.8642 45.9067C87.1451 46.5924 87.4192 47.2792 87.6819 47.9676L87.6979 47.998C90.6719 45.4506 93.436 42.6679 95.9634 39.6769Z" fill="#204E84"/>
</g>
<path d="M87.78 29.986C87.7414 30.1334 87.7013 30.2797 87.6569 30.424L87.6255 30.4348C86.4783 27.7121 84.8218 25.2334 82.7451 23.1318C82.6929 23.9353 82.6617 24.7397 82.6514 25.5452C82.7247 30.7781 83.5195 35.9758 85.0132 40.9915C85.1032 41.2694 85.1953 41.5469 85.2894 41.8241C88.0814 40.2269 91.7546 36.8974 94.9815 33.6865C93.5792 33.6557 92.2022 33.3066 90.9547 32.6656C89.7071 32.0245 88.6215 31.1082 87.78 29.986Z" fill="#204E84"/>
<path d="M103.987 21.3067C103.154 19.3508 102.212 17.4161 101.161 15.5025C100.205 13.827 99.1517 12.1818 98.0877 10.6289C95.6502 12.3704 93.055 13.8798 90.3359 15.1372C90.0021 15.2918 89.6945 15.4299 89.4086 15.5535C90.0165 15.6995 90.614 15.866 91.2011 16.0528C92.3535 15.5027 93.6073 15.1966 94.8836 15.1537C96.1599 15.1108 97.4313 15.332 98.6181 15.8036C99.8049 16.2751 100.882 16.9867 101.78 17.8938C102.679 18.8009 103.381 19.884 103.842 21.075C104.302 22.2661 104.512 23.5395 104.458 24.8153C104.403 26.0912 104.086 27.3421 103.525 28.4895C102.964 29.6369 102.173 30.6562 101.2 31.4833C100.227 32.3105 99.0935 32.9277 97.8708 33.2963C94.4714 37.727 90.7952 41.9384 86.8643 45.9051C87.1445 46.5909 87.4192 47.2777 87.682 47.9661L87.6979 47.9965C90.6729 45.4494 93.438 42.6668 95.9664 39.6759C98.7022 36.2886 101.173 32.6957 103.358 28.9291C103.42 28.8147 103.482 28.7003 103.544 28.586C104.643 26.3122 104.802 23.697 103.987 21.3067Z" fill="#204E84"/>
<path d="M88.5146 11.284C91.368 10.4934 94.2601 9.84988 97.1794 9.35596C95.6699 7.15623 94.0414 5.04061 92.3011 3.01855C91.6004 5.99781 90.3132 8.80762 88.5146 11.284Z" fill="#E07B2C"/>
<path d="M89.5652 0C89.1558 0.807205 88.7331 1.61028 88.2972 2.40925C87.2981 4.24079 86.4109 6.13123 85.6406 8.07016C87.78 6.27369 89.7369 4.27053 91.483 2.0898C90.8595 1.38805 90.2242 0.689902 89.5652 0Z" fill="#19A66E"/>
<path d="M1.06094 12.1604C1.05062 12.4027 1.10036 12.6437 1.20573 12.8621C1.29022 13.0271 1.4141 13.1687 1.56639 13.2743C1.70622 13.3688 1.86412 13.4331 2.0301 13.4634C2.17671 13.4914 2.32551 13.5062 2.47475 13.5077C2.71452 13.51 2.9537 13.4839 3.18733 13.4299C3.37421 13.3889 3.5543 13.3214 3.72214 13.2295V10.6461H2.72001C2.51453 10.6459 2.30946 10.6645 2.10739 10.7017C1.91502 10.7355 1.73254 10.8115 1.57309 10.9243C1.41061 11.0439 1.28205 11.2037 1.20006 11.388C1.09829 11.6324 1.05082 11.8959 1.06094 12.1604ZM5.80422 14.6655C5.40854 14.6714 5.01374 14.6265 4.62948 14.532C4.47274 14.4957 4.32513 14.4276 4.19582 14.3319C4.0665 14.2361 3.95824 14.1149 3.87774 13.9756C3.6843 14.0582 3.48527 14.127 3.28213 14.1817C2.99328 14.2571 2.69545 14.2927 2.39695 14.2873C2.12627 14.2869 1.85679 14.2514 1.59524 14.1817C1.33369 14.1139 1.08909 13.9925 0.877004 13.8251C0.657943 13.6485 0.482665 13.4237 0.364858 13.1682C0.226123 12.8509 0.160108 12.5065 0.171644 12.1604C0.15355 11.8532 0.202418 11.5457 0.314866 11.2592C0.427315 10.9728 0.600659 10.7142 0.822904 10.5013C1.32595 10.084 1.9686 9.87318 2.62108 9.91137H4.63514V13.0626C4.61766 13.1909 4.634 13.3216 4.68252 13.4417C4.73105 13.5618 4.81009 13.6671 4.91183 13.7473C5.19976 13.884 5.5183 13.9435 5.83616 13.9199H5.9253C5.97174 13.9139 6.01895 13.9182 6.06351 13.9326C6.10806 13.9471 6.14885 13.9712 6.18292 14.0034C6.23676 14.0959 6.26019 14.2029 6.2499 14.3094C6.25799 14.4077 6.24463 14.5065 6.21074 14.599C6.19601 14.6219 6.17522 14.6403 6.15066 14.6522C6.1261 14.664 6.09874 14.6688 6.07162 14.666L5.80422 14.6655ZM2.80914 8.29713C2.80742 8.22798 2.81987 8.1592 2.84575 8.09504C2.87162 8.03089 2.91037 7.97271 2.95959 7.9241C3.0082 7.87488 3.06638 7.83614 3.13053 7.81026C3.19469 7.78438 3.26347 7.77193 3.33262 7.77365C3.40098 7.77162 3.469 7.78396 3.53228 7.80987C3.59556 7.83579 3.6527 7.87471 3.69999 7.9241C3.74778 7.97348 3.78521 8.03193 3.81007 8.09599C3.83494 8.16005 3.84673 8.22844 3.84477 8.29713C3.84673 8.36583 3.83494 8.43422 3.81007 8.49828C3.78521 8.56234 3.74778 8.62079 3.69999 8.67017C3.6527 8.71956 3.59556 8.75848 3.53228 8.7844C3.469 8.81031 3.40098 8.82265 3.33262 8.82062C3.26347 8.82234 3.19469 8.80989 3.13053 8.78401C3.06638 8.75813 3.0082 8.71939 2.95959 8.67017C2.91037 8.62156 2.87162 8.56338 2.84575 8.49923C2.81987 8.43507 2.80742 8.36629 2.80914 8.29713ZM1.418 8.29713C1.41628 8.22798 1.42873 8.1592 1.45461 8.09504C1.48048 8.03089 1.51923 7.97271 1.56845 7.9241C1.61706 7.87488 1.67524 7.83614 1.73939 7.81026C1.80355 7.78438 1.87233 7.77193 1.94148 7.77365C2.00984 7.77162 2.07786 7.78396 2.14114 7.80987C2.20442 7.83579 2.26156 7.87471 2.30885 7.9241C2.35664 7.97348 2.39407 8.03193 2.41893 8.09599C2.44379 8.16005 2.45559 8.22844 2.45363 8.29713C2.45559 8.36583 2.44379 8.43422 2.41893 8.49828C2.39407 8.56234 2.35664 8.62079 2.30885 8.67017C2.26156 8.71956 2.20442 8.75848 2.14114 8.7844C2.07786 8.81031 2.00984 8.82265 1.94148 8.82062C1.87233 8.82234 1.80355 8.80989 1.73939 8.78401C1.67524 8.75813 1.61706 8.71939 1.56845 8.67017C1.51904 8.62165 1.48011 8.56351 1.45405 8.49935C1.428 8.43519 1.41538 8.36637 1.41697 8.29713H1.418ZM5.92633 13.9199C6.30204 13.9516 6.67585 13.8401 6.97277 13.6077C7.09582 13.4691 7.18897 13.3066 7.24641 13.1303C7.30385 12.9541 7.32436 12.7679 7.30665 12.5834V9.91137H8.21965V12.8508C8.20755 13.0014 8.23047 13.1527 8.2866 13.293C8.34274 13.4332 8.43057 13.5586 8.54322 13.6592C8.80453 13.848 9.12312 13.9404 9.44488 13.9209C9.49133 13.9149 9.53854 13.9192 9.58309 13.9337C9.62765 13.9481 9.66844 13.9723 9.7025 14.0044C9.75635 14.0969 9.77978 14.204 9.76948 14.3105C9.77556 14.4035 9.7604 14.4967 9.72517 14.583C9.71351 14.6085 9.69466 14.6299 9.67094 14.6447C9.64723 14.6596 9.61969 14.6671 9.59172 14.6665C9.26081 14.6711 8.93205 14.6125 8.62308 14.4939C8.33926 14.3836 8.10031 14.1818 7.944 13.9204C7.61012 14.4178 6.98651 14.6665 6.07317 14.6665C5.94125 14.68 5.80849 14.6507 5.69447 14.583C5.65603 14.5404 5.6272 14.49 5.60996 14.4352C5.59271 14.3804 5.58744 14.3226 5.59452 14.2656C5.58719 14.2198 5.59059 14.1729 5.60445 14.1285C5.61831 14.0842 5.64226 14.0437 5.67442 14.0102C5.70657 13.9767 5.74605 13.9511 5.78976 13.9355C5.83347 13.9198 5.88021 13.9145 5.92633 13.9199ZM7.90845 16.0911C7.90705 16.0219 7.91962 15.9531 7.94541 15.8889C7.9712 15.8246 8.00967 15.7662 8.05854 15.7171C8.1074 15.6681 8.16565 15.6294 8.2298 15.6033C8.29395 15.5773 8.3627 15.5645 8.43193 15.5656C8.50028 15.5635 8.5683 15.5759 8.63158 15.6018C8.69486 15.6277 8.752 15.6666 8.79929 15.716C8.89245 15.8179 8.94411 15.951 8.94411 16.0891C8.94411 16.2271 8.89245 16.3602 8.79929 16.4621C8.752 16.5115 8.69486 16.5504 8.63158 16.5763C8.5683 16.6022 8.50028 16.6146 8.43193 16.6125C8.36305 16.6137 8.29465 16.6009 8.23077 16.5752C8.1669 16.5494 8.10884 16.511 8.06004 16.4624C8.01123 16.4138 7.97267 16.3559 7.94663 16.2921C7.92059 16.2284 7.90761 16.16 7.90845 16.0911ZM6.5173 16.0911C6.51591 16.022 6.52846 15.9533 6.55418 15.8891C6.5799 15.8249 6.61829 15.7666 6.66704 15.7175C6.71579 15.6685 6.77391 15.6298 6.83795 15.6037C6.90198 15.5775 6.97061 15.5646 7.03976 15.5656C7.10811 15.5635 7.17613 15.5759 7.23941 15.6018C7.30269 15.6277 7.35983 15.6666 7.40712 15.716C7.50028 15.8179 7.55194 15.951 7.55194 16.0891C7.55194 16.2271 7.50028 16.3602 7.40712 16.4621C7.35983 16.5115 7.30269 16.5504 7.23941 16.5763C7.17613 16.6022 7.10811 16.6146 7.03976 16.6125C6.97092 16.6136 6.90258 16.6008 6.83876 16.575C6.77495 16.5492 6.71695 16.5108 6.6682 16.4622C6.61945 16.4136 6.58094 16.3557 6.55493 16.292C6.52892 16.2283 6.51647 16.16 6.5173 16.0911ZM11.0947 13.9199C11.2358 13.9199 11.325 13.9515 11.3621 14.0147C11.4053 14.1068 11.4244 14.2084 11.4177 14.31C11.4263 14.4075 11.4085 14.5055 11.3662 14.5938C11.3528 14.6159 11.3339 14.634 11.3115 14.6467C11.289 14.6593 11.2637 14.666 11.2379 14.666H9.58915C9.45723 14.6795 9.32446 14.6502 9.21045 14.5825C9.172 14.5399 9.14318 14.4895 9.12593 14.4347C9.10869 14.3799 9.10342 14.3221 9.11049 14.2651C9.10318 14.2191 9.10667 14.172 9.12069 14.1276C9.1347 14.0832 9.15885 14.0426 9.19124 14.0092C9.22362 13.9757 9.26335 13.9502 9.30728 13.9347C9.35121 13.9192 9.39814 13.9141 9.44437 13.9199H11.0947ZM12.7434 13.9199C12.8846 13.9199 12.9737 13.9515 13.0108 14.0147C13.054 14.1068 13.0732 14.2084 13.0665 14.31C13.075 14.4075 13.0572 14.5055 13.015 14.5938C13.0015 14.6159 12.9827 14.634 12.9602 14.6467C12.9378 14.6593 12.9124 14.666 12.8867 14.666H11.2379C11.106 14.6795 10.9732 14.6502 10.8592 14.5825C10.8208 14.5399 10.7919 14.4895 10.7747 14.4347C10.7574 14.3799 10.7522 14.3221 10.7593 14.2651C10.7519 14.2191 10.7554 14.172 10.7694 14.1276C10.7835 14.0832 10.8076 14.0426 10.84 14.0092C10.8724 13.9757 10.9121 13.9502 10.956 13.9347C11 13.9192 11.0469 13.9141 11.0931 13.9199H12.7434ZM14.3922 13.9199C14.5334 13.9199 14.6225 13.9515 14.6596 14.0147C14.7028 14.1068 14.722 14.2084 14.7152 14.31C14.7238 14.4075 14.706 14.5055 14.6637 14.5938C14.6503 14.6159 14.6315 14.634 14.609 14.6467C14.5865 14.6593 14.5612 14.666 14.5354 14.666H12.8867C12.7547 14.6795 12.622 14.6502 12.508 14.5825C12.4695 14.5399 12.4407 14.4895 12.4235 14.4347C12.4062 14.3799 12.4009 14.3221 12.408 14.2651C12.4007 14.2191 12.4042 14.172 12.4182 14.1276C12.4322 14.0832 12.4564 14.0426 12.4888 14.0092C12.5211 13.9757 12.5609 13.9502 12.6048 13.9347C12.6487 13.9192 12.6957 13.9141 12.7419 13.9199H14.3922ZM16.0409 13.9199C16.1821 13.9199 16.2713 13.9515 16.3084 14.0147C16.3516 14.1068 16.3707 14.2084 16.364 14.31C16.3725 14.4075 16.3547 14.5055 16.3125 14.5938C16.2991 14.6159 16.2802 14.634 16.2578 14.6467C16.2353 14.6593 16.21 14.666 16.1842 14.666H14.5354C14.4035 14.6795 14.2707 14.6502 14.1567 14.5825C14.1183 14.5399 14.0895 14.4895 14.0722 14.4347C14.055 14.3799 14.0497 14.3221 14.0568 14.2651C14.0495 14.2191 14.0529 14.172 14.067 14.1276C14.081 14.0832 14.1051 14.0426 14.1375 14.0092C14.1699 13.9757 14.2096 13.9502 14.2536 13.9347C14.2975 13.9192 14.3444 13.9141 14.3906 13.9199H16.0409ZM17.6897 13.9199C17.8309 13.9199 17.92 13.9515 17.9571 14.0147C18.0003 14.1068 18.0195 14.2084 18.0128 14.31C18.0213 14.4075 18.0035 14.5055 17.9612 14.5938C17.9478 14.6159 17.929 14.634 17.9065 14.6467C17.884 14.6593 17.8587 14.666 17.8329 14.666H16.1842C16.0523 14.6795 15.9195 14.6502 15.8055 14.5825C15.767 14.5399 15.7382 14.4895 15.721 14.4347C15.7037 14.3799 15.6985 14.3221 15.7055 14.2651C15.6982 14.2191 15.7017 14.172 15.7157 14.1276C15.7297 14.0832 15.7539 14.0426 15.7863 14.0092C15.8187 13.9757 15.8584 13.9502 15.9023 13.9347C15.9462 13.9192 15.9932 13.9141 16.0394 13.9199H17.6897ZM17.8345 14.666C17.7026 14.6795 17.5698 14.6502 17.4558 14.5825C17.4173 14.5399 17.3885 14.4895 17.3713 14.4347C17.354 14.3799 17.3488 14.3221 17.3558 14.2651C17.3485 14.2191 17.352 14.172 17.366 14.1276C17.38 14.0832 17.4042 14.0426 17.4366 14.0092C17.469 13.9757 17.5087 13.9502 17.5526 13.9347C17.5966 13.9192 17.6435 13.9141 17.6897 13.9199H17.9793C18.092 13.9208 18.2038 13.8991 18.3081 13.8561C18.4123 13.8131 18.5069 13.7496 18.5862 13.6695C18.7625 13.4894 18.8622 13.2481 18.8644 12.9961C18.8453 12.1678 19.0762 11.353 19.527 10.658C19.7304 10.3892 19.9968 10.1747 20.3026 10.0331C20.6085 9.89163 20.9444 9.82752 21.2809 9.84645C21.6505 9.8341 22.018 9.90654 22.3552 10.0582C22.6237 10.1854 22.8584 10.3743 23.0399 10.6095C23.2112 10.8371 23.3361 11.0962 23.4073 11.3721C23.4807 11.6476 23.5183 11.9314 23.5191 12.2165C23.5211 12.4907 23.4875 12.764 23.4191 13.0296C23.4205 13.167 23.4558 13.3019 23.5219 13.4223C23.588 13.5427 23.6828 13.645 23.7978 13.72C24.0564 13.8625 24.3489 13.9318 24.6439 13.9204C24.7922 13.9204 24.885 13.952 24.9221 14.0152C24.9653 14.1074 24.9844 14.2089 24.9777 14.3105C24.9863 14.408 24.9685 14.506 24.9262 14.5944C24.9111 14.6173 24.8904 14.636 24.8661 14.6486C24.8417 14.6612 24.8145 14.6674 24.7871 14.6665C24.4436 14.6687 24.1025 14.6103 23.7793 14.4939C23.6199 14.4336 23.4742 14.3419 23.351 14.2242C23.2278 14.1064 23.1295 13.9651 23.0621 13.8086C22.8745 14.0859 22.6221 14.3134 22.3268 14.4712C22.0144 14.6347 21.6659 14.717 21.3134 14.7108C21.003 14.7083 20.6957 14.6498 20.406 14.5382C20.056 14.3973 19.7337 14.1957 19.4539 13.9426C19.368 14.1411 19.2342 14.3151 19.0644 14.4491C18.822 14.6124 18.5314 14.6889 18.24 14.666H17.8345ZM21.2752 10.6245C21.0584 10.6272 20.8459 10.6861 20.6585 10.7953C20.4712 10.9046 20.3153 11.0605 20.2061 11.2479C19.8761 11.8242 19.7014 12.4763 19.6991 13.1404C19.9402 13.3702 20.2097 13.5685 20.5008 13.7303C20.7619 13.866 21.0526 13.9349 21.3469 13.9307C21.5673 13.9396 21.7852 13.8808 21.9713 13.7623C22.1306 13.6554 22.2623 13.5124 22.3557 13.3449C22.4488 13.1769 22.5127 12.9943 22.5448 12.8049C22.5775 12.6249 22.5947 12.4423 22.5963 12.2593C22.6334 11.8166 22.5087 11.3754 22.2454 11.0176C22.1217 10.8842 21.9701 10.7798 21.8015 10.7118C21.6328 10.6437 21.4512 10.6138 21.2696 10.6239L21.2752 10.6245ZM24.649 13.922C25.0231 13.9516 25.3946 13.8394 25.6898 13.6077C25.8128 13.4691 25.906 13.3066 25.9634 13.1303C26.0209 12.9541 26.0414 12.7679 26.0237 12.5834V9.91137H26.9367V12.8508C26.9246 13.0014 26.9475 13.1527 27.0036 13.293C27.0598 13.4332 27.1476 13.5586 27.2602 13.6592C27.5216 13.848 27.8401 13.9404 28.1619 13.9209C28.2083 13.9149 28.2556 13.9192 28.3001 13.9337C28.3447 13.9481 28.3855 13.9723 28.4195 14.0044C28.4734 14.0969 28.4968 14.204 28.4865 14.3105C28.4926 14.4035 28.4774 14.4967 28.4422 14.583C28.4305 14.6085 28.4117 14.6299 28.388 14.6447C28.3642 14.6596 28.3367 14.6671 28.3087 14.6665C27.9778 14.6711 27.6491 14.6125 27.3401 14.4939C27.0563 14.3836 26.8173 14.1818 26.661 13.9204C26.3271 14.4178 25.7035 14.6665 24.7902 14.6665C24.6583 14.68 24.5255 14.6507 24.4115 14.583C24.373 14.5404 24.3442 14.49 24.327 14.4352C24.3097 14.3804 24.3045 14.3226 24.3115 14.2656C24.3041 14.2196 24.3076 14.1725 24.3215 14.128C24.3355 14.0835 24.3596 14.0429 24.392 14.0093C24.4244 13.9758 24.4642 13.9502 24.5082 13.9347C24.5521 13.9192 24.5991 13.9141 24.6454 13.9199L24.649 13.922ZM25.9629 8.2992C25.9611 8.23004 25.9736 8.16126 25.9995 8.0971C26.0254 8.03295 26.0641 7.97477 26.1133 7.92616C26.1619 7.87694 26.2201 7.8382 26.2843 7.81232C26.3484 7.78645 26.4172 7.77399 26.4864 7.77571C26.5547 7.77368 26.6227 7.78602 26.686 7.81194C26.7493 7.83785 26.8064 7.87677 26.8537 7.92616C26.9015 7.97555 26.9389 8.03399 26.9638 8.09805C26.9887 8.16211 27.0005 8.2305 26.9985 8.2992C27.0005 8.36789 26.9887 8.43628 26.9638 8.50034C26.9389 8.5644 26.9015 8.62285 26.8537 8.67223C26.8064 8.72162 26.7493 8.76054 26.686 8.78646C26.6227 8.81237 26.5547 8.82471 26.4864 8.82268C26.4172 8.8244 26.3484 8.81195 26.2843 8.78607C26.2201 8.7602 26.1619 8.72145 26.1133 8.67223C26.0628 8.62387 26.0229 8.56558 25.996 8.50102C25.9691 8.43647 25.9559 8.36705 25.9572 8.29713L25.9629 8.2992ZM28.1619 13.9199C28.5373 13.949 28.9102 13.8378 29.2083 13.6077C29.3348 13.4709 29.4309 13.3089 29.4904 13.1324C29.5499 12.9559 29.5714 12.7688 29.5536 12.5834V9.91137H30.4552V12.7508C30.4552 14.0276 29.7389 14.666 28.3062 14.666C28.1751 14.6769 28.0436 14.6499 27.9275 14.5882C27.8866 14.5527 27.8551 14.5078 27.8357 14.4573C27.8163 14.4068 27.8096 14.3523 27.8162 14.2986C27.8085 14.197 27.8382 14.096 27.8996 14.0147C27.9338 13.9808 27.975 13.9548 28.0203 13.9384C28.0656 13.922 28.1139 13.9157 28.1619 13.9199ZM30.0992 8.29713C30.0975 8.22798 30.1099 8.1592 30.1358 8.09504C30.1617 8.03089 30.2004 7.97271 30.2496 7.9241C30.2983 7.87488 30.3564 7.83614 30.4206 7.81026C30.4847 7.78438 30.5535 7.77193 30.6227 7.77365C30.691 7.77162 30.759 7.78396 30.8223 7.80987C30.8856 7.83579 30.9427 7.87471 30.99 7.9241C31.0378 7.97348 31.0753 8.03193 31.1001 8.09599C31.125 8.16005 31.1368 8.22844 31.1348 8.29713C31.1368 8.36583 31.125 8.43422 31.1001 8.49828C31.0753 8.56234 31.0378 8.62079 30.99 8.67017C30.9427 8.71956 30.8856 8.75848 30.8223 8.7844C30.759 8.81031 30.691 8.82265 30.6227 8.82062C30.5535 8.82234 30.4847 8.80989 30.4206 8.78401C30.3564 8.75813 30.2983 8.71939 30.2496 8.67017C30.2004 8.62156 30.1617 8.56338 30.1358 8.49923C30.1099 8.43507 30.0975 8.36629 30.0992 8.29713ZM28.7081 8.29713C28.7063 8.22798 28.7188 8.1592 28.7447 8.09504C28.7705 8.03089 28.8093 7.97271 28.8585 7.9241C28.9071 7.87488 28.9653 7.83614 29.0294 7.81026C29.0936 7.78438 29.1624 7.77193 29.2315 7.77365C29.2999 7.77162 29.3679 7.78396 29.4312 7.80987C29.4945 7.83579 29.5516 7.87471 29.5989 7.9241C29.6467 7.97348 29.6841 8.03193 29.709 8.09599C29.7338 8.16005 29.7456 8.22844 29.7437 8.29713C29.7456 8.36583 29.7338 8.43422 29.709 8.49828C29.6841 8.56234 29.6467 8.62079 29.5989 8.67017C29.5516 8.71956 29.4945 8.75848 29.4312 8.7844C29.3679 8.81031 29.2999 8.82265 29.2315 8.82062C29.1624 8.82234 29.0936 8.80989 29.0294 8.78401C28.9653 8.75813 28.9071 8.71939 28.8585 8.67017C28.8092 8.6216 28.7703 8.56345 28.7444 8.49929C28.7184 8.43513 28.7064 8.36633 28.7081 8.29713ZM41.3118 14.4656C41.1694 14.5174 41.0244 14.5619 40.8774 14.599C40.6509 14.6494 40.419 14.6719 40.187 14.666C39.8215 14.673 39.4577 14.6145 39.1128 14.4934C38.8253 14.3906 38.5622 14.2296 38.3399 14.0204C38.1312 13.8194 37.9709 13.5736 37.871 13.3016C37.7655 13.0109 37.7131 12.7036 37.7165 12.3943C37.712 12.0455 37.7698 11.6986 37.887 11.37C37.9945 11.0707 38.1612 10.7962 38.377 10.5626C38.5896 10.3355 38.8475 10.1555 39.1339 10.034C39.4389 9.906 39.7671 9.84216 40.0979 9.84645C40.3892 9.82892 40.6811 9.87181 40.9551 9.97245C41.229 10.0731 41.4792 10.2293 41.69 10.4312C41.8856 10.6466 42.0364 10.8988 42.1337 11.173C42.231 11.4472 42.2728 11.738 42.2567 12.0285V14.2316C42.2642 14.5834 42.19 14.9321 42.0398 15.2503C41.8841 15.5554 41.6472 15.8116 41.3551 15.9907C40.9831 16.2143 40.5738 16.3689 40.1468 16.4472C39.5616 16.5591 38.9665 16.6108 38.3708 16.6017C37.4157 16.6611 36.4646 16.4349 35.6385 15.952C35.3136 15.7127 35.0555 15.3941 34.8888 15.0266C34.7221 14.6591 34.6524 14.255 34.6864 13.8529C34.6943 13.5087 34.7448 13.1667 34.8368 12.8348C34.9412 12.4342 35.0925 12.0474 35.2876 11.6822L36.112 11.9826C35.9633 12.3133 35.8427 12.656 35.7513 13.0069C35.6751 13.3053 35.6358 13.6119 35.6344 13.9199C35.614 14.2066 35.669 14.4937 35.794 14.7525C35.919 15.0113 36.1097 15.2328 36.347 15.395C36.9923 15.7521 37.7266 15.9163 38.4625 15.868C39.2019 15.9147 39.9415 15.781 40.6178 15.4785C40.8172 15.3923 40.9882 15.2514 41.111 15.0722C41.2338 14.893 41.3034 14.6827 41.3118 14.4656ZM38.6599 12.35C38.6501 12.6162 38.7031 12.8809 38.8144 13.1228C38.9067 13.3128 39.042 13.4786 39.2096 13.6072C39.3653 13.724 39.5436 13.8074 39.7331 13.8519C39.9099 13.895 40.0911 13.9175 40.2731 13.9189C40.4939 13.9248 40.7144 13.897 40.9269 13.8364C41.0621 13.7959 41.1942 13.7456 41.3221 13.686V12.35C41.3238 12.1165 41.3033 11.8835 41.2608 11.6539C41.2261 11.4583 41.1542 11.2711 41.049 11.1026C40.9502 10.9486 40.8117 10.824 40.6482 10.7419C40.4515 10.6501 40.2359 10.6062 40.0191 10.6136C39.8892 10.6172 39.7602 10.6359 39.6347 10.6693C39.4696 10.7133 39.3172 10.7954 39.1895 10.9089C39.0284 11.054 38.901 11.2327 38.8165 11.4324C38.7005 11.7239 38.6471 12.0365 38.6599 12.35ZM40.2411 8.29713C40.2394 8.22798 40.2519 8.1592 40.2777 8.09504C40.3036 8.03089 40.3424 7.97271 40.3916 7.9241C40.4402 7.87488 40.4984 7.83614 40.5625 7.81026C40.6267 7.78438 40.6954 7.77193 40.7646 7.77365C40.833 7.77162 40.901 7.78396 40.9643 7.80987C41.0275 7.83579 41.0847 7.87471 41.132 7.9241C41.1798 7.97348 41.2172 8.03193 41.2421 8.09599C41.2669 8.16005 41.2787 8.22844 41.2767 8.29713C41.2787 8.36583 41.2669 8.43422 41.2421 8.49828C41.2172 8.56234 41.1798 8.62079 41.132 8.67017C41.0847 8.71956 41.0275 8.75848 40.9643 8.7844C40.901 8.81031 40.833 8.82265 40.7646 8.82062C40.6954 8.82234 40.6267 8.80989 40.5625 8.78401C40.4984 8.75813 40.4402 8.71939 40.3916 8.67017C40.3426 8.62143 40.3042 8.56319 40.2786 8.49904C40.253 8.43489 40.2407 8.36618 40.2427 8.29713H40.2411ZM38.85 8.29713C38.8483 8.22798 38.8607 8.1592 38.8866 8.09504C38.9125 8.03089 38.9512 7.97271 39.0004 7.9241C39.049 7.87488 39.1072 7.83614 39.1714 7.81026C39.2355 7.78438 39.3043 7.77193 39.3735 7.77365C39.4418 7.77162 39.5098 7.78396 39.5731 7.80987C39.6364 7.83579 39.6935 7.87471 39.7408 7.9241C39.7886 7.97348 39.826 8.03193 39.8509 8.09599C39.8758 8.16005 39.8876 8.22844 39.8856 8.29713C39.8876 8.36583 39.8758 8.43422 39.8509 8.49828C39.826 8.56234 39.7886 8.62079 39.7408 8.67017C39.6935 8.71956 39.6364 8.75848 39.5731 8.7844C39.5098 8.81031 39.4418 8.82265 39.3735 8.82062C39.3043 8.82234 39.2355 8.80989 39.1714 8.78401C39.1072 8.75813 39.049 8.71939 39.0004 8.67017C38.9514 8.62147 38.9128 8.56326 38.8871 8.4991C38.8615 8.43495 38.8492 8.36622 38.851 8.29713H38.85ZM45.9087 15.902C46.2783 15.9244 46.6432 15.8094 46.933 15.579C47.0698 15.4301 47.1733 15.2538 47.2366 15.0618C47.2999 14.8698 47.3217 14.6666 47.3004 14.4656C47.158 14.5174 47.013 14.5619 46.866 14.599C46.6395 14.6494 46.4076 14.6719 46.1756 14.666C45.8098 14.6731 45.4456 14.6147 45.1003 14.4934C44.8128 14.3905 44.5497 14.2293 44.3275 14.0199C44.1193 13.8181 43.9581 13.5728 43.8555 13.3016C43.7459 13.0118 43.6912 12.7041 43.6942 12.3943C43.6905 12.0448 43.7509 11.6976 43.8725 11.37C43.9834 11.0711 44.1518 10.7968 44.3682 10.5626C44.5808 10.3355 44.8386 10.1555 45.1251 10.034C45.4298 9.90614 45.7576 9.8423 46.088 9.84645C46.3788 9.82799 46.6701 9.87026 46.9436 9.97059C47.2171 10.0709 47.4667 10.2271 47.6765 10.4292C47.8707 10.6453 48.0203 10.8977 48.1167 11.1718C48.2132 11.4459 48.2546 11.7363 48.2386 12.0264V14.2095C48.2411 14.5303 48.2038 14.8501 48.1273 15.1616C48.0603 15.44 47.9329 15.7003 47.7543 15.9242C47.5666 16.149 47.3255 16.3231 47.0531 16.4307C46.703 16.5633 46.3303 16.6258 45.9561 16.6146C45.7159 16.6129 45.4759 16.5957 45.2379 16.5631C45.0001 16.5329 44.7642 16.4901 44.531 16.4348L44.6644 15.7222C44.8362 15.7593 45.0328 15.7983 45.2544 15.8392C45.4707 15.8798 45.6902 15.9006 45.9103 15.9015L45.9087 15.902ZM44.6521 12.35C44.6423 12.6162 44.6953 12.8809 44.8066 13.1228C44.8993 13.3132 45.0352 13.4792 45.2034 13.6077C45.3591 13.7245 45.5373 13.8079 45.7269 13.8524C45.9037 13.8955 46.0849 13.918 46.2668 13.9194C46.4869 13.9248 46.7065 13.8966 46.9181 13.8359C47.0533 13.7954 47.1853 13.7451 47.3133 13.6855V12.35C47.315 12.1165 47.2944 11.8835 47.252 11.6539C47.2173 11.4583 47.1454 11.2711 47.0402 11.1026C46.9414 10.9486 46.8029 10.824 46.6393 10.7419C46.4427 10.6501 46.2271 10.6062 46.0102 10.6136C45.8804 10.6172 45.7514 10.6359 45.6259 10.6693C45.4608 10.7133 45.3084 10.7954 45.1807 10.9089C45.0195 11.054 44.8922 11.2327 44.8077 11.4324C44.692 11.7239 44.639 12.0366 44.6521 12.35ZM51.6892 13.9199C51.8961 13.9251 52.1027 13.8989 52.3018 13.8421C52.4509 13.7989 52.5855 13.7161 52.6913 13.6025C52.7932 13.4844 52.864 13.3427 52.8974 13.1903C52.9417 12.9911 52.9623 12.7874 52.9587 12.5834V12.3258C52.9612 12.093 52.9331 11.8609 52.8753 11.6354C52.8228 11.4331 52.7171 11.2486 52.5692 11.1011C52.4017 10.9418 52.1969 10.827 51.9736 10.7672C51.6631 10.6853 51.3425 10.6478 51.0214 10.6559H50.2192V9.91137H51.3347C52.0194 9.85848 52.6992 10.063 53.2411 10.4848C53.4571 10.695 53.6252 10.9493 53.7339 11.2304C53.8427 11.5114 53.8895 11.8127 53.8712 12.1135V12.8508C53.8704 12.9877 53.8948 13.1236 53.9433 13.2517C53.9908 13.3764 54.0606 13.4915 54.1494 13.5912C54.2422 13.6942 54.3561 13.7759 54.4833 13.8308C54.6202 13.8909 54.7682 13.9213 54.9177 13.9199C54.9597 13.9136 55.0025 13.9158 55.0436 13.9264C55.0848 13.9369 55.1234 13.9555 55.1572 13.9812C55.2269 14.0755 55.2569 14.1933 55.2407 14.3094C55.2468 14.4025 55.2317 14.4957 55.1964 14.582C55.1847 14.6074 55.1659 14.6289 55.1422 14.6437C55.1185 14.6585 55.0909 14.6661 55.063 14.6655C54.9377 14.664 54.8128 14.6509 54.6899 14.6263C54.5505 14.5997 54.4143 14.5586 54.2834 14.5037C54.1486 14.4474 54.0214 14.3746 53.9047 14.2868C53.7862 14.1978 53.6844 14.0884 53.6043 13.9637C53.4505 14.1984 53.2292 14.3809 52.9695 14.4872C52.6287 14.6177 52.2651 14.6784 51.9004 14.6655H49.5303V13.9199H51.6892ZM56.5659 13.9199C56.7071 13.9199 56.7962 13.9515 56.8333 14.0147C56.8765 14.1068 56.8957 14.2084 56.889 14.31C56.8975 14.4075 56.8797 14.5055 56.8374 14.5938C56.824 14.6159 56.8052 14.634 56.7827 14.6467C56.7602 14.6593 56.7349 14.666 56.7091 14.666H55.0604C54.9285 14.6795 54.7957 14.6502 54.6817 14.5825C54.6432 14.5399 54.6144 14.4895 54.5972 14.4347C54.5799 14.3799 54.5746 14.3221 54.5817 14.2651C54.5744 14.2191 54.5779 14.172 54.5919 14.1276C54.6059 14.0832 54.6301 14.0426 54.6625 14.0092C54.6948 13.9757 54.7346 13.9502 54.7785 13.9347C54.8224 13.9192 54.8694 13.9141 54.9156 13.9199H56.5659ZM58.2147 13.9199C58.3558 13.9199 58.445 13.9515 58.4821 14.0147C58.5253 14.1068 58.5444 14.2084 58.5377 14.31C58.5462 14.4075 58.5284 14.5055 58.4862 14.5938C58.4728 14.6159 58.4539 14.634 58.4315 14.6467C58.409 14.6593 58.3837 14.666 58.3579 14.666H56.7091C56.5772 14.6795 56.4445 14.6502 56.3304 14.5825C56.292 14.5399 56.2632 14.4895 56.2459 14.4347C56.2287 14.3799 56.2234 14.3221 56.2305 14.2651C56.2232 14.2191 56.2267 14.172 56.2407 14.1276C56.2547 14.0832 56.2788 14.0426 56.3112 14.0092C56.3436 13.9757 56.3833 13.9502 56.4273 13.9347C56.4712 13.9192 56.5181 13.9141 56.5644 13.9199H58.2147ZM59.8634 13.9199C60.0046 13.9199 60.0937 13.9515 60.1308 14.0147C60.174 14.1068 60.1932 14.2084 60.1865 14.31C60.195 14.4075 60.1772 14.5055 60.1349 14.5938C60.1215 14.6159 60.1027 14.634 60.0802 14.6467C60.0578 14.6593 60.0324 14.666 60.0067 14.666H58.3579C58.226 14.6795 58.0932 14.6502 57.9792 14.5825C57.9408 14.5399 57.9119 14.4895 57.8947 14.4347C57.8774 14.3799 57.8722 14.3221 57.8792 14.2651C57.8719 14.2191 57.8754 14.172 57.8894 14.1276C57.9034 14.0832 57.9276 14.0426 57.96 14.0092C57.9924 13.9757 58.0321 13.9502 58.076 13.9347C58.12 13.9192 58.1669 13.9141 58.2131 13.9199H59.8634ZM59.8634 13.9199C60.2384 13.9511 60.6114 13.8396 60.9078 13.6077C61.0308 13.4691 61.124 13.3066 61.1814 13.1303C61.2389 12.9541 61.2594 12.7679 61.2417 12.5834V9.91137H62.1547V12.8508C62.1425 13.0013 62.1654 13.1526 62.2214 13.2929C62.2774 13.4331 62.3652 13.5585 62.4777 13.6592C62.739 13.848 63.0576 13.9404 63.3794 13.9209C63.4258 13.9149 63.473 13.9192 63.5176 13.9337C63.5622 13.9481 63.6029 13.9723 63.637 14.0044C63.6909 14.0969 63.7143 14.204 63.704 14.3105C63.7101 14.4035 63.6949 14.4967 63.6597 14.583C63.648 14.6085 63.6292 14.6299 63.6055 14.6447C63.5817 14.6596 63.5542 14.6671 63.5262 14.6665C63.1953 14.6711 62.8666 14.6125 62.5576 14.4939C62.2738 14.3836 62.0348 14.1818 61.8785 13.9204C61.5446 14.4178 60.921 14.6665 60.0077 14.6665C59.8758 14.68 59.743 14.6507 59.629 14.583C59.5905 14.5404 59.5617 14.49 59.5445 14.4352C59.5272 14.3804 59.522 14.3226 59.529 14.2656C59.5217 14.2197 59.5251 14.1728 59.539 14.1284C59.5529 14.084 59.5769 14.0435 59.6091 14.01C59.6413 13.9765 59.6808 13.9509 59.7246 13.9353C59.7684 13.9196 59.8152 13.9144 59.8614 13.9199H59.8634ZM61.1757 8.29713C61.174 8.22798 61.1865 8.1592 61.2123 8.09504C61.2382 8.03089 61.277 7.97271 61.3262 7.9241C61.3748 7.87488 61.433 7.83614 61.4971 7.81026C61.5613 7.78438 61.63 7.77193 61.6992 7.77365C61.7676 7.77162 61.8356 7.78396 61.8989 7.80987C61.9621 7.83579 62.0193 7.87471 62.0666 7.9241C62.1144 7.97348 62.1518 8.03193 62.1767 8.09599C62.2015 8.16005 62.2133 8.22844 62.2114 8.29713C62.2133 8.36583 62.2015 8.43422 62.1767 8.49828C62.1518 8.56234 62.1144 8.62079 62.0666 8.67017C62.0193 8.71956 61.9621 8.75848 61.8989 8.7844C61.8356 8.81031 61.7676 8.82265 61.6992 8.82062C61.63 8.82234 61.5613 8.80989 61.4971 8.78401C61.433 8.75813 61.3748 8.71939 61.3262 8.67017C61.277 8.62156 61.2382 8.56338 61.2123 8.49923C61.1865 8.43507 61.174 8.36629 61.1757 8.29713ZM63.4804 14.666C63.3646 14.6751 63.2491 14.6458 63.1517 14.5825C63.1134 14.5465 63.0839 14.5022 63.0656 14.4529C63.0473 14.4037 63.0406 14.3509 63.046 14.2986C63.0357 14.1949 63.0611 14.0907 63.1182 14.0034C63.1534 13.9718 63.195 13.948 63.2401 13.9336C63.2852 13.9192 63.3329 13.9145 63.3799 13.9199H64.5933V9.91137H65.5063V10.6708C66.0045 10.409 66.5288 10.2 67.0705 10.0474C67.5439 9.91656 68.0325 9.84916 68.5235 9.84697C68.9713 9.83453 69.4173 9.90816 69.8374 10.0639C70.1627 10.1872 70.4531 10.3879 70.6834 10.6487C70.8867 10.8835 71.0357 11.1602 71.1198 11.4591C71.201 11.7528 71.2423 12.0561 71.2424 12.3608V12.7503C71.2647 13.0111 71.2353 13.2738 71.1557 13.5231C71.0761 13.7725 70.948 14.0036 70.7787 14.2033C70.3566 14.5507 69.8144 14.7174 69.2701 14.667L63.4804 14.666ZM68.4241 10.6131C67.9099 10.6135 67.399 10.6943 66.9098 10.8527C66.4199 11.0089 65.9493 11.22 65.5068 11.4818V13.9199H69.0588C69.2677 13.9248 69.476 13.8986 69.6771 13.8421C69.8258 13.801 69.9603 13.7199 70.0661 13.6077C70.1655 13.4908 70.2344 13.3512 70.2666 13.2012C70.3108 13.002 70.3314 12.7982 70.3279 12.5942C70.3305 12.331 70.2968 12.0687 70.2279 11.8147C70.1646 11.5839 70.0525 11.3693 69.8992 11.1856C69.74 10.9986 69.5374 10.8534 69.3093 10.7625C69.0266 10.6553 68.7262 10.6045 68.4241 10.6131ZM1.06094 22.6398C1.05071 22.8819 1.10044 23.1228 1.20573 23.341C1.29022 23.506 1.4141 23.6476 1.56639 23.7532C1.70622 23.8476 1.86412 23.912 2.0301 23.9423C2.17688 23.9703 2.32586 23.9851 2.47527 23.9866C2.71503 23.9889 2.95422 23.9628 3.18784 23.9088C3.37466 23.8671 3.55457 23.7989 3.72214 23.7063V21.1255H2.72001C2.51453 21.1253 2.30946 21.1439 2.10739 21.1812C1.91502 21.2149 1.73254 21.2909 1.57309 21.4037C1.41061 21.5233 1.28205 21.6831 1.20006 21.8674C1.09829 22.1118 1.05082 22.3753 1.06094 22.6398ZM5.80422 25.1449C5.40854 25.1508 5.01374 25.1059 4.62948 25.0114C4.47269 24.9751 4.32506 24.9069 4.19574 24.811C4.06643 24.7152 3.95819 24.5939 3.87774 24.4545C3.6843 24.5371 3.48527 24.6059 3.28213 24.6606C2.99328 24.736 2.69545 24.7716 2.39695 24.7662C2.12627 24.7658 1.85679 24.7303 1.59524 24.6606C1.33369 24.5928 1.08909 24.4714 0.877004 24.304C0.657943 24.1274 0.482665 23.9026 0.364858 23.6471C0.226199 23.3299 0.160185 22.9858 0.171644 22.6398C0.15355 22.3326 0.202418 22.0251 0.314866 21.7387C0.427315 21.4522 0.600659 21.1936 0.822904 20.9807C1.32595 20.5634 1.9686 20.3526 2.62108 20.3908H4.63514V23.542C4.61766 23.6703 4.634 23.801 4.68252 23.9211C4.73105 24.0412 4.81009 24.1465 4.91183 24.2267C5.19976 24.3634 5.5183 24.4229 5.83616 24.3993H5.9253C5.97174 24.3933 6.01895 24.3976 6.06351 24.412C6.10806 24.4265 6.14885 24.4506 6.18292 24.4828C6.23676 24.5753 6.26019 24.6823 6.2499 24.7888C6.25799 24.8871 6.24463 24.9859 6.21074 25.0784C6.19601 25.1013 6.17522 25.1198 6.15066 25.1316C6.1261 25.1434 6.09874 25.1482 6.07162 25.1454L5.80422 25.1449ZM2.80914 18.7765C2.80803 18.7075 2.82079 18.639 2.84668 18.575C2.87256 18.511 2.91103 18.4529 2.95981 18.4041C3.00858 18.3553 3.06667 18.3167 3.13063 18.2908C3.19458 18.2648 3.2631 18.252 3.33211 18.2531C3.40046 18.251 3.46848 18.2634 3.53176 18.2893C3.59505 18.3152 3.65218 18.3541 3.69947 18.4035C3.79263 18.5054 3.84429 18.6385 3.84429 18.7765C3.84429 18.9146 3.79263 19.0477 3.69947 19.1496C3.65218 19.199 3.59505 19.2379 3.53176 19.2638C3.46848 19.2897 3.40046 19.3021 3.33211 19.3C3.26306 19.3011 3.19449 19.2884 3.13047 19.2624C3.06646 19.2365 3.0083 19.198 2.95947 19.1492C2.91064 19.1003 2.87212 19.0422 2.84621 18.9782C2.82029 18.9142 2.80803 18.8456 2.80914 18.7765ZM1.418 18.7765C1.41689 18.7076 1.42964 18.6391 1.45549 18.5751C1.48134 18.5112 1.51976 18.4531 1.56849 18.4043C1.61721 18.3555 1.67524 18.3169 1.73913 18.2909C1.80303 18.265 1.87149 18.2521 1.94045 18.2531C2.00881 18.251 2.07683 18.2634 2.14011 18.2893C2.20339 18.3152 2.26053 18.3541 2.30782 18.4035C2.40098 18.5054 2.45264 18.6385 2.45264 18.7765C2.45264 18.9146 2.40098 19.0477 2.30782 19.1496C2.26053 19.199 2.20339 19.2379 2.14011 19.2638C2.07683 19.2897 2.00881 19.3021 1.94045 19.3C1.8714 19.3011 1.80283 19.2884 1.73882 19.2624C1.6748 19.2365 1.61665 19.198 1.56781 19.1492C1.51898 19.1003 1.48046 19.0422 1.45455 18.9782C1.42864 18.9142 1.41586 18.8456 1.41697 18.7765H1.418ZM5.92736 24.3993C6.30239 24.4283 6.67486 24.3172 6.97277 24.0876C7.0992 23.9508 7.1953 23.7888 7.25479 23.6123C7.31428 23.4358 7.33581 23.2487 7.31798 23.0633V20.3908H8.21965V23.2303C8.21965 24.507 7.5033 25.1454 6.07059 25.1454C5.93951 25.1563 5.80805 25.1293 5.6919 25.0676C5.65105 25.0321 5.61954 24.9872 5.60014 24.9367C5.58073 24.8862 5.57402 24.8317 5.5806 24.778C5.57291 24.6764 5.60259 24.5754 5.66407 24.4941C5.69827 24.4602 5.73945 24.4342 5.78474 24.4178C5.83003 24.4014 5.87835 24.3951 5.92633 24.3993H5.92736ZM7.53954 26.5705C7.53842 26.5015 7.5512 26.4329 7.57711 26.3689C7.60303 26.3049 7.64154 26.2467 7.69038 26.1979C7.73921 26.1491 7.79736 26.1105 7.86138 26.0846C7.92539 26.0587 7.99397 26.0459 8.06302 26.0471C8.13137 26.045 8.19939 26.0574 8.26267 26.0833C8.32596 26.1092 8.38309 26.1481 8.43038 26.1975C8.52354 26.2994 8.5752 26.4325 8.5752 26.5705C8.5752 26.7086 8.52354 26.8417 8.43038 26.9436C8.38309 26.993 8.32596 27.0319 8.26267 27.0578C8.19939 27.0837 8.13137 27.0961 8.06302 27.094C7.99397 27.0951 7.92539 27.0823 7.86138 27.0564C7.79736 27.0305 7.73921 26.992 7.69038 26.9432C7.64154 26.8943 7.60303 26.8362 7.57711 26.7722C7.5512 26.7082 7.53842 26.6396 7.53954 26.5705ZM6.1484 26.5705C6.14728 26.5015 6.16006 26.4329 6.18597 26.3689C6.21189 26.3049 6.2504 26.2467 6.29924 26.1979C6.34807 26.1491 6.40622 26.1105 6.47024 26.0846C6.53425 26.0587 6.60282 26.0459 6.67188 26.0471C6.74023 26.045 6.80825 26.0574 6.87153 26.0833C6.93481 26.1092 6.99195 26.1481 7.03924 26.1975C7.1324 26.2994 7.18406 26.4325 7.18406 26.5705C7.18406 26.7086 7.1324 26.8417 7.03924 26.9436C6.99195 26.993 6.93481 27.0319 6.87153 27.0578C6.80825 27.0837 6.74023 27.0961 6.67188 27.094C6.60282 27.0951 6.53425 27.0823 6.47024 27.0564C6.40622 27.0305 6.34807 26.992 6.29924 26.9432C6.2504 26.8943 6.21189 26.8362 6.18597 26.7722C6.16006 26.7082 6.14728 26.6396 6.1484 26.5705ZM9.57781 27.094C9.47477 27.094 9.36159 27.0885 9.23827 27.0775C9.12416 27.0672 9.01078 27.05 8.89873 27.026L9.02136 26.2691C9.10311 26.2839 9.18658 26.2951 9.27176 26.3026C9.35695 26.3102 9.44042 26.3139 9.52217 26.3139C9.66803 26.3268 9.81481 26.3036 9.94958 26.2464C10.0844 26.1891 10.203 26.0996 10.295 25.9857C10.4807 25.6637 10.5642 25.2929 10.5346 24.9223V20.3882H11.4476V24.3967H12.5167C12.6579 24.3967 12.747 24.4283 12.7841 24.4916C12.8273 24.5837 12.8465 24.6853 12.8398 24.7868C12.8459 24.8798 12.8307 24.973 12.7955 25.0593C12.7838 25.0848 12.765 25.1062 12.7412 25.121C12.7175 25.1359 12.69 25.1434 12.662 25.1428H11.4378C11.4379 25.6748 11.2574 26.1911 10.9257 26.6071C10.7484 26.779 10.5367 26.9112 10.3045 26.995C10.0723 27.0789 9.82498 27.1125 9.57884 27.0935L9.57781 27.094ZM14.1634 24.3993C14.3046 24.3993 14.3937 24.4309 14.4308 24.4941C14.474 24.5863 14.4932 24.6878 14.4865 24.7894C14.495 24.8869 14.4772 24.9849 14.435 25.0733C14.4215 25.0953 14.4027 25.1134 14.3802 25.1261C14.3578 25.1387 14.3324 25.1454 14.3067 25.1454H12.6579C12.526 25.1589 12.3932 25.1296 12.2792 25.0619C12.2408 25.0193 12.2119 24.9689 12.1947 24.9141C12.1774 24.8593 12.1722 24.8015 12.1792 24.7445C12.1719 24.6985 12.1754 24.6515 12.1894 24.607C12.2035 24.5626 12.2276 24.522 12.26 24.4886C12.2924 24.4551 12.3321 24.4296 12.376 24.4141C12.42 24.3986 12.4669 24.3936 12.5131 24.3993H14.1634ZM15.8122 24.3993C15.9534 24.3993 16.0425 24.4309 16.0796 24.4941C16.1228 24.5863 16.1419 24.6878 16.1352 24.7894C16.1438 24.8869 16.126 24.9849 16.0837 25.0733C16.0703 25.0953 16.0515 25.1134 16.029 25.1261C16.0065 25.1387 15.9812 25.1454 15.9554 25.1454H14.3067C14.1747 25.1589 14.042 25.1296 13.928 25.0619C13.8895 25.0193 13.8607 24.9689 13.8434 24.9141C13.8262 24.8593 13.8209 24.8015 13.828 24.7445C13.8207 24.6985 13.8242 24.6515 13.8382 24.607C13.8522 24.5626 13.8764 24.522 13.9087 24.4886C13.9411 24.4551 13.9809 24.4296 14.0248 24.4141C14.0687 24.3986 14.1157 24.3936 14.1619 24.3993H15.8122ZM16.2908 24.3993C16.4647 24.4072 16.6375 24.3688 16.7916 24.288C16.9097 24.2224 17.0099 24.1288 17.0833 24.0155C17.1536 23.8988 17.2026 23.7706 17.2281 23.6368C17.2585 23.4841 17.2733 23.3287 17.2724 23.1731V21.4264H18.1854V23.3328C18.1766 23.4756 18.1967 23.6188 18.2443 23.7538C18.2919 23.8887 18.3661 24.0128 18.4626 24.1185C18.629 24.261 18.8324 24.3533 19.0491 24.3849C19.2659 24.4164 19.4872 24.3859 19.6873 24.2968C19.8083 24.2344 19.9117 24.1424 19.9877 24.0294C20.0643 23.911 20.1168 23.7786 20.1422 23.6399C20.1724 23.4858 20.1872 23.3291 20.1865 23.172V21.4264H21.0995V23.3328C21.0893 23.4774 21.1087 23.6226 21.1566 23.7595C21.2044 23.8964 21.2797 24.0221 21.3778 24.1288C21.4776 24.2219 21.595 24.2939 21.7232 24.3407C21.8513 24.3876 21.9876 24.4082 22.1238 24.4014C22.2934 24.4081 22.4608 24.3614 22.6025 24.2679C22.7269 24.181 22.8251 24.0616 22.8864 23.9227C22.9492 23.7831 22.9905 23.6347 23.009 23.4827C23.0267 23.3443 23.036 23.2049 23.0368 23.0654V20.3908H23.9498V23.2303C23.9227 23.5504 24.0227 23.8684 24.2281 24.1154C24.3539 24.2208 24.4994 24.3002 24.6561 24.3489C24.8128 24.3977 24.9777 24.4148 25.1411 24.3993C25.2822 24.3993 25.3714 24.4309 25.4085 24.4941C25.4522 24.5899 25.4714 24.6951 25.4641 24.8002C25.4697 24.8897 25.4546 24.9793 25.4198 25.0619C25.4081 25.0873 25.3893 25.1088 25.3656 25.1236C25.3419 25.1385 25.3143 25.146 25.2864 25.1454C24.9651 25.149 24.646 25.0924 24.3455 24.9785C24.0659 24.872 23.8291 24.6762 23.6721 24.4215C23.5475 24.6426 23.3646 24.8254 23.1435 24.9501C22.8815 25.0885 22.5879 25.1557 22.2918 25.1449C21.9872 25.1515 21.6856 25.0847 21.4123 24.9501C21.1789 24.8385 20.9847 24.6589 20.8553 24.4349C20.8031 24.5113 20.7454 24.5838 20.6827 24.6518C20.5956 24.7431 20.4963 24.8218 20.3875 24.8857C20.2452 24.9703 20.0914 25.034 19.931 25.0748C19.7272 25.126 19.5176 25.1503 19.3076 25.1469C19.0117 25.1559 18.7184 25.0889 18.4559 24.9522C18.2365 24.8358 18.057 24.6563 17.9406 24.4369C17.8867 24.5154 17.8272 24.5898 17.7624 24.6595C17.6756 24.7512 17.5762 24.83 17.4671 24.8934C17.3261 24.9754 17.1744 25.0373 17.0163 25.0774C16.8125 25.1286 16.6029 25.1529 16.3929 25.1495H15.9585C15.807 25.1616 15.655 25.1328 15.5185 25.066C15.4742 25.034 15.4391 24.991 15.4166 24.9412C15.3941 24.8914 15.385 24.8365 15.3902 24.7821C15.3902 24.5297 15.5312 24.4034 15.8132 24.4034L16.2908 24.3993ZM20.8002 18.7765C20.7991 18.7075 20.8119 18.6389 20.8378 18.5749C20.8637 18.5109 20.9022 18.4527 20.951 18.4039C20.9999 18.3551 21.058 18.3166 21.122 18.2906C21.1861 18.2647 21.2546 18.2519 21.3237 18.2531C21.392 18.251 21.46 18.2634 21.5233 18.2893C21.5866 18.3152 21.6437 18.3541 21.691 18.4035C21.7842 18.5054 21.8359 18.6385 21.8359 18.7765C21.8359 18.9146 21.7842 19.0477 21.691 19.1496C21.6437 19.199 21.5866 19.2379 21.5233 19.2638C21.46 19.2897 21.392 19.3021 21.3237 19.3C21.2546 19.3011 21.1861 19.2884 21.122 19.2624C21.058 19.2365 20.9999 19.198 20.951 19.1492C20.9022 19.1003 20.8637 19.0422 20.8378 18.9782C20.8119 18.9142 20.7991 18.8456 20.8002 18.7765ZM19.4091 18.7765C19.4079 18.7075 19.4207 18.6389 19.4466 18.5749C19.4725 18.5109 19.5111 18.4527 19.5599 18.4039C19.6087 18.3551 19.6669 18.3166 19.7309 18.2906C19.7949 18.2647 19.8635 18.2519 19.9325 18.2531C20.0009 18.251 20.0689 18.2634 20.1322 18.2893C20.1955 18.3152 20.2526 18.3541 20.2999 18.4035C20.3931 18.5054 20.4447 18.6385 20.4447 18.7765C20.4447 18.9146 20.3931 19.0477 20.2999 19.1496C20.2526 19.199 20.1955 19.2379 20.1322 19.2638C20.0689 19.2897 20.0009 19.3021 19.9325 19.3C19.8635 19.3011 19.7949 19.2884 19.7309 19.2624C19.6669 19.2365 19.6087 19.198 19.5599 19.1492C19.5111 19.1003 19.4725 19.0422 19.4466 18.9782C19.4207 18.9142 19.4079 18.8456 19.4091 18.7765ZM20.0995 17.6075C20.0984 17.5384 20.1111 17.4698 20.137 17.4058C20.163 17.3418 20.2015 17.2837 20.2503 17.2348C20.2991 17.186 20.3573 17.1475 20.4213 17.1216C20.4853 17.0957 20.5539 17.0829 20.623 17.084C20.6913 17.082 20.7593 17.0943 20.8226 17.1202C20.8859 17.1461 20.943 17.185 20.9903 17.2344C21.0835 17.3363 21.1351 17.4694 21.1351 17.6075C21.1351 17.7455 21.0835 17.8786 20.9903 17.9805C20.943 18.0299 20.8859 18.0688 20.8226 18.0947C20.7593 18.1206 20.6913 18.133 20.623 18.1309C20.5539 18.1321 20.4853 18.1193 20.4213 18.0934C20.3573 18.0675 20.2991 18.0289 20.2503 17.9801C20.2015 17.9313 20.163 17.8731 20.137 17.8091C20.1111 17.7451 20.0984 17.6765 20.0995 17.6075ZM25.1555 24.3993C25.5311 24.4312 25.9049 24.3198 26.2019 24.0876C26.325 23.949 26.4181 23.7865 26.4756 23.6102C26.533 23.434 26.5535 23.2478 26.5358 23.0633V20.3908H27.4488V23.3302C27.4368 23.4806 27.4597 23.6317 27.5158 23.7717C27.5718 23.9118 27.6595 24.037 27.7719 24.1376C28.0332 24.3263 28.3518 24.4188 28.6735 24.3993C28.72 24.3933 28.7672 24.3976 28.8117 24.412C28.8563 24.4265 28.8971 24.4506 28.9312 24.4828C28.985 24.5753 29.0084 24.6823 28.9981 24.7888C29.0042 24.8819 28.9891 24.9751 28.9538 25.0614C28.9422 25.0868 28.9233 25.1083 28.8996 25.1231C28.8759 25.1379 28.8483 25.1455 28.8204 25.1449C28.4895 25.1495 28.1607 25.0909 27.8517 24.9723C27.567 24.8626 27.3271 24.6609 27.1701 24.3993C26.8362 24.8967 26.2126 25.1454 25.2992 25.1454C25.1673 25.1589 25.0346 25.1296 24.9205 25.0619C24.8821 25.0193 24.8533 24.9689 24.836 24.9141C24.8188 24.8593 24.8135 24.8015 24.8206 24.7445C24.8132 24.6984 24.8167 24.6513 24.8308 24.6067C24.8449 24.5622 24.8691 24.5216 24.9016 24.4881C24.9341 24.4546 24.974 24.4291 25.0181 24.4137C25.0621 24.3983 25.1092 24.3934 25.1555 24.3993ZM26.4359 26.537C26.4347 26.468 26.4475 26.3994 26.4734 26.3354C26.4993 26.2714 26.5379 26.2132 26.5867 26.1644C26.6355 26.1156 26.6937 26.0771 26.7577 26.0511C26.8217 26.0252 26.8903 26.0124 26.9593 26.0136C27.0277 26.0115 27.0957 26.0239 27.159 26.0498C27.2223 26.0757 27.2794 26.1146 27.3267 26.164C27.4199 26.2659 27.4715 26.399 27.4715 26.537C27.4715 26.6751 27.4199 26.8082 27.3267 26.9101C27.2794 26.9595 27.2223 26.9984 27.159 27.0243C27.0957 27.0502 27.0277 27.0626 26.9593 27.0605C26.8903 27.0616 26.8217 27.0489 26.7577 27.0229C26.6937 26.997 26.6355 26.9585 26.5867 26.9097C26.5379 26.8608 26.4993 26.8027 26.4734 26.7387C26.4475 26.6747 26.4347 26.6061 26.4359 26.537ZM28.6735 24.3993C29.0489 24.4286 29.4223 24.3175 29.7205 24.0876C29.8469 23.9508 29.943 23.7888 30.0025 23.6123C30.062 23.4358 30.0835 23.2487 30.0657 23.0633V16.9614H30.9787V23.2303C30.9787 24.507 30.2587 25.1454 28.8188 25.1454C28.6877 25.1563 28.5563 25.1293 28.4401 25.0676C28.3993 25.0321 28.3678 24.9872 28.3484 24.9367C28.329 24.8862 28.3223 24.8317 28.3288 24.778C28.3246 24.682 28.3498 24.5869 28.401 24.5055C28.4342 24.4666 28.4765 24.4365 28.5241 24.418C28.5718 24.3995 28.6228 24.3931 28.6735 24.3993ZM33.7847 16.9614V25.1454H32.8717V16.9614H33.7847ZM40.2427 24.3993C40.4213 24.4193 40.6022 24.403 40.7744 24.3513C40.9466 24.2997 41.1066 24.2139 41.2448 24.0989C41.4605 23.7991 41.5594 23.4309 41.523 23.0633V22.8057C41.5255 22.5729 41.4974 22.3408 41.4396 22.1153C41.3884 21.9154 41.2847 21.7329 41.1392 21.5866C40.9708 21.4284 40.7664 21.3138 40.5436 21.2528C40.2319 21.1672 39.9094 21.1278 39.5863 21.1358H38.784V20.3908H39.8861C40.276 20.3825 40.6648 20.4347 41.0387 20.5454C41.3336 20.6334 41.6054 20.7854 41.8348 20.9905C42.0415 21.1818 42.1982 21.4208 42.2913 21.6866C42.3912 21.9785 42.4402 22.2854 42.436 22.5939V23.2287C42.4792 23.7535 42.3124 24.274 41.9723 24.676C41.7622 24.8501 41.5197 24.981 41.2589 25.0613C40.9981 25.1416 40.724 25.1696 40.4524 25.1438H38.0823V24.3993H40.2427ZM43.6273 27.094C43.5242 27.094 43.411 27.0885 43.2877 27.0775C43.1736 27.0672 43.0602 27.05 42.9482 27.026L43.0708 26.2691C43.1526 26.2839 43.236 26.2951 43.3212 26.3026C43.4064 26.3102 43.4899 26.3139 43.5716 26.3139C43.7175 26.3268 43.8643 26.3036 43.999 26.2464C44.1338 26.1891 44.2524 26.0996 44.3445 25.9857C44.5305 25.6638 44.6144 25.293 44.5851 24.9223V20.3882H45.4981V24.7976C45.5421 25.4043 45.3857 26.0087 45.0529 26.518C44.8776 26.7196 44.657 26.8769 44.4092 26.977C44.1614 27.077 43.8935 27.1174 43.6273 27.094ZM48.2484 16.9614V25.1454H47.3354V16.9614H48.2484ZM51.7891 26.3809C52.1497 26.4073 52.5076 26.3025 52.7969 26.0857C52.9204 25.9624 53.0181 25.8156 53.0841 25.6541C53.1501 25.4925 53.1831 25.3194 53.1813 25.1449H52.4244C51.9419 25.1588 51.4604 25.093 50.9993 24.9501C50.6735 24.8484 50.376 24.672 50.1306 24.4349C49.9295 24.2311 49.7822 23.9806 49.7019 23.7058C49.6242 23.4362 49.5848 23.1569 49.5849 22.8763C49.5812 22.5273 49.6396 22.1805 49.7576 21.852C49.865 21.5527 50.0316 21.2781 50.2475 21.0446C50.4596 20.8161 50.7173 20.6346 51.0039 20.5119C51.3085 20.3835 51.6363 20.3191 51.9669 20.3228C52.2592 20.3029 52.5525 20.3447 52.8276 20.4455C53.1028 20.5462 53.3537 20.7036 53.5641 20.9076C53.9498 21.3473 54.1477 21.9208 54.1154 22.5048V24.3978H54.9841C55.1253 24.3978 55.2144 24.4294 55.2515 24.4926C55.2947 24.5847 55.3139 24.6863 55.3072 24.7878C55.3132 24.8808 55.2981 24.9741 55.2629 25.0604C55.2512 25.0858 55.2323 25.1072 55.2086 25.1221C55.1849 25.1369 55.1574 25.1445 55.1294 25.1438H54.0938C54.0678 25.4113 54.0041 25.6737 53.9047 25.9234C53.8103 26.1635 53.6641 26.3799 53.4764 26.5569C53.2888 26.734 53.0643 26.8674 52.8191 26.9477C52.5013 27.0514 52.1682 27.1003 51.834 27.0925C51.5937 27.0908 51.3538 27.0736 51.1157 27.0409C50.878 27.0108 50.642 26.968 50.4088 26.9127L50.5423 26.2001C50.714 26.2372 50.9107 26.2762 51.1322 26.317C51.3488 26.3582 51.5687 26.3796 51.7891 26.3809ZM50.5309 22.8304C50.5206 23.1032 50.57 23.3748 50.6757 23.6265C50.7639 23.8208 50.9047 23.9866 51.0822 24.1051C51.2714 24.2258 51.4838 24.3055 51.7057 24.339C51.9688 24.3816 52.2351 24.4021 52.5017 24.4004H53.1921V22.8304C53.1939 22.5967 53.1715 22.3634 53.1251 22.1343C53.0869 21.938 53.0113 21.7509 52.9026 21.583C52.8007 21.4296 52.6606 21.3053 52.496 21.2224C52.3068 21.132 52.0987 21.088 51.8891 21.0941C51.7497 21.097 51.6112 21.1176 51.4769 21.1554C51.3116 21.2014 51.1592 21.2852 51.0317 21.4001C50.874 21.5467 50.752 21.7276 50.6752 21.9288C50.5689 22.2171 50.5199 22.5234 50.5309 22.8304ZM56.6324 24.4004C56.7735 24.4004 56.8627 24.432 56.8998 24.4952C56.943 24.5873 56.9621 24.6889 56.9554 24.7904C56.964 24.8879 56.9462 24.986 56.9039 25.0743C56.8905 25.0963 56.8716 25.1145 56.8492 25.1271C56.8267 25.1397 56.8014 25.1464 56.7756 25.1464H55.1268C54.9949 25.1599 54.8622 25.1307 54.7481 25.063C54.7097 25.0203 54.6809 24.9699 54.6636 24.9151C54.6464 24.8604 54.6411 24.8025 54.6482 24.7456C54.6409 24.6996 54.6444 24.6525 54.6584 24.6081C54.6724 24.5636 54.6965 24.5231 54.7289 24.4896C54.7613 24.4561 54.801 24.4306 54.845 24.4151C54.8889 24.3996 54.9358 24.3946 54.9821 24.4004H56.6324ZM58.2811 24.4004C58.4223 24.4004 58.5114 24.432 58.5485 24.4952C58.5917 24.5873 58.6109 24.6889 58.6042 24.7904C58.6127 24.8879 58.5949 24.986 58.5527 25.0743C58.5392 25.0963 58.5204 25.1145 58.4979 25.1271C58.4755 25.1397 58.4501 25.1464 58.4244 25.1464H56.7756C56.6437 25.1599 56.5109 25.1307 56.3969 25.063C56.3585 25.0203 56.3296 24.9699 56.3124 24.9151C56.2951 24.8604 56.2899 24.8025 56.2969 24.7456C56.2896 24.6996 56.2931 24.6525 56.3071 24.6081C56.3211 24.5636 56.3453 24.5231 56.3777 24.4896C56.4101 24.4561 56.4498 24.4306 56.4937 24.4151C56.5377 24.3996 56.5846 24.3946 56.6308 24.4004H58.2811ZM59.9299 24.4004C60.0711 24.4004 60.1602 24.432 60.1973 24.4952C60.2405 24.5873 60.2596 24.6889 60.2529 24.7904C60.2615 24.8879 60.2437 24.986 60.2014 25.0743C60.188 25.0963 60.1692 25.1145 60.1467 25.1271C60.1242 25.1397 60.0989 25.1464 60.0731 25.1464H58.4244C58.2924 25.1599 58.1597 25.1307 58.0457 25.063C58.0072 25.0203 57.9784 24.9699 57.9611 24.9151C57.9439 24.8604 57.9386 24.8025 57.9457 24.7456C57.9384 24.6996 57.9419 24.6525 57.9559 24.6081C57.9699 24.5636 57.9941 24.5231 58.0264 24.4896C58.0588 24.4561 58.0986 24.4306 58.1425 24.4151C58.1864 24.3996 58.2334 24.3946 58.2796 24.4004H59.9299ZM60.0747 25.1464C59.9427 25.1599 59.81 25.1307 59.696 25.063C59.6575 25.0203 59.6287 24.9699 59.6114 24.9151C59.5942 24.8604 59.5889 24.8025 59.596 24.7456C59.5887 24.6996 59.5922 24.6525 59.6062 24.6081C59.6202 24.5636 59.6444 24.5231 59.6768 24.4896C59.7091 24.4561 59.7489 24.4306 59.7928 24.4151C59.8367 24.3996 59.8837 24.3946 59.9299 24.4004H60.2194C60.3332 24.402 60.446 24.3807 60.5513 24.3376C60.6566 24.2946 60.7521 24.2308 60.8321 24.15C61.0083 23.9698 61.108 23.7285 61.1103 23.4765C61.0912 22.6483 61.3221 21.8335 61.7729 21.1384C61.9759 20.8697 62.2418 20.655 62.5473 20.5132C62.8528 20.3715 63.1884 20.3069 63.5247 20.3253C63.8942 20.313 64.2617 20.3854 64.599 20.5371C64.8675 20.6642 65.1022 20.8532 65.2837 21.0884C65.455 21.316 65.5798 21.5751 65.6511 21.851C65.724 22.1265 65.7611 22.4104 65.7613 22.6954C65.7634 22.9696 65.7298 23.2429 65.6614 23.5085C65.6628 23.6458 65.6981 23.7807 65.7641 23.9012C65.8302 24.0216 65.925 24.1239 66.0401 24.1989C66.2986 24.3414 66.5911 24.4107 66.8861 24.3993C67.0345 24.3993 67.1272 24.4309 67.1643 24.4941C67.2075 24.5863 67.2267 24.6878 67.22 24.7894C67.2285 24.8869 67.2107 24.9849 67.1684 25.0733C67.1534 25.0962 67.1327 25.1149 67.1083 25.1276C67.084 25.1402 67.0568 25.1463 67.0293 25.1454C66.6859 25.1476 66.3447 25.0892 66.0215 24.9728C65.862 24.9127 65.7162 24.8211 65.5928 24.7035C65.4694 24.5858 65.3709 24.4445 65.3033 24.288C65.1158 24.5653 64.8636 24.7927 64.5686 24.9506C64.2561 25.1141 63.9076 25.1964 63.5551 25.1902C63.2447 25.1877 62.9374 25.1292 62.6478 25.0176C62.2977 24.8768 61.9754 24.6751 61.6956 24.422C61.6014 24.6594 61.4312 24.859 61.2116 24.9895C60.9919 25.12 60.7353 25.1741 60.4817 25.1433L60.0747 25.1464ZM63.5154 21.1049C63.2985 21.1076 63.0861 21.1665 62.8987 21.2757C62.7113 21.385 62.5555 21.5409 62.4463 21.7283C62.1184 22.3054 61.9458 22.9576 61.9455 23.6213C62.1866 23.8512 62.456 24.0494 62.7472 24.2113C63.0083 24.347 63.299 24.4158 63.5932 24.4117C63.8132 24.4208 64.0307 24.3625 64.2167 24.2448C64.3759 24.1379 64.5077 23.9949 64.601 23.8274C64.6941 23.6594 64.758 23.4768 64.7901 23.2874C64.8228 23.1074 64.8401 22.9248 64.8416 22.7418C64.8787 22.2991 64.754 21.8579 64.4908 21.5001C64.3672 21.366 64.2155 21.2609 64.0465 21.1923C63.8775 21.1237 63.6954 21.0933 63.5134 21.1034L63.5154 21.1049ZM66.8892 24.4024C67.2646 24.4317 67.6374 24.3206 67.9356 24.0907C68.0621 23.9539 68.1582 23.7919 68.2176 23.6154C68.2771 23.4389 68.2987 23.2518 68.2808 23.0664V16.9614H69.1938V23.2303C69.1938 24.507 68.4739 25.1454 67.034 25.1454C66.9029 25.1563 66.7714 25.1293 66.6553 25.0676C66.6144 25.0321 66.5829 24.9872 66.5635 24.9367C66.5441 24.8862 66.5374 24.8317 66.544 24.778C66.5398 24.682 66.5649 24.5869 66.6161 24.5055C66.6491 24.4669 66.6911 24.437 66.7383 24.4185C66.7856 24.4 66.8367 24.3934 66.8871 24.3993L66.8892 24.4024ZM71.9957 16.9614V25.1454H71.0827V16.9614H71.9957Z" fill="#606060"/>
<path d="M0 31.2792H0.627044V33.5128H3.10533V31.2792H3.73186V36.4234H3.10533V34.0383H0.627044V36.4234H0V31.2792ZM8.68896 34.9029C8.69173 35.1247 8.64748 35.3445 8.55912 35.548C8.47318 35.7419 8.34668 35.9151 8.18815 36.056C8.01392 36.207 7.81047 36.3205 7.59047 36.3894C7.33326 36.4716 7.06446 36.5118 6.79443 36.5084C6.52657 36.5123 6.25989 36.4721 6.00509 36.3894C5.78659 36.3184 5.58444 36.2045 5.4105 36.0545C5.25019 35.9144 5.12236 35.741 5.03593 35.5464C4.94778 35.3435 4.90353 35.1242 4.90609 34.9029V31.2792H5.53313V34.838C5.52279 34.9941 5.54568 35.1505 5.60031 35.2971C5.65493 35.4436 5.74004 35.5769 5.85 35.6881C6.11303 35.9026 6.44821 36.0083 6.7867 35.9834C7.13107 36.002 7.46968 35.8893 7.73422 35.668C7.845 35.5607 7.93155 35.4309 7.98806 35.2874C8.04458 35.1439 8.06976 34.99 8.06192 34.8359V31.2792H8.68896V34.9029ZM12.3415 35.854H12.3559L13.8042 31.2792H14.8775V36.4234H14.2721V31.7522H14.2576L12.7305 36.4234H11.9453L10.4681 31.7522H10.4536V36.4234H9.86318V31.2792H10.9225L12.3415 35.854ZM16.2032 36.4208H15.5334L17.4913 31.2767H18.3342L20.3009 36.4208H19.6182L19.0128 34.8813H16.7864L16.2032 36.4208ZM16.9451 34.3532H18.8613L17.9035 31.7522L16.9451 34.3532ZM24.1353 35.7603H24.1497V31.2777H24.7407V36.4234H23.8204L21.5632 31.9068H21.5488V36.4234H20.9583V31.2792H21.9022L24.1353 35.7603ZM31.6278 31.2777H33.4002C33.6142 31.2762 33.8275 31.3029 34.0345 31.3571C34.2195 31.4041 34.3934 31.4872 34.5461 31.6018C34.6919 31.7144 34.807 31.8618 34.881 32.0305C34.9643 32.223 35.0053 32.4313 35.0011 32.641C35.0079 32.9131 34.9229 33.1795 34.76 33.3974C34.5805 33.6205 34.3302 33.7756 34.0505 33.8369V33.8513C34.2324 33.8898 34.3946 33.9919 34.508 34.1393C34.644 34.3462 34.7427 34.5754 34.7996 34.8164C34.8862 35.1094 34.9666 35.3795 35.0408 35.6268C35.115 35.8741 35.1953 36.1395 35.2819 36.4229H34.6121C34.5832 36.3219 34.5508 36.203 34.5147 36.0663C34.4786 35.9296 34.4426 35.7922 34.4065 35.6541C34.3722 35.5147 34.3361 35.3802 34.2983 35.2507L34.2081 34.9266C34.1711 34.7948 34.1241 34.6659 34.0675 34.5412C34.0239 34.4411 33.9571 34.3528 33.8727 34.2836C33.7823 34.2161 33.6776 34.1705 33.5667 34.1502C33.4075 34.1207 33.2457 34.1074 33.0839 34.1105H32.2549V36.4234H31.6283L31.6278 31.2777ZM32.2549 33.5844H33.2493C33.5401 33.6023 33.8289 33.5266 34.0737 33.3685C34.1751 33.2855 34.2551 33.1794 34.3071 33.0591C34.3591 32.9388 34.3815 32.8078 34.3725 32.6771C34.3781 32.5255 34.3471 32.3748 34.2823 32.2376C34.226 32.1264 34.1401 32.033 34.034 31.9676C33.927 31.9022 33.8084 31.8581 33.6847 31.8378C33.5549 31.8159 33.4236 31.8051 33.292 31.8053H32.2549V33.5844ZM36.1166 31.2787H38.9406V31.8038H36.7436V33.5113H38.768V34.0373H36.7436V35.8973H38.9988V36.4234H36.1166V31.2787ZM42.5648 31.9346C42.2043 31.7904 41.8195 31.7171 41.4312 31.7187C41.3077 31.7186 41.1845 31.7319 41.0639 31.7584C40.9477 31.7834 40.836 31.826 40.7326 31.8847C40.6315 31.9425 40.5472 32.0256 40.4879 32.1258C40.4223 32.2408 40.3899 32.3717 40.3941 32.504C40.3917 32.6093 40.4091 32.7142 40.4456 32.8131C40.4858 32.9113 40.5474 32.9993 40.6259 33.0707C40.7261 33.1613 40.8375 33.2387 40.9572 33.301C41.1214 33.3877 41.2911 33.4634 41.4653 33.5277C41.6863 33.6107 41.9016 33.7081 42.1098 33.8194C42.2768 33.9082 42.4308 34.0197 42.5673 34.1507C42.6881 34.2674 42.7837 34.4077 42.8481 34.5629C42.9138 34.7316 42.9457 34.9115 42.9419 35.0925C42.9495 35.3181 42.899 35.5418 42.7951 35.7422C42.6987 35.9174 42.5631 36.0678 42.3989 36.1817C42.2302 36.2969 42.0423 36.381 41.844 36.4301C41.6391 36.4827 41.4284 36.5094 41.2169 36.5094C40.9652 36.5072 40.7143 36.4806 40.4678 36.4301C40.2024 36.3788 39.9433 36.2991 39.6949 36.1926L39.8557 35.6526C40.0824 35.7648 40.3218 35.8494 40.5687 35.9045C40.7861 35.9547 41.0083 35.9813 41.2313 35.9839C41.3758 35.9846 41.5198 35.9673 41.66 35.9324C41.7852 35.9028 41.9035 35.8493 42.0083 35.7747C42.1041 35.7048 42.1824 35.6136 42.2371 35.5083C42.2939 35.3918 42.3215 35.2633 42.3175 35.1337C42.3191 35.0111 42.2906 34.8899 42.2345 34.7808C42.1744 34.6694 42.0909 34.5724 41.9898 34.4964C41.8703 34.4053 41.7425 34.3258 41.608 34.2589C41.4616 34.1843 41.2875 34.1064 41.0855 34.0249C40.7146 33.8953 40.3765 33.6862 40.0947 33.4123C39.8808 33.1813 39.7636 32.877 39.767 32.5622C39.7605 32.3434 39.8128 32.1269 39.9185 31.9351C40.0154 31.7665 40.1497 31.6223 40.3111 31.5137C40.4755 31.4041 40.6569 31.3226 40.848 31.2726C41.0415 31.2198 41.241 31.193 41.4416 31.1927C41.6671 31.1915 41.8923 31.2087 42.115 31.2442C42.3208 31.2768 42.5225 31.3312 42.7168 31.4065L42.5648 31.9346ZM48.2777 33.8585C48.2813 34.2183 48.2304 34.5765 48.1268 34.9209C48.0355 35.2271 47.8849 35.5122 47.6837 35.7603C47.4893 35.9956 47.2443 36.1841 46.967 36.3116C46.6612 36.4484 46.3291 36.5162 45.9942 36.5099C45.6593 36.5162 45.3271 36.4484 45.0214 36.3116C44.7441 36.1841 44.4991 35.9956 44.3047 35.7603C44.104 35.5121 43.954 35.2269 43.8632 34.9209C43.7583 34.5766 43.7062 34.2184 43.7086 33.8585C43.7058 33.4961 43.7579 33.1352 43.8632 32.7884C43.9547 32.482 44.1039 32.1959 44.3027 31.9455C44.4963 31.7065 44.7434 31.5165 45.024 31.3905C45.33 31.2546 45.662 31.187 45.9968 31.1922C46.3318 31.187 46.664 31.255 46.97 31.3916C47.2488 31.5183 47.4942 31.7083 47.6867 31.9465C47.8855 32.1969 48.0347 32.483 48.1262 32.7894C48.2304 33.1361 48.2814 33.4966 48.2777 33.8585ZM47.6507 33.8585C47.6516 33.5791 47.617 33.3007 47.5476 33.03C47.4876 32.7865 47.3839 32.5559 47.2416 32.3494C47.1065 32.1564 46.9274 31.9984 46.7191 31.8883C46.4825 31.7695 46.2202 31.7113 45.9555 31.7187C45.7122 31.7197 45.4725 31.779 45.2569 31.8919C45.0513 32.0014 44.8747 32.1582 44.7416 32.3494C44.5994 32.5559 44.4957 32.7865 44.4356 33.03C44.3662 33.3007 44.3316 33.5791 44.3326 33.8585C44.3313 34.1356 44.3659 34.4117 44.4356 34.6798C44.4977 34.9226 44.6021 35.1525 44.7442 35.3589C44.876 35.5513 45.0529 35.7084 45.2595 35.8164C45.4877 35.9297 45.7394 35.9878 45.9942 35.9859C46.248 35.991 46.4991 35.9333 46.7253 35.818C46.9326 35.7088 47.1105 35.5513 47.2442 35.3589C47.386 35.1534 47.4897 34.9241 47.5502 34.6819C47.6189 34.4129 47.6529 34.1362 47.6512 33.8585H47.6507ZM53.0344 34.9029C53.0371 35.1245 52.9928 35.3442 52.9046 35.5475C52.8186 35.7414 52.6921 35.9146 52.5336 36.0555C52.3593 36.2071 52.1557 36.3211 51.9354 36.3904C51.6782 36.4727 51.4094 36.5129 51.1393 36.5094C50.8711 36.5131 50.604 36.4725 50.349 36.3894C50.1305 36.3184 49.9283 36.2045 49.7544 36.0545C49.5941 35.9144 49.4662 35.741 49.3798 35.5464C49.2915 35.3432 49.2473 35.1235 49.25 34.9019V31.2792H49.877V34.838C49.8667 34.9941 49.8896 35.1505 49.9442 35.2971C49.9988 35.4436 50.0839 35.5769 50.1939 35.6881C50.4569 35.9026 50.7921 36.0083 51.1306 35.9834C51.475 36.002 51.8136 35.8893 52.0781 35.668C52.1889 35.5607 52.2754 35.4309 52.3319 35.2874C52.3885 35.1439 52.4136 34.99 52.4058 34.8359V31.2792H53.0344V34.9029ZM54.2086 31.2792H55.981C56.1948 31.2778 56.4079 31.3045 56.6148 31.3586C56.7998 31.4056 56.9737 31.4888 57.1264 31.6033C57.2721 31.716 57.3873 31.8634 57.4613 32.032C57.544 32.2242 57.5846 32.4318 57.5803 32.641C57.5871 32.9131 57.5022 33.1795 57.3392 33.3974C57.1598 33.6205 56.9094 33.7756 56.6297 33.8369V33.8513C56.8116 33.8898 56.9739 33.9919 57.0872 34.1393C57.2233 34.3462 57.322 34.5754 57.3789 34.8164C57.4654 35.1094 57.5458 35.3795 57.62 35.6268C57.6942 35.8741 57.7746 36.1395 57.8611 36.4229H57.1913C57.1625 36.3219 57.13 36.203 57.0939 36.0663C57.0579 35.9296 57.0218 35.7922 56.9857 35.6541C56.9514 35.5147 56.9153 35.3802 56.8775 35.2507L56.7874 34.9266C56.7503 34.7948 56.7033 34.6659 56.6467 34.5412C56.6031 34.4411 56.5364 34.3528 56.452 34.2836C56.3616 34.2161 56.2568 34.1705 56.1459 34.1502C55.9864 34.1206 55.8243 34.1073 55.6621 34.1105H54.8336V36.4234H54.2066L54.2086 31.2792ZM54.8357 33.5849H55.8301C56.1209 33.6028 56.4097 33.5271 56.6544 33.3691C56.7559 33.2861 56.8359 33.18 56.8879 33.0597C56.9399 32.9394 56.9623 32.8083 56.9533 32.6776C56.9588 32.526 56.9279 32.3753 56.8631 32.2381C56.8068 32.1269 56.7209 32.0335 56.6148 31.9681C56.5078 31.9027 56.3892 31.8586 56.2654 31.8383C56.1357 31.8165 56.0044 31.8056 55.8728 31.8058H54.8351L54.8357 33.5849ZM61.9825 31.9424C61.844 31.8651 61.6946 31.8091 61.5394 31.7765C61.3655 31.7376 61.1879 31.7183 61.0097 31.7187C60.7165 31.7158 60.4259 31.7735 60.156 31.8883C59.9257 31.9905 59.7232 32.1461 59.565 32.3422C59.4044 32.5454 59.2845 32.7777 59.2121 33.0264C59.1309 33.3012 59.0908 33.5865 59.0931 33.873C59.0915 34.1502 59.1328 34.426 59.2157 34.6906C59.2905 34.9347 59.4115 35.1621 59.5722 35.3604C59.7339 35.5544 59.9371 35.7096 60.1668 35.8144C60.427 35.9315 60.71 35.9894 60.9953 35.9839C61.1905 35.9867 61.3852 35.9661 61.5755 35.9226C61.7422 35.8813 61.9031 35.8195 62.0546 35.7386L62.235 36.2286C62.0468 36.3314 61.8438 36.4043 61.6332 36.4445C61.4114 36.4881 61.1858 36.5098 60.9598 36.5094C60.6008 36.5151 60.2443 36.4489 59.9113 36.3147C59.6096 36.1914 59.3395 36.0019 59.1209 35.7603C58.9025 35.5165 58.7358 35.231 58.6309 34.9209C58.517 34.5806 58.4609 34.2236 58.465 33.8647C58.461 33.5015 58.5171 33.14 58.6309 32.7951C58.7347 32.4824 58.9015 32.1943 59.1209 31.9485C59.3414 31.7059 59.6134 31.5156 59.9169 31.3916C60.2608 31.2541 60.6287 31.1867 60.9989 31.1932C61.213 31.193 61.4266 31.2135 61.6368 31.2545C61.8251 31.288 62.0066 31.3526 62.1737 31.4457L61.9825 31.9424ZM63.0558 31.2798H65.8798V31.8038H63.6823V33.5113H65.7066V34.0373H63.6823V35.8973H65.9375V36.4234H63.0558V31.2798ZM69.5039 31.9351C69.1435 31.7909 68.7586 31.7176 68.3704 31.7193C68.2469 31.7191 68.1237 31.7324 68.0031 31.7589C67.8869 31.7839 67.7751 31.8265 67.6718 31.8852C67.5707 31.9431 67.4864 32.0261 67.427 32.1263C67.3615 32.2413 67.3291 32.3722 67.3332 32.5045C67.3308 32.6099 67.3483 32.7147 67.3848 32.8136C67.425 32.9118 67.4866 32.9998 67.5651 33.0712C67.6653 33.1618 67.7766 33.2392 67.8964 33.3016C68.0606 33.3882 68.2303 33.4639 68.4044 33.5283C68.6256 33.6112 68.8411 33.7086 69.0495 33.8199C69.2165 33.9088 69.3705 34.0202 69.507 34.1512C69.6278 34.2679 69.7234 34.4082 69.7878 34.5634C69.8535 34.7312 69.8857 34.9103 69.8826 35.0905C69.8898 35.317 69.8383 35.5415 69.7332 35.7422C69.6369 35.9174 69.5013 36.0678 69.337 36.1817C69.1683 36.2969 68.9804 36.381 68.7821 36.4301C68.5772 36.4827 68.3666 36.5094 68.1551 36.5094C67.9034 36.5072 67.6525 36.4806 67.4059 36.4301C67.1405 36.3788 66.8814 36.2991 66.633 36.1926L66.7912 35.6526C67.018 35.7648 67.2574 35.8493 67.5043 35.9045C67.7217 35.9547 67.9438 35.9813 68.1669 35.9839C68.3114 35.9846 68.4554 35.9673 68.5956 35.9324C68.72 35.9022 68.8374 35.8483 68.9413 35.7737C69.0377 35.7039 69.1165 35.6127 69.1716 35.5073C69.2293 35.391 69.2578 35.2625 69.2546 35.1327C69.2562 35.01 69.2277 34.8889 69.1716 34.7798C69.1115 34.6684 69.028 34.5714 68.9269 34.4954C68.8074 34.4043 68.6796 34.3247 68.5451 34.2578C68.3988 34.1833 68.2246 34.1053 68.0226 34.0239C67.6517 33.8942 67.3136 33.6852 67.0318 33.4113C66.8179 33.1802 66.7007 32.876 66.7041 32.5612C66.6976 32.3424 66.75 32.1258 66.8556 31.9341C66.9525 31.7654 67.0869 31.6213 67.2482 31.5127C67.4126 31.4031 67.594 31.3216 67.7851 31.2715C67.9778 31.2192 68.1765 31.1925 68.3761 31.1922C68.6016 31.191 68.8268 31.2082 69.0495 31.2437C69.2553 31.2763 69.457 31.3307 69.6513 31.406L69.5039 31.9351ZM0 39.1387H1.46276C1.82488 39.1342 2.18483 39.1952 2.52518 39.319C2.82732 39.428 3.10075 39.6041 3.32483 39.8342C3.54398 40.0664 3.71104 40.3428 3.81482 40.6447C3.9318 40.9878 3.98896 41.3483 3.98381 41.7107C3.9893 42.0737 3.93213 42.4348 3.81482 42.7783C3.70956 43.0804 3.54131 43.3566 3.32122 43.5888C3.09853 43.8189 2.82627 43.9951 2.52518 44.104C2.18451 44.2262 1.82463 44.2861 1.46276 44.2807H0V39.1387ZM0.627044 43.7573H1.36899C1.63965 43.7752 1.91109 43.7367 2.16609 43.6442C2.42109 43.5517 2.65408 43.4072 2.85029 43.2199C3.0311 43.0119 3.16898 42.7702 3.256 42.5087C3.34301 42.2473 3.37743 41.9712 3.35729 41.6963C3.38989 41.1563 3.21017 40.6249 2.85647 40.2155C2.662 40.0231 2.42872 39.8744 2.17221 39.7794C1.91571 39.6843 1.64187 39.645 1.36899 39.6642H0.627044V43.7573ZM5.03644 39.1392H7.86046V39.6647H5.66297V41.3722H7.68734V41.8983H5.66297V43.7573H7.91816V44.2828H5.03593L5.03644 39.1392ZM8.31438 39.1392H8.98419L10.5474 43.714H10.5618L12.1179 39.1392H12.7877L10.9431 44.2833H10.144L8.31438 39.1392ZM13.4441 39.1392H16.2681V39.6647H14.0706V41.3722H16.095V41.8983H14.0706V43.7573H16.3258V44.2828H13.4436L13.4441 39.1392ZM17.3346 39.1392H17.9617V43.7573H20.2385V44.2828H17.3341L17.3346 39.1392ZM24.9715 41.7185C24.9747 42.0774 24.9236 42.4347 24.82 42.7783C24.7287 43.0844 24.5782 43.3696 24.3769 43.6176C24.1825 43.853 23.9375 44.0414 23.6602 44.1689C23.3526 44.2996 23.0219 44.367 22.6877 44.367C22.3535 44.367 22.0228 44.2996 21.7152 44.1689C21.4379 44.0414 21.1929 43.853 20.9985 43.6176C20.7972 43.3696 20.6467 43.0844 20.5554 42.7783C20.4515 42.4339 20.4005 42.0756 20.4039 41.7159C20.4001 41.3537 20.4512 40.9931 20.5554 40.6463C20.6469 40.3399 20.7961 40.0538 20.9949 39.8033C21.1885 39.5644 21.4356 39.3743 21.7162 39.2484C22.0244 39.1177 22.3558 39.0503 22.6905 39.0503C23.0253 39.0503 23.3566 39.1177 23.6648 39.2484C23.9436 39.3752 24.189 39.5652 24.3815 39.8033C24.5803 40.0538 24.7295 40.3399 24.821 40.6463C24.9249 40.9939 24.9755 41.3552 24.971 41.718L24.9715 41.7185ZM24.3444 41.7185C24.3454 41.439 24.3108 41.1606 24.2414 40.89C24.1813 40.6465 24.0776 40.4159 23.9353 40.2093C23.8002 40.0164 23.6211 39.8583 23.4129 39.7482C23.1763 39.6294 22.9139 39.5712 22.6493 39.5787C22.4059 39.5796 22.1663 39.639 21.9506 39.7518C21.7451 39.8614 21.5685 40.0182 21.4354 40.2093C21.2931 40.4159 21.1894 40.6465 21.1294 40.89C21.06 41.1606 21.0254 41.439 21.0263 41.7185C21.025 41.9955 21.0597 42.2716 21.1294 42.5398C21.1909 42.7816 21.2945 43.0108 21.4354 43.2168C21.5671 43.4091 21.7441 43.5662 21.9506 43.6743C22.1794 43.7877 22.4316 43.8456 22.6869 43.8433C22.9406 43.849 23.1917 43.792 23.418 43.6774C23.6251 43.5686 23.8031 43.4117 23.9369 43.2199C24.0787 43.0144 24.1824 42.7851 24.2429 42.5428C24.312 42.2734 24.3461 41.9966 24.3444 41.7185ZM26.036 39.1387H27.7074C27.9303 39.1368 28.1527 39.161 28.37 39.2108C28.5626 39.2547 28.7449 39.3353 28.9069 39.4483C29.0666 39.5632 29.1943 39.7169 29.2778 39.895C29.3758 40.1146 29.4226 40.3535 29.4149 40.5937C29.4207 40.8369 29.3752 41.0787 29.2814 41.3032C29.1997 41.4934 29.0708 41.6596 28.9069 41.786C28.7469 41.9079 28.5644 41.9972 28.37 42.0487C28.1583 42.1034 27.9404 42.1301 27.7218 42.1281H26.664V44.2828H26.036V39.1387ZM26.663 41.6025H27.6646C27.816 41.6043 27.9671 41.5886 28.1149 41.5557C28.2394 41.5279 28.357 41.4754 28.4607 41.4011C28.5638 41.3231 28.6455 41.2203 28.6982 41.1022C28.7634 40.9487 28.7942 40.7826 28.7884 40.6159C28.7913 40.4478 28.7594 40.281 28.6946 40.1259C28.6396 40.0089 28.5522 39.9101 28.4426 39.8415C28.3272 39.7699 28.1986 39.7221 28.0645 39.7008C27.9112 39.6759 27.756 39.6638 27.6007 39.6647H26.664L26.663 41.6025ZM32.8459 43.715H32.8603L34.3086 39.1402H35.3818V44.2828H34.7764V39.6142H34.762L33.2349 44.2828H32.4496L30.9725 39.6142H30.958V44.2828H30.3676V39.1387H31.4269L32.8459 43.715ZM36.6498 39.1387H39.4739V39.6647H37.2764V41.3722H39.3007V41.8983H37.2764V43.7573H39.5316V44.2828H36.6498V39.1387ZM43.7174 43.6212H43.7318V39.1387H44.3228V44.2828H43.3995L41.1453 39.7657H41.1324V44.2828H40.5404V39.1387H41.4843L43.7174 43.6212ZM46.6135 39.6658H45.0647V39.1387H48.7533V39.6647H47.2405V44.2828H46.6135V39.6658ZM51.3686 39.1397H54.0777V39.6647H51.9957V41.3722H53.9536V41.8983H51.9957V44.2828H51.3686V39.1397ZM58.6886 42.7634C58.6913 42.985 58.6471 43.2046 58.5588 43.4079C58.4728 43.6018 58.3463 43.7751 58.1878 43.916C58.0135 44.0675 57.8099 44.1815 57.5896 44.2509C57.3324 44.3331 57.0636 44.3733 56.7936 44.3699C56.5259 44.3737 56.2594 44.3335 56.0047 44.2509C55.7862 44.1799 55.5841 44.066 55.4101 43.916C55.2498 43.7759 55.122 43.6025 55.0356 43.4079C54.9473 43.2046 54.903 42.985 54.9057 42.7634V39.1387H55.5328V42.6979C55.5224 42.854 55.5453 43.0105 55.5999 43.157C55.6546 43.3036 55.7397 43.4369 55.8496 43.5481C56.1127 43.7626 56.4479 43.8682 56.7863 43.8433C57.1304 43.8625 57.469 43.7506 57.7339 43.53C57.8446 43.4227 57.9312 43.2929 57.9877 43.1494C58.0442 43.0059 58.0694 42.852 58.0616 42.6979V39.1387H58.6886V42.7634ZM63.0403 43.6207H63.0547V39.1382H63.6457V44.2828H62.7208L60.4657 39.7657H60.4538V44.2828H59.8628V39.1387H60.8067L63.0403 43.6207ZM64.9137 39.1382H66.3765C66.7386 39.1336 67.0985 39.1947 67.4389 39.3185C67.741 39.4274 68.0145 39.6036 68.2385 39.8337C68.4577 40.0659 68.6247 40.3422 68.7285 40.6442C68.8457 40.9872 68.903 41.3478 68.898 41.7102C68.9036 42.0739 68.8462 42.4357 68.7285 42.7799C68.6233 43.0819 68.455 43.3582 68.2349 43.5903C68.0122 43.8204 67.74 43.9966 67.4389 44.1056C67.0982 44.2277 66.7383 44.2876 66.3765 44.2823H64.9137V39.1382ZM65.5407 43.7562H66.2827C66.5532 43.7742 66.8245 43.7357 67.0795 43.6433C67.3344 43.5509 67.5673 43.4065 67.7635 43.2194C67.9445 43.0115 68.0825 42.7698 68.1697 42.5083C68.2569 42.2469 68.2915 41.9707 68.2715 41.6958C68.304 41.1558 68.1243 40.6244 67.7707 40.215C67.5762 40.0226 67.3429 39.8739 67.0864 39.7789C66.8299 39.6838 66.5561 39.6445 66.2832 39.6637H65.5413L65.5407 43.7562Z" fill="#606060"/>
</g>
<defs>
<clipPath id="clip0_13_5957">
<rect width="105.381" height="48" fill="white"/>
</clipPath>
</defs>
</svg>
