<svg width="131" height="48" viewBox="0 0 131 48" fill="none" xmlns="http://www.w3.org/2000/svg">
<path d="M73.309 5.23633C74.4237 5.60789 74.5187 5.96677 75.0885 6.97496C75.2634 7.28132 75.4382 7.58767 75.6184 7.9033C75.8043 8.2352 75.9902 8.5671 76.1817 8.90906C76.3751 9.24993 76.5687 9.59068 76.7626 9.93129C77.2615 10.8094 77.7573 11.6892 78.2521 12.5695C78.8908 13.7051 79.5331 14.8386 80.1745 15.9726C80.5012 16.551 80.8273 17.1299 81.1526 17.7092C81.3723 18.1001 81.3723 18.1001 81.5965 18.4988C81.7241 18.7264 81.8517 18.954 81.9832 19.1885C82.2731 19.6885 82.5884 20.1736 82.909 20.6545C82.909 20.9425 82.909 21.2305 82.909 21.5272C79.5487 21.8372 79.5487 21.8372 78.5522 21.1045C77.924 20.2302 77.6726 19.7082 77.6726 18.6181C75.0806 18.6181 72.4886 18.6181 69.8181 18.6181C69.6261 19.0981 69.4341 19.5781 69.2362 20.0727C68.874 20.8718 68.874 20.8718 68.3635 21.5272C65.7237 22.3162 61.547 22.3859 59.0887 21.0828C57.5531 19.9021 56.3795 18.4503 55.2726 16.8727C54.9846 16.4887 54.6966 16.1047 54.3999 15.7091C54.3039 17.6291 54.2079 19.5491 54.109 21.5272C52.861 21.5272 51.613 21.5272 50.3271 21.5272C50.3271 16.3432 50.3271 11.1592 50.3271 5.81815C51.5751 5.81815 52.8231 5.81815 54.109 5.81815C54.205 7.64215 54.301 9.46615 54.3999 11.3454C55.1158 10.5886 55.8308 9.83088 56.5453 9.07269C56.7486 8.858 56.9518 8.64332 57.1612 8.42212C57.3562 8.21494 57.5512 8.00775 57.7521 7.79428C57.9319 7.60385 58.1117 7.41342 58.2969 7.21722C58.8145 6.65761 58.8145 6.65761 59.3453 5.81815C60.1519 5.70645 60.8997 5.64261 61.709 5.61815C61.9283 5.60821 62.1477 5.59827 62.3737 5.58803C62.9156 5.56402 63.4577 5.54514 63.9999 5.52724C63.8322 6.51637 63.5315 6.96046 62.7999 7.63633C61.4858 8.894 60.3101 10.2524 59.1408 11.6443C58.909 11.9193 58.909 11.9193 58.6726 12.2C58.5357 12.3646 58.3989 12.5292 58.2578 12.6988C57.8908 13.0909 57.8908 13.0909 57.309 13.3818C57.4803 13.5641 57.4803 13.5641 57.6551 13.75C58.1826 14.3117 58.7094 14.874 59.2362 15.4363C59.4159 15.6274 59.5955 15.8185 59.7806 16.0153C60.6494 16.9436 61.5001 17.8778 62.3158 18.8534C62.9155 19.5633 63.5068 20.1419 64.2908 20.6545C65.9247 18.3829 67.2285 15.9279 68.5716 13.4794C70.0995 10.7018 71.652 7.93941 73.309 5.23633ZM73.309 12.2181C73.065 12.6415 72.823 13.066 72.5817 13.4909C72.4467 13.7271 72.3117 13.9634 72.1726 14.2068C71.8107 14.8053 71.8107 14.8053 71.8544 15.4181C73.1024 15.4181 74.3504 15.4181 75.6362 15.4181C75.0602 14.3621 74.4842 13.3061 73.8908 12.2181C73.6988 12.2181 73.5068 12.2181 73.309 12.2181Z" fill="#071E4F"/>
<path d="M39.055 12.4907C40.8317 13.1772 41.6382 15.0918 42.3822 16.7453C44.4809 22.1001 44.3372 27.3787 42.2493 32.7225C41.5438 34.1648 40.6885 35.738 39.147 36.3566C38.0996 36.3662 37.7989 35.9941 37.055 35.2725C36.8052 35.0329 36.5555 34.7933 36.2981 34.5464C36.0319 34.282 35.7656 34.0177 35.4913 33.7453C35.1984 33.4628 34.9052 33.1806 34.6118 32.8987C31.6537 30.0222 31.6537 30.0222 31.6212 27.8234C31.6215 27.624 31.6217 27.4246 31.622 27.2191C31.6208 27.0111 31.6195 26.8032 31.6182 26.5889C31.6166 26.15 31.6164 25.7111 31.6177 25.2722C31.6186 24.603 31.6118 23.9343 31.6044 23.2652C31.6037 22.8377 31.6035 22.4102 31.6038 21.9828C31.6011 21.7839 31.5985 21.5851 31.5957 21.3803C31.6107 19.8261 32.0256 18.959 33.0367 17.8112C33.1954 17.6574 33.354 17.5037 33.5175 17.3453C33.6931 17.1728 33.8688 17.0003 34.0498 16.8225C34.3224 16.5593 34.3224 16.5593 34.6004 16.2907C35.7524 15.171 36.8194 14.061 37.8186 12.7998C38.4004 12.5089 38.4004 12.5089 39.055 12.4907Z" fill="#007149"/>
<path d="M24.3267 31.0572C24.9774 31.0544 25.6277 31.0454 26.2783 31.0362C26.6938 31.0343 27.1093 31.0328 27.5249 31.0317C27.9017 31.029 28.2785 31.0262 28.6668 31.0234C30.2707 31.1888 31.1781 31.9849 32.3203 33.0624C32.5348 33.2643 32.7493 33.4662 32.9703 33.6743C33.1901 33.8837 33.4098 34.0932 33.6362 34.3089C33.8582 34.5173 34.0802 34.7256 34.309 34.9402C36.2879 36.8132 36.2879 36.8132 36.9453 37.818C36.9279 38.7585 36.7867 39.1391 36.1226 39.809C31.3253 43.0897 25.922 43.8125 20.2152 42.9432C17.6698 42.3417 14.9433 40.8342 13.0908 38.9817C12.9804 38.1392 12.9735 37.6985 13.459 36.9891C13.6289 36.825 13.7987 36.661 13.9737 36.4919C14.1614 36.3076 14.3491 36.1233 14.5425 35.9334C14.8409 35.6513 14.8409 35.6513 15.1453 35.3635C15.3364 35.1766 15.5275 34.9896 15.7243 34.797C18.6754 31.9332 20.1513 31.0682 24.3267 31.0572Z" fill="#FE5121"/>
<path d="M11.327 12.5093C12.0002 12.8357 12.4186 13.2706 12.9373 13.8009C13.4421 14.3165 13.9546 14.8237 14.4679 15.3309C14.8573 15.7176 15.2467 16.1043 15.6361 16.4911C15.9348 16.7861 15.9348 16.7861 16.2395 17.0871C16.5236 17.3698 16.5236 17.3698 16.8134 17.6581C16.9854 17.8286 17.1574 17.9992 17.3347 18.1748C18.5744 19.5143 18.1732 21.9485 18.2019 23.683C18.2125 24.1813 18.2283 24.6796 18.2496 25.1776C18.4457 29.8402 18.4457 29.8402 16.8202 31.6536C16.3616 32.07 15.8948 32.4777 15.4179 32.8729C15.1115 33.1929 14.8092 33.517 14.5134 33.8468C14.2599 34.1074 14.0064 34.368 13.7452 34.6366C13.3604 35.0376 13.3604 35.0376 12.9679 35.4468C12.171 36.112 11.8005 36.3883 10.7634 36.3638C9.35115 35.5562 8.783 34.397 8.10883 32.982C7.96314 32.6934 7.96314 32.6934 7.81451 32.3991C6.55488 29.8255 5.94324 27.3955 5.96337 24.5275C5.96587 24.1093 5.96587 24.1093 5.96841 23.6827C6.06287 19.8885 7.35206 16.4594 9.59974 13.382C10.5993 12.5093 10.5993 12.5093 11.327 12.5093Z" fill="#7913E6"/>
<path d="M35.4513 8.82953C35.6564 8.98778 35.8615 9.14603 36.0729 9.30907C36.251 9.44332 36.4291 9.57757 36.6126 9.71589C36.9456 10.1818 36.9456 10.1818 36.901 10.8504C36.5875 11.8508 36.1202 12.3079 35.374 13.0409C35.1151 13.2974 34.8561 13.5539 34.5893 13.8182C34.3169 14.0822 34.0445 14.3462 33.7638 14.6182C33.4925 14.8867 33.2212 15.1552 32.9416 15.4318C30.5353 17.7981 29.129 17.8399 25.8642 17.8792C25.3761 17.887 24.8879 17.8988 24.4 17.915C19.8252 18.065 19.8252 18.065 18.3695 16.8034C18.0533 16.4483 17.7468 16.0841 17.4547 15.7091C17.2076 15.4679 16.9604 15.2268 16.7058 14.9784C16.5029 14.7695 16.3001 14.5606 16.0911 14.3454C15.3986 13.6375 14.7664 13.0398 13.9638 12.4545C13.382 11.9273 13.382 11.9273 13.0547 11.0727C13.0911 10.1818 13.0911 10.1818 13.7001 9.46475C19.6778 4.25036 29.118 4.54267 35.4513 8.82953Z" fill="#0064EB"/>
<path d="M109.673 7.56385C109.445 8.70304 108.977 9.70613 108.51 10.7639C107.74 10.4781 107.089 10.2064 106.419 9.72749C105.237 9.12352 104.015 8.97321 102.691 9.0184C102.036 9.28101 102.036 9.28101 101.528 9.60022C101.624 10.0802 101.72 10.5602 101.819 11.0548C101.986 11.0927 102.153 11.1307 102.325 11.1698C103.09 11.346 103.854 11.5276 104.619 11.7093C104.881 11.7689 105.144 11.8286 105.415 11.89C107.263 12.3352 108.621 12.8355 109.928 14.2729C110.443 15.6192 110.441 16.906 110.255 18.3275C109.433 20.0672 108.195 20.897 106.437 21.6002C103.552 22.1586 101.014 21.8644 98.3277 20.6548C97.6459 20.1786 97.6459 20.1786 97.1641 19.782C97.3406 18.5813 97.757 17.6491 98.3277 16.582C99.1707 16.7577 99.7787 17.0258 100.51 17.4729C102.03 18.2606 103.634 18.25 105.31 18.0366C105.598 17.8446 105.886 17.6526 106.182 17.4548C106.182 17.0708 106.182 16.6868 106.182 16.2911C104.996 15.8889 103.813 15.4905 102.61 15.1423C98.5786 13.9727 98.5786 13.9727 97.7107 12.5604C97.1839 11.2564 97.2125 9.74713 97.655 8.41726C98.5177 6.75299 99.7215 6.04709 101.437 5.43658C104.572 4.77964 107.098 5.84741 109.673 7.56385Z" fill="#071E4F"/>
<path d="M94.9931 6.19115C95.9574 7.3256 95.7418 9.05688 95.709 10.473C95.421 10.617 95.421 10.617 95.1272 10.7639C94.5261 10.4741 94.5261 10.4741 93.7999 10.0548C92.3513 9.30749 91.2148 8.98875 89.5999 9.30933C88.4654 9.70367 87.7211 10.2595 86.9999 11.2366C86.4731 12.91 86.484 14.4292 86.9818 16.1093C87.7939 17.1752 88.5983 17.6839 89.8908 18.0366C91.9536 18.1726 93.602 17.4901 95.4181 16.5821C95.4181 17.9261 95.4181 19.2701 95.4181 20.6548C93.0754 21.7413 91.0713 22.3168 88.5215 21.5957C85.8906 20.6017 84.2653 19.3496 82.909 16.873C81.9629 14.4217 82.1806 12.4568 83.1249 10.0696C84.1727 7.89261 85.9027 6.5039 88.117 5.59001C90.2712 4.9248 92.9977 5.11606 94.9931 6.19115Z" fill="#071E4F"/>
<path d="M41.0182 14.5454C43.3215 17.6165 44.3424 22.0816 43.9273 25.8909C43.3836 29.4799 42.6988 33.53 39.8545 36.0727C39.1466 36.3568 39.1466 36.3568 38.4 36.3636C37.7341 35.9318 37.7341 35.9318 37.0545 35.2727C36.8052 35.0334 36.5558 34.7942 36.2989 34.5477C36.0322 34.2829 35.7656 34.0182 35.4909 33.7454C35.1946 33.4595 34.898 33.1739 34.6011 32.8886C32.3383 30.6876 32.3383 30.6876 32 29.6727C32.2948 29.4724 32.2948 29.4724 32.5955 29.2681C32.855 29.0896 33.1145 28.9111 33.3818 28.7272C33.6383 28.5517 33.8948 28.3762 34.1591 28.1954C34.9216 27.6564 34.9216 27.6564 35.55 26.9863C36.0727 26.4727 36.0727 26.4727 36.6545 26.4727C37.1261 26.9613 37.1261 26.9613 37.6545 27.6C38.279 28.3525 38.7397 28.8325 39.5636 29.3818C39.9032 28.3088 40.153 27.3115 40.1455 26.1818C39.6039 25.3123 38.9381 24.7378 38.1091 24.1454C38.2051 23.9534 38.3011 23.7614 38.4 23.5636C39.168 24.2356 39.936 24.9076 40.7273 25.6C40.9528 23.527 40.9528 23.527 39.9818 21.8181C39.1801 20.8314 39.182 20.6595 39.2909 19.4545C39.4257 18.4819 39.6688 17.7311 40.1455 16.8727C40.4335 17.3527 40.7215 17.8327 41.0182 18.3272C41.0182 17.0792 41.0182 15.8312 41.0182 14.5454Z" fill="#00CD7A"/>
<path d="M112.252 5.7832C112.608 5.78417 112.608 5.78417 112.971 5.78516C113.239 5.78518 113.507 5.7852 113.783 5.78523C114.074 5.78673 114.365 5.78823 114.665 5.78978C114.962 5.79019 115.258 5.7906 115.564 5.79102C116.515 5.79266 117.467 5.79631 118.419 5.8C119.062 5.80146 119.705 5.80279 120.349 5.80398C121.93 5.8072 123.51 5.81222 125.091 5.81819C125.091 6.97019 125.091 8.12219 125.091 9.3091C123.459 9.3091 121.827 9.3091 120.146 9.3091C120.146 13.3411 120.146 17.3731 120.146 21.5273C118.898 21.5273 117.65 21.5273 116.364 21.5273C116.364 17.4953 116.364 13.4633 116.364 9.3091C114.828 9.3091 113.292 9.3091 111.709 9.3091C111.419 9.01819 111.419 9.01819 111.38 8.36364C111.381 8.09964 111.381 7.83564 111.382 7.56364C111.381 7.29964 111.381 7.03564 111.38 6.76364C111.428 5.95579 111.444 5.83527 112.252 5.7832Z" fill="#071E4F"/>
<path d="M24.3053 31.0575C24.9585 31.0547 25.6115 31.0457 26.2646 31.0365C26.6815 31.0346 27.0983 31.033 27.5152 31.0319C28.0832 31.0278 28.0832 31.0278 28.6627 31.0237C30.2699 31.1886 31.1764 31.983 32.3209 33.0626C32.5354 33.2645 32.7499 33.4665 32.9709 33.6745C33.1906 33.884 33.4104 34.0934 33.6368 34.3092C33.8588 34.5175 34.0808 34.7258 34.3095 34.9404C36.9252 37.4162 36.9252 37.4162 36.9822 38.5274C36.5088 39.6057 35.6975 40.2583 34.6186 40.7274C33.9697 40.6206 33.9697 40.6206 33.455 40.4365C33.311 39.8605 33.311 39.8605 33.164 39.2728C32.8794 39.241 32.5948 39.2091 32.3015 39.1762C27.5893 38.6201 23.8382 37.2982 20.789 33.4751C19.7822 32.1196 19.7822 32.1196 19.7822 31.4183C21.0836 30.7676 22.8577 31.0613 24.3053 31.0575Z" fill="#E43315"/>
<path d="M81.4545 34.3271C81.9345 34.4231 82.4145 34.5191 82.9091 34.6181C82.9091 36.5381 82.9091 38.4581 82.9091 40.4362C82.0826 40.4329 81.2561 40.4295 80.4045 40.426C79.6035 40.4237 78.8024 40.422 78.0014 40.4203C77.445 40.4188 76.8885 40.4168 76.3321 40.4143C75.532 40.4108 74.7319 40.4091 73.9318 40.4078C73.559 40.4056 73.559 40.4056 73.1787 40.4033C72.9458 40.4033 72.7129 40.4032 72.473 40.4032C72.2689 40.4026 72.0647 40.4019 71.8544 40.4013C71.2419 40.4381 70.6984 40.5604 70.1091 40.7271C70.0131 41.1111 69.9171 41.4951 69.8182 41.8908C69.1462 41.8908 68.4742 41.8908 67.7818 41.8908C67.6378 41.3148 67.6378 41.3148 67.4909 40.7271C67.2362 40.7227 67.2362 40.7227 66.9764 40.7181C65.2019 40.6865 63.4273 40.6532 61.6528 40.6188C60.9915 40.6063 60.3301 40.5941 59.6687 40.5825C58.7155 40.5656 57.7623 40.5471 56.8091 40.5283C56.5156 40.5234 56.2222 40.5186 55.9199 40.5136C51.6472 40.4248 51.6472 40.4248 50.6182 39.7817C50.1994 39.0488 50.1653 38.6483 50.3272 37.8181C51.0862 37.0796 51.6486 36.6988 52.6545 36.3635C52.3665 36.2675 52.0785 36.1715 51.7818 36.0726C51.6858 35.7846 51.5898 35.4966 51.4909 35.1999C52.2391 34.7288 52.5605 34.6052 53.4545 34.7271C53.6705 34.7871 53.8865 34.8471 54.1091 34.909C54.4 35.7817 54.4 35.7817 54.1091 38.9817C58.7171 38.9817 63.3251 38.9817 68.0727 38.9817C68.0727 38.2137 68.0727 37.4457 68.0727 36.6544C68.5527 36.6544 69.0327 36.6544 69.5273 36.6544C69.8545 38.3271 69.8545 38.3271 69.5273 38.9817C69.8153 38.8857 70.1033 38.7897 70.4 38.6908C70.394 38.4088 70.388 38.1268 70.3818 37.8362C70.4 36.9453 70.4 36.9453 70.6909 36.6544C71.1756 36.6426 71.6607 36.642 72.1454 36.6544C72.1454 37.4224 72.1454 38.1904 72.1454 38.9817C72.4334 38.8857 72.7214 38.7897 73.0182 38.6908C73.0482 38.4628 73.0782 38.2348 73.1091 37.9999C73.3091 37.2362 73.3091 37.2362 74.1818 36.6544C74.0798 36.4744 73.9778 36.2944 73.8727 36.109C73.7827 35.905 73.6927 35.701 73.6 35.4908C73.696 35.2988 73.792 35.1068 73.8909 34.909C74.6589 34.909 75.4269 34.909 76.2182 34.909C76.418 35.6335 76.5091 36.1828 76.5091 36.9453C76.7971 37.2333 76.7971 37.2333 77.0909 37.5271C77.0909 37.9111 77.0909 38.2951 77.0909 38.6908C77.4749 38.7868 77.8589 38.8828 78.2545 38.9817C78.2545 38.2137 78.2545 37.4457 78.2545 36.6544C78.7392 36.642 79.2244 36.6426 79.7091 36.6544C80 36.9453 80 36.9453 80.0182 37.8362C80.0122 38.1182 80.0062 38.4002 80 38.6908C80.48 38.7868 80.96 38.8828 81.4545 38.9817C81.4545 37.4457 81.4545 35.9097 81.4545 34.3271ZM74.7636 37.8181C74.6676 38.0101 74.5716 38.2021 74.4727 38.3999C74.5687 38.5919 74.6647 38.7839 74.7636 38.9817C74.9556 38.9817 75.1476 38.9817 75.3454 38.9817C75.4414 38.6937 75.5374 38.4057 75.6363 38.109C75.3483 38.013 75.0603 37.917 74.7636 37.8181ZM52.0727 38.109C51.9767 38.301 51.8807 38.493 51.7818 38.6908C52.0698 38.6908 52.3578 38.6908 52.6545 38.6908C52.6545 38.4988 52.6545 38.3068 52.6545 38.109C52.4625 38.109 52.2705 38.109 52.0727 38.109ZM68.6545 40.1453C68.7505 40.3373 68.8465 40.5293 68.9454 40.7271C69.1374 40.5351 69.3294 40.3431 69.5273 40.1453C69.2393 40.1453 68.9513 40.1453 68.6545 40.1453Z" fill="#071E4F"/>
<path d="M18.0363 8.43652C17.9403 8.72452 17.8443 9.01252 17.7454 9.30925C17.9374 9.21325 18.1294 9.11725 18.3272 9.01834C19.0358 9.10977 19.3876 9.19088 19.8635 9.73652C20.5353 10.335 21.1015 10.3849 21.9817 10.5456C25.3486 11.3326 28.3806 13.9886 30.2545 16.8729C30.2545 17.1609 30.2545 17.4489 30.2545 17.7456C28.8056 17.7963 27.3574 17.833 25.9079 17.8575C25.4157 17.8677 24.9237 17.8815 24.4317 17.8992C19.8156 18.0612 19.8156 18.0612 18.367 16.8047C18.0515 16.4493 17.7457 16.0848 17.4545 15.7093C17.2073 15.4681 16.9602 15.227 16.7056 14.9786C16.5027 14.7697 16.2998 14.5608 16.0908 14.3456C15.3984 13.6377 14.7662 13.04 13.9635 12.4547C13.3817 11.9274 13.3817 11.9274 13.0908 11.0365C13.0908 10.182 13.0908 10.182 13.509 9.63652C13.734 9.47452 13.734 9.47452 13.9635 9.30925C14.3475 9.50125 14.7315 9.69325 15.1272 9.89107C15.2641 9.78607 15.4009 9.68107 15.542 9.57289C15.7231 9.43789 15.9042 9.30289 16.0908 9.1638C16.2697 9.0288 16.4486 8.8938 16.6329 8.75471C17.1635 8.43652 17.1635 8.43652 18.0363 8.43652Z" fill="#003FAF"/>
<path d="M18.0366 19.2002C18.1019 20.6798 18.1491 22.1585 18.1805 23.6391C18.1935 24.1414 18.2113 24.6437 18.2341 25.1457C18.4424 29.8491 18.4424 29.8491 16.8219 31.6559C16.363 32.0717 15.8958 32.4786 15.4184 32.8729C15.112 33.1929 14.8096 33.5169 14.5139 33.8468C14.2604 34.1074 14.0069 34.368 13.7457 34.6366C13.4892 34.9039 13.2327 35.1713 12.9684 35.4468C12.1852 36.1007 11.7758 36.3267 10.7639 36.3638C9.76108 35.7342 9.16177 35.1419 8.72754 34.0366C9.60027 33.4547 9.60027 33.4547 10.473 33.4547C10.4629 33.271 10.4527 33.0872 10.4423 32.8979C10.3348 29.3433 10.9671 26.1675 13.0912 23.2729C13.2262 23.0884 13.3612 22.9039 13.5003 22.7138C14.4938 21.4664 16.3641 19.2002 18.0366 19.2002Z" fill="#5700B1"/>
<path d="M113.745 34.3271C114.465 34.4711 114.465 34.4711 115.2 34.6181C115.2 36.0581 115.2 37.4981 115.2 38.9817C115.584 38.8857 115.968 38.7897 116.363 38.6908C116.075 38.5468 116.075 38.5468 115.781 38.3999C115.854 37.709 115.854 37.709 116.072 36.9453C116.972 36.2458 117.874 36.2458 118.981 36.3635C119.545 36.709 119.545 36.709 119.854 37.2362C119.763 38.0181 119.763 38.0181 119.563 38.6908C119.947 38.7868 120.331 38.8828 120.727 38.9817C120.727 37.5417 120.727 36.1017 120.727 34.6181C121.111 34.5221 121.495 34.4261 121.89 34.3271C122.181 34.6181 122.181 34.6181 122.21 35.601C122.208 36.0067 122.204 36.4124 122.2 36.8181C122.198 37.0249 122.197 37.2317 122.196 37.4448C122.192 37.9571 122.187 38.4694 122.181 38.9817C122.565 38.9817 122.949 38.9817 123.345 38.9817C123.345 37.5417 123.345 36.1017 123.345 34.6181C124.509 34.3271 124.509 34.3271 125.09 34.6181C125.09 36.5381 125.09 38.4581 125.09 40.4362C124.486 40.4329 123.881 40.4295 123.258 40.426C120.281 40.4129 117.304 40.4211 114.327 40.4362C114.012 40.4377 113.697 40.4393 113.373 40.4408C111.358 40.4515 109.343 40.47 107.328 40.4969C106.661 40.5049 105.995 40.511 105.328 40.515C104.385 40.5212 103.442 40.5346 102.5 40.5499C102.217 40.5502 101.934 40.5506 101.642 40.551C100.033 40.5861 99.2402 40.7351 98.0359 41.8908C97.0723 41.9635 97.0723 41.9635 96.2905 41.8908C96.2905 41.5068 96.2905 41.1228 96.2905 40.7271C96.5785 40.6311 96.8665 40.5351 97.1632 40.4362C96.8752 40.2832 96.8752 40.2832 96.5814 40.1271C95.9996 39.5635 95.9996 39.5635 95.8359 38.5635C95.9996 37.5271 95.9996 37.5271 96.6359 36.7999C97.4541 36.3635 97.4541 36.3635 98.2178 36.3817C98.9668 36.6774 99.3292 36.8607 99.7814 37.5271C99.7814 38.0071 99.7814 38.4871 99.7814 38.9817C104.389 38.9817 108.997 38.9817 113.745 38.9817C113.745 37.4457 113.745 35.9097 113.745 34.3271ZM117.236 37.8181C117.668 38.1061 117.668 38.1061 118.109 38.3999C118.205 38.2079 118.301 38.0159 118.4 37.8181C118.016 37.8181 117.632 37.8181 117.236 37.8181ZM97.4541 38.109C97.4541 38.397 97.4541 38.685 97.4541 38.9817C97.7421 38.8857 98.0301 38.7897 98.3268 38.6908C98.3268 38.4988 98.3268 38.3068 98.3268 38.109C98.0388 38.109 97.7508 38.109 97.4541 38.109Z" fill="#071E4F"/>
<path d="M67.1999 25.6001C67.7759 25.6001 68.3519 25.6001 68.9453 25.6001C68.9453 27.5201 68.9453 29.4401 68.9453 31.4183C65.5978 31.4547 65.5978 31.4547 64.8453 31.2637C64.1562 31.0943 63.6102 31.1618 62.909 31.2546C62.6765 31.2843 62.444 31.3139 62.2044 31.3444C62.0289 31.3688 61.8534 31.3932 61.6726 31.4183C61.5286 31.8503 61.5286 31.8503 61.3817 32.291C60.1031 32.8694 58.9903 32.9284 57.5999 32.8728C57.4559 32.1528 57.4559 32.1528 57.309 31.4183C55.773 31.4183 54.237 31.4183 52.6544 31.4183C52.4624 31.8023 52.2704 32.1863 52.0726 32.5819C51.1635 32.8001 51.1635 32.8001 50.3271 32.8728C50.3271 32.3928 50.3271 31.9128 50.3271 31.4183C50.6151 31.3223 50.9031 31.2263 51.1999 31.1274C51.2959 29.4954 51.3919 27.8634 51.4908 26.1819C51.8748 26.0859 52.2588 25.9899 52.6544 25.891C53.0353 27.3195 52.9453 28.4025 52.9453 29.9637C54.5773 29.9637 56.2093 29.9637 57.8908 29.9637C57.8908 29.1957 57.8908 28.4277 57.8908 27.6365C58.3755 27.624 58.8606 27.6246 59.3453 27.6365C59.6362 27.9274 59.6362 27.9274 59.6646 28.6558C59.6613 28.9494 59.6579 29.243 59.6544 29.5456C59.6518 29.8399 59.6492 30.1343 59.6465 30.4376C59.6431 30.6652 59.6397 30.8928 59.6362 31.1274C59.8282 31.2234 60.0202 31.3194 60.2181 31.4183C60.2181 31.152 60.2181 30.8858 60.2181 30.6115C60.2181 29.1349 60.2181 27.6584 60.2181 26.1819C60.6021 26.0859 60.9861 25.9899 61.3817 25.891C62.1096 27.2558 61.9635 28.4314 61.9635 29.9637C62.2515 29.8677 62.5395 29.7717 62.8362 29.6728C62.6442 29.3848 62.4522 29.0968 62.2544 28.8001C62.5976 28.224 62.5976 28.224 63.1271 27.6365C63.8385 27.5126 63.8385 27.5126 64.6181 27.5456C64.8768 27.5527 65.1356 27.5598 65.4021 27.5671C66.0362 27.6365 66.0362 27.6365 66.3272 27.9274C66.3635 28.6546 66.3635 28.6546 66.3272 29.3819C66.2311 29.4779 66.1351 29.5739 66.0362 29.6728C66.4202 29.7688 66.8042 29.8648 67.1999 29.9637C67.1999 28.5237 67.1999 27.0837 67.1999 25.6001ZM63.9999 28.8001C64.1919 28.9921 64.3839 29.1841 64.5817 29.3819C64.6777 29.1899 64.7737 28.9979 64.8726 28.8001C64.5846 28.8001 64.2966 28.8001 63.9999 28.8001Z" fill="#071E4F"/>
<path d="M105.6 25.6001C106.176 25.6001 106.752 25.6001 107.345 25.6001C108.11 27.0332 107.969 28.38 107.927 29.9637C109.271 29.9637 110.615 29.9637 112 29.9637C112 28.7157 112 27.4677 112 26.1819C112.384 26.0859 112.768 25.9899 113.163 25.891C113.527 27.2537 113.454 28.5568 113.454 29.9637C113.838 29.9637 114.222 29.9637 114.618 29.9637C114.618 29.1957 114.618 28.4277 114.618 27.6365C115.098 27.6365 115.578 27.6365 116.073 27.6365C116.073 28.4045 116.073 29.1725 116.073 29.9637C116.841 29.9637 117.609 29.9637 118.4 29.9637C117.68 29.0997 117.68 29.0997 116.945 28.2183C117.137 27.9303 117.329 27.6423 117.527 27.3456C118.418 27.4419 118.865 27.5202 119.509 28.1637C119.854 28.8001 119.854 28.8001 119.854 29.9637C121.021 29.575 121.253 28.9472 121.891 27.9274C122.182 27.6365 122.182 27.6365 123 27.5456C123.927 27.6365 123.927 27.6365 124.618 28.1274C125.091 28.8001 125.091 28.8001 125.254 29.5274C125.091 30.2546 125.091 30.2546 124.491 30.9456C123.38 31.56 122.826 31.3639 121.6 31.1274C121.015 31.2071 120.434 31.3069 119.854 31.4183C118.789 31.529 117.722 31.6199 116.654 31.7092C116.558 32.0932 116.462 32.4772 116.363 32.8728C115.691 32.8728 115.019 32.8728 114.327 32.8728C114.183 32.2968 114.183 32.2968 114.036 31.7092C112.597 31.4168 111.241 31.3929 109.782 31.4183C108.538 31.4396 107.389 31.453 106.182 31.1274C105.876 31.0794 105.57 31.0314 105.254 30.9819C104.436 30.8365 104.436 30.8365 104.145 30.5456C104.036 29.5637 104.036 29.5637 104.145 28.5092C104.972 27.8163 105.392 27.6365 106.473 27.6365C105.993 27.3485 105.513 27.0605 105.018 26.7637C105.21 26.3797 105.402 25.9957 105.6 25.6001ZM105.6 29.091C105.6 29.283 105.6 29.475 105.6 29.6728C105.888 29.5768 106.176 29.4808 106.473 29.3819C106.185 29.2859 105.897 29.1899 105.6 29.091ZM122.763 29.091C122.667 29.379 122.571 29.667 122.473 29.9637C122.857 29.8677 123.241 29.7717 123.636 29.6728C123.54 29.4808 123.444 29.2888 123.345 29.091C123.153 29.091 122.961 29.091 122.763 29.091Z" fill="#071E4F"/>
<path d="M23.8545 5.81818C28.4318 5.52223 32.3821 6.46187 36.0727 9.30908C36.2508 9.44333 36.4289 9.57758 36.6124 9.7159C36.9454 10.1818 36.9454 10.1818 36.9374 10.8761C36.5779 11.8421 36.0742 12.3315 35.3272 13.0364C35.0868 13.2662 34.8465 13.4961 34.5988 13.7329C34.4132 13.9051 34.2276 14.0772 34.0363 14.2545C33.8237 14.112 33.6111 13.9695 33.392 13.8227C32.5658 13.3731 32.1747 13.2771 31.2545 13.3091C31.0381 13.3136 30.8217 13.3181 30.5988 13.3227C29.973 13.3809 29.4041 13.5028 28.7999 13.6727C28.6559 13.4147 28.5119 13.1567 28.3636 12.8909C27.7022 11.8798 26.8866 11.4032 25.834 10.8432C25.2051 10.3993 25.0196 10.0125 24.7272 9.30908C24.5652 8.98508 24.5652 8.98508 24.3999 8.65454C24.3159 8.48654 24.2319 8.31854 24.1454 8.14545C24.8174 8.62545 25.4894 9.10545 26.1818 9.59999C25.9898 9.31199 25.7978 9.02399 25.5999 8.72727C27.8916 7.25553 27.8916 7.25553 29.2545 7.32727C29.4885 7.40527 29.7225 7.48327 29.9636 7.56363C28.7362 6.96756 27.737 6.92012 26.3818 6.94545C26.0169 6.9507 25.652 6.95595 25.2761 6.96136C24.8604 6.97148 24.8604 6.97148 24.4363 6.98181C24.2443 6.59781 24.0523 6.21381 23.8545 5.81818Z" fill="#005FE9"/>
<path d="M24.4361 18.9092C24.7241 18.9092 25.0121 18.9092 25.3088 18.9092C25.5008 19.1972 25.6928 19.4852 25.8907 19.7819C26.2747 19.6859 26.6587 19.5899 27.0543 19.491C27.0543 19.779 27.0543 20.067 27.0543 20.3637C27.3423 20.2677 27.6303 20.1717 27.927 20.0728C27.927 20.4568 27.927 20.8408 27.927 21.2365C28.215 21.3325 28.503 21.4285 28.7998 21.5274C28.7098 21.7794 28.7098 21.7794 28.6179 22.0365C28.4836 22.8422 28.6748 23.1697 29.0907 23.8546C28.7067 23.8546 28.3227 23.8546 27.927 23.8546C28.023 24.3346 28.119 24.8146 28.2179 25.3092C27.8339 25.1172 27.4499 24.9252 27.0543 24.7274C26.9583 25.1114 26.8623 25.4954 26.7634 25.891C26.4754 25.891 26.1874 25.891 25.8907 25.891C25.7947 26.371 25.6987 26.851 25.5998 27.3455C25.7438 27.2495 25.8878 27.1535 26.0361 27.0546C27.0807 26.6368 27.9691 26.7263 29.0907 26.7637C29.2827 27.1477 29.4747 27.5317 29.6725 27.9274C28.7125 28.1194 27.7525 28.3114 26.7634 28.5092C27.0514 28.7972 27.3394 29.0852 27.6361 29.3819C27.6361 29.6699 27.6361 29.9579 27.6361 30.2546C26.7773 30.2746 26.017 30.287 25.1816 30.0728C24.153 29.9223 23.3738 30.2208 22.3998 30.5455C22.2558 30.1135 22.2558 30.1135 22.1088 29.6728C22.4928 29.2888 22.8768 28.9048 23.2725 28.5092C22.4085 28.3172 21.5445 28.1252 20.6543 27.9274C20.6543 27.0546 20.6543 27.0546 20.9452 26.7637C22.2687 26.6874 23.2388 26.7651 24.4361 27.3455C24.3585 26.7681 24.3585 26.7681 24.1452 26.1819C23.8572 26.0859 23.5692 25.9899 23.2725 25.891C23.0725 25.291 23.0725 25.291 22.9816 24.7274C22.4056 25.0154 22.4056 25.0154 21.8179 25.3092C21.9139 24.8292 22.0099 24.3492 22.1088 23.8546C21.7248 23.8546 21.3408 23.8546 20.9452 23.8546C21.0472 23.6866 21.1492 23.5186 21.2543 23.3455C21.5704 22.5868 21.5069 22.2854 21.2361 21.5274C21.5241 21.4314 21.8121 21.3354 22.1088 21.2365C22.1088 20.8525 22.1088 20.4685 22.1088 20.0728C22.3968 20.1688 22.6848 20.2648 22.9816 20.3637C22.8856 19.9797 22.7896 19.5957 22.6907 19.2001C23.4107 19.4881 23.4107 19.4881 24.1452 19.7819C24.2412 19.4939 24.3372 19.2059 24.4361 18.9092Z" fill="#001F55"/>
<path d="M88.1454 25.6001C88.6254 25.6001 89.1054 25.6001 89.5999 25.6001C89.5999 27.0401 89.5999 28.4801 89.5999 29.9637C89.9839 29.9637 90.3679 29.9637 90.7635 29.9637C90.7635 28.5237 90.7635 27.0837 90.7635 25.6001C91.2435 25.6001 91.7235 25.6001 92.2181 25.6001C92.2181 27.0401 92.2181 28.4801 92.2181 29.9637C93.6729 29.8479 93.6729 29.8479 94.1635 28.9637C94.2895 28.7177 94.4155 28.4717 94.5454 28.2183C94.7374 28.0263 94.9294 27.8343 95.1272 27.6365C97.0069 27.7707 97.0069 27.7707 97.7454 28.5092C97.7874 28.7072 97.8294 28.9052 97.8726 29.1092C97.9266 29.2952 97.9806 29.4812 98.0363 29.6728C98.3243 29.7688 98.6123 29.8648 98.909 29.9637C98.909 28.5237 98.909 27.0837 98.909 25.6001C99.485 25.6001 100.061 25.6001 100.654 25.6001C100.654 27.5201 100.654 29.4401 100.654 31.4183C99.8085 31.4243 98.9625 31.4303 98.0908 31.4365C97.6927 31.4404 97.6927 31.4404 97.2865 31.4445C96.9708 31.4456 96.9708 31.4456 96.6488 31.4467C96.434 31.4482 96.2192 31.4497 95.9979 31.4513C95.4181 31.4183 95.4181 31.4183 94.5454 31.1274C94.2574 31.2714 94.2574 31.2714 93.9635 31.4183C93.2589 31.454 92.5629 31.4731 91.8579 31.4774C91.6491 31.479 91.4402 31.4807 91.2251 31.4824C90.7827 31.4851 90.3404 31.487 89.898 31.4882C89.2237 31.491 88.5497 31.5 87.8755 31.5092C87.4454 31.5111 87.0153 31.5126 86.5851 31.5137C86.3845 31.5173 86.1838 31.5209 85.9771 31.5246C84.7203 31.5189 83.8835 31.3615 82.909 30.5456C82.8181 29.4728 82.8181 29.4728 82.909 28.5092C83.389 28.5092 83.869 28.5092 84.3635 28.5092C84.4595 28.8932 84.5555 29.2772 84.6545 29.6728C85.8065 29.7688 86.9585 29.8648 88.1454 29.9637C88.1454 28.5237 88.1454 27.0837 88.1454 25.6001ZM95.4181 29.091C95.3221 29.379 95.2261 29.667 95.1272 29.9637C95.5112 29.9637 95.8952 29.9637 96.2908 29.9637C96.2908 29.6757 96.2908 29.3877 96.2908 29.091C96.0028 29.091 95.7148 29.091 95.4181 29.091Z" fill="#071E4F"/>
<path d="M41.0177 14.5454C42.894 17.0471 43.4566 19.9306 43.9268 22.9818C43.9714 23.2638 44.0161 23.5458 44.062 23.8363C44.1577 24.9375 44.1701 25.5917 43.4564 26.4693C42.8601 26.9947 42.2421 27.4602 41.5995 27.9272C41.1093 28.4066 40.623 28.8901 40.145 29.3818C39.8541 29.6727 39.5632 29.9636 39.2723 30.2545C39.2723 30.0625 39.2723 29.8705 39.2723 29.6727C39.1103 29.6067 38.9483 29.5407 38.7814 29.4727C37.5375 28.7667 36.6136 27.8014 36.0723 26.4727C36.2643 26.4727 36.4563 26.4727 36.6541 26.4727C37.1257 26.9613 37.1257 26.9613 37.6541 27.6C38.2785 28.3525 38.7393 28.8325 39.5632 29.3818C39.9027 28.3088 40.1526 27.3115 40.145 26.1818C39.6034 25.3123 38.9376 24.7378 38.1086 24.1454C38.2046 23.9534 38.3006 23.7614 38.3995 23.5636C39.1675 24.2356 39.9355 24.9076 40.7268 25.6C40.9524 23.527 40.9524 23.527 39.9814 21.8181C39.1796 20.8314 39.1815 20.6595 39.2904 19.4545C39.4253 18.4819 39.6683 17.7311 40.145 16.8727C40.433 17.3527 40.721 17.8327 41.0177 18.3272C41.0177 17.0792 41.0177 15.8312 41.0177 14.5454Z" fill="#00CF7C"/>
<path d="M69.2363 25.6001C69.7163 25.6001 70.1963 25.6001 70.6909 25.6001C70.6909 27.0401 70.6909 28.4801 70.6909 29.9637C71.4589 29.9637 72.2269 29.9637 73.0181 29.9637C72.5381 29.3877 72.0581 28.8117 71.5636 28.2183C71.7556 27.9303 71.9476 27.6423 72.1454 27.3456C73.0362 27.4419 73.4837 27.5202 74.1272 28.1637C74.4727 28.8001 74.4727 28.8001 74.4727 29.9637C74.8567 29.9637 75.2407 29.9637 75.6363 29.9637C75.6363 29.1957 75.6363 28.4277 75.6363 27.6365C76.121 27.624 76.6062 27.6246 77.0909 27.6365C77.3818 27.9274 77.3818 27.9274 77.4 28.9637C77.394 29.2937 77.388 29.6237 77.3818 29.9637C78.0081 29.4154 78.0081 29.4154 78.2545 28.6365C78.5454 27.9274 78.5454 27.9274 79.1272 27.6365C79.8059 27.6248 80.4849 27.6239 81.1636 27.6365C81.1636 28.1165 81.1636 28.5965 81.1636 29.091C80.6836 29.187 80.2036 29.283 79.7091 29.3819C80.2851 29.5739 80.8611 29.7659 81.4545 29.9637C81.4545 30.4437 81.4545 30.9237 81.4545 31.4183C77.4225 31.4183 73.3905 31.4183 69.2363 31.4183C69.2363 29.4983 69.2363 27.5783 69.2363 25.6001Z" fill="#071E4F"/>
<path d="M22.6908 35.4907C25.1097 36.6827 25.1097 36.6827 25.6771 38.2589C25.8869 39.2745 26.059 40.2793 26.1817 41.3089C25.6179 41.2189 25.0543 41.1278 24.4908 41.0362C24.02 40.9602 24.02 40.9602 23.5396 40.8828C22.6908 40.7271 22.6908 40.7271 21.8181 40.4362C21.9141 41.3002 22.0101 42.1642 22.109 43.0544C20.7791 42.8948 19.5855 42.642 18.3271 42.1816C18.3271 42.0856 18.3271 41.9896 18.3271 41.8907C18.8071 41.8907 19.2871 41.8907 19.7817 41.8907C19.4937 40.4507 19.2057 39.0107 18.909 37.5271C20.349 37.8151 21.789 38.1031 23.2726 38.3998C23.0806 37.4398 22.8886 36.4798 22.6908 35.4907Z" fill="#FE5121"/>
<path d="M11.3093 12.5271C12.206 12.9228 12.7152 13.54 13.382 14.2544C13.5406 14.404 13.6992 14.5537 13.8627 14.7078C14.301 15.1214 14.7159 15.5596 15.1274 15.9999C15.1274 16.2879 15.1274 16.5759 15.1274 16.8726C14.0566 17.5865 13.253 17.5208 12.0184 17.4908C11.8142 17.4882 11.61 17.4855 11.3996 17.4828C10.8967 17.476 10.3939 17.4656 9.89108 17.4544C9.89108 17.6464 9.89108 17.8384 9.89108 18.0362C9.31508 17.9402 8.73908 17.8442 8.14562 17.7453C7.83032 16.7837 7.80273 16.4013 8.24108 15.4692C8.51783 15.0569 8.51783 15.0569 8.80017 14.6362C8.98167 14.3591 9.16317 14.082 9.35017 13.7965C10.3477 12.4951 10.3477 12.4951 11.3093 12.5271Z" fill="#7004E4"/>
<path d="M41.0179 14.5454C42.5001 16.5217 43.6361 19.2158 43.6361 21.7272C43.1951 22.7471 42.4855 23.1949 41.5997 23.8545C41.5037 23.2785 41.4077 22.7025 41.3088 22.109C41.0208 22.013 40.7328 21.917 40.4361 21.8181C39.7634 21.2909 39.7634 21.2909 39.2725 20.3636C39.3485 19.1718 39.5803 18.0335 39.8543 16.8727C40.2383 17.3527 40.6223 17.8327 41.0179 18.3272C41.0179 17.0792 41.0179 15.8312 41.0179 14.5454Z" fill="#00C978"/>
<path d="M94.1453 36.6725C95.1271 36.9453 95.1271 36.9453 95.7089 37.818C95.6544 38.8544 95.6544 38.8544 95.418 39.8544C94.2021 40.6649 93.6299 40.3767 92.218 40.1453C92.218 41.1053 92.218 42.0653 92.218 43.0544C91.738 43.0544 91.258 43.0544 90.7634 43.0544C90.1121 41.7899 90.1118 40.9344 90.4725 39.5635C91.1453 38.6362 91.1453 38.6362 91.9271 37.818C92.1071 37.584 92.2871 37.35 92.4725 37.1089C93.0907 36.6544 93.0907 36.6544 94.1453 36.6725ZM93.3816 38.1089C93.2856 38.3969 93.1896 38.6849 93.0907 38.9816C93.4747 38.9816 93.8587 38.9816 94.2544 38.9816C94.2544 38.6936 94.2544 38.4056 94.2544 38.1089C93.9664 38.1089 93.6784 38.1089 93.3816 38.1089Z" fill="#071E4F"/>
<path d="M24.1455 8.14551C24.279 8.26476 24.4125 8.38401 24.5501 8.50687C24.7286 8.66362 24.9071 8.82037 25.091 8.98187C25.2665 9.13712 25.442 9.29237 25.6228 9.45233C27.128 10.6332 28.4368 10.5027 30.2745 10.3478C31.1128 10.3132 31.7839 10.2916 32.447 10.8474C32.8069 11.2856 33.1325 11.7515 33.4546 12.2182C34.0836 12.7456 34.0836 12.7456 34.6182 13.091C34.4262 13.475 34.2342 13.859 34.0364 14.2546C33.7574 14.0386 33.7574 14.0386 33.4728 13.8182C31.9643 13.0794 30.394 13.2246 28.8001 13.6728C28.6561 13.4148 28.5121 13.1568 28.3637 12.891C27.7023 11.8799 26.8867 11.4033 25.8341 10.8432C25.1981 10.3944 25.0263 10.0209 24.7273 9.30914C24.6193 9.09314 24.5113 8.87714 24.4001 8.6546C24.3161 8.4866 24.2321 8.3186 24.1455 8.14551Z" fill="#0052E6"/>
<path d="M30.8365 8.43652C31.1245 8.62852 31.4125 8.82052 31.7092 9.01834C31.7092 9.21034 31.7092 9.40234 31.7092 9.60016C32.1892 9.60016 32.6692 9.60016 33.1638 9.60016C32.8758 9.69616 32.5878 9.79216 32.2911 9.89107C32.3871 10.0831 32.4831 10.2751 32.582 10.4729C33.59 10.3289 33.59 10.3289 34.6183 10.182C34.6183 9.98998 34.6183 9.79798 34.6183 9.60016C34.2343 9.50416 33.8503 9.40816 33.4547 9.30925C33.8726 9.2856 34.2909 9.26872 34.7092 9.25471C34.9421 9.24458 35.175 9.23446 35.4149 9.22402C36.0729 9.30925 36.0729 9.30925 36.5922 9.70698C36.9456 10.182 36.9456 10.182 36.982 10.8547C36.4949 12.0182 35.6062 12.6314 34.6183 13.382C34.1802 13.0082 33.7443 12.632 33.3092 12.2547C33.0662 12.0455 32.8232 11.8362 32.5729 11.6206C32.3839 11.4339 32.1949 11.2471 32.0001 11.0547C32.0001 10.8627 32.0001 10.6707 32.0001 10.4729C31.7121 10.6169 31.7121 10.6169 31.4183 10.7638C30.7277 10.7845 30.0365 10.7883 29.3456 10.782C28.9728 10.7794 28.6001 10.7767 28.2161 10.774C27.7852 10.769 27.7852 10.769 27.3456 10.7638C27.2496 10.5718 27.1536 10.3798 27.0547 10.182C27.5263 9.97926 27.9993 9.77988 28.4729 9.58198C28.7361 9.4706 28.9994 9.35923 29.2706 9.24448C29.9638 9.01834 29.9638 9.01834 30.5456 9.30925C29.8256 9.74125 29.8256 9.74125 29.0911 10.182C29.8591 10.182 30.6271 10.182 31.4183 10.182C31.2263 9.60598 31.0343 9.02998 30.8365 8.43652Z" fill="#0098F7"/>
<path d="M87.8723 36.6C88.7269 36.9454 88.7269 36.9454 89.0178 37.5272C89.2014 39.0091 89.2551 40.0874 88.3996 41.3454C87.4415 41.9702 86.9392 42.0213 85.8178 41.8909C85.8178 41.5069 85.8178 41.1229 85.8178 40.7272C86.0098 40.6312 86.2018 40.5352 86.3996 40.4363C86.1026 40.1213 86.1026 40.1213 85.7996 39.8C85.236 38.9818 85.236 38.9818 85.2541 38.2182C85.7647 36.9248 86.4729 36.2287 87.8723 36.6ZM86.9814 37.8182C86.9814 38.2022 86.9814 38.5862 86.9814 38.9818C87.1734 38.9818 87.3654 38.9818 87.5632 38.9818C87.4672 38.5978 87.3712 38.2138 87.2723 37.8182C87.1763 37.8182 87.0803 37.8182 86.9814 37.8182Z" fill="#071E4F"/>
<path d="M35.7815 26.7637C35.9855 26.9737 36.1895 27.1837 36.3997 27.4C37.215 28.2177 38.0862 28.9441 38.9815 29.6728C38.8401 30.9453 38.4473 31.4295 37.5269 32.2909C37.0591 31.8802 36.5927 31.4677 36.1269 31.0546C35.8671 30.8251 35.6072 30.5956 35.3394 30.3591C34.7222 29.772 34.2273 29.2076 33.7451 28.5091C34.4171 27.9331 35.0891 27.3571 35.7815 26.7637Z" fill="#009356"/>
<path d="M23.8546 5.81798C24.0466 6.10598 24.2386 6.39398 24.4365 6.69071C25.4564 6.75348 26.4482 6.68826 27.4683 6.63616C28.6111 6.69605 29.2772 6.98777 30.2546 7.56344C29.3819 7.85435 29.3819 7.85435 28.8228 7.68276C28.1991 7.49794 28.1991 7.49794 27.5955 7.85321C27.393 7.99159 27.1905 8.12996 26.9819 8.27253C26.7764 8.41015 26.5709 8.54778 26.3592 8.68957C26.1274 8.85214 26.1274 8.85214 25.891 9.01798C26.179 9.30598 26.467 9.59398 26.7637 9.89071C25.8126 9.72672 25.3599 9.45446 24.7274 8.72707C25.0183 8.14526 25.0183 8.14526 25.8728 7.83616C26.1668 7.74616 26.4608 7.65616 26.7637 7.56344C26.9557 7.46744 27.1477 7.37144 27.3455 7.27253C26.2895 7.36853 25.2335 7.46453 24.1455 7.56344C24.0495 7.37144 23.9535 7.17944 23.8546 6.98162C23.5666 7.07762 23.2786 7.17362 22.9819 7.27253C23.2699 7.46453 23.5579 7.65653 23.8546 7.85435C23.0141 8.13451 22.4226 8.20216 21.5455 8.21798C21.1726 8.22923 21.1726 8.22923 20.7921 8.24071C19.929 8.12617 19.5339 7.86971 18.9092 7.27253C18.9092 7.08053 18.9092 6.88853 18.9092 6.69071C22.1291 5.60229 22.1291 5.60229 23.8546 5.81798Z" fill="#0090F6"/>
<path d="M37.8178 23.5635C38.5451 24.2907 38.5451 24.2907 39.2724 25.018C39.5064 25.186 39.7404 25.354 39.9815 25.5271C40.436 26.1817 40.436 26.1817 40.3883 26.8157C40.1947 27.7203 39.9777 28.5528 39.5633 29.3817C38.1074 28.7697 37.3626 27.6641 36.3633 26.4726C36.8433 25.5126 37.3233 24.5526 37.8178 23.5635Z" fill="#009457"/>
<path d="M10.7634 27.6362C11.1147 28.3389 11.0479 28.6481 10.9554 29.4203C10.9282 29.6547 10.901 29.8891 10.873 30.1305C10.8277 30.4979 10.8277 30.4979 10.7816 30.8726C10.7525 31.1197 10.7234 31.3668 10.6935 31.6215C10.6214 32.2326 10.5471 32.8435 10.4725 33.4544C9.89646 33.6464 9.32046 33.8384 8.72701 34.0362C8.24701 33.0762 7.76701 32.1162 7.27246 31.1271C8.42446 29.9751 9.57646 28.8231 10.7634 27.6362Z" fill="#7C16E6"/>
<path d="M33.4545 28.7998C33.5925 28.9918 33.7305 29.1838 33.8727 29.3816C34.8887 30.571 36.0529 31.5625 37.2364 32.5816C36.9013 33.2996 36.6406 33.7592 36.0727 34.3271C35.4467 33.7167 34.8228 33.1044 34.2 32.4907C34.0221 32.3177 33.8441 32.1446 33.6608 31.9663C33.4063 31.7146 33.4063 31.7146 33.1466 31.4578C32.9897 31.3039 32.8328 31.15 32.6711 30.9915C32.2909 30.5453 32.2909 30.5453 32 29.6725C32.48 29.3845 32.96 29.0965 33.4545 28.7998Z" fill="#009356"/>
<path d="M6.10938 22.9819C8.31738 22.9819 10.5254 22.9819 12.8003 22.9819C12.8003 23.0779 12.8003 23.1739 12.8003 23.2728C12.534 23.298 12.2678 23.3231 11.9935 23.349C11.6477 23.3899 11.302 23.4307 10.9457 23.4728C10.6015 23.51 10.2572 23.5471 9.90256 23.5853C9.61081 23.6742 9.31906 23.7631 9.01847 23.8547C8.64799 24.5345 8.64799 24.5345 8.43665 25.3092C7.9446 25.8967 7.9446 25.8967 7.40028 26.4183C7.12972 26.6821 7.12972 26.6821 6.85369 26.9513C6.40028 27.3456 6.40028 27.3456 6.10938 27.3456C6.10938 25.9056 6.10938 24.4656 6.10938 22.9819Z" fill="#6F03E4"/>
<path d="M22.1091 34.9092C22.3011 35.0052 22.4931 35.1012 22.6909 35.2001C22.875 35.9285 22.875 35.9285 23.0182 36.8183C23.0669 37.1126 23.1157 37.407 23.1659 37.7103C23.2012 37.9379 23.2364 38.1656 23.2727 38.4001C22.818 38.3665 22.3635 38.3295 21.9091 38.291C21.656 38.2707 21.4028 38.2505 21.142 38.2296C20.3273 38.1036 19.6606 37.8605 18.9091 37.5274C18.9721 37.7449 19.0351 37.9624 19.1 38.1865C19.181 38.473 19.262 38.7595 19.3455 39.0546C19.4265 39.3381 19.5075 39.6216 19.5909 39.9137C19.7818 40.7274 19.7818 40.7274 19.7818 41.891C18.2295 41.9699 17.276 42.0151 16 41.0183C16 40.9223 16 40.8263 16 40.7274C16.4244 40.7684 16.8486 40.8112 17.2727 40.8546C17.6271 40.8901 17.6271 40.8901 17.9886 40.9262C18.6182 41.0183 18.6182 41.0183 19.2 41.3092C19.11 41.1292 19.02 40.9492 18.9273 40.7637C18.4959 39.495 18.4341 38.2809 18.3273 36.9455C19.6713 37.1375 21.0153 37.3295 22.4 37.5274C22.304 36.6634 22.208 35.7994 22.1091 34.9092Z" fill="#FE8C07"/>
<path d="M42.4727 29.9639C42.6647 30.0599 42.8567 30.1559 43.0545 30.2548C42.8586 31.2345 42.7464 31.7825 42.1818 32.582C40.6202 33.4058 39.0018 33.8239 37.2363 33.7457C38.0942 32.2261 38.902 31.5786 40.4727 30.8548C40.6568 30.7631 40.8409 30.6714 41.0306 30.5769C41.5014 30.3506 41.9864 30.1546 42.4727 29.9639Z" fill="#009356"/>
<path d="M84.9458 34.3271C84.9458 36.3431 84.9458 38.3591 84.9458 40.4362C84.4658 40.4362 83.9858 40.4362 83.4912 40.4362C83.4912 38.5162 83.4912 36.5962 83.4912 34.6181C84.073 34.3271 84.073 34.3271 84.9458 34.3271Z" fill="#071E4F"/>
<path d="M43.6361 26.1816C43.6676 27.1944 43.6251 28.1132 43.3452 29.0907C42.2697 30.2125 40.745 30.7222 39.2725 31.1271C39.7284 29.4934 41.5553 26.1816 43.6361 26.1816Z" fill="#009356"/>
<path d="M100.945 25.6001C101.425 25.6001 101.905 25.6001 102.4 25.6001C102.4 27.5201 102.4 29.4401 102.4 31.4183C101.92 31.4183 101.44 31.4183 100.945 31.4183C100.945 29.4983 100.945 27.5783 100.945 25.6001Z" fill="#071E4F"/>
<path d="M41.5998 33.4544C40.3466 35.8264 40.3466 35.8264 39.2725 36.3635C38.1599 36.3276 37.4482 35.6368 36.6543 34.909C36.6543 34.717 36.6543 34.525 36.6543 34.3271C37.2052 34.1795 37.7569 34.0346 38.3088 33.8908C38.7695 33.7693 38.7695 33.7693 39.2395 33.6453C40.0613 33.4721 40.7644 33.4172 41.5998 33.4544Z" fill="#009557"/>
<path d="M38.9816 20.3638C39.1556 20.5858 39.3296 20.8078 39.5089 21.0365C40.0813 21.7982 40.0813 21.7982 40.6543 22.2183C41.2572 23.002 41.0859 23.7763 41.018 24.7274C40.922 25.0154 40.826 25.3034 40.7271 25.6001C39.7471 25.2372 38.997 24.6421 38.3339 23.8342C37.8666 22.6683 38.5195 21.4616 38.9816 20.3638Z" fill="#009256"/>
<path d="M31.2545 13.0002C31.4761 13.0013 31.6977 13.0025 31.926 13.0036C32.6385 13.0987 33.1249 13.3182 33.7454 13.6729C33.709 14.2184 33.709 14.2184 33.4545 14.8366C32.418 15.2841 31.3637 15.5135 30.2545 15.7093C30.1585 15.4213 30.0625 15.1333 29.9635 14.8366C29.7715 14.8366 29.5795 14.8366 29.3817 14.8366C29.2857 14.5486 29.1897 14.2606 29.0908 13.9638C29.7758 13.1344 30.1856 12.9768 31.2545 13.0002Z" fill="#0092F7"/>
<path d="M43.9275 22.9819C44.0535 23.8797 44.1284 24.4423 43.9275 25.3092C43.0426 26.3943 42.0577 27.1931 40.7275 27.6365C40.8847 26.0136 41.0513 24.7766 42.3275 23.6728C43.2284 22.9819 43.2284 22.9819 43.9275 22.9819Z" fill="#009356"/>
<path d="M18.5833 8.09439C19.4895 8.59674 20.1943 9.17805 20.9458 9.89098C20.6578 9.98698 20.3698 10.083 20.0731 10.1819C19.7851 9.98989 19.4971 9.79789 19.2003 9.60007C18.9123 9.50407 18.6243 9.40807 18.3276 9.30916C18.1356 9.50116 17.9436 9.69316 17.7458 9.89098C17.4578 9.79498 17.1698 9.69898 16.8731 9.60007C17.2571 9.21607 17.6411 8.83207 18.0367 8.43643C17.8822 8.51368 17.7277 8.59093 17.5685 8.67053C16.5609 9.17431 15.5534 9.6781 14.5458 10.1819C14.4498 9.79789 14.3538 9.41389 14.2549 9.01825C15.7673 7.75308 16.7158 7.3079 18.5833 8.09439Z" fill="#0096F7"/>
<path d="M25.8911 12.7998C26.8626 13.2215 27.4978 13.7545 28.2365 14.5089C28.4319 14.7061 28.6273 14.9034 28.8286 15.1066C30.2547 16.6587 30.2547 16.6587 30.2547 17.7453C29.4486 17.7531 28.6426 17.7589 27.8365 17.7634C27.608 17.7659 27.3794 17.7683 27.1439 17.7708C26.9236 17.7718 26.7033 17.7727 26.4763 17.7737C26.1724 17.776 26.1724 17.776 25.8623 17.7783C25.3093 17.7453 25.3093 17.7453 24.4365 17.4544C24.5325 17.2624 24.6285 17.0704 24.7274 16.8725C25.0222 16.8827 25.0222 16.8827 25.3229 16.893C25.5824 16.8982 25.8419 16.9035 26.1093 16.9089C26.3658 16.9156 26.6223 16.9224 26.8865 16.9294C27.6696 16.87 28.1308 16.688 28.8002 16.2907C28.5217 15.9858 28.5217 15.9858 28.2377 15.6748C27.9973 15.4101 27.7569 15.1453 27.5093 14.8725C27.2696 14.6093 27.03 14.346 26.7831 14.0748C26.182 13.3816 26.182 13.3816 25.8911 12.7998Z" fill="#00225D"/>
<path d="M31.9997 21.8184C32.532 22.7231 32.6415 23.3258 32.5747 24.3684C32.5522 24.7565 32.5522 24.7565 32.5293 25.1525C32.5105 25.4202 32.4918 25.688 32.4724 25.9638C32.4559 26.2361 32.4394 26.5083 32.4224 26.7888C32.3814 27.4595 32.3373 28.1299 32.2906 28.8002C32.609 28.6217 32.9274 28.4432 33.2554 28.2593C33.4345 28.1589 33.6136 28.0585 33.7981 27.955C34.5135 27.5242 35.1457 27.0124 35.7815 26.4729C35.3537 27.5159 34.7923 28.0566 33.9088 28.7456C33.6812 28.9275 33.4536 29.1094 33.219 29.2968C33.0087 29.4209 32.7983 29.545 32.5815 29.6729C32.2935 29.5769 32.0055 29.4809 31.7088 29.382C31.7004 28.1759 31.6952 26.9699 31.6906 25.7638C31.6882 25.4194 31.6858 25.0749 31.6832 24.7201C31.6823 24.3929 31.6814 24.0657 31.6804 23.7286C31.6789 23.4254 31.6774 23.1223 31.6758 22.8099C31.7088 22.1093 31.7088 22.1093 31.9997 21.8184Z" fill="#005A40"/>
<path d="M23.2722 5.81836C23.4642 5.81836 23.6562 5.81836 23.8541 5.81836C24.0461 6.10636 24.2381 6.39436 24.4359 6.69109C25.4559 6.75386 26.4476 6.68863 27.4677 6.63654C28.6105 6.69643 29.2766 6.98814 30.2541 7.56381C29.3813 7.85472 29.3813 7.85472 28.8222 7.68313C28.1985 7.49832 28.1985 7.49832 27.595 7.85359C27.3925 7.99196 27.19 8.13034 26.9813 8.27291C26.7758 8.41053 26.5703 8.54816 26.3586 8.68995C26.1269 8.85251 26.1269 8.85251 25.8904 9.01836C26.1784 9.30636 26.4664 9.59436 26.7632 9.89109C25.812 9.7271 25.3593 9.45483 24.7268 8.72745C25.0177 8.14563 25.0177 8.14563 25.8722 7.83654C26.1662 7.74654 26.4602 7.65654 26.7632 7.56381C26.9552 7.46781 27.1472 7.37181 27.345 7.2729C25.761 7.4169 25.761 7.4169 24.145 7.56381C24.049 7.37181 23.953 7.17981 23.8541 6.982C23.2651 6.79228 23.2651 6.79228 22.6904 6.69109C22.8824 6.40309 23.0744 6.11509 23.2722 5.81836Z" fill="#009EF9"/>
<path d="M25.3093 37.2363C25.5013 37.3323 25.6933 37.4283 25.8911 37.5272C26.0767 38.2637 26.2305 38.9813 26.3638 39.7272C26.4028 39.934 26.4418 40.1409 26.482 40.3539C26.5782 40.8658 26.6713 41.3783 26.7638 41.8909C25.2398 41.7305 23.8624 41.4751 22.4002 41.0181C22.4962 41.6901 22.5922 42.3621 22.6911 43.0545C22.4991 43.0545 22.3071 43.0545 22.1093 43.0545C22.0133 42.1905 21.9173 41.3265 21.8184 40.4363C22.3821 40.5264 22.9457 40.6175 23.5093 40.7091C23.8231 40.7597 24.137 40.8103 24.4604 40.8625C25.3093 41.0181 25.3093 41.0181 26.182 41.3091C26.119 41.1126 26.056 40.9161 25.9911 40.7136C25.9101 40.4541 25.8291 40.1946 25.7456 39.9272C25.6646 39.6707 25.5836 39.4142 25.5002 39.15C25.3093 38.4 25.3093 38.4 25.3093 37.2363Z" fill="#FE9205"/>
<path d="M18.0364 19.2002C18.0364 21.3122 18.0364 23.4242 18.0364 25.6002C17.9404 25.6002 17.8444 25.6002 17.7455 25.6002C17.6495 23.8722 17.5535 22.1442 17.4546 20.3638C17.1066 20.6698 16.7586 20.9758 16.4 21.2911C15.4061 22.1612 14.4008 23.0141 13.3818 23.8547C13.6794 21.8465 15.368 20.7615 16.8659 19.5945C17.4546 19.2002 17.4546 19.2002 18.0364 19.2002Z" fill="#3D027D"/>
<path d="M28.7998 40.4365C30.5278 40.7245 30.5278 40.7245 32.2907 41.0183C32.3867 41.3063 32.4827 41.5943 32.5816 41.8911C32.164 42.0382 31.7457 42.1832 31.3271 42.3274C30.9778 42.4489 30.9778 42.4489 30.6214 42.5729C29.9634 42.7638 29.9634 42.7638 29.0907 42.7638C28.9947 41.9958 28.8987 41.2278 28.7998 40.4365Z" fill="#FF9005"/>
<path d="M15.4183 35.2002C16.3369 36.1188 16.182 37.1277 16.291 38.4002C15.427 38.3042 14.563 38.2082 13.6729 38.1093C13.6729 36.9456 13.6729 36.9456 14.0547 36.4502C14.2167 36.3017 14.3787 36.1532 14.5456 36.0002C14.7886 35.7729 14.7886 35.7729 15.0365 35.5411C15.1625 35.4286 15.2885 35.3161 15.4183 35.2002Z" fill="#FF8A08"/>
<path d="M18.6185 32C18.9065 32.096 19.1945 32.192 19.4912 32.2909C19.5872 33.1549 19.6832 34.0189 19.7821 34.9091C18.8221 34.8131 17.8621 34.7171 16.873 34.6182C17.2028 33.299 17.6416 32.9017 18.6185 32Z" fill="#FF8B07"/>
<path d="M39.8547 17.7456C40.4978 18.2279 40.8898 18.5305 41.3092 19.2002C41.4366 20.1818 41.3952 21.125 41.3092 22.1092C40.1877 21.7354 39.8762 21.3765 39.2729 20.3638C39.2461 19.5263 39.3837 18.8678 39.5638 18.0365C39.6598 17.9405 39.7558 17.8445 39.8547 17.7456Z" fill="#009457"/>
<path d="M14.8366 16C14.9326 16.288 15.0286 16.576 15.1275 16.8727C14.0567 17.5866 13.2531 17.5209 12.0184 17.4909C11.7122 17.487 11.7122 17.487 11.3997 17.483C10.8968 17.4761 10.394 17.4657 9.89118 17.4545C9.89118 17.6465 9.89118 17.8385 9.89118 18.0364C9.50718 17.9404 9.12318 17.8444 8.72754 17.7455C8.72754 17.3615 8.72754 16.9775 8.72754 16.5818C9.11154 16.4858 9.49554 16.3898 9.89118 16.2909C9.89118 16.4829 9.89118 16.6749 9.89118 16.8727C10.6066 16.8397 11.3215 16.8028 12.0366 16.7636C12.3415 16.7501 12.3415 16.7501 12.6525 16.7364C13.8772 16.6996 13.8772 16.6996 14.8366 16Z" fill="#B575F0"/>
<path d="M30.8365 8.43652C31.1245 8.62852 31.4125 8.82052 31.7092 9.01834C31.7092 9.21034 31.7092 9.40234 31.7092 9.60016C32.1892 9.60016 32.6692 9.60016 33.1638 9.60016C32.8758 9.69616 32.5878 9.79216 32.2911 9.89107C32.4831 10.4671 32.6751 11.0431 32.8729 11.6365C32.5849 11.4445 32.2969 11.2525 32.0001 11.0547C32.0001 10.8627 32.0001 10.6707 32.0001 10.4729C31.7121 10.6169 31.7121 10.6169 31.4183 10.7638C30.7277 10.7845 30.0365 10.7883 29.3456 10.782C28.9728 10.7794 28.6001 10.7767 28.2161 10.774C27.7852 10.769 27.7852 10.769 27.3456 10.7638C27.2496 10.5718 27.1536 10.3798 27.0547 10.182C27.5263 9.97926 27.9993 9.77988 28.4729 9.58198C28.7361 9.4706 28.9994 9.35923 29.2706 9.24448C29.9638 9.01834 29.9638 9.01834 30.5456 9.30925C29.8256 9.74125 29.8256 9.74125 29.0911 10.182C29.8591 10.182 30.6271 10.182 31.4183 10.182C31.2263 9.60598 31.0343 9.02998 30.8365 8.43652Z" fill="#009CF8"/>
<path d="M25.6004 31.4184C25.6004 31.5144 25.6004 31.6104 25.6004 31.7093C23.2964 31.8533 23.2964 31.8533 20.9459 32.0002C21.7055 33.4069 22.5094 34.5809 23.564 35.782C21.8973 35.0661 20.7192 33.6141 19.9459 32.0002C19.8919 31.8082 19.8379 31.6162 19.7822 31.4184C21.4036 30.6077 23.8591 31.1088 25.6004 31.4184Z" fill="#C81509"/>
<path d="M42.7632 19.7817C42.9552 19.7817 43.1472 19.7817 43.3451 19.7817C43.7294 21.2679 43.7294 21.2679 43.636 22.109C43.0544 22.8367 42.3746 23.3443 41.5996 23.8545C41.6251 23.3936 41.6566 22.933 41.6905 22.4726C41.7158 22.0879 41.7158 22.0879 41.7417 21.6954C41.911 20.8423 42.1687 20.41 42.7632 19.7817Z" fill="#009356"/>
<path d="M18.036 8.43652C17.94 8.72452 17.844 9.01252 17.7451 9.30925C17.9371 9.21325 18.1291 9.11725 18.327 9.01834C18.927 9.09107 18.927 9.09107 19.4906 9.30925C19.5866 9.59725 19.6826 9.88525 19.7815 10.182C15.7088 10.182 15.7088 10.182 15.127 9.89107C15.4463 9.64613 15.7679 9.40429 16.0906 9.1638C16.2695 9.0288 16.4483 8.8938 16.6326 8.75471C17.1633 8.43652 17.1633 8.43652 18.036 8.43652Z" fill="#0051E3"/>
<path d="M10.7634 27.6362C11.2009 28.5114 10.9404 29.1925 10.7816 30.1453C10.7249 30.4911 10.6683 30.8368 10.61 31.193C10.5646 31.4593 10.5192 31.7255 10.4725 31.9999C10.3765 31.9999 10.2805 31.9999 10.1816 31.9999C10.1816 31.0399 10.1816 30.0799 10.1816 29.0908C10.0447 29.2588 9.9078 29.4268 9.76678 29.5999C9.58565 29.8159 9.40453 30.0319 9.21792 30.2544C8.9496 30.5784 8.9496 30.5784 8.67587 30.909C8.14519 31.418 8.14519 31.418 7.27246 31.418C8.3793 30.0914 9.52692 28.8432 10.7634 27.6362Z" fill="#700FE0"/>
<path d="M26.4725 11.3452C27.1635 11.5089 27.1635 11.5089 27.9271 11.927C28.3089 12.9816 28.3089 12.9816 28.5089 13.9634C28.2209 14.0594 27.9329 14.1554 27.6362 14.2543C26.8907 13.6179 26.8907 13.6179 26.1816 12.7998C26.2362 11.9816 26.2362 11.9816 26.4725 11.3452Z" fill="#0071ED"/>
<path d="M86.5636 27.3271C86.9146 27.3361 86.9146 27.3361 87.2727 27.3453C87.2727 28.0173 87.2727 28.6893 87.2727 29.3817C86.6007 29.3817 85.9287 29.3817 85.2363 29.3817C85.5386 27.3521 85.5386 27.3521 86.5636 27.3271Z" fill="#071E4F"/>
<path d="M77.9638 34.9092C78.7318 34.9092 79.4998 34.9092 80.291 34.9092C80.195 35.3892 80.099 35.8692 80.0001 36.3637C79.3281 36.3637 78.6561 36.3637 77.9638 36.3637C77.8678 36.0757 77.7718 35.7877 77.6729 35.491C77.7689 35.299 77.8649 35.107 77.9638 34.9092Z" fill="#071E4F"/>
<path d="M8.72756 23.8545C9.20756 23.9505 9.68756 24.0465 10.1821 24.1454C10.1276 24.6909 10.1276 24.6909 9.89119 25.309C9.40634 25.503 8.9215 25.6969 8.43665 25.8909C7.80942 26.4386 7.26116 27.0266 6.69119 27.6363C6.49919 27.5403 6.30719 27.4443 6.10938 27.3454C6.274 27.1909 6.43863 27.0364 6.60824 26.8772C6.82161 26.6717 7.03499 26.4662 7.25483 26.2545C7.46745 26.052 7.68008 25.8495 7.89915 25.6409C8.43815 25.0164 8.61344 24.6588 8.72756 23.8545Z" fill="#C68CF3"/>
<path d="M41.3096 15.418C42.1535 16.2619 42.3436 16.5715 42.6732 17.6543C42.7463 17.8895 42.8195 18.1246 42.8948 18.3668C42.9477 18.5457 43.0005 18.7246 43.055 18.9089C42.671 19.2929 42.287 19.6769 41.8914 20.0725C41.6994 18.5365 41.5074 17.0005 41.3096 15.418Z" fill="#009356"/>
<path d="M36.655 9.89093C36.655 10.0829 36.655 10.2749 36.655 10.4727C36.2389 10.7248 35.8202 10.9725 35.4004 11.2182C35.0511 11.4258 35.0511 11.4258 34.6947 11.6375C34.0368 11.9273 34.0368 11.9273 33.1641 11.6364C33.1641 11.4444 33.1641 11.2524 33.1641 11.0546C35.2835 9.7247 35.2835 9.7247 36.655 9.89093Z" fill="#0053E7"/>
<path d="M30.5456 8.43631C30.5456 8.62831 30.5456 8.82031 30.5456 9.01813C30.1844 9.22242 29.8201 9.42141 29.4547 9.61813C29.1509 9.78519 29.1509 9.78519 28.8411 9.95563C28.1132 10.2199 27.7723 10.1478 27.0547 9.89086C27.993 8.79619 29.1186 7.96063 30.5456 8.43631Z" fill="#004EE5"/>
<path d="M11.3451 19.2002C11.9451 19.3275 11.9451 19.3275 12.5087 19.4911C12.4127 19.8751 12.3167 20.2591 12.2178 20.6547C11.8338 20.6547 11.4498 20.6547 11.0542 20.6547C11.0542 20.4627 11.0542 20.2707 11.0542 20.0729C9.71017 20.0729 8.36617 20.0729 6.98145 20.0729C6.98145 19.9769 6.98145 19.8809 6.98145 19.782C7.27207 19.7644 7.5627 19.7468 7.86213 19.7286C8.2375 19.7042 8.61288 19.6799 8.99963 19.6547C9.37425 19.6311 9.74888 19.6075 10.1349 19.5831C11.0135 19.5932 11.0135 19.5932 11.3451 19.2002Z" fill="#CB93F4"/>
<path d="M33.4548 13.9638C33.1639 14.8365 33.1639 14.8365 32.2002 15.3456C30.8437 15.8055 30.8437 15.8055 29.9639 15.4183C31.0221 14.2542 31.876 13.8761 33.4548 13.9638Z" fill="#0050E6"/>
<path d="M28.8348 7.55219C29.0152 7.65194 29.1956 7.75169 29.3814 7.85446C28.972 8.10731 28.5592 8.35478 28.1451 8.59991C27.9156 8.73829 27.6861 8.87666 27.4496 9.01923C26.6735 9.34689 26.372 9.31393 25.5996 9.0181C27.8786 7.11896 27.8786 7.11896 28.8348 7.55219Z" fill="#004DE5"/>
<path d="M22.5995 5.76367C22.9325 5.79067 22.9325 5.79067 23.2723 5.81822C22.9814 6.69094 22.9814 6.69094 22.3268 7.18185C21.4871 7.58261 20.9881 7.64217 20.0723 7.56367C20.0723 7.37167 20.0723 7.17967 20.0723 6.98185C20.3603 6.88585 20.6483 6.78985 20.945 6.69094C21.077 6.54094 21.209 6.39094 21.345 6.2364C21.8177 5.81822 21.8177 5.81822 22.5995 5.76367Z" fill="#0054E7"/>
<path d="M35.4909 26.4727C35.4909 27.3454 35.4909 27.3454 35.0966 27.792C34.1075 28.6165 33.2546 29.2925 32 29.6727C32 28.7127 32 27.7527 32 26.7636C32.096 26.7636 32.192 26.7636 32.2909 26.7636C32.2909 27.4356 32.2909 28.1076 32.2909 28.7999C33.5374 28.1287 34.5376 27.5404 35.4909 26.4727Z" fill="#004137"/>
<path d="M40.7271 14.2544C40.8231 14.2544 40.9191 14.2544 41.018 14.2544C41.114 15.6944 41.21 17.1344 41.3089 18.618C39.8544 17.4544 39.8544 17.4544 39.618 16.7998C39.591 16.5478 39.591 16.5478 39.5635 16.2908C39.8515 16.3868 40.1395 16.4828 40.4362 16.5817C40.5322 15.8137 40.6282 15.0457 40.7271 14.2544Z" fill="#009E5D"/>
<path d="M29.3818 41.0181C30.1498 41.2101 30.9178 41.4021 31.7091 41.5999C31.7091 41.7919 31.7091 41.9839 31.7091 42.1817C30.9411 42.3737 30.1731 42.5657 29.3818 42.7635C29.3818 42.1875 29.3818 41.6115 29.3818 41.0181Z" fill="#FF551F"/>
<path d="M24.4365 16.8729C26.202 16.7993 27.6837 16.9606 29.382 17.4547C29.382 17.5507 29.382 17.6467 29.382 17.7456C28.7214 17.7535 28.0608 17.7591 27.4002 17.7638C26.8483 17.7688 26.8483 17.7688 26.2854 17.774C25.3093 17.7456 25.3093 17.7456 24.4365 17.4547C24.4365 17.2627 24.4365 17.0707 24.4365 16.8729Z" fill="#002C7A"/>
<path d="M12.2181 13.0908C12.5185 13.9019 12.5221 14.216 12.2363 15.0545C12.1343 15.2705 12.0323 15.4865 11.9272 15.709C11.4472 15.613 10.9672 15.517 10.4727 15.4181C10.5687 15.0341 10.6647 14.6501 10.7636 14.2545C11.0426 14.2095 11.0426 14.2095 11.3272 14.1635C11.5252 14.0975 11.7232 14.0315 11.9272 13.9635C12.0232 13.6755 12.1192 13.3875 12.2181 13.0908Z" fill="#C083F2"/>
<path d="M27.9277 14.2544C28.847 14.3529 29.0781 14.5296 29.6914 15.2544C29.8774 15.5004 30.0634 15.7464 30.255 15.9998C30.543 16.1918 30.831 16.3838 31.1277 16.5817C31.0317 16.8697 30.9357 17.1577 30.8368 17.4544C30.6448 17.4544 30.4528 17.4544 30.255 17.4544C29.763 16.9021 29.763 16.9021 29.2186 16.1817C29.0383 15.9454 28.8579 15.7092 28.6721 15.4658C28.2186 14.8362 28.2186 14.8362 27.9277 14.2544Z" fill="#0054E8"/>
<path d="M15.1275 35.4907C15.2235 35.4907 15.3195 35.4907 15.4184 35.4907C15.5144 36.2587 15.6104 37.0267 15.7093 37.818C15.1333 37.626 14.5573 37.434 13.9639 37.2362C14.2989 36.5182 14.5596 36.0586 15.1275 35.4907Z" fill="#FF5321"/>
<path d="M18.9086 32C19.0046 32.768 19.1006 33.536 19.1996 34.3273C18.3356 34.1833 18.3356 34.1833 17.4541 34.0364C17.4541 33.1636 17.4541 33.1636 18.0177 32.5273C18.6177 32 18.6177 32 18.9086 32Z" fill="#FF5320"/>
<path d="M32.582 39.2729C32.966 39.3689 33.35 39.4649 33.7457 39.5639C33.8417 40.0439 33.9377 40.5239 34.0366 41.0184C33.4606 41.3064 33.4606 41.3064 32.8729 41.6002C32.7769 40.8322 32.6809 40.0642 32.582 39.2729Z" fill="#FF7511"/>
<path d="M36.9453 11.3454C35.9373 12.2094 35.9373 12.2094 34.909 13.0909C34.909 12.8989 34.909 12.7069 34.909 12.5091C34.717 12.5091 34.525 12.5091 34.3271 12.5091C34.3271 12.3171 34.3271 12.1251 34.3271 11.9272C35.9635 11.0182 35.9635 11.0182 36.9453 11.3454Z" fill="#0054E7"/>
<path d="M32.5819 9.30908C33.2539 9.40508 33.9259 9.50108 34.6183 9.59999C34.6183 9.79199 34.6183 9.98399 34.6183 10.1818C33.9334 10.5976 33.6058 10.7888 32.8001 10.6545C32.6321 10.5945 32.4641 10.5345 32.291 10.4727C32.387 10.0887 32.483 9.70472 32.5819 9.30908Z" fill="#0060EA"/>
<path d="M75.9276 31.418C76.4076 31.514 76.8876 31.61 77.3822 31.7089C77.1902 32.0929 76.9982 32.4769 76.8004 32.8725C76.4164 32.7765 76.0324 32.6805 75.6367 32.5816C75.7327 32.1976 75.8287 31.8136 75.9276 31.418Z" fill="#071E4F"/>
<path d="M25.8906 12.7998C26.8948 13.2295 27.5342 13.7999 28.2906 14.5816C28.4961 14.7924 28.7016 15.0031 28.9134 15.2203C29.1451 15.4621 29.1451 15.4621 29.3815 15.7089C29.1895 15.9009 28.9975 16.0929 28.7997 16.2907C28.3686 15.8187 27.9385 15.3458 27.5088 14.8725C27.2692 14.6093 27.0296 14.346 26.7827 14.0748C26.1815 13.3816 26.1815 13.3816 25.8906 12.7998Z" fill="#00276D"/>
<path d="M32.8732 14.5454C32.8732 14.8334 32.8732 15.1214 32.8732 15.4181C32.1459 16.0545 32.1459 16.0545 31.4186 16.5818C31.1306 16.2938 30.8426 16.0058 30.5459 15.709C31.3139 15.325 32.0819 14.941 32.8732 14.5454Z" fill="#007FF2"/>
<path d="M70.9813 34.9092C71.5813 35.0365 71.5813 35.0365 72.145 35.2001C72.049 35.5841 71.953 35.9681 71.8541 36.3637C71.4701 36.2677 71.0861 36.1717 70.6904 36.0728C70.6904 35.2001 70.6904 35.2001 70.9813 34.9092Z" fill="#071E4F"/>
<path d="M31.418 9.30908C31.418 9.59708 31.418 9.88508 31.418 10.1818C30.122 10.3258 30.122 10.3258 28.7998 10.4727C29.9634 9.30908 29.9634 9.30908 31.418 9.30908Z" fill="#0051E6"/>
<path d="M18.3271 8.43652C19.396 8.5256 19.7181 8.65695 20.4544 9.47289C20.6974 9.82389 20.6974 9.82389 20.9453 10.182C20.0813 10.038 20.0813 10.038 19.1999 9.89107C19.1999 9.69907 19.1999 9.50707 19.1999 9.30925C18.9119 9.21325 18.6239 9.11725 18.3271 9.01834C18.3271 8.82634 18.3271 8.63434 18.3271 8.43652Z" fill="#0099F8"/>
<path d="M16.8724 19.7817C17.1604 19.8777 17.4484 19.9737 17.7451 20.0726C17.4194 20.3653 17.0918 20.6558 16.7633 20.9454C16.5811 21.1074 16.3988 21.2694 16.211 21.4363C15.7088 21.8181 15.7088 21.8181 15.127 21.8181C15.5284 20.8479 15.9559 20.3094 16.8724 19.7817Z" fill="#2E0060"/>
<path d="M25.3094 17.4547C25.3094 17.5507 25.3094 17.6467 25.3094 17.7456C24.2534 17.7456 23.1974 17.7456 22.1094 17.7456C22.1094 17.5536 22.1094 17.3616 22.1094 17.1638C23.3582 16.7964 24.1103 16.9806 25.3094 17.4547Z" fill="#003698"/>
<path d="M31.4181 13.6729C30.7856 14.4003 30.3329 14.6726 29.3817 14.8365C29.2857 14.5485 29.1897 14.2605 29.0908 13.9638C29.8788 13.5698 30.5481 13.654 31.4181 13.6729Z" fill="#0052E7"/>
<path d="M16.5823 7.85449C16.2514 8.84695 15.9878 9.05261 15.1277 9.59995C14.9357 9.59995 14.7437 9.59995 14.5459 9.59995C14.5459 9.31195 14.5459 9.02395 14.5459 8.72722C15.7742 7.85449 15.7742 7.85449 16.5823 7.85449Z" fill="#0053E7"/>
<path d="M23.2731 6.69092C23.5611 6.78692 23.8491 6.88292 24.1458 6.98183C24.1458 7.17383 24.1458 7.36583 24.1458 7.56365C24.4338 7.65965 24.7218 7.75565 25.0186 7.85455C24.8266 8.04655 24.6346 8.23855 24.4368 8.43637C24.4368 8.24437 24.4368 8.05237 24.4368 7.85455C23.7648 7.75855 23.0928 7.66255 22.4004 7.56365C22.6884 7.27565 22.9764 6.98765 23.2731 6.69092Z" fill="#006DED"/>
</svg>
