<svg width="169" height="48" viewBox="0 0 169 48" fill="none" xmlns="http://www.w3.org/2000/svg">
<g clip-path="url(#clip0_13_5262)">
<path d="M0.214286 12.2144C2.88815 12.7434 5.56199 13.2726 8.23582 13.8019C9.47843 14.0479 10.7211 14.2938 11.9637 14.5397C14.5815 15.0577 17.1993 15.5761 19.8169 16.0954C20.9392 16.3181 22.0617 16.5406 23.1842 16.7625C24.2093 16.9651 25.2343 17.1683 26.2593 17.372C26.6339 17.4464 27.0087 17.5205 27.3834 17.5944C27.8927 17.6949 28.4019 17.7961 28.911 17.8975C29.0602 17.9268 29.2094 17.956 29.3631 17.9861C30.3797 18.1899 30.3797 18.1899 30.8571 18.4286C31.0716 19.6618 31.1135 20.8892 31.1392 22.1385C31.1437 22.3215 31.1481 22.5046 31.1527 22.6932C31.1666 23.2717 31.1793 23.8502 31.192 24.4286C31.2012 24.8235 31.2106 25.2183 31.22 25.6131C31.2428 26.5754 31.2646 27.5377 31.2857 28.5001C30.9812 28.4014 30.6769 28.302 30.3726 28.2022C30.2032 28.147 30.0337 28.0917 29.859 28.0347C29.1121 27.7706 28.4174 27.4208 27.7098 27.067C23.0476 24.816 18.2695 23.3317 13.0714 23.3572C13.1972 23.3807 13.3229 23.4042 13.4524 23.4284C19.3979 24.5642 24.8206 26.8838 30 30.0001C30 30.2122 30 30.4244 30 30.6429C29.5097 31.0068 29.5097 31.0068 28.8248 31.403C28.7025 31.4746 28.5801 31.5462 28.4541 31.62C28.06 31.8502 27.664 32.0769 27.2679 32.3036C27.0108 32.453 26.7538 32.6025 26.4969 32.7523C25.9879 33.0487 25.478 33.3433 24.9672 33.6367C24.464 33.9261 23.9634 34.2194 23.4647 34.5164C23.2336 34.6535 23.0026 34.7907 22.7645 34.932C22.5584 35.0553 22.3522 35.1785 22.1399 35.3055C21.6429 35.5715 21.6429 35.5715 21.2143 35.5715C21.5862 36.2268 21.9396 36.7787 22.5 37.2858C23.2656 37.0022 23.9241 36.6621 24.6094 36.2194C24.8046 36.094 24.9998 35.9686 25.201 35.8395C25.4057 35.7068 25.6105 35.5742 25.8214 35.4376C26.2443 35.1662 26.6673 34.895 27.0904 34.624C27.295 34.4926 27.4995 34.3613 27.7102 34.2259C28.4528 33.7502 29.1976 33.2783 29.9464 32.8126C30.1575 32.6805 30.3685 32.5485 30.5859 32.4125C31.0714 32.1429 31.0714 32.1429 31.5 32.1429C31.5625 33.609 31.6233 35.0752 31.6831 36.5414C31.7035 37.0378 31.7243 37.5341 31.7455 38.0305C31.8869 41.3557 31.9599 44.6718 31.9286 48.0001C31.6909 47.7993 31.4537 47.598 31.2167 47.3965C31.0845 47.2844 30.9524 47.1724 30.8162 47.0569C30.2502 46.5567 29.7562 46.0167 29.25 45.4554C29.1481 45.3428 29.0461 45.2303 28.9411 45.1143C28.2812 44.3836 27.6328 43.6433 26.9883 42.8991C26.426 42.2645 25.849 41.6439 25.2723 41.0224C24.3978 40.0798 23.5399 39.1291 22.7143 38.1429C21.971 38.4307 21.2602 38.7569 20.5446 39.1072C17.308 40.5761 14.2285 40.1524 10.9286 39.2144C10.9286 39.1436 10.9286 39.0729 10.9286 39.0001C11.0534 38.982 11.1783 38.9639 11.3069 38.9452C14.6406 38.4449 17.5592 37.7307 20.3571 35.7858C19.4777 34.5569 18.5235 33.4466 17.4777 32.3572C16.5342 31.3683 15.6101 30.3697 14.7145 29.3371C14.1791 28.7252 13.6258 28.1305 13.0714 27.5358C12.2643 26.666 11.4702 25.7885 10.6942 24.8907C10.1394 24.2631 9.56958 23.6499 9 23.0358C8.1931 22.1658 7.39881 21.2885 6.62277 20.3907C6.06796 19.7631 5.49815 19.1499 4.92857 18.5358C4.11434 17.6577 3.30809 16.7758 2.52958 15.8656C2.21763 15.5131 1.89473 15.1704 1.56864 14.831C1.46882 14.7261 1.36899 14.6211 1.26615 14.513C0.977601 14.2105 0.686405 13.9104 0.395089 13.6106C0.26471 13.4327 0.13433 13.2548 0 13.0715C0.0824498 12.6092 0.0824498 12.6092 0.214286 12.2144Z" fill="#006530"/>
<path d="M65.7854 12.4288C65.5028 13.0438 65.1917 13.519 64.7408 14.0226C64.6088 14.1703 64.4767 14.3181 64.3407 14.4704C63.6403 15.2374 62.9355 16.0001 62.2293 16.7618C61.6555 17.3814 61.0878 18.0041 60.5354 18.6431C59.7638 19.5357 58.9596 20.3972 58.1574 21.2622C57.5838 21.8818 57.0162 22.5043 56.464 23.1431C55.6924 24.0357 54.8882 24.8972 54.0859 25.7622C53.5124 26.3818 52.9448 27.0043 52.3926 27.6431C51.7307 28.4088 51.0451 29.151 50.3569 29.8931C49.5475 30.7658 48.7498 31.6452 47.9713 32.5457C47.0696 33.57 46.1388 34.5683 45.214 35.5717C46.0177 36.2669 46.851 36.7529 47.8122 37.1922C48.0256 37.2901 48.0256 37.2901 48.2433 37.3899C50.386 38.3487 52.5345 38.7121 54.8569 39.0002C52.7127 40.4297 49.654 40.3134 47.2229 39.8306C46.0257 39.5298 45.0312 39.0426 43.9802 38.4017C43.4963 38.0923 43.4963 38.0923 42.8569 38.1431C42.5279 38.4335 42.5279 38.4335 42.214 38.8395C41.5631 39.6168 40.893 40.3718 40.2051 41.1163C39.311 42.0879 38.4233 43.0648 37.5416 44.0477C37.2153 44.4111 36.8883 44.7738 36.5605 45.1358C35.513 46.2931 35.513 46.2931 34.5131 47.4913C34.2943 47.7432 34.2943 47.7432 34.0711 48.0002C33.9297 48.0002 33.7883 48.0002 33.6426 48.0002C33.8362 40.6672 33.8362 40.6672 33.964 37.0583C33.9716 36.8324 33.9792 36.6065 33.987 36.3737C34.0391 34.9578 34.1427 33.5527 34.2854 32.1431C35.8715 32.8915 37.3422 33.7603 38.8122 34.7145C39.2145 34.9735 39.6169 35.2324 40.0193 35.4913C40.5648 35.8425 41.1104 36.1936 41.6546 36.5468C41.8077 36.6449 41.9608 36.743 42.1186 36.844C42.2517 36.9299 42.3848 37.0158 42.5219 37.1043C42.8562 37.32 42.8562 37.32 43.2854 37.286C43.625 36.903 43.625 36.903 43.9551 36.4288C44.0705 36.2697 44.186 36.1106 44.305 35.9467C44.3928 35.8229 44.4806 35.6992 44.5711 35.5717C44.3884 35.5175 44.2056 35.4633 44.0173 35.4074C43.2345 35.1247 42.5769 34.7656 41.8608 34.342C41.7287 34.2643 41.5967 34.1866 41.4606 34.1066C41.0414 33.8594 40.6233 33.6107 40.2051 33.3618C39.9261 33.1973 39.6471 33.0328 39.368 32.8684C38.0198 32.0728 36.679 31.2673 35.3569 30.4288C35.8947 29.8169 36.488 29.4932 37.2076 29.1197C37.4491 28.994 37.6906 28.8683 37.9394 28.7387C38.199 28.6055 38.4587 28.4725 38.7185 28.3395C38.8494 28.2722 38.9803 28.2048 39.1152 28.1354C43.0566 26.1094 46.9364 24.3797 51.3454 23.6956C52.0401 23.6131 52.0401 23.6131 52.4997 23.3574C46.8656 23.1597 41.5844 25.3814 36.5878 27.7382C36.378 27.8369 36.1682 27.9356 35.952 28.0373C35.6711 28.1712 35.6711 28.1712 35.3844 28.3077C34.9283 28.5002 34.9283 28.5002 34.4997 28.5002C34.4749 25.4605 34.5012 22.4333 34.6625 19.3974C34.6722 19.2158 34.6818 19.0343 34.6917 18.8472C34.6991 18.7091 34.7064 18.5711 34.714 18.4288C38.6954 17.5665 42.6816 16.7342 46.6755 15.9319C46.9413 15.8784 47.2072 15.825 47.4811 15.7699C48.7363 15.5175 49.9917 15.2653 51.2471 15.0137C52.6851 14.7255 54.1228 14.436 55.5603 14.1456C56.8184 13.8915 58.0768 13.639 59.3354 13.387C59.8674 13.2803 60.3993 13.173 60.9312 13.0653C61.6676 12.9163 62.4044 12.769 63.1413 12.6222C63.3608 12.5774 63.5802 12.5325 63.8063 12.4864C64.0056 12.447 64.2049 12.4077 64.4102 12.3672C64.5837 12.3323 64.7572 12.2975 64.936 12.2615C65.3569 12.2145 65.3569 12.2145 65.7854 12.4288Z" fill="#006530"/>
<path d="M139.929 12.2144C141.343 12.2144 142.757 12.2144 144.214 12.2144C144.214 20.0636 144.214 27.9129 144.214 36.0001C142.8 36.0001 141.386 36.0001 139.929 36.0001C139.858 34.8686 139.787 33.7372 139.714 32.5715C139.561 32.819 139.408 33.0665 139.25 33.3215C138.354 34.5508 137.388 35.7641 135.827 36.0982C133.295 36.4216 130.678 36.1991 128.143 36.0001C128.044 34.3622 127.977 32.7252 127.931 31.085C127.912 30.529 127.885 29.9733 127.852 29.418C127.695 26.7613 127.555 24.3523 129.326 22.2056C130.725 20.7736 132.076 19.8495 134.111 19.7663C134.819 19.7705 135.496 19.8361 136.205 19.9019C137.434 19.9814 138.663 20.061 139.929 20.1429C139.929 17.5265 139.929 14.9101 139.929 12.2144ZM132.429 24.2144C132.429 26.7601 132.429 29.3058 132.429 31.9286C134.904 31.9286 137.379 31.9286 139.929 31.9286C139.929 29.3829 139.929 26.8372 139.929 24.2144C137.454 24.2144 134.979 24.2144 132.429 24.2144Z" fill="#006630"/>
<path d="M83.6921 16.0582C84.2639 16.0786 84.8357 16.0931 85.4076 16.108C86.797 16.1478 88.1837 16.2104 89.5716 16.2858C89.5716 17.6294 89.5716 18.973 89.5716 20.3573C85.6823 20.3573 81.793 20.3573 77.7859 20.3573C77.7859 21.5594 77.7859 22.7616 77.7859 24.0001C81.6751 24.0001 85.5644 24.0001 89.5716 24.0001C89.6511 25.2641 89.7307 26.5282 89.8126 27.8305C89.8478 28.2205 89.8829 28.6105 89.9191 29.0123C90.0205 30.9053 89.6727 32.2959 88.4919 33.8061C87.0266 35.4136 85.6866 36.1935 83.5025 36.3604C82.1538 36.3884 80.8191 36.3228 79.4734 36.2412C78.9129 36.2218 78.3523 36.2042 77.7917 36.1885C76.431 36.1464 75.0734 36.0801 73.7144 36.0001C73.7144 34.6566 73.7144 33.313 73.7144 31.9287C77.6037 31.9287 81.493 31.9287 85.5001 31.9287C85.5001 30.6558 85.5001 29.383 85.5001 28.0716C81.6109 28.0716 77.7216 28.0716 73.7144 28.0716C73.6393 26.8031 73.5642 25.5347 73.4867 24.2278C73.4536 23.8359 73.4204 23.4439 73.3862 23.0401C73.2936 21.2124 73.5826 19.8158 74.7116 18.3426C77.2179 15.5688 80.2072 15.863 83.6921 16.0582Z" fill="#006530"/>
<path d="M32.5714 0C33.2143 0.214286 33.2143 0.214286 33.4177 0.610212C33.4699 0.766833 33.5221 0.923454 33.5759 1.08482C33.6298 1.242 33.6836 1.39917 33.7391 1.56111C33.7781 1.68237 33.817 1.80363 33.8571 1.92857C34.0383 1.8225 34.2196 1.71643 34.4062 1.60714C35.2153 1.25411 35.7703 1.23336 36.6429 1.28571C36.6429 1.49786 36.6429 1.71 36.6429 1.92857C36.4307 2.07 36.2186 2.21143 36 2.35714C36.2226 2.37814 36.4453 2.39913 36.6747 2.42076C39.8861 2.75136 42.2727 3.58386 44.4258 6.16825C44.5446 6.32487 44.6633 6.48149 44.7857 6.64286C44.715 6.78429 44.6443 6.92571 44.5714 7.07143C44.2764 6.91647 44.2764 6.91647 43.9754 6.75837C42.1563 5.8163 40.671 5.11632 38.5714 5.14286C38.8043 5.26343 38.8043 5.26343 39.0419 5.38644C41.6997 6.79331 43.3359 8.46211 44.2902 11.363C44.3674 11.8507 44.2733 12.1715 44.1429 12.6429C43.859 12.3441 43.859 12.3441 43.5695 12.0393C42.0815 10.4981 40.6824 9.17247 38.7857 8.14286C38.8736 8.30611 38.9614 8.46936 39.0519 8.63756C40.0965 10.6393 40.7814 12.4935 40.5 14.7857C40.3586 14.9979 40.2171 15.21 40.0714 15.4286C39.9351 15.0909 39.9351 15.0909 39.796 14.7464C38.9425 12.6844 38.0252 11.0166 36.4286 9.42857C36.4308 9.58837 36.4331 9.74817 36.4354 9.91281C36.4443 10.6442 36.4499 11.3757 36.4554 12.1071C36.4589 12.3585 36.4625 12.6099 36.4662 12.8689C36.4739 14.2309 36.4093 15.4124 36 16.7143C35.596 16.1083 35.4348 15.6953 35.2391 15.0059C35.1469 14.6899 35.1469 14.6899 35.0529 14.3676C34.9271 13.9292 34.8021 13.4906 34.6779 13.0518C34.2564 11.6134 33.7177 10.3161 33 9C31.3986 10.5097 30.8703 13.1901 30.3533 15.2616C30.2472 15.6776 30.125 16.0893 30 16.5C29.7879 16.6061 29.7879 16.6061 29.5714 16.7143C29.0637 14.28 28.9634 11.8887 29.3571 9.42857C27.9149 10.786 26.9414 12.2083 26.1596 14.0324C25.9558 14.508 25.7365 14.9686 25.5 15.4286C25.4293 15.4286 25.3586 15.4286 25.2857 15.4286C25.1337 12.608 25.492 10.6879 26.7857 8.14286C24.9003 9.37797 22.945 10.7734 21.6429 12.6429C21.5014 12.5721 21.36 12.5014 21.2143 12.4286C21.9375 9.67618 22.9422 7.69633 25.2857 6C25.9129 5.66265 26.5444 5.38358 27.2143 5.14286C24.9893 4.94059 22.91 6.04036 21 7.07143C21.6209 5.31225 22.9228 4.33885 24.5223 3.45536C26.2267 2.64295 27.9178 2.46795 29.7857 2.35714C29.2554 1.93286 29.2554 1.93286 28.7143 1.5C28.9286 1.28571 28.9286 1.28571 29.5982 1.23214C30.544 1.29316 31.0865 1.51613 31.9286 1.92857C32.1407 1.29214 32.3529 0.655714 32.5714 0Z" fill="#006530"/>
<path d="M162.884 19.9017C165.734 20.021 165.734 20.021 168.643 20.1427C168.643 25.3756 168.643 30.6085 168.643 35.9999C167.299 35.9999 165.955 35.9999 164.571 35.9999C164.5 34.8685 164.43 33.737 164.357 32.5713C164.204 32.8188 164.051 33.0663 163.893 33.3213C162.997 34.5507 162.031 35.7639 160.47 36.098C157.938 36.4214 155.321 36.1989 152.785 35.9999C152.686 34.362 152.62 32.725 152.574 31.0848C152.554 30.5289 152.528 29.9731 152.494 29.4178C152.341 26.8201 152.214 24.3598 153.865 22.2054C156.411 19.4705 159.388 19.6941 162.884 19.9017ZM156.857 24.2142C156.857 26.7599 156.857 29.3056 156.857 31.9285C159.403 31.9285 161.948 31.9285 164.571 31.9285C164.571 29.3827 164.571 26.837 164.571 24.2142C162.025 24.2142 159.48 24.2142 156.857 24.2142Z" fill="#006630"/>
<path d="M102.027 19.9017C104.878 20.021 104.878 20.021 107.786 20.1427C107.786 25.3756 107.786 30.6085 107.786 35.9999C106.443 35.9999 105.099 35.9999 103.715 35.9999C103.644 34.8685 103.573 33.737 103.5 32.5713C103.347 32.8188 103.194 33.0663 103.037 33.3213C102.14 34.5507 101.174 35.7639 99.6134 36.098C97.0811 36.4214 94.4646 36.1989 91.929 35.9999C91.83 34.362 91.7632 32.725 91.7171 31.0848C91.6979 30.5289 91.6717 29.9731 91.638 29.4178C91.4846 26.8201 91.3571 24.3598 93.0086 22.2054C95.5546 19.4705 98.5312 19.6941 102.027 19.9017ZM96.0004 24.2142C96.0004 26.7599 96.0004 29.3056 96.0004 31.9285C98.5461 31.9285 101.092 31.9285 103.715 31.9285C103.715 29.3827 103.715 26.837 103.715 24.2142C101.169 24.2142 98.6233 24.2142 96.0004 24.2142Z" fill="#006631"/>
<path d="M110.143 20.1431C111.486 20.1431 112.83 20.1431 114.214 20.1431C114.214 24.0324 114.214 27.9216 114.214 31.9288C116.76 31.9288 119.305 31.9288 121.928 31.9288C121.928 28.0395 121.928 24.1502 121.928 20.1431C123.272 20.1431 124.615 20.1431 126 20.1431C126.096 21.7813 126.166 23.4178 126.212 25.0581C126.231 25.6141 126.257 26.1699 126.291 26.7251C126.444 29.3229 126.572 31.7832 124.92 33.9376C123.462 35.5037 122.054 36.1872 119.921 36.3557C118.57 36.3924 117.253 36.3215 115.902 36.2413C113.051 36.122 113.051 36.122 110.143 36.0002C110.143 30.7674 110.143 25.5345 110.143 20.1431Z" fill="#006530"/>
<path d="M146.357 20.1431C147.701 20.1431 149.045 20.1431 150.429 20.1431C150.429 25.3759 150.429 30.6088 150.429 36.0002C149.086 36.0002 147.742 36.0002 146.357 36.0002C146.357 30.7674 146.357 25.5345 146.357 20.1431Z" fill="#006630"/>
<path d="M146.357 12.2144C147.701 12.2144 149.045 12.2144 150.429 12.2144C150.429 13.5579 150.429 14.9015 150.429 16.2858C149.086 16.2858 147.742 16.2858 146.357 16.2858C146.357 14.9422 146.357 13.5986 146.357 12.2144Z" fill="#006530"/>
</g>
<defs>
<clipPath id="clip0_13_5262">
<rect width="168.643" height="48" fill="white"/>
</clipPath>
</defs>
</svg>
