<svg width="266" height="48" viewBox="0 0 266 48" fill="none" xmlns="http://www.w3.org/2000/svg">
<path fill-rule="evenodd" clip-rule="evenodd" d="M1.49072 47.3383L0.953125 43.4503H1.75352C2.19152 45.3019 3.51272 46.7107 5.51552 46.7107C7.01432 46.7107 8.51912 45.8467 8.51912 44.1679C8.51912 40.9903 1.09592 39.9451 1.09592 35.7727C1.09592 33.7171 2.97392 32.2339 5.39912 32.2339C6.57872 32.2339 7.01672 32.4235 8.03792 32.7295C8.20832 32.7799 8.36552 32.8111 8.54432 32.8111C8.73512 32.8111 8.76512 32.7163 8.86712 32.5807H9.49352L9.93632 35.8915H9.20312C8.61152 34.3711 7.33352 33.1615 5.60672 33.1615C4.15112 33.1615 3.20312 33.9859 3.20312 35.1499C3.20312 38.2759 10.6275 39.1903 10.6275 43.5667C10.6275 45.9655 8.49992 47.7079 5.72312 47.7079C5.06192 47.7079 4.31912 47.5459 3.71312 47.3899L2.91992 47.1739L2.64752 47.1055C2.56952 47.0887 2.52632 47.0827 2.50832 47.0827C2.32232 47.0827 2.23712 47.2015 2.14592 47.3383H1.49072Z" fill="#141414"/>
<path fill-rule="evenodd" clip-rule="evenodd" d="M15.9797 39.5642H19.4441L17.6813 34.8986L15.9797 39.5642ZM21.4817 45.0446L19.9769 40.955H15.4493C14.9417 42.329 14.3669 43.811 13.8617 45.2342C13.7645 45.5078 13.7021 45.731 13.7021 45.8558C13.7021 46.2734 14.0681 46.5254 15.3893 46.5254H15.9449V47.3378H10.2305V46.529C12.0449 46.5002 12.0977 46.1042 12.7385 44.3582L16.9241 32.9318L16.6373 32.2334H19.0565L23.9345 45.1886C24.3677 46.3346 24.7781 46.5254 25.8653 46.5254H26.0525V47.3378H19.3193V46.5254H20.1065C21.4877 46.5254 21.7241 46.361 21.7241 45.9254C21.7241 45.6134 21.5957 45.3266 21.4817 45.0446Z" fill="#141414"/>
<path fill-rule="evenodd" clip-rule="evenodd" d="M42.4672 34.4089V47.4997H41.6008L29.8864 35.2441V44.6989C29.8864 46.2385 30.148 46.5253 32.0368 46.5253H32.2228V47.3377H26.4844V46.5253H26.7628C28.1212 46.5253 28.4728 46.0981 28.4728 45.1621V33.8833C27.8572 33.4837 27.2512 33.4081 26.53 33.3877V32.5801H30.4264L41.0536 43.6573V34.9177C41.0536 33.2785 40.2196 33.4237 38.7868 33.3877V32.5801H44.572V33.3925H44.3848C42.6604 33.3925 42.4672 33.6829 42.4672 34.4089Z" fill="#141414"/>
<path fill-rule="evenodd" clip-rule="evenodd" d="M49.2795 39.5642H52.7439L50.9811 34.8986L49.2795 39.5642ZM54.7815 45.0446L53.2767 40.955H48.7503C48.2415 42.329 47.6679 43.811 47.1615 45.2342C47.0643 45.5078 47.0019 45.731 47.0019 45.8558C47.0019 46.2734 47.3679 46.5254 48.6891 46.5254H49.2447V47.3378H43.5303V46.529C45.3447 46.5002 45.3975 46.1042 46.0395 44.3582L50.2239 32.9318L49.9371 32.2334H52.3563L57.2343 45.1886C57.6663 46.3346 58.0779 46.5254 59.1651 46.5254H59.3523V47.3378H52.6191V46.5254H53.4063C54.7875 46.5254 55.0239 46.361 55.0239 45.9254C55.0239 45.6134 54.8955 45.3266 54.7815 45.0446Z" fill="#141414"/>
<path fill-rule="evenodd" clip-rule="evenodd" d="M66.4924 39.4053H64.18V44.1453C64.18 45.7821 64.7728 46.3413 66.6316 46.3413C69.5548 46.3413 70.3756 44.5545 70.3756 42.8265C70.3756 41.1489 69.094 39.4053 66.4924 39.4053ZM66.0304 33.1845C65.5732 33.1845 64.7596 33.2229 64.18 33.2469V38.5929H66.5152C68.6728 38.5929 69.6592 37.7613 69.6592 36.0969C69.6592 34.5885 68.7784 33.1845 66.0304 33.1845ZM69.8668 38.8929C71.7784 39.6189 72.9232 41.0001 72.9232 42.7569C72.9232 44.6685 71.584 47.3385 67.7416 47.3385H59.0908V46.5261H59.8084C61.6252 46.5261 61.8892 46.1481 61.8892 44.8149V35.2185C61.8892 33.9417 61.7584 33.3921 60.2944 33.3921H59.2984V32.5869C60.3304 32.5497 61.3612 32.4777 62.392 32.4417C63.6676 32.3961 65.428 32.3721 65.8684 32.3721C67.9036 32.3721 69.7384 32.6697 70.624 33.3093C71.614 34.0101 72.1132 34.8477 72.1132 36.0285C72.1132 37.2861 71.2 38.4417 69.8668 38.8929Z" fill="#141414"/>
<path fill-rule="evenodd" clip-rule="evenodd" d="M93.609 43.5882H94.4298L92.4522 47.3382H81.8154V46.5258H82.7658C83.7246 46.5258 84.0366 46.2642 84.0366 45.1854V34.941C84.0366 33.8142 83.7462 33.393 82.3962 33.393H81.885V32.5806H89.0802V33.393H88.0386C86.5902 33.393 86.3286 33.5142 86.3286 34.8018V45.4626C86.3286 45.9702 86.4858 46.1322 87.0666 46.1322H90.4674C92.1114 46.1322 92.7594 44.7606 93.609 43.5882Z" fill="#141414"/>
<path fill-rule="evenodd" clip-rule="evenodd" d="M103.495 44.8849C103.495 46.1425 103.778 46.5253 105.274 46.5253H105.46V47.3377H99.4688V46.5349C100.953 46.4617 101.203 46.2601 101.203 44.7229V34.8709C101.203 33.5425 100.659 33.4465 99.4688 33.3829V32.5801H105.46V33.3925H105.274C103.898 33.3925 103.495 33.6529 103.495 35.0785V44.8849Z" fill="#141414"/>
<path fill-rule="evenodd" clip-rule="evenodd" d="M78.1969 44.8849C78.1969 46.1425 78.4801 46.5253 79.9765 46.5253H80.1625V47.3377H74.1709V46.5349C75.6553 46.4617 75.9049 46.2601 75.9049 44.7229V34.8709C75.9049 33.5425 75.3613 33.4465 74.1709 33.3829V32.5801H80.1625V33.3925H79.9765C78.6001 33.3925 78.1969 33.6529 78.1969 35.0785V44.8849Z" fill="#141414"/>
<path fill-rule="evenodd" clip-rule="evenodd" d="M122.798 34.4089V47.4997H121.931L110.217 35.2441V44.6989C110.217 46.2385 110.479 46.5253 112.368 46.5253H112.554V47.3377H106.815V46.5253H107.094C108.452 46.5253 108.804 46.0981 108.804 45.1621V33.8833C108.188 33.4837 107.582 33.4081 106.861 33.3877V32.5801H110.759L121.385 43.6573V34.9177C121.385 33.2785 120.549 33.4237 119.118 33.3877V32.5801H124.903V33.3925H124.716C122.991 33.3925 122.798 33.6829 122.798 34.4089Z" fill="#141414"/>
<path fill-rule="evenodd" clip-rule="evenodd" d="M138.584 35.2621L133.773 47.7085H132.363L127.298 35.0797C126.735 33.6613 126.509 33.3925 125.204 33.3925H125.018V32.5801H131.751V33.3889C130.901 33.4081 128.934 33.2653 129.54 34.7305L133.526 44.6521L137.01 35.5441C137.265 34.8925 137.39 34.4617 137.39 34.1773C137.39 33.6877 137.04 33.3925 135.426 33.3925H135.24V32.5801H140.979V33.3925H140.792C139.695 33.3925 139.122 33.8701 138.584 35.2621Z" fill="#141414"/>
<path fill-rule="evenodd" clip-rule="evenodd" d="M151.143 37.3674H151.94V42.1338H151.148C151.014 40.9422 151.004 40.3074 149.742 40.3074H146.019V45.0462C146.019 45.9894 146.311 46.1322 147.083 46.1322H150.644C152.473 46.1322 152.726 45.1038 153.186 43.5186H153.951L153.54 47.3382H140.906V46.5258H141.74C143.493 46.5258 143.729 46.0926 143.729 44.8146V35.055C143.729 33.843 143.492 33.393 142.064 33.393H141.368V32.5806H152.832L153.038 36.1674H152.264C152.123 35.2362 151.981 33.7854 150.714 33.7854H146.019V39.1014H149.973C151.037 39.1014 151.069 38.2266 151.143 37.3674Z" fill="#141414"/>
<path fill-rule="evenodd" clip-rule="evenodd" d="M156.101 47.3383L155.563 43.4503H156.365C156.801 45.3019 158.123 46.7107 160.126 46.7107C161.625 46.7107 163.131 45.8467 163.131 44.1679C163.131 40.9903 155.707 39.9451 155.707 35.7727C155.707 33.7171 157.585 32.2339 160.009 32.2339C161.19 32.2339 161.628 32.4235 162.648 32.7295C162.819 32.7799 162.976 32.8111 163.156 32.8111C163.345 32.8111 163.377 32.7163 163.477 32.5807H164.105L164.548 35.8915H163.813C163.222 34.3711 161.944 33.1615 160.218 33.1615C158.761 33.1615 157.813 33.9859 157.813 35.1499C157.813 38.2759 165.238 39.1903 165.238 43.5667C165.238 45.9655 163.11 47.7079 160.333 47.7079C159.672 47.7079 158.929 47.5459 158.323 47.3899L157.53 47.1739L157.258 47.1055C157.181 47.0887 157.138 47.0827 157.119 47.0827C156.933 47.0827 156.847 47.2015 156.756 47.3383H156.101Z" fill="#141414"/>
<path fill-rule="evenodd" clip-rule="evenodd" d="M178.903 33.7855H175.066V45.0235C175.066 46.1599 175.388 46.5259 176.706 46.5259H177.749V47.3383H170.09V46.5259H171.133C172.451 46.5259 172.774 46.1599 172.774 45.0235V33.7855H168.936C167.645 33.7855 167.546 35.5195 167.405 36.3523H166.626L167.032 32.2339H167.798C167.856 32.5807 168 32.5807 168.358 32.5807H179.48C179.831 32.5807 179.982 32.5795 180.04 32.2339H180.806L181.213 36.3523H180.434C180.292 35.5195 180.193 33.7855 178.903 33.7855Z" fill="#141414"/>
<path fill-rule="evenodd" clip-rule="evenodd" d="M185.778 35.451L185.191 45.2406C185.12 46.4454 186.186 46.4958 187.04 46.533V47.3382H181.858V46.5258H182.044C183.585 46.5258 183.757 46.287 183.87 44.223L184.426 35.211C184.514 33.735 184.56 33.4566 183.037 33.3582V32.5806H186.834L192.29 44.0082L197.722 32.5806H201.426V33.3546C201.1 33.3822 200.398 33.4086 200.114 33.543C199.963 33.6138 199.878 33.723 199.899 34.0746L200.64 44.5686C200.712 45.6642 200.797 46.107 201.008 46.3122C201.214 46.5126 201.579 46.5258 202.464 46.5258H202.651V47.3382H196.335V46.5258H196.521C197.619 46.5258 198.471 46.2246 198.393 45.1962L197.762 35.4618L192.224 47.3382H191.455L185.778 35.451Z" fill="#141414"/>
<path fill-rule="evenodd" clip-rule="evenodd" d="M213.073 37.3674H213.87V42.1338H213.078C212.942 40.9422 212.934 40.3074 211.672 40.3074H207.949V45.0462C207.949 45.9894 208.241 46.1322 209.012 46.1322H212.573C214.402 46.1322 214.655 45.1038 215.116 43.5186H215.88L215.47 47.3382H202.836V46.5258H203.67C205.423 46.5258 205.657 46.0926 205.657 44.8146V35.055C205.657 33.843 205.421 33.393 203.994 33.393H203.298V32.5806H214.762L214.968 36.1674H214.194C214.051 35.2362 213.91 33.7854 212.642 33.7854H207.949V39.1014H211.903C212.965 39.1014 212.999 38.2266 213.073 37.3674Z" fill="#141414"/>
<path fill-rule="evenodd" clip-rule="evenodd" d="M233.179 34.4089V47.4997H232.313L220.599 35.2441V44.6989C220.599 46.2385 220.86 46.5253 222.749 46.5253H222.935V47.3377H217.196V46.5253H217.475C218.833 46.5253 219.185 46.0981 219.185 45.1621V33.8833C218.569 33.4837 217.963 33.4081 217.242 33.3877V32.5801H221.139L231.765 43.6573V34.9177C231.765 33.2785 230.93 33.4237 229.499 33.3877V32.5801H235.284V33.3925H235.097C233.372 33.3925 233.179 33.6829 233.179 34.4089Z" fill="#141414"/>
<path fill-rule="evenodd" clip-rule="evenodd" d="M248.305 33.7855H244.468V45.0235C244.468 46.1599 244.791 46.5259 246.109 46.5259H247.15V47.3383H239.492V46.5259H240.535C241.852 46.5259 242.175 46.1599 242.175 45.0235V33.7855H238.337C237.047 33.7855 236.948 35.5195 236.806 36.3523H236.027L236.434 32.2339H237.2C237.257 32.5807 237.401 32.5807 237.759 32.5807H248.882C249.232 32.5807 249.385 32.5795 249.441 32.2339H250.208L250.616 36.3523H249.836C249.693 35.5195 249.595 33.7855 248.305 33.7855Z" fill="#141414"/>
<path fill-rule="evenodd" clip-rule="evenodd" d="M252.486 47.3383L251.948 43.4503H252.75C253.187 45.3019 254.509 46.7107 256.511 46.7107C258.009 46.7107 259.514 45.8467 259.514 44.1679C259.514 40.9903 252.092 39.9451 252.092 35.7727C252.092 33.7171 253.97 32.2339 256.394 32.2339C257.575 32.2339 258.013 32.4235 259.033 32.7295C259.203 32.7799 259.361 32.8111 259.539 32.8111C259.73 32.8111 259.76 32.7163 259.863 32.5807H260.49L260.933 35.8915H260.198C259.607 34.3711 258.329 33.1615 256.603 33.1615C255.146 33.1615 254.198 33.9859 254.198 35.1499C254.198 38.2759 261.623 39.1903 261.623 43.5667C261.623 45.9655 259.495 47.7079 256.718 47.7079C256.058 47.7079 255.314 47.5459 254.708 47.3899L253.915 47.1739L253.643 47.1055C253.566 47.0887 253.523 47.0827 253.503 47.0827C253.317 47.0827 253.232 47.2015 253.141 47.3383H252.486Z" fill="#141414"/>
<mask id="mask0_13_4988" style="mask-type:luminance" maskUnits="userSpaceOnUse" x="2" y="1" width="262" height="27">
<path d="M2.18555 1.10645H263.088V27.2116H2.18555V1.10645Z" fill="white"/>
</mask>
<g mask="url(#mask0_13_4988)">
<path fill-rule="evenodd" clip-rule="evenodd" d="M49.2783 3.84076C48.4731 3.84076 47.9103 3.22396 47.9103 2.47276C47.9103 1.69636 48.4731 1.10596 49.2783 1.10596C50.0547 1.10596 50.6439 1.69636 50.6439 2.47276C50.6439 3.22396 50.0547 3.84076 49.2783 3.84076ZM47.1039 7.09876C46.2999 7.09876 45.7371 6.48196 45.7371 5.73076C45.7371 4.95436 46.2999 4.36516 47.1039 4.36516C47.8815 4.36516 48.4707 4.95436 48.4707 5.73076C48.4707 6.48196 47.8815 7.09876 47.1039 7.09876ZM62.4255 5.73196C62.4255 4.95556 62.9871 4.36516 63.7923 4.36516C64.5687 4.36516 65.1579 4.95556 65.1579 5.73196C65.1579 6.48196 64.5687 7.09876 63.7923 7.09876C62.9871 7.09876 62.4255 6.48196 62.4255 5.73196ZM59.9331 4.36516C60.7095 4.36516 61.2999 4.95556 61.2999 5.73196C61.2999 6.48196 60.7095 7.09876 59.9331 7.09876C59.1303 7.09876 58.5663 6.48196 58.5663 5.73196C58.5663 4.95556 59.1303 4.36516 59.9331 4.36516ZM119.536 9.29356C121.192 9.44116 121.858 9.49036 123.044 9.49036C124.21 9.49036 124.815 9.44116 126.473 9.29356V10.0868C124.666 10.16 124.394 10.382 124.394 11.7956V15.26C124.394 17.1164 124.071 19.7648 123.206 20.756C122.164 21.9452 121.014 22.5632 119.058 22.5632C117.045 22.5632 115.142 21.9128 114.06 20.6696C112.954 21.9452 111.861 22.5632 109.904 22.5632C107.89 22.5632 105.989 21.914 104.907 20.6732C103.833 21.914 102.279 22.5308 100.392 22.562L67.9431 22.5632C65.8131 22.5632 64.1787 21.8444 63.1371 20.4584C62.9475 20.204 62.7939 19.8332 62.6655 19.3964C62.4939 19.964 62.2755 20.4428 62.0019 20.756C60.9615 21.9452 58.9911 22.5632 57.0351 22.5632C56.8383 22.5632 55.9011 22.5584 55.6803 22.55C53.7999 22.4684 50.4687 22.0304 49.0959 20.9636C48.0207 22.01 46.2375 22.5464 44.4027 22.5464C44.2047 22.5464 41.2611 22.5404 41.0415 22.5308L41.2131 22.5092H39.1059C37.3383 22.5092 36.3195 21.698 35.4087 20.5196C34.6563 22.1012 33.0003 23.3828 30.5367 23.462L30.0927 23.4656C27.6519 23.4656 26.3259 22.2068 25.5243 21.188C24.9087 21.8588 24.1311 22.6316 22.7103 22.6316L21.6243 22.6484H17.2803C16.9083 22.6484 15.2967 22.0292 14.2587 20.84C13.3923 19.8488 13.0695 18.8096 13.0695 16.952V8.28556C13.0695 6.87196 12.7959 6.64996 10.9899 6.57676V5.78356C12.6483 5.93236 13.2927 5.98156 14.4555 5.98156C15.6435 5.98156 16.2159 5.93236 17.8731 5.78356V6.57676C16.0647 6.64996 15.7935 6.87196 15.7935 8.28556V17.3984C15.7935 18.7844 15.9915 19.5512 16.5099 20.1716C17.1795 20.9396 18.1971 21.3356 19.5075 21.3356H21.2043L22.2987 21.3224C22.5387 21.2696 22.9947 21.188 23.3163 20.9216C24.1203 20.144 24.5487 18.536 24.8967 17.1968C25.5411 14.7056 26.4891 12.2396 30.4287 12.2396L30.9987 12.242C34.1331 12.3536 36.0519 15.5516 36.0519 17.9744C36.0519 18.3212 36.0231 18.644 35.9715 18.938C36.4251 20.198 37.3647 21.3224 38.5707 21.3224H40.0671C41.0955 21.3068 43.1079 21.2504 43.2831 21.2504C44.5947 21.2504 46.4091 20.8556 47.0811 20.0864C47.5983 19.4684 47.7963 17.0936 47.7963 15.7064V11.7956C47.7963 10.382 47.5251 10.16 45.7167 10.0868V9.29356C47.3751 9.44116 47.9247 9.49036 49.1091 9.49036C50.2767 9.49036 50.9175 9.44116 52.5771 9.29356V10.0868C50.7675 10.16 50.4975 10.382 50.4975 11.7956V15.26L50.4963 15.4064C50.5251 16.874 50.6811 18.9188 51.0615 19.5428C51.5715 20.456 52.8063 21.062 54.1659 21.2132C54.3891 21.2384 55.6899 21.2504 55.9167 21.2504C57.2307 21.2504 59.0451 20.8556 59.7135 20.0864C60.2343 19.4684 60.4323 17.0936 60.4323 15.7064V11.7956C60.4323 10.382 60.1587 10.16 58.3515 10.0868V9.29356C60.0123 9.44116 60.6147 9.49036 61.8039 9.49036C62.9679 9.49036 63.6111 9.44116 65.2695 9.29356V10.0868C63.4623 10.16 63.1899 10.382 63.1899 11.7956V15.26C63.1899 15.7232 63.1707 16.2344 63.1263 16.7588C63.2055 17.9264 63.3627 19.0964 63.6339 19.5428C64.2279 20.6072 65.6151 21.2504 67.2243 21.2504L99.7431 21.2492C100.977 21.2156 101.936 20.8232 102.572 20.0864C103.094 19.4684 103.293 17.0936 103.293 15.7064V11.7956C103.293 10.382 103.02 10.16 101.212 10.0868V9.29356C102.87 9.44116 103.65 9.49036 104.837 9.49036C106.001 9.49036 106.454 9.44116 108.111 9.29356V10.0868C106.305 10.16 106.032 10.382 106.032 11.7956V15.26C106.032 16.6712 105.848 18.5384 105.376 19.79C106.01 20.7032 107.126 21.2504 108.604 21.2504C109.916 21.2504 111.075 20.8556 111.743 20.0864C112.263 19.4684 112.46 17.0936 112.46 15.7064V11.7956C112.46 10.382 112.188 10.16 110.381 10.0868V9.29356C112.04 9.44116 112.607 9.49036 113.795 9.49036C114.96 9.49036 115.604 9.44116 117.262 9.29356V10.0868C115.452 10.16 115.182 10.382 115.182 11.7956V15.26C115.182 16.67 114.996 18.5336 114.527 19.784C115.158 20.7008 116.277 21.2504 117.759 21.2504C119.069 21.2504 120.23 20.8556 120.898 20.0864C121.418 19.4684 121.616 17.0936 121.616 15.7064V11.7956C121.616 10.382 121.343 10.16 119.536 10.0868V9.29356ZM30.1731 22.5272C31.8591 22.5272 33.3075 20.546 33.3075 18.1076C33.3075 15.5624 32.3691 13.1768 30.4131 13.0964C28.5915 13.0964 28.0539 15.026 27.5199 17.1164L27.4647 17.2784C27.2247 18.188 26.9823 19.1792 26.4747 20.144C26.5287 20.1704 26.5815 20.2496 26.6079 20.3048C27.3051 21.1628 28.5123 22.5272 30.1731 22.5272ZM148.832 5.78356C150.491 5.93236 150.944 5.98156 152.132 5.98156C153.297 5.98156 154.114 5.93236 155.772 5.78356V6.57676C153.965 6.64996 153.692 6.87196 153.692 8.28556V16.952C153.692 18.8096 153.37 19.8488 152.505 20.84C151.497 21.9896 149.961 22.6052 148.09 22.646L147.916 22.6484C145.785 22.6484 143.75 21.9284 142.709 20.5424C142.642 20.4548 142.586 20.3636 142.527 20.2748C142.445 20.6624 142.293 20.9888 142.017 21.2924C141.596 21.7148 141.1 22.0604 140.529 22.2584C139.836 22.5056 138.368 22.6304 137.476 22.6304C137.13 22.6304 127.83 22.6304 127.383 22.58V21.6392C127.566 21.6572 128.703 21.668 130.113 21.6764C131.27 21.548 131.44 21.236 131.44 20.0264V8.25556C131.44 6.84316 131.193 6.61996 129.362 6.54676V5.75356C131.02 5.90236 131.651 5.92756 132.814 5.92756C133.979 5.92756 134.63 5.90236 136.287 5.75356V6.54676C134.454 6.61996 134.206 6.84316 134.206 8.25556V20.0264C134.206 21.2744 134.38 21.5684 135.638 21.6884L136.947 21.6896C138.507 21.6896 139.703 20.8964 139.703 18.6188V8.20996C139.703 6.79756 139.455 6.57556 137.649 6.50116V5.70916C139.282 5.85676 140.027 5.90596 141.192 5.88076C142.382 5.88076 143.026 5.85676 144.684 5.70916V6.50116C142.923 6.57196 142.63 6.79156 142.607 8.06236C142.624 8.13196 142.636 8.20516 142.636 8.28556V16.6292C142.636 18.0908 142.781 18.932 143.204 19.6268C143.8 20.6912 145.587 21.3356 147.197 21.3356C148.51 21.3356 149.525 20.9396 150.192 20.1716C150.716 19.5512 150.914 18.7844 150.914 17.3984V8.28556C150.914 6.87196 150.64 6.64996 148.832 6.57676V5.78356ZM3.17435 9.47236C4.80995 9.62116 5.44595 9.67036 6.61115 9.64516C7.79795 9.64516 8.43515 9.62116 10.0947 9.47236V10.2656C8.26355 10.3388 8.01275 10.562 8.01275 11.9732V21.1148C8.01275 23.0468 7.76795 24.0128 7.02275 24.83C6.60275 25.25 6.10715 25.5968 5.53955 25.796C4.84355 26.0432 4.21715 26.1668 3.32795 26.1668C2.98115 26.1668 2.62955 26.1668 2.18555 26.1164V25.1768C2.70515 25.226 2.82755 25.226 3.12635 25.226C4.68635 25.226 5.22995 24.4328 5.22995 22.154V11.9732C5.22995 10.562 4.98275 10.3388 3.17435 10.2656V9.47236ZM259.692 9.73996C260.858 9.73996 261.429 9.68956 263.088 9.54076V10.334C261.28 10.4084 261.009 10.6304 261.009 12.0428V16.9448C261.009 18.8024 260.686 19.8428 259.819 20.834C258.807 21.9908 257.829 22.6076 255.942 22.6388L255.787 22.6412C253.755 22.6412 251.832 21.9788 250.756 20.7128C249.647 21.9908 248.666 22.6076 246.78 22.6388L246.627 22.6412C244.585 22.6412 242.657 21.9728 241.584 20.6984L241.478 20.834C240.466 21.9908 239.506 22.6076 237.62 22.6388L212.991 22.6412C210.862 22.6412 209.033 21.9224 207.995 20.5352L207.854 20.3336C207.764 20.5112 207.657 20.6876 207.506 20.8592C206.468 22.0472 204.057 22.6664 202.101 22.6664C201.903 22.6664 201.083 22.6616 200.861 22.652C198.71 22.5608 195.63 21.9968 194.508 20.5616C193.767 19.6124 193.542 18.6044 193.542 16.7468V12.824L193.557 8.30356C193.557 6.88996 193.31 6.66916 191.476 6.59596V5.80156C193.137 5.95036 193.649 5.97436 194.816 5.97436C195.98 5.97436 196.74 5.95036 198.401 5.80156V6.59596C196.569 6.66916 196.32 6.88996 196.32 8.30356L196.335 17.3036C196.377 18.3716 196.538 19.064 196.892 19.6448C197.402 20.5604 198.638 21.164 199.996 21.3164C200.219 21.3416 200.675 21.3536 200.902 21.3536C202.214 21.3536 204.029 20.9576 204.698 20.1896C205.217 19.5716 205.415 18.8036 205.415 17.4164V12.068C205.415 10.6556 205.145 10.4324 203.336 10.3592V9.56716C204.995 9.71596 205.658 9.76396 206.846 9.76396C208.008 9.76396 208.54 9.71596 210.2 9.56716V10.3592C208.392 10.4324 208.121 10.6556 208.121 12.068V16.97C208.121 17.7056 208.158 18.3092 208.154 18.836C208.239 19.1252 208.347 19.382 208.492 19.6196C209.086 20.6852 210.471 21.3284 212.081 21.3284L236.392 21.326C237.623 21.2924 238.583 20.9 239.224 20.1644C239.742 19.5452 239.941 18.7772 239.941 17.39V12.0428C239.941 10.6304 239.668 10.4084 237.862 10.334V9.54076C239.52 9.68956 240.125 9.73996 241.313 9.73996C242.476 9.73996 243.088 9.68956 244.745 9.54076V10.334C242.939 10.4084 242.667 10.6304 242.667 12.0428V16.9448C242.667 18.2336 242.506 19.1252 242.121 19.8848C242.764 20.7224 244.045 21.2408 245.398 21.3128C246.565 21.2408 247.785 20.8544 248.384 20.1644C248.906 19.5452 249.102 18.7772 249.102 17.39V12.0428C249.102 10.6304 248.832 10.4084 247.023 10.334V9.54076C248.682 9.68956 249.344 9.73996 250.533 9.73996C251.698 9.73996 252.268 9.68956 253.926 9.54076V10.334C252.119 10.4084 251.848 10.6304 251.848 12.0428V16.9448C251.848 18.2456 251.684 19.1432 251.291 19.9052C251.927 20.7536 253.107 21.2696 254.478 21.3176C255.669 21.2576 256.93 20.8712 257.547 20.1644C258.066 19.5452 258.264 18.7772 258.264 17.39V12.0428C258.264 10.6304 257.991 10.4084 256.184 10.334V9.54076C257.843 9.68956 258.505 9.73996 259.692 9.73996ZM206.804 7.10116C205.998 7.10116 205.437 6.48436 205.437 5.73316C205.437 4.95556 205.998 4.36756 206.804 4.36756C207.58 4.36756 208.169 4.95556 208.169 5.73316C208.169 6.48436 207.58 7.10116 206.804 7.10116ZM162.934 14.5568C162.934 13.1444 162.662 12.9224 160.853 12.8492V12.056C162.042 12.1304 162.514 12.1544 163.332 12.1544C164.172 12.1544 166.56 12.1304 167.802 12.056V12.8492C165.968 12.9224 165.722 13.1444 165.722 14.5568V20.2316C165.722 21.6932 165.868 22.5356 166.29 23.2292C166.865 24.2576 168.364 24.8936 169.914 24.9344L170.482 24.9368C171.792 24.9368 172.808 24.5408 173.475 23.7728C173.996 23.1536 174.195 22.3868 174.195 20.9984V8.30356C174.195 6.88996 173.922 6.66916 172.115 6.59596V5.80156C173.774 5.95036 174.897 5.99956 176.086 5.99956C177.25 5.99956 177.338 5.95036 178.998 5.80156V6.59596C177.189 6.66916 176.918 6.88996 176.918 8.30356V18.5828C177.008 18.9932 177.138 19.3352 177.327 19.6448C177.92 20.7104 179.308 21.3536 180.92 21.3536C181.026 21.3536 182.152 21.3512 182.258 21.3452C183.413 21.2852 184.318 20.8916 184.93 20.1896C185.451 19.5716 185.649 18.8036 185.649 17.4164V12.068C185.649 10.6556 185.375 10.4324 183.569 10.3592V9.56716C185.112 9.70636 185.645 9.76396 186.977 9.76396C188.141 9.76396 188.832 9.71596 190.49 9.56716V10.3592C188.682 10.4324 188.41 10.6556 188.41 12.068V16.97C188.41 18.8276 188.088 19.868 187.223 20.8592C186.267 21.95 184.833 22.5608 183.09 22.6544C182.934 22.6628 181.796 22.6664 181.636 22.6664C179.559 22.6664 177.959 21.9788 176.915 20.66C176.902 22.448 176.579 23.4716 175.727 24.4412C174.688 25.6304 173.078 26.2496 171.123 26.2496L168.771 26.2472C166.698 26.2196 164.918 25.502 163.9 24.146C163.182 23.18 162.934 22.1888 162.934 20.33V14.5568ZM50.0859 5.73076C50.0859 4.95436 50.6475 4.36516 51.4515 4.36516C52.2291 4.36516 52.8171 4.95436 52.8171 5.73076C52.8171 6.48196 52.2291 7.09876 51.4515 7.09876C50.6475 7.09876 50.0859 6.48196 50.0859 5.73076ZM184.389 27.212C183.585 27.212 183.023 26.5952 183.023 25.844C183.023 25.0664 183.585 24.4784 184.389 24.4784C185.164 24.4784 185.754 25.0664 185.754 25.844C185.754 26.5952 185.164 27.212 184.389 27.212Z" fill="#A28B5B"/>
</g>
</svg>
