<svg width="149" height="48" viewBox="0 0 149 48" fill="none" xmlns="http://www.w3.org/2000/svg">
<g clip-path="url(#clip0_13_5021)">
<mask id="mask0_13_5021" style="mask-type:luminance" maskUnits="userSpaceOnUse" x="0" y="0" width="149" height="48">
<path d="M0 0H148.732V47.5511H0V0Z" fill="white"/>
</mask>
<g mask="url(#mask0_13_5021)">
<path d="M63.6486 14.1037H65.6038C65.6871 14.0974 65.7661 14.0646 65.8294 14.0101C65.8927 13.9556 65.9368 13.8822 65.9553 13.8008L66.7964 10.3604H71.0285L71.8688 13.8008C71.8876 13.8822 71.9319 13.9555 71.9952 14.01C72.0586 14.0645 72.1377 14.0973 72.221 14.1037H74.1755C74.2173 14.106 74.2592 14.1 74.2987 14.086C74.3382 14.072 74.3744 14.0503 74.4054 14.0221C74.4364 13.9939 74.4614 13.9598 74.4791 13.9218C74.4967 13.8838 74.5066 13.8427 74.5081 13.8008C74.5061 13.7682 74.5061 13.7354 74.5081 13.7028L71.4584 2.37477C71.283 1.83508 70.9412 1.3648 70.482 1.03141C70.0228 0.698017 69.4698 0.518635 68.9023 0.518998C68.335 0.518986 67.7822 0.698514 67.3231 1.03187C66.8641 1.36522 66.5223 1.8353 66.3468 2.37477L63.3363 13.6832C63.3376 13.7163 63.3376 13.7487 63.3363 13.7812C63.3375 13.8231 63.3471 13.8644 63.3646 13.9025C63.382 13.9406 63.407 13.9748 63.438 14.0031C63.469 14.0313 63.5053 14.0531 63.5449 14.067C63.5844 14.0809 63.6264 14.0867 63.6682 14.0841L63.6486 14.1044V14.1037ZM68.6041 2.93184C68.6629 2.71686 68.7218 2.63911 68.8975 2.63911C69.0733 2.63911 69.1416 2.71686 69.1909 2.93184L70.5201 8.2977H67.2845L68.6041 2.93184ZM76.5309 13.7812C77.7404 14.0793 78.9802 14.2369 80.2255 14.2504C83.1583 14.2504 84.6145 12.5305 84.6145 9.70525V8.31731C84.6145 5.50289 83.1772 3.78232 80.2255 3.78232C79.634 3.78908 79.0431 3.83167 78.4563 3.90942V0.703562C78.4541 0.608452 78.4153 0.517844 78.3481 0.450509C78.2809 0.383175 78.1904 0.344276 78.0953 0.341872H76.4038C76.307 0.342012 76.2141 0.37987 76.1448 0.447405C76.0755 0.51494 76.0353 0.606831 76.0326 0.703562V13.2924C76.0326 13.5561 76.1111 13.6737 76.5309 13.7812ZM78.486 5.86458C79.0726 5.78608 79.6635 5.74363 80.2553 5.73748C81.8285 5.73748 82.2098 6.83201 82.2098 8.31731V9.70525C82.2098 11.1912 81.819 12.2959 80.2553 12.2959C79.6631 12.2996 79.0716 12.2571 78.486 12.1688V5.86458ZM89.8141 14.2308C90.8645 14.2571 91.8946 13.9379 92.7461 13.3222V13.742C92.7465 13.8378 92.7847 13.9296 92.8524 13.9973C92.9202 14.0651 93.012 14.1033 93.1078 14.1037H94.7986C94.8955 14.1037 94.9886 14.0659 95.058 13.9984C95.1275 13.9308 95.1678 13.8388 95.1704 13.742V4.29072C95.17 4.19137 95.1309 4.09608 95.0616 4.02495C94.9922 3.95382 94.8979 3.9124 94.7986 3.90942H93.0686C92.9702 3.91225 92.8769 3.95398 92.8093 4.02545C92.7416 4.09693 92.705 4.19232 92.7076 4.29072V11.513C92.0728 11.8993 91.3629 12.1459 90.6253 12.2364C90.2202 12.2769 89.8148 12.1616 89.4916 11.9139C89.14 11.6111 89.0616 11.0824 89.0616 10.1832V4.31979C89.0655 4.26894 89.0593 4.21781 89.0431 4.16943C89.0269 4.12106 89.0012 4.07642 88.9675 4.03815C88.9338 3.99989 88.8927 3.96878 88.8468 3.94667C88.8008 3.92456 88.7509 3.91189 88.6999 3.90942H86.9793C86.88 3.91206 86.7856 3.9534 86.7163 4.02462C86.6469 4.09585 86.6082 4.19132 86.6082 4.29072V10.1548C86.4701 11.3279 86.8002 12.508 87.5269 13.4391C88.1506 13.9794 88.9614 14.2533 89.785 14.2017M102.775 14.0354C103.975 14.1747 105.182 14.2463 106.391 14.2504C110.076 14.2504 112.167 12.2959 112.167 8.71821V6.05996C112.167 2.48227 110.076 0.527787 106.391 0.527787C105.182 0.531619 103.975 0.603394 102.775 0.742773C102.705 0.746284 102.637 0.764015 102.575 0.794868C102.513 0.825722 102.457 0.869042 102.412 0.922147C102.367 0.975252 102.334 1.03701 102.314 1.10361C102.294 1.1702 102.287 1.24021 102.295 1.30931V13.4682C102.287 13.5373 102.293 13.6074 102.313 13.6741C102.333 13.7408 102.367 13.8026 102.412 13.8556C102.457 13.9089 102.512 13.9523 102.575 13.9833C102.637 14.0142 102.705 14.032 102.775 14.0354ZM104.856 2.69793C105.238 2.69793 105.716 2.63911 106.391 2.63911C108.239 2.63911 109.626 3.35235 109.626 6.05996V8.71821C109.626 11.4258 108.239 12.1296 106.391 12.1296C105.716 12.1296 105.238 12.1296 104.856 12.0802V2.69793ZM114.738 14.1037H116.429C116.528 14.0989 116.621 14.0569 116.69 13.9861C116.759 13.9154 116.798 13.8211 116.8 13.7224V6.42097C117.453 6.05205 118.182 5.84133 118.931 5.80576C120.163 5.80576 120.437 6.20666 120.437 7.76024V13.6838C120.439 13.7823 120.479 13.8761 120.548 13.9467C120.617 14.0172 120.709 14.0592 120.808 14.0645H122.499C122.596 14.0594 122.688 14.0172 122.755 13.9463C122.823 13.8755 122.86 13.7815 122.86 13.6838V7.81906C122.86 5.59077 122.108 3.82153 119.576 3.82153C118.606 3.77005 117.642 4.00088 116.8 4.4861V0.703562C116.798 0.606719 116.758 0.514628 116.688 0.44702C116.619 0.379413 116.526 0.341668 116.429 0.341872H114.738C114.691 0.341783 114.644 0.351077 114.6 0.369222C114.556 0.387367 114.516 0.414006 114.482 0.44761C114.449 0.481213 114.422 0.521121 114.404 0.565044C114.386 0.608966 114.376 0.656039 114.377 0.703562V13.6838C114.376 13.7816 114.414 13.8756 114.481 13.9465C114.549 14.0174 114.641 14.0596 114.738 14.0645M128.031 14.2511C128.951 14.2252 129.847 13.9479 130.621 13.4493V13.742C130.623 13.8371 130.662 13.9276 130.73 13.9949C130.797 14.0622 130.887 14.1011 130.983 14.1037H132.546C132.643 14.1037 132.736 14.0659 132.806 13.9984C132.875 13.9308 132.915 13.8388 132.918 13.742V7.23359C132.918 4.91675 131.481 3.783 128.871 3.783C127.842 3.783 126.815 3.87765 125.803 4.06694C125.568 4.12508 125.45 4.25218 125.45 4.44756V5.61038C125.45 5.86525 125.597 5.91393 125.783 5.91393H125.88C126.487 5.84565 127.698 5.76722 128.871 5.76722C130.044 5.76722 130.494 6.06063 130.494 7.23359V8.03472H129.331C126.135 8.03472 124.845 9.10018 124.845 11.1527V11.2311C124.845 13.6744 126.506 14.2511 128.031 14.2511ZM127.288 11.152C127.288 10.1744 127.66 9.61736 129.331 9.61736H130.494V11.8456C129.917 12.1609 129.274 12.3351 128.617 12.354C127.698 12.354 127.288 12.1194 127.288 11.2304V11.152ZM135.85 13.7812C137.06 14.0787 138.299 14.2355 139.545 14.2504C142.477 14.2504 143.933 12.5305 143.933 9.70525V8.31731C143.933 5.50289 142.507 3.78232 139.545 3.78232C138.963 3.78973 138.382 3.83218 137.805 3.90942V0.703562C137.802 0.606882 137.762 0.515186 137.692 0.447739C137.623 0.380292 137.53 0.342345 137.433 0.341872H135.743C135.646 0.341668 135.553 0.379413 135.483 0.44702C135.414 0.514628 135.374 0.606719 135.371 0.703562V13.2924C135.371 13.5561 135.449 13.6737 135.87 13.7812H135.85ZM137.805 5.86458C138.388 5.78574 138.976 5.74329 139.564 5.73748C141.148 5.73748 141.519 6.83201 141.519 8.31731V9.70525C141.519 11.1912 141.138 12.2959 139.564 12.2959C138.976 12.3 138.387 12.2575 137.805 12.1688V5.86458ZM146.318 2.55055H148.097C148.145 2.55212 148.193 2.54389 148.238 2.52634C148.284 2.5088 148.325 2.48231 148.359 2.44846C148.394 2.41454 148.421 2.37414 148.44 2.32959C148.459 2.28504 148.468 2.23721 148.469 2.18886V0.596069C148.466 0.499389 148.425 0.407693 148.356 0.340246C148.286 0.272799 148.194 0.234852 148.097 0.234379H146.318C146.219 0.233945 146.124 0.271047 146.051 0.338185C145.979 0.405324 145.935 0.497493 145.927 0.596069V2.18886C145.932 2.28833 145.976 2.38196 146.049 2.4496C146.122 2.51725 146.219 2.5535 146.318 2.55055ZM148.048 3.90942H146.357C146.285 3.90704 146.213 3.92693 146.151 3.96643C146.09 4.00593 146.042 4.06316 146.015 4.13049C145.996 4.17493 145.986 4.22276 145.986 4.27111V13.6832C145.988 13.7817 146.028 13.8757 146.097 13.9462C146.166 14.0167 146.259 14.0587 146.357 14.0638H148.048C148.146 14.0589 148.238 14.0167 148.305 13.9458C148.373 13.875 148.41 13.7809 148.41 13.6832V4.27111C148.41 4.22354 148.401 4.17638 148.383 4.13238C148.365 4.08838 148.338 4.0484 148.305 4.01476C148.271 3.98112 148.231 3.95449 148.187 3.93641C148.143 3.91832 148.096 3.90915 148.048 3.90942ZM65.476 23.682L66.4543 24.279C68.1349 25.3147 68.5751 25.6176 68.5751 26.5073C68.5751 27.3963 68.2817 28.4618 66.0628 28.4618C65.3245 28.4536 64.5871 28.4046 63.8542 28.3151H63.8149C63.7442 28.3078 63.6727 28.3161 63.6055 28.3393C63.5383 28.3626 63.477 28.4002 63.4258 28.4495C63.3747 28.4989 63.3349 28.5589 63.3092 28.6252C63.2836 28.6915 63.2728 28.7626 63.2775 28.8336V28.8917C63.2775 29.3609 63.7075 29.4299 63.9028 29.4589C64.6343 29.5656 65.373 29.6146 66.1122 29.6056C69.1909 29.6056 69.8359 27.9439 69.8359 26.5465C69.8359 25.1484 68.7995 24.2783 67.0891 23.2717L66.1122 22.695C64.7242 21.8648 64.2253 21.4145 64.2253 20.5654C64.2253 19.959 64.489 19.1673 66.7659 19.1673C67.392 19.1673 68.6528 19.2755 68.7211 19.285H68.8969C68.9691 19.2949 69.0427 19.2891 69.1126 19.268C69.1824 19.2469 69.2469 19.2111 69.3016 19.1628C69.3563 19.1146 69.4 19.0551 69.4297 18.9884C69.4594 18.9218 69.4743 18.8495 69.4735 18.7766V18.7083C69.4735 18.2094 69.0044 18.1702 68.838 18.1512C68.1403 18.0708 67.4391 18.025 66.7369 18.014C64.3132 18.014 62.9834 18.9131 62.9834 20.556C62.9834 22.1974 63.961 22.8329 65.4469 23.7125M77.088 25.8035V24.8259C77.088 22.3529 75.9644 20.9947 73.9017 20.9947C73.0411 21.015 72.1839 21.113 71.3408 21.2875C71.2146 21.3024 71.0992 21.3659 71.019 21.4644C70.9387 21.563 70.8999 21.6888 70.9108 21.8155V31.8049C70.9089 31.9447 70.9621 32.0798 71.0589 32.1807C71.107 32.2307 71.1645 32.2707 71.228 32.2984C71.2916 32.3262 71.36 32.3411 71.4294 32.3423H71.5754C71.6448 32.3412 71.7132 32.3264 71.7769 32.2987C71.8405 32.2711 71.898 32.2311 71.9462 32.1812C71.9944 32.1313 72.0322 32.0723 72.0576 32.0078C72.0829 31.9432 72.0953 31.8742 72.0939 31.8049V29.4103C72.6916 29.5083 73.296 29.561 73.9017 29.5664C75.3579 29.5664 77.088 28.9215 77.088 25.8035ZM73.9017 28.4719C73.2968 28.4754 72.6924 28.4329 72.0939 28.3448V22.2556C72.6927 22.1673 73.2966 22.1183 73.9017 22.1089C75.3093 22.1089 75.8569 22.9201 75.8569 24.8354V25.813C75.8569 27.7093 75.2802 28.4814 73.9017 28.4814M81.5357 29.5664C83.6856 29.5664 84.8782 28.2278 84.8782 25.8035V24.8259C84.8782 22.3921 83.6856 21.0535 81.5357 21.0535C79.3852 21.0535 78.1832 22.3435 78.1832 24.7773V25.7548C78.1832 28.1785 79.3656 29.5178 81.5161 29.5178L81.5357 29.5664ZM81.5161 22.0602C82.992 22.0602 83.6761 22.9005 83.6761 24.7286V25.7055C83.6761 27.5241 82.992 28.3739 81.5161 28.3739C80.0403 28.3739 79.3656 27.5234 79.3656 25.7055V24.7279C79.3656 22.9005 80.0498 22.0602 81.5161 22.0602ZM89.9121 21.6106V21.5024C89.9121 21.3172 89.8242 21.0143 89.2475 21.0143C88.6054 21.0107 87.9741 21.1795 87.4195 21.5031C87.3929 21.3858 87.3271 21.2811 87.2329 21.2064C87.1388 21.1316 87.0219 21.0913 86.9016 21.0921H86.784C86.7117 21.092 86.6402 21.1065 86.5737 21.1348C86.5071 21.163 86.447 21.2044 86.3968 21.2564C86.3466 21.3084 86.3075 21.3699 86.2816 21.4374C86.2558 21.5049 86.2439 21.5769 86.2465 21.6491V28.9506C86.2495 29.0939 86.3085 29.2304 86.4108 29.3308C86.5131 29.4313 86.6507 29.4877 86.7941 29.488H86.8915C87.034 29.488 87.1707 29.4314 87.2715 29.3306C87.3723 29.2298 87.4289 29.0931 87.4289 28.9506V22.6659C87.9696 22.3107 88.6006 22.1174 89.2475 22.1089C89.8242 22.1089 89.9121 21.7958 89.9121 21.6106ZM95.6295 29.029V28.9411C95.6295 28.8329 95.6295 28.4719 95.0528 28.4719H94.3396C93.7724 28.4719 93.577 28.4131 93.577 27.7188V22.2062H95.092C95.1607 22.2116 95.2297 22.2028 95.2948 22.1802C95.3598 22.1576 95.4195 22.1217 95.47 22.0749C95.5205 22.0281 95.5607 21.9713 95.5882 21.9081C95.6156 21.845 95.6297 21.7768 95.6295 21.708V21.5613C95.6291 21.4935 95.6143 21.4265 95.5861 21.3649C95.5579 21.3032 95.5169 21.2483 95.4659 21.2036C95.4156 21.1583 95.3563 21.124 95.2919 21.103C95.2275 21.0821 95.1594 21.0749 95.092 21.0819H93.577V19.8312C93.5807 19.7629 93.5707 19.6946 93.5474 19.6303C93.5242 19.566 93.4883 19.507 93.4418 19.4568C93.3953 19.4067 93.3392 19.3664 93.2769 19.3384C93.2145 19.3104 93.1471 19.2952 93.0787 19.2938H92.9124C92.8428 19.2939 92.7739 19.308 92.7098 19.3354C92.6458 19.3627 92.5879 19.4026 92.5396 19.4527C92.4912 19.5029 92.4535 19.5622 92.4286 19.6272C92.4037 19.6923 92.3921 19.7616 92.3946 19.8312V21.0819H91.1824C91.1142 21.0735 91.045 21.0797 90.9793 21.0999C90.9136 21.1201 90.853 21.154 90.8014 21.1994C90.7497 21.2447 90.7082 21.3004 90.6796 21.3629C90.6511 21.4254 90.636 21.4932 90.6355 21.5619V21.708C90.6362 21.7774 90.6513 21.8459 90.6798 21.9092C90.7083 21.9725 90.7496 22.0292 90.8011 22.0757C90.8525 22.1222 90.9128 22.1577 90.9783 22.1801C91.0439 22.2026 91.1133 22.2114 91.1824 22.2062H92.3946V27.7188C92.3946 29.3616 93.4303 29.5664 94.349 29.5664C94.6195 29.5827 94.8906 29.5827 95.1603 29.5664C95.2249 29.5667 95.2889 29.5538 95.3484 29.5286C95.408 29.5034 95.4617 29.4664 95.5065 29.4198C95.5513 29.3733 95.5862 29.3181 95.6091 29.2576C95.632 29.1972 95.6424 29.1328 95.6396 29.0682M96.9884 29.3224C97.7211 29.4512 98.4632 29.5197 99.2072 29.5272C101.035 29.5272 102.041 28.716 102.041 27.2307C102.041 26.0678 101.201 25.5202 100.018 24.8746L99.0409 24.327C98.1613 23.8389 97.7408 23.5259 97.7408 23.0371C97.7408 22.3137 98.093 22.0602 99.1578 22.0602C99.7825 22.0717 100.406 22.117 101.025 22.1967H101.348C101.484 22.1967 101.807 22.1481 101.807 21.6884V21.5714C101.807 21.1414 101.446 21.0921 101.26 21.063H101.172C100.485 20.9737 99.7925 20.9312 99.0997 20.9359C97.4772 20.9359 96.5584 21.6884 96.5584 23.008C96.5584 24.3277 97.3987 24.7279 98.5129 25.3242L99.4904 25.8326C100.722 26.4971 100.927 26.7615 100.927 27.2009C100.927 28.071 100.477 28.4036 99.3045 28.4036C98.5829 28.3809 97.8642 28.3025 97.1547 28.169C97.0812 28.1458 97.0033 28.1402 96.9273 28.1528C96.8513 28.1655 96.7793 28.1959 96.7174 28.2417C96.6554 28.2874 96.6051 28.3472 96.5707 28.4161C96.5362 28.4851 96.5186 28.5612 96.5192 28.6382V28.7937C96.5192 29.1757 96.8511 29.244 97.0566 29.2926M113.37 28.9113V28.7356C113.373 28.6743 113.363 28.613 113.34 28.5561C113.318 28.4992 113.282 28.4481 113.237 28.4063C113.193 28.3645 113.139 28.3329 113.081 28.3139C113.023 28.2949 112.961 28.2888 112.901 28.2961H112.793C112.294 28.3543 111.171 28.4327 110.242 28.4327C108.454 28.4327 107.505 27.1522 107.505 24.7482V22.793C107.505 20.3788 108.483 19.1085 110.242 19.1085C111.219 19.1085 112.294 19.1863 112.803 19.2349C113.311 19.2843 113.37 19.0396 113.37 18.805V18.6292C113.362 18.4942 113.305 18.3666 113.21 18.2711C113.114 18.1755 112.986 18.1186 112.851 18.1113H112.783C111.94 18.0093 111.091 17.9603 110.242 17.9646C108.776 17.9646 106.332 18.59 106.332 22.793V24.7475C106.332 28.9411 108.786 29.5664 110.242 29.5664C111.091 29.5724 111.94 29.5267 112.783 29.4299H112.851C112.985 29.4231 113.111 29.3677 113.207 29.274C113.303 29.1803 113.36 29.0549 113.37 28.9215M120.964 24.7773C120.964 22.3435 119.782 21.0049 117.631 21.0049C115.481 21.0049 114.347 22.3435 114.347 24.7773V25.7548C114.347 28.1785 115.53 29.5178 117.68 29.5178C119.83 29.5178 121.013 28.1785 121.013 25.7548L120.964 24.7773ZM117.631 28.4719C116.165 28.4719 115.481 27.6214 115.481 25.8035V24.8259C115.481 23.008 116.165 22.1575 117.631 22.1575C119.097 22.1575 119.782 23.008 119.782 24.8259V25.8035C119.782 27.6214 119.097 28.4719 117.631 28.4719ZM127.865 29.4785H128.031C128.138 29.4782 128.242 29.4456 128.33 29.385C128.418 29.3245 128.486 29.2388 128.524 29.1392C128.55 29.0728 128.561 29.002 128.559 28.9309V21.6201C128.556 21.4767 128.497 21.3402 128.395 21.2398C128.292 21.1393 128.155 21.0829 128.011 21.0826H127.923C127.78 21.0822 127.642 21.1384 127.539 21.239C127.437 21.3396 127.378 21.4765 127.376 21.6201V27.9439C126.719 28.2497 126.008 28.4225 125.284 28.4523C124.112 28.4523 123.535 27.8168 123.535 26.4971V21.6106C123.535 21.4696 123.48 21.3343 123.381 21.2336C123.282 21.133 123.148 21.0751 123.007 21.0725H122.9C122.756 21.073 122.619 21.1295 122.516 21.2301C122.414 21.3306 122.355 21.4672 122.352 21.6106V26.4971C122.301 26.9005 122.341 27.3102 122.468 27.6963C122.596 28.0824 122.808 28.4351 123.089 28.7288C123.369 29.0229 123.712 29.2507 124.092 29.3956C124.472 29.5405 124.879 29.5989 125.284 29.5664C126.027 29.5484 126.761 29.3892 127.445 29.0973C127.475 29.2109 127.542 29.3111 127.636 29.382C127.73 29.4528 127.845 29.4901 127.963 29.488M130.719 21.0826H130.601C130.529 21.0827 130.458 21.0974 130.393 21.1258C130.327 21.1542 130.267 21.1957 130.218 21.2478C130.169 21.3 130.13 21.3616 130.106 21.4289C130.081 21.4963 130.07 21.568 130.074 21.6397V28.9411C130.076 29.0845 130.135 29.2212 130.237 29.3217C130.34 29.4222 130.477 29.4786 130.621 29.4785H130.709C130.852 29.4786 130.99 29.4223 131.092 29.3218C131.195 29.2212 131.254 29.0846 131.256 28.9411V22.6173C131.911 22.3057 132.623 22.1326 133.348 22.1089C134.521 22.1089 135.098 22.7538 135.098 24.0633V28.9512C135.098 29.0919 135.153 29.2268 135.252 29.3271C135.35 29.4274 135.484 29.4852 135.625 29.488H135.733C135.805 29.4894 135.876 29.4765 135.942 29.45C136.008 29.4236 136.069 29.3842 136.12 29.3342C136.17 29.2841 136.211 29.2244 136.238 29.1585C136.266 29.0927 136.28 29.022 136.28 28.9506V24.0633C136.28 22.1089 135.225 20.994 133.348 20.994C132.608 21.0135 131.878 21.173 131.197 21.4639C131.167 21.3502 131.1 21.25 131.006 21.1791C130.912 21.1081 130.797 21.0706 130.68 21.0725M140.835 22.1089C141.413 22.1149 141.991 22.1575 142.565 22.236C142.637 22.2578 142.714 22.2621 142.788 22.2487C142.862 22.2352 142.932 22.2044 142.992 22.1586C143.053 22.1128 143.101 22.0534 143.134 21.9853C143.166 21.9172 143.182 21.8423 143.181 21.7668V21.6687C143.181 21.3659 143.014 21.1901 142.663 21.1414C142.056 21.0621 141.446 21.0162 140.835 21.0042C138.792 21.0042 137.619 22.3827 137.619 24.7766V25.7548C137.619 28.1494 138.821 29.5664 140.835 29.5664C141.275 29.5664 141.949 29.5178 142.672 29.4393C143.014 29.3907 143.181 29.2149 143.181 28.912V28.8038C143.18 28.7413 143.166 28.6797 143.141 28.6225C143.115 28.5654 143.079 28.5139 143.033 28.4712C142.987 28.4287 142.934 28.3956 142.875 28.3739C142.817 28.3522 142.754 28.3423 142.692 28.3448H142.584C142.008 28.4234 141.427 28.4659 140.845 28.4719C139.457 28.4719 138.812 27.6113 138.812 25.7542V24.7773C138.812 22.9492 139.457 22.1089 140.845 22.1089M145.048 29.5664H145.145C145.289 29.5659 145.426 29.5095 145.528 29.4091C145.631 29.3087 145.69 29.1723 145.693 29.029V21.6201C145.69 21.4767 145.631 21.3402 145.529 21.2398C145.426 21.1393 145.289 21.0829 145.145 21.0826H145.048C144.905 21.0826 144.768 21.1392 144.668 21.24C144.567 21.3408 144.51 21.4775 144.51 21.6201V29.029C144.51 29.1716 144.567 29.3083 144.668 29.4091C144.768 29.5098 144.905 29.5664 145.048 29.5664ZM145.048 20.1537H145.145C145.289 20.1532 145.426 20.0967 145.528 19.9963C145.631 19.8959 145.69 19.7595 145.693 19.6162V18.5711C145.691 18.4265 145.632 18.2884 145.53 18.1862C145.428 18.0839 145.29 18.0255 145.145 18.0235H145.048C144.904 18.0259 144.767 18.0847 144.667 18.1871C144.566 18.2896 144.51 18.4274 144.51 18.5711V19.6561C144.51 19.7987 144.567 19.9354 144.668 20.0362C144.768 20.137 144.905 20.1936 145.048 20.1936M148.215 18.0627H148.068C147.938 18.0718 147.816 18.1288 147.726 18.2225C147.636 18.3163 147.583 18.4403 147.579 18.5704V29.029C147.576 29.0986 147.588 29.1681 147.612 29.2331C147.637 29.2982 147.675 29.3576 147.724 29.4076C147.772 29.4577 147.83 29.4977 147.894 29.5249C147.958 29.5522 148.027 29.5664 148.097 29.5664H148.244C148.383 29.5636 148.516 29.5054 148.614 29.4047C148.711 29.3039 148.764 29.1688 148.761 29.029V18.5704C148.764 18.4306 148.711 18.2956 148.614 18.1945C148.566 18.1445 148.509 18.1044 148.445 18.0767C148.381 18.049 148.313 18.0341 148.244 18.0329M66.8937 43.7095C66.8273 43.6553 66.7448 43.6244 66.6591 43.6217H66.2873C66.2018 43.6246 66.1196 43.6554 66.0534 43.7095C66.0146 43.7413 65.9837 43.7817 65.9633 43.8274C65.9429 43.8732 65.9335 43.9231 65.9357 43.9732V44.4424C65.9364 44.4893 65.9473 44.5354 65.9676 44.5777C65.9879 44.62 66.0172 44.6573 66.0534 44.6871C66.1183 44.7439 66.2021 44.775 66.288 44.775H66.6598C66.7259 44.7737 66.7904 44.7547 66.8467 44.7201C66.903 44.6856 66.9491 44.6366 66.9802 44.5783C67.0006 44.5361 67.0112 44.4899 67.0113 44.4431V43.9833C67.0136 43.9333 67.0041 43.8834 66.9837 43.8376C66.9633 43.7918 66.9325 43.7515 66.8937 43.7197M65.3692 43.7095C65.3044 43.6524 65.2209 43.6211 65.1346 43.6217H64.7831C64.691 43.6236 64.6019 43.6543 64.5282 43.7095C64.4935 43.744 64.4662 43.7851 64.4478 43.8304C64.4295 43.8758 64.4205 43.9243 64.4214 43.9732V44.4424C64.4234 44.535 64.4619 44.6229 64.5282 44.6871C64.5994 44.7463 64.6898 44.7776 64.7824 44.775H65.1339C65.2199 44.7723 65.3025 44.7414 65.3692 44.6871C65.4088 44.6598 65.4411 44.6232 65.4632 44.5806C65.4854 44.5379 65.4967 44.4905 65.4963 44.4424V43.9827C65.4991 43.9316 65.4889 43.8806 65.4667 43.8345C65.4445 43.7884 65.4109 43.7486 65.3692 43.719M75.143 35.0303C75.0523 35.031 74.9651 35.0657 74.8989 35.1277C74.8608 35.1601 74.8305 35.2005 74.8102 35.2462C74.7898 35.2918 74.7799 35.3414 74.7813 35.3913V35.8997C74.7789 35.9461 74.7875 35.9923 74.8061 36.0348C74.8248 36.0773 74.8531 36.1148 74.8888 36.1445C74.9225 36.1769 74.9623 36.2023 75.006 36.2191C75.0496 36.2359 75.0962 36.2439 75.143 36.2425H75.5344C75.5827 36.2452 75.6311 36.2379 75.6764 36.221C75.7218 36.2041 75.7632 36.1781 75.798 36.1445C75.8321 36.1136 75.8593 36.076 75.8778 36.0339C75.8964 35.9919 75.9058 35.9464 75.9055 35.9004V35.392C75.9054 35.2935 75.8668 35.1989 75.798 35.1283C75.7278 35.0662 75.6376 35.0314 75.5438 35.0303H75.143ZM77.4889 37.6203C77.2475 37.4049 76.9601 37.2476 76.6485 37.1606C76.288 37.0664 75.9165 37.0205 75.5438 37.024H75.1233C74.9327 37.0404 74.7434 37.0698 74.5568 37.1119C74.3504 37.1536 74.1478 37.2124 73.9511 37.2877C73.8324 37.3331 73.7179 37.3887 73.609 37.454V37.3661C73.6092 37.2797 73.5777 37.1962 73.5204 37.1315C73.4593 37.0751 73.3792 37.0437 73.296 37.0436H72.866C72.8217 37.045 72.7782 37.0553 72.7379 37.0737C72.6976 37.0922 72.6614 37.1185 72.6314 37.1511C72.5741 37.2157 72.5428 37.2993 72.5435 37.3857V40.5226H71.2333C71.1306 40.5469 71.0237 40.5469 70.921 40.5226V38.1185C70.9227 38.0756 70.9158 38.0327 70.9007 37.9924C70.8856 37.9521 70.8626 37.9152 70.8331 37.884C70.7821 37.843 70.7213 37.8162 70.6566 37.8062C70.4611 37.7561 70.2616 37.7233 70.0604 37.7082H69.4255C68.8333 37.6744 68.2472 37.8434 67.7638 38.1875C67.5461 38.3823 67.3764 38.6249 67.2679 38.8961C67.1595 39.1674 67.1151 39.46 67.1384 39.7512V42.1262H66.2393C65.8736 42.1404 65.5086 42.084 65.1644 41.9599C64.9373 41.8651 64.7409 41.7095 64.5965 41.5103C64.4626 41.3082 64.3788 41.0776 64.3531 40.8356C64.3127 40.5508 64.2931 40.2634 64.2943 39.9757C64.2859 39.8456 64.2859 39.715 64.2943 39.5849V39.1157C64.3001 39.0688 64.2962 39.0211 64.2827 38.9757C64.2692 38.9303 64.2464 38.8882 64.2158 38.8521C64.1871 38.8253 64.1532 38.8046 64.1163 38.7911C64.0794 38.7776 64.0401 38.7717 64.0009 38.7736H63.6C63.5175 38.7707 63.4371 38.7995 63.3752 38.8541C63.3133 38.9087 63.2747 38.9849 63.2673 39.0671C63.2613 39.1745 63.2613 39.282 63.2673 39.3895V40.2589C63.2644 40.6606 63.3105 41.0611 63.4046 41.4515C63.4884 41.8132 63.6595 42.1492 63.9028 42.4291C64.1665 42.7178 64.5045 42.9273 64.8804 43.0348C65.3401 43.189 65.8228 43.262 66.3069 43.2505H67.1966C67.4629 43.2356 67.7273 43.2032 67.9882 43.1525C68.0739 43.1474 68.1546 43.1105 68.2144 43.0489C68.2743 42.9874 68.3088 42.9056 68.3114 42.8198V39.7215C68.3033 39.5389 68.3296 39.3564 68.3891 39.184C68.4317 39.0677 68.502 38.9636 68.5947 38.8811C68.6934 38.8 68.811 38.7466 68.9368 38.725C69.0997 38.6844 69.2673 38.6641 69.435 38.6662H69.9143V40.4746C69.8965 40.6322 69.9134 40.7918 69.964 40.9422C70.0146 41.0925 70.0976 41.2299 70.2071 41.3447C70.489 41.5502 70.8385 41.6415 71.1846 41.5982H77.6356C77.7637 41.5876 77.8828 41.528 77.9682 41.4319C78.029 41.3652 78.0726 41.2847 78.0953 41.1973C78.1264 41.0918 78.1494 40.9844 78.1636 40.8748C78.1737 40.7511 78.1737 40.6267 78.1636 40.503V39.5849C78.171 39.194 78.1149 38.8045 77.9973 38.4316C77.8945 38.12 77.7125 37.8404 77.4693 37.6203H77.4889ZM77.0197 40.5524H73.609V38.5979C73.7226 38.5154 73.8476 38.4491 73.9801 38.4018C74.1498 38.343 74.3229 38.2936 74.498 38.2558C74.6738 38.2558 74.8401 38.197 74.9969 38.1774H75.3579C75.6277 38.1753 75.8961 38.2017 76.1597 38.2558C76.3511 38.2964 76.5289 38.3829 76.6776 38.51C76.8216 38.6357 76.9298 38.7973 76.9906 38.9792C77.067 39.2388 77.1035 39.5092 77.0981 39.7803V40.3475C77.1062 40.4219 77.1062 40.4976 77.0981 40.572L77.0197 40.5524ZM82.8939 42.1945H82.5519C82.4626 42.1935 82.376 42.2247 82.3078 42.2824C82.2668 42.3127 82.2338 42.3526 82.2117 42.3985C82.1895 42.4445 82.1789 42.4951 82.1807 42.546V43.0544C82.1806 43.1028 82.191 43.1505 82.2112 43.1944C82.2314 43.2383 82.2609 43.2773 82.2977 43.3086C82.3696 43.3678 82.4588 43.4022 82.5519 43.4067H82.8939C82.9414 43.4068 82.9885 43.3973 83.0322 43.3787C83.0758 43.3601 83.1153 43.3328 83.1481 43.2985C83.2147 43.2348 83.2534 43.1473 83.2556 43.0551V42.5467C83.2568 42.4991 83.2478 42.4519 83.2292 42.408C83.2107 42.3642 83.1831 42.3248 83.1481 42.2925C83.115 42.2593 83.0752 42.2335 83.0314 42.2166C82.9876 42.1997 82.9408 42.1922 82.8939 42.1945ZM81.4181 42.1945H81.1152C81.069 42.1944 81.0232 42.2034 80.9805 42.2211C80.9378 42.2387 80.8989 42.2646 80.8662 42.2972C80.8335 42.3299 80.8075 42.3687 80.7898 42.4114C80.7721 42.454 80.763 42.4998 80.763 42.546V43.0544C80.7622 43.0997 80.7705 43.1447 80.7873 43.1867C80.8042 43.2287 80.8292 43.267 80.861 43.2992C80.894 43.3332 80.9335 43.3603 80.9772 43.3787C81.0209 43.3972 81.0678 43.4067 81.1152 43.4067H81.4573C81.5048 43.4068 81.5518 43.3973 81.5955 43.3787C81.6392 43.3601 81.6787 43.3328 81.7115 43.2985C81.7473 43.2686 81.7762 43.2315 81.7964 43.1895C81.8166 43.1475 81.8275 43.1017 81.8285 43.0551V42.5467C81.829 42.4969 81.8186 42.4475 81.798 42.402C81.7783 42.3563 81.7487 42.3155 81.7115 42.2824C81.6402 42.2232 81.5499 42.192 81.4573 42.1945M82.5228 41.5691C82.6093 41.5658 82.6952 41.5489 82.777 41.5205C82.8646 41.4895 82.94 41.4312 82.992 41.3542C83.0346 41.285 83.0643 41.2087 83.0799 41.129C83.0927 40.9242 83.0927 40.7187 83.0799 40.5138V37.865C83.0814 37.8209 83.0738 37.777 83.0576 37.736C83.0414 37.6949 83.017 37.6577 82.9858 37.6265C82.9546 37.5953 82.9173 37.5708 82.8763 37.5547C82.8352 37.5385 82.7913 37.5309 82.7472 37.5324H82.2977C82.2531 37.5323 82.2091 37.5419 82.1686 37.5604C82.1281 37.579 82.0921 37.6061 82.0631 37.6399C82.016 37.7051 81.992 37.784 81.9948 37.8644V40.3374C82.0097 40.3918 82.0097 40.4492 81.9948 40.5037C81.9137 40.5091 81.8318 40.5091 81.7507 40.5037H80.6751C80.6299 40.5107 80.5838 40.5107 80.5386 40.5037C80.5061 40.4789 80.4823 40.4446 80.4703 40.4056C80.4588 40.3279 80.4588 40.2488 80.4703 40.1711V34.6294C80.4695 34.5449 80.442 34.4628 80.3919 34.3948C80.3612 34.3605 80.3236 34.3331 80.2815 34.3146C80.2394 34.296 80.1938 34.2867 80.1478 34.2873H79.6881C79.6438 34.2886 79.6001 34.2987 79.5598 34.3172C79.5195 34.3357 79.4834 34.3621 79.4535 34.3948C79.3946 34.4585 79.3631 34.5427 79.3656 34.6294V40.2982C79.3595 40.5103 79.3892 40.7219 79.4535 40.9242C79.5082 41.0898 79.6056 41.2385 79.7368 41.3542C79.8659 41.463 80.0207 41.5374 80.1863 41.5691C80.3695 41.6111 80.5561 41.6307 80.7441 41.628H82.5424M88.2598 34.2968H87.8007C87.7583 34.2953 87.7161 34.3034 87.6771 34.3204C87.6382 34.3373 87.6035 34.3628 87.5756 34.3948C87.5425 34.4239 87.5166 34.4601 87.4997 34.5008C87.4828 34.5415 87.4755 34.5855 87.4783 34.6294V40.3374C87.4871 40.3925 87.4871 40.4486 87.4783 40.5037C87.3972 40.5145 87.3147 40.5145 87.2335 40.5037H85.8165V37.8738C85.8168 37.7877 85.7855 37.7045 85.7286 37.6399C85.6659 37.5783 85.5819 37.5432 85.494 37.5419H85.0249C84.937 37.5432 84.853 37.5783 84.7903 37.6399C84.7329 37.7045 84.7016 37.7881 84.7024 37.8745V42.2628C84.7206 42.3662 84.7206 42.4724 84.7024 42.5758C84.6897 42.6275 84.6584 42.6728 84.6145 42.7029C84.5534 42.7359 84.4875 42.759 84.4191 42.7712H83.979C83.9381 42.7668 83.8968 42.7712 83.8578 42.784C83.8187 42.7968 83.7829 42.8178 83.7525 42.8455C83.722 42.8734 83.6976 42.9072 83.6809 42.9449C83.6647 42.9827 83.6564 43.0234 83.6565 43.0646V43.4655C83.6564 43.5451 83.6867 43.6218 83.7412 43.6799C83.7958 43.738 83.8704 43.773 83.9499 43.7778H84.2528C84.5131 43.7913 84.774 43.7609 85.0249 43.6899C85.2718 43.6004 85.4771 43.423 85.6015 43.1917C85.684 43.0504 85.7368 42.8942 85.7577 42.732C85.7692 42.5494 85.7692 42.3669 85.7577 42.1844V41.628H87.9373C88.0272 41.6171 88.1158 41.5975 88.2017 41.5691C88.2919 41.5379 88.3681 41.4756 88.4166 41.3934C88.4539 41.3297 88.4802 41.2602 88.4944 41.1878V34.6294C88.4951 34.543 88.4638 34.4594 88.4065 34.3948C88.376 34.3636 88.3395 34.3388 88.2992 34.322C88.2589 34.3052 88.2156 34.2966 88.1719 34.2968M90.6544 34.2873H90.2048C90.1589 34.2872 90.1134 34.2968 90.0714 34.3153C90.0294 34.3338 89.9917 34.3609 89.9608 34.3948C89.9034 34.4556 89.8719 34.5364 89.8729 34.62V41.2859C89.8716 41.3303 89.8792 41.3745 89.8954 41.4159C89.9115 41.4573 89.9357 41.4951 89.9666 41.527C89.9976 41.5589 90.0346 41.5842 90.0755 41.6016C90.1164 41.6189 90.1604 41.6279 90.2048 41.628H90.6544C90.7017 41.6296 90.7486 41.6197 90.7912 41.5992C90.8338 41.5787 90.8709 41.5482 90.8991 41.5103C90.9506 41.4467 90.9783 41.3671 90.9775 41.2852V34.6193C90.975 34.5382 90.9476 34.4599 90.8991 34.3948C90.8683 34.3606 90.8305 34.3332 90.7883 34.3147C90.7461 34.2962 90.7005 34.2868 90.6544 34.2873ZM96.5388 43.7095C96.4704 43.6517 96.3835 43.6205 96.294 43.6217H95.9425C95.8541 43.6256 95.769 43.6562 95.6984 43.7095C95.6601 43.7417 95.6296 43.7821 95.6092 43.8278C95.5888 43.8735 95.5791 43.9232 95.5808 43.9732V44.4424C95.5834 44.5349 95.622 44.6227 95.6883 44.6871C95.7595 44.7463 95.8499 44.7776 95.9425 44.775H96.294C96.3801 44.7738 96.463 44.7428 96.5286 44.6871C96.5686 44.6602 96.6011 44.6237 96.6233 44.5809C96.6455 44.5382 96.6567 44.4905 96.6557 44.4424V43.9827C96.6584 43.9326 96.6492 43.8826 96.6289 43.8368C96.6086 43.791 96.5777 43.7506 96.5388 43.719M98.0538 43.7095C97.9881 43.654 97.9052 43.6229 97.8192 43.6217H97.4575C97.3712 43.6211 97.2877 43.6524 97.223 43.7095C97.1828 43.7406 97.1504 43.7806 97.1283 43.8264C97.1063 43.8722 97.0952 43.9224 97.0959 43.9732V44.4424C97.0964 44.4892 97.1072 44.5354 97.1273 44.5776C97.1475 44.6199 97.1767 44.6573 97.2128 44.6871C97.2824 44.7432 97.3683 44.7743 97.4575 44.775H97.8192C97.9056 44.7754 97.989 44.7442 98.0538 44.6871C98.0904 44.6576 98.1198 44.6204 98.1401 44.578C98.1603 44.5357 98.1708 44.4893 98.1708 44.4424V43.9827C98.1735 43.9326 98.1643 43.8826 98.1439 43.8368C98.1236 43.791 98.0927 43.7506 98.0538 43.719M104.387 42.1945H103.996C103.904 42.1919 103.813 42.2231 103.742 42.2824C103.671 42.3521 103.629 42.4464 103.625 42.546V43.0544C103.631 43.1481 103.673 43.2359 103.742 43.2992C103.775 43.3332 103.815 43.3603 103.858 43.3787C103.902 43.3972 103.949 43.4067 103.996 43.4067H104.387C104.435 43.4068 104.482 43.3973 104.525 43.3787C104.569 43.3601 104.608 43.3328 104.641 43.2985C104.711 43.2357 104.753 43.1484 104.759 43.0551V42.5467C104.758 42.4986 104.747 42.4512 104.726 42.4075C104.706 42.3638 104.677 42.3247 104.641 42.2925C104.573 42.2279 104.481 42.1927 104.387 42.1945ZM109.695 36.2418C109.742 36.2438 109.788 36.2361 109.832 36.2194C109.876 36.2027 109.916 36.1772 109.949 36.1445C109.985 36.115 110.013 36.0775 110.032 36.0352C110.05 35.9928 110.059 35.9466 110.057 35.9004V35.392C110.059 35.3428 110.051 35.2936 110.033 35.248C110.014 35.2024 109.986 35.1615 109.949 35.1283C109.883 35.066 109.795 35.031 109.704 35.0303H109.303C109.21 35.0314 109.12 35.0659 109.049 35.1277C108.977 35.1967 108.935 35.2915 108.932 35.3913V35.8997C108.932 35.9458 108.941 35.9915 108.96 36.0337C108.978 36.0759 109.005 36.1136 109.04 36.1445C109.075 36.1779 109.116 36.2039 109.161 36.2207C109.207 36.2376 109.255 36.245 109.303 36.2425L109.695 36.2418Z" fill="#231F20"/>
<path d="M111.474 37.6206C111.228 37.407 110.937 37.2501 110.624 37.1609C110.263 37.0666 109.892 37.0207 109.519 37.0243H109.099C108.912 37.0408 108.726 37.067 108.542 37.1027C108.337 37.1455 108.134 37.2008 107.936 37.2684L107.593 37.4252V34.6196C107.592 34.5348 107.557 34.4542 107.496 34.3951C107.466 34.3628 107.43 34.3373 107.39 34.3204C107.349 34.3034 107.305 34.2955 107.261 34.2971H106.802C106.758 34.2954 106.714 34.3033 106.674 34.3202C106.633 34.3372 106.597 34.3627 106.567 34.3951C106.512 34.4571 106.48 34.5371 106.479 34.6203V40.4844H104.984L104.818 40.4255V37.8748C104.82 37.8309 104.812 37.7871 104.795 37.7466C104.778 37.706 104.753 37.6697 104.72 37.6402C104.661 37.5792 104.58 37.544 104.495 37.5422H104.065C104.021 37.5421 103.978 37.5506 103.938 37.5673C103.897 37.584 103.861 37.6085 103.83 37.6394C103.799 37.6703 103.775 37.7071 103.758 37.7474C103.741 37.7878 103.733 37.8311 103.733 37.8748V40.4059C103.703 40.4364 103.666 40.4599 103.626 40.4749H102.159C102.149 40.4749 102.159 40.4749 102.159 40.3181V38.1188C102.162 38.0758 102.155 38.0327 102.14 37.9923C102.125 37.9519 102.102 37.9151 102.071 37.8843C102.019 37.8468 101.959 37.8204 101.896 37.8065C101.7 37.7573 101.5 37.7245 101.299 37.7085H100.654C100.065 37.6747 99.4821 37.8437 99.0021 38.1878C98.7826 38.3812 98.6116 38.6235 98.503 38.8951C98.3944 39.1667 98.3511 39.4601 98.3768 39.7515V42.0285H97.4675C97.1018 42.043 96.7368 41.9868 96.3925 41.8628C96.1659 41.7677 95.9697 41.6122 95.8253 41.4133C95.6968 41.2118 95.6135 40.9848 95.5813 40.748C95.5414 40.4599 95.5218 40.1694 95.5225 39.8786V39.4872C95.5225 39.331 95.5225 39.1748 95.5813 39.018C95.5853 38.9223 95.5541 38.8285 95.4934 38.7543C95.4653 38.7266 95.4315 38.7052 95.3944 38.6917C95.3573 38.6782 95.3178 38.6728 95.2784 38.6759H94.7991C94.715 38.6705 94.6322 38.6981 94.5683 38.7529C94.5043 38.8078 94.4644 38.8854 94.457 38.9693C94.457 39.0674 94.457 39.1748 94.4083 39.2918V39.9273C94.4043 40.0054 94.4043 40.0837 94.4083 40.1619C94.4004 40.5638 94.4466 40.9649 94.5456 41.3544C94.6186 41.7175 94.7876 42.0548 95.0337 42.3314C95.2872 42.6085 95.607 42.8174 95.9626 42.9378C96.4223 43.0899 96.905 43.1629 97.3897 43.1528H98.2787C98.5478 43.1379 98.8155 43.1054 99.0805 43.0547C99.1644 43.0477 99.2427 43.01 99.3004 42.9487C99.358 42.8874 99.391 42.8069 99.3929 42.7228V39.7218C99.3902 39.5392 99.4165 39.3581 99.4713 39.1843C99.5139 39.068 99.5842 38.9639 99.6768 38.8814C99.7762 38.8023 99.8938 38.7489 100.019 38.7253C100.185 38.6834 100.356 38.6637 100.527 38.6665H100.996V40.4749C100.977 40.6333 100.995 40.7939 101.048 40.9444C101.1 41.095 101.186 41.2317 101.299 41.3443C101.568 41.537 101.898 41.6276 102.228 41.5985H103.107C103.315 41.5978 103.521 41.5748 103.723 41.5302C103.909 41.5006 104.085 41.4305 104.241 41.3247C104.399 41.4322 104.58 41.5025 104.769 41.5302C104.984 41.5762 105.204 41.5992 105.424 41.5985H111.611C111.675 41.5963 111.738 41.5813 111.797 41.5545C111.856 41.5277 111.909 41.4896 111.953 41.4423C112.015 41.3714 112.061 41.2882 112.09 41.1976C112.118 41.0921 112.137 40.984 112.149 40.8751V39.5845C112.158 39.1929 112.098 38.8027 111.972 38.4319C111.869 38.1259 111.691 37.8504 111.454 37.6301L111.474 37.6206ZM111.064 39.7218V40.2788C111.071 40.3505 111.071 40.4228 111.064 40.4945H107.643V38.5103C107.756 38.4382 107.878 38.3792 108.004 38.3345C108.178 38.2764 108.353 38.227 108.532 38.1871C108.696 38.1513 108.862 38.1283 109.031 38.1195C109.164 38.1107 109.298 38.1107 109.431 38.1195C109.691 38.1121 109.95 38.1385 110.203 38.1973C110.392 38.2304 110.568 38.3149 110.711 38.4413C110.855 38.5738 110.96 38.7428 111.014 38.9301C111.1 39.1884 111.14 39.4595 111.132 39.7319M118.609 42.1948H118.257C118.168 42.1938 118.081 42.225 118.013 42.2827C117.976 42.3159 117.946 42.3565 117.926 42.402C117.906 42.4474 117.896 42.4966 117.896 42.5463V43.0547C117.898 43.1474 117.936 43.2352 118.003 43.2995C118.036 43.3336 118.075 43.3608 118.119 43.3793C118.163 43.3978 118.21 43.4072 118.257 43.407H118.658C118.75 43.4044 118.838 43.3656 118.903 43.2988C118.938 43.2689 118.967 43.2318 118.987 43.1898C119.008 43.1478 119.019 43.102 119.019 43.0554V42.547C119.021 42.4985 119.011 42.4504 118.991 42.4063C118.97 42.3622 118.94 42.3234 118.903 42.2928C118.837 42.2291 118.749 42.1939 118.658 42.1948" fill="#231F20"/>
<path d="M119.664 37.8644C119.666 37.8205 119.658 37.7767 119.642 37.7358C119.626 37.6949 119.601 37.6577 119.57 37.6266C119.539 37.5955 119.502 37.5711 119.461 37.5549C119.42 37.5387 119.376 37.5311 119.332 37.5325H118.883C118.838 37.5328 118.794 37.5425 118.754 37.5611C118.714 37.5796 118.677 37.6065 118.648 37.64C118.6 37.7043 118.575 37.7839 118.58 37.8644V40.328C118.589 40.3863 118.589 40.4455 118.58 40.5038H117.074V37.4642C117.078 37.3896 117.053 37.3164 117.006 37.2587C116.955 37.2088 116.89 37.1748 116.82 37.1607C116.62 37.0964 116.414 37.0572 116.204 37.0437H115.462C114.817 37.0093 114.185 37.2304 113.702 37.6589C113.493 37.8801 113.33 38.1414 113.224 38.4271C113.118 38.7129 113.071 39.017 113.086 39.3213V39.5559C113.066 39.8431 113.104 40.1314 113.198 40.4035C113.293 40.6756 113.441 40.9259 113.634 41.1393C114.062 41.5137 114.621 41.7033 115.188 41.6666H115.97V41.8816C115.975 42.0506 115.941 42.2169 115.872 42.3704C115.816 42.4852 115.723 42.5779 115.608 42.634C115.467 42.7138 115.311 42.7632 115.149 42.7814C114.934 42.7978 114.719 42.7978 114.504 42.7814H113.712C113.673 42.7771 113.634 42.7813 113.596 42.7937C113.559 42.8061 113.525 42.8265 113.496 42.8534C113.467 42.8803 113.444 42.9131 113.429 42.9496C113.415 42.9861 113.408 43.0253 113.409 43.0647V43.475C113.407 43.5106 113.412 43.5463 113.424 43.5798C113.435 43.6136 113.453 43.6441 113.478 43.6704C113.533 43.7256 113.605 43.7602 113.683 43.7684H114.67C114.999 43.7772 115.327 43.7441 115.647 43.6704C115.919 43.6216 116.177 43.5113 116.4 43.3479C116.619 43.1897 116.794 42.9775 116.908 42.7327C117.04 42.4231 117.11 42.0905 117.114 41.7545V41.5496H119.146C119.23 41.5456 119.312 41.5294 119.391 41.501C119.483 41.4734 119.563 41.4146 119.616 41.3346C119.657 41.2648 119.687 41.1888 119.704 41.1095C119.716 40.9046 119.716 40.6992 119.704 40.4943V38.3924L119.664 37.8644ZM114.162 39.2328C114.145 39.0751 114.163 38.9156 114.216 38.7658C114.268 38.6161 114.353 38.4798 114.464 38.3667C114.575 38.2536 114.71 38.1666 114.859 38.1119C115.008 38.0572 115.167 38.0362 115.325 38.0504H115.95V40.5132H115.178C115.035 40.5282 114.89 40.5144 114.753 40.4724C114.615 40.4305 114.487 40.3614 114.377 40.2692C114.197 40.0204 114.114 39.7148 114.142 39.4092L114.162 39.2328ZM121.776 34.7857H121.317C121.273 34.7842 121.229 34.7922 121.189 34.8091C121.148 34.826 121.112 34.8515 121.082 34.8837C121.025 34.9483 120.993 35.0319 120.994 35.1183V41.286C120.994 41.351 121.012 41.4147 121.046 41.47C121.08 41.5253 121.129 41.57 121.187 41.599C121.228 41.6179 121.272 41.6274 121.317 41.6281H121.776C121.821 41.6288 121.867 41.6185 121.907 41.598C121.948 41.5776 121.984 41.5475 122.01 41.5104C122.068 41.4499 122.1 41.369 122.098 41.2853V35.1183C122.097 35.0351 122.066 34.955 122.01 34.8932C121.983 34.8574 121.947 34.8288 121.906 34.8101C121.865 34.7913 121.821 34.7829 121.776 34.7857ZM122.166 33.7108H121.571C121.569 33.688 121.569 33.6652 121.571 33.6425C121.547 33.5594 121.547 33.4714 121.571 33.3883C121.571 33.251 121.571 33.1145 121.913 33.1145H122.206C122.241 33.1186 122.277 33.115 122.311 33.104C122.344 33.0931 122.375 33.075 122.402 33.0509C122.428 33.0268 122.448 32.9972 122.462 32.9643C122.475 32.9313 122.481 32.8958 122.479 32.8603V32.7332C122.474 32.6715 122.449 32.613 122.409 32.5658C122.369 32.5186 122.315 32.485 122.255 32.4695H121.864C121.599 32.4574 121.338 32.533 121.121 32.6845C121.025 32.7714 120.949 32.8788 120.9 32.9989C120.851 33.119 120.829 33.2486 120.837 33.3781C120.823 33.4852 120.823 33.5936 120.837 33.7006C120.836 33.7236 120.836 33.7466 120.837 33.7696C120.622 33.7696 120.613 33.9548 120.613 34.0042V34.1698C120.613 34.2969 120.691 34.4335 120.925 34.4335H122.166C122.227 34.4504 122.291 34.4504 122.352 34.4335C122.394 34.4135 122.428 34.3813 122.451 34.3412C122.474 34.301 122.484 34.2549 122.479 34.209V34.0528C122.479 33.9257 122.401 33.7892 122.177 33.7892M140.835 42.1946H140.435C140.345 42.1935 140.258 42.2247 140.19 42.2825C140.153 42.3157 140.124 42.3563 140.103 42.4018C140.083 42.4472 140.073 42.4964 140.073 42.5461V43.0545C140.075 43.1472 140.114 43.235 140.181 43.2993C140.213 43.3335 140.253 43.3607 140.297 43.3792C140.34 43.3977 140.387 43.4071 140.435 43.4068H140.835C140.928 43.4042 141.016 43.3654 141.08 43.2986C141.116 43.2687 141.144 43.2316 141.165 43.1896C141.185 43.1476 141.196 43.1018 141.197 43.0552V42.5468C141.199 42.4982 141.189 42.4498 141.169 42.4056C141.149 42.3614 141.118 42.3227 141.08 42.2926C141.047 42.261 141.009 42.236 140.967 42.2192C140.925 42.2024 140.88 42.194 140.835 42.1946Z" fill="#231F20"/>
<path d="M146.601 37.024C146.319 37.0088 146.036 37.0512 145.771 37.1487C145.505 37.2462 145.262 37.3968 145.057 37.5912C144.867 37.8063 144.721 38.0571 144.629 38.3289C144.537 38.6007 144.5 38.8882 144.52 39.1746V40.0737C144.53 40.1515 144.53 40.2305 144.52 40.3083C144.53 40.3367 144.53 40.3678 144.52 40.3962C144.475 40.43 144.426 40.4565 144.373 40.4746H143.718L143.337 39.497L143.239 39.2523C143.086 38.8646 142.885 38.497 142.643 38.1578C142.448 37.886 142.207 37.6511 141.93 37.4641C141.677 37.2983 141.395 37.1822 141.099 37.1221C140.646 37.025 140.181 36.9985 139.72 37.0436C139.569 37.0551 139.419 37.0774 139.271 37.1119C139.185 37.1193 139.105 37.1578 139.046 37.2201C138.996 37.2804 138.969 37.3561 138.968 37.4344V37.8157C138.968 37.8565 138.977 37.8967 138.994 37.9338C139.01 37.9709 139.035 38.0039 139.066 38.0307C139.129 38.0753 139.204 38.0991 139.281 38.099H139.994C140.45 38.0745 140.903 38.1871 141.294 38.4221C141.64 38.6675 141.907 39.0062 142.066 39.399L142.525 40.4942H137.951L137.785 40.4354V34.62C137.786 34.5562 137.768 34.4936 137.734 34.4401C137.699 34.3866 137.649 34.3445 137.591 34.3191C137.55 34.3021 137.506 34.2945 137.462 34.2968H136.827C136.783 34.2944 136.74 34.302 136.699 34.319C136.658 34.3359 136.622 34.3619 136.593 34.3948C136.56 34.4224 136.535 34.457 136.518 34.4961C136.501 34.5351 136.493 34.5775 136.495 34.62V40.4057C136.463 40.4343 136.427 40.4576 136.387 40.4746H135.029L134.853 40.4158V37.6305C134.854 37.589 134.847 37.5476 134.832 37.509C134.817 37.4703 134.794 37.435 134.765 37.4053C134.736 37.3706 134.701 37.3429 134.66 37.3241C134.619 37.3054 134.575 37.2961 134.53 37.2972H134.081C133.993 37.3007 133.91 37.3357 133.846 37.3959C133.796 37.4637 133.769 37.5456 133.768 37.6298V40.357C133.774 40.3693 133.777 40.3827 133.777 40.3962C133.777 40.4097 133.774 40.4231 133.768 40.4354C133.736 40.4634 133.7 40.4862 133.661 40.503H133.181C133.029 40.5134 132.875 40.5134 132.722 40.503C132.692 40.505 132.662 40.4976 132.635 40.4819C132.609 40.4662 132.588 40.4429 132.576 40.4151V37.9915C132.576 37.9081 132.545 37.8277 132.488 37.767C132.458 37.7348 132.422 37.7093 132.381 37.6924C132.341 37.6755 132.297 37.6675 132.253 37.669H131.813C131.772 37.668 131.731 37.6752 131.692 37.6903C131.653 37.7054 131.618 37.728 131.589 37.7569C131.529 37.8206 131.494 37.904 131.491 37.9915V40.4354C131.479 40.4517 131.465 40.4654 131.448 40.4755C131.431 40.4857 131.412 40.492 131.393 40.4942H130.308V38.3437C130.309 38.2794 130.292 38.2161 130.259 38.1609C130.226 38.1056 130.178 38.0603 130.122 38.03C130.079 38.0096 130.032 37.9999 129.985 38.0016H129.546C129.501 38.0031 129.458 38.0134 129.418 38.0318C129.377 38.0503 129.341 38.0766 129.311 38.1091C129.254 38.1737 129.222 38.2573 129.223 38.3437V42.1452H128.607C128.245 42.1623 127.884 42.1095 127.542 41.9897C127.316 41.902 127.12 41.7528 126.975 41.559C126.839 41.3654 126.755 41.1401 126.731 40.9046C126.69 40.613 126.67 40.3188 126.672 40.0244V39.8391C126.668 39.7641 126.668 39.689 126.672 39.614V39.1354C126.683 39.0882 126.683 39.0393 126.673 38.992C126.663 38.9447 126.643 38.9002 126.614 38.8616C126.584 38.8325 126.549 38.8097 126.51 38.7946C126.471 38.7795 126.43 38.7724 126.388 38.7737H125.988C125.905 38.7714 125.825 38.8004 125.764 38.8549C125.702 38.9094 125.663 38.9852 125.656 39.0671C125.633 39.1767 125.617 39.2875 125.607 39.399V40.3468C125.601 40.7556 125.65 41.1634 125.753 41.559C125.84 41.9071 126.015 42.2269 126.261 42.4879C126.533 42.7604 126.869 42.9585 127.239 43.0646C127.698 43.2041 128.176 43.2701 128.656 43.26H129.331C129.555 43.26 129.79 43.1917 130.024 43.143C130.018 43.0957 130.005 43.0495 129.985 43.0058C130.021 42.9782 130.049 42.9425 130.068 42.9016C130.087 42.8608 130.095 42.8161 130.093 42.7712V41.5982H130.748C130.975 41.5982 131.201 41.5725 131.422 41.5205C131.585 41.4867 131.741 41.4238 131.881 41.3346C132.017 41.4299 132.17 41.4995 132.331 41.5394C132.539 41.5894 132.753 41.6124 132.966 41.6084H133.113C133.323 41.6104 133.534 41.5881 133.739 41.5394C133.901 41.5036 134.054 41.4339 134.188 41.3346C134.35 41.4346 134.529 41.5036 134.716 41.5394C134.915 41.584 135.118 41.607 135.322 41.6084H135.85C136.054 41.6077 136.257 41.5847 136.456 41.5394C136.644 41.5076 136.823 41.438 136.984 41.3346L137.179 41.4421C137.284 41.4833 137.392 41.5164 137.501 41.5394C137.612 41.5482 137.723 41.5482 137.834 41.5394H143.708C143.966 41.5401 144.223 41.5039 144.471 41.4319C144.643 41.39 144.799 41.2981 144.921 41.1683C145.083 41.3278 145.28 41.4481 145.497 41.5198C145.81 41.632 146.141 41.6848 146.474 41.6767C146.76 41.7025 147.049 41.667 147.32 41.5726C147.591 41.4781 147.84 41.3269 148.048 41.129C148.4 40.6829 148.574 40.1224 148.537 39.5559V39.0759C148.574 38.5011 148.389 37.9341 148.019 37.4925C147.819 37.2959 147.58 37.1444 147.317 37.0483C147.054 36.9521 146.773 36.9137 146.494 36.9355L146.601 37.024ZM145.516 39.155C145.494 38.8406 145.576 38.5277 145.751 38.2653C145.87 38.1731 146.009 38.1116 146.158 38.086C146.306 38.0604 146.458 38.0716 146.601 38.1186C146.737 38.1025 146.875 38.1199 147.003 38.1694C147.131 38.2189 147.245 38.2989 147.335 38.4025C147.498 38.6689 147.577 38.9792 147.559 39.2915V39.6431C147.584 39.9554 147.509 40.2671 147.344 40.5328C147.241 40.625 147.12 40.6944 146.989 40.7366C146.858 40.7788 146.719 40.7927 146.582 40.7775C146.36 40.7828 146.14 40.7394 145.937 40.6504C145.857 40.6026 145.789 40.5373 145.738 40.4594C145.687 40.3815 145.655 40.2931 145.643 40.2008C145.627 40.0383 145.627 39.8746 145.643 39.712L145.516 39.155Z" fill="#231F20"/>
<path d="M57.2471 28.5701C57.0547 25.579 56.3504 22.6431 55.1649 19.8903C54.7349 18.8444 54.188 17.7891 53.6694 16.7331L53.3571 16.1273L53.0637 15.5703L52.7703 14.9834C50.4541 10.439 47.8831 5.28811 49.5752 0.498254V0.234592L49.34 0H49.2615H49.0952C42.8106 5.75662 40.8656 13.6834 43.9734 20.379C44.521 21.5324 45.2931 22.8811 46.1145 24.2887C46.7398 25.3737 47.4436 26.5954 48.069 27.8366C44.3845 35.47 36.3306 38.5102 30.4266 40.7189L30.1629 40.5431L29.6741 40.2206C26.7881 38.0787 23.5005 36.5397 20.0072 35.6951C18.195 35.2095 16.3317 34.9404 14.4561 34.8933C14.0701 34.8906 13.6847 34.9163 13.3028 34.9717L12.9512 35.0305C12.8336 35.0305 12.4712 35.1475 12.4712 35.4213V35.5193H14.0647C16.1892 35.6216 18.2933 35.9825 20.3304 36.5943C22.7584 37.2646 25.0881 38.2504 27.2599 39.5263C23.2207 37.8858 18.9125 37.0077 14.5535 36.9363C12.7886 36.8906 11.0267 37.1048 9.32417 37.5718C8.65961 37.7868 8.34727 37.9917 8.4453 38.2459V38.354H8.55211C10.1685 37.9105 11.8425 37.7127 13.5177 37.7672C17.8476 37.8497 22.1367 38.6218 26.2236 40.0543C23.3159 39.2752 20.3199 38.8744 17.3097 38.8618C16.3328 38.8618 15.2965 38.8618 14.2702 38.999C13.8984 38.999 13.4488 39.0666 12.9897 39.1254C10.1932 39.4507 7.46912 40.2334 4.92642 41.4423C4.28079 41.7938 4.0658 42.0088 4.16383 42.2332V42.3313H4.25172L4.95549 42.0284C5.47335 41.8236 6.10885 41.5687 6.81262 41.3544C10.1664 40.3145 13.6521 39.7612 17.163 39.7116H17.4761C20.3209 39.7406 23.1549 40.0685 25.9308 40.6898C24.8066 40.5776 23.6782 40.5122 22.5485 40.4937H19.9687C17.8165 40.5896 15.6739 40.8381 13.557 41.2374C10.7722 41.7381 8.05355 42.5546 5.45375 43.6712C4.35906 44.1455 3.29492 44.6874 2.26749 45.2938C1.75639 45.5885 1.26287 45.915 0.791662 46.2707L0.684169 46.3585C0.489606 46.5166 0.321422 46.7047 0.185916 46.9156C0.0973521 47.0204 0.0338028 47.1441 0 47.2773V47.541H0.0980282L0.313014 47.3848L0.674704 47.1407C1.24878 46.7533 1.83546 46.3849 2.4338 46.0361C8.31874 42.9256 14.8858 41.3301 21.5419 41.3936C25.7605 41.4018 29.9554 42.024 33.9948 43.2406H34.1314C35.7339 43.7377 37.3913 44.0365 39.0666 44.1303H40.0442C42.7504 44.1343 45.4147 43.4622 47.7952 42.1751C48.2789 41.9291 48.746 41.6516 49.1932 41.3442C52.3006 39.5081 54.7885 36.7855 56.3378 33.5256C56.3723 33.4831 56.3958 33.4327 56.4061 33.3789C56.6427 32.811 56.8388 32.2256 56.9929 31.63C57.1957 30.5774 57.2579 29.5024 57.1781 28.4336L57.2471 28.5701ZM56.3865 30.4658C56.155 29.1394 55.7714 27.8441 55.2433 26.6055C55.4163 25.4948 55.5272 24.3752 55.5752 23.2523C56.2648 25.591 56.5394 28.0324 56.3865 30.4658ZM48.8708 27.7291C49.3579 26.6793 49.7566 25.5907 50.0627 24.4746C50.6204 25.4515 51.0889 26.4291 51.529 27.4067C51.1684 28.4617 50.707 29.4796 50.1512 30.4462C49.7601 29.5305 49.3329 28.6307 48.8708 27.7487V27.7291ZM51.4215 34.3464C51.2021 33.3023 50.8948 32.2787 50.5028 31.2865C51.0727 30.3549 51.5569 29.3736 51.9495 28.3545C52.2132 28.9798 52.4579 29.5957 52.702 30.2508L52.7899 30.4854C52.917 30.8079 53.0346 31.1405 53.1516 31.463C52.6721 32.4698 52.0925 33.4259 51.4215 34.3166V34.3464ZM54.7254 25.4711C54.432 24.8261 54.0994 24.142 53.7478 23.3794C53.6302 23.1353 53.5031 22.9007 53.3963 22.6763C53.5653 21.051 53.5653 19.4136 53.3963 17.7884C53.7879 18.5611 54.1529 19.3469 54.4908 20.1445C55.0018 21.8746 55.0823 23.7027 54.7254 25.4711ZM53.23 23.9466C53.66 24.8065 54.1487 25.7936 54.5686 26.8002C54.5199 27.1132 54.4712 27.4459 54.4124 27.7778C54.247 28.7421 53.9885 29.688 53.6403 30.6024L53.5322 30.3387L53.4544 30.1143C53.1157 29.2252 52.7539 28.3452 52.3694 27.4749C52.7524 26.3211 53.0402 25.1379 53.23 23.9371V23.9466ZM52.6533 22.8128C52.5098 24.059 52.2645 25.2913 51.9198 26.4974C51.4702 25.5205 50.9429 24.6308 50.3851 23.5653C50.6677 22.3464 50.8827 21.1132 51.0308 19.8706C51.4905 20.6427 52.0077 21.5912 52.6533 22.8027V22.8128ZM52.7703 21.5026C52.2829 20.5952 51.7746 19.6992 51.2458 18.8153L51.1579 18.6686C51.3192 16.9227 51.3192 15.1656 51.1579 13.4197C51.4607 14.0356 51.7731 14.6515 52.1348 15.2768L52.2328 15.4729C52.77 17.4349 52.952 19.4765 52.7703 21.5026ZM50.5224 17.593C50.0155 16.7061 49.5777 15.7815 49.2129 14.8273C47.9696 11.4105 47.6327 7.7299 48.2353 4.14423C48.3833 6.43363 48.96 8.67487 49.9356 10.7513C50.5176 12.9823 50.7157 15.2958 50.5224 17.593ZM48.5672 15.0916C49.0832 16.4086 49.7144 17.6775 50.4534 18.8836C50.3325 20.1639 50.1402 21.4364 49.8774 22.6952C49.6402 22.2741 49.3956 21.8571 49.1439 21.4445L48.6652 20.613C47.2859 18.516 46.3542 16.157 45.9286 13.6834V13.5076C45.4148 10.1949 45.9948 6.80451 47.5802 3.85082C46.9197 7.6155 47.2567 11.4875 48.5578 15.0815L48.5672 15.0916ZM46.9548 3.45938C45.2793 6.55596 44.6678 10.1174 45.2147 13.5955V13.7618C45.6422 16.3202 46.5865 18.7647 47.9899 20.9463L48.459 21.7372C48.8106 22.3437 49.2122 23.0278 49.5928 23.6924L49.5441 23.9074C49.2824 24.9812 48.9293 26.0306 48.4888 27.0443C47.9175 26.0019 47.3342 24.9661 46.7392 23.9371C45.9374 22.5194 45.1653 21.1802 44.638 20.0268C42.1258 14.661 42.9952 8.37634 47.1009 3.17679L46.9251 3.49927L46.9542 3.46006L46.9548 3.45938ZM32.5183 40.6898C38.5298 38.4122 45.0977 35.1867 48.5381 28.677C49.0269 29.6545 49.4278 30.505 49.7598 31.3257C48.5922 33.1263 47.1243 34.7133 45.4202 36.0176C41.6671 38.7995 37.1824 40.4239 32.5183 40.6898ZM45.8603 36.5943C47.4882 35.3418 48.9124 33.8448 50.0823 32.1566C50.4514 33.1369 50.7201 34.1521 50.8841 35.1867C49.7128 36.5587 48.346 37.7509 46.8277 38.7252C44.7127 40.0762 42.3332 40.959 39.8488 41.3145C39.0159 41.4254 38.1776 41.4903 37.3372 41.5105C36.457 41.5105 35.0008 41.5105 34.581 41.4517L32.8212 41.305H33.2322C37.8067 40.9805 42.1909 39.3451 45.8603 36.5943ZM34.2483 42.165H34.5323C34.9427 42.165 36.4381 42.2826 37.3758 42.2434C38.2393 42.2208 39.1009 42.149 39.9563 42.0284C42.5393 41.6654 45.0134 40.7485 47.209 39.3404C48.5923 38.4559 49.8541 37.3946 50.9625 36.1832C50.9936 36.8599 50.9145 37.5367 50.7272 38.1877C50.5146 38.922 50.1253 39.5931 49.5935 40.1422C48.8161 40.8849 47.904 41.4721 46.9062 41.8722H46.8081C45.8286 42.359 44.7996 42.7391 43.7388 43.006C42.434 43.2791 41.1036 43.4096 39.7704 43.3967C38.0794 43.3633 36.4003 43.1071 34.7763 42.6348C34.7763 42.6348 33.9941 42.4293 32.7529 42.0676C33.2025 42.0676 33.7305 42.1758 34.2483 42.2143V42.165ZM51.4215 38.4805C51.6906 37.5076 51.7636 36.4908 51.6365 35.4896C52.3605 34.6153 52.9926 33.6688 53.5227 32.665C53.6586 33.1781 53.7532 33.7007 53.8067 34.2287C53.8723 34.9348 53.8093 35.647 53.6207 36.3306C53.5396 36.6057 53.4287 36.8714 53.2881 37.1216C53.09 37.4103 52.8609 37.6759 52.604 37.9139L52.5363 37.9815C52.272 38.2459 52.0077 38.5001 51.744 38.7346C51.4803 38.9692 51.3235 39.1159 51.1187 39.2823C51.2383 39.0227 51.339 38.7549 51.4215 38.4805ZM53.9919 31.6976C54.4973 30.5765 54.865 29.3984 55.0871 28.1888C55.3825 29.038 55.605 29.9108 55.7517 30.7984C55.9373 31.6452 55.9373 32.5221 55.7517 33.3688L55.7023 33.525C55.3991 34.2909 54.9914 35.0112 54.4908 35.6654C54.6315 34.3066 54.4644 32.9336 54.002 31.6482" fill="#BC955C"/>
</g>
</g>
<defs>
<clipPath id="clip0_13_5021">
<rect width="148.732" height="48" fill="white"/>
</clipPath>
</defs>
</svg>
