<svg width="180" height="48" viewBox="0 0 180 48" fill="none" xmlns="http://www.w3.org/2000/svg">
<g clip-path="url(#clip0_13_5770)">
<path d="M124.409 23.1115C127.016 24.0886 129.514 25.2741 132 26.5263C132.491 26.1258 132.982 25.7252 133.488 25.3125C136.212 23.1722 138.483 22.4417 141.99 22.5345C145.345 23.0267 148.221 24.5636 150.79 26.7237C152.107 27.9597 152.107 27.9597 153.637 27.6587C155.654 27.0753 157.375 26.2337 159.237 25.2632C163.936 22.8259 168.538 21.5938 173.813 23.1464C176.16 24.3403 177.764 26.0307 178.962 28.3692C179.736 30.8711 179.556 33.4139 179.369 36C179.16 36 178.952 36 178.737 36C178.655 35.4395 178.655 35.4395 178.572 34.8676C177.951 31.3756 177.223 29.4263 174.316 27.1579C170.234 25.7971 166.564 26.086 162.711 27.9868C160.765 29.0421 159.01 30.2196 157.264 31.579C159.024 35.8893 163.725 38.7608 167.764 40.7763C170.646 41.9241 172.588 41.8638 175.579 41.0526C177.068 39.8292 177.068 39.8292 178.106 38.5263C178.522 38.5263 178.939 38.5263 179.369 38.5263C178.51 40.4966 177.58 41.6895 175.935 43.0658C175.369 43.5482 175.369 43.5482 174.792 44.0403C172.197 45.9187 169.166 45.9366 166.106 45.4737C160.996 43.6349 156.467 40.6957 152.842 36.6316C152.842 36.2147 152.842 35.7979 152.842 35.3684C151.592 36.4105 150.341 37.4526 149.053 38.5263C149.973 39.3569 150.894 40.1855 151.816 41.0132C152.329 41.4748 152.842 41.9364 153.37 42.412C154.648 43.5978 154.648 43.5978 156 44.2105C156 44.6274 156 45.0442 156 45.4737C154.355 45.5248 152.712 45.5624 151.066 45.5921C150.6 45.608 150.134 45.6239 149.654 45.6402C146.179 45.6874 146.179 45.6874 144.625 44.5189C144.419 44.2087 144.213 43.8985 144 43.579C143.74 43.8878 143.48 44.1966 143.211 44.5148C141.871 45.6772 141.317 45.6981 139.572 45.6587C139.094 45.6526 138.615 45.6465 138.122 45.6402C137.626 45.6243 137.13 45.6085 136.619 45.5921C135.863 45.5793 135.863 45.5793 135.093 45.5662C133.851 45.5439 132.61 45.5099 131.369 45.4737C131.369 45.0569 131.369 44.64 131.369 44.2105C133.127 42.8407 134.96 41.6037 136.796 40.3421C137.298 39.9513 137.799 39.5605 138.316 39.1579C138.316 38.7411 138.316 38.3242 138.316 37.8947C136.998 36.7327 135.679 35.6493 134.29 34.579C133.889 34.2676 133.489 33.9563 133.076 33.6356C127.384 29.2716 122.381 25.6709 114.948 26.5263C112.513 27.7873 111.412 28.6718 109.895 30.9474C109.61 32.2416 109.61 32.2416 109.5 33.5921C109.422 34.3867 109.344 35.1813 109.264 36C108.847 36 108.43 36 108 36C107.782 32.3628 107.769 29.6453 109.895 26.5263C114.049 22.4385 118.697 21.4008 124.409 23.1115ZM132.632 27.7895C134.272 28.9546 135.918 30.1097 137.566 31.2632C138.032 31.5945 138.498 31.9259 138.979 32.2673C139.428 32.5807 139.878 32.8942 140.342 33.2171C140.755 33.5082 141.169 33.7992 141.594 34.0991C142.795 34.8907 142.795 34.8907 144.632 34.7368C145.918 33.93 147.184 33.0903 148.421 32.2105C145.666 29.1109 142.756 26.8282 138.526 26.3265C135.241 26.1098 135.241 26.1098 132.632 27.7895Z" fill="#0D8B60"/>
<path d="M143.369 0C143.786 0 144.203 0 144.632 0C144.632 0.416842 144.632 0.833684 144.632 1.26316C145.049 1.05474 145.466 0.846316 145.895 0.631579C150.121 0.300102 153.028 1.32199 156.474 3.75C157.781 4.94769 158.797 6.11591 159.79 7.57895C159.581 7.99579 159.373 8.41263 159.158 8.8421C157.491 7.8 155.824 6.75789 154.106 5.68421C153.897 5.89263 153.689 6.10105 153.474 6.31579C153.748 6.78596 153.748 6.78596 154.027 7.26562C155.686 10.3011 156.288 12.3371 156 15.7895C155.584 15.7895 155.167 15.7895 154.737 15.7895C154.615 15.4321 154.493 15.0747 154.367 14.7064C154.203 14.2432 154.038 13.7799 153.869 13.3026C153.708 12.841 153.546 12.3794 153.38 11.9038C152.936 10.6188 152.936 10.6188 151.579 10.1053C151.609 10.457 151.638 10.8087 151.668 11.1711C151.855 15.1256 151.039 17.4281 149.053 20.8421C148.636 20.8421 148.219 20.8421 147.79 20.8421C147.805 20.2331 147.819 19.6241 147.834 18.9967C147.846 18.1988 147.857 17.401 147.869 16.5789C147.883 15.7876 147.898 14.9962 147.913 14.1809C147.926 11.8556 147.926 11.8556 146.527 9.47368C145.901 13.2253 145.276 16.9768 144.632 20.8421C144.215 20.8421 143.798 20.8421 143.369 20.8421C142.046 17.3461 141.457 13.7762 140.843 10.1053C139.905 12.206 139.417 13.8436 139.461 16.1447C139.465 16.6145 139.469 17.0843 139.473 17.5683C139.578 18.935 139.838 20.1571 140.211 21.4737C137.255 19.1401 136.561 17.1907 135.894 13.5173C135.79 11.9991 135.962 10.9146 136.421 9.47368C134.689 11.4947 133.497 13.2663 132.632 15.7895C132.215 15.7895 131.798 15.7895 131.369 15.7895C131.532 11.6691 131.888 8.91904 134.527 5.68421C132.325 6.38489 130.248 7.11371 128.211 8.21053C129.684 4.85772 132.304 2.76964 135.474 1.02632C138.232 0.336775 140.677 0.365964 143.369 1.26316C143.369 0.846316 143.369 0.429474 143.369 0ZM141.474 8.21053C142.106 9.47368 142.106 9.47368 142.106 9.47368L141.474 8.21053Z" fill="#0D8C60"/>
<path d="M124.381 23.134C129.875 25.3966 134.885 28.692 139.716 32.1155C141.949 33.7364 141.949 33.7364 144.632 34.1055C145.808 33.5639 145.808 33.5639 146.961 32.8423C147.651 32.4255 148.342 32.0087 149.053 31.5792C150.095 32.8297 151.137 34.0802 152.211 35.3687C151.169 36.4108 150.127 37.4529 149.053 38.5266C149.973 39.3572 150.894 40.1857 151.816 41.0134C152.329 41.475 152.842 41.9366 153.37 42.4122C154.648 43.5981 154.648 43.5981 156 44.2108C156 44.6276 156 45.0444 156 45.4739C154.355 45.525 152.712 45.5626 151.066 45.5923C150.6 45.6082 150.134 45.6241 149.654 45.6405C146.179 45.6876 146.179 45.6876 144.625 44.5192C144.419 44.209 144.213 43.8988 144 43.5792C143.74 43.888 143.48 44.1968 143.211 44.515C141.871 45.6774 141.317 45.6983 139.572 45.659C139.094 45.6528 138.615 45.6467 138.122 45.6405C137.626 45.6246 137.13 45.6087 136.619 45.5923C135.863 45.5795 135.863 45.5795 135.093 45.5664C133.851 45.5441 132.61 45.5102 131.369 45.4739C131.369 45.0571 131.369 44.6402 131.369 44.2108C133.127 42.8409 134.96 41.604 136.796 40.3423C137.298 39.9516 137.799 39.5608 138.316 39.1581C138.316 38.7413 138.316 38.3244 138.316 37.895C136.998 36.733 135.679 35.6495 134.29 34.5792C133.889 34.2679 133.489 33.9566 133.076 33.6358C127.384 29.2718 122.381 25.6711 114.948 26.5266C112.513 27.7875 111.412 28.6721 109.895 30.9476C109.61 32.2418 109.61 32.2418 109.5 33.5923C109.422 34.3869 109.344 35.1816 109.264 36.0002C108.847 36.0002 108.43 36.0002 108 36.0002C107.782 32.363 107.769 29.6455 109.895 26.5266C114.044 22.4443 118.68 21.2831 124.381 23.134Z" fill="#958A5F"/>
<path d="M47.3687 13.2632C47.9939 13.2632 48.6192 13.2632 49.2634 13.2632C49.2634 18.6821 49.2634 24.1011 49.2634 29.6842C43.2957 29.7128 37.328 29.7359 31.3602 29.7497C28.5891 29.7563 25.8181 29.7652 23.047 29.7795C20.3729 29.7933 17.6989 29.8008 15.0248 29.8041C14.0044 29.8064 12.9841 29.811 11.9638 29.8178C10.5349 29.827 9.10618 29.8282 7.67726 29.8276C6.86382 29.8304 6.05037 29.8332 5.21228 29.8361C3.28111 29.6933 2.21124 29.5072 0.631826 28.4211C-0.359346 26.4387 -0.222076 24.923 0.000247002 22.7369C1.70986 20.3538 2.68291 19.6803 5.56604 19.0658C6.56255 19.0072 6.56255 19.0072 7.57919 18.9474C7.57919 21.8653 7.57919 24.7832 7.57919 27.7895C12.9981 27.7895 18.4171 27.7895 24.0002 27.7895C22.7298 23.5106 22.7298 23.5106 20.8424 22.7369C19.4501 22.5919 18.0546 22.4774 16.6581 22.3816C15.9075 22.3287 15.1569 22.2758 14.3835 22.2212C13.8054 22.183 13.2274 22.1447 12.6318 22.1053C12.6318 21.48 12.6318 20.8548 12.6318 20.2106C21.4392 19.6676 21.4392 19.6676 23.8818 21.5132C25.4876 23.6695 25.7906 25.1272 25.895 27.7895C26.9371 27.7895 27.9792 27.7895 29.0529 27.7895C29.0529 26.1221 29.0529 24.4548 29.0529 22.7369C29.8866 22.7369 30.7202 22.7369 31.5792 22.7369C31.5792 23.779 31.5792 24.8211 31.5792 25.8948C31.9439 25.3086 32.3087 24.7224 32.6845 24.1184C34.3329 21.7832 35.4944 20.6189 38.1713 19.6579C40.4254 19.548 41.2624 19.9707 42.9476 21.4737C43.6586 23.19 43.9147 24.6613 44.2108 26.5263C44.0024 26.9432 43.7939 27.36 43.5792 27.7895C44.8297 27.7895 46.0802 27.7895 47.3687 27.7895C47.3687 22.9958 47.3687 18.2021 47.3687 13.2632ZM2.52656 22.1053C1.89807 24.2939 1.89807 24.2939 1.89498 26.5263C2.31183 26.9432 2.72867 27.36 3.15814 27.7895C3.99183 27.7895 4.82551 27.7895 5.68446 27.7895C5.68446 25.4969 5.68446 23.2042 5.68446 20.8421C4.31266 20.8421 3.62835 21.3134 2.52656 22.1053ZM34.7371 23.3684C33.2459 25.3963 33.2459 25.3963 32.8424 27.7895C35.7603 27.7895 38.6781 27.7895 41.6845 27.7895C42.0977 23.7322 42.0977 23.7322 40.8555 22.1448C38.4692 20.6423 36.7743 21.8915 34.7371 23.3684Z" fill="#0D8C60"/>
<path d="M173.812 23.1463C176.16 24.3403 177.764 26.0306 178.961 28.3692C179.736 30.871 179.556 33.4138 179.368 35.9999C179.16 35.9999 178.952 35.9999 178.737 35.9999C178.682 35.6262 178.628 35.2525 178.571 34.8675C177.951 31.3755 177.222 29.4262 174.316 27.1578C170.278 25.8119 166.605 26.0656 162.789 27.9473C160.44 29.2481 158.189 30.6552 156 32.2104C155.166 31.3768 154.333 30.5431 153.474 29.6841C154.105 27.7894 154.105 27.7894 156.034 26.6594C156.836 26.2664 157.64 25.8802 158.447 25.4999C158.85 25.3029 159.253 25.1059 159.669 24.9029C164.208 22.7044 168.825 21.6785 173.812 23.1463Z" fill="#958A5F"/>
<path d="M29.0528 36.6313C29.4697 36.6313 29.8865 36.6313 30.316 36.6313C30.316 37.2566 30.316 37.8819 30.316 38.5261C30.7328 38.5261 31.1497 38.5261 31.5792 38.5261C31.5792 38.9429 31.5792 39.3598 31.5792 39.7892C31.1623 39.7892 30.7455 39.7892 30.316 39.7892C30.5244 41.0398 30.7328 42.2903 30.9476 43.5787C31.3644 43.5787 31.7813 43.5787 32.2107 43.5787C32.2107 41.9113 32.2107 40.244 32.2107 38.5261C34.3447 38.3459 36.3999 38.235 38.5265 38.5261C39.8686 40.105 39.8686 40.105 40.4213 41.684C40.8381 40.6419 41.2549 39.5998 41.6844 38.5261C42.3097 38.5261 42.9349 38.5261 43.5792 38.5261C42.7165 40.7634 41.7417 42.9006 40.6581 45.0392C40.3764 45.5969 40.0947 46.1546 39.8045 46.7292C39.4845 47.3581 39.4845 47.3581 39.1581 47.9998C38.116 47.9998 37.0739 47.9998 36.0002 47.9998C36.2086 47.3745 36.417 46.7492 36.6318 46.105C37.257 46.105 37.8823 46.105 38.5265 46.105C38.2197 44.1327 37.8958 42.3182 37.2634 40.4208C36.2213 40.4208 35.1792 40.4208 34.1055 40.4208C34.1055 42.0882 34.1055 43.7556 34.1055 45.4735C30.2198 45.5351 30.2198 45.5351 29.0528 45.4735C28.4213 44.8419 28.4213 44.8419 28.3596 43.6749C28.3904 41.7321 28.3904 41.7321 28.4213 39.7892C27.1707 39.9977 25.9202 40.2061 24.6318 40.4208C25.6739 41.0461 26.716 41.6713 27.7897 42.3156C27.237 44.7629 27.237 44.7629 26.5265 45.4735C25.049 45.292 23.5746 45.0823 22.1055 44.8419C22.1055 44.425 22.1055 44.0082 22.1055 43.5787C23.1476 43.5787 24.1897 43.5787 25.2634 43.5787C24.2213 42.745 23.1792 41.9113 22.1055 41.0524C22.5223 40.2187 22.9392 39.385 23.3686 38.5261C25.2444 38.5261 27.1202 38.5261 29.0528 38.5261C29.0528 37.9008 29.0528 37.2756 29.0528 36.6313Z" fill="#958A5F"/>
<path d="M96.6315 19.5788C96.7048 21.6444 96.7498 23.7097 96.7894 25.7762C96.8212 26.6561 96.8212 26.6561 96.8536 27.5537C96.8617 28.1175 96.8698 28.6813 96.8782 29.2622C96.8915 29.7815 96.9047 30.3008 96.9183 30.8358C96.6315 32.2104 96.6315 32.2104 95.5108 33.342C94.1052 34.1051 94.1052 34.1051 91.5789 34.1051C91.5789 33.4799 91.5789 32.8546 91.5789 32.2104C92.4126 32.002 93.2463 31.7936 94.1052 31.5788C94.1052 30.9536 94.1052 30.3283 94.1052 29.6841C93.506 29.6059 92.9068 29.5278 92.2894 29.4472C90.3157 29.0525 90.3157 29.0525 89.0526 27.7893C88.797 25.8406 88.6452 24.6057 89.0526 22.7367C91.5106 19.9275 93.0033 19.4162 96.6315 19.5788ZM91.7763 22.2236C90.671 23.7498 90.7108 24.6814 90.9473 26.5262C91.3642 26.943 91.781 27.3599 92.2105 27.7893C93.0442 27.7893 93.8778 27.7893 94.7368 27.7893C94.7368 25.7051 94.7368 23.6209 94.7368 21.4736C92.8831 21.2918 92.8831 21.2918 91.7763 22.2236Z" fill="#0C8C60"/>
<path d="M115.579 29.6841C115.579 30.1009 115.579 30.5178 115.579 30.9472C116.413 30.9472 117.246 30.9472 118.105 30.9472C118.522 30.5304 118.939 30.1136 119.368 29.6841C121.448 29.8853 122.441 30.66 123.79 32.2104C122.91 34.3371 121.908 35.3594 120 36.6315C119.375 36.0062 118.75 35.3809 118.105 34.7367C117.728 34.9321 117.35 35.1275 116.961 35.3288C115.579 35.9999 115.579 35.9999 113.684 36.6315C112.605 35.6061 111.553 34.5515 110.526 33.4736C110.526 33.0567 110.526 32.6399 110.526 32.2104C113.276 29.6841 113.276 29.6841 115.579 29.6841Z" fill="#0C8C60"/>
<path d="M91.579 35.3687C91.9958 35.3687 92.4127 35.3687 92.8422 35.3687C93.0506 36.4108 93.259 37.4529 93.4737 38.5265C94.5158 38.735 95.5579 38.9434 96.6316 39.1581C96.6316 41.2423 96.6316 43.3265 96.6316 45.4739C96.0064 45.4739 95.3811 45.4739 94.7369 45.4739C94.5285 43.8065 94.3201 42.1392 94.1053 40.4213C93.6885 40.4213 93.2716 40.4213 92.8422 40.4213C92.8422 42.0887 92.8422 43.756 92.8422 45.4739C88.9565 45.5356 88.9565 45.5356 87.7895 45.4739C86.7389 44.4233 86.9303 43.0849 86.8027 41.645C86.7498 41.0645 86.6968 40.484 86.6423 39.8859C86.5849 39.213 86.5849 39.213 86.5264 38.5265C86.9432 38.5265 87.3601 38.5265 87.7895 38.5265C87.7895 37.9013 87.7895 37.276 87.7895 36.6318C88.2064 36.6318 88.6232 36.6318 89.0527 36.6318C89.0527 37.2571 89.0527 37.8823 89.0527 38.5265C89.4695 38.5265 89.8864 38.5265 90.3158 38.5265C90.3158 38.9434 90.3158 39.3602 90.3158 39.7897C89.899 39.7897 89.4822 39.7897 89.0527 39.7897C89.2611 41.0402 89.4695 42.2908 89.6843 43.5792C90.1011 43.5792 90.5179 43.5792 90.9474 43.5792C90.9401 43.0394 90.9328 42.4996 90.9252 41.9435C90.9195 41.2458 90.9138 40.548 90.9079 39.8292C90.9006 39.1331 90.8933 38.437 90.8857 37.7198C90.9474 36.0002 90.9474 36.0002 91.579 35.3687Z" fill="#958A5F"/>
<path d="M69.4739 19.5787C69.4739 22.9135 69.4739 26.2482 69.4739 29.684C63.3878 29.684 63.3878 29.684 61.895 28.4208C60.9871 26.684 60.9871 26.684 60.6318 24.6314C61.4235 22.108 62.1447 21.0993 64.3424 19.6182C66.316 18.9471 66.316 18.9471 69.4739 19.5787ZM64.3424 21.5524C62.9624 22.6892 62.9624 22.6892 62.9213 24.6708C62.9754 26.601 62.9754 26.601 64.4213 27.7893C65.255 27.7893 66.0887 27.7893 66.9476 27.7893C66.9476 25.4966 66.9476 23.204 66.9476 20.8419C65.6174 20.7434 65.6174 20.7434 64.3424 21.5524Z" fill="#0D8C60"/>
<path d="M0 36.6313C0.625263 36.6313 1.25053 36.6313 1.89474 36.6313C2.72842 38.2987 3.56211 39.9661 4.42105 41.684C4.62703 41.3192 4.83301 40.9545 5.04523 40.5787C5.32123 40.1098 5.59722 39.6408 5.88158 39.1577C6.15269 38.6887 6.4238 38.2198 6.70313 37.7366C6.99215 37.3719 7.28117 37.0071 7.57895 36.6313C8.20421 36.6313 8.82948 36.6313 9.47369 36.6313C9.47369 39.5492 9.47369 42.4671 9.47369 45.4735C8.84842 45.4735 8.22316 45.4735 7.57895 45.4735C7.37053 44.0145 7.16211 42.5556 6.94737 41.0524C6.32211 42.5113 5.69684 43.9703 5.05263 45.4735C3.1579 44.8419 3.1579 44.8419 2.4079 43.5392C2.23855 43.1354 2.06921 42.7316 1.89474 42.3156C1.68632 43.3577 1.47789 44.3998 1.26316 45.4735C0.846316 45.4735 0.429474 45.4735 0 45.4735C0 42.5556 0 39.6377 0 36.6313Z" fill="#958A5F"/>
<path d="M78.3154 13.2632C79.149 13.2632 79.9825 13.2632 80.8413 13.2632C80.8413 18.6821 80.8413 24.1011 80.8413 29.6842C80.0077 29.6842 79.1742 29.6842 78.3154 29.6842C78.3154 24.2653 78.3154 18.8463 78.3154 13.2632Z" fill="#0D8C60"/>
<path d="M62.5264 36.6313C63.1516 36.6313 63.7769 36.6313 64.4211 36.6313C64.4211 37.8819 64.4211 39.1324 64.4211 40.4208C65.6716 40.4208 66.9222 40.4208 68.2106 40.4208C68.2106 39.1703 68.2106 37.9198 68.2106 36.6313C68.8358 36.6313 69.4611 36.6313 70.1053 36.6313C70.1053 39.5492 70.1053 42.4671 70.1053 45.4735C69.4801 45.4735 68.8548 45.4735 68.2106 45.4735C68.2106 44.2229 68.2106 42.9724 68.2106 41.684C66.9601 41.684 65.7095 41.684 64.4211 41.684C64.4211 42.9345 64.4211 44.185 64.4211 45.4735C63.7958 45.4735 63.1706 45.4735 62.5264 45.4735C62.5264 42.5556 62.5264 39.6377 62.5264 36.6313Z" fill="#948A5F"/>
<path d="M53.0527 13.2632C53.6779 13.2632 54.303 13.2632 54.9471 13.2632C54.9471 18.6821 54.9471 24.1011 54.9471 29.6842C54.322 29.6842 53.6968 29.6842 53.0527 29.6842C53.0527 24.2653 53.0527 18.8463 53.0527 13.2632Z" fill="#0D8C60"/>
<path d="M84.6313 20.8423C85.2565 20.8423 85.8818 20.8423 86.526 20.8423C86.5771 22.6979 86.6147 24.5521 86.6444 26.4081C86.6603 26.9344 86.6762 27.4608 86.6925 28.0031C86.7017 28.7633 86.7017 28.7633 86.711 29.5388C86.7259 30.2384 86.7259 30.2384 86.7411 30.952C86.4628 32.5808 85.9463 33.1296 84.6313 34.1054C82.6181 34.2239 82.6181 34.2239 80.8418 34.1054C81.1544 33.1676 81.1544 33.1676 81.4734 32.2107C82.3071 32.2107 83.1407 32.2107 83.9997 32.2107C84.3123 26.5833 84.3123 26.5833 84.6313 20.8423Z" fill="#0C8C60"/>
<path d="M82.1056 38.5264C83.3688 39.7895 83.3688 39.7895 83.4921 41.1563C83.4775 41.6692 83.4628 42.1821 83.4477 42.7106C83.4363 43.2267 83.4249 43.7429 83.4132 44.2747C83.3912 44.8682 83.3912 44.8682 83.3688 45.4737C81.7014 45.4737 80.034 45.4737 78.3161 45.4737C77.8554 43.2854 77.6846 41.3911 77.6846 39.1579C79.2716 38.3644 80.3479 38.3945 82.1056 38.5264ZM79.5793 39.7895C79.5793 40.2064 79.5793 40.6232 79.5793 41.0527C80.2046 41.0527 80.8298 41.0527 81.474 41.0527C81.474 40.6358 81.474 40.219 81.474 39.7895C80.8488 39.7895 80.2235 39.7895 79.5793 39.7895ZM80.2109 42.3158C80.0025 42.9411 79.794 43.5664 79.5793 44.2106C80.2046 44.0021 80.8298 43.7937 81.474 43.579C81.474 43.1621 81.474 42.7453 81.474 42.3158C81.0572 42.3158 80.6404 42.3158 80.2109 42.3158Z" fill="#958A5F"/>
<path d="M73.2631 20.8423C73.8884 20.8423 74.5136 20.8423 75.1578 20.8423C75.2261 22.5798 75.2762 24.3146 75.3157 26.0528C75.3475 26.7892 75.3475 26.7892 75.3799 27.5405C75.4422 31.1887 75.4422 31.1887 73.9934 33.1778C72.3552 34.2937 71.4169 34.3214 69.4736 34.1054C69.7863 33.1675 69.7863 33.1675 70.1052 32.2107C70.9389 32.2107 71.7726 32.2107 72.6315 32.2107C72.9442 26.5833 72.9442 26.5833 73.2631 20.8423Z" fill="#0D8C60"/>
<path d="M13.2627 38.5262C17.1484 38.4646 17.1484 38.4646 18.3153 38.5262C18.9469 39.1578 18.9469 39.1578 19.0086 40.6011C19.0013 41.1799 18.9939 41.7588 18.9864 42.3552C18.9807 42.9357 18.975 43.5162 18.9691 44.1142C18.9618 44.5628 18.9545 45.0114 18.9469 45.4736C18.3216 45.4736 17.6964 45.4736 17.0522 45.4736C16.8437 43.8062 16.6353 42.1389 16.4206 40.421C16.0037 40.421 15.5869 40.421 15.1574 40.421C15.1574 42.0883 15.1574 43.7557 15.1574 45.4736C14.5322 45.4736 13.9069 45.4736 13.2627 45.4736C13.2627 43.181 13.2627 40.8883 13.2627 38.5262Z" fill="#958A5F"/>
<path d="M75.7893 38.5264C77.0524 39.7896 77.0524 39.7896 77.0524 41.6843C75.5935 41.6843 74.1345 41.6843 72.6314 41.6843C73.2566 42.6222 73.2566 42.6222 73.8945 43.5791C74.9366 43.1622 75.9787 42.7454 77.0524 42.3159C76.4998 44.7633 76.4998 44.7633 75.7893 45.4738C74.0148 45.6606 73 45.7153 71.4866 44.7238C70.468 43.1691 70.4629 42.246 70.7366 40.4212C72.0953 38.3473 73.4049 38.2207 75.7893 38.5264ZM72.6314 39.7896C75.1577 40.4212 75.1577 40.4212 75.1577 40.4212L72.6314 39.7896Z" fill="#958A5F"/>
<path d="M51.7893 38.5264C52.934 39.2764 52.934 39.2764 53.684 40.4212C53.9536 42.218 53.9118 43.1771 53.013 44.7633C51.0847 45.8829 49.4751 45.2795 47.3683 44.8422C46.526 40.784 46.526 40.784 47.4472 39.1975C49.0334 38.2986 49.9925 38.2569 51.7893 38.5264ZM49.263 39.7896C48.4443 40.4631 48.4443 40.4631 48.5919 42.0396C48.605 42.5476 48.618 43.0556 48.6314 43.579C49.4651 43.7875 50.2988 43.9959 51.1577 44.2106C51.7907 41.9475 51.7907 41.9475 51.1577 39.7896C50.5325 39.7896 49.9072 39.7896 49.263 39.7896Z" fill="#958A5F"/>
<path d="M59.3688 35.9999C59.3688 36.6251 59.3688 37.2504 59.3688 37.8946C58.9519 37.8946 58.5351 37.8946 58.1056 37.8946C58.1056 37.4778 58.1056 37.0609 58.1056 36.6314C57.6888 36.6314 57.2719 36.6314 56.8425 36.6314C56.8425 37.2567 56.8425 37.882 56.8425 38.5262C57.4677 38.5262 58.093 38.5262 58.7372 38.5262C58.7372 38.943 58.7372 39.3599 58.7372 39.7893C58.1119 39.7893 57.4867 39.7893 56.8425 39.7893C56.8425 41.6651 56.8425 43.5409 56.8425 45.4736C56.2172 45.4736 55.5919 45.4736 54.9477 45.4736C54.9477 43.5978 54.9477 41.722 54.9477 39.7893C54.5309 39.7893 54.114 39.7893 53.6846 39.7893C53.6846 39.3725 53.6846 38.9557 53.6846 38.5262C54.1014 38.5262 54.5183 38.5262 54.9477 38.5262C55.0259 38.1224 55.104 37.7185 55.1846 37.3025C55.3148 36.8726 55.4451 36.4428 55.5793 35.9999C57.1525 35.2133 57.7335 35.5093 59.3688 35.9999Z" fill="#958A5F"/>
<path d="M84.631 35.3687C85.0478 35.3687 85.4645 35.3687 85.8939 35.3687C85.8939 38.7034 85.8939 42.0381 85.8939 45.4739C85.2688 45.4739 84.6436 45.4739 83.9995 45.4739C83.9826 43.9081 83.97 42.3424 83.9601 40.7765C83.9521 40.1067 83.9521 40.1067 83.944 39.4233C83.9386 38.2822 83.9666 37.1409 83.9995 36.0002C84.2079 35.7918 84.4163 35.5834 84.631 35.3687Z" fill="#948A5F"/>
<path d="M19.5791 38.5264C20.4126 38.7348 21.2461 38.9432 22.1049 39.1579C21.8965 41.2422 21.6882 43.3264 21.4735 45.4737C20.8483 45.4737 20.2232 45.4737 19.5791 45.4737C19.5791 43.1811 19.5791 40.8885 19.5791 38.5264Z" fill="#958A5F"/>
<path d="M10.7373 38.5264C11.3624 38.5264 11.9876 38.5264 12.6317 38.5264C12.6317 40.819 12.6317 43.1116 12.6317 45.4737C12.0065 45.4737 11.3814 45.4737 10.7373 45.4737C10.7373 43.1811 10.7373 40.8885 10.7373 38.5264Z" fill="#958A5F"/>
<path d="M84.6315 15.1577C85.8817 15.4703 85.8817 15.4703 87.1573 15.7893C86.9489 16.4146 86.7405 17.0398 86.5258 17.684C85.6923 17.4756 84.8588 17.2672 84 17.0525C84.2084 16.4272 84.4168 15.8019 84.6315 15.1577Z" fill="#0D8C60"/>
<path d="M63.7897 15.1577C65.0399 15.4703 65.0399 15.4703 66.3155 15.7893C66.1071 16.4146 65.8987 17.0398 65.684 17.684C64.8505 17.4756 64.017 17.2672 63.1582 17.0525C63.3666 16.4272 63.575 15.8019 63.7897 15.1577Z" fill="#0D8C60"/>
<path d="M2.52599 15.1577C3.77627 15.4703 3.77627 15.4703 5.05181 15.7893C4.84343 16.4146 4.63505 17.0398 4.42035 17.684C3.58683 17.4756 2.75331 17.2672 1.89453 17.0525C2.10291 16.4272 2.31129 15.8019 2.52599 15.1577Z" fill="#0D8C60"/>
<path d="M66.9473 15.1577C67.7808 15.3661 68.6143 15.5746 69.4731 15.7893C69.2647 16.4146 69.0563 17.0398 68.8416 17.684C68.2165 17.684 67.5913 17.684 66.9473 17.684C66.9473 16.8503 66.9473 16.0167 66.9473 15.1577Z" fill="#0D8C60"/>
<path d="M5.68457 15.1577C6.51809 15.3661 7.35161 15.5746 8.21039 15.7893C8.00201 16.4146 7.79363 17.0398 7.57894 17.684C6.9538 17.684 6.32865 17.684 5.68457 17.684C5.68457 16.8503 5.68457 16.0167 5.68457 15.1577Z" fill="#0D8C60"/>
<path d="M10.7369 35.3687C11.3621 35.3687 11.9872 35.3687 12.6313 35.3687C12.6313 35.9939 12.6313 36.6192 12.6313 37.2634C11.7978 37.2634 10.9642 37.2634 10.1055 37.2634C10.3138 36.6381 10.5222 36.0129 10.7369 35.3687Z" fill="#958A5F"/>
<path d="M19.5791 35.3687C20.4126 35.5771 21.2461 35.7855 22.1049 36.0002C21.8965 36.4171 21.6882 36.8339 21.4735 37.2634C20.8483 37.2634 20.2232 37.2634 19.5791 37.2634C19.5791 36.6381 19.5791 36.0129 19.5791 35.3687Z" fill="#958A5F"/>
</g>
<defs>
<clipPath id="clip0_13_5770">
<rect width="179.368" height="48" fill="white"/>
</clipPath>
</defs>
</svg>
