<svg width="91" height="48" viewBox="0 0 91 48" fill="none" xmlns="http://www.w3.org/2000/svg">
<g clip-path="url(#clip0_13_5015)">
<path d="M47.5216 2.07307C47.5216 0.637856 47.7608 0.398673 49.0366 0.398673C50.3123 0.398673 50.5515 0.558122 50.5515 2.07307V16.9834C50.5515 17.701 50.9501 18.4186 51.7475 18.4186H62.4319C63.3887 18.4186 63.5482 17.6213 63.5482 16.9834V11.7209C63.5482 10.2059 63.7874 10.0465 65.0631 10.0465C66.3389 10.0465 66.5781 10.2059 66.5781 11.7209V16.9834C66.5781 17.701 66.9768 18.4186 67.7741 18.4186H74.9502C75.907 18.4186 75.7475 17.6213 75.7475 16.9834V11.7209C75.7475 10.2059 76.3854 10.0465 77.6611 10.0465C78.9369 10.0465 79.5748 10.2059 79.5748 11.7209V16.9834C79.5748 17.701 79.5748 18.4186 80.5316 18.4186H85.9535C86.9103 18.4186 87.2292 17.6213 87.2292 16.9834V11.7209C87.2292 10.2059 87.4684 10.0465 88.7442 10.0465C90.0199 10.0465 90.2592 10.2059 90.2592 11.7209V16.9834C90.2592 20.1728 89.4618 20.8106 86.4319 20.8106H51.2691C48.2392 20.8106 47.5216 20.093 47.5216 16.9834V2.07307ZM24.9568 0.956774C25.7541 1.99332 25.7541 2.31229 24.5581 3.18937L16.4252 9.72754C16.186 9.88701 16.1063 10.4452 16.6644 10.4452H28.2259C31.0166 10.4452 31.4153 10.7641 31.4153 13.4751V16.9036C31.4153 17.6212 31.7342 18.3389 32.5316 18.3389H39.7076C40.5847 18.3389 40.505 17.5415 40.505 16.9036V11.6412C40.505 10.1262 41.1429 9.96678 42.4186 9.96678C43.6944 9.96678 44.3322 10.1262 44.3322 11.6412V16.9036C44.3322 20.093 43.3754 20.7309 40.2658 20.7309H0C0.239203 19.1362 1.99333 18.3389 4.30562 18.3389H27.1894C27.907 18.3389 28.3057 17.8605 28.3057 17.1429V13.7142C28.3057 13.0764 27.9867 12.7575 27.1894 12.7575H14.5116C12.3588 12.7575 11.7209 11.5614 11.7209 10.5249C11.7209 9.56807 12.4385 8.77073 13.2359 8.13285L22.7243 0.637866C23.9203 -0.159476 24.1595 -0.159505 24.9568 0.956774ZM37.4751 26.8704L36.6777 27.7475C35.7209 28.7043 34.9236 28.784 34.1262 28.0664C33.3289 27.2691 33.4086 26.392 34.3654 25.4352L35.2425 24.5581C36.1993 23.6013 36.9967 23.5216 37.794 24.2392C38.5116 25.0365 38.4319 25.9136 37.4751 26.8704Z" fill="#0047AF"/>
<path d="M38.0331 47.9202C40.0265 47.9202 40.6643 47.2824 40.6643 45.289V44.093C40.6643 42.0199 40.1062 41.5415 38.0331 41.5415H31.4949C31.4151 41.5415 31.3354 41.5415 31.3354 41.4618C31.3354 41.2226 34.1261 39.3887 39.4683 39.2292C40.3454 39.2292 40.4251 38.8305 40.4251 38.0332C40.4251 37.3156 40.1859 36.9169 39.2291 36.9169C32.2125 36.9169 28.146 40.5847 28.146 42.4983C28.146 43.3754 28.6245 43.9335 30.4583 43.9335H37.3952C37.9533 43.9335 37.6344 43.9335 37.6344 44.3322V45.0498C37.6344 45.4485 37.8736 45.5282 37.3952 45.5282H28.0663C26.3919 45.5282 25.1162 46.3256 24.877 47.9202H38.0331ZM73.0364 34.0465L72.4782 34.6046C71.6809 35.402 71.1228 35.4817 70.4849 34.8438C69.847 34.2059 69.9268 33.4884 70.7241 32.7707L71.2822 32.1329C72.0796 31.4153 72.6377 31.2558 73.2756 31.8937C73.8337 32.6113 73.754 33.3289 73.0364 34.0465ZM43.3753 47.9202C42.4184 47.9202 41.7009 47.6013 41.7009 46.2458C41.7009 40.6645 47.4417 36.9169 49.754 36.9169C50.5513 36.9169 50.7108 37.4751 50.7108 38.1927V41.701C50.7108 42.6578 50.7108 42.9767 49.5946 42.9767C48.558 42.9767 48.4783 42.6578 48.4783 41.701V39.8671C48.4783 39.7874 48.558 39.7873 48.558 39.7873C47.6012 39.7873 44.3321 42.7375 44.3321 45.1295C44.3321 45.3688 44.4118 45.5282 45.0497 45.5282H51.7473C52.3055 45.5282 52.3055 45.3688 52.3055 44.8904V35.3222C52.3055 34.206 52.8637 33.9668 53.8205 33.9668C54.7773 33.9668 55.3354 34.1262 55.3354 35.3222V44.8904C55.3354 47.2027 54.3786 47.9202 52.146 47.9202H43.3753ZM59.4816 47.9202C57.249 47.9202 56.6909 47.2027 56.6909 44.8904V29.3422C56.6909 28.2259 56.8504 28.0664 57.8072 28.0664C58.764 28.0664 58.9234 28.2259 58.9234 29.3422V44.8904C58.9234 45.3688 59.2424 45.5282 59.8005 45.5282H66.4185C67.0563 45.5282 67.0563 45.3688 67.0563 45.1295C67.0563 44.0133 65.5414 40.7442 60.8371 39.309C59.96 39.0698 59.8803 38.5913 60.1992 37.794C60.5181 36.9169 61.0763 36.9169 61.7141 37.0764C67.2158 38.7508 69.6078 42.5781 69.6078 46.2458C69.6078 47.6013 68.8105 47.9202 67.9334 47.9202H59.4816ZM71.2025 46.3256V39.5482C71.2025 39.3887 71.362 39.1495 71.1228 39.1495H70.6444C69.6876 39.1495 69.3686 38.8305 69.3686 37.9535C69.3686 37.0764 69.6876 36.7575 70.6444 36.7575H72.7175C73.4351 36.7575 73.5945 37.3156 73.5945 38.1129V46.5648C73.5945 47.681 73.3553 47.9202 72.4782 47.9202C71.5214 47.9202 71.2822 47.7608 71.2822 46.5648V46.3256H71.2025ZM75.3487 46.2458C75.3487 42.1794 78.6975 36.9169 85.5547 36.9169C86.352 36.9169 86.5115 37.4751 86.5115 38.1927V41.701C86.5115 42.6578 86.4317 42.9767 85.3952 42.9767C84.3587 42.9767 84.2789 42.6578 84.2789 41.701V39.8671C84.2789 39.5482 84.2789 39.4684 84.1195 39.4684C80.4517 39.4684 77.8204 43.3754 77.8204 45.1295C77.8204 45.3688 77.9002 45.5282 78.5381 45.5282H87.3886C89.063 45.5282 90.3387 46.3256 90.5779 47.9202H77.1826C76.146 47.9202 75.3487 47.6013 75.3487 46.2458Z" fill="#FF9700"/>
</g>
<defs>
<clipPath id="clip0_13_5015">
<rect width="90.4186" height="48" fill="white"/>
</clipPath>
</defs>
</svg>
