<svg width="164" height="48" viewBox="0 0 164 48" fill="none" xmlns="http://www.w3.org/2000/svg">
<g clip-path="url(#clip0_13_5419)">
<mask id="mask0_13_5419" style="mask-type:luminance" maskUnits="userSpaceOnUse" x="0" y="0" width="164" height="48">
<path d="M163.2 0H0V48H163.2V0Z" fill="white"/>
</mask>
<g mask="url(#mask0_13_5419)">
<path d="M149.382 46.7541C149.382 46.9995 149.308 47.2392 149.171 47.4429C149.034 47.6466 148.84 47.8052 148.613 47.8986C148.386 47.992 148.137 48.0161 147.897 47.9677C147.656 47.9193 147.435 47.8008 147.262 47.627C147.088 47.4531 146.971 47.2318 146.923 46.991C146.875 46.7502 146.901 46.5008 146.994 46.274C147.088 46.0473 147.247 45.8536 147.451 45.7173C147.656 45.581 147.895 45.5083 148.141 45.5083C148.304 45.5083 148.466 45.5406 148.617 45.6032C148.768 45.6659 148.905 45.7577 149.02 45.8734C149.136 45.9891 149.227 46.1265 149.289 46.2776C149.351 46.4288 149.383 46.5906 149.382 46.7541Z" fill="#F6780D"/>
<path d="M147.695 0.471914L148.471 0.170759V1.7363C148.471 2.1337 148.657 2.34093 148.961 2.34093C149.246 2.34093 149.376 2.11662 149.376 1.7363V0.265453L150.152 0V1.79218C150.167 1.95123 150.149 2.11174 150.098 2.26324C150.047 2.41474 149.965 2.55383 149.856 2.67144C149.748 2.78906 149.617 2.88256 149.47 2.94584C149.324 3.00912 149.165 3.04076 149.006 3.03871C148.689 3.03854 148.383 2.93252 148.134 2.73756C147.91 2.91041 147.641 3.01496 147.358 3.03871C146.854 3.0783 146.021 2.84933 146.021 1.55002V0.684582L146.817 0.398176V1.74017C146.817 2.13757 147.002 2.34481 147.282 2.34481C147.563 2.34481 147.696 2.1205 147.696 1.74017L147.695 0.471914Z" fill="#F6780D"/>
<path d="M144.593 24.1136C144.588 23.1606 144.961 22.2446 145.63 21.566C146.299 20.8874 147.209 20.5015 148.162 20.4927V22.0916C147.632 22.0998 147.128 22.317 146.759 22.6958C146.389 23.0746 146.185 23.5843 146.189 24.1136C146.186 24.642 146.392 25.1502 146.761 25.5281C147.13 25.9059 147.634 26.1228 148.162 26.1316V27.7282C147.209 27.7194 146.3 27.3339 145.631 26.656C144.962 25.9781 144.589 25.0629 144.593 24.1104V24.1136Z" fill="#FF9D10"/>
<path d="M142.6 24.1133H143.582C143.578 25.3336 144.058 26.5057 144.917 27.3722C145.776 28.2389 146.943 28.7294 148.163 28.7362C149.384 28.7314 150.553 28.2418 151.414 27.3749C152.275 26.5081 152.755 25.3349 152.752 24.1133H153.734C153.739 25.5962 153.154 27.0201 152.108 28.0717C151.063 29.1233 149.643 29.7166 148.161 29.7211C146.681 29.7133 145.264 29.1185 144.221 28.0673C143.179 27.0161 142.595 25.5941 142.6 24.1133Z" fill="#F6780D"/>
<path d="M148.185 15.6987H148.158V17.5616H148.185C149.044 17.5616 149.896 17.731 150.69 18.0602C151.485 18.3894 152.206 18.872 152.815 19.4803C153.423 20.0886 153.905 20.8107 154.234 21.6056C154.563 22.4003 154.732 23.2522 154.732 24.1125C154.732 24.9728 154.563 25.8246 154.234 26.6194C153.905 27.4142 153.423 28.1363 152.815 28.7447C152.206 29.3529 151.485 29.8355 150.69 30.1647C149.896 30.4939 149.044 30.6633 148.185 30.6633H148.158V32.5262H148.185C150.414 32.5262 152.553 31.6399 154.13 30.0624C155.707 28.4849 156.593 26.3453 156.593 24.1144C156.593 21.8835 155.707 19.7439 154.13 18.1664C152.553 16.5889 150.414 15.7026 148.185 15.7026V15.6987Z" fill="#FF9D10"/>
<path d="M148.159 32.5216C145.943 32.5003 143.825 31.6048 142.266 30.0298C140.707 28.4547 139.832 26.3275 139.832 24.1106C139.832 21.8938 140.707 19.7666 142.266 18.1916C143.825 16.6165 145.943 15.721 148.159 15.6997V13.1709C145.259 13.1709 142.477 14.3236 140.426 16.3752C138.376 18.4269 137.224 21.2095 137.224 24.1111C137.224 27.0125 138.376 29.7952 140.426 31.8469C142.477 33.8986 145.259 35.0512 148.159 35.0512V32.5216Z" fill="#006CBB"/>
<path d="M148.164 35.745C149.69 35.7476 151.203 35.4479 152.614 34.8632C154.024 34.2785 155.305 33.4205 156.383 32.3385C157.464 31.259 158.321 29.9765 158.906 28.5647C159.491 27.1527 159.791 25.6392 159.79 24.111C159.791 22.5827 159.491 21.0692 158.906 19.6572C158.322 18.2453 157.464 16.9628 156.383 15.8836C155.305 14.8015 154.024 13.9433 152.614 13.3585C151.203 12.7737 149.69 12.4739 148.164 12.4762V11.7373C151.443 11.7387 154.587 13.0431 156.905 15.3633C159.223 17.6837 160.524 20.83 160.523 24.1103C160.524 25.7346 160.205 27.3431 159.584 28.8439C158.963 30.3448 158.053 31.7087 156.905 32.8576C155.758 34.0065 154.395 34.9181 152.895 35.5402C151.395 36.1623 149.788 36.4827 148.164 36.4832V35.7428V35.745Z" fill="#006CBB"/>
<path d="M148.161 37.6739C149.943 37.6778 151.707 37.3288 153.354 36.6471C154.999 35.9655 156.495 34.9646 157.752 33.7023C159.013 32.445 160.014 30.9504 160.695 29.3048C161.377 27.6591 161.727 25.8948 161.724 24.1134C161.727 22.3316 161.379 20.5667 160.697 18.9205C160.015 17.2743 159.014 15.7795 157.752 14.5223C156.494 13.2607 154.999 12.2604 153.353 11.5789C151.707 10.8974 149.943 10.5482 148.161 10.5514V9.07666C150.135 9.07606 152.091 9.4645 153.915 10.2199C155.74 10.9753 157.398 12.0828 158.794 13.4792C160.191 14.8755 161.299 16.5335 162.055 18.3582C162.811 20.183 163.2 22.1388 163.201 24.1142C163.2 28.1033 161.614 31.9284 158.794 34.7483C155.973 37.568 152.148 39.1514 148.161 39.1502V37.6755V37.6739Z" fill="#00A1ED"/>
<path d="M129.718 24.1135C129.718 21.6913 130.196 19.293 131.123 17.0554C132.051 14.8179 133.409 12.785 135.121 11.0729C136.834 9.36073 138.867 8.00293 141.105 7.07695C143.342 6.15103 145.74 5.67505 148.161 5.67627V9.36307C146.223 9.36007 144.303 9.73999 142.512 10.4811C140.721 11.2222 139.095 12.3099 137.725 13.6817C136.354 15.05 135.267 16.6761 134.526 18.4664C133.785 20.2567 133.406 22.1759 133.41 24.1135C133.406 26.0508 133.786 27.9696 134.526 29.7596C135.267 31.5496 136.354 33.1755 137.725 34.5436C139.095 35.9156 140.721 37.0036 142.512 37.7452C144.303 38.4868 146.223 38.8675 148.161 38.8654V42.5522C145.74 42.5534 143.342 42.0774 141.105 41.1514C138.867 40.2254 136.834 38.8675 135.121 37.1553C133.409 35.4431 132.05 33.4101 131.123 31.1725C130.196 28.9349 129.718 26.5357 129.718 24.1135Z" fill="#00A1ED"/>
<path d="M0.155078 37.9727H0.709817V39.9907H0.787409L2.90783 37.9727H3.70619L1.39955 40.0986L3.81481 42.6351H3.00792L0.786629 40.2647H0.709037V42.6351H0.154297L0.155078 37.9727Z" fill="#006CBB" stroke="#006CBB" stroke-width="0.4" stroke-miterlimit="10"/>
<path d="M8.98571 37.9727H9.50555L11.4879 42.6351H10.8424L10.3691 41.4895H8.04149L7.56047 42.6351H6.93359L8.98571 37.9727ZM9.23711 38.6852H9.22313L8.25329 40.9757H10.1588L9.23711 38.6852Z" fill="#006CBB" stroke="#006CBB" stroke-width="0.4" stroke-miterlimit="10"/>
<path d="M13.1204 40.2871C13.2983 40.2868 13.4723 40.3393 13.6204 40.438C13.7685 40.5367 13.8841 40.6772 13.9523 40.8416C14.0206 41.006 14.0386 41.1869 14.004 41.3615C13.9694 41.5362 13.8838 41.6966 13.758 41.8225C13.6322 41.9484 13.472 42.0342 13.2974 42.069C13.1229 42.1037 12.942 42.0859 12.7776 42.0178C12.6132 41.9496 12.4727 41.8341 12.374 41.6861C12.2752 41.538 12.2225 41.3639 12.2227 41.1859C12.2227 40.9477 12.3172 40.7192 12.4856 40.5506C12.6539 40.3821 12.8822 40.2874 13.1204 40.2871Z" fill="#F6780D"/>
<path d="M5.2961 40.2871C5.47405 40.2868 5.6481 40.3393 5.7962 40.438C5.9443 40.5367 6.05978 40.6772 6.12806 40.8416C6.19634 41.006 6.21434 41.1869 6.17972 41.3615C6.14516 41.5362 6.05954 41.6966 5.93377 41.8225C5.808 41.9484 5.64772 42.0342 5.47319 42.069C5.29867 42.1037 5.11775 42.0859 4.95337 42.0178C4.78898 41.9496 4.64849 41.8341 4.54971 41.6861C4.45093 41.538 4.39828 41.3639 4.39844 41.1859C4.39834 41.068 4.42148 40.9511 4.46654 40.842C4.51161 40.733 4.57771 40.6339 4.66108 40.5504C4.74445 40.4669 4.84345 40.4007 4.95241 40.3556C5.06137 40.3104 5.17816 40.2871 5.2961 40.2871Z" fill="#F6780D"/>
<path d="M18.2412 38.9335C18.1054 38.7542 17.9292 38.6095 17.727 38.5112C17.5248 38.4129 17.3022 38.3637 17.0774 38.3677C16.8333 38.3775 16.5936 38.4354 16.372 38.5381C16.1504 38.6408 15.9512 38.7863 15.786 38.9663C15.6207 39.1462 15.4927 39.357 15.4091 39.5866C15.3256 39.8162 15.2881 40.0601 15.2991 40.3042C15.2827 40.5495 15.3162 40.7956 15.3978 41.0275C15.4793 41.2594 15.6071 41.4722 15.7734 41.6532C15.9397 41.8342 16.1411 41.9795 16.3653 42.0802C16.5894 42.1809 16.8317 42.235 17.0774 42.2392C17.3377 42.2453 17.5958 42.1894 17.8304 42.0762C18.065 41.963 18.2693 41.7957 18.4266 41.588L18.8402 41.9365C18.636 42.2069 18.3686 42.4229 18.0613 42.5654C17.754 42.708 17.4163 42.7727 17.0781 42.7538C16.4394 42.7377 15.8322 42.4726 15.3862 42.015C14.9401 41.5573 14.6904 40.9434 14.6904 40.3042C14.6904 39.665 14.9401 39.0511 15.3862 38.5935C15.8322 38.1358 16.4394 37.8707 17.0781 37.8546C17.3904 37.8404 17.7016 37.8991 17.9874 38.0258C18.273 38.1526 18.5255 38.344 18.7245 38.585L18.2412 38.9335Z" fill="#006CBB" stroke="#006CBB" stroke-width="0.4" stroke-miterlimit="10"/>
<path d="M21.7129 37.9727H22.2311L24.215 42.6351H23.5672L23.0939 41.4895H20.7601L20.2807 42.6351H19.6553L21.7129 37.9727ZM21.9619 38.6852H21.9479L20.9789 40.9757H22.8829L21.9619 38.6852Z" fill="#006CBB" stroke="#006CBB" stroke-width="0.4" stroke-miterlimit="10"/>
<path d="M25.4955 37.9727H26.6911C27.5927 37.9727 28.547 38.1054 28.547 39.2573C28.5515 39.5736 28.4324 39.8793 28.2151 40.1093C27.9977 40.3391 27.6992 40.4751 27.3832 40.4882L28.7021 42.6359H28.0248L26.7617 40.5402H26.0479V42.6359H25.4932L25.4955 37.9727ZM26.0503 40.028H26.546C27.1605 40.028 27.955 40.028 27.955 39.2573C27.955 38.5859 27.3707 38.4881 26.83 38.4881H26.0503V40.028Z" fill="#006CBB" stroke="#006CBB" stroke-width="0.4" stroke-miterlimit="10"/>
<path d="M30.7402 37.9727H33.6699V38.4881H31.2958V39.9488H33.5132V40.4626H31.2958V42.1197H33.7879V42.6351H30.7402V37.9727Z" fill="#006CBB" stroke="#006CBB" stroke-width="0.4" stroke-miterlimit="10"/>
<path d="M38.0112 40.7608C37.9794 40.9948 37.998 41.2329 38.0658 41.4591C38.1335 41.6854 38.2489 41.8945 38.4042 42.0724C38.5594 42.2503 38.751 42.3929 38.9659 42.4906C39.1808 42.5883 39.4141 42.6389 39.6502 42.6389C39.8863 42.6389 40.1197 42.5883 40.3346 42.4906C40.5495 42.3929 40.741 42.2503 40.8963 42.0724C41.0516 41.8945 41.167 41.6854 41.2347 41.4591C41.3025 41.2329 41.3211 40.9948 41.2893 40.7608V38.8979H39.6367C39.4049 38.9054 39.1772 38.9606 38.9677 39.06C38.7582 39.1594 38.5713 39.3009 38.4189 39.4756C38.2664 39.6504 38.1515 39.8547 38.0814 40.0758C38.0112 40.2969 37.9873 40.53 38.0112 40.7608ZM40.8299 40.7608C40.8299 41.4174 40.501 42.2541 39.6367 42.2541C38.8119 42.2541 38.4628 41.433 38.4628 40.7608C38.4628 40.0886 38.8228 39.2806 39.6367 39.2806H40.8299V40.7608Z" fill="#464749" stroke="#464749" stroke-width="0.3" stroke-miterlimit="10"/>
<path d="M41.1384 37.3057H40.6484V37.8319H41.1384V37.3057Z" fill="#464749" stroke="#464749" stroke-width="0.3" stroke-miterlimit="10"/>
<path d="M39.4726 37.3057H38.9795V37.8319H39.4726V37.3057Z" fill="#464749" stroke="#464749" stroke-width="0.3" stroke-miterlimit="10"/>
<path d="M59.2917 43.7607H58.8018V44.2917H59.2917V43.7607Z" fill="#464749" stroke="#464749" stroke-width="0.3" stroke-miterlimit="10"/>
<path d="M67.7858 37.2866H67.291V37.8191H67.7858V37.2866Z" fill="#464749" stroke="#464749" stroke-width="0.3" stroke-miterlimit="10"/>
<path d="M66.1106 37.2866H65.6182V37.8191H66.1106V37.2866Z" fill="#464749" stroke="#464749" stroke-width="0.3" stroke-miterlimit="10"/>
<path d="M82.4796 41.2735C82.4946 41.401 82.4814 41.5302 82.4406 41.6519C82.3992 41.7736 82.332 41.8846 82.2426 41.977C82.1538 42.0693 82.0452 42.1407 81.9252 42.1859C81.8052 42.2311 81.6762 42.249 81.5484 42.2383H78.9492C78.8202 42.2418 78.6912 42.2195 78.5712 42.1727C78.4506 42.1259 78.3402 42.0555 78.2478 41.9656C78.1548 41.8758 78.0804 41.7684 78.0294 41.6495C77.9784 41.5306 77.952 41.4028 77.9508 41.2735C77.9664 40.819 77.802 40.3767 77.4918 40.0438C77.1822 39.7108 76.7532 39.5144 76.299 39.4977C75.8436 39.522 75.4158 39.7244 75.1086 40.0613C74.8014 40.3982 74.6388 40.8425 74.6556 41.2984C74.658 41.4222 74.6358 41.5451 74.5896 41.66C74.5434 41.7748 74.4744 41.8792 74.3874 41.967C74.2998 42.0547 74.196 42.1239 74.0814 42.1705C73.9668 42.2172 73.8438 42.2402 73.7202 42.2383H68.8266C68.6772 42.2427 68.529 42.2148 68.3916 42.1567C68.2542 42.0985 68.1306 42.0114 68.0298 41.9013C67.929 41.7912 67.8534 41.6607 67.8078 41.5186C67.7616 41.3765 67.7472 41.2262 67.7646 41.0779V39.3952H67.3386V41.2728C67.3536 41.4002 67.3404 41.5294 67.2996 41.6511C67.2582 41.7728 67.191 41.8839 67.1016 41.9762C67.0128 42.0685 66.9042 42.1399 66.7842 42.1851C66.6642 42.2303 66.5352 42.2482 66.4074 42.2375H60.9282V41.7897C60.9282 40.398 60.2796 39.1453 58.756 39.1453C58.5612 39.122 58.3638 39.1378 58.1753 39.1919C57.9868 39.246 57.8109 39.337 57.658 39.4599C57.5051 39.5828 57.3783 39.735 57.2849 39.9075C57.1915 40.0801 57.1335 40.2695 57.1143 40.4647H57.5084C57.5545 40.1783 57.7109 39.9212 57.9441 39.7486C58.1772 39.576 58.4686 39.5015 58.756 39.5411C60.048 39.5411 60.5142 40.7465 60.5016 41.7874L60.4932 42.2352H48.7396V40.3072C48.7396 39.5007 48.2741 39.1429 47.4982 39.1429C47.3943 39.1438 47.2906 39.1524 47.1879 39.1686V39.562C47.2903 39.5435 47.3942 39.5349 47.4982 39.5365C47.9893 39.5365 48.2609 39.715 48.3059 40.2932V42.2445H46.0869V42.6435H66.519C66.7698 42.6658 67.0212 42.6007 67.2294 42.4593C67.4376 42.3178 67.5906 42.1087 67.6626 41.8673C67.7742 42.1005 67.9494 42.2973 68.1678 42.4347C68.3868 42.5721 68.64 42.6445 68.898 42.6435H73.8288C74.0148 42.6511 74.2002 42.6126 74.3682 42.5314C74.5362 42.4501 74.6814 42.3286 74.7912 42.1777C74.8968 42.4934 75.0996 42.7674 75.3708 42.9603C75.642 43.1532 75.9672 43.255 76.2996 43.2512C76.6668 43.2515 77.0232 43.1259 77.3094 42.8952C77.595 42.6646 77.793 42.3429 77.871 41.9837C77.9922 42.1795 78.1602 42.3426 78.3594 42.4585C78.5586 42.5745 78.7836 42.6399 79.0134 42.6489H81.6588C81.8382 42.6509 82.0164 42.6138 82.1802 42.5402C82.3446 42.4666 82.4904 42.3582 82.6086 42.2225C82.7268 42.0868 82.8138 41.9271 82.8642 41.7544C82.9146 41.5818 82.9266 41.4001 82.9002 41.2223V37.5688H82.4778L82.4796 41.2735ZM76.2984 42.8554C75.4542 42.8554 75.1098 42.0264 75.1098 41.369C75.1098 40.7116 75.4542 39.8811 76.2984 39.8811C77.142 39.8811 77.496 40.7201 77.496 41.369C77.496 42.0179 77.1522 42.8554 76.2984 42.8554Z" fill="#464749" stroke="#464749" stroke-width="0.3" stroke-miterlimit="10"/>
<path d="M84.8313 37.5581H84.4092V42.6382H84.8313V37.5581Z" fill="#464749" stroke="#464749" stroke-width="0.3" stroke-miterlimit="10"/>
<path d="M86.4974 40.9477C86.4962 41.1737 86.5412 41.3974 86.6282 41.6058C86.7158 41.8141 86.8442 42.0028 87.0056 42.1605C87.1676 42.3182 87.359 42.4417 87.5696 42.5238C87.7802 42.6059 88.0046 42.6448 88.2308 42.6382H89.1614C89.1656 42.7734 89.1404 42.9078 89.087 43.032C89.0336 43.1563 88.9538 43.2673 88.8536 43.3575C88.7528 43.4476 88.6334 43.5147 88.5044 43.5539C88.3748 43.5931 88.2386 43.6035 88.1048 43.5844C87.8342 43.584 87.569 43.5137 87.3338 43.3803C87.353 43.5766 87.3764 43.7684 87.3764 43.7684C87.62 43.8856 87.8828 43.9579 88.1522 43.9818C88.3382 44.0074 88.5278 43.9912 88.7066 43.9344C88.8854 43.8775 89.0498 43.7815 89.1872 43.6533C89.324 43.525 89.4308 43.3678 89.4998 43.1931C89.5688 43.0183 89.5982 42.8304 89.585 42.6429V39.1455H88.2368C88.0028 39.1448 87.7712 39.1914 87.5558 39.2826C87.3404 39.3736 87.1454 39.5074 86.9828 39.6757C86.8208 39.8441 86.6936 40.0435 86.6102 40.2621C86.5268 40.4807 86.4884 40.7139 86.4974 40.9477ZM89.1584 42.2385H88.2272C88.0544 42.2343 87.884 42.1954 87.7262 42.1242C87.5684 42.0529 87.4262 41.9507 87.3086 41.8236C87.191 41.6966 87.1004 41.5472 87.0416 41.3844C86.9822 41.2215 86.957 41.0485 86.966 40.8756C86.9606 40.5322 87.0896 40.2003 87.3254 39.9504C87.5606 39.7005 87.8846 39.5524 88.2272 39.5374H89.1584V42.2385Z" fill="#464749" stroke="#464749" stroke-width="0.3" stroke-miterlimit="10"/>
<path d="M92.4106 37.2866H91.917V37.8191H92.4106V37.2866Z" fill="#464749" stroke="#464749" stroke-width="0.3" stroke-miterlimit="10"/>
<path d="M94.0854 37.2866H93.5918V37.8191H94.0854V37.2866Z" fill="#464749" stroke="#464749" stroke-width="0.3" stroke-miterlimit="10"/>
<path d="M109.533 41.2739C109.548 41.4014 109.534 41.5307 109.494 41.6525C109.453 41.7742 109.385 41.8853 109.296 41.9777C109.207 42.0701 109.098 42.1414 108.978 42.1866C108.858 42.2317 108.729 42.2495 108.601 42.2387H95.0907C94.9653 42.2481 94.8393 42.2302 94.7211 42.1862C94.6035 42.1422 94.4967 42.0731 94.4085 41.9837C94.3197 41.8943 94.2519 41.7868 94.2087 41.6685C94.1655 41.5503 94.1487 41.4241 94.1595 41.2988L94.1517 38.8926L93.7281 39.0254V39.363C92.3769 39.2675 91.4247 39.6975 91.4055 40.8881C91.3821 41.1768 91.4595 41.4645 91.6245 41.7026C91.7889 41.9407 92.0307 42.1145 92.3091 42.1945C92.5875 42.2745 92.8845 42.2559 93.1503 42.1418C93.4167 42.0276 93.6351 41.8249 93.7683 41.5681C93.7755 41.7189 93.8127 41.8668 93.8781 42.003C93.9429 42.1392 94.0347 42.261 94.1475 42.3611C94.2609 42.4613 94.3929 42.5378 94.5357 42.5861C94.6785 42.6343 94.8297 42.6534 94.9803 42.6423H108.713C108.893 42.6443 109.071 42.6072 109.235 42.5336C109.399 42.4599 109.545 42.3516 109.663 42.2159C109.781 42.0803 109.869 41.9205 109.919 41.7478C109.969 41.5751 109.981 41.3936 109.954 41.2157V39.1449H109.531L109.533 41.2739ZM92.6829 41.8622C92.0025 41.8622 91.8297 41.1582 91.8441 40.8758C91.9143 39.5748 93.2205 39.765 93.7299 39.7503C93.7473 40.6095 93.8253 41.8622 92.6829 41.8622Z" fill="#464749" stroke="#464749" stroke-width="0.3" stroke-miterlimit="10"/>
<path d="M107.524 43.7676H107.033V44.3008H107.524V43.7676Z" fill="#464749" stroke="#464749" stroke-width="0.3" stroke-miterlimit="10"/>
<path d="M109.504 43.7676H109.011V44.3008H109.504V43.7676Z" fill="#464749" stroke="#464749" stroke-width="0.3" stroke-miterlimit="10"/>
<path d="M112.659 42.6435C112.641 42.9074 112.52 43.1537 112.323 43.3295C112.126 43.5053 111.867 43.5965 111.603 43.5835C111.332 43.5781 111.066 43.508 110.827 43.3793C110.851 43.5757 110.876 43.7674 110.876 43.7674C111.115 43.897 111.38 43.97 111.652 43.9808C111.834 43.9875 112.015 43.958 112.186 43.8942C112.356 43.8304 112.512 43.7335 112.645 43.609C112.778 43.4845 112.885 43.335 112.959 43.169C113.034 43.0031 113.075 42.8239 113.08 42.6419V39.1445H112.66L112.659 42.6435Z" fill="#464749" stroke="#464749" stroke-width="0.3" stroke-miterlimit="10"/>
<path d="M122.892 41.2736C122.907 41.401 122.894 41.5303 122.853 41.6519C122.812 41.7736 122.745 41.8847 122.655 41.977C122.567 42.0694 122.458 42.1407 122.338 42.1859C122.218 42.2311 122.089 42.2491 121.961 42.2383H117.116V40.3072C117.116 39.5008 116.651 39.143 115.867 39.143C115.763 39.144 115.659 39.1526 115.557 39.1686V39.5621C115.659 39.544 115.763 39.5354 115.867 39.5365C116.36 39.5365 116.633 39.715 116.678 40.2932V42.2446H114.449V42.6435H122.072C122.252 42.6455 122.43 42.6084 122.594 42.5348C122.758 42.4612 122.904 42.3528 123.023 42.2171C123.14 42.0814 123.228 41.9218 123.278 41.749C123.328 41.5763 123.341 41.3948 123.314 41.2169V37.5635H122.892V41.2736Z" fill="#464749" stroke="#464749" stroke-width="0.3" stroke-miterlimit="10"/>
<path d="M125.239 37.5581H124.82V42.6382H125.239V37.5581Z" fill="#464749" stroke="#464749" stroke-width="0.3" stroke-miterlimit="10"/>
<path d="M116.075 37.3345H115.581V37.8592H116.075V37.3345Z" fill="#464749" stroke="#464749" stroke-width="0.3" stroke-miterlimit="10"/>
<path d="M43.5343 39.1406C43.4319 39.1417 43.3298 39.1502 43.2286 39.1662V39.5598C43.3295 39.5414 43.4318 39.5328 43.5343 39.5342C44.0247 39.5342 44.2977 39.7127 44.3435 40.2909V42.2422H42.123V42.6411H44.7795V40.3049C44.7803 39.4977 44.3141 39.1406 43.5343 39.1406Z" fill="#464749" stroke="#464749" stroke-width="0.3" stroke-miterlimit="10"/>
<path d="M111.612 34.1215C111.611 34.2497 111.573 34.3748 111.501 34.4812C111.43 34.5876 111.328 34.6705 111.21 34.7192C111.091 34.768 110.961 34.7806 110.835 34.7553C110.71 34.7301 110.595 34.6682 110.504 34.5774C110.413 34.4866 110.352 34.3711 110.327 34.2454C110.302 34.1196 110.315 33.9893 110.364 33.8708C110.413 33.7524 110.496 33.6511 110.602 33.5798C110.709 33.5086 110.834 33.4704 110.962 33.4702C111.048 33.4702 111.132 33.487 111.211 33.5197C111.29 33.5524 111.362 33.6004 111.422 33.6608C111.483 33.7214 111.531 33.7932 111.563 33.8723C111.595 33.9513 111.612 34.036 111.612 34.1215Z" fill="#464749"/>
<path d="M109.858 34.1215C109.857 34.2497 109.819 34.375 109.747 34.4814C109.675 34.5878 109.574 34.6706 109.455 34.7194C109.337 34.7681 109.206 34.7806 109.081 34.7552C108.955 34.7299 108.84 34.6678 108.749 34.5769C108.659 34.486 108.597 34.3703 108.573 34.2444C108.548 34.1185 108.561 33.9881 108.61 33.8698C108.66 33.7513 108.743 33.6502 108.849 33.5791C108.956 33.508 109.081 33.4701 109.21 33.4702C109.295 33.4702 109.38 33.487 109.459 33.5197C109.537 33.5524 109.609 33.6004 109.669 33.661C109.729 33.7215 109.777 33.7933 109.809 33.8723C109.842 33.9514 109.858 34.0361 109.858 34.1215Z" fill="#464749"/>
<path d="M59.4756 34.1214C59.4752 34.2499 59.4369 34.3754 59.3652 34.4821C59.2936 34.5887 59.192 34.6718 59.0733 34.7206C58.9545 34.7695 58.8238 34.7821 58.6979 34.7567C58.572 34.7314 58.4565 34.6692 58.3659 34.5781C58.2753 34.487 58.2137 34.3712 58.1889 34.2451C58.1642 34.119 58.1773 33.9884 58.2268 33.8698C58.2762 33.7512 58.3597 33.6499 58.4667 33.5788C58.5736 33.5077 58.6993 33.4699 58.8277 33.4702C58.9131 33.4701 58.9976 33.4869 59.0764 33.5196C59.1553 33.5524 59.2269 33.6004 59.2871 33.6609C59.3473 33.7214 59.395 33.7933 59.4273 33.8723C59.4597 33.9514 59.476 34.036 59.4756 34.1214Z" fill="#464749"/>
<path d="M102.374 26.5526C102.374 26.6811 102.335 26.8066 102.264 26.9133C102.192 27.0199 102.09 27.103 101.972 27.1518C101.853 27.2007 101.722 27.2133 101.596 27.1879C101.471 27.1626 101.355 27.1004 101.264 27.0093C101.174 26.9182 101.112 26.8023 101.087 26.6763C101.063 26.5502 101.076 26.4196 101.125 26.301C101.175 26.1824 101.258 26.0811 101.365 26.01C101.472 25.9389 101.598 25.9011 101.726 25.9014C101.811 25.9016 101.896 25.9186 101.975 25.9515C102.053 25.9843 102.125 26.0323 102.185 26.0928C102.245 26.1532 102.293 26.225 102.325 26.3039C102.357 26.3828 102.374 26.4673 102.374 26.5526Z" fill="#464749"/>
<path d="M100.621 26.553C100.62 26.6811 100.582 26.8061 100.51 26.9123C100.439 27.0185 100.337 27.101 100.219 27.1496C100.1 27.1982 99.9703 27.2106 99.8449 27.1852C99.7195 27.1599 99.6043 27.0979 99.5137 27.0071C99.4237 26.9164 99.3619 26.8009 99.3373 26.6753C99.3127 26.5496 99.3259 26.4195 99.3751 26.3012C99.4237 26.183 99.5071 26.0819 99.6133 26.0109C99.7201 25.9398 99.8449 25.9019 99.9733 25.9019C100.058 25.9019 100.143 25.9187 100.222 25.9515C100.3 25.9842 100.372 26.0322 100.432 26.0928C100.492 26.1533 100.54 26.2251 100.573 26.3041C100.605 26.3831 100.621 26.4677 100.621 26.553Z" fill="#464749"/>
<path d="M4.01345 26.553C4.01284 26.6811 3.97433 26.8061 3.90277 26.9123C3.83122 27.0185 3.72982 27.101 3.61139 27.1496C3.49296 27.1982 3.3628 27.2106 3.23734 27.1852C3.11187 27.1599 2.99672 27.0979 2.90643 27.0071C2.81614 26.9164 2.75474 26.8009 2.73 26.6753C2.70525 26.5496 2.71826 26.4195 2.76739 26.3012C2.81651 26.183 2.89955 26.0819 3.00602 26.0109C3.11249 25.9398 3.23762 25.9019 3.36562 25.9019C3.4509 25.902 3.5353 25.9191 3.614 25.9519C3.69272 25.9847 3.7642 26.0328 3.82436 26.0932C3.88451 26.1537 3.93217 26.2254 3.96462 26.3043C3.99707 26.3832 4.01366 26.4677 4.01345 26.553Z" fill="#464749"/>
<path d="M2.26012 26.5526C2.25966 26.6808 2.22126 26.806 2.14974 26.9124C2.07822 27.0188 1.97681 27.1016 1.85829 27.1504C1.73978 27.1991 1.60948 27.2117 1.48383 27.1865C1.35819 27.1613 1.24282 27.0993 1.15231 27.0086C1.0618 26.9178 1.00021 26.8023 0.975277 26.6765C0.950353 26.5508 0.963223 26.4204 1.01226 26.302C1.0613 26.1836 1.14432 26.0823 1.25083 26.011C1.35734 25.9397 1.48258 25.9016 1.61073 25.9014C1.69623 25.9011 1.78093 25.9178 1.85996 25.9504C1.93899 25.983 2.01078 26.031 2.07117 26.0916C2.13155 26.1521 2.17934 26.2241 2.21177 26.3032C2.24421 26.3823 2.26063 26.4671 2.26012 26.5526Z" fill="#464749"/>
<path d="M9.9804 26.0187C9.9807 26.1473 9.9429 26.2731 9.87168 26.3802C9.80046 26.4872 9.69912 26.5707 9.58044 26.6201C9.46176 26.6695 9.33108 26.6825 9.20502 26.6575C9.0789 26.6326 8.96304 26.5708 8.87214 26.4799C8.78118 26.389 8.7192 26.2732 8.69412 26.1471C8.66904 26.021 8.68194 25.8903 8.73114 25.7715C8.78034 25.6527 8.86374 25.5512 8.97066 25.4798C9.07758 25.4085 9.20328 25.3705 9.3318 25.3706C9.41694 25.3705 9.5013 25.3872 9.57996 25.4197C9.65868 25.4523 9.73014 25.5 9.79038 25.5601C9.85062 25.6204 9.89844 25.6918 9.93102 25.7705C9.96366 25.8492 9.9804 25.9335 9.9804 26.0187Z" fill="#464749"/>
<path d="M8.22886 26.0187C8.22904 26.1469 8.19118 26.2724 8.12014 26.3791C8.0491 26.4858 7.94806 26.5691 7.82974 26.6184C7.71136 26.6678 7.5811 26.6809 7.45534 26.6562C7.32952 26.6315 7.2139 26.5701 7.123 26.4797C7.03204 26.3893 6.97 26.274 6.94456 26.1483C6.91912 26.0226 6.93142 25.8922 6.98002 25.7735C7.02862 25.6548 7.1113 25.5532 7.21756 25.4815C7.32382 25.4098 7.44898 25.3712 7.57714 25.3706C7.66252 25.3703 7.74706 25.3868 7.82602 25.4193C7.90498 25.4517 7.97674 25.4993 8.03728 25.5595C8.09782 25.6197 8.14588 25.6912 8.17876 25.77C8.21164 25.8489 8.22868 25.9333 8.22886 26.0187Z" fill="#464749"/>
<path d="M107.371 26.5526C107.371 26.681 107.332 26.8065 107.261 26.9131C107.189 27.0197 107.088 27.1027 106.969 27.1517C106.851 27.2006 106.72 27.2133 106.594 27.1881C106.468 27.1628 106.353 27.1008 106.262 27.0099C106.171 26.919 106.11 26.8032 106.084 26.6772C106.06 26.5512 106.072 26.4207 106.122 26.3021C106.171 26.1835 106.254 26.0821 106.361 26.0108C106.468 25.9395 106.593 25.9014 106.722 25.9014C106.894 25.9018 107.059 25.9706 107.181 26.0926C107.302 26.2147 107.371 26.3802 107.371 26.5526Z" fill="#464749"/>
<path d="M47.5824 32.7015H46.2021V26.0264H47.5824V32.7015Z" fill="#464749"/>
<path d="M96.5384 32.7015H95.1602V26.0264H96.5384V32.7015Z" fill="#464749"/>
<path d="M65.6653 27.9927H65.1729V29.3634H65.6653V27.9927Z" fill="#464749"/>
<path d="M122.983 27.7675C122.662 27.7622 122.344 27.8225 122.047 27.9444C121.75 28.0664 121.481 28.2477 121.256 28.4771C121.031 28.7065 120.856 28.9793 120.74 29.2789C120.624 29.5784 120.571 29.8985 120.582 30.2195V30.6937C120.594 30.7757 120.587 30.8594 120.563 30.9386C120.538 31.0178 120.497 31.0905 120.44 31.1517C120.385 31.2128 120.316 31.2608 120.239 31.2922C120.163 31.3236 120.08 31.3376 119.997 31.3332H117.437V29.7863C117.437 28.5515 116.715 27.9949 115.398 27.9949H114.669V28.9628H115.419C116.015 28.9628 116.015 29.4471 116.015 29.4471V31.3332H113.276V32.7024H120.062C120.294 32.7077 120.523 32.6618 120.735 32.5679C120.946 32.4739 121.135 32.3343 121.286 32.1591C121.747 32.5883 122.356 32.8239 122.986 32.8173C123.317 32.8083 123.642 32.7338 123.944 32.5982C124.246 32.4627 124.518 32.2686 124.745 32.0273C124.971 31.7861 125.148 31.5023 125.264 31.1924C125.381 30.8825 125.434 30.5526 125.423 30.2217C125.431 29.8985 125.373 29.577 125.253 29.2767C125.134 28.9763 124.954 28.7033 124.727 28.4739C124.499 28.2447 124.227 28.0639 123.927 27.9425C123.628 27.8211 123.307 27.7616 122.983 27.7675ZM122.98 31.6313C122.797 31.6413 122.613 31.6107 122.443 31.5417C122.273 31.4727 122.12 31.367 121.996 31.2321C121.871 31.0973 121.778 30.9366 121.723 30.7615C121.667 30.5865 121.652 30.4014 121.676 30.2195C121.659 30.0429 121.681 29.8648 121.741 29.6976C121.799 29.5305 121.895 29.3783 122.019 29.2517C122.143 29.1252 122.293 29.0273 122.459 28.9649C122.625 28.9025 122.803 28.8771 122.98 28.8906C123.16 28.8672 123.343 28.8853 123.516 28.9436C123.688 29.0019 123.845 29.0989 123.974 29.2271C124.103 29.3553 124.202 29.5114 124.261 29.6834C124.321 29.8553 124.34 30.0387 124.319 30.2195C124.318 31.0437 123.979 31.6313 122.98 31.6313Z" fill="#464749"/>
<path d="M110.847 28.1191V30.7116C110.858 30.7933 110.849 30.8764 110.824 30.9547C110.798 31.033 110.755 31.1045 110.698 31.164C110.641 31.2235 110.571 31.2696 110.494 31.2987C110.417 31.3279 110.334 31.3394 110.252 31.3325H108.397C108.263 31.3426 108.13 31.3235 108.004 31.2766C107.879 31.2297 107.765 31.1562 107.672 31.061C107.578 30.9658 107.505 30.8513 107.46 30.7255C107.414 30.5996 107.397 30.4653 107.408 30.332V28.4374H106.018V29.6459C105.974 30.2938 106.144 30.9382 106.5 31.4809C106.856 32.0235 107.38 32.4348 107.992 32.652C108.152 32.6832 108.315 32.6988 108.478 32.6986H110.375C110.64 32.708 110.904 32.6592 111.148 32.5555C111.392 32.4519 111.611 32.2959 111.788 32.0986C111.966 31.9014 112.098 31.6676 112.175 31.4137C112.253 31.1599 112.274 30.8921 112.237 30.6293V28.1191H110.847Z" fill="#464749"/>
<path d="M92.5461 26.0264V30.7145C92.5563 30.7964 92.5479 30.8795 92.5215 30.9577C92.4957 31.036 92.4525 31.1075 92.3955 31.1669C92.3379 31.2264 92.2683 31.2724 92.1915 31.3016C92.1141 31.3307 92.0313 31.3422 91.9491 31.3354H90.0747C89.6325 31.3354 89.4543 31.0148 89.4051 30.6368C89.4015 30.3151 89.3349 29.9972 89.2077 29.7015C89.0811 29.4058 88.8969 29.1381 88.6665 28.9137C88.4361 28.6895 88.1631 28.5129 87.8643 28.3944C87.5655 28.2759 87.2457 28.2176 86.9241 28.223C86.6025 28.2285 86.2851 28.2974 85.9905 28.426C85.6953 28.5546 85.4289 28.7402 85.2063 28.9721C84.9831 29.2041 84.8085 29.4779 84.6915 29.7777C84.5751 30.0775 84.5187 30.3974 84.5259 30.7191C84.5283 30.8001 84.5145 30.8808 84.4851 30.9564C84.4557 31.032 84.4113 31.1008 84.3549 31.1588C84.2979 31.2168 84.2301 31.2627 84.1551 31.2939C84.0807 31.325 84.0003 31.3407 83.9193 31.3401H82.3713C82.2381 31.3505 82.1037 31.3317 81.9783 31.285C81.8529 31.2383 81.7389 31.1647 81.6447 31.0694C81.5505 30.9741 81.4785 30.8595 81.4335 30.7334C81.3879 30.6074 81.3711 30.473 81.3831 30.3396V26.0334H79.9941V30.3706C80.0589 30.8633 80.2539 31.3297 80.5593 31.7216C80.8647 32.1135 81.2697 32.4167 81.7311 32.5998C81.9657 32.6709 82.2087 32.7075 82.4535 32.7084H84.0051C84.4029 32.7192 84.7947 32.6082 85.1277 32.3902C85.3485 32.6664 85.6293 32.8887 85.9485 33.0402C86.2677 33.1918 86.6175 33.2687 86.9703 33.2649C87.3531 33.2705 87.7311 33.18 88.0701 33.0018C88.4091 32.8237 88.6977 32.5635 88.9101 32.2451C89.2617 32.5324 89.6979 32.6961 90.1515 32.7108H92.0781C92.3433 32.7197 92.6067 32.6705 92.8509 32.5666C93.0945 32.4628 93.3129 32.3068 93.4905 32.1097C93.6681 31.9125 93.8001 31.679 93.8775 31.4254C93.9555 31.1718 93.9765 30.9042 93.9399 30.6415V26.0357L92.5461 26.0264ZM86.9409 32.1077C86.7579 32.1171 86.5755 32.0861 86.4057 32.0167C86.2359 31.9474 86.0835 31.8416 85.9599 31.7067C85.8357 31.5718 85.7427 31.4112 85.6875 31.2364C85.6329 31.0615 85.6173 30.8767 85.6413 30.695C85.6245 30.5188 85.6467 30.3411 85.7055 30.1742C85.7643 30.0072 85.8591 29.8552 85.9827 29.7287C86.1063 29.6021 86.2563 29.5041 86.4219 29.4415C86.5875 29.3789 86.7645 29.3532 86.9409 29.3663C87.1221 29.3427 87.3057 29.3607 87.4785 29.4189C87.6513 29.4771 87.8085 29.5739 87.9381 29.702C88.0677 29.8302 88.1667 29.9862 88.2267 30.1583C88.2873 30.3303 88.3077 30.5139 88.2867 30.695C88.2867 31.5201 87.9453 32.1077 86.9409 32.1077Z" fill="#464749"/>
<path d="M77.8855 31.3326C77.7523 31.3436 77.6179 31.3251 77.4925 31.2785C77.3665 31.2318 77.2531 31.1582 77.1589 31.0628C77.0647 30.9674 76.9927 30.8525 76.9483 30.7263C76.9033 30.6 76.8865 30.4655 76.8997 30.3321V26.0259H75.5029V30.2172C75.5479 30.752 75.7447 31.2628 76.0711 31.6892C76.3969 32.1156 76.8379 32.4397 77.3419 32.6234C77.5465 32.6792 77.7583 32.7053 77.9701 32.701H78.5677V31.3318L77.8855 31.3326Z" fill="#464749"/>
<path d="M63.5142 31.3335V29.4474C63.5142 29.4474 63.5142 28.963 64.113 28.963H65.3622V27.9951H64.1316C62.8128 27.9951 62.0958 28.5509 62.0958 29.7865V31.3335H60.1326C59.9988 31.3438 59.8647 31.3249 59.7393 31.2781C59.6138 31.2313 59.5 31.1578 59.4059 31.0626C59.3118 30.9673 59.2395 30.8527 59.1941 30.7267C59.1487 30.6007 59.1313 30.4664 59.143 30.333V28.436H57.7535V29.9689C57.7419 30.5424 57.9075 31.1055 58.2279 31.5812C58.5483 32.0569 59.0077 32.422 59.5434 32.6266C59.7314 32.6785 59.9256 32.7046 60.1206 32.7042H65.838V31.335L63.5142 31.3335Z" fill="#464749"/>
<path d="M43.5848 26.0264V30.7145C43.5951 30.7963 43.5868 30.8794 43.5609 30.9576C43.5349 31.0359 43.4919 31.1074 43.4347 31.1669C43.3777 31.2264 43.308 31.2724 43.2309 31.3016C43.1538 31.3307 43.0711 31.3422 42.9889 31.3354H42.2379C42.1044 31.3457 41.9702 31.3268 41.8447 31.28C41.7192 31.2332 41.6053 31.1597 41.5111 31.0646C41.4168 30.9693 41.3444 30.8548 41.2988 30.7288C41.2533 30.6028 41.2356 30.4684 41.2471 30.3349V26.0287H39.8607V29.7318C39.8359 30.36 40.0101 30.98 40.3584 31.5032C40.7068 32.0264 41.2114 32.4263 41.8003 32.6456C41.9728 32.684 42.1489 32.7032 42.3256 32.703H43.1193C43.3844 32.7123 43.6483 32.6634 43.8925 32.5596C44.1367 32.456 44.3553 32.3 44.5327 32.1028C44.7102 31.9056 44.8423 31.6718 44.9199 31.418C44.9974 31.1642 45.0183 30.8965 44.9814 30.6338V26.0279L43.5848 26.0264Z" fill="#464749"/>
<path d="M40.0053 25.3023C40.1702 25.2818 40.3256 25.2142 40.453 25.1075C40.5109 25.173 40.5828 25.2245 40.6635 25.2582C40.7441 25.292 40.8312 25.3071 40.9185 25.3023C41.0883 25.2994 41.2523 25.2404 41.385 25.1343C41.5176 25.0283 41.6114 24.8813 41.6517 24.7163V23.8843H41.1567V24.7163C41.1314 24.7484 41.099 24.7744 41.0622 24.7923C41.0254 24.8101 40.9851 24.8194 40.9442 24.8196C40.7952 24.8196 40.7253 24.7163 40.7253 24.4796V23.8843H40.2303V24.7163C40.2042 24.7485 40.1712 24.7746 40.1338 24.7924C40.0963 24.8103 40.0554 24.8196 40.0139 24.8196C39.8587 24.8196 39.7982 24.7163 39.7982 24.4796V23.8843H39.2939V24.5409C39.285 24.6389 39.2969 24.7377 39.3288 24.8307C39.3608 24.9238 39.412 25.0091 39.4791 25.081C39.5463 25.1529 39.6279 25.2097 39.7186 25.2479C39.8093 25.286 39.907 25.3046 40.0053 25.3023Z" fill="#464749"/>
<path d="M29.6817 26.0264V30.7145C29.6919 30.7965 29.6835 30.8799 29.6574 30.9583C29.6311 31.0368 29.5878 31.1084 29.5303 31.1679C29.4729 31.2275 29.403 31.2734 29.3255 31.3023C29.248 31.3313 29.1651 31.3426 29.0827 31.3354H27.2308C27.0974 31.3457 26.9634 31.3267 26.8381 31.2798C26.7129 31.233 26.5993 31.1594 26.5054 31.0641C26.4114 30.9689 26.3394 30.8543 26.2942 30.7284C26.2491 30.6024 26.2318 30.4682 26.2438 30.3349V26.0287H24.8535V30.3155C24.918 30.8087 25.1091 31.2768 25.4083 31.6742C25.7074 32.0715 26.1043 32.3845 26.5604 32.5827C26.8035 32.6631 27.0578 32.7041 27.3138 32.7038H29.2084C29.4736 32.7132 29.7376 32.6643 29.9818 32.5607C30.2261 32.457 30.4446 32.3011 30.6222 32.1039C30.7997 31.9066 30.9318 31.6728 31.0093 31.4189C31.0867 31.1651 31.1076 30.8973 31.0705 30.6345V26.0287L29.6817 26.0264Z" fill="#464749"/>
<path d="M72.6862 28.5669H73.876V29.2655H71.2246V28.5669H71.9638V27.7783C71.9638 27.1481 72.3292 26.8647 73 26.8647H73.6288V27.3592H72.9922C72.6856 27.3592 72.6856 27.6053 72.6856 27.6053L72.6862 28.5669Z" fill="#464749"/>
<path d="M73.7822 26.8647H73.5342V27.5641H73.7822V26.8647Z" fill="#464749"/>
<path d="M105.67 31.1888C105.517 31.2887 105.338 31.3396 105.157 31.3347H103.436C103.355 31.3408 103.273 31.3287 103.196 31.2992C103.12 31.2696 103.052 31.2234 102.995 31.1639C102.939 31.1044 102.897 31.0331 102.872 30.9552C102.847 30.8774 102.839 30.7949 102.85 30.7137V27.519L101.459 27.8598V28.209C99.7386 28.2183 98.4948 28.7974 98.526 30.4242C98.5452 30.8928 98.7366 31.3377 99.0636 31.6739C99.3906 32.0102 99.8298 32.214 100.297 32.2467C100.507 32.0368 100.763 31.8791 101.045 31.7864C101.327 31.6935 101.627 31.6682 101.92 31.7124C102.214 31.7565 102.493 31.869 102.734 32.0406C102.977 32.2123 103.175 32.4384 103.314 32.7008H105.547C105.874 32.7059 106.196 32.6141 106.472 32.4369C106.111 32.0888 105.836 31.6615 105.67 31.1888ZM101.459 29.9896C101.459 30.6494 101.075 30.9792 100.625 30.9683C100.512 30.9587 100.401 30.9263 100.3 30.8732C100.199 30.82 100.11 30.7472 100.037 30.6588C99.9654 30.5706 99.9114 30.4686 99.879 30.3592C99.8466 30.2497 99.837 30.1349 99.8496 30.0214C99.8796 29.0621 100.744 29.2313 101.456 29.2313L101.459 29.9896Z" fill="#464749"/>
<path d="M80.4198 32.4324C80.0538 32.1053 79.767 31.6989 79.5822 31.2441C79.4448 31.3068 79.2942 31.3373 79.143 31.3334H78.3516V32.7018H79.5606C79.7154 32.7188 79.8714 32.7046 80.0202 32.6599C80.169 32.6153 80.3076 32.541 80.427 32.4417L80.4198 32.4324Z" fill="#464749"/>
<path d="M75.9329 32.4316C75.5909 32.1119 75.3257 31.7192 75.1565 31.2828C75.0791 31.3159 74.9957 31.3328 74.9117 31.3325H70.7957C70.5857 31.3331 70.3817 31.2634 70.2155 31.1344C70.0499 31.0054 69.9323 30.8245 69.8807 30.6208C69.8369 30.3164 69.9113 30.0068 70.0883 29.7553C70.0883 29.7553 69.6743 29.4061 69.0905 28.8682C68.6981 29.3647 68.5025 29.9884 68.5409 30.62C68.5991 31.1909 68.8673 31.7198 69.2933 32.1042C69.7187 32.4886 70.2725 32.701 70.8461 32.7001H75.1097C75.2585 32.7167 75.4091 32.7016 75.5513 32.6558C75.6941 32.6099 75.8255 32.5342 75.9365 32.4339L75.9329 32.4316Z" fill="#464749"/>
<path d="M57.4053 31.2377C57.2574 31.3075 57.0947 31.34 56.9313 31.3324H54.5983V29.7856C54.5983 28.5506 53.8775 27.9941 52.5578 27.9941H51.8323V28.962H52.5803C53.1753 28.962 53.1753 29.4463 53.1753 29.4463V31.3324H50.4365V32.7016H57.32C57.6314 32.7203 57.9405 32.6372 58.2006 32.4649C57.8413 32.1253 57.5686 31.7045 57.4053 31.2377Z" fill="#464749"/>
<path d="M39.5474 31.1889C39.3952 31.2848 39.2182 31.3337 39.0384 31.3294H37.97C37.8883 31.3356 37.8063 31.3235 37.7298 31.294C37.6534 31.2645 37.5844 31.2184 37.528 31.1589C37.4717 31.0995 37.4292 31.0282 37.4038 30.9502C37.3784 30.8723 37.3706 30.7897 37.3811 30.7084V27.5137L35.9924 27.8544V28.2037C34.2738 28.213 33.0301 28.792 33.0581 30.4189C33.0786 30.8874 33.2705 31.3319 33.5975 31.668C33.9244 32.004 34.3634 32.2081 34.8309 32.2414C35.083 32.2607 35.3362 32.2206 35.57 32.1242C35.8038 32.0278 36.0117 31.8778 36.177 31.6864C36.3092 32.012 36.543 32.2861 36.8436 32.468C37.1442 32.6499 37.4955 32.7296 37.8451 32.6954H39.431C39.7571 32.7077 40.0774 32.6071 40.3379 32.4106C39.9809 32.0721 39.7099 31.6533 39.5474 31.1889ZM35.9924 30.2877C35.9924 30.9483 35.6107 31.2781 35.1599 31.2688C35.0464 31.258 34.9361 31.2247 34.8355 31.171C34.7349 31.1172 34.646 31.044 34.5739 30.9557C34.5017 30.8674 34.4477 30.7656 34.4152 30.6562C34.3826 30.5469 34.372 30.4322 34.384 30.3188C34.4158 29.361 35.277 29.0606 35.99 29.0606L35.9924 30.2877Z" fill="#464749"/>
<path d="M6.38684 29.3315C6.39056 29.5246 6.43298 29.715 6.51164 29.8914C6.59036 30.0678 6.70364 30.2266 6.84482 30.3583C6.986 30.4901 7.1522 30.5921 7.33352 30.6584C7.5149 30.7247 7.70774 30.7538 7.90052 30.7441C8.14112 30.7585 8.38184 30.717 8.60366 30.6227C8.82554 30.5285 9.02252 30.3841 9.17918 30.2008V30.7177C9.18962 30.7988 9.18188 30.8813 9.15656 30.9591C9.13124 31.0369 9.08894 31.1081 9.03272 31.1675C8.9765 31.227 8.9078 31.2732 8.83154 31.3028C8.75528 31.3324 8.67344 31.3446 8.59184 31.3387H5.11055C5.02914 31.3442 4.9475 31.3317 4.87151 31.3019C4.79551 31.2722 4.72705 31.226 4.67104 31.1666C4.61503 31.1072 4.57287 31.0362 4.54758 30.9586C4.52229 30.881 4.5145 30.7987 4.52477 30.7177V27.523L3.13366 27.8637V28.213C1.41512 28.2223 0.172203 28.8013 0.201685 30.4282C0.221331 30.8967 0.412818 31.3415 0.739565 31.6777C1.06631 32.0139 1.50541 32.2178 1.97297 32.2507C2.22532 32.2698 2.47865 32.2296 2.71267 32.1332C2.9467 32.0369 3.15491 31.887 3.32064 31.6957C3.45164 32.0216 3.68487 32.2963 3.98526 32.4782C4.28566 32.6602 4.63698 32.7397 4.98641 32.7047H8.702C8.96714 32.714 9.23108 32.6651 9.47522 32.5613C9.71942 32.4577 9.93794 32.3017 10.1154 32.1045C10.2929 31.9073 10.4251 31.6735 10.5025 31.4197C10.5801 31.1659 10.6011 30.8982 10.5641 30.6355L10.5765 27.6394C8.32028 27.6394 6.44738 27.4896 6.38684 29.3315ZM3.13366 30.0122C3.13366 30.6719 2.7566 31.0003 2.3035 30.9909C2.18972 30.9813 2.07904 30.9489 1.978 30.8957C1.87697 30.8425 1.78763 30.7695 1.71529 30.6812C1.64294 30.5928 1.58906 30.4908 1.55683 30.3812C1.52459 30.2716 1.51466 30.1567 1.52763 30.0432C1.55789 29.0854 2.41986 29.2546 3.12977 29.2546L3.13366 30.0122ZM8.3963 29.8174C8.30762 29.8214 8.219 29.8072 8.13596 29.7757C8.05292 29.7442 7.9772 29.696 7.91348 29.6342C7.8497 29.5723 7.7993 29.498 7.76534 29.416C7.73138 29.3338 7.71452 29.2457 7.7159 29.1568C7.7159 28.4055 8.70122 28.4164 9.18614 28.4264C9.18536 28.9721 9.15668 29.8181 8.3948 29.8181L8.3963 29.8174ZM24.483 31.2292C24.3426 31.2999 24.1871 31.3353 24.0299 31.3324H22.4278C22.5524 31.0391 22.6185 30.7243 22.6225 30.4057C22.6225 28.7983 21.0754 27.9949 19.803 27.9949C19.4952 28.0011 19.1894 28.0478 18.8937 28.1338C18.3606 28.36 17.9068 28.7396 17.5899 29.2244C17.273 29.7093 17.1073 30.2774 17.1139 30.8566V27.0309H15.857V31.3324H13.7668C13.6854 31.3382 13.6037 31.3257 13.5276 31.296C13.4515 31.2663 13.383 31.2201 13.327 31.1607C13.2709 31.1013 13.2288 31.0302 13.2036 30.9525C13.1783 30.8749 13.1706 30.7925 13.1811 30.7115V26.0234H11.8024V30.6292C11.7634 30.8914 11.7828 31.159 11.8588 31.4129C11.9349 31.6668 12.066 31.9008 12.2427 32.0983C12.4194 32.2958 12.6374 32.452 12.8812 32.5558C13.1251 32.6594 13.3888 32.7082 13.6536 32.6985H24.421C24.7298 32.7131 25.034 32.6183 25.2798 32.4307C24.923 32.099 24.6497 31.6876 24.4822 31.23L24.483 31.2292ZM20.1188 31.3324H17.1558C17.3064 30.7307 17.6596 30.1992 18.1561 29.8276C18.6525 29.4559 19.2618 29.2667 19.8814 29.2919C20.3159 29.3229 21.1911 29.5697 21.1911 30.4251C21.1623 30.6847 21.0352 30.9235 20.8359 31.0922C20.6366 31.261 20.3803 31.3469 20.1196 31.3324H20.1188Z" fill="#464749"/>
</g>
</g>
<defs>
<clipPath id="clip0_13_5419">
<rect width="163.2" height="48" fill="white"/>
</clipPath>
</defs>
</svg>
