<svg width="95" height="48" viewBox="0 0 95 48" fill="none" xmlns="http://www.w3.org/2000/svg">
<g clip-path="url(#clip0_13_5761)">
<path d="M54.4184 20.7246C53.9478 18.8234 52.6113 18.3152 51.3125 17.9576H51.1808C51.6513 17.2234 53.0819 16.8846 53.9478 16.7529H54.0796C52.649 15.7929 50.5972 16.2823 49.8819 16.5082C50.1266 15.4352 50.8419 14.9458 51.4443 14.2305C50.2396 14.3623 48.9408 15.0587 48.4513 15.9058C48.3196 15.6611 48.3196 15.4352 48.2066 15.1717C48.0749 14.5693 47.736 13.7411 47.4725 13.2705C47.1149 14.0987 46.7384 14.9458 46.5125 16.0376C46.2678 15.7929 46.0419 15.567 45.9102 15.3034C45.3078 14.8329 44.4796 14.4752 43.5008 14.3434C44.1031 14.9458 44.7055 15.5482 45.0631 16.5082V16.6399C43.3878 16.1693 42.0702 16.2823 40.8655 16.7717C40.8655 16.7717 40.8655 16.9034 40.7337 16.9034C41.336 17.0352 41.9384 17.1482 42.5408 17.374C42.8984 17.6187 43.2749 17.8446 43.6137 17.9764C43.6137 17.9764 43.6137 18.1082 43.7455 18.1082C43.3878 18.2399 43.0113 18.3529 42.7855 18.4658C41.5808 18.9364 40.9784 19.7646 40.5078 20.9693C41.336 20.7246 42.0702 20.0093 43.3878 20.1411C43.3878 20.1411 43.3878 20.1411 43.3878 20.2729C42.5596 21.2329 41.4866 22.0799 41.4866 24.2258C42.2208 23.6234 43.049 21.8164 44.2537 21.9482C44.2537 21.9482 44.2537 21.9482 44.3855 22.0799C44.1408 22.6823 43.9149 23.1529 43.6513 23.7552C43.5196 24.3576 43.6513 25.054 43.6513 25.5623C43.6513 25.5623 43.6513 25.5623 43.7831 25.5623C44.1408 24.8282 45.5902 22.927 46.5502 23.1529C46.7949 23.2846 47.0208 24.2258 46.9078 24.7152C46.6631 24.847 46.6631 24.847 46.5502 24.9599C46.4184 25.694 47.0208 26.3905 46.7949 27.1246C46.6631 27.2564 46.6631 27.2564 46.5502 27.2564C46.5502 27.727 46.7949 28.3293 46.7949 29.0634C46.6631 29.0634 46.6631 29.1952 46.5502 29.1952C46.4184 29.5529 47.0208 30.7576 46.9078 31.6046C46.5502 31.7364 46.3055 31.8493 45.9478 31.9623C45.9478 31.9623 45.9478 32.094 45.816 32.094C46.889 32.094 47.9808 32.094 49.0537 32.094C49.0537 32.094 49.0537 32.094 49.0537 31.9623C48.6961 31.8305 48.3196 31.6046 47.9808 31.4917C47.9808 30.5317 48.2255 29.9293 48.3384 29.214C48.2066 29.214 48.0937 29.0823 47.9808 29.0823C48.1125 28.4799 48.2255 27.8776 48.3384 27.2752C48.2066 27.2752 48.0937 27.1434 47.9808 27.1434C47.9808 26.1834 48.3384 25.4682 48.2255 24.9787C48.0937 24.847 48.0937 24.734 47.8678 24.734C47.7361 24.2634 47.9996 23.4352 48.2255 23.1717C49.2984 23.0399 50.729 24.734 50.9925 25.5811C50.9925 25.5811 51.1243 25.5811 51.1243 25.7129C51.2561 24.8846 51.256 23.9058 50.9925 23.2093C50.8608 22.8517 50.5219 22.4752 50.5219 22.1364H50.6537C51.3878 21.8917 53.0631 23.8117 53.289 24.3011H53.4208C53.5525 24.0564 53.4208 23.6987 53.289 23.4729C53.1572 21.6658 52.329 21.4399 51.4819 20.367C51.4819 20.367 51.4819 20.367 51.6137 20.2352C52.7431 19.6517 53.5713 20.367 54.4184 20.7246Z" fill="url(#paint0_linear_13_5761)"/>
<path d="M0 27.6708C0 27.6708 12.2165 46.3626 39.0777 47.7931C70.9647 49.6002 90.2588 30.0614 92.0471 28.1414C90.3718 29.9484 74.3153 46.0049 43.6141 44.1979C17.8635 42.6731 3.59529 23.4731 3.59529 23.4731L0 27.6708Z" fill="url(#paint1_linear_13_5761)"/>
<path d="M44.9509 40.2634C19.5392 36.4234 7.66151 19.2939 7.66151 19.2939L3.46387 23.6045C3.46387 23.6045 16.5274 42.4281 43.6145 44.2351C75.1251 46.2681 92.1603 27.9339 92.1603 27.9339C92.1603 27.9339 74.4286 44.7057 44.9509 40.2634Z" fill="url(#paint2_linear_13_5761)"/>
<path d="M55.3788 0C53.4777 0 51.5388 0.131765 49.5059 0.244706C16.8847 3.23765 0 27.6706 0 27.6706C0 27.6706 17.8635 5.13882 47.5859 4.42353C74.3153 3.68941 91.3506 18.2024 91.3506 18.2024L94.1177 13.6659C94.0988 13.5341 79.2471 0 55.3788 0Z" fill="url(#paint3_linear_13_5761)"/>
<path d="M49.8635 4.17871C48.5647 4.17871 47.0965 4.17871 45.6659 4.31048C16.5271 6.11753 0 27.6705 0 27.6705C0 27.6705 15.0965 8.97871 45.5341 8.75283C71.3035 8.50812 88.433 23.134 88.433 23.134L91.4259 18.0893C91.4635 18.0893 74.673 4.17871 49.8635 4.17871Z" fill="url(#paint4_linear_13_5761)"/>
<path d="M23.153 22.8708H23.9436V27.1061H23.0777L21.3648 24.3391V27.1061H20.5742V22.8896H21.4025L23.1342 25.7132V22.8708H23.153ZM26.5413 25.1108V25.0167C26.5413 24.8661 26.5036 24.7532 26.4283 24.6779C26.3342 24.6214 26.2213 24.5649 25.9954 24.5649C25.8448 24.5649 25.7319 24.5838 25.6566 24.6591C25.5625 24.7155 25.506 24.8096 25.4683 24.9602L24.7342 24.8285C24.8283 24.5273 24.9413 24.3202 25.1672 24.1696C25.3554 24.019 25.6566 23.9626 26.0707 23.9626C26.4283 23.9626 26.6919 24.0002 26.8801 24.0943C27.0495 24.1885 27.1813 24.2826 27.2377 24.4143C27.2942 24.5461 27.3507 24.772 27.3507 25.1485V26.0896C27.3507 26.372 27.3695 26.5602 27.3883 26.692C27.4072 26.8238 27.4448 26.9555 27.5389 27.1061H26.7483C26.7295 27.0685 26.7107 26.9743 26.6542 26.8614C26.6354 26.8238 26.6354 26.7673 26.6354 26.7673C26.5036 26.8991 26.353 27.012 26.1836 27.0685C26.033 27.1249 25.8636 27.1814 25.6754 27.1814C25.3554 27.1814 25.1107 27.0873 24.9225 26.9179C24.753 26.7485 24.6401 26.5226 24.6401 26.2779C24.6401 26.1085 24.6777 25.9579 24.7719 25.8073C24.866 25.6755 24.9601 25.5626 25.1107 25.4873C25.2613 25.4308 25.4683 25.3555 25.7507 25.299C26.1272 25.2426 26.3907 25.1673 26.5413 25.1108ZM26.0519 25.7508C25.8072 25.7885 25.6942 25.8449 25.6001 25.9014C25.4872 25.9955 25.4495 26.0708 25.4495 26.1838C25.4495 26.2967 25.4872 26.3908 25.5813 26.4849C25.6754 26.5791 25.7695 26.6167 25.9013 26.6167C26.0519 26.6167 26.1836 26.5791 26.3154 26.4661C26.4283 26.4096 26.4848 26.2967 26.5036 26.2026C26.5225 26.1461 26.5413 26.0143 26.5413 25.8073V25.6191C26.4283 25.6567 26.2777 25.7132 26.0519 25.7508ZM35.1813 24.4143V22.852H34.3719V27.0685H35.1813V25.5249C35.1813 25.2614 35.2001 25.0732 35.2378 24.9414C35.2754 24.8096 35.3695 24.6967 35.4825 24.6402C35.5954 24.5838 35.7272 24.5273 35.8401 24.5273C35.953 24.5273 36.0472 24.5461 36.1413 24.6214C36.2354 24.6591 36.273 24.7532 36.3107 24.8285C36.3295 24.9226 36.3483 25.1296 36.3483 25.4496V27.0873H37.1577V25.2802C37.1577 24.9979 37.1389 24.8096 37.1201 24.6779C37.1013 24.5461 37.026 24.4143 36.9695 24.3202C36.8754 24.2073 36.7813 24.132 36.6307 24.0567C36.4801 23.9814 36.3107 23.9438 36.1225 23.9438C35.7648 23.9626 35.4448 24.1132 35.1813 24.4143ZM32.7719 25.1108V25.0167C32.7719 24.8661 32.7342 24.7532 32.6589 24.6779C32.5648 24.6214 32.4519 24.5649 32.226 24.5649C32.0754 24.5649 31.9625 24.5838 31.8872 24.6591C31.793 24.7155 31.7366 24.8096 31.6989 24.9602L30.9648 24.8285C31.0589 24.5273 31.1719 24.3202 31.3977 24.1696C31.586 24.019 31.8872 23.9626 32.3013 23.9626C32.6589 23.9626 32.9225 24.0002 33.1107 24.0943C33.2801 24.1885 33.4119 24.2826 33.4683 24.4143C33.5248 24.5461 33.5813 24.772 33.5813 25.1485V26.0896C33.5813 26.372 33.6001 26.5602 33.6189 26.692C33.6378 26.8238 33.6754 26.9555 33.7695 27.1061H32.9789C32.9601 27.0685 32.9413 26.9743 32.8848 26.8614C32.866 26.8238 32.866 26.7673 32.866 26.7673C32.7342 26.8991 32.5836 27.012 32.4142 27.0685C32.2636 27.1249 32.0942 27.1814 31.906 27.1814C31.586 27.1814 31.3413 27.0873 31.153 26.9179C30.9836 26.7485 30.8707 26.5226 30.8707 26.2779C30.8707 26.1085 30.9083 25.9579 31.0025 25.8073C31.0966 25.6755 31.1907 25.5626 31.3413 25.4873C31.4919 25.4308 31.6989 25.3555 31.9813 25.299C32.3766 25.2426 32.6213 25.1673 32.7719 25.1108ZM32.2825 25.7508C32.0377 25.7885 31.9248 25.8449 31.8307 25.9014C31.7178 25.9955 31.6801 26.0708 31.6801 26.1838C31.6801 26.2967 31.7177 26.3908 31.8119 26.4849C31.906 26.5791 32.0001 26.6167 32.1319 26.6167C32.2825 26.6167 32.4142 26.5791 32.5648 26.4661C32.6777 26.4096 32.7342 26.2967 32.753 26.2026C32.7719 26.1461 32.7719 26.0143 32.7719 25.8073V25.6191C32.6778 25.6567 32.5272 25.7132 32.2825 25.7508ZM27.8025 26.4849V27.1061H30.5507V26.3908H29.2895C29.233 26.3908 29.1013 26.3908 28.8566 26.4096L29.2707 25.9579L30.4566 24.6026V24.0191H27.9342V24.6779H29.0072C29.1578 24.6779 29.2895 24.6779 29.3648 24.6591C29.2707 24.7532 29.1201 24.9038 28.9507 25.1108L27.8025 26.4849ZM38.8142 27.1626C38.4942 27.1626 38.2495 27.0685 38.0613 26.899C37.873 26.7296 37.7789 26.5038 37.7789 26.2591C37.7789 26.0896 37.8166 25.9391 37.9107 25.7885C38.0048 25.6567 38.0989 25.5438 38.2495 25.4685C38.4001 25.412 38.6072 25.3367 38.8895 25.2802C39.2848 25.2238 39.5295 25.1485 39.6801 25.092V24.9979C39.6801 24.8473 39.6425 24.7343 39.5672 24.6591C39.473 24.6026 39.3601 24.5461 39.1342 24.5461C38.9836 24.5461 38.8707 24.5649 38.7954 24.6402C38.7013 24.6967 38.6448 24.7908 38.6072 24.9414L37.873 24.8096C37.9672 24.5085 38.0801 24.3014 38.306 24.1508C38.4942 24.0002 38.7954 23.9438 39.2095 23.9438C39.5672 23.9438 39.8307 23.9814 40.0189 24.0755C40.1883 24.1696 40.3201 24.2638 40.3766 24.3955C40.433 24.5273 40.4895 24.7532 40.4895 25.1296V26.0708C40.4895 26.3532 40.5083 26.5414 40.5272 26.6732C40.546 26.8049 40.5836 26.9367 40.6778 27.0873H39.906C39.8872 27.0496 39.8683 26.9555 39.8119 26.8426C39.793 26.8049 39.793 26.7485 39.793 26.7485C39.6613 26.8802 39.5107 26.9932 39.3413 27.0496C39.153 27.1438 38.9836 27.1626 38.8142 27.1626ZM38.7201 26.4849C38.8142 26.5791 38.9083 26.6167 39.0401 26.6167C39.1907 26.6167 39.3225 26.5791 39.4542 26.4661C39.5672 26.4096 39.6236 26.2967 39.6425 26.2026C39.6613 26.1461 39.6801 26.0143 39.6801 25.8073V25.6191C39.5672 25.6567 39.3978 25.7132 39.1907 25.7508C38.9836 25.7885 38.833 25.8449 38.7389 25.9014C38.626 25.9955 38.5883 26.0708 38.5883 26.1838C38.5883 26.2779 38.626 26.3908 38.7201 26.4849ZM69.0636 23.3414L69.346 23.0967L69.4401 23.0026L68.6683 22.3438L67.953 23.0214L68.6683 23.5861C68.6872 23.6049 68.8189 23.5108 69.0636 23.3414ZM66.3342 26.7485C66.4472 26.4285 66.5036 26.0332 66.5036 25.6191C66.5036 24.9791 66.466 24.1696 66.3531 23.172L66.2966 22.5696L66.2589 22.212L65.826 22.8708C65.6566 23.1908 65.5625 23.3602 65.5625 23.3979L66.0142 27.3508C66.146 27.1814 66.2401 26.9932 66.3342 26.7485ZM73.8636 27.1438L73.9578 26.8049L74.0707 26.4849L74.1836 26.052V25.8449V25.5438V25.2614L74.146 25.0732L74.0519 24.8285L74.0142 24.6967C73.9766 24.5649 73.9013 24.452 73.8448 24.3579C73.6754 24.0943 73.5625 23.9249 73.506 23.8685L72.9413 24.8285C73.2236 25.1296 73.4307 25.4685 73.5436 25.8826L73.6001 26.1649H71.5672H70.5507H70.2683C70.1554 26.1649 70.0236 26.1273 69.9107 26.0332C69.7789 25.9202 69.6472 25.7885 69.5531 25.6379L69.3083 25.299L69.026 24.8473L68.4989 25.7508C68.6119 25.8826 68.7436 26.052 68.8942 26.2214C69.0636 26.4849 69.1578 26.6543 69.1578 26.7296C69.1578 26.8802 69.026 27.1249 68.7625 27.3885C68.6683 27.4826 68.5931 27.5767 68.4613 27.6896L68.2731 27.8591L68.1225 27.9908C67.7836 28.2355 67.5389 28.3861 67.4072 28.4426C67.2378 28.5367 67.0495 28.5743 66.8425 28.5743L66.6542 28.5555L66.4095 28.4991L65.8825 28.3108C65.8448 28.3296 65.826 28.3485 65.826 28.3673C65.826 28.4802 66.1083 28.6496 66.6919 28.8943C67.2566 29.1579 67.633 29.2896 67.8589 29.2896C68.273 29.2896 68.6495 28.9885 69.0825 28.4049C69.4401 27.8967 69.666 27.4261 69.7036 26.9932C69.7978 27.0873 69.8542 27.1438 69.9107 27.1814C69.9483 27.2002 69.9672 27.2191 70.0048 27.2191H70.0613H70.1178H70.4378H71.3601H73.8825V27.1438H73.8636ZM72.9978 23.2661L73.2425 23.0214L73.4119 22.8332C73.3742 22.8143 73.3178 22.7955 73.2425 22.7767C73.186 22.7579 73.073 22.6826 72.9601 22.6449L72.7154 22.4943L72.546 22.3814L72.3389 22.5885L71.8872 23.0591L72.3578 23.2661L72.7719 23.4732L72.9978 23.2661ZM54.6448 22.7391L54.8895 22.8708C54.946 22.8896 55.0213 22.9085 55.0778 22.9273C55.0778 22.9085 55.1342 22.8332 55.2472 22.7391L55.3413 22.6449L55.4542 22.5508C55.473 22.5696 55.6048 22.6638 55.8495 22.7579C56.0001 22.852 56.113 22.8896 56.1695 22.9085L56.2072 22.9273C56.226 22.9273 56.3201 22.8332 56.4142 22.7202L56.5836 22.5508L56.7342 22.3814L55.9813 21.9673L55.6801 22.2496C55.6236 22.3061 55.5672 22.3626 55.5295 22.3626C55.4919 22.3626 55.3789 22.3249 55.2095 22.212C55.0213 22.0802 54.9083 22.0238 54.8707 21.9673L54.7201 22.1367L54.3248 22.5508C54.3625 22.5885 54.4189 22.6073 54.4942 22.6826L54.6448 22.7391ZM59.8213 27.1438H58.8989H58.1083H57.4872C57.2801 27.1438 57.1295 26.9555 57.0166 26.5602C56.9789 26.2591 56.9601 26.0896 56.9225 26.052V26.0143L56.866 26.0332C56.7719 26.0708 56.6966 26.2214 56.5648 26.4661C56.433 26.7296 56.3201 26.8614 56.2072 26.8614C56.1695 26.8614 55.906 26.8238 55.473 26.7108L54.946 26.5979L54.7766 26.5791H54.6448C54.6448 26.4473 54.7013 26.2214 54.833 25.8449C54.9648 25.4873 55.0966 25.2238 55.2283 25.1108C55.3225 25.0167 55.473 24.9226 55.6989 24.772L56.5272 24.2638C56.5272 24.2261 56.5083 24.1508 56.4895 24.0943L56.4519 23.9438L56.6401 23.6426L56.7907 23.3602L56.9601 23.0591L57.0542 23.5108L57.1483 23.9626L57.3366 25.299C57.3931 25.7132 57.4495 25.9391 57.4683 26.0143L57.5625 26.1461C57.6001 26.1838 57.6566 26.1838 57.7507 26.1838H57.8636H58.0142H59.2001H60.1225H61.0448C61.0448 26.0896 61.0636 25.9955 61.1013 25.8638L61.2142 25.6191L61.3836 25.2614C61.4401 25.1296 61.5342 24.9979 61.6472 24.8473L61.7789 24.6779L61.9483 24.4332V24.3202L61.9672 24.1696C61.9672 24.1132 62.0048 24.0002 62.0613 23.8685L62.1554 23.6049L62.2495 23.4167L62.7013 23.7179L63.0589 23.9626C63.473 24.2638 63.8307 24.5838 64.1507 24.9226C64.5083 25.3367 64.7154 25.6943 64.7154 26.0143C64.7154 26.2967 64.6589 26.5414 64.5272 26.7861C64.3578 27.0685 64.1883 27.2002 63.9436 27.2002H59.8966V27.1438H59.8213ZM63.0778 25.7696V25.9014C63.0778 25.9202 63.0966 25.9579 63.1154 25.9955L63.266 26.1461C63.3036 26.1838 63.4354 26.2402 63.6048 26.2591L64.0566 26.2779H64.1131C64.1131 26.2214 64.0942 26.1461 64.0754 26.1085C64.0754 26.0896 64.0378 26.0143 63.9625 25.9202C63.8495 25.7508 63.7554 25.6191 63.6613 25.5249C63.5295 25.3743 63.3978 25.3179 63.3413 25.3179C63.3225 25.3179 63.2472 25.3743 63.1719 25.4873L63.1154 25.6379L63.0778 25.7696ZM61.5154 25.6567C61.5154 25.7696 61.6095 25.8638 61.7789 25.9767C61.8919 26.0143 61.986 26.0708 62.1178 26.0896C62.2307 26.0896 62.3248 26.0332 62.4566 25.9014C62.5883 25.7885 62.6448 25.6943 62.6448 25.5814C62.6448 25.4308 62.626 25.3179 62.5507 25.2238C62.4566 25.092 62.3625 25.0355 62.2307 25.0355C62.1178 25.0355 61.986 25.092 61.8166 25.2426C61.6848 25.3932 61.5719 25.5249 61.5154 25.6567ZM56.866 25.4873L56.8472 25.3179C56.8472 25.2802 56.8472 25.2238 56.8283 25.1861L56.7907 25.0167C56.7531 24.7155 56.6966 24.5649 56.6778 24.5461C56.5836 24.5838 56.5272 24.6779 56.4895 24.7908L56.3578 25.0543C56.3013 25.1485 56.1695 25.2426 56.0189 25.3179L55.5107 25.5814L55.6801 25.6191L55.8683 25.6567L56.0378 25.6755C56.1507 25.6755 56.2072 25.6943 56.226 25.7132L56.5083 25.732H56.7719H56.9225V25.6191V25.4873H56.866Z" fill="#231F20"/>
</g>
<defs>
<linearGradient id="paint0_linear_13_5761" x1="44.8269" y1="18.336" x2="51.1497" y2="25.8711" gradientUnits="userSpaceOnUse">
<stop stop-color="#6CA743"/>
<stop offset="0.9106" stop-color="#166A41"/>
</linearGradient>
<linearGradient id="paint1_linear_13_5761" x1="0" y1="35.7012" x2="92.1399" y2="35.7012" gradientUnits="userSpaceOnUse">
<stop stop-color="#6C9D40"/>
<stop offset="0.8547" stop-color="#E4DE32"/>
</linearGradient>
<linearGradient id="paint2_linear_13_5761" x1="3.47347" y1="31.8408" x2="92.167" y2="31.8408" gradientUnits="userSpaceOnUse">
<stop offset="0.1117" stop-color="#7EB33F"/>
<stop offset="0.8492" stop-color="#6CA743"/>
</linearGradient>
<linearGradient id="paint3_linear_13_5761" x1="1.22676e-06" y1="13.8389" x2="94.1177" y2="13.8389" gradientUnits="userSpaceOnUse">
<stop offset="0.0893855" stop-color="#D1D633"/>
<stop offset="0.8883" stop-color="#73A141"/>
</linearGradient>
<linearGradient id="paint4_linear_13_5761" x1="1.22676e-06" y1="15.9291" x2="91.4378" y2="15.9291" gradientUnits="userSpaceOnUse">
<stop offset="0.1229" stop-color="#6CA743"/>
<stop offset="0.9106" stop-color="#166A41"/>
</linearGradient>
<clipPath id="clip0_13_5761">
<rect width="94.1177" height="48" fill="white"/>
</clipPath>
</defs>
</svg>
