<svg width="339" height="48" viewBox="0 0 339 48" fill="none" xmlns="http://www.w3.org/2000/svg">
<g clip-path="url(#clip0_13_4929)">
<path d="M313.727 29.6213C314.014 29.6106 314.299 29.673 314.556 29.8028C314.812 29.9326 315.031 30.1254 315.193 30.3632L314.531 30.6811C314.441 30.5374 314.316 30.4189 314.168 30.3367C314.005 30.2682 313.829 30.2389 313.652 30.2512C313.476 30.2635 313.305 30.3169 313.153 30.4073C313.084 30.4462 313.026 30.5025 312.986 30.5708C312.945 30.639 312.924 30.7167 312.923 30.7959C312.923 31.0079 313.117 31.1845 313.515 31.317L314.062 31.5024C314.422 31.5979 314.752 31.7798 315.025 32.0323C315.125 32.1337 315.203 32.2538 315.256 32.3856C315.309 32.5175 315.336 32.6586 315.334 32.8007C315.337 32.9977 315.292 33.1925 315.205 33.3691C315.117 33.5457 314.989 33.6989 314.831 33.8163C314.479 34.0644 314.061 34.2027 313.63 34.2137C313.2 34.2247 312.775 34.1079 312.411 33.8782C312.106 33.6418 311.903 33.2971 311.846 32.9155L312.676 32.7654C312.689 32.9596 312.756 33.1462 312.87 33.3041C312.966 33.4022 313.082 33.4783 313.21 33.5271C313.338 33.5759 313.475 33.5962 313.612 33.5867C313.841 33.594 314.066 33.5223 314.248 33.3836C314.361 33.295 314.442 33.1725 314.48 33.0343C314.518 32.896 314.511 32.7491 314.46 32.6152C314.431 32.5389 314.386 32.4696 314.327 32.4121C314.251 32.348 314.168 32.2918 314.08 32.2443C313.966 32.1863 313.848 32.1361 313.727 32.0942L313.206 31.9175C312.464 31.6614 312.084 31.2905 312.084 30.7959C312.087 30.6273 312.132 30.4621 312.216 30.3155C312.299 30.1689 312.418 30.0456 312.561 29.9569C312.904 29.7246 313.313 29.6071 313.727 29.6213Z" fill="#00B258"/>
<path d="M318.911 30.3282H317.012V31.3968H318.84V32.0239H317.012V34.1346H316.19V29.71H318.911V30.3282Z" fill="#00B258"/>
<path d="M320.792 33.5076H321.163C321.46 33.5094 321.756 33.4768 322.046 33.4104C322.284 33.3509 322.506 33.2426 322.7 33.0925C322.891 32.9624 323.046 32.787 323.152 32.582C323.259 32.377 323.313 32.1488 323.309 31.9179C323.312 31.6868 323.259 31.4584 323.154 31.2523C323.05 31.0462 322.897 30.8685 322.709 30.7344C322.237 30.436 321.684 30.2938 321.128 30.3282H320.757L320.792 33.5076ZM319.971 34.1346V29.7188H321.11C321.547 29.7065 321.983 29.7511 322.408 29.8513C322.728 29.9358 323.028 30.0829 323.291 30.284C323.559 30.4673 323.778 30.7131 323.93 31.0001C324.081 31.2871 324.16 31.6066 324.16 31.9311C324.16 32.2556 324.081 32.5752 323.93 32.8622C323.778 33.1492 323.559 33.3949 323.291 33.5782C323.027 33.7794 322.728 33.9292 322.408 34.0198C321.988 34.1136 321.558 34.1551 321.128 34.1434L319.971 34.1346Z" fill="#00B258"/>
<path d="M327.504 32.43L326.692 30.9286L325.808 32.43H327.504ZM327.84 33.0571H325.508L324.899 34.1345H324.016L326.709 29.4272L329.306 34.1345H328.423L327.84 33.0571Z" fill="#00B258"/>
<path d="M309.762 9.01737C299.535 2.31415 280.07 24.5081 280.07 24.5081V25.3206L286.084 19.4917C297.857 9.20284 303.376 15.0759 303.376 15.0759C311.872 24.252 277.588 46.4459 277.588 46.4459L277.712 46.755C285.148 43.8406 300.524 31.1318 300.524 31.1318C318.187 14.9522 309.762 9.0527 309.762 9.0527" fill="#007DC5"/>
<path d="M338.464 12.4262V12.1083C330.94 14.7186 323.589 17.8041 316.455 21.3462C316.455 21.3462 315.652 14.9609 327.115 11.6314L327.053 11.0132C327.053 11.0132 311.245 14.4222 310.812 24.8965C310.812 24.8965 293.829 37.4816 299.905 45.4831C299.905 45.4831 304.798 51.6123 318.999 43.4342C318.999 43.4342 328.546 37.6053 331.893 34.8145L331.831 34.1344C331.831 34.1344 313.523 49.369 307.156 40.1929C300.788 31.0169 334.613 13.4772 338.464 12.4262Z" fill="#00B258"/>
<path d="M316.173 0.459473C315.299 0.459473 314.446 0.718456 313.719 1.20367C312.993 1.68889 312.427 2.37855 312.093 3.18543C311.759 3.99232 311.671 4.88019 311.842 5.73678C312.012 6.59337 312.433 7.38019 313.05 7.99776C313.668 8.61532 314.455 9.03589 315.311 9.20627C316.168 9.37666 317.056 9.28921 317.863 8.95499C318.669 8.62076 319.359 8.05478 319.844 7.3286C320.33 6.60242 320.588 5.74866 320.588 4.8753C320.588 3.70415 320.123 2.58097 319.295 1.75284C318.467 0.92471 317.344 0.459473 316.173 0.459473Z" fill="#F15A31"/>
<path d="M0.441582 15.8C0.21196 15.5615 0.0264949 15.3584 0.0264949 14.4487C0.0911963 13.5944 0.476866 12.7962 1.10599 12.2146C1.73512 11.633 2.56107 11.311 3.41785 11.3135C4.06697 11.373 4.70221 11.537 5.29899 11.7992L4.8839 12.6824C4.43564 12.4317 3.93142 12.2981 3.41785 12.2938C2.27856 12.2673 0.971481 13.2476 0.971481 14.1308C0.971481 14.802 0.971481 15.1023 1.28059 15.3849C1.62502 15.853 2.32272 15.7823 3.34719 15.7823H5.5816L5.04287 16.7803H0V15.8H0.441582Z" fill="#007DC5"/>
<path d="M9.65267 0.194336H7.55957V16.7448H9.65267V0.194336Z" fill="#007DC5"/>
<path d="M26.0618 13.8214C26.0618 20.56 23.3152 21.2577 18.4843 21.3548C17.8749 21.3548 16.1615 21.3548 16.1615 21.3548C16.1615 21.3548 15.5963 20.5688 14.8103 19.2617C18.5726 19.2617 21.9198 19.615 22.9001 18.1754C23.3417 17.5219 23.9687 16.5416 23.9687 14.0334C23.9687 10.1298 22.485 6.80028 18.9965 6.87093C16.6649 6.87093 13.9713 7.93956 13.9713 12.3112C13.9713 14.2189 14.9693 14.6869 16.6914 14.6869H22.3172L20.8776 16.78H17.7336C13.4149 16.78 11.8782 16.2678 11.8782 12.3112C11.8306 10.3703 12.5521 8.48933 13.8855 7.07819C15.2189 5.66704 17.056 4.84018 18.9965 4.77783C24.1542 4.77783 26.0618 9.66173 26.0618 13.8479" fill="#007DC5"/>
<path d="M28.9944 16.7802L27.9258 14.6606H35.9626C38.1705 14.6606 39.4952 14.8196 40.2901 13.7774C40.8023 13.1239 40.9878 12.5234 40.9878 10.9866C40.9878 9.03485 38.3383 6.94175 35.8301 6.94175C32.2974 6.94175 31.3613 9.03485 30.3898 11.6843H28.1731C28.1731 11.6843 28.4822 10.5716 28.7118 9.91802C29.1753 8.41101 30.1255 7.10024 31.4136 6.19093C32.7016 5.28162 34.2549 4.82509 35.8301 4.89281C40.0075 4.89281 43.2222 8.52262 43.2222 11.7285C43.1888 12.7458 42.942 13.7447 42.498 14.6606H44.8031V16.7802H28.9944Z" fill="#007DC5"/>
<path d="M46.9844 14.6606V0.194336H49.0775V16.7448H43.7344V14.6606H46.9844Z" fill="#007DC5"/>
<path d="M54.0052 0.194336H51.9121V16.7448H54.0052V0.194336Z" fill="#007DC5"/>
<path d="M70.4234 13.8214C70.4234 20.56 67.6767 21.2577 62.837 21.3548C62.2364 21.3548 60.5143 21.3548 60.5143 21.3548C60.5143 21.3548 59.9579 20.5688 59.1719 19.2617C62.9341 19.2617 66.2372 19.615 67.2616 18.1754C67.7032 17.5219 68.3303 16.5416 68.3303 14.0334C68.3303 10.1298 66.8377 6.80028 63.3492 6.87093C61.0265 6.87093 58.3328 7.93956 58.3328 12.3112C58.3328 14.2189 59.3308 14.6869 61.053 14.6869H66.6788L65.2392 16.78H62.0951C57.7764 16.78 56.2397 16.2678 56.2397 12.3112C56.1898 10.3712 56.9093 8.49014 58.2413 7.07873C59.5733 5.66732 61.4095 4.84017 63.3492 4.77783C68.5157 4.77783 70.4145 9.66173 70.4145 13.8479" fill="#007DC5"/>
<path d="M79.1135 15.7998C78.8838 15.5613 78.6984 15.3582 78.6984 14.4485C78.7656 13.5873 79.1581 12.7839 79.7962 12.2016C80.4343 11.6193 81.2701 11.3017 82.1339 11.3133C82.7856 11.3741 83.4235 11.5381 84.0239 11.799L83.5999 12.6822C83.1541 12.4223 82.6498 12.2795 82.1339 12.2671C80.9946 12.2671 79.6963 13.2386 79.6963 14.1483C79.6963 14.8195 79.6963 15.1197 79.9966 15.4023C80.3499 15.8704 81.0388 15.7998 82.0632 15.7998H84.2535L83.7147 16.7801H78.6719V15.7998H79.1135Z" fill="#007DC5"/>
<path d="M88.3255 0.194336H86.2324V16.7448H88.3255V0.194336Z" fill="#007DC5"/>
<path d="M98.914 1.89915C98.9453 2.08563 98.9388 2.27651 98.895 2.46047C98.8512 2.64442 98.7709 2.81771 98.6589 2.97007C98.5469 3.12243 98.4055 3.25076 98.243 3.34746C98.0805 3.44415 97.9002 3.50725 97.7129 3.533C97.3322 3.58453 96.9467 3.48275 96.6412 3.25004C96.3356 3.01734 96.135 2.67278 96.0834 2.29215C96.0319 1.91153 96.1337 1.52603 96.3664 1.22045C96.5991 0.914867 96.9436 0.714245 97.3243 0.662715C97.5101 0.638015 97.6989 0.650523 97.8798 0.699509C98.0607 0.748496 98.2301 0.832982 98.378 0.948049C98.526 1.06312 98.6495 1.20647 98.7416 1.36975C98.8336 1.53304 98.8922 1.71299 98.914 1.89915ZM91.3011 16.7805L90.2236 14.6874H98.2693C100.477 14.6874 101.802 14.8463 102.597 13.8042C103.109 13.1507 103.294 12.5501 103.294 11.0134C103.294 9.06161 100.645 6.96851 98.1368 6.96851C94.6041 6.96851 93.668 9.06161 92.6965 11.7111H90.4886C90.4886 11.7111 90.7889 10.5983 91.0185 9.94478C91.482 8.43776 92.4322 7.127 93.7203 6.21769C95.0083 5.30837 96.5616 4.85184 98.1368 4.91957C102.314 4.91957 105.529 8.54938 105.529 11.7553C105.495 12.7726 105.249 13.7715 104.805 14.6874H107.11V16.7805H91.3011Z" fill="#007DC5"/>
<path d="M115.457 1.6162C115.492 1.8966 115.445 2.18137 115.319 2.43455C115.193 2.68773 114.995 2.89798 114.75 3.03876C114.505 3.17954 114.223 3.24454 113.941 3.22556C113.659 3.20657 113.389 3.10445 113.165 2.93209C112.941 2.75972 112.773 2.52484 112.682 2.25709C112.592 1.98934 112.582 1.70072 112.655 1.42766C112.729 1.1546 112.881 0.909343 113.094 0.722843C113.306 0.536344 113.569 0.416964 113.849 0.37977C114.036 0.353764 114.226 0.365245 114.409 0.413543C114.591 0.46184 114.762 0.545988 114.912 0.661078C115.062 0.776168 115.187 0.919897 115.28 1.08388C115.374 1.24787 115.434 1.42882 115.457 1.6162ZM121.409 11.0307C121.409 9.07894 118.919 6.98584 115.359 6.98584C112.851 6.98584 109.363 9.07894 109.363 11.0307C109.363 12.5674 109.363 13.168 109.919 13.8215C110.714 14.8195 113.134 14.7047 115.342 14.7047C117.55 14.7047 120.058 14.8637 120.853 13.8215C121.356 13.168 121.409 12.5674 121.409 11.0307ZM106.042 14.6605H108.153C107.641 14.166 107.27 13.7244 107.27 11.7284C107.291 10.8188 107.508 9.9245 107.906 9.10618C108.304 8.28785 108.873 7.5647 109.575 6.98584H107.411L109.292 4.89274H116.101C120.287 4.89274 123.502 8.52255 123.502 11.7284C123.502 13.7244 123.122 14.166 122.619 14.6605H124.73V16.7801H106.042V14.6605Z" fill="#007DC5"/>
<path d="M127.237 14.6608V0.247559H129.33V14.6608H131.98V16.7716L123.987 16.7451V14.6608H127.237Z" fill="#007DC5"/>
<path d="M134.497 14.6606V0.194336H136.59V16.7448H131.238V14.6606H134.497Z" fill="#007DC5"/>
<path d="M155.005 1.24515C155.039 1.52544 154.989 1.80959 154.862 2.06179C154.735 2.31399 154.537 2.52297 154.291 2.66242C154.045 2.80186 153.764 2.86553 153.483 2.84541C153.201 2.82529 152.931 2.72227 152.708 2.54934C152.485 2.37641 152.318 2.14129 152.228 1.87359C152.138 1.6059 152.13 1.3176 152.203 1.04501C152.277 0.772423 152.43 0.52773 152.642 0.341751C152.855 0.155772 153.117 0.0368236 153.397 -0.000112988C153.584 -0.0261187 153.775 -0.0146379 153.957 0.0336597C154.14 0.0819574 154.311 0.166105 154.46 0.281195C154.61 0.396285 154.735 0.540014 154.828 0.703998C154.922 0.867983 154.982 1.04894 155.005 1.23632M151.931 1.23632C151.957 1.42081 151.947 1.60865 151.9 1.78902C151.853 1.96939 151.771 2.13874 151.659 2.28731C151.546 2.43588 151.406 2.56075 151.245 2.65472C151.084 2.74868 150.906 2.8099 150.721 2.83485C150.44 2.88195 150.151 2.84376 149.891 2.7252C149.631 2.60663 149.413 2.41311 149.264 2.1695C149.115 1.9259 149.043 1.64336 149.056 1.35822C149.069 1.07307 149.167 0.79835 149.338 0.569384C149.508 0.340417 149.743 0.167671 150.013 0.0733576C150.282 -0.0209556 150.573 -0.032524 150.849 0.0401399C151.125 0.112804 151.373 0.266378 151.562 0.481115C151.75 0.695852 151.869 0.961935 151.905 1.24515M146.95 11.0306C146.95 12.5673 146.818 13.212 147.33 13.8656C148.116 14.8636 149.909 14.6604 152.117 14.6604H156.877C158.643 14.6604 157.672 11.2602 157.672 11.2602C156.692 8.61074 155.747 6.98572 152.258 6.98572C149.741 6.98572 146.959 9.07882 146.959 11.0306M159.853 4.89262V14.6604H161.531V16.78H148.169C147.095 16.487 146.158 15.8278 145.52 14.9165C144.963 13.8921 144.919 13.7508 144.919 11.7548C144.919 8.54892 148.125 4.91912 152.311 4.91912C153.31 4.91279 154.301 5.10467 155.226 5.48365C156.15 5.86263 156.991 6.42119 157.698 7.12703V4.91912L159.853 4.89262Z" fill="#007DC5"/>
<path d="M170.45 10.3771C171.073 11.0519 171.516 11.8719 171.739 12.762C171.963 13.6522 171.96 14.5842 171.731 15.473C171.619 16.0157 171.37 16.5205 171.007 16.939C170.291 17.937 169.24 19.0498 168.154 18.4228C166.45 17.4248 164.568 16.3738 164.568 16.3738L164.878 14.0511C165.01 14.0511 167.686 16.0029 168.596 16.1884C168.596 16.1884 169.753 16.1265 169.753 13.9804C169.77 13.5843 169.703 13.1889 169.556 12.8206C169.409 12.4523 169.185 12.1196 168.899 11.8447C168.614 11.5698 168.273 11.3589 167.899 11.2261C167.525 11.0934 167.127 11.0418 166.732 11.0748C164.922 11.0748 164.41 11.958 164.083 13.4241C163.782 14.7311 163.994 15.8881 162.687 16.5416C162.241 16.7288 161.756 16.8017 161.274 16.7536H160.691V14.6605H161.274C161.672 14.6605 162.087 14.6605 162.087 14.3337C162.087 12.1435 162.97 9.09654 167.13 9.09654C168.36 9.08165 169.549 9.54012 170.45 10.3771Z" fill="#007DC5"/>
<path d="M178.991 16.7448H173.647V0.194336H175.741V14.6606H178.991V16.7448Z" fill="#007DC5"/>
<path d="M193.474 11.0311C193.474 9.07927 190.993 6.98617 187.434 6.98617C184.925 6.98617 181.437 9.07927 181.437 11.0311C181.437 12.5678 181.481 13.1683 181.993 13.8219C182.779 14.8198 185.199 14.705 187.407 14.705C189.615 14.705 192.132 14.864 192.918 13.8219C193.43 13.1683 193.474 12.5678 193.474 11.0311ZM178.107 14.6609H180.227C179.715 14.1663 179.344 13.7247 179.344 11.7288C179.366 10.8202 179.582 9.92683 179.978 9.10881C180.374 8.29078 180.941 7.56702 181.64 6.98617H179.485L181.366 4.89307H188.176C192.362 4.89307 195.568 8.52287 195.568 11.7288C195.568 13.7247 195.197 14.1663 194.684 14.6609H196.804V16.7805H178.107V14.6609Z" fill="#007DC5"/>
<path d="M199.313 14.6606V0.194336H201.406V16.7448H196.054V14.6606H199.313Z" fill="#007DC5"/>
<path d="M206.333 0.194336H204.24V16.7448H206.333V0.194336Z" fill="#007DC5"/>
<path d="M224.191 1.24539C224.224 1.61336 224.114 1.97987 223.883 2.26819C223.652 2.55652 223.318 2.7443 222.952 2.79223C222.586 2.84017 222.215 2.74453 221.917 2.52534C221.62 2.30616 221.419 1.98042 221.356 1.61632C221.324 1.42637 221.33 1.23176 221.374 1.0442C221.418 0.856627 221.5 0.679958 221.614 0.524796C221.729 0.369633 221.873 0.239176 222.039 0.141255C222.205 0.0433342 222.39 -0.0200312 222.581 -0.0450373C222.772 -0.0700434 222.966 -0.0561746 223.152 -0.0042634C223.337 0.0476478 223.51 0.136531 223.661 0.25705C223.811 0.37757 223.936 0.527241 224.027 0.697078C224.118 0.866916 224.174 1.05342 224.191 1.24539ZM221.118 1.24539C221.144 1.42988 221.133 1.61772 221.087 1.79809C221.04 1.97846 220.958 2.14781 220.845 2.29638C220.733 2.44496 220.592 2.56982 220.431 2.66379C220.27 2.75776 220.093 2.81897 219.908 2.84392C219.531 2.89545 219.149 2.79506 218.846 2.56484C218.542 2.33462 218.343 1.99343 218.292 1.61632C218.24 1.23921 218.341 0.857074 218.571 0.553979C218.801 0.250885 219.142 0.0516581 219.519 0.000127546C219.706 -0.0246146 219.895 -0.0121838 220.076 0.036701C220.258 0.0855859 220.428 0.169955 220.576 0.284931C220.725 0.399906 220.849 0.543208 220.942 0.706549C221.035 0.869891 221.095 1.05003 221.118 1.23656M216.172 11.022C216.172 12.5587 216.031 13.2034 216.543 13.857C217.329 14.855 219.122 14.6518 221.33 14.6518H226.09C227.856 14.6518 226.876 11.2516 226.876 11.2516C225.905 8.60215 224.951 6.97713 221.462 6.97713C218.954 6.97713 216.163 9.07023 216.163 11.022M229.013 4.88403V14.6607H230.691V16.7803H217.356C216.282 16.4872 215.345 15.828 214.706 14.9168C214.15 13.8923 214.105 13.751 214.105 11.7551C214.105 8.54916 217.311 4.91936 221.498 4.91936C223.5 4.89968 225.43 5.67087 226.867 7.06545V4.85753L229.013 4.88403Z" fill="#007DC5"/>
<path d="M232.511 5.54635C232.352 5.37855 232.21 5.21958 232.21 4.56604C232.261 3.95374 232.54 3.38275 232.991 2.96581C233.442 2.54887 234.034 2.31628 234.648 2.31396C235.122 2.35693 235.587 2.47312 236.026 2.6584L235.717 3.28545C235.392 3.09562 235.024 2.99224 234.648 2.98517C233.835 2.98517 232.882 3.70937 232.882 4.35408C232.882 4.82215 232.882 5.05178 233.094 5.23724C233.35 5.58167 233.853 5.53752 234.577 5.53752H236.185L235.805 6.18223H232.175V5.54635H232.511ZM233.155 14.6606V8.15168H235.24V14.6606H237.889V16.7802H229.888V14.6606H233.155Z" fill="#007DC5"/>
<path d="M243.647 19.2886C243.673 19.4731 243.663 19.6609 243.616 19.8413C243.569 20.0216 243.487 20.191 243.375 20.3396C243.262 20.4881 243.121 20.613 242.961 20.707C242.8 20.8009 242.622 20.8621 242.437 20.8871C242.156 20.9286 241.869 20.8855 241.613 20.7633C241.356 20.6411 241.142 20.4453 240.997 20.2009C240.852 19.9564 240.784 19.6744 240.8 19.3908C240.816 19.1072 240.916 18.8348 241.087 18.6082C241.259 18.3817 241.494 18.2114 241.762 18.1189C242.031 18.0264 242.321 18.016 242.596 18.089C242.87 18.162 243.117 18.315 243.304 18.5286C243.491 18.7423 243.611 19.0068 243.647 19.2886ZM240.583 19.2886C240.618 19.569 240.57 19.8537 240.445 20.1069C240.319 20.3601 240.121 20.5703 239.876 20.7111C239.631 20.8519 239.349 20.9169 239.067 20.8979C238.785 20.8789 238.515 20.7768 238.291 20.6044C238.067 20.4321 237.899 20.1972 237.808 19.9295C237.718 19.6617 237.708 19.3731 237.781 19.1C237.855 18.827 238.007 18.5817 238.22 18.3952C238.432 18.2087 238.695 18.0893 238.975 18.0521C239.162 18.0261 239.352 18.0376 239.535 18.0859C239.717 18.1342 239.888 18.2183 240.038 18.3334C240.188 18.4485 240.313 18.5923 240.406 18.7562C240.5 18.9202 240.56 19.1012 240.583 19.2886ZM240.088 14.6608V8.15186H242.181V14.6608H244.831V16.7804H236.838V14.6608H240.088Z" fill="#007DC5"/>
<path d="M259.183 11.0307C259.183 9.19368 256.224 7.01226 253.884 7.01226V14.6605C256.206 14.6605 257.884 14.7311 258.6 13.7773C259.112 13.1238 259.165 12.5232 259.165 10.9865M251.79 7.10058C249.397 7.10058 247.119 9.36148 247.119 10.9865C247.119 12.6115 247.189 13.1061 247.675 13.7773C248.346 14.6605 251.79 14.6605 251.79 14.6605V7.10058ZM251.79 4.10665L253.884 3.15283V4.89267C258.043 4.89267 261.258 8.52247 261.258 11.7284C261.258 13.7243 260.878 14.1659 260.375 14.6605H262.486V16.7801H243.807V14.6605H245.926C245.414 14.1659 245.043 13.7243 245.043 11.7284C245.043 8.98172 247.551 5.81999 251.808 5.05164L251.79 4.10665Z" fill="#007DC5"/>
<path d="M264.923 14.6606V0.194336H267.016V16.7448H261.664V14.6606H264.923Z" fill="#007DC5"/>
<path d="M271.944 0.194336H269.851V16.7448H271.944V0.194336Z" fill="#007DC5"/>
<path d="M9.0965 31.5468L7.41849 32.5448C7.21066 32.1251 6.90836 31.7593 6.53532 31.4762C6.18663 31.2763 5.78883 31.1784 5.38721 31.1935C4.8628 31.1753 4.35014 31.3514 3.94765 31.6881C3.76698 31.833 3.62204 32.0174 3.52403 32.2272C3.42603 32.437 3.37757 32.6665 3.38243 32.898C3.38243 33.5693 3.877 34.108 4.87498 34.5142L6.24388 35.0795C7.19053 35.41 8.03609 35.9788 8.69908 36.731C9.22266 37.4168 9.49401 38.262 9.46743 39.1244C9.4848 39.7058 9.38156 40.2846 9.1642 40.8242C8.94684 41.3638 8.62008 41.8525 8.20451 42.2596C7.7848 42.6667 7.2884 42.9865 6.74413 43.2002C6.19986 43.414 5.61855 43.5176 5.03394 43.5049C3.94919 43.5454 2.89124 43.1622 2.08417 42.4362C1.26759 41.6362 0.75276 40.5785 0.626953 39.4423L2.72888 38.9831C2.75895 39.5637 2.93186 40.1279 3.23229 40.6257C3.44458 40.9189 3.72756 41.1536 4.05492 41.308C4.38227 41.4624 4.74336 41.5315 5.1046 41.5089C5.40254 41.5185 5.69922 41.4661 5.97589 41.3551C6.25256 41.2442 6.5032 41.077 6.71196 40.8642C6.92432 40.646 7.09079 40.3874 7.20152 40.1037C7.31226 39.82 7.36501 39.5171 7.35667 39.2127C7.35659 38.9639 7.31786 38.7166 7.24186 38.4796C7.16885 38.2556 7.05174 38.0484 6.89742 37.8703C6.71863 37.6675 6.51371 37.4893 6.28804 37.3404C6.00533 37.1632 5.71017 37.0068 5.40487 36.8723L4.06246 36.3601C2.18427 35.5652 1.24517 34.3876 1.24517 32.8274C1.23819 32.3344 1.34164 31.8462 1.54795 31.3984C1.75426 30.9506 2.05819 30.5547 2.43744 30.2397C3.2598 29.5464 4.31253 29.187 5.38721 29.2329C6.1602 29.2322 6.91782 29.4488 7.57366 29.858C8.22951 30.2671 8.75718 30.8523 9.0965 31.5468Z" fill="#007DC5"/>
<path d="M13.9278 38.8592C13.8943 39.5931 14.1334 40.3134 14.599 40.8816C14.8069 41.1362 15.07 41.3401 15.3684 41.4778C15.6668 41.6155 15.9926 41.6835 16.3212 41.6765C16.6527 41.6827 16.9817 41.6182 17.2863 41.4873C17.5909 41.3563 17.864 41.1619 18.0875 40.9169C18.5344 40.3408 18.7769 39.6324 18.7769 38.9033C18.7769 38.1742 18.5344 37.4658 18.0875 36.8897C17.8675 36.6393 17.5955 36.44 17.2903 36.3057C16.9852 36.1715 16.6545 36.1055 16.3212 36.1125C15.9938 36.1077 15.6695 36.1757 15.3716 36.3116C15.0738 36.4475 14.8099 36.648 14.599 36.8985C14.1404 37.4465 13.9013 38.1451 13.9278 38.8592ZM18.6969 34.567H20.7017V43.275H18.6969V42.3918C18.3254 42.7702 17.8802 43.0681 17.3887 43.2671C16.8973 43.4661 16.3702 43.562 15.8401 43.5487C15.3101 43.5354 14.7884 43.4134 14.3075 43.1901C13.8266 42.9667 13.3968 42.6469 13.0447 42.2505C12.2353 41.3115 11.818 40.0973 11.8789 38.8592C11.8382 37.6667 12.2553 36.5039 13.0447 35.6091C13.4054 35.1892 13.8545 34.8542 14.3599 34.6282C14.8653 34.4022 15.4144 34.2908 15.9679 34.302C16.4859 34.3098 16.9964 34.4263 17.4665 34.6438C17.9366 34.8614 18.3558 35.1752 18.6969 35.565V34.567Z" fill="#007DC5"/>
<path d="M26.6895 34.5938V39.5571C26.6895 40.9879 27.2547 41.7032 28.394 41.7032C29.5333 41.7032 30.1073 40.9879 30.1073 39.5571V34.5938H32.1121V39.6101C32.1201 40.2087 32.0336 40.8048 31.856 41.3765C31.6672 41.8496 31.3637 42.2684 30.9728 42.5952C30.2471 43.202 29.3215 43.5169 28.3763 43.4784C27.4368 43.515 26.5173 43.2001 25.7975 42.5952C25.4055 42.2695 25.1018 41.8504 24.9143 41.3765C24.724 40.8079 24.6401 40.2091 24.667 39.6101V34.5938H26.6895Z" fill="#007DC5"/>
<path d="M37.3581 38.8596C37.3254 39.5919 37.5609 40.311 38.0205 40.882C38.2343 41.1411 38.5047 41.3475 38.811 41.4853C39.1173 41.6232 39.4512 41.6887 39.7868 41.6769C40.1186 41.6855 40.4484 41.622 40.7533 41.4909C41.0582 41.3598 41.3311 41.1641 41.5532 40.9174C42 40.3413 42.2426 39.6329 42.2426 38.9037C42.2426 38.1746 42 37.4662 41.5532 36.8901C41.3319 36.64 41.06 36.4396 40.7555 36.3024C40.451 36.1652 40.1208 36.0943 39.7868 36.0943C39.4528 36.0943 39.1227 36.1652 38.8182 36.3024C38.5136 36.4396 38.2418 36.64 38.0205 36.8901C37.566 37.4433 37.3303 38.1441 37.3581 38.8596ZM42.1184 28.1821H44.1585V43.2754H42.1184V42.3923C41.7752 42.7507 41.3643 43.0375 40.9095 43.2361C40.4547 43.4346 39.9651 43.5411 39.4689 43.5492C38.9108 43.5624 38.3566 43.453 37.8454 43.2287C37.3342 43.0044 36.8784 42.6706 36.5103 42.2509C35.6914 41.3165 35.2671 40.1007 35.3268 38.8596C35.2863 37.6682 35.7071 36.5072 36.5015 35.6184C36.8477 35.2103 37.2776 34.8814 37.7619 34.6539C38.2463 34.4265 38.7739 34.3057 39.3091 34.2998C39.8442 34.294 40.3743 34.4031 40.8636 34.62C41.3528 34.8368 41.7898 35.1562 42.1449 35.5566L42.1184 28.1821Z" fill="#007DC5"/>
<path d="M49.8724 43.2754H47.8677V34.5939H49.8724V43.2754ZM47.5674 30.9994C47.5674 30.6551 47.7042 30.3249 47.9476 30.0814C48.1911 29.838 48.5213 29.7012 48.8656 29.7012C49.21 29.7012 49.5402 29.838 49.7836 30.0814C50.0271 30.3249 50.1639 30.6551 50.1639 30.9994C50.1587 31.3324 50.0222 31.6498 49.7841 31.8826C49.6707 32.0029 49.5338 32.0986 49.3819 32.1639C49.23 32.2293 49.0663 32.2628 48.901 32.2623C48.7282 32.2635 48.557 32.2303 48.3973 32.1644C48.2376 32.0986 48.0926 32.0016 47.9709 31.879C47.8492 31.7565 47.7531 31.6109 47.6884 31.4507C47.6237 31.2906 47.5915 31.1191 47.5939 30.9464" fill="#007DC5"/>
<path d="M67.5799 31.4675H62.7843V34.7528H67.4032V36.7135H62.7843V43.2577H60.7354V29.5068H67.5799V31.4675Z" fill="#007DC5"/>
<path d="M72.676 38.8595C72.6355 39.6096 72.8854 40.3465 73.3737 40.9173C73.8775 41.4035 74.5503 41.6752 75.2504 41.6752C75.9506 41.6752 76.6234 41.4035 77.1271 40.9173C77.585 40.3444 77.8345 39.6327 77.8345 38.8993C77.8345 38.1658 77.585 37.4542 77.1271 36.8813C76.887 36.6259 76.5947 36.4251 76.2701 36.2925C75.9456 36.16 75.5963 36.0987 75.246 36.1129C74.8999 36.1008 74.5552 36.1631 74.2352 36.2957C73.9153 36.4282 73.6275 36.6279 73.3914 36.8813C72.9032 37.4216 72.6463 38.1319 72.676 38.8595ZM70.6535 38.8595C70.6421 38.2625 70.7556 37.6697 70.9868 37.1191C71.218 36.5685 71.5617 36.0724 71.9959 35.6625C72.8786 34.8094 74.0582 34.3325 75.2857 34.3325C76.5133 34.3325 77.6929 34.8094 78.5755 35.6625C79.4336 36.5319 79.9148 37.7043 79.9148 38.9258C79.9148 40.1473 79.4336 41.3197 78.5755 42.1891C78.1356 42.6178 77.6145 42.9542 77.0427 43.1787C76.4709 43.4032 75.8601 43.5111 75.246 43.4962C74.6389 43.5105 74.0354 43.3995 73.4731 43.17C72.9109 42.9406 72.402 42.5976 71.9783 42.1626C71.5455 41.7303 71.205 41.2146 70.9773 40.6469C70.7496 40.0791 70.6395 39.4711 70.6535 38.8595Z" fill="#007DC5"/>
<path d="M84.7308 38.8595C84.6903 39.6096 84.9402 40.3465 85.4285 40.9173C85.9323 41.4035 86.6051 41.6752 87.3052 41.6752C88.0054 41.6752 88.6782 41.4035 89.182 40.9173C89.6399 40.3444 89.8893 39.6327 89.8893 38.8993C89.8893 38.1658 89.6399 37.4542 89.182 36.8813C88.9418 36.6259 88.6495 36.4251 88.3249 36.2925C88.0004 36.16 87.6511 36.0987 87.3008 36.1129C86.9547 36.1008 86.61 36.1631 86.2901 36.2957C85.9701 36.4282 85.6823 36.6279 85.4462 36.8813C84.958 37.4216 84.7011 38.1319 84.7308 38.8595ZM82.6819 38.8595C82.6726 38.2628 82.7871 37.6706 83.0181 37.1204C83.2492 36.5701 83.5918 36.0737 84.0243 35.6625C84.9069 34.8094 86.0865 34.3325 87.3141 34.3325C88.5416 34.3325 89.7212 34.8094 90.6038 35.6625C91.4619 36.5319 91.9431 37.7043 91.9431 38.9258C91.9431 40.1473 91.4619 41.3197 90.6038 42.1891C90.1639 42.6178 89.6428 42.9542 89.071 43.1787C88.4992 43.4032 87.8884 43.5111 87.2743 43.4962C86.6672 43.5105 86.0637 43.3995 85.5014 43.17C84.9392 42.9406 84.4303 42.5976 84.0066 42.1626C83.5739 41.7303 83.2333 41.2146 83.0056 40.6469C82.7779 40.0791 82.6678 39.4711 82.6819 38.8595Z" fill="#007DC5"/>
<path d="M97.1482 38.8596C97.1155 39.5919 97.351 40.311 97.8106 40.882C98.0243 41.1411 98.2948 41.3475 98.6011 41.4853C98.9074 41.6232 99.2412 41.6887 99.5769 41.6769C99.9084 41.6832 100.237 41.6186 100.542 41.4877C100.847 41.3567 101.12 41.1623 101.343 40.9174C101.784 40.3388 102.023 39.6313 102.023 38.9037C102.023 38.1762 101.784 37.4687 101.343 36.8901C101.123 36.6397 100.851 36.4404 100.546 36.3062C100.241 36.1719 99.9102 36.106 99.5769 36.1129C99.2424 36.1033 98.91 36.169 98.6043 36.305C98.2986 36.4411 98.0273 36.644 97.8106 36.899C97.3544 37.4478 97.1183 38.1465 97.1482 38.8596ZM101.908 28.1821H103.913V43.2754H101.917V42.3923C101.574 42.7507 101.163 43.0375 100.708 43.2361C100.254 43.4346 99.764 43.5411 99.2678 43.5492C98.6988 43.5636 98.1339 43.4505 97.6143 43.2182C97.0947 42.9859 96.6337 42.6403 96.265 42.2068C95.4632 41.2809 95.0461 40.0833 95.0992 38.8596C95.0654 37.6815 95.4824 36.5349 96.265 35.6537C96.6113 35.2457 97.0411 34.9168 97.5255 34.6893C98.0099 34.4618 98.5375 34.341 99.0726 34.3352C99.6077 34.3293 100.138 34.4385 100.627 34.6553C101.116 34.8721 101.553 35.1915 101.908 35.5919V28.1821Z" fill="#007DC5"/>
<path d="M118.485 34.1347L118.662 34.011C118.953 33.7902 119.192 33.596 119.377 33.437C119.527 33.3129 119.663 33.1738 119.784 33.0219C119.97 32.7932 120.068 32.5044 120.057 32.2094C120.063 32.0442 120.033 31.8797 119.968 31.7273C119.904 31.5748 119.808 31.438 119.687 31.3262C119.418 31.0932 119.07 30.973 118.715 30.9906C118.367 30.9796 118.029 31.1029 117.77 31.3351C117.642 31.4424 117.541 31.5782 117.475 31.7315C117.409 31.8849 117.38 32.0516 117.39 32.2182C117.404 32.6594 117.573 33.0817 117.867 33.4105L118.379 34.0375L118.485 34.17M118.053 36.8195L117.938 36.899C117.297 37.3044 116.704 37.7814 116.172 38.3209C115.892 38.6325 115.733 39.0331 115.721 39.4513C115.747 40.0403 115.993 40.5982 116.409 41.015C116.826 41.4319 117.384 41.6775 117.973 41.7034C118.777 41.7034 119.695 41.1735 120.746 40.1314L118.053 36.8195ZM119.695 35.6449L122.177 38.6388L122.257 38.5505C122.521 38.2591 122.778 37.9765 123.016 37.6673C123.255 37.3582 123.484 37.111 123.696 36.7842L125.056 38.1707C124.888 38.4092 124.668 38.683 124.394 39.0009C124.12 39.3189 123.802 39.6721 123.431 40.0872L125.983 43.2754H123.396L122.027 41.5886C121.541 42.1692 120.94 42.6431 120.262 42.9805C119.584 43.3179 118.844 43.5115 118.088 43.5492C116.944 43.5799 115.832 43.1651 114.988 42.3923C114.587 42.0237 114.268 41.574 114.054 41.0732C113.839 40.5723 113.733 40.0315 113.743 39.4867C113.743 38.7917 113.923 38.1087 114.265 37.5038C114.607 36.8988 115.1 36.3924 115.695 36.0335L116.578 35.4241H116.631L116.763 35.3181C115.954 34.5774 115.463 33.5517 115.394 32.4567C115.377 32.0392 115.446 31.6225 115.598 31.2333C115.75 30.8441 115.981 30.4907 116.278 30.1958C116.941 29.6394 117.779 29.3345 118.644 29.3345C119.51 29.3345 120.348 29.6394 121.011 30.1958C121.304 30.4675 121.534 30.7991 121.686 31.1679C121.839 31.5368 121.91 31.9342 121.894 32.333C121.9 32.9125 121.72 33.4785 121.382 33.9492C120.869 34.6238 120.259 35.219 119.572 35.7155" fill="#007DC5"/>
<path d="M137.491 41.2968H138.428C139.216 41.3183 140.002 41.217 140.759 40.9965C141.719 40.6749 142.549 40.0512 143.126 39.2187C143.702 38.3861 143.993 37.3894 143.956 36.3775C143.981 35.6946 143.859 35.0144 143.596 34.3833C143.334 33.7522 142.939 33.1853 142.437 32.7212C141.299 31.8075 139.857 31.3594 138.401 31.4671H137.465L137.491 41.2968ZM135.434 43.2751V29.5065H138.322C139.431 29.4726 140.539 29.6096 141.607 29.9128C142.483 30.1874 143.285 30.6553 143.956 31.2817C144.662 31.9245 145.218 32.7136 145.587 33.5937C145.956 34.4738 146.129 35.4238 146.093 36.3775C146.123 37.8036 145.697 39.202 144.878 40.3695C144.058 41.5369 142.888 42.4124 141.536 42.8688C140.482 43.1649 139.389 43.296 138.295 43.2574L135.434 43.2751Z" fill="#007DC5"/>
<path d="M149.388 34.5935H151.392V35.3266C151.672 35.0103 152.003 34.7445 152.373 34.5406C152.691 34.3741 153.047 34.292 153.406 34.3021C153.994 34.3228 154.565 34.5029 155.058 34.8232L154.174 36.6602C153.857 36.4074 153.467 36.2621 153.062 36.2451C151.975 36.2451 151.428 37.0752 151.428 38.7268V43.2751H149.423L149.388 34.5935Z" fill="#007DC5"/>
<path d="M159.95 34.5938V39.5571C159.95 40.9879 160.516 41.7032 161.655 41.7032C162.794 41.7032 163.368 40.9879 163.368 39.5571V34.5938H165.373V39.6101C165.381 40.2087 165.295 40.8048 165.117 41.3765C164.928 41.8496 164.625 42.2684 164.234 42.5952C163.493 43.1681 162.583 43.479 161.646 43.479C160.709 43.479 159.799 43.1681 159.058 42.5952C158.666 42.2695 158.363 41.8504 158.175 41.3765C157.981 40.8086 157.894 40.2097 157.919 39.6101V34.5938H159.95Z" fill="#007DC5"/>
<path d="M175.326 38.9302C175.362 38.1972 175.119 37.4778 174.646 36.9166C174.427 36.6647 174.155 36.4644 173.85 36.33C173.544 36.1957 173.213 36.1306 172.88 36.1394C172.536 36.1359 172.197 36.2141 171.89 36.3677C171.583 36.5213 171.317 36.7457 171.113 37.0225C170.732 37.6003 170.528 38.2775 170.528 38.9699C170.528 39.6624 170.732 40.3396 171.113 40.9173C171.323 41.1827 171.592 41.3953 171.899 41.538C172.206 41.6806 172.541 41.7493 172.88 41.7386C173.227 41.7539 173.573 41.6866 173.889 41.5423C174.205 41.398 174.483 41.1808 174.699 40.9085C175.129 40.3545 175.348 39.6659 175.317 38.9655M177.234 43.0899C177.234 43.505 177.234 43.8582 177.189 44.1762C177.145 44.4941 177.128 44.7591 177.083 44.9975C176.939 45.6236 176.634 46.2017 176.2 46.6755C175.798 47.1303 175.299 47.4886 174.739 47.7241C174.18 47.9595 173.574 48.066 172.968 48.0356C171.933 48.0761 170.918 47.7439 170.106 47.0994C169.718 46.7687 169.4 46.3642 169.17 45.9093C168.939 45.4545 168.801 44.9585 168.764 44.45H170.778C170.83 44.8051 170.963 45.1435 171.166 45.4391C171.382 45.711 171.66 45.9268 171.976 46.0683C172.293 46.2097 172.639 46.2726 172.986 46.2516C174.452 46.2516 175.185 45.3508 175.185 43.5491V42.2862C174.835 42.6691 174.409 42.9751 173.935 43.1849C173.461 43.3947 172.948 43.5037 172.429 43.505C171.888 43.514 171.351 43.4039 170.856 43.1827C170.362 42.9614 169.922 42.6343 169.568 42.2244C168.795 41.3216 168.388 40.162 168.428 38.9743C168.396 37.8092 168.771 36.6692 169.488 35.7508C169.844 35.2949 170.302 34.9294 170.825 34.6839C171.348 34.4383 171.922 34.3197 172.5 34.3377C173.018 34.3312 173.53 34.4386 174.002 34.6523C174.474 34.866 174.892 35.1807 175.229 35.5741V34.5938H177.234V43.0899Z" fill="#007DC5"/>
<path d="M195.454 37.9762L193.413 33.2866L191.276 37.9762H195.454ZM196.337 39.9368H190.411L188.883 43.2752H186.648L193.413 28.6411L200.011 43.2752H197.741L196.337 39.9368Z" fill="#007DC5"/>
<path d="M204.418 34.5938V39.5571C204.418 40.9879 204.992 41.7032 206.131 41.7032C207.27 41.7032 207.844 40.9879 207.844 39.5571V34.5938H209.849V39.6101C209.859 40.2095 209.769 40.8063 209.584 41.3765C209.398 41.8513 209.094 42.2708 208.701 42.5952C207.96 43.1681 207.05 43.479 206.113 43.479C205.177 43.479 204.267 43.1681 203.526 42.5952C203.136 42.2669 202.833 41.8486 202.642 41.3765C202.456 40.8069 202.373 40.2089 202.395 39.6101V34.5938H204.418Z" fill="#007DC5"/>
<path d="M216.004 36.457V43.2574H213.999V36.457H213.143V34.5935H213.999V31.3965H216.004V34.5935H217.567V36.457H216.004Z" fill="#007DC5"/>
<path d="M220.262 28.2085H222.267V35.2738C222.905 34.6709 223.746 34.3277 224.625 34.3112C225.066 34.2994 225.506 34.3841 225.911 34.5595C226.317 34.735 226.68 34.9968 226.974 35.3268C227.54 36.0884 227.807 37.031 227.724 37.9763V43.2753H225.72V38.1176C225.762 37.5874 225.632 37.0576 225.349 36.6074C225.2 36.4426 225.014 36.3146 224.808 36.2334C224.601 36.1522 224.378 36.12 224.156 36.1393C223.874 36.1123 223.589 36.1583 223.329 36.2727C223.07 36.3871 222.844 36.5662 222.673 36.7929C222.337 37.4966 222.194 38.2767 222.258 39.0538V43.2753H220.262V28.2085Z" fill="#007DC5"/>
<path d="M232.873 38.8592C232.833 39.6076 233.08 40.3431 233.562 40.917C233.804 41.1694 234.096 41.3676 234.421 41.4985C234.745 41.6295 235.093 41.6901 235.443 41.6765C235.793 41.6936 236.142 41.6345 236.467 41.5034C236.792 41.3723 237.084 41.1722 237.324 40.917C237.776 40.3414 238.022 39.6308 238.022 38.899C238.022 38.1671 237.776 37.4565 237.324 36.8809C237.084 36.6255 236.791 36.4248 236.467 36.2922C236.142 36.1596 235.793 36.0984 235.443 36.1126C235.096 36.0987 234.751 36.1602 234.431 36.2929C234.111 36.4256 233.823 36.6262 233.588 36.8809C233.1 37.4213 232.843 38.1316 232.873 38.8592ZM230.824 38.8592C230.812 38.2622 230.926 37.6694 231.157 37.1188C231.388 36.5682 231.732 36.072 232.166 35.6622C233.047 34.8096 234.226 34.333 235.452 34.333C236.678 34.333 237.856 34.8096 238.737 35.6622C239.599 36.5293 240.083 37.7025 240.083 38.9255C240.083 40.1484 239.599 41.3216 238.737 42.1887C238.299 42.618 237.78 42.9549 237.209 43.1794C236.639 43.404 236.029 43.5116 235.416 43.4958C234.809 43.5102 234.206 43.3992 233.643 43.1697C233.081 42.9402 232.572 42.5973 232.149 42.1623C231.714 41.7312 231.373 41.2157 231.145 40.6477C230.917 40.0797 230.808 39.471 230.824 38.8592Z" fill="#007DC5"/>
<path d="M243.409 34.5939H245.414V35.3269C245.697 35.0147 246.028 34.7494 246.394 34.5409C246.713 34.3755 247.069 34.2935 247.428 34.3024C248.015 34.3218 248.587 34.502 249.079 34.8235L248.196 36.6605C247.878 36.4078 247.489 36.2624 247.083 36.2454C245.988 36.2454 245.44 37.0756 245.44 38.7271V43.2754H243.436L243.409 34.5939Z" fill="#007DC5"/>
<path d="M253.724 43.2751H251.702V34.5936H253.706L253.724 43.2751ZM251.428 30.9991C251.43 30.6579 251.567 30.3312 251.808 30.0899C252.049 29.8486 252.376 29.712 252.717 29.7097C252.889 29.7064 253.061 29.7384 253.22 29.8037C253.38 29.869 253.524 29.9662 253.644 30.0895C253.764 30.2036 253.859 30.3406 253.924 30.4923C253.99 30.6441 254.024 30.8074 254.024 30.9726C254.019 31.3056 253.883 31.623 253.644 31.8558C253.53 31.9753 253.393 32.0705 253.242 32.1357C253.09 32.201 252.927 32.2349 252.761 32.2356C252.596 32.2344 252.433 32.2003 252.281 32.135C252.13 32.0698 251.993 31.9749 251.878 31.8558C251.754 31.7343 251.656 31.5884 251.591 31.4273C251.525 31.2663 251.494 31.0934 251.498 30.9196" fill="#007DC5"/>
<path d="M259.43 36.457V43.2574H257.425V36.457H256.568V34.5935H257.425V31.3965H259.43V34.5935H260.993V36.457H259.43Z" fill="#007DC5"/>
<path d="M266.671 41.6502L262.768 34.5938H265.09L267.749 39.5748L270.221 34.5938H272.482L265.576 47.9737H263.289L266.671 41.6502Z" fill="#007DC5"/>
<path d="M271.723 24.7729H0.0439453V25.4088H271.723V24.7729Z" fill="#00B258"/>
</g>
<defs>
<clipPath id="clip0_13_4929">
<rect width="338.464" height="48" fill="white"/>
</clipPath>
</defs>
</svg>
