<svg width="107" height="48" viewBox="0 0 107 48" fill="none" xmlns="http://www.w3.org/2000/svg">
<g clip-path="url(#clip0_13_5951)">
<path fill-rule="evenodd" clip-rule="evenodd" d="M0 43.2343C0.433049 42.8012 0.77265 42.3545 1.0188 41.8941C1.23761 41.4565 1.40171 40.9255 1.51111 40.301L3.22051 28.7317C3.24786 28.4628 3.27521 28.2326 3.30256 28.0411C3.32992 27.8497 3.34359 27.6719 3.34359 27.5078C3.34359 27.2662 3.28889 27.0497 3.17949 26.8582C3.09744 26.6668 2.86724 26.3955 2.48889 26.0446H6.89231L12.0274 38.7967L17.0803 26.0446H21.2786C21.0325 26.2634 20.8433 26.5209 20.7111 26.8172C20.6017 27.0907 20.547 27.4166 20.547 27.795C20.547 27.9864 20.547 28.1505 20.547 28.2873C20.5744 28.4195 20.588 28.554 20.588 28.6907L22.0923 40.5061C22.147 41.0759 22.2838 41.5773 22.5026 42.0104C22.694 42.448 22.9652 42.8559 23.3162 43.2343H18.6325C18.9561 42.9927 19.2 42.7078 19.3641 42.3796C19.5009 42.0787 19.5692 41.7118 19.5692 41.2787C19.5692 41.1693 19.5692 41.0873 19.5692 41.0326C19.5692 40.9779 19.5692 40.9255 19.5692 40.8753L18.1402 28.7317L12.1915 43.4394C11.7265 43.1659 11.3322 42.799 11.0085 42.3386C10.653 41.8508 10.3134 41.2126 9.98975 40.424L5.17607 28.8138L3.46667 40.1369C3.41197 40.4924 3.38462 40.7522 3.38462 40.9163C3.35727 41.0759 3.34359 41.1967 3.34359 41.2787C3.34359 41.689 3.42564 42.0423 3.58974 42.3386C3.74929 42.6394 4.00684 42.938 4.36239 43.2343H0ZM27.6376 41.2377C27.5556 41.3745 27.5009 41.5249 27.4735 41.689C27.4462 41.8485 27.4325 42.0104 27.4325 42.1745C27.4325 42.3386 27.4872 42.5027 27.5966 42.6668C27.706 42.8263 27.8701 43.0155 28.0889 43.2343H24.5402C24.841 43.0428 25.1123 42.7716 25.3538 42.4206C25.5727 42.0696 25.8051 41.5933 26.0513 40.9916L30.2906 30.3181C30.3681 30.1312 30.4205 29.942 30.4479 29.7505C30.5026 29.5317 30.5299 29.3562 30.5299 29.224C30.5299 29.0599 30.4889 28.8958 30.4068 28.7317C30.3293 28.595 30.1949 28.4605 30.0034 28.3283H33.4291L38.1539 40.8343C38.4 41.4041 38.6462 41.8645 38.8923 42.2155C39.1339 42.571 39.4598 42.9106 39.8701 43.2343H35.5897L35.6718 43.1933C36.0501 42.7876 36.2393 42.4753 36.2393 42.2565C36.2393 42.0377 36.1573 41.7118 35.9932 41.2787C35.9658 41.1967 35.9385 41.142 35.9111 41.1146L34.6462 37.6548H29.0667L27.6376 41.2377ZM29.6342 36.1437H34.0786L31.959 30.4001L29.6342 36.1437ZM43.9795 40.5813C43.9795 41.3426 44.0479 41.901 44.1846 42.2565C44.3214 42.6349 44.5516 42.9608 44.8752 43.2343H40.8C41.1009 42.9608 41.3197 42.6349 41.4564 42.2565C41.5886 41.901 41.6547 41.3426 41.6547 40.5813V30.9266C41.6547 30.1973 41.5886 29.6411 41.4564 29.2582C41.3197 28.9072 41.1009 28.595 40.8 28.3215H45.9351C47.4302 28.3215 48.6405 28.6748 49.5658 29.3813C50.4638 30.0879 50.9128 30.9973 50.9128 32.1095C50.9128 32.9255 50.6393 33.6457 50.0923 34.2702C49.5499 34.8947 48.6952 35.4371 47.5282 35.8975L51.4393 41.0736C51.6581 41.3973 51.9294 41.7232 52.253 42.0514C52.5812 42.4024 52.9482 42.7693 53.3539 43.1522L52.2188 43.2343H52.0137C51.4667 43.2343 50.9356 43.0975 50.4205 42.824C49.9054 42.5277 49.4701 42.1334 49.1145 41.6411L44.6359 35.4941C45.967 35.2206 46.9447 34.8263 47.5692 34.3112C48.1937 33.7961 48.506 33.1306 48.506 32.3146C48.506 31.5534 48.2348 30.9426 47.6923 30.4822C47.1727 29.9944 46.4798 29.7505 45.6137 29.7505C45.4222 29.7505 45.1898 29.7642 44.9162 29.7916C44.6473 29.8463 44.335 29.8987 43.9795 29.9488V40.5813ZM57.518 41.1967C57.4633 41.3608 57.4086 41.5226 57.3539 41.6822C57.3265 41.8463 57.3128 42.0104 57.3128 42.1745C57.3128 42.3112 57.3675 42.473 57.4769 42.6599C57.5818 42.824 57.7436 43.0155 57.9624 43.2343H54.4547C54.7556 43.0155 55.0154 42.7443 55.2342 42.4206C55.4758 42.0651 55.7197 41.575 55.9658 40.9505L60.1641 30.3181C60.2462 30.0993 60.3145 29.8964 60.3692 29.7095C60.3966 29.5181 60.4103 29.354 60.4103 29.2172C60.4103 29.0257 60.3692 28.8639 60.2872 28.7317C60.2051 28.595 60.0684 28.4446 59.8769 28.2805H63.3026L68.0752 40.7864C68.2895 41.3562 68.5197 41.8189 68.7658 42.1745C69.0393 42.5255 69.3652 42.8787 69.7436 43.2343H65.5043L65.5453 43.1933C65.9237 42.7557 66.1128 42.4434 66.1128 42.2565C66.1128 42.0377 66.0331 41.6981 65.8735 41.2377C65.8462 41.183 65.8325 41.1283 65.8325 41.0736L64.5265 37.648H58.9402L57.518 41.1967ZM59.5556 36.1095H63.959L61.8393 30.3659L59.5556 36.1095ZM74.1539 40.5471C74.1539 41.3084 74.2063 41.8645 74.3111 42.2155C74.4479 42.571 74.6804 42.897 75.0086 43.1933H70.9333C71.2296 42.897 71.4462 42.571 71.5829 42.2155C71.7197 41.8645 71.788 41.3084 71.788 40.5471V30.8924C71.788 30.1312 71.7197 29.575 71.5829 29.224C71.4462 28.8685 71.2296 28.5426 70.9333 28.2463H79.0838V30.6052C78.7282 30.3363 78.3339 30.1334 77.9009 29.9967C77.4678 29.8599 76.9641 29.7916 76.3898 29.7916C76.0935 29.7916 75.7539 29.8189 75.371 29.8736C75.02 29.9283 74.6143 29.9967 74.1539 30.0787V34.277H77.8188V36.4309C77.6274 36.244 77.3835 36.1095 77.0872 36.0275C76.8137 35.9454 76.2826 35.9044 75.494 35.9044H74.1539V40.5471ZM84.0547 40.5471C84.0547 41.3084 84.1231 41.8645 84.2598 42.2155C84.3966 42.571 84.6131 42.897 84.9094 43.1933H80.8342C81.1624 42.897 81.3949 42.571 81.5316 42.2155C81.6638 41.8645 81.7299 41.3084 81.7299 40.5471V30.8924C81.7299 30.1312 81.6638 29.575 81.5316 29.224C81.3949 28.8685 81.1624 28.5562 80.8342 28.2873H84.9094C84.6131 28.5562 84.3966 28.8685 84.2598 29.224C84.1231 29.575 84.0547 30.1312 84.0547 30.8924V40.5471ZM96.7727 43.4805C96.4217 43.5078 96.0957 43.5351 95.7949 43.5625C95.4712 43.5898 95.1727 43.6035 94.8992 43.6035C93.6502 43.6035 92.4536 43.3847 91.3094 42.9471C90.1698 42.5141 89.192 41.9169 88.3761 41.1557C87.5054 40.3397 86.8262 39.3756 86.3385 38.2634C85.8781 37.1238 85.6479 35.9431 85.6479 34.7215C85.6479 33.7414 85.796 32.791 86.0923 31.8702C86.3932 30.9722 86.8285 30.1289 87.3983 29.3403C88.2963 28.1186 89.4108 27.1819 90.7419 26.53C92.0729 25.8782 93.5271 25.5522 95.1043 25.5522C96.4353 25.5522 97.6843 25.771 98.8513 26.2087C100.023 26.6144 101.017 27.2115 101.832 28.0001C102.726 28.8389 103.405 29.8166 103.87 30.9334C104.33 32.0457 104.561 33.2673 104.561 34.5984C104.561 36.2257 104.153 37.6913 103.337 38.995C102.548 40.326 101.379 41.4679 99.8291 42.4206C101.461 43.8611 102.835 44.9072 103.952 45.5591C105.037 46.1836 105.987 46.5095 106.803 46.5369C106.475 46.9152 106.095 47.2001 105.662 47.3916C105.229 47.5785 104.725 47.6719 104.15 47.6719C103.339 47.6719 102.443 47.4007 101.463 46.8582C100.456 46.3431 98.8923 45.2172 96.7727 43.4805ZM95.1863 27.3847C93.2581 27.3847 91.6809 28.0366 90.4547 29.3403C89.2057 30.6713 88.5812 32.3557 88.5812 34.3933C88.5812 36.5129 89.192 38.2656 90.4137 39.6514C91.6399 41.0371 93.1761 41.73 95.0222 41.73C96.9231 41.73 98.5003 41.0782 99.7539 39.7745C101.003 38.4434 101.627 36.7591 101.627 34.7215C101.627 32.6018 101.003 30.8491 99.7539 29.4634C98.5276 28.0776 97.0051 27.3847 95.1863 27.3847Z" fill="#EE7D00"/>
<path fill-rule="evenodd" clip-rule="evenodd" d="M27.4324 41.3197C27.3503 41.4564 27.2956 41.6069 27.2683 41.771C27.2455 41.9305 27.2341 42.106 27.2341 42.2975C27.2341 42.4342 27.2865 42.5847 27.3914 42.7488C27.5008 42.9357 27.6649 43.1385 27.8837 43.3573H24.376C24.6495 43.1385 24.907 42.8536 25.1486 42.5026C25.3948 42.147 25.6273 41.6707 25.8461 41.0735L30.0854 30.4C30.1674 30.2131 30.2221 30.024 30.2495 29.8325C30.3042 29.6411 30.3315 29.4633 30.3315 29.2992C30.3315 29.1396 30.2905 28.9915 30.2085 28.8547C30.1264 28.718 29.9897 28.5676 29.7982 28.4035H33.2238L37.9897 40.9163C38.2085 41.4861 38.4409 41.9465 38.6871 42.2975C38.9287 42.653 39.2546 43.0063 39.6649 43.3573H35.3845L35.4666 43.2753C35.8449 42.8696 36.0341 42.571 36.0341 42.3795C36.0341 42.1334 35.952 41.7938 35.7879 41.3607C35.7652 41.2787 35.7401 41.224 35.7127 41.1966L34.4478 37.7368H28.8614L27.4324 41.3197ZM29.429 36.2667H33.8734L31.7538 30.4821L29.429 36.2667ZM43.8153 40.7453C43.8153 41.5066 43.87 42.065 43.9794 42.4206C44.1162 42.7716 44.3486 43.0975 44.6768 43.3983H40.5948C40.8956 43.0975 41.1144 42.7716 41.2512 42.4206C41.3879 42.065 41.4563 41.5066 41.4563 40.7453V31.0906C41.4563 30.3294 41.3879 29.7733 41.2512 29.4223C41.1144 29.0713 40.8956 28.7453 40.5948 28.4445H45.7777C47.2455 28.4445 48.4398 28.7978 49.3606 29.5043C50.2586 30.2109 50.7076 31.1203 50.7076 32.2325C50.7076 33.0758 50.4364 33.7961 49.8939 34.3932C49.3515 35.0177 48.5082 35.5738 47.364 36.0616L51.2409 41.2376C51.4552 41.5339 51.7264 41.8599 52.0546 42.2154C52.3783 42.5391 52.7452 42.8923 53.1555 43.2753L52.0136 43.3983H51.8495C51.2797 43.3983 50.735 43.2479 50.2153 42.947C49.7002 42.6781 49.2672 42.2838 48.9162 41.7641L44.4717 35.6582C45.8028 35.3573 46.7669 34.9493 47.364 34.4342C47.9885 33.9191 48.3008 33.2536 48.3008 32.4376C48.3008 31.7037 48.0295 31.0929 47.4871 30.6052C46.972 30.1448 46.2791 29.9146 45.4085 29.9146C45.217 29.9146 44.9868 29.926 44.7179 29.9488C44.4444 29.9761 44.1435 30.0171 43.8153 30.0718V40.7453ZM57.3127 41.4017C57.258 41.5339 57.2033 41.6821 57.1486 41.8462C57.1213 42.0103 57.1076 42.1744 57.1076 42.3385C57.1076 42.498 57.1623 42.6599 57.2717 42.824C57.3811 42.9881 57.5429 43.1795 57.7572 43.3983H54.2563C54.5526 43.2069 54.8102 42.9334 55.029 42.5778C55.2751 42.2268 55.519 41.7527 55.7606 41.1556L59.9589 30.4821C60.0409 30.2906 60.1093 30.1015 60.164 29.9146C60.1914 29.7231 60.205 29.5453 60.205 29.3812C60.205 29.2171 60.164 29.0553 60.082 28.8958C59.9999 28.759 59.8654 28.6223 59.6785 28.4855H63.0974L67.87 40.9915C68.0888 41.5613 68.319 42.024 68.5606 42.3795C68.8341 42.7305 69.1737 43.0701 69.5794 43.3983H65.2991L65.3401 43.3573C65.723 42.947 65.9144 42.6485 65.9144 42.4616C65.9144 42.2154 65.8324 41.8758 65.6683 41.4428C65.6409 41.3607 65.6273 41.306 65.6273 41.2787L64.3213 37.812H58.735L57.3127 41.4017ZM59.3572 36.3146H63.7538L61.6341 30.571L59.3572 36.3146ZM73.9555 40.7522C73.9555 41.5134 74.0238 42.0696 74.1606 42.4206C74.2654 42.8035 74.482 43.1294 74.8102 43.3983H70.735C71.0313 43.1294 71.2478 42.8035 71.3845 42.4206C71.5213 42.0696 71.5897 41.5134 71.5897 40.7522V31.1385C71.5897 30.3772 71.5213 29.8211 71.3845 29.4701C71.2478 29.0872 71.0313 28.7613 70.735 28.4923H78.8854V30.8513C78.5344 30.555 78.1401 30.3522 77.7025 30.2428C77.2694 30.106 76.768 30.0376 76.1982 30.0376C75.8974 30.0376 75.5714 30.0513 75.2204 30.0787C74.8375 30.1334 74.4159 30.2154 73.9555 30.3248V34.4753H77.6204V36.6359C77.4335 36.449 77.2033 36.3146 76.9298 36.2325C76.629 36.1505 76.0865 36.1094 75.3025 36.1094H73.9555V40.7522ZM83.8632 40.7932C83.8632 41.5271 83.9293 42.0832 84.0615 42.4616C84.1982 42.8126 84.4307 43.1248 84.7589 43.3983H80.6427C80.9663 43.1248 81.1965 42.8126 81.3333 42.4616C81.47 42.0832 81.5384 41.5271 81.5384 40.7932V31.0975C81.5384 30.3636 81.47 29.8188 81.3333 29.4633C81.1965 29.0849 80.9663 28.759 80.6427 28.4855H84.7589C84.4307 28.759 84.1982 29.0849 84.0615 29.4633C83.9293 29.8188 83.8632 30.3636 83.8632 31.0975V40.7932ZM96.5811 43.7265C96.2256 43.7812 95.8996 43.8223 95.6033 43.8496C95.2751 43.8496 94.9743 43.8496 94.7008 43.8496C93.4518 43.8496 92.2575 43.6445 91.1179 43.2342C89.9737 42.8012 88.9937 42.1904 88.1777 41.4017C87.3116 40.6131 86.6461 39.649 86.1811 38.5094C85.6934 37.3972 85.4495 36.2166 85.4495 34.9676C85.4495 33.9875 85.5999 33.0508 85.9008 32.1573C86.1971 31.2319 86.6301 30.375 87.1999 29.5864C88.1253 28.3921 89.2398 27.469 90.5435 26.8171C91.8746 26.1653 93.3287 25.8394 94.9059 25.8394C96.237 25.8394 97.4882 26.0445 98.6598 26.4547C99.8267 26.8878 100.832 27.4849 101.675 28.2462C102.546 29.0849 103.211 30.0627 103.672 31.1795C104.132 32.3191 104.362 33.5408 104.362 34.8445C104.362 36.4718 103.968 37.951 103.179 39.2821C102.368 40.6131 101.187 41.7413 99.6375 42.6667C101.265 44.1345 102.637 45.1807 103.754 45.8052C104.839 46.457 105.789 46.7829 106.605 46.7829C106.281 47.1886 105.901 47.4872 105.463 47.6787C105.03 47.8656 104.529 47.959 103.959 47.959C103.143 47.959 102.245 47.6878 101.265 47.1453C100.262 46.6029 98.7008 45.4633 96.5811 43.7265ZM94.988 27.6308C93.0871 27.6308 91.5122 28.2963 90.2632 29.6274C89.037 30.9311 88.4102 32.6154 88.3828 34.6804C88.3828 36.7727 89.0096 38.5117 90.2632 39.8975C91.4848 41.306 93.0051 42.0103 94.8239 42.0103C96.7293 42.0103 98.3065 41.347 99.5555 40.0206C100.804 38.7168 101.429 37.0325 101.429 34.9676C101.429 32.8479 100.804 31.0952 99.5555 29.7094C98.3338 28.3237 96.8113 27.6308 94.988 27.6308Z" fill="#EE7D00"/>
<path fill-rule="evenodd" clip-rule="evenodd" d="M51.3639 10.6461C51.3639 10.6461 51.1587 17.1214 45.4083 17.2034H15.4117C15.4117 17.2034 14.9605 22.988 8.1502 23.7196C8.1502 23.7196 4.64934 23.9658 2.20148 23.1111L0.936523 20.0137C0.936523 20.0137 3.95191 21.9692 6.89208 21.7641C6.89208 21.7641 11.6989 21.4017 12.3485 16.9983H6.93311C6.93311 16.9983 2.769 17.2444 2.57071 13.4154C2.57071 13.4154 2.68695 7.75383 8.23225 7.34358C8.23225 7.34358 15.1656 6.57093 15.6921 14.5573H44.4305C44.4305 14.5573 46.9605 15.0427 48.1434 12.9231C48.1434 12.9231 48.4716 11.9043 48.5536 10.6461H39.4186C39.4186 10.6461 39.0493 4.69742 45.3331 4.57435C45.3331 4.57435 51.3639 4.16409 51.3639 10.6461ZM48.3485 8.73161C48.3485 8.73161 48.1434 6.2017 45.5724 6.2017C45.5724 6.2017 42.6391 6.16067 42.1126 8.73161H48.3485ZM12.7177 14.6803C12.7177 14.6803 12.7177 9.38118 8.96387 9.13503C8.96387 9.13503 6.31772 8.85469 5.50405 11.9043C5.50405 11.9043 4.97071 14.5573 7.1314 14.6803H12.7177ZM54.5023 0.294004H59.1519C59.1519 0.294004 58.4955 1.43588 58.4545 2.09229V15.494C58.4545 15.494 58.4545 16.6359 59.1519 16.9983H54.5434C54.5434 16.9983 55.357 16.5128 55.4391 15.8974V1.96922C55.4391 1.96922 55.1519 0.417081 54.5023 0.294004ZM63.063 8.85469H67.7126C67.7126 8.85469 66.8169 9.87349 66.7758 11.2957V14.5573H92.4579V8.81366C92.4579 8.81366 92.4579 7.46665 91.5143 7.0564H99.4254C99.4254 7.0564 104.56 7.0564 104.355 12.4376C104.355 12.4376 104.157 16.3487 99.7536 17.2034C99.7536 17.2034 98.1194 17.2034 97.4288 16.9983L95.8767 14.8376C95.8767 14.8376 97.5929 15.6171 99.1382 15.1658C99.1382 15.1658 101.545 14.6393 101.586 11.9043C101.586 11.9043 101.258 8.85469 98.0374 8.73161C98.0374 8.73161 96.6972 8.69059 95.3092 9.094V17.5316H66.8169C66.8169 17.5316 67.5485 22.906 61.3946 23.7607C61.3946 23.7607 63.9587 21.8051 63.9587 19.4461V10.6051C63.9587 10.6051 63.6305 9.21708 63.063 8.85469ZM45.4904 2.82392C44.7246 2.82392 44.1092 2.2017 44.1092 1.43588C44.1092 0.670072 44.7246 0.0546875 45.4904 0.0546875C46.263 0.0546875 46.8784 0.670072 46.8784 1.43588C46.8784 2.2017 46.263 2.82392 45.4904 2.82392ZM10.7827 5.8393C10.0305 5.8393 9.41516 5.21708 9.41516 4.45127C9.41516 3.68546 10.0305 3.07007 10.7827 3.07007C11.5348 3.07007 12.1502 3.68546 12.1502 4.45127C12.1502 5.21708 11.5348 5.8393 10.7827 5.8393ZM6.769 5.8393C6.00319 5.8393 5.38097 5.21708 5.38097 4.45127C5.38097 3.68546 6.00319 3.07007 6.769 3.07007C7.53481 3.07007 8.1502 3.68546 8.1502 4.45127C8.1502 5.21708 7.53481 5.8393 6.769 5.8393Z" fill="#233774"/>
</g>
<defs>
<clipPath id="clip0_13_5951">
<rect width="106.803" height="48" fill="white"/>
</clipPath>
</defs>
</svg>
